/* XPM */
static char * file_dot_ttf_xpm[] = {
"48 48 234 2",
"  	c None",
". 	c #000000",
"+ 	c #FFFFFF",
"@ 	c #1C1C1C",
"# 	c #555555",
"$ 	c #383838",
"% 	c #AAAAAA",
"& 	c #8D8D8D",
"* 	c #C6C6C6",
"= 	c #E2E2E2",
"- 	c #717171",
"; 	c #FDFDFD",
"> 	c #FCFCFC",
", 	c #FAFAFA",
"' 	c #F9F9F9",
") 	c #F7F7F7",
"! 	c #F6F6F6",
"~ 	c #F4F4F4",
"{ 	c #F3F3F3",
"] 	c #F2F2F2",
"^ 	c #F0F0F0",
"/ 	c #EFEFEF",
"( 	c #EDEDED",
"_ 	c #ECECEC",
": 	c #EAEAEA",
"< 	c #E9E9E9",
"[ 	c #E7E7E7",
"} 	c #E6E6E6",
"| 	c #E4E4E4",
"1 	c #E3E3E3",
"2 	c #E1E1E1",
"3 	c #E0E0E0",
"4 	c #DEDEDE",
"5 	c #DDDDDD",
"6 	c #DBDBDB",
"7 	c #DADADA",
"8 	c #D8D8D8",
"9 	c #D7D7D7",
"0 	c #D5D5D5",
"a 	c #F1F1F1",
"b 	c #D4D4D4",
"c 	c #EEEEEE",
"d 	c #EBEBEB",
"e 	c #D2D2D2",
"f 	c #E8E8E8",
"g 	c #D1D1D1",
"h 	c #E5E5E5",
"i 	c #CFCFCF",
"j 	c #FBFBFB",
"k 	c #F8F8F9",
"l 	c #F6F7F7",
"m 	c #F4F4F5",
"n 	c #F3F4F4",
"o 	c #F1F1F2",
"p 	c #EFF0F0",
"q 	c #EDEDEE",
"r 	c #ECEDED",
"s 	c #EAEAEB",
"t 	c #DFDFDF",
"u 	c #CECECE",
"v 	c #FEFEFE",
"w 	c #B0B5B6",
"x 	c #7A8285",
"y 	c #7B8386",
"z 	c #A6AAAD",
"A 	c #DCDCDC",
"B 	c #D9D9D9",
"C 	c #CCCCCC",
"D 	c #B0B4B6",
"E 	c #7C8487",
"F 	c #A7ACAD",
"G 	c #B0B5B5",
"H 	c #ADB2B2",
"I 	c #81888B",
"J 	c #999FA1",
"K 	c #A8ADAE",
"L 	c #8F9697",
"M 	c #D2D5D5",
"N 	c #D6D6D6",
"O 	c #CBCBCB",
"P 	c #AFB4B5",
"Q 	c #81898C",
"R 	c #949A9C",
"S 	c #D4D7D7",
"T 	c #DFE0E0",
"U 	c #D9DBDC",
"V 	c #899092",
"W 	c #BABEBE",
"X 	c #D6D8D8",
"Y 	c #BCBFC1",
"Z 	c #92989B",
"` 	c #888F92",
" .	c #BFC3C3",
"..	c #D3D3D3",
"+.	c #D0D0D0",
"@.	c #C9C9C9",
"#.	c #8F9698",
"$.	c #C1C5C5",
"%.	c #969C9E",
"&.	c #DBDDDD",
"*.	c #B9BCBE",
"=.	c #CDCDCD",
"-.	c #C8C8C8",
";.	c #AEB3B5",
">.	c #959C9D",
",.	c #DBDCDC",
"'.	c #B8BCBE",
").	c #CACACA",
"!.	c #C7C7C7",
"~.	c #F8F8F8",
"{.	c #E3E4E5",
"].	c #CCCFD0",
"^.	c #959B9D",
"/.	c #778086",
"(.	c #5B6B8C",
"_.	c #A2ABC3",
":.	c #C6CCDB",
"<.	c #C5CBDA",
"[.	c #8390AC",
"}.	c #607193",
"|.	c #7E8CAE",
"1.	c #B4BBD0",
"2.	c #C1C7D6",
"3.	c #C0C6D5",
"4.	c #BFC5D5",
"5.	c #BEC4D3",
"6.	c #BDC3D2",
"7.	c #D1D3D8",
"8.	c #C4C4C4",
"9.	c #F5F5F5",
"0.	c #CBCFCF",
"a.	c #737D87",
"b.	c #365095",
"c.	c #395398",
"d.	c #3F589A",
"e.	c #365097",
"f.	c #324D96",
"g.	c #355097",
"h.	c #3B5498",
"i.	c #A4ADC7",
"j.	c #C3C3C3",
"k.	c #7F8EAE",
"l.	c #B8BDC1",
"m.	c #5C70A3",
"n.	c #566BA1",
"o.	c #8A97B2",
"p.	c #7081AA",
"q.	c #C7C9C9",
"r.	c #C1C1C1",
"s.	c #B3BBCF",
"t.	c #8090B8",
"u.	c #576CA2",
"v.	c #DADBDB",
"w.	c #D4D5D9",
"x.	c #C1C6D3",
"y.	c #4F66A3",
"z.	c #6E7FA9",
"A.	c #C3C7C7",
"B.	c #C0C0C0",
"C.	c #C9CEDB",
"D.	c #93A0C2",
"E.	c #C0C4C4",
"F.	c #6175AA",
"G.	c #BEBEBE",
"H.	c #949B9C",
"I.	c #C8CCDA",
"J.	c #939FC2",
"K.	c #6275AB",
"L.	c #BDBDBD",
"M.	c #798186",
"N.	c #697589",
"O.	c #D1D3D7",
"P.	c #939FC1",
"Q.	c #CDCFD2",
"R.	c #C7CAD1",
"S.	c #BBBBBB",
"T.	c #D3D4D5",
"U.	c #929FC1",
"V.	c #D3D4D4",
"W.	c #CFD1D1",
"X.	c #BABABA",
"Y.	c #93999B",
"Z.	c #D1D3D4",
"`.	c #929EC0",
" +	c #B8B8B8",
".+	c #9FA5A7",
"++	c #9DA3A5",
"@+	c #7F878A",
"#+	c #909699",
"$+	c #B1B5B7",
"%+	c #919EC0",
"&+	c #C5C5C5",
"*+	c #C2C2C2",
"=+	c #B7B7B7",
"-+	c #B3B7B9",
";+	c #A5AAAC",
">+	c #7E8DB6",
",+	c #BFBFBF",
"'+	c #B5B5B5",
")+	c #E2E3E3",
"!+	c #C4C8C8",
"~+	c #C4C7C7",
"{+	c #6175A6",
"]+	c #D1D2D2",
"^+	c #BCBCBC",
"/+	c #B9B9B9",
"(+	c #B4B4B4",
"_+	c #8C99BD",
":+	c #B6B6B6",
"<+	c #B2B2B2",
"[+	c #8F9CBE",
"}+	c #B3B3B3",
"|+	c #B0B0B0",
"1+	c #D3D3D5",
"2+	c #D2D2D4",
"3+	c #8493B9",
"4+	c #5268A0",
"5+	c #ADB4BD",
"6+	c #CACCCF",
"7+	c #C7C7C8",
"8+	c #AFAFAF",
"9+	c #A7B0C8",
"0+	c #919DBC",
"a+	c #D1D1D4",
"b+	c #C5C9D2",
"c+	c #949FB5",
"d+	c #ABB2C0",
"e+	c #CCCECE",
"f+	c #CBCECE",
"g+	c #CBCDCD",
"h+	c #CACDCD",
"i+	c #CACCCC",
"j+	c #C9CCCC",
"k+	c #B1B1B1",
". . . . . . . . . . . . . . . . . . . . . . . . . . . . . . . . . . . . . . . . . . . . . . . . ",
". . . . . . . . . . . . . . . . . . . . . . . . . . . . . . . . . . . . . . . . . . . . . . . . ",
". . + + + + + + + . . . . . . . . . . . . . . . . . . . . . . . . . @ # @ . . # $ . . $ % % . . ",
". . + . . . . . + . . . . . . . . . . . . . . . . . . . . . . . . . # + # . . + % . . % + . . . ",
". . + . . . . . + . . . . . . . . . . . . . . . . . . . . . . . . @ & + & @ # + * $ $ * + # . . ",
". . + . + . + . + . . . . . . . . . . . . . . . . . . . . . . . . $ * + * $ % + = - - = + % . . ",
". . + . . + . . + . . . . . . . . . . . . . . . . . . . . . . . . . # + # . . + % . . % + . . . ",
". . + . + . + . + . . . . . . . . . . . . . . . . . . . . . . . . . # + # . . + % . . % + . . . ",
". . + . . . . . + . . . . . . . . . . . . . . . . . . . . . . . . . # + # . . + % . . % + . . . ",
". . + . . . . . + . . . . . . . . . . . . . . . . . . . . . . . . . # + # . . + % . . % + . . . ",
". . + + + + + + + . . . . . . . . . . . . . . . . . . . . . . + # . # + * $ . + = - . % + . . . ",
". . . . . . . . . . . . . . . . . . . . . . . . . . . . . . . # @ . . $ # @ . @ # $ . $ # . . . ",
". . . . . . . . . . . . . . . . . . . . . . . . . . . . . . . . . . . . . . . . . . . . . . . . ",
". + + + + + + + + + + + + + + + + + + ; > , ' ) ! ~ { ] ^ / ( _ : < [ } | 1 2 3 4 5 6 7 8 9 0 . ",
". + + + + + + + + + + + + + + + + + ; > , ' ) ! ~ { a ^ / ( _ : < [ } | 1 2 3 4 5 6 7 8 9 0 b . ",
". + + + + + + + + + + + + + + + + ; > , ' ) ! ~ { a ^ c ( d : < [ } | 1 2 3 4 5 6 7 8 9 0 b e . ",
". + + + + + + + + + + + + + + + ; > , ' ) ! ~ { a ^ c ( d : f [ } | 1 2 3 4 5 6 7 8 9 0 b e g . ",
". + + + + + + + + + + + + + + ; > , ' ) ! ~ { a ^ c ( d : f [ h | = 2 3 4 5 6 7 8 9 0 b e g i . ",
". + + + + + + + + + + + j k l ! m n ] o p / q r d s : : f [ h | = 2 t 4 5 6 7 8 9 0 b e g i u . ",
". + + + + + + + + + + v w x y y y y y y y y y y y y z f [ h | = 2 t 4 A 6 B 8 9 0 b e g i u C . ",
". + + + + + + + + + + ; D x E F G H I y y y J K y y L M [ | = 2 t 4 A 6 B 8 N 0 b e g i u C O . ",
". + + + + + + + + + v ; P Q R S T U V y y y W X Y Z `  .} = 2 t 4 A 6 B 8 N 0 ..e +.i u C O @.. ",
". + + + + + + + + v ; j P #.$.~ ~ ] %.y y y &.: f *.`  .h 2 t 4 A 6 B 8 N 0 ..e +.i =.C O @.-.. ",
". + + + + + + + v ; j , ;.#.$.~ ] a >.y y y ,.f [ '.`  .| t 4 A 6 B 8 N 0 ..e +.i =.C ).@.!.* . ",
". + + + + + + v ; j , ~.{.].$.] a / ^.y /.(._.:.<.[.}.|.1.2.3.4.5.5.6.7...e +.i =.C ).@.!.* 8.. ",
". + + + + + v ; j , ~.) 9.] 0.a / c ^.y a.b.c.d.d.e.f.f.f.g.d.d.h.f.f.i.0 +.i =.C ).@.!.* 8.j.. ",
". + + + + v ; j , ~.) 9.~ ] a / c _ ^.y a.b.k.l.l.m.f.f.f.n.l.l.o.f.f.p.q.e =.C ).@.!.* 8.j.r.. ",
". + + + v ; j , ~.) 9.~ ] a / c _ d ^.y a.b.s.1 = t.f.f.f.u. .v.w.x.y.z.A.+.C ).@.!.* 8.j.r.B.. ",
". + + v ; j , ~.) 9.~ ] a / c _ d < ^.y a.b.C.3 t D.f.f.f.u.E.7 ....F.z.A.i ).@.!.* 8.j.r.B.G.. ",
". + v > j ' ~.) 9.~ ] a / c _ d < f H.y a.b.I.t 5 J.f.f.f.u.E.B e g K.z.A.=.@.!.* 8.j.r.B.G.L.. ",
". v > j ' ~.! 9.~ ] a / c _ d < f } R y M.N.O.5 A P.f.f.f.u.E.9 +.i Q.R.A.C !.* 8.j.r.B.G.L.S.. ",
". > j ' ~.! 9.{ ] ^ / c _ d < f } h R y y y T.A 7 U.f.f.f.u.E.N u =.O V.W.).* 8.j.r.B.G.L.S.X.. ",
". j ' ~.! 9.{ ] ^ / ( _ d < f } h | Y.y y y Z.7 B `.f.f.f.u.E.0 =.O ).-.!.* 8.j.r.B.G.L.S.X. +. ",
". ' ~.! 9.{ ] ^ / ( _ : < [ } '..+++@+y y y #+$+9 %+f.f.f.u.E.b O ).-.!.&+8.*+r.B.G.L.S.X. +=+. ",
". ~.! 9.{ ] ^ / ( _ : < [ } | W.-+>.>.>.>.>.>.;+,.>+f.f.f.u.E.e ).-.!.&+8.*+r.,+G.L.S.X. +=+'+. ",
". ! 9.{ ] ^ / ( _ : < [ } | 1 2 )+!+!+!+!+!+!+!+~+{+f.f.f.u.E.]+-.!.&+8.*+r.,+G.^+S./+ +=+'+(+. ",
". 9.{ ] ^ / ( _ : < [ } | 1 2 3 4 t 5 A 6 B B 9 N _+f.f.f.u.E.+.!.&+8.*+r.,+G.^+S./+ +:+'+(+<+. ",
". { ] ^ / ( _ : < [ } | 1 2 3 4 5 6 7 8 9 N b ..g [+f.f.f.u.E.i &+8.*+r.,+G.^+S./+ +:+'+}+<+|+. ",
". ] ^ / ( _ : < [ } | 1 2 3 4 5 6 7 8 9 0 b b 1+2+3+f.f.f.4+5+6+7+*+r.,+G.^+S./+ +:+'+}+<+|+8+. ",
". ^ / ( _ : < [ } | 1 2 3 4 5 6 7 8 9 0 b e 9+f.f.f.f.f.f.f.f.f.0+r.,+G.^+S./+ +:+'+}+<+|+8+8+. ",
". / ( _ : < [ } | 1 2 3 4 5 6 7 8 9 0 b e g a+b+c+c+c+c+c+c+c+c+d+e+j.^+S./+ +:+'+}+<+|+8+8+8+. ",
". ( d : < [ } | 1 2 3 4 5 6 7 8 9 0 b e g i u +.e+e+f+g+g+h+i+i+j+i+*+S./+ +:+'+}+<+|+8+8+8+8+. ",
". d : f [ } | 1 2 3 4 5 6 7 8 9 0 b e g i u C O @.-.* &+j.*+B.,+G.^+S./+ +:+'+}+<+|+8+8+8+8+8+. ",
". : f [ h | = 2 3 4 5 6 7 8 9 0 b e g i u C O @.-.* &+j.*+B.,+L.^+S./+ +:+'+}+<+|+8+8+8+8+8+8+. ",
". f [ h | = 2 t 4 5 6 7 8 9 0 b e g i u C O @.-.* &+j.*+B.,+L.^+X./+=+:+'+}+<+|+8+8+8+8+8+8+8+. ",
". [ h | = 2 t 4 A 6 B 8 9 0 b e g i u C O @.-.* &+j.*+B.,+L.^+X./+=+:+(+}+<+|+8+8+8+8+8+8+8+8+. ",
". h | = 2 t 4 A 6 B 8 N 0 b e g i u C O @.-.* &+j.*+B.,+L.^+X./+=+:+(+}+k+|+8+8+8+8+8+8+8+8+8+. ",
". . . . . . . . . . . . . . . . . . . . . . . . . . . . . . . . . . . . . . . . . . . . . . . . "};
