/* XPM */
static char * image_name[] = {
"48 48 221 2",
"  	c None",
". 	c #000000000000",
"X 	c #08200C300820",
"o 	c #104010400820",
"O 	c #186118610820",
"+ 	c #208120811040",
"@ 	c #186114510820",
"# 	c #28A228A21040",
"$ 	c #20811C710820",
"% 	c #082004100000",
"& 	c #4924451428A2",
"* 	c #41033CF32081",
"= 	c #410338E31861",
"- 	c #38E334D32081",
"; 	c #8E3882075144",
": 	c #A6999A696185",
"> 	c #965886175965",
", 	c #492449242081",
"< 	c #5965514430C2",
"1 	c #49243CF32081",
"2 	c #5965555538E3",
"3 	c #9E79965869A6",
"4 	c #CF3CC30B8617",
"5 	c #D75CCB2B8E38",
"6 	c #C71BB6DA79E7",
"7 	c #861775D64924",
"8 	c #59654D3428A2",
"9 	c #492441032081",
"0 	c #AEBAA28969A6",
"q 	c #C71BBAEA8617",
"w 	c #CF3CC30B8E38",
"e 	c #E79DDB6C9658",
"r 	c #D75CCB2B8617",
"t 	c #6185596538E3",
"y 	c #28A22CB21861",
"u 	c #6185555530C2",
"i 	c #000004100000",
"p 	c #AEBAA69979E7",
"a 	c #BEFBB2CA8617",
"s 	c #D75CCF3C8E38",
"d 	c #4103410328A2",
"f 	c #38E338E32081",
"g 	c #5144451428A2",
"h 	c #6185555528A2",
"j 	c #71C6618538E3",
"k 	c #79E765954103",
"l 	c #20811C711040",
"z 	c #38E334D31861",
"x 	c #5144492428A2",
"c 	c #9E798E385965",
"v 	c #A6999A6969A6",
"b 	c #B6DAAAAA8617",
"n 	c #69A6555530C2",
"m 	c #69A65D7538E3",
"M 	c #79E76DB64103",
"N 	c #8E387DF74924",
"B 	c #9E7992486185",
"V 	c #C71BBEFB9658",
"C 	c #C71BB6DA8617",
"Z 	c #C71BBEFB8E38",
"A 	c #CF3CBEFB71C6",
"S 	c #79E771C64924",
"D 	c #410345142081",
"F 	c #51444D3428A2",
"G 	c #79E76DB64924",
"H 	c #59654D3430C2",
"J 	c #6185596530C2",
"K 	c #69A6618538E3",
"L 	c #8E3875D64924",
"P 	c #A69996586185",
"I 	c #CF3CCB2BA699",
"U 	c #CF3CCB2B9658",
"Y 	c #C71BB2CA69A6",
"T 	c #49243CF328A2",
"R 	c #71C669A64103",
"E 	c #861771C64103",
"W 	c #BEFBBAEA9658",
"Q 	c #CF3CC30B9658",
"! 	c #CF3CBEFB79E7",
"~ 	c #B6DAA2896185",
"^ 	c #69A661854103",
"/ 	c #71C665954103",
"( 	c #30C230C21861",
") 	c #8E3879E74103",
"_ 	c #BEFBAAAA69A6",
"` 	c #A6998E385144",
"' 	c #861779E74924",
"] 	c #71C665954924",
"[ 	c #BEFBAAAA6185",
"{ 	c #96588A285144",
"} 	c #861775D64103",
"| 	c #965882074924",
" .	c #BEFBB2CA79E7",
"..	c #B6DAAEBA79E7",
"X.	c #30C228A21040",
"o.	c #596545142081",
"O.	c #69A6596530C2",
"+.	c #514445142081",
"@.	c #79E769A638E3",
"#.	c #86176DB64103",
"$.	c #9E7986174924",
"%.	c #A69996585965",
"&.	c #B6DAA69971C6",
"*.	c #AEBA9E7969A6",
"=.	c #38E334D31040",
"-.	c #30C22CB21040",
";.	c #514441032081",
":.	c #8E3875D64103",
">.	c #96587DF74924",
",.	c #9E7986175144",
"<.	c #9E798A285144",
"1.	c #9E7992485965",
"2.	c #CF3CBEFB8617",
"3.	c #AEBA9A695965",
"4.	c #30C22CB21861",
"5.	c #AEBA9A696185",
"6.	c #A699965869A6",
"7.	c #B6DA9E795965",
"8.	c #28A224921040",
"9.	c #86176DB638E3",
"0.	c #96587DF74103",
"q.	c #AEBA9E796185",
"w.	c #9E798A284924",
"e.	c #71C6618530C2",
"r.	c #8E3886175965",
"t.	c #5965514428A2",
"y.	c #71C65D7530C2",
"u.	c #79E7659530C2",
"i.	c #8E3871C638E3",
"p.	c #8E387DF75144",
"a.	c #AEBA96585965",
"s.	c #AEBA92484924",
"d.	c #96588A285965",
"f.	c #208118610820",
"g.	c #A6998E384924",
"h.	c #96588E386185",
"j.	c #71C6596528A2",
"k.	c #61854D3428A2",
"l.	c #861769A638E3",
"z.	c #A69992485144",
"x.	c #B6DAA69969A6",
"c.	c #79E771C64103",
"v.	c #B6DAAAAA71C6",
"b.	c #B6DAB2CA71C6",
"n.	c #5965492428A2",
"m.	c #9E7982074103",
"M.	c #8E3882074924",
"N.	c #AEBAA69971C6",
"B.	c #B6DAAAAA69A6",
"V.	c #965886175144",
"C.	c #5144514428A2",
"Z.	c #965879E74103",
"A.	c #4924492428A2",
"S.	c #69A65D7528A2",
"D.	c #51444D3430C2",
"F.	c #69A6514428A2",
"G.	c #71C6555528A2",
"H.	c #51443CF31861",
"J.	c #30C23CF31861",
"K.	c #618545141861",
"L.	c #965882074103",
"P.	c #18611C710820",
"I.	c #79E7618530C2",
"U.	c #AEBA96585144",
"Y.	c #30C241031861",
"T.	c #38E32CB21040",
"R.	c #71C669A638E3",
"E.	c #38E349242081",
"W.	c #A6998A284103",
"Q.	c #861779E738E3",
"!.	c #861786174924",
"~.	c #4924492430C2",
"^.	c #20812CB21040",
"/.	c #79E771C630C2",
"(.	c #79E779E74103",
").	c #28A234D31040",
"_.	c #30C238E31861",
"`.	c #28A230C21040",
"'.	c #79E796584103",
"].	c #186124921040",
"[.	c #208124920820",
"{.	c #28A220811040",
"}.	c #5144596528A2",
"|.	c #69A6659530C2",
" X	c #79E7820738E3",
".X	c #8E389A695144",
"XX	c #6185618530C2",
"oX	c #DF7DD34C8E38",
"OX	c #6185659530C2",
"+X	c #A699AAAA6185",
"@X	c #492459652081",
"#X	c #BEFBBAEA8617",
"$X	c #71C679E738E3",
"%X	c #71C675D64924",
"&X	c #D75CD34C9658",
"*X	c #514469A62081",
"=X	c #618575D630C2",
"-X	c #410351441861",
";X	c #9E7992485144",
":X	c #69A671C630C2",
">X	c #514451442081",
",X	c #8E3896584103",
"<X	c #B6DAA2895965",
"1X	c #208120810820",
"2X	c #6185596528A2",
"3X	c #618569A628A2",
"4X	c #8E3886174103",
"5X	c #86177DF75144",
"6X	c #4924555528A2",
"7X	c #410355551861",
"8X	c #38E3451428A2",
"9X	c #96589A6938E3",
"0X	c #5965659528A2",
"qX	c #492445142081",
"wX	c #69A66DB62081",
"eX	c #410341032081",
"rX	c #B6DAAAAA4924",
"tX	c #208128A20820",
"yX	c #618579E728A2",
"uX	c #410355552081",
"iX	c #9E79A69938E3",
"                                    . X o O                                                     ",
"                                    + @ # # $                                       % X .       ",
"                                    & $ * = $                                 o - ; : > ,       ",
"                                  . < $ * 1 *                           . o 2 3 4 4 5 6 7 .     ",
"                                  @ 2 - 8 1 = X                       o 9 0 q 4 w 5 e r t       ",
"                                  y 8 1 8 u 8 O                   i $ 8 : p q a q 5 s 6 d       ",
"                                  f g h j k u l                 o z x c v p b q w s r 6 %       ",
"                                i , 9 n m n M *               O g u N B b V C Z 5 s A S         ",
"                                + D 9 8 F g G H             o J K L P b I U Z w s r Y F         ",
"                                y f & G 7 T t g           % < R E c v W U Q w w 5 ! ~ o         ",
"                              i f f ^ / t g / t / < ( + O & G L ) _ a V Q Z w s ! _ `           ",
"                        X + ( ( & f H 8 & 8 < n M 7 S ' H ] 7 E [ 5 a Q U U w 4 ! [ <           ",
"                      o y ( z = t 1 g 1 T u 8 H u j { } 7 | ' j ~  ...U Z 6 q r A [ X           ",
"                    o f X.o.g x O.o.+.8 8 h O.k 7 @.#.) 7 ; $.N %.&.*.*.&.C 4 s A 8             ",
"                  o f < =.-.z ;.* 8 h :.E >.>.c k ,.<.7 <.N ,.| ,.1.' P &.C 2.A 3.i             ",
"                  4.& 8 9 * +.+.F :.:.<.>.:.E <.,.$.E :.| 5.7 <.| L 7 6.q 6 6 7.8.              ",
"                O * G 9 9 #.#.8 n 9.0.q.:.,.<.3.w.E <.%.5.7 j e.` ,.r.*.v P _ z                 ",
"                # 1 t.u j 9.9.y.e.e.E @.u.| $.i.0.$.i.%.%.P c j :.c B P p.M 8.                  ",
"              % # t.) u.@.5.i.:.i.:.N #.a.E 0.>.s.$.>.{ { 1.d.n E %.P ^ &                       ",
"              f.=.>.O.u.g.0.@.<.) E L ,.$.$.u.0.{ N E >.p.h.' j E 7 > S X                       ",
"            o z O.j.k.E a.i.:.e.:.l.:.w.z.9.| x.x.P <.c.B h.7 7 5.0 { >                         ",
"          o # x k k.u.9.:.a.u.i.| u.:.P :.<.*.h.: 0 v.x.d.B > B b.4 > R 4.                      ",
"          O 9 O.n.L m.n ` :.$.:.,.>.@.i.a.7 1 -.^ > M.r.P N.: B./ R c.p.y.d @                   ",
"          4.t.x k w.:.e.m.>.$.0.E >.E e.&.4.l X.R c > > r.r.B *.V./ M R #.u C.y                 ",
"        o C.u h @.l.9.Z.0.0.g.k >.| 7 @.m 4.$ l G B > S M S ' c ,.N N N / J H A.#               ",
"        ( J j S.n 9.u.E >.<.) ) <.3.>.>.1 4.l l D.t G ] K 7 K 7 } ,.p.' p.j 9.:.9 $             ",
"      % * g N x F.G.k.u.j.:.` $.~ c 5.c G 1 u 7 m u m u / ] t H K 7 L P N 7 7 j 8 T y           ",
"      o T 9 m n k.1 H.j.u.E :.) <.>.>.q.{ n H m #.@.>.c V.p.] g m > N N M / 7 j F 9 A.J.        ",
"    . 4.J 9 m n o.n.K.H.k.u.i.0.` >.%.>.>.N #.:.:.k 9.| ~ 6.p./ > > N N > } u t n E D.A.f       ",
"    % z 8 g h n h = ;.G.F.Z.i.0.m.z.L.` x.z.V.9.9.) %.,.N ; v ; ' > p.1.,.> k 8 k 9.8 D.A.P.    ",
"l   . # F o.n y.+.1 n.F.I.Z.m.g.U.Z.m.L.) ,.} >.| :.{ > { ; V.c v j R c.} N k u x h * D.* y     ",
"Y.    # 8 e.o.u T.1 ;.j.Z.0.0.m.g.s.0.m.>.z.,.7 h h p.0 1.p.S c 0 B R R.V.,.:.>.n 8 H 2 D.* o   ",
"E.  X O = 9.@.8 T.-.k.0.W.Q.Z.m.W.g.s.7.U.0.V.j ; *.1.c ; ; > r.!.r.' t.%.%.@.m.n = T.~.& $ $   ",
"Y.i ^.@ # 9 l.` y.1 l.K.l./.l.Z.g.m.U.g.m.w.` N r.> B B : d.r.(.B ' ' ,.%.{ :.<.| < * 8.l $ ).% ",
"_.P.`.P.o -.g j / 1 $ H.k.e.@.i.W.g.U.3.m.w.$.@.' N.v.; R !.'.v 1.: d.>.,.>.,.#.j * $ o d f J.].",
"[.J.`.@ @ {.f = 1 * 8.T.}.|.i.m.z.U.U.7.[ _ ~ : 3 0 K  X'..X..v.v.1.u L #.` ,.M 4.O o @ + $ $ [.",
"X _.).o P.$ ( F J J R S XXm :.w.3._ 6 oXoXoX4 ; < OX'.'.+Xv.0  .v.@.h 0.W.7.` * $ @ o o @ 4.y $ ",
"i @XY.P.$ 8.$ ( D F K R.XXt d.1.!.V.! 4 4 4 0 g XX'..X#X4 5  .0 K n #.` ~ >.X.$ O @ @ o - D.& o ",
".  XE.[.D ( F C.= f C.$X3 3 %X2 J h.r.r.r.R ; 3 +Xb.&X&X&Xw N.R.< x O.` #.8.f.O O O @ O ^ & d X ",
"  *XE.$ =.=.e.M.%.J t.=Xr.; S / K S K C.R : b.! +X4 4 b.0 S m < +.O.@.:.$ f.O $ $ l + D.y XXE.  ",
"  -XE.$ $ 8.D @.M.;X;X:XB d.R.M.1.V.>XC.%.%.7.,Xw.<X_ w.n.x = = L = [ 1X$ $ $ 8.f H ( # J.[.].  ",
"  Y.E.$ $ ( 9 |.N w. X%.<.3.2Xx =X$XOXOX}.3XQ.4X;Xw.M.8 u =.= R.m @.S.$ $ 8.J.^ 5X2 _.E.6Xd o   ",
"  Y.7X$ {.9 9 t.R.4X X_ 7.V.+.# |.|.n.M +.}.Q.:X| u = =.-.= #.7 T.z.{.1X# H ] S d [.).8X2 -     ",
"  J.*X$ {.D # 9 K 9X(.<.%.(.}.=.g 1 h u x |.%.,XO.= -.T.j :.7 M $ T.$ 8.f ] 2 A.>X4.l 4._.@X    ",
"  , 0X# 8.# # /.Q.>X' ' $Xc.u T.g qXF qX:XE /.$XqX= = M 7 j g {.$ f.# ~.~.t J }.# O {.].*X_.    ",
"  E.=X1X_.wX9XS.>X>XJ (.} <.O.=.=.8 h (.|.9 =.0X= 2X{ j =._.# f.$ $ 4.< R.E.6XeXJ.6X@X[.).].    ",
"  }.3X*X9XrXn.f >XF R.@.7 N |.T.-.= < * F = 1X= F N 7 9 $ $ {.).$ -.< ( $ tX)., @XyXuXP.[.%     ",
"  =X0XiXrX=.( eX8XD K K |.R qX$ {.%X>Xz = 9 # u =.M 9 $ @ @ @ {.$ # _.uX$ $ ).*XyXuX, _.E.      "};
