/* XPM */
static char * image_name[] = {
"21 18 31 1",
"`	c None",
" 	c #DCDCDCDCDCDC",
".	c #CFCFD3D3CFCF",
"X	c #D3D3D3D3D3D3",
"o	c #969692929696",
"O	c #CCCCCCCCCCCC",
"+	c #B6B6B2B2B6B6",
"@	c #B9B9B9B9B9B9",
"#	c #CFCFC7C7CFCF",
"$	c #717175757171",
"%	c #B6B6AEAEB6B6",
"&	c #696969697171",
"*	c #C4C4C4C4C4C4",
"=	c #AEAEAAAAAEAE",
"-	c #AAAAAAAAAAAA",
";	c #A9A9A9A9A9A9",
":	c #A6A6A2A2A6A6",
">	c #BEBEBEBEBEBE",
",	c #A6A69E9EA6A6",
"<	c #AEAEA6A6AEAE",
"1	c #BEBEBABABEBE",
"2	c #C7C7BABAC7C7",
"3	c #BEBEB6B6BEBE",
"4	c #666666666666",
"5	c #9E9E9A9A9E9E",
"6	c #96969696AEAE",
"7	c #B0B0B0B0B0B0",
"8	c #616161616161",
"9	c #8E8E8A8A8E8E",
"0	c #5F5F5F5F5F5F",
"q	c #202028285151",
" ..................Xo",
"O+@++@++@++@++@++@+#$",
"O++@@+@@+@@+@@+@@+@#$",
"O%+++++++++++++++++#$",
"O+++++++++++++++@++O&",
"O%+++++%+%%+++++%++O&",
"*=%%%%%%%%%%%%%%%%%*&",
"*-%%%%%%%%%%%%%%%%%*&",
"*;=================*&",
"*:----------------->&",
"*,;=;;=::=::=:;=::<1&",
"2,;<;;;;-<;;<;;<;-;1&",
"1,:::::::::::::::::34",
"1,:::::::::::::::::@4",
"@5,,,,,,,,,,,,,,,,,+4",
"@o5555655655655555578",
"1<%%%<%%<%%<%%%%%%%28",
"90000000000000000008q"};
