/* XPM */
static char * image_name[] = {
"21 18 59 1",
"`	c None",
" 	c #DCDCD8D8DCDC",
".	c #CFCFC7C7CFCF",
"X	c #D3D3D3D3D3D3",
"o	c #969692929696",
"O	c #B6B6AEAEB6B6",
"+	c #BEBEB6B6BEBE",
"@	c #C7C7BABAC7C7",
"#	c #C4C4C4C4C4C4",
"$	c #B6B6B2B2B6B6",
"%	c #717175757171",
"&	c #868679798686",
"*	c #797979797979",
"=	c #717179798686",
"-	c #8E8E8A8A8E8E",
";	c #696969697171",
":	c #96969696AEAE",
">	c #8E8E86867979",
",	c #FFFFFFFFC7C7",
"<	c #F5F5DEDEB3B3",
"1	c #595951512828",
"2	c #AEAE61616161",
"3	c #A6A6A6A6A6A6",
"4	c #A0A0A0A0A0A0",
"5	c #BEBEC3C3BEBE",
"6	c #AEAEA6A67171",
"7	c #B9B9B9B9B9B9",
"8	c #6B6B69696B6B",
"9	c #DCDCDCDCDCDC",
"0	c #303034343030",
"q	c #9E9E9A9A9E9E",
"w	c #AEAEA6A6AEAE",
"e	c #FFFFFFFFFFFF",
"r	c #969696969696",
"t	c #666666666666",
"y	c #B0B0B0B0B0B0",
"u	c #D2D2B4B48C8C",
"i	c #AEAEB2B2CFCF",
"p	c #999999999999",
"a	c #FFFFFFFFD7D7",
"s	c #FFFFFFFFF0F0",
"d	c #A6A6A2A2A6A6",
"f	c #A6A69E9EA6A6",
"g	c #5F5F5F5F5F5F",
"h	c #515155554949",
"j	c #BEBEBABABEBE",
"k	c #AAAAAAAAAAAA",
"l	c #CFCFD3D3CFCF",
"z	c #A9A9A9A9A9A9",
"x	c #000000000000",
"c	c #202020202020",
"v	c #181820202020",
"b	c #AEAEAEAEAEAE",
"n	c #AEAEAEAEB6B6",
"m	c #555555555555",
"M	c #909090909090",
"N	c #616161616161",
"B	c #AEAEAAAAAEAE",
"V	c #202028285151",
" ..................Xo",
".O+++@@##@#@@+++++$.%",
".O$++O&****=-@+++$+.;",
".O$$@:>,<<<,12@+$O$.;",
".O$O@:34>>>566-@+$O.;",
".OOO+o47%8%9>20q+OO.;",
"#wOO+o4ert%y>u>&iOO#;",
"@wOOO-pe>>a,9s42+OO#;",
"@dwwO-4s>85aasp2$ww@;",
"@fwwO-4>gtghha4*Owwj;",
"@fdwO-kl5<797a42Odw+;",
"@fwdO-z0hxgtctz*Odd+;",
"jfdfw-kvhxalcau*Off+t",
"+qfdw-bheae,0>y*nff$t",
"+pffd-mt>>>>h%h2dff$t",
"7ofq:dM--------:ff:ON",
"+wOOOw$$$$$$$$OOOOB#N",
"&gggggggggggggggggggV"};
