#define p015_width 64
#define p015_height 64
static char p015_bits[] = {
   0x00, 0x00, 0x00, 0xc0, 0x01, 0x00, 0x00, 0x00, 0x00, 0x06, 0x5f, 0x20,
   0x02, 0xe6, 0x3f, 0x00, 0x00, 0xc9, 0x61, 0x10, 0x04, 0xc9, 0x30, 0x00,
   0x00, 0xc9, 0x40, 0x10, 0x04, 0xc9, 0x20, 0x00, 0x00, 0x66, 0x40, 0x10,
   0x04, 0xc6, 0x24, 0x00, 0x00, 0x60, 0x00, 0x10, 0x04, 0xc0, 0x04, 0x00,
   0x00, 0x60, 0x00, 0x10, 0x04, 0xc0, 0x07, 0x00, 0x00, 0x60, 0x00, 0x10,
   0x04, 0xc0, 0x04, 0x00, 0x00, 0x60, 0x00, 0x10, 0x04, 0xc0, 0x04, 0x00,
   0x00, 0xc0, 0x40, 0x10, 0x04, 0xc0, 0x00, 0x00, 0x00, 0xc0, 0x61, 0x10,
   0x04, 0xc0, 0x00, 0x00, 0x00, 0x00, 0x1f, 0x10, 0x04, 0xe0, 0x01, 0x00,
   0x00, 0x00, 0x00, 0x10, 0x04, 0x00, 0x00, 0x00, 0x00, 0x00, 0x00, 0x10,
   0x04, 0x00, 0x00, 0x00, 0x00, 0x00, 0x00, 0x10, 0x04, 0x00, 0x00, 0x00,
   0x00, 0x00, 0x00, 0x10, 0x04, 0x00, 0x00, 0x00, 0x00, 0x00, 0x00, 0x10,
   0x04, 0x00, 0x00, 0x00, 0x00, 0x00, 0x00, 0x10, 0x04, 0x00, 0x00, 0x00,
   0x00, 0x00, 0x00, 0x10, 0x04, 0x00, 0x00, 0x00, 0x00, 0x00, 0x00, 0x10,
   0x04, 0x00, 0x00, 0x00, 0x00, 0x00, 0x00, 0x10, 0x04, 0x00, 0x00, 0x00,
   0x00, 0x00, 0x00, 0x10, 0x04, 0x00, 0x00, 0x00, 0x00, 0x00, 0x00, 0x10,
   0x04, 0x00, 0x00, 0x00, 0x00, 0x00, 0x00, 0x10, 0x04, 0x00, 0x00, 0x00,
   0x00, 0x00, 0x00, 0x10, 0x04, 0x00, 0x00, 0x00, 0x00, 0x00, 0x00, 0x10,
   0x04, 0x00, 0x00, 0x00, 0x00, 0x00, 0x7f, 0x10, 0x04, 0x1e, 0x1c, 0x00,
   0x00, 0x00, 0x7f, 0x10, 0x04, 0x73, 0x36, 0x00, 0x00, 0x00, 0x21, 0x10,
   0x04, 0x63, 0x63, 0x00, 0x00, 0x00, 0x30, 0x10, 0x04, 0x60, 0x63, 0x00,
   0x00, 0x00, 0x30, 0x10, 0x04, 0x60, 0x63, 0x00, 0x00, 0x7f, 0x18, 0x10,
   0x04, 0x30, 0x63, 0x00, 0x00, 0x7f, 0x18, 0x10, 0x04, 0x18, 0x63, 0x00,
   0x00, 0x00, 0x18, 0x10, 0x04, 0x0c, 0x63, 0x00, 0x00, 0x00, 0x0c, 0x10,
   0x04, 0x46, 0x63, 0x00, 0x00, 0x00, 0x0c, 0x10, 0x04, 0x7f, 0x36, 0x00,
   0x00, 0x00, 0x0c, 0x10, 0x04, 0x7f, 0x1c, 0x00, 0x00, 0x00, 0x00, 0x10,
   0x04, 0x00, 0x00, 0x00, 0x00, 0x00, 0xff, 0xb7, 0xf6, 0x7f, 0x00, 0x00,
   0x00, 0x00, 0xff, 0x57, 0xf5, 0x7f, 0x00, 0x00, 0x00, 0x00, 0x00, 0xf0,
   0x07, 0x00, 0x00, 0x00, 0x00, 0x00, 0x3c, 0xf0, 0x07, 0xcc, 0x0f, 0x00,
   0x00, 0x00, 0x73, 0xf0, 0x07, 0xcf, 0x07, 0x00, 0x00, 0x00, 0x63, 0xf0,
   0x07, 0x4c, 0x00, 0x00, 0x00, 0x00, 0x63, 0xf0, 0x07, 0x4c, 0x00, 0x00,
   0x00, 0x00, 0x63, 0xf0, 0x07, 0x4c, 0x07, 0x00, 0x00, 0x7f, 0x77, 0xf0,
   0x07, 0xcc, 0x0e, 0x00, 0x00, 0x7f, 0x6e, 0xf0, 0x07, 0x0c, 0x0c, 0x00,
   0x00, 0x00, 0x60, 0xf0, 0x07, 0x0c, 0x0c, 0x00, 0x00, 0x00, 0x63, 0xf0,
   0x07, 0x6c, 0x0c, 0x00, 0x00, 0x00, 0x33, 0xf0, 0x07, 0x6c, 0x0e, 0x00,
   0x00, 0x00, 0x1e, 0xf0, 0x07, 0xcc, 0x03, 0x00, 0x00, 0x00, 0x00, 0xf8,
   0x0f, 0x00, 0x00, 0x00, 0x00, 0x00, 0x00, 0xfc, 0x1f, 0x00, 0x00, 0x00,
   0x00, 0x00, 0x00, 0xfc, 0x1f, 0x00, 0x00, 0x00, 0x00, 0x00, 0x00, 0xfe,
   0x3f, 0x00, 0x00, 0x00, 0x00, 0x00, 0x00, 0xfe, 0x3f, 0x00, 0x00, 0x00,
   0x00, 0x00, 0x00, 0xfe, 0x3f, 0x00, 0x00, 0x00, 0x00, 0x00, 0x00, 0xfe,
   0x3f, 0x00, 0x00, 0x00, 0x00, 0x00, 0x00, 0xfe, 0x3f, 0x00, 0x00, 0x00,
   0x00, 0x00, 0x00, 0xfc, 0x1f, 0x00, 0x00, 0x00, 0x00, 0x00, 0x00, 0xfc,
   0x1f, 0x00, 0x00, 0x00, 0x00, 0x00, 0x00, 0xf8, 0x0f, 0x00, 0x00, 0x00,
   0x00, 0x00, 0x00, 0xe0, 0x03, 0x00, 0x00, 0x00};
