/* XPM */
static char * image_name[] = {
"48 48 4 1",
" 	c #000000000000",
".	c #AEBAAAAAAEBA",
"X	c #514455555144",
"o	c #FFFFFFFFFFFF",
"                                                ",
"                                                ",
"                                                ",
"                                                ",
"                                                ",
"                                                ",
"                                                ",
"                                                ",
"                                                ",
"                                                ",
"                                                ",
"                                                ",
"                                                ",
"                                                ",
"                                                ",
"                                                ",
"                                                ",
"                                                ",
"                                 ..             ",
"                               .X  X.           ",
"                              XXXXX  X          ",
"                            .XXXXXXX  X         ",
"                           .XXXXXXXXX  X        ",
"                          .XXXXXXXXXXX          ",
"                         .XXXX.XXXXX            ",
"                        .XXX  ..XXX    X        ",
"                       .XXX    ..X    X         ",
"                      .XXX      .    X          ",
"                     .XXX        X X            ",
"                    .XXX         X              ",
"                   .XXX                         ",
"                  .XXX                          ",
"                  XXX                           ",
"                 XXX  .                         ",
"                .XXX  X                         ",
"                XXXXX  X                        ",
"               .XXXXXX  X                       ",
"               .XXXXXX                          ",
"                XXXXX                           ",
"                .XXX    X                       ",
"               ...X    X                        ",
"               . .X                             ",
"              .  o.X                            ",
"              .X                                ",
"             .                                  ",
"             .X                                 ",
"            .                                   ",
"            .X                                  "};
