#define face_width 64
#define face_height 64
static unsigned char face_bits[] = {
   0x16, 0xa5, 0x26, 0x8a, 0x82, 0x52, 0xb2, 0x80, 0x45, 0x89, 0xe0, 0x56,
   0x39, 0x49, 0x50, 0x4f, 0x92, 0x1b, 0x22, 0x81, 0xc0, 0x62, 0x29, 0xe0,
   0xb2, 0x6a, 0x05, 0xed, 0xa4, 0x04, 0xba, 0x0b, 0xae, 0x1a, 0x61, 0x26,
   0x8d, 0xba, 0x34, 0x18, 0x95, 0x21, 0xdf, 0x6b, 0xd5, 0xaa, 0xbc, 0x59,
   0xab, 0x96, 0x20, 0xd6, 0x4e, 0x24, 0x09, 0x13, 0x70, 0x4a, 0x40, 0x9d,
   0xf6, 0x99, 0x5a, 0xaa, 0x57, 0x48, 0x84, 0x11, 0x88, 0x96, 0x52, 0x55,
   0x49, 0x07, 0x84, 0x20, 0x90, 0x58, 0x4d, 0x8d, 0xe6, 0x3c, 0x0e, 0xa0,
   0x57, 0xa4, 0xa3, 0x02, 0x2c, 0x20, 0x04, 0xe0, 0xd4, 0x00, 0x8c, 0x29,
   0x14, 0x10, 0x00, 0x01, 0x35, 0xa5, 0x3b, 0x94, 0x15, 0x11, 0x00, 0x01,
   0x16, 0x0d, 0xc2, 0xba, 0x0c, 0x01, 0x80, 0x03, 0x94, 0x51, 0xaa, 0x08,
   0x8b, 0x03, 0x08, 0x01, 0x94, 0xdf, 0xd8, 0x6a, 0x08, 0x01, 0x08, 0x10,
   0x74, 0x48, 0x06, 0xab, 0x06, 0x20, 0x1c, 0x10, 0x16, 0x20, 0x01, 0xac,
   0x04, 0x20, 0x08, 0xa8, 0x09, 0xc0, 0x00, 0x88, 0x04, 0x72, 0x01, 0x48,
   0x09, 0x80, 0x08, 0x08, 0x89, 0x20, 0x01, 0x4c, 0x06, 0x49, 0x08, 0x50,
   0x58, 0x01, 0x02, 0x12, 0x02, 0x09, 0x1c, 0x10, 0x02, 0x01, 0xc5, 0xe0,
   0x02, 0x1d, 0x08, 0x70, 0x24, 0x82, 0x98, 0x18, 0x82, 0x0b, 0x00, 0xa0,
   0x34, 0x44, 0x01, 0x06, 0x82, 0x03, 0x00, 0x60, 0xa7, 0x68, 0xab, 0x02,
   0xc4, 0x47, 0x00, 0x60, 0x2c, 0x23, 0x2b, 0x42, 0xc0, 0x47, 0x40, 0x20,
   0xe4, 0x8a, 0xfa, 0x42, 0xe0, 0xef, 0x40, 0x20, 0xb2, 0x6a, 0x03, 0xe2,
   0xe0, 0x4d, 0xe0, 0x20, 0x89, 0xa4, 0x01, 0x44, 0xe0, 0x0d, 0x40, 0x28,
   0x76, 0xbb, 0x40, 0x08, 0xe0, 0x0e, 0x00, 0x90, 0x48, 0x41, 0x40, 0x00,
   0xc0, 0x07, 0x08, 0x20, 0x15, 0x51, 0xe0, 0x00, 0x81, 0x03, 0x08, 0x20,
   0xe3, 0x4f, 0x40, 0x00, 0x01, 0x00, 0x08, 0x40, 0x3a, 0x50, 0x00, 0x82,
   0x03, 0x00, 0x1c, 0x40, 0x0a, 0x00, 0x03, 0x02, 0x01, 0x41, 0x1c, 0xc0,
   0x04, 0x00, 0x00, 0x02, 0x00, 0x41, 0x1e, 0x04, 0x04, 0x20, 0x00, 0x07,
   0x80, 0xe3, 0x3e, 0x44, 0x83, 0x20, 0x08, 0x07, 0x00, 0x41, 0x3e, 0x4e,
   0x82, 0x70, 0x88, 0x07, 0x02, 0x00, 0x7b, 0xc4, 0xc2, 0x21, 0xdc, 0x07,
   0x42, 0x00, 0x7b, 0x00, 0x81, 0x00, 0xc8, 0x07, 0x47, 0x00, 0x77, 0x40,
   0x01, 0x00, 0xe0, 0x0f, 0x42, 0x02, 0x3e, 0x40, 0x01, 0x00, 0x60, 0x0f,
   0xe0, 0x02, 0x1c, 0x40, 0x01, 0x00, 0x70, 0x1f, 0xe0, 0x87, 0x00, 0x40,
   0x02, 0x00, 0xb1, 0x1f, 0xf0, 0x82, 0x00, 0x21, 0x03, 0x00, 0xb1, 0x1f,
   0xf0, 0xc1, 0x01, 0xa1, 0x24, 0x80, 0x73, 0x1e, 0xf0, 0x81, 0x00, 0x31,
   0x18, 0x04, 0xe1, 0x4f, 0x78, 0x03, 0x00, 0x8a, 0x12, 0x04, 0xc0, 0x47,
   0x78, 0x03, 0x00, 0x2c, 0x10, 0x0e, 0x00, 0xe0, 0xb8, 0x03, 0x10, 0x52,
   0x12, 0x04, 0x42, 0x40, 0xf0, 0x01, 0x10, 0xb6, 0x2c, 0x00, 0x42, 0x00,
   0xe0, 0x40, 0x38, 0xa2, 0x2a, 0x00, 0xe2, 0x00, 0x00, 0x40, 0x10, 0x1a,
   0x56, 0x00, 0x42, 0x80, 0x00, 0x10, 0x00, 0x22, 0x8a, 0x01, 0x05, 0x40,
   0x01, 0x28, 0x00, 0xb9, 0x51, 0x46, 0x04, 0x10, 0x86, 0xc5, 0x00, 0x91,
   0x8a, 0xdc, 0x1c, 0x98, 0xb4, 0x01, 0x01, 0x25, 0x02, 0x00, 0xa0, 0x45,
   0x42, 0x29, 0x36, 0x94, 0xed, 0x9a, 0x42, 0x49, 0x3e, 0x8b, 0xd0, 0x2e,
   0x16, 0xa8, 0x50, 0x22, 0x89, 0x4a, 0xa9, 0xb3, 0x83, 0x02, 0x16, 0x6d,
   0x9b, 0x8a, 0x22, 0x15, 0x88, 0x6a, 0x69, 0x82, 0xca, 0x6a, 0x49, 0x55,
   0x69, 0x03, 0x4f, 0xb0, 0xb5, 0x5c, 0x51, 0x49 };
