#define face_width 64
#define face_height 64
static unsigned char face_bits[] = {
   0x96, 0xa5, 0x4e, 0x96, 0x82, 0x31, 0xf1, 0x88, 0x47, 0xa9, 0xe1, 0x9a,
   0x3a, 0x23, 0x59, 0x67, 0xaa, 0x1f, 0x60, 0x82, 0xd0, 0x62, 0x28, 0xc1,
   0xa2, 0x6a, 0x05, 0xed, 0xa0, 0x4d, 0x3b, 0x2b, 0xfe, 0x1e, 0x63, 0x66,
   0x8d, 0xbe, 0x6c, 0x18, 0x96, 0xa0, 0xee, 0x57, 0xdd, 0xa8, 0xdc, 0x59,
   0xbb, 0x96, 0xa0, 0xf6, 0x2d, 0x95, 0x09, 0x53, 0x70, 0x4e, 0x40, 0x8d,
   0xf2, 0x99, 0x5a, 0xae, 0xd7, 0x08, 0x84, 0x11, 0x85, 0xaf, 0xbb, 0x51,
   0x49, 0x2b, 0x04, 0x20, 0x90, 0x58, 0x4b, 0xaf, 0x66, 0x34, 0x0e, 0xa0,
   0xd6, 0xa4, 0xa1, 0x02, 0x2e, 0x20, 0x04, 0xc0, 0xad, 0x92, 0x8e, 0x69,
   0x14, 0x10, 0x00, 0x01, 0x35, 0xa5, 0xba, 0xac, 0x15, 0x11, 0x00, 0x01,
   0x1c, 0x09, 0xc2, 0x9a, 0x0d, 0x01, 0x80, 0x03, 0xb4, 0xeb, 0xaa, 0x2a,
   0x8b, 0x03, 0x08, 0x01, 0x54, 0xad, 0xb8, 0x6e, 0x09, 0x01, 0x08, 0x10,
   0x34, 0x58, 0x07, 0xa9, 0x06, 0x20, 0x1c, 0x10, 0x16, 0x20, 0x00, 0xac,
   0x00, 0x20, 0x08, 0xa8, 0x0c, 0xc0, 0x00, 0x48, 0x04, 0x72, 0x01, 0xc8,
   0x09, 0x80, 0x08, 0x08, 0x89, 0x20, 0x01, 0x5c, 0x06, 0x48, 0x08, 0x50,
   0x58, 0x01, 0x02, 0x02, 0x42, 0x08, 0x1c, 0x10, 0x06, 0x01, 0x45, 0xb5,
   0x42, 0x1c, 0x08, 0xf0, 0x22, 0x02, 0x29, 0x10, 0xe2, 0x08, 0x00, 0xa0,
   0x7c, 0x44, 0x81, 0x06, 0x42, 0x00, 0x00, 0x60, 0x93, 0xe9, 0xab, 0x02,
   0x04, 0x40, 0x00, 0x60, 0x2d, 0x33, 0x2b, 0x42, 0x00, 0x40, 0x40, 0x60,
   0xe6, 0x4a, 0xfd, 0x42, 0x10, 0xe0, 0x40, 0x20, 0xf2, 0x4a, 0x03, 0xe2,
   0x10, 0x44, 0xe0, 0x00, 0x89, 0xac, 0x01, 0x44, 0x38, 0x04, 0x40, 0x6c,
   0x7e, 0xbb, 0x40, 0x08, 0x10, 0x0e, 0x00, 0x90, 0x48, 0x41, 0x40, 0x00,
   0x00, 0x04, 0x00, 0x20, 0x35, 0x13, 0xe0, 0x00, 0x01, 0x00, 0x20, 0xa0,
   0xe3, 0x4a, 0x40, 0x00, 0x01, 0x00, 0x20, 0x40, 0x36, 0x50, 0x00, 0x80,
   0x03, 0x00, 0x70, 0x40, 0x0c, 0x00, 0x02, 0x00, 0x01, 0x41, 0x20, 0xc0,
   0x02, 0x00, 0x00, 0x00, 0x00, 0x41, 0x00, 0x04, 0x04, 0x20, 0x00, 0x04,
   0x80, 0xe3, 0x00, 0x44, 0x83, 0x20, 0x08, 0x04, 0x00, 0x41, 0x00, 0x4e,
   0x82, 0x70, 0x08, 0x0e, 0x02, 0x00, 0x00, 0xc4, 0xc2, 0x21, 0x1c, 0x04,
   0x02, 0x00, 0x08, 0x80, 0x81, 0x00, 0x08, 0x00, 0x07, 0x00, 0x08, 0x40,
   0x01, 0x00, 0x00, 0x00, 0x02, 0x02, 0x1c, 0x40, 0x01, 0x00, 0x00, 0x01,
   0x00, 0x02, 0x08, 0x40, 0x01, 0x00, 0x00, 0x01, 0x00, 0x87, 0x00, 0x40,
   0x02, 0x00, 0x81, 0x03, 0x08, 0x82, 0x00, 0x41, 0x03, 0x00, 0x01, 0x01,
   0x08, 0xc0, 0x01, 0xa1, 0x24, 0x80, 0x03, 0x00, 0x1c, 0x80, 0x00, 0x21,
   0x08, 0x04, 0x01, 0x40, 0x08, 0x00, 0x00, 0x5a, 0x12, 0x04, 0x00, 0x40,
   0x80, 0x00, 0x00, 0x54, 0x12, 0x0e, 0x00, 0xe0, 0x80, 0x00, 0x10, 0x32,
   0x12, 0x04, 0x42, 0x40, 0xc0, 0x01, 0x10, 0xae, 0x1c, 0x00, 0x42, 0x00,
   0x80, 0x40, 0x38, 0x70, 0x36, 0x00, 0xe2, 0x00, 0x00, 0x40, 0x10, 0x9a,
   0x56, 0x00, 0x42, 0x80, 0x00, 0x10, 0x00, 0x12, 0x0b, 0x01, 0x05, 0x40,
   0x01, 0x28, 0x00, 0xf9, 0xc8, 0x42, 0x04, 0x10, 0x8d, 0xc2, 0x00, 0x89,
   0x9b, 0xee, 0x14, 0x98, 0xd4, 0x13, 0x01, 0x35, 0x04, 0x04, 0xa8, 0xc5,
   0x52, 0xa9, 0x5a, 0x8c, 0xea, 0x99, 0x62, 0x4a, 0x7e, 0x8b, 0xb1, 0x6f,
   0x97, 0xa4, 0xd0, 0x62, 0x89, 0x8a, 0xb4, 0xba, 0x83, 0x02, 0x16, 0x4d,
   0x9b, 0xaa, 0x62, 0x1b, 0x8a, 0xee, 0x79, 0x22, 0xda, 0x6a, 0x49, 0x55,
   0xe9, 0x81, 0x6f, 0xe1, 0xeb, 0x6c, 0xd2, 0x49 };
