/* XPM */
static char * image_name[] = {
"56 46 7 1",
" 	c #FFFFFFFFFFFF",
".	c #BEBEBABABEBE",
"X	c #000000001111",
"o	c #AEAEAAAAAEAE",
"O	c #C7C7BABAC7C7",
"+	c #010101010101",
"@	c #9E9E9A9A9E9E",
"                                                       .",
" ......................................................X",
" ......................................................X",
" ......................................................X",
" o...o...o...o...o...o...o...o...o...o...o...o...o...o.X",
" .....O....O...O..O....O...O..O....O...O..O...O..O..O..X",
" o.o.o.o.o.o.o.o.o.o.o.o.o.o.o.o.o.o.o.o.o.o.o.o.o.o.o.X",
" .....o.......o.......o.......o.......o.......o.......oX",
" o.o.o.o.o.o.o.o.o.o.o.o.o.o.o.o.o.o.o.o.o.o.o.o.o.o.o.X",
" ...o...o...o...o...o...o...o...o...o...o...o...o...o..X",
" o.o.o.o.o.o.o.o.o.o.o.o.o.o.o.o.o.o.o.o.o.o.o.o.o.o.o.X",
" .o...o.o.o...o.o.o...o.o.o...o.o.o...o.o.o...o.o.o...oX",
" o.o.o.o.o.o.o.o.o.o.o.o.o.o.o.o.o.o.o.o.o.o.o.o.o.o.o.X",
" .o.o.o.o.o.o.o.o.o.o.o.o.o.o.o.o.+.o.o.o.o.o.o.o.o.o.oX",
" o.o.o.o.o.o.o.o.o.o.o.o.o.o.o.o.o++.o.o.o.o.o.o.o.o.o.X",
" oo.ooo.ooo.ooo.ooo.ooo.ooo.ooo.oo+.+oo.ooo.ooo.ooo.oooX",
" o.o.o.o.o.o.o.o.o.o.o.o.o.o.o.o.o+o.+.o.o.o.o.o.o.o.o.X",
" ooooooooooo+++++++++++++++++++++++ooo+ooooooooooooooooX",
" o.o.o.o.o.o+o.o.o.o.o.o.o.o.o.o.o.o.o.+.o.o.o.o.o.o.o.X",
" ooooooooooo+ooooooooooooooooooooooooooo+ooooooooooooooX",
" ooo.ooo.ooo+ooo.ooo.ooo.ooo.ooo.ooo.ooo.+oo.ooo.ooo.ooX",
" ooooooooooo+ooooooooooooooooooooooooooooo+ooooooooooooX",
" ooooooooooo+oooooooooooooooooooooooooooo+++oooooooooooX",
" ooooooooooo+ooooooooooooooooooooooooooo+++ooooooooooooX",
" @ooo@ooo@oo+@ooo@ooo@ooo@ooo@ooo@ooo@o+++ooo@ooo@ooo@oX",
" ooooooooooo+++++++++++++++++++++++ooo+++ooooooooooooooX",
" oo@o@o@ooo@o++++++++++++++++++++++@o+++ooo@o@o@ooo@o@oX",
" ooooooooooooooooooooooooooooooooo+o+++ooooooooooooooooX",
" @o@o@o@o@o@o@o@o@o@o@o@o@o@o@o@o@++++o@o@o@o@o@o@o@o@oX",
" ooooooooooooooooooooooooooooooooo+++ooooooooooooooooooX",
" @o@o@o@o@o@o@o@o@o@o@o@o@o@o@o@o@o+o@o@o@o@o@o@o@o@o@oX",
" o@ooo@ooo@ooo@ooo@ooo@ooo@ooo@ooo@ooo@ooo@ooo@ooo@ooo@X",
" @o@o@o@o@o@o@o@o@o@o@o@o@o@o@o@o@o@o@o@o@o@o@o@o@o@o@oX",
" o@o@o@o@o@o@o@o@o@o@o@o@o@o@o@o@o@o@o@o@o@o@o@o@o@o@o@X",
" @o@o@o@o@o@o@o@o@o@o@o@o@o@o@o@o@o@o@o@o@o@o@o@o@o@o@oX",
" @@o@@@o@@@o@@@o@@@o@@@o@@@o@@@o@@@o@@@o@@@o@@@o@@@o@@@X",
" @o@o@o@o@o@o@o@o@o@o@o@o@o@o@o@o@o@o@o@o@o@o@o@o@o@o@oX",
" @@@@@@@@@@@@@@@@@@@@@@@@@@@@@@@@@@@@@@@@@@@@@@@@@@@@@@X",
" @o@o@o@o@o@o@o@o@o@o@o@o@o@o@o@o@o@o@o@o@o@o@o@o@o@o@oX",
" @@@@@@@@@@@@@@@@@@@@@@@@@@@@@@@@@@@@@@@@@@@@@@@@@@@@@@X",
" @@@o@@@o@@@o@@@o@@@o@@@o@@@o@@@o@@@o@@@o@@@o@@@o@@@o@@X",
" @@@@@@@@@@@@@@@@@@@@@@@@@@@@@@@@@@@@@@@@@@@@@@@@@@@@@@X",
" @o@@@@@@@o@@@@@@@o@@@@@@@o@@@@@@@o@@@@@@@o@@@@@@@o@@@@X",
" @@@@@@@@@@@@@@@@@@@@@@@@@@@@@@@@@@@@@@@@@@@@@@@@@@@@@@X",
" @@@@@@@@@@@@@@@@@@@@@@@@@@@@@@@@@@@@@@@@@@@@@@@@@@@@@@X",
".XXXXXXXXXXXXXXXXXXXXXXXXXXXXXXXXXXXXXXXXXXXXXXXXXXXXXXX"};
