/* XPM */
static char * image_name[] = {
"56 46 15 1",
" 	c #FFFFFFFFFFFF",
".	c #BEBEBABABEBE",
"X	c #BEBEC3C3BEBE",
"o	c #000000001111",
"O	c #AEAEAAAAAEAE",
"+	c #9E9E9A9A9E9E",
"@	c #CFCFC7C7CFCF",
"#	c #FFFFAEAE0000",
"$	c #FFFFFFFF0000",
"%	c #BEBEC3C3CFCF",
"&	c #010101010101",
"*	c #28285D5D4949",
"=	c #AEAEAEAEB6B6",
"-	c #303034343030",
";	c #A6A69E9EA6A6",
"                                                       .",
" .X..X..X..X..X..X..X..X..X..X..X..X..X..X..X..X..X..X.o",
" ..X...X..X..X..X..X..X..X..X..X..X..X..X..X..X..X..X..o",
" .X...X....X.....X.....X.....X.....X.....X.....X.....X.o",
" O..XO..XO...O.X.O.X.O...O.X.O.X.O...O.X.O.X.O...O.X.O.o",
" .X...X....X..X........X..X........X..X........X..X....o",
" O.+XO.+XO.+.O.+XOX+XO.+.O.+XOX+XO.+.O.+XOX+XO.+.O.+XO.o",
" .X...O....X..O.......O.X.....O....X..O.......O.X.....Oo",
" O.O.O.O.O.O.O.O.O.O.O.O.OXO.O.O.O.O.O.O.O.O.O.O.OXO.O.o",
" X..O...OX..O...O...O...O@#$O.X.OX..O...O...O.X.O...O..o",
" O.O.OXO.O.O.OXO.O.O.OXO.$#$#..O.O.O.OXO.OXO.O.O.O.O.OXo",
" .O...O.O.O%..O@#$#$...#$#&&$#$.O@#$#$O.O.OX@.O.O.O...Oo",
" O.O.O.O.+.O.O&$#$#$&$#$#&$#&$#$#&$#$#$&&O.O.+XO.O.O.O.o",
" .O.+.O.O.O.O@#&&$&#$#&$&#$#$&$&$#$&$&&$&.O.O.O.OX+.O.Oo",
" O.O.O.O.O.O.$$#$&&&&&&&o&o&&&&&&&&&&#$#$&.O.O.O.O.O.O.o",
" OO.OOO.OOO.O#$&#&O@O&*X@.X@OO.*&&&&O$&$#&O.OOO.OOO.OOOo",
" O.O.O.O.O.O.$#$$&.O*&..X...XO.**&&&.#$#$&.O.O.O.O.O.O.o",
" OOOOOOOOOOOOO&$#&O.&oX...X..O=-**&&O#$&&OOOOOOOOOOOOOOo",
" O.O.O.O.O.O.O$&$&.*&*.X.X..X..XX*&&@$&#&O.O.O.O.O.O.O.o",
" OOOOOOOOOOOOO#$#&X*&*.OO........*&&O$#$&OOOOOOOOOOOOOOo",
" OOO.OOO.OOO.$#&$&.*&&o**.X***o&&*&&.#&$#oOO.OOO.OOO.OOo",
" OOOOOOOOOOOO#&$#&.&&**X*.O*XX.*O*&&O$$&$&OOOOOOOOOOOOOo",
" OOOOOOOOOOO$$#$#&*&&X..O.....X.;*&&O##$#$&OOOOOOOOOOOOo",
" OOOOOOOOOO.##$#$&*&&*.OO*X.O..OO*&&O$$#$#&OOOOOOOOOOOOo",
" +OOO+OOO+OOO$&$#&&&&&...+O*O+;.*&&&O#$&$&OOO+OOO+OOO+Oo",
" OOOOOOOOOOO=$#&$&&&&&*X..&&.OX**&&&O$&$#&OOOOOOOOOOOOOo",
" OO+O+O+OOO+O+$#$&&&&&*.X.**.**-*&&&O#$#&.O+O+O+OOO+O+Oo",
" OOOOOOOOOOOO;$&#&&&&&oX***&*X%*&&&&O$&$&OOOOOOOOOOOOOOo",
" +O+O+O+O+O+O+&$$&&&&&&&*O*-*X*-o&&&O#$&&+O+O+O+O+O+O+Oo",
" OOOOOOOOOOO.#$##&&&&&&&&;X%**&o&&&&O#$#$&OOOOOOOOOOOOOo",
" +O+O+O+O+O+O$#&$&*&&&&&&&*&&&&&&&&&O$&$#&O+O+O+O+O+O+Oo",
" O+OOO+OOO+OO#$#$&+O.O+.OO+.OX+.OO+O.#$#$&+OOO+OOO+OOO+o",
" +O+O+O+O+O+O$#&$#$#$#$#$#$#$#$#$#$#$$&$#&O+O+O+O+O+O+Oo",
" O+O+O+O+O+O+Oo$#$#$&#$#$&#$&#$#$&#$#$#&oO+O+O+O+O+O+O+o",
" +O+O+O+O+O+O+&&$#$#&o&$#$&&$$#&o&$#$#&&O;O+O+O+O+O+O+Oo",
" ++O+++O+++O+++O&&o&+;+&&$#$#&&O++&o&&;O+++O+++O+++O+++o",
" +O+O+O+O+O+O+O+O+O;O+O+O&$#&;O;O+O+O;O+O+O+O+O+O+O+O+Oo",
" +++++++++++++++++++++++++&o+++++++++++++++++++++++++++o",
" +O+O+O+O+O+O+O+O+O+O+O+O+O+O+O+O+O+O+O+O+O+O+O+O+O+O+Oo",
" ++++++++++++++++++++++++++++++++++++++++++++++++++++++o",
" +++O+++O+++O+++O+++O+++O+++O+++O+++O+++O+++O+++O+++O++o",
" ++++++++++++++++++++++++++++++++++++++++++++++++++++++o",
" +O+++++++O+++++++O+++++++O+++++++O+++++++O+++++++O++++o",
" ++++++++++++++++++++++++++++++++++++++++++++++++++++++o",
" ++++++++++++++++++++++++++++++++++++++++++++++++++++++o",
".ooooooooooooooooooooooooooooooooooooooooooooooooooooooo"};
