/* XPM */
static char * image_name[] = {
"56 46 14 1",
" 	c #FFFFFAFAFFFF",
".	c #BEBEB6B6BEBE",
"X	c #000000001111",
"o	c #C7C7BABAC7C7",
"O	c #AEAEA6A6AEAE",
"+	c #010101010101",
"@	c #FFFF14144141",
"#	c #FFFFFFFF0000",
"$	c #FFFFFFFFD7D7",
"%	c #9E9E9A9A9E9E",
"&	c #51515555FFFF",
"*	c #A6A69E9EA6A6",
"=	c #A6A679798E8E",
"-	c #96969696AEAE",
"                                                       .",
" ......................................................X",
" .o.o.o.o.o.o.o.o.o.o.o.o.o.o.o.o.o.o.o.o.o.o.o.o.o.o.oX",
" ......................................................X",
" Oo.oO.o.Oo.oO.o.Oo.oO.o.Oo.oO.o.Oo.oO.o.Oo.oO.o.Oo..O.X",
" ......................................................X",
" O.O.O.OoO.O.O.OoO.O.O.OoO.O.O.OoO.O.O.OoO.O.O.O.OoO.OoX",
" .o..oO......oO......oO......oO......oO......oO.o...o.OX",
" O.O.O.O.OoO.O.O.OoO.O.O.OoO.O.O.OoO.O.O.OoO.O.O.O.O.O.X",
" .o.O..oO...O..oO...O..oO...O..oO...O..oO...O.o.Oo..O..X",
" O.O.O.O.OoO.O.O.OoO.O.O.OoO.O.O.OoO.O.O.OoO.O.O.O.O.O.X",
" .O.o.OoO.O..oO.O.O..oO.O.O..oO.O.O..oO.O.O.o.O.O.Oo.oOX",
" O.O.O.O.O.O.O.OoO.OoO.OoO.OoO.OoO.OoO.OoO.O.O.OoO.O.O.X",
" .O.O.O.OoO.OoO.O.O.O.O.O.O.O.O.O.O.O.O.O.O.OoO.O.O.O.OX",
" O.OoO.O.O.O.O.OoO.O.O.O.OoO.O.O.OoO.O.O.O.O.O.O.O.OoO.X",
" OO.OOO.OOOoOOO.OOO.OOOoOOO.OOOoOOO.OOOoOOO.OOOoOOO.OOOX",
" O.O.OoO.O.O.O.O.OoO.O.O.O.O.O.O.O.O.O.O.OoO.O.O.OoO.O.X",
" OOOOOOOOOOOOOOOOOOOOOOOOOOOOOOOOOOOOOOOOOOOOOOOOOOOOOOX",
" O.O.O.O.O.O.OoO.O.O.OoO.+++++++++++++++++++.O.O.O.O.O.X",
" OOOOOOOOOOOOOOOOOOOOOOO+.@@@@@@@@@@@@@@@@+OOOOOOOOOOOOX",
" OOOoOOO.OOOoOOO.OOO.OO+.@@@@@@@@@@@@@@@@+.O.OOO.OOO.OOX",
" OOOOOOOOOOOOOOOOOOOOO+.@@@#########@@@@+$.OOOOOOOOOOOOX",
" OOOOOOOOOOOOOOOOOOOO+.@@@#########@@@@+$$..OOOOOOOOOOOX",
" OOOOOOOOOOOOOOOOOOO+.@@@@@@@@@@@@@@@@+$$$oOOOOOOOOOOOOX",
" %OOO%OOO%OOO%OOO%O+.@@@@@@@@@@@@@@@@+$$&$.OO%OOO%OOO%OX",
" OOOOOOOOOOOOOOOOO+.@@@@@@@@@@@@@@@@+$$$$$.+OOOOOOOOOOOX",
" OO%O%O%OOO%O%O%O+.@@@@@@@@@@@@@@@@+$$&$$$X%O%O%OOO%O%OX",
" OOOOOOOOOOOOOOO+.@@@@@@@@@@@@@@@@+$$$$$$+OOOOOOOOOOOOOX",
" %O%O%O%O%O%O%O+.@@@@@@@@@@@@@@@@+$$$&$$+%O%O%O%O%O%O%OX",
" OOOOOOOOOOOOO+.@@@@@@@@@@@@@@@@+$$$$$$+OOOOOOOOOOOOOOOX",
" %O%O%O%O%O%O+.@@@@@@@@@@@@@@@@+$$$&$$+%O%O%O%O%O%O%O%OX",
" O%OOO%OOO%OO++X++X++X+++++++++$$$$$$+%OOO%OOO%OOO%OOO%X",
" %O%O%O%O%O%+$$$$$$$$$$$$$$$$$$$$&$$+%O%O%O%O%O%O%O%O%OX",
" O%O%O%*%O%O+$$$$$$$$$$$$$$$$$$$$$$+%O%O%*%O%*%O%*%O%O%X",
" %O%*%O%O%*%+$$$$$$$$$$$$$$$$$$&$$+%O%O%O%O%O%O%O%O%*%OX",
" %%*%%%O%%%O+$$$$$$$$$$$$$$$$$$$$+%O%%%O%%%*%%%O=%%O%%%X",
" %O%O%***%O%+$$$$$$$$$$$$$$$$$$$+%O%O%*%O%O%O%O%O-O%O%OX",
" %%%%%*=%%%%+$$$$$$$$$$$$$$$$$$+%%%%%%%%-=%%-=%%%%*=%%%X",
" %***%**O%*%O++++++++++++++++++%O%*%*%O%O*O%O*O%*%O-O%OX",
" %%%%%%%%%%%%%%%%%%%%%%%%%%%%%%%%%%%%*=%%%%%%%%%%%%%%%%X",
" %%=O%%=O%%%O%%%O%%%O%%%O%%%O%%%*%%%**-%*%=-O=-%**=-O%%X",
" %%-%%*-%%-=%%%%%%%%%%%%%%%%%%%%%-=%%%%%%%*%%*%%%%%%%%%X",
" %O%%=-%%%O*%%=-%%*%%%=-%%*%%=-%%%O*%%=-%%*%%%=-%%*%%%%X",
" %%%%*%%-=%%%%%%%%-=%%%%%%%%%%%%%%%%%-%*=%%%%%-*=%%*=%%X",
" %%=-%%%%*%-%=-%%%%%-%%%=-%=-%%=-%=-%%%%-%%=-%%%%-%%-%%X",
".XXXXXXXXXXXXXXXXXXXXXXXXXXXXXXXXXXXXXXXXXXXXXXXXXXXXXXX"};
