/* XPM */
static char * image_name[] = {
"56 46 18 1",
" 	c #FFFFFFFFFFFF",
".	c #BEBEBABABEBE",
"X	c #000000001111",
"o	c #AEAEAAAAAEAE",
"O	c #C7C7BABAC7C7",
"+	c #010101010101",
"@	c #AEAE55552828",
"#	c #AEAE9E9E5959",
"$	c #FFFF8E8E0808",
"%	c #CFCF55552828",
"&	c #DFDFAEAE6969",
"*	c #AEAEB2B22828",
"=	c #FFFFAEAE0000",
"-	c #AEAE61616161",
";	c #AEAE59590808",
":	c #FFFFB6B61010",
">	c #9E9E9A9A9E9E",
",	c #AEAEAEAEB6B6",
"                                                       .",
" ......................................................X",
" ......................................................X",
" ......................................................X",
" o...o...o...o...o...o...o...o...o...o...o...o...o...o.X",
" .....O....O...O..O....O...O..O....O...O..O...O..O..O..X",
" o.o.o.o.o.o.o.o.o.o.o.o.o.o.o.o.o.o.o.o.o.o.o.o.o.o.o.X",
" .....o.......o.......o.......o.......o.......o.......oX",
" o.o.o.o.o.o.o.o.o.o.o.o.+++.o.o.o.o.o.o.o.o.o.o.o.o.o.X",
" ...o...o...o...o...o..++@+#++..o...o...o...o...o...o..X",
" o.o.o.o.o.o.o.o.o.o.++@@@+$#%++.o.o.o.o.o.o.o.o.o.o.o.X",
" .o...o.o.o...o.o.o++@@@@@+&%&$#++o...o.o.o...o.o.o...oX",
" o.o.o.o.o.o.o.o.++@@@@@@@+$#$#%$#++.o.o.o.o.o.o.o.o.o.X",
" .o.o.o.o.o.o.o++@@@@@@@@@+#%&%#&$%#++o.o.o.o.o.o.o.o.oX",
" o.o.o.o.o.o.++@@@@@@@@@@++@$#$$%&*%$#++.o.o.o.o.o.o.o.X",
" oo.ooo.ooo.+++@@@@@@@+@+@+&@%@&#$%&#$+++oo.ooo.ooo.oooX",
" o.o.o.o.o.o+==++@@+@+@+@++@$@#@%@&%+X===+.o.o.o.o.o.o.X",
" ooooooooooo+====++@+@+@+@+*-%;&@$++======+ooooooooooooX",
" o.o.o.o.o.o+======+++@+@++@$@#%+X:=======++.o.o.o.o.o.X",
" ooooooooooo+========++++++@@@++========++oooooooooooooX",
" ooo.ooo.ooo+==========++++@X+========+++ooo.ooo.ooo.ooX",
" ooooooooooo+============+++========++@@+ooooooooooooooX",
" ooooooooooo+=============+#+=====++@@@@+ooooooooooooooX",
" ooooooooooo+=============X$@+==++@@@@%#+ooooooooooooooX",
" >ooo>ooo>oo+=============+#%@++@@@@@#%$X>ooo>ooo>ooo>oX",
" ooooooooooo+=============+#$&@@@@%*%&$#+ooooooooooooooX",
" oo>o>o>ooo>+=============+$#%$@@#%&$#%&+oo>o>o>ooo>o>oX",
" ooooooooooo+=============+%#$##%&$#%$#$+ooooooooooooooX",
" >o>o>o>o>o>+=============+&%&%:#%$#$#%&+>o>o>o>o>o>o>oX",
" ooooooooooo+=============+$#$&%#$&%&$#$+ooooooooooooooX",
" >o>o>o>o>o>++============+#%$#$&%#$#%&%+>o>o>o>o>o>o>oX",
" o>ooo>ooo>oo++===========+$&%&%#$&%#$++,o>ooo>ooo>ooo>X",
" >o>o>o>o>o>o>o++=========+#$#$#%$#$XX,>o>o>o>o>o>o>o>oX",
" o>o>o>o>o>o>o>o>++=======+%#$%&$#+X>o>o>o>o>o>o>o>o>o>X",
" >o>o>o>o>o>o>o>o>o++=====+$#%&$X+o>o>o>o>o>o>o>o>o>o>oX",
" >>o>>>o>>>o>>>o>>>o>++===+#$&++>>>o>>>o>>>o>>>o>>>o>>>X",
" >o>o>o>o>o>o>o>o>o>o>o++=+$X+o>o>o>o>o>o>o>o>o>o>o>o>oX",
" >>>>>>>>>>>>>>>>>>>>>>>>+XX>>>>>>>>>>>>>>>>>>>>>>>>>>>X",
" >o>o>o>o>o>o>o>o>o>o>o>o>o>o>o>o>o>o>o>o>o>o>o>o>o>o>oX",
" >>>>>>>>>>>>>>>>>>>>>>>>>>>>>>>>>>>>>>>>>>>>>>>>>>>>>>X",
" >>>o>>>o>>>o>>>o>>>o>>>o>>>o>>>o>>>o>>>o>>>o>>>o>>>o>>X",
" >>>>>>>>>>>>>>>>>>>>>>>>>>>>>>>>>>>>>>>>>>>>>>>>>>>>>>X",
" >o>>>>>>>o>>>>>>>o>>>>>>>o>>>>>>>o>>>>>>>o>>>>>>>o>>>>X",
" >>>>>>>>>>>>>>>>>>>>>>>>>>>>>>>>>>>>>>>>>>>>>>>>>>>>>>X",
" >>>>>>>>>>>>>>>>>>>>>>>>>>>>>>>>>>>>>>>>>>>>>>>>>>>>>>X",
".XXXXXXXXXXXXXXXXXXXXXXXXXXXXXXXXXXXXXXXXXXXXXXXXXXXXXXX"};
