/* XPM */
static char * chem_7_xpm[] = {
"56 46 40 1",
" 	c None",
".	c #FFFFFF",
"+	c #BEBABE",
"@	c #000010",
"#	c #BEB6BE",
"$	c #FFCCCC",
"%	c #AEAAAE",
"&	c #AEA6AE",
"*	c #C7BAC7",
"=	c #CCFFFF",
"-	c #FF9966",
";	c #FF6666",
">	c #FF9999",
",	c #CC6633",
"'	c #FF99CC",
")	c #CC3333",
"!	c #FFCCFF",
"~	c #CC6666",
"{	c #CC3300",
"]	c #FF6699",
"^	c #FFFFCC",
"/	c #CC3366",
"(	c #FFCC99",
"_	c #FF9933",
":	c #FF6633",
"<	c #FFFF33",
"[	c #FFCC33",
"}	c #FFCC66",
"|	c #FFFF66",
"1	c #9E9A9E",
"2	c #D60879",
"3	c #CC6699",
"4	c #FFFBFF",
"5	c #FFF3FF",
"6	c #969696",
"7	c #A69EA6",
"8	c #9696AE",
"9	c #A6798E",
"0	c #B6AEB6",
"a	c #000018",
".......................................................+",
".++++++++++++++++++++++++++++++++++++++++++++++++++++++@",
".++++++++++++++++++++++++++++++++++++++++++++++++++++++@",
".+++#++#++#++#++#++#++#++#++#++#++#++#+$#++#++#++#++#++@",
".%+++%+++&+++%+++%+++&+++%+++%+++&+++%$++%+++&+++%+++%+@",
".++#++*#+++*#++*#+*#+++*#++*#+*#+++*#$$*#+*#++*#+*#+*#+@",
".%+%+&+%+%+%+%+%+%+%+%+%+%+%+%+%+%+%=-+%+%+%+%+%+%+%+%+@",
".+++++%+++#+++&+++++++&+++#+++%+++#+;$&+++++++%+++++++%@",
".%+&+&+%+&+%+&+%#%+&$&+%+&+%+&+&+%+>>&+%#%+&+&+%#%+&+%+@",
".+++%+++%+++%+++%+++>+++%+++&+++%+$,%+++%+++%+++%+++&++@",
".%+&+&+&+&+&+%+&+&+&'$#%+&+%+%+&+$)$+&+%!&+&+%#%+%+&+%+@",
".+%+++%+%+%+#+%+%+%+$-%+%+%+#+$>%)-+++&>%+%$++%+&+%+++%@",
".%+&+%+&+%+%+%+&+%+&+;!&+%+%>%>;~)+%+&>%+&'$+&+%+%+&+&+@",
".+%+&+%+%+&>$+%+%+%+&$;+%+%+-+){)$&+$~$+$,$+%+%+&+%+%+%@",
".%+%+%+&+%+%';=%+&+%+%])!&$^/>/{>%$$/$+-/$+%+&+%+%+&+%+@",
".%%+%%%+%%%+%$)(%%%+%$>)>%~>{_:)%;-)($)~%%&+%%%+$%%+%%%@",
".%+%+&+%+%+&+%$)~$+&$%],,%/))<-$>_~~;{>&+%+%$>>$+%+%+%+@",
".%%%%%%%%%%%%%%>{)-%$~>)_>,,_<,,_[{{)>%%$>;;$%%%%%&%%%%@",
".%+%+%+%+&+%+%+%]{)>+>/:}_-[|<[<|_-)$(>)/>=&+%+%+%+%+%+@",
".%%%%%%%%%%%%%%%%>$>;$)_<<<<<<<<<[{{{{{{)~>$%%%%%%%%%%%@",
".%%%+&%%+%%%+&%%+%%());_<<|<<<|<<<[)/~'$+&%%+%%%+%%%+&%@",
".%%%%%%%%%%%%%%%%%%%():<<<<<<<<<<[))>$$%%%%%%%%%%%%%%%%@",
".%%%%%%%%%%%%%%%%%$;~)/_|<<<|<<<|_~{);=%%%%%%%%%%%%%%%%@",
".%%%%%%%%%%%%%%%%%%>):[<<<<<<<<<[:){{{),;>>$$$%%%%%%%%%@",
".1%%%1&%%1&%$$'>]~~_[[|<<<|<2<|<~,!$>;>~~>'>>>$$%1&%%1%@",
".%%%%%%%$>;,,~,){{{{{:[[<<<<2[))))$%%%%%(!%%%%%%%%%%%%%@",
".%%1&1%1=%%1&1%,){){;,)[;[[<~,_{)-$$&1%1&%%1&1&1&%%1&1&@",
".%%%%%&%%%%%%%&%>){){{))){)):)){{)%%%%&%%%%%%%%%%%%%%%%@",
".1%1&1%1&1%1&1%1&~){){){~)/)))$~$-31&1%1&1&1&1%1&1&1&1%@",
".%&%%&%%%%&%%%&%%%$){))~>~~)){$$%%%>%%&%%%%%%%&%%%%%%%%@",
".1%1%1&1&1%1&1%1&1~)';$$$;!)!{>1&1&1=1%1&1&1%1%1&1&1&1%@",
".&1&%&1%%&1%%&1%$,)$%>1&>-1)%~~%%&1%%&1%%&1%&&1%%&1%%&1@",
".1%1&1&1&1&1&1&(/>&1&1&1'>&>$$/1%1&1&1&1&1&1%1&1&1&1%1&@",
".&1&1&1&1&1&1&>>1&1&1&1&>>1$2&;>1&1&1&1&1&1&1&1&1&1&1&1@",
".1&1&1&1&1&1=(=1&1&1&1&1'$&1=1!,=1&1&1&1&1&1&1&1&1&1&1&@",
".11&111&111&111&111&111&>$1&111-$11&111&111&111&111&111@",
".1&1&1&1&1&1&1&1&1&1&1&1>$&1&1&1>1&1&1&1&1&1&1&1&1&1&1&@",
"411111111111111111111111>1111111(1111111111111111111111@",
".1&1&1&1&1&1&1&1&1&1&1&1'1&1&1&1&$&1&1&1&1&1&1&1&1&1&1&@",
"511111616161161161161161(611611611611611616161616161111@",
".116&111&111&111&111&111$111&111&111&111&111&111&111711@",
"461189111891189118911891$891189118911891118911118911111@",
".1&1171111&7117111&71171!1&7117111&711711901798117&1116a",
"5111161891161189111611891116118911189161181187111189111@",
".111981171119811119811118119811181111119811161198117111@",
"+@@aa@@@@@@aa@@@@@a@@@@@@@aa@@@@@@@@@@aa@@@@@@@a@@@@@@@@"};
