/* XPM */
static char * chem_tet_xpm[] = {
"56 46 22 1",
" 	c None",
".	c #FFFFFF",
"+	c #BEBABE",
"@	c #000000",
"#	c #000010",
"$	c #D82472",
"%	c #BEB6BE",
"&	c #AEAAAE",
"*	c #AEA6AE",
"=	c #C7BAC7",
"-	c #E1E2E2",
";	c #BCBFD3",
">	c #9E9A9E",
",	c #E6E6E6",
"'	c #FFFBFF",
")	c #FFF3FF",
"!	c #969696",
"~	c #A69EA6",
"{	c #9696AE",
"]	c #A6798E",
"^	c #B6AEB6",
"/	c #000018",
".......................................................+",
".++++++++++++++++++++++++@@@@@@++++++++++++++++++++++++#",
".+++++++++++++++++++++++@$$$$$$@+++++++++++++++++++++++#",
".+++%++%++%++%++%++%++%@$$$$$$$$@+%++%++%++%++%++%++%++#",
".&+++&+++*+++&+++&+++*+@$$$$$$$$@*+++&+++&+++*+++&+++&+#",
".++%++=%+++=%++=%+=%+++@$$$$$$$$@++=%++=%+=%++=%+=%+=%+#",
".&+&+*+&+&+&+&+&+&+&+&+@$$$@@$$$@&+&+&+&+&+&+&+&+&+&+&+#",
".+++++&+++%+++*+++++++*@$$@@@$$$@+%+++*+++++++&+++++++&#",
".&+*+*+&+*+&+*+&%&+*+*+@$$@@$@$$@&+&+*+&%&+*+*+&%&+*+&+#",
".+++&+++&+++&+++&+++&+++@@$@$$@@&+%+&+++&+++&+++&+++*++#",
".&+*+*+*+*+*+&+*+*+*+&%&+@@@@@@*+&+&+*+&+*+*+&%&+&+*+&+#",
".+&+++&+&+&+%+&+&+&+++&+@-@;;@-@&+*+++*+&+&+++&+*+&+++&#",
".&+*+&+*+&+&+&+*+&+*+&+*@-@;;@-@+&+&+*+&+*+&+*+&+&+*+*+#",
".+&+*+&+&+*+&+&+&+&+*+&@--@;;@--@+*+&+&+&+*+&+&+*+&+&+&#",
".&+&+&+*+&+&+*+&+*+&+&+@--@;;@--@&+&+*+&+&+&+*+&+&+*+&+#",
".&&+&&&+&&&+&&*+&&&+&&@---@;;@---@@+&&&+&&*+&&&+&&&+&&&#",
".&+&+*+&+&+*+&+&+&+*+&@---@;;@----@&+&+*+&+&+&+*+&+&+&+#",
".&&&&&&&&&&&&&&&&&&&&@---@@;;@----@@&&&&&&&&&&&&&&*&&&&#",
".&+&+&+&+*+&+&+&+*+&+@---@@;;@-----@+&+&+&+*+&+&+&+&+&+#",
".&&&&&&&&&&&&&&&&&&&@----@@;;@-----@@&&&&&&&&&&&&&&&&&&#",
".&&&+*&&+&&&+*&&+&&&@----@@;;@------@&&&+*&&+&&&+&&&+*&#",
".&&&&&&&&&&&&&&&&&&@-----@@;;@------@@&&&&&&&&&&&&&&&&&#",
".&&&&&&&&&&&&&&&&&&@-----@@;;@-------@&&&&&&&&&&&&&&&&&#",
".&&&&&&&&&&&&&&&&&@-----@@@;;@@@------@&&&&&&&&&&&&&&&&#",
".>&&&>*&&>*&&>*&&>@----@@@@@@@$@@-----@&&>*&&>*&&>*&&>&#",
".&&&&&&&&&&&&&&&&@----@@@@@@@$$$@@-----@&&&&&&&&&&&&&&&#",
".&&>*>&>*&&>*>&>*@----@@@@@@@@$$$@-----@*&&>*>*>*&&>*>*#",
".&&&&&*&&&&@@@@@@-----@@@@@@@@$$$@------&&&&&&&&&&&&&&&#",
".>&>*>&>*>&@@$$$@@---@@@@@@@@@@@@@------@>*>*>&>*>*>*>&#",
".&*&&*&&&&@$$$$@,,@@@@@@@@@@@@@@@@-------@&&&&*&&&&&&&&#",
".>&>&>*>*>@$$$$@@@@;;;@@@@@@@@@@;;@@-----@*>&>&>*>*>*>&#",
".*>*&*>&&*@$$$@-@;;;@@@@@@@@@@@@;;;;@@---@@@**>&&*>&&*>#",
".>&>*>*>*@$$$$@-@@@@@@@@@;;@@@@@@;;;;;@@-@*@@@@>*>*>&>*#",
".*>*>*>*>*@$$$$@,@,@@@@@@;;@@@@@@@@;;;;;@@@@$$$@@*>*>*>#",
".>*>*>*>*>@$$$$@,,@----@;;;@@@@@--@@@@;;;@$$@$$$$@*>*>*#",
".>>*>>>*>>@$$$$$@,@----@;;@@@@@@@@@@-@@@;@$$@$$$$$@*>>>#",
".>*>*>*>*>*@@@$@@@@@@@@@;;@@@@@@@@@@@@@@@@$$$@$$$$@>*>*#",
"'>>>>>>>>>>>>@@>>>@@@@@@@@---------------@$@@@$$$$@>>>>#",
".>*>*>*>*>*>*>*>*>@@$$@$$@------------@@@@@$$$$$$$@>*>*#",
")>>>>>!>!>!>>!>>!@$@$$@$$$@-----@@@@@@>>!@$$$$$$$$@>>>>#",
".>>!*>>>*>>>*>>>*@$$@$@$$$@@@@@@*>>>*>>>*@$$$$$$$@>>~>>#",
"'!>>{]>>>{]>>{]>>@$$$@@@@@@>>{]>>{]>>{]>>>@@$$$@@]>>>>>#",
".>*>>~>>>>*~>>~>>@$$$$$$$$@~>>~>>>*~>>~>>]^>@@@>>~*>>>!/",
")>>>>!>{]>>!>>{]>@$$$$$$$$@!>>{]>>>{]>!>>{>>{~>>>>{]>>>#",
".>>>]{>>~>>>]{>>>>@$$$$$$$@]{>>>{>>>>>>]{>>>!>>]{>>~>>>#",
"+##//######//#####@@$$$$@@//##########//#######/########"};
