/* XPM */
static char * image_name[] = {
"56 46 13 1",
" 	c #FFFFFFFFFFFF",
".	c #BEBEBABABEBE",
"X	c #000000001111",
"o	c #AEAEAAAAAEAE",
"O	c #C7C7BABAC7C7",
"+	c #080804040808",
"@	c #2828FFFF2020",
"#	c #5151A2A24949",
"$	c #181886865151",
"%	c #B6B6AEAEB6B6",
"&	c #9E9E9A9A9E9E",
"*	c #202020202020",
"=	c #A6A69E9EA6A6",
"                                                       .",
" ......................................................X",
" ......................................................X",
" ......................................................X",
" o...o...o...o...o...o...o...o...o...o...o...o...o...o.X",
" ....O....O...O..O....O...O..O....O...O...O....O...O...X",
" o.o.o.o.o.o.o.o.o.o.o.o.o.o.o.o.o.o.o.o.o.o.o.o.o.o.o.X",
" .....o.......o.......o.......o.......o.......o.......oX",
" o.o.o.o.o.o.o.o.o.o.o.o.o.o.o.o.o.o.o.o.o.o.o.o.o.o.o.X",
" ...o...o...o...o...o...o..+++++++++++..o...o...o...o..X",
" o.o.o.o.o.o.o.o.o.o.o.o.o+@#@#@#@#@#@+o.o.o.o.o.o.o.o.X",
" .o...o.o.o...o.o+++..o.o.+#@#@#@#@#@#+.o.o...o.o.o...oX",
" o.o.o.o.o.o.o.o.+@+Oo.o.o+@$++@++@$@@+o.o.o.o.o.o.o.o.X",
" .o.o.o.o.o.o.o.o+#+o.o.o.+#@++#++@@#+o.o.o.o.o.o.o.o.oX",
" o.o.o.o.o.o.o.o.+@+.o.o.+@#@#@@#@#@#+Oo.o.o.o.o.o.o.o.X",
" oo.ooo.ooo.ooo.o+#+ooo.o+@#@@$@#@$@+oo.ooo.ooo.ooo.oooX",
" o.o.o.o.o.o.o.o.+@#++++++#@++@#+@#@+++++o.o.o.o.o.o.o.X",
" ooooooooooooooooo+@#@#@#@@#@#++@#@#@#@#@++ooooooooooooX",
" o.o.o.o.o.o.o.o.o.++++++#@$@@#@#X++++++#@#+.o.o.o.o.o.X",
" ooooooooooooooooooooooo+$@@#@#@+%%%%ooo+#@+oooooooooooX",
" ooo.ooo.ooo.ooo.ooo.ooo+@#@@#@#Xooo.ooo+@#+.ooo.ooo.ooX",
" oooooooooooooooooooooo+X#@#@#@Xoooooooo+#@+oooooooooooX",
" oooooooooooooooooooooo+@@#@#@#+oooooooo+@#+oooooooooooX",
" oooooooooooooooooooo+++@$@#@#@+oooooooo++++oooooooooooX",
" &ooo&ooo&ooo&ooo&ooo++@#@#@#@#+o&ooo&ooo&ooo&ooo&ooo&oX",
" ooooooooooooooooooo+#@#@*@#@#@+oooooooooooooooooooooooX",
" oo&o&o&ooo&o&o&ooo+@#@$@+#@#@#+%oo&o&o&ooo&o&o&ooo&o&oX",
" ooooooooooooooooo++#@#@++@#@#@+oooooooooooooooooooooooX",
" &o&o&o&o&o&o&o&o&+@#@#@++#@#@#+o&o&o&o&o&o&o&o&o&o&o&oX",
" oooooooooooooooo+@#@#@#++@#@#@+oooooooooooooooooooooooX",
" &o&o&o&o&o&o&o&o+#@$@@+.+@#@#@+%&o&o&o&o&o&o&o&o&o&o&oX",
" o&ooo&ooo&ooo&oo+@#@@#+%+#@#@#@+o&ooo&ooo&ooo&ooo&ooo&X",
" &o&o&o&o&o&o&o++@#@#@#+o+@#@#@#+&o&o&o&o&o&o&o&o&o&o&oX",
" o&o&o&o&o&o&o+++#++@#@X=+@+++#@++&o&o&o&o&o&o&o&o&o&o&X",
" &o&o&o&o&o&o&+@#@@#@#@+o+#@#@@#@+o&o&o&o&o&o&o&o&o&o&oX",
" &&o&&&o&&&o&&+#@#@#@+++=+#@#@#@#+&o&&&o&&&o&&&o&&&o&&&X",
" &o&o&o&o&o&o&+++++++++&o&+++++++&o&o&o&o&o&o&o&o&o&o&oX",
" &&&&&&&&&&&&&&&&&&=&=&&&&=&o&o&&&&&&&&&&&&&&&&&&&&&&&&X",
" &o&o&o&o&o&o&o&o&o&o&o&o&o&o&o&o&o&o&o&o&o&o&o&o&o&o&oX",
" &&&&&&&&&&&&&&&&&&&&&&&&&&&&&&&&&&&&&&&&&&&&&&&&&&&&&&X",
" &&&o&&&o&&&o&&&o&&&o&&&o&&&o&&&o&&&o&&&o&&&o&&&o&&&o&&X",
" &&&&&&&&&&&&&&&&&&&&&&&&&&&&&&&&&&&&&&&&&&&&&&&&&&&&&&X",
" &o&&&&&&&o&&&&&&&o&&&&&&&o&&&&&&&o&&&&&&&o&&&&&&&o&&&&X",
" &&&&&&&&&&&&&&&&&&&&&&&&&&&&&&&&&&&&&&&&&&&&&&&&&&&&&&X",
" &&&&&&&&&&&&&&&&&&&&&&&&&&&&&&&&&&&&&&&&&&&&&&&&&&&&&&X",
".XXXXXXXXXXXXXXXXXXXXX+XX+X+X+X+X+X+XXXXXXXXXXXXXXXXXXXX"};
