/* XPM */
static char * image_name[] = {
"56 46 14 1",
" 	c #FFFFFFFFFFFF",
".	c #BEBEBABABEBE",
"X	c #000000001111",
"o	c #AEAEAAAAAEAE",
"O	c #C7C7BABAC7C7",
"+	c #010101010101",
"@	c #181886865151",
"#	c #FFFF14144141",
"$	c #5151A2A24949",
"%	c #AEAEAEAEB6B6",
"&	c #AEAEB2B2CFCF",
"*	c #B6B6AEAEB6B6",
"=	c #9E9E9A9A9E9E",
"-	c #38386D6DA6A6",
"                                                       .",
" ......................................................X",
" ......................................................X",
" ......................................................X",
" o...o...o...o...o...o...o...o...o...o...o...o...o...o.X",
" .....O....O...O..O....O...O..O....O...O..O...O..O..O..X",
" o.o.o.o.o.o.o.o.o.o.o.o.o.o.o.o.o.o.o.o.o.o.o.o.o.o.o.X",
" .....o.......o.......o.......o.......o.......o.......oX",
" o.o.o.o.o.o.o.o.o.o.o.o.o.o.o.o.o.o.o.o.o.o.o.o.o.o.o.X",
" ...o...o...o...o...o...o...o...o...o...o...o...o...o..X",
" o.o.o.o.o.o.o.o.o.o.o.o.o.o.o.o.o.o.o.o.o.o.o.o.o.o.o.X",
" .o...o.o.o...o.o.o...o.o.o...o.o.o...o.o.o...o.o.o...oX",
" o.o.o.o.o.o++++++++++++++++++++++++++++++++.o.o.o.o.o.X",
" .o.o.o.o.oO@@@@@@@@@@o.o.o.o.o.o###########o.o.o.o.o.oX",
" o.o.o.o.o.o$@$@$@$@$@Oo.o.o.o.o.###########.o.o.o.o.o.X",
" oo.ooo.ooo.@$@@$@@$@@o.ooo.ooo.o###########ooo.ooo.oooX",
" o.o.o.o.o.o@@@$@@$@@$.o.o.o.o.o.###########.o.o.o.o.o.X",
" oooooooooo%$@$@@@@$@@ooooooooooo###########oooooooooooX",
" o.o.o.o.o.o@@@$@$@@@$&o.o.o.o.o.###########.o.o.o.o.o.X",
" oooooooooo*@$@@@@@@$@ooooooooooo###########oooooooooooX",
" ooo.ooo.ooo@@$@$@$@@@*o.ooo.ooo.###########.ooo.ooo.ooX",
" oooooooooo*@$@@@@@@@$ooooooooooo###########oooooooooooX",
" ooooooooooo@@$@$@$@$@%oooooooooo###########oooooooooooX",
" oooooooooo%$@@@@$@@@@ooooooooooo###########oooooooooooX",
" =ooo=ooo=oo@@$@@@$@$@*oo=ooo=ooo###########o=ooo=ooo=oX",
" ooooooooo%%$@@$@$@@@@ooooooooooo###########oooooooooooX",
" oo=o=o=ooo=@@$@@@$@$@.=ooo=o=o=o###########o=o=ooo=o=oX",
" ooooooooo%%$@@@@$@@@@ooooooooooo###########oooooooooooX",
" =o=o=o=o=o=@@$@$@@$@$%=o=o=o=o=o###########o=o=o=o=o=oX",
" oooooooooo*@$@@-@$@@@%oooooooooo###########oooooooooooX",
" =o=o=o=o=o=@@$@@$@@$@*=o=o=o=o=o###########o=o=o=o=o=oX",
" o=ooo=ooo=%$@@$@@@$@@=ooo=ooo=oo###########oo=ooo=ooo=X",
" =o=o=o=o=o=@@$@@$@@@$%=o=o=o=o=o###########o=o=o=o=o=oX",
" o=o=o=o=o=%+XXX+XX+XX++++++++++++++++++++++=o=o=o=o=o=X",
" =o=o=o=o=o=o=o=%=ooo=o=o=o=o=o=o=o=o=o=o=o=o=o=o=o=o=oX",
" ==o===o===o===o===o===o===o===o===o===o===o===o===o===X",
" =o=o=o=o=o=o=o=o=o=o=o=o=o=o=o=o=o=o=o=o=o=o=o=o=o=o=oX",
" ======================================================X",
" =o=o=o=o=o=o=o=o=o=o=o=o=o=o=o=o=o=o=o=o=o=o=o=o=o=o=oX",
" ======================================================X",
" ===o===o===o===o===o===o===o===o===o===o===o===o===o==X",
" ======================================================X",
" =o=======o=======o=======o=======o=======o=======o====X",
" ======================================================X",
" ======================================================X",
".XXXXXXXXXXXXXXXXXXXXXXXXXXXXXXXXXXXXXXXXXXXXXXXXXXXXXXX"};
