/* XPM */
static char * image_name[] = {
"56 46 25 1",
" 	c #FFFFFAFAFFFF",
".	c #BEBEB6B6BEBE",
"X	c #000000001414",
"o	c #C7C7BABAC7C7",
"O	c #AEAEA6A6AEAE",
"+	c #9E9E9A9A9E9E",
"@	c #030303030404",
"#	c #2828FFFF2020",
"$	c #FFFFFFFFD7D7",
"%	c #5151A2A24949",
"&	c #202020202020",
"*	c #181820202020",
"=	c #AEAEA6A67171",
"-	c #EFEFF3F3F7F7",
";	c #B6B6AEAEB6B6",
":	c #DFDFBABA8E8E",
">	c #FFFF14144141",
",	c #000030300808",
"<	c #FFFF0C0C4949",
"1	c #F7F7B2B2AEAE",
"2	c #A6A69E9EA6A6",
"3	c #A6A679798E8E",
"4	c #28282C2C3030",
"5	c #AEAEAEAEB6B6",
"6	c #96969696AEAE",
"                                                       .",
" ......................................................X",
" .o.o.o.o.o.o.o.o.o.o.o.o.o.o.o.o.o.o.o.o.o.o.o.o.o.o.oX",
" ......................................................X",
" O.o.Oo.oO.o.Oo.oO.o.Oo.oO.o.Oo.oO.o.Oo.oO.o.Oo.oO.o.O.X",
" o...................................................o.X",
" O.OoO.+.OoO.+.O.Oo+.O.O.+oO.O.+.OoO.+.O.Oo+.OoO.+.O.O.X",
" .o...O.o....oO.o....oO.o..@@@@@@@@..oO.o...o.O..o.o..OX",
" O.O.OoO.OoO.O.O.OoO.O.O.@@########@oO.O.O.O.O.O.O.O.O.X",
" ..oO...O...O..oO...Oo.o@###########@.o.Oo.oO..oO.o.O.oX",
" O.O.OoO.OoO.OoO.OoO@@.@@############@oO.O.O.OoO.O.O.O.X",
" .+.o.O.O.O.o.O@O.O@$$@X###%#&&&*=####@.O.O...O.O.O.o.OX",
" O.O.O.OoO.O.O@$@@@$$$@#####&-$$$@#####XoOoO.O.O.OoO.O.X",
" oO.O.O.+.O.O.@$$$$$$$X##=##@$$.oX##=##@O.O.+.OoO.O.O.OX",
" O.OoO.O.OoO.O@$$$$$..@#####&$$;$@#####&;OoOoO.O.+.OoO.X",
" OO.OOOoOOO.O:@$$$$..$&#####@$$o$&#####@OOO.OOOoOOO.OOOX",
" O.O.O.O.O.O:@@@..o$$$@X&&&X@$.$$X##=##XoO.O.O.O.OoO.O.X",
" OOOOOOOOOOO::@@$$$$$$$$$$$@$.$$X#####X@OOOOOOOOOOOOOOOX",
" O.OoO.O.OoO@:@:$$$..$$$$$$$@$$X#####&$@@OoO.O.O.O.O.O.X",
" OOOOOOOOOOO>@:@$$$$$$$$;$$$@$X###=#X-$$$@OOOOOOOOOOOOOX",
" OOO.OOOoOOO>@@:@$$$.$$.$$$$$@#####*$$.$$@OO.OOOoOOO.OOX",
" OOOOOOOOOOO>@@:X$$.$$.$$.$$$X####Xo..o.$@OOOOOOOOOOOOOX",
" OOOOOOOOOOO>@:::@$$$. $.$$$@###=,o.$$$$$@OOOOOOOOOOOOOX",
" OOOOOOOOOOO>@:X:X$$.$$.$$$$X####X.$$$$$@@@OOOOOOOOOOOOX",
" +OOO+OOO+OO>>@:::@$$$.$$$$.X####X$$$$$X::@OO+OOO+OOO+OX",
" OOOOOOOOOOOO>@:@:X$$o$$.$$$X#=##@$$$$@@:::@OOOOOOOOOOOX",
" OO+O+O+OOO+O>@:@::@$$$. $$$@####&$X@@::::X>O+O+OOO+O+OX",
" OOOOOOOOOOOOO>@:X::X$.$$$$$X####@::::::::>>OOOOOOOOOOOX",
" +O+O+O+O+O+O+<@:@::@$$$$$$$@X&XX@:::1::X>>+O+O+O+O+O+OX",
" OOOOOOOOOOOOOO>@:X::$$$@@@$$$$@@@:X@@@X>>OOOOOOOOOOOOOX",
" +O+O+O+O+O+O+O>@:@::$X@:@@@@+@::@@>>>>>O+O+O+O+O+O+O+OX",
" O+OO2+OOO+OOO+>@:X::$@:::@:@@#@@:>OOO+OOO+OOO+OOO+OOO+X",
" +O+O+O+2+O+O+O<@@:X:X:@@@:@#####X>+O+O+O+O+O+2+O+2+O+OX",
" O+2+O+O+O+O+O+O>@:@:@@@:@X#######@O+O+O+O+2+O+O+O+O+O+X",
" +O+O+O+O+2+O+O+<@::@@:@@>@#######X2O+O+O+O+O+O+2+O+2+OX",
" ++O+++2+++O+++O+>X:@@><++2&###=##@2+++O++22+++O+++O+++X",
" +O+2+O+O+O+2+O+O+>@@>>+O+2@#####&;22+O+2+222+O+O+O+O+OX",
" +++++23+23+++++++>:><+++++2&4#&X23+++++++++23+23+23+++X",
" +O+O356O6O22+2+2+O>O+O+O+2+23X2O2O+2+2+222+O6O+O+O+O+OX",
" ++++6++++++++++++++++++++++222++6+++232+++++++6+6+6+++X",
" ++3O+++2++3O++3O+++2+++2+322++3O+++226+2236O++3O+++2++X",
" ++6+63++++6++62+6+++63++2+6+++62+3+++++++2+++++++3++++X",
" +2++++2322++3++++2++++236O++36+++O6+3++362++36+++O236+X",
" ++++++6+++++6++63+++++6+++++++++++++2+6+++++2++++6++++X",
" +++3++++++32++++++32+++++36+++3+6+36++++++36++3+++++++X",
".XXXXXXXXXXXXXXXXXXXXXXXXXXXXXXXXXXXXXXXXXXXXXXXXXXXXXXX"};
