/* XPM */
static char * image_name[] = {
"14 14 25 1",
" 	c #FFFFFFFFFFFF",
".	c #E7E7E7E7EFEF",
"X	c #D7D7D3D3D7D7",
"o	c #D7D7DFDFE7E7",
"O	c #CFCFC7C7CFCF",
"+	c #8E8E8A8A8E8E",
"@	c #BEBEB6B6BEBE",
"#	c #A6A69E9EA6A6",
"$	c #969696969696",
"%	c #616161616161",
"&	c #414138384141",
"*	c #B6B6AEAEB6B6",
"=	c #FFFFFFFFC7C7",
"-	c #070705050808",
";	c #AEAE61616161",
":	c #A7A7A4A4A7A7",
">	c #AEAEB2B2CFCF",
",	c #DFDFAEAE6969",
"<	c #A6A679798E8E",
"1	c #96969696AEAE",
"2	c #FFFF0C0C4949",
"3	c #28285D5D4949",
"4	c #303034343030",
"5	c #BEBEC3C3BEBE",
"6	c #202020202020",
"             .",
".X..........oO",
"ooXXXXo.++.X.@",
"..XXXX.#$%.X.@",
"XX.X.O@@$XXX.@",
"XXXXX%&$&.XXX*",
"XXXOX=-%%;oXX@",
"XXOXXX&$O-XOX:",
"XOOO>,<oX-XXO:",
"XOXX12$.%%XOX:",
"XOOO>3&$4OXOO:",
"O5OO%&--6$OOO:",
"O5@O@@@O@*O@O:",
"@::::::::::::$"};
