/* XPM */
static char * image_name[] = {
"14 14 24 1",
" 	c #FFFFFAFAFFFF",
".	c #D7D7D3D3D7D7",
"X	c #A6A69E9EA6A6",
"o	c #CFCFC7C7CFCF",
"O	c #AEAEA6A6AEAE",
"+	c #9E9E9A9A9E9E",
"@	c #696969697171",
"#	c #C7C7BABAC7C7",
"$	c #96969696AEAE",
"%	c #8E8E8A8A8E8E",
"&	c #BEBEB6B6BEBE",
"*	c #EFEF28285151",
"=	c #A6A679798E8E",
"-	c #DFDFBABA8E8E",
";	c #FFFF14144141",
":	c #797986869E9E",
">	c #B6B6AEAEB6B6",
",	c #28284D4D9696",
"<	c #080804040808",
"1	c #303034343030",
"2	c #28285D5D4949",
"3	c #00001C1C8E8E",
"4	c #AEAEB2B2CFCF",
"5	c #AEAEAEAEB6B6",
"             .",
".............X",
".ooooooooooo.O",
"..o..o..o..o.X",
"ooooooooooo..+",
".oX@@@@@@O.#o$",
"oo%Oo&*.O%oo.+",
".#=O&-*.O@#o#%",
"o.@+*&;.O@:o#%",
"##@=>.*o$,,&o%",
"oX%<11211324O%",
"OOO%%+$%%=OO5%",
"OOOOOOO#OOOOO%",
"$%:%%:%%:%%:%@"};
