/* XPM */
static char * image_name[] = {
"14 14 26 1",
" 	c #FFFFFAFAFFFF",
".	c #CFCFC7C7CFCF",
"X	c #D7D7D3D3D7D7",
"o	c #8E8E8A8A8E8E",
"O	c #BEBEC3C3BEBE",
"+	c #BEBEB6B6BEBE",
"@	c #1010A2A21010",
"#	c #303034343030",
"$	c #515155554949",
"%	c #414138384141",
"&	c #9E9E9A9A9E9E",
"*	c #000005050505",
"=	c #000030300808",
"-	c #717179798686",
";	c #696969697171",
":	c #BEBE20202020",
">	c #C7C7BABAC7C7",
",	c #868679798686",
"<	c #AEAEA6A6AEAE",
"1	c #AEAE61616161",
"2	c #000000001818",
"3	c #181820202020",
"4	c #96969696AEAE",
"5	c #797986869E9E",
"6	c #A6A69E9EA6A6",
"7	c #B6B645455959",
"             .",
".X.X.X.X.X.X.o",
"XO+..X.X.O+.Xo",
"X.+.@#$%++.+.o",
"++.&%*=*%X++.-",
".++;*:%%=.++>-",
"+>+;-%%;%@+++,",
"+<<-X#@1-2+++;",
"+&+@+&232*14+-",
"+&&&;5;+<5%<+;",
"+&&&&25<<;@&&;",
"6,&&&o@#@%&&&-",
"&&&&&&&&&&&&&7",
",-;7-;-;;;-;;%"};
