/* XPM */
static char * image_name[] = {
"14 14 26 1",
" 	c #AEAEAAAAAEAE",
".	c #868679798686",
"X	c #494949495151",
"o	c #696969697171",
"O	c #010101010101",
"+	c #414138384141",
"@	c #28282C2C3030",
"#	c #515155554949",
"$	c #DFDFAEAE6969",
"%	c #DFDFBABA8E8E",
"&	c #595951512828",
"*	c #202020202020",
"=	c #000030300808",
"-	c #616161616161",
";	c #FFFFEBEBAEAE",
":	c #AEAE55552828",
">	c #AEAE61616161",
",	c #717179798686",
"<	c #5151A2A24949",
"1	c #181820202020",
"2	c #AEAEA6A67171",
"3	c #303034343030",
"4	c #AEAE59590808",
"5	c #AEAEB2B22828",
"6	c #000000001111",
"7	c #202028285151",
"             .",
".............X",
".o.oO+@+O..o.+",
".o.#$%&$**.o.+",
"..oX%=O&&O-o.X",
"ooo#$;;$;:+.o@",
"o>,X#$$&=:@oo+",
"ooo+<$&=&#@oo1",
"o--@:2&**&3o-@",
">X-@&$&&&:*-o@",
"oXX@%;&&456XX@",
"X+X33&&-&*+XX@",
"XX-X@@3@+@XX-6",
"7@1@1@1@1@@@@O"};
