/* XPM */
static char * image_name[] = {
"14 14 44 1",
" 	c #FFFFFAFAFFFF",
".	c #CFCFC7C7CFCF",
"X	c #BEBEC3C3BEBE",
"o	c #8E8E8A8A8E8E",
"O	c #ADADACACADAD",
"+	c #5151A2A24949",
"@	c #717175757171",
"#	c #D7D7DFDFE7E7",
"$	c #FFFFEBEBAEAE",
"%	c #BEBE20202020",
"&	c #000005050505",
"*	c #202024249696",
"=	c #000000001818",
"-	c #BEBEC3C3CFCF",
";	c #28285D5D4949",
":	c #494949495151",
">	c #BEBEB6B6BEBE",
",	c #969614140808",
"<	c #696969697171",
"1	c #AEAEAEAEB6B6",
"2	c #000030300808",
"3	c #717179798686",
"4	c #AEAE61616161",
"5	c #181820202020",
"6	c #202028285151",
"7	c #28284D4D9696",
"8	c #B6B6AEAEB6B6",
"9	c #AEAEB2B2CFCF",
"0	c #C7C7BABAC7C7",
"q	c #79799292B6B6",
"w	c #96969696AEAE",
"e	c #5959A2A2D7D7",
"r	c #616161616161",
"t	c #EFEFF3F3F7F7",
"y	c #797986869E9E",
"u	c #E7E7E7E7EFEF",
"i	c #303034343030",
"p	c #9A9A98989A9A",
"a	c #8E8E86867979",
"s	c #AEAEA6A67171",
"d	c #D7D7D3D3D7D7",
"f	c #868679798686",
"g	c #B6B645455959",
"h	c #414138384141",
"             .",
"............Xo",
". XO.+.. O. o@",
"#$%&O*.. &&.=o",
"-X;%O:>X.,<123",
"-456531X672763",
"8X#--#-.#.8.>3",
"9##-#1##### 0<",
"19q9-we19-w90r",
"XXXt-<>y u- <<",
"84&i:6pa ,%s54",
"1wi::6apd,5a7r",
"p65657wy365564",
"f3<7g34<<3343h"};
