/* XPM */
static char * image_name[] = {
"14 14 32 1",
" 	c #FFFFFAFAFFFF",
".	c #D7D7D3D3D7D7",
"X	c #A7A7A4A4A7A7",
"o	c #CFCFC7C7CFCF",
"O	c #D7D7DFDFE7E7",
"+	c #AEAEB2B2CFCF",
"@	c #969696969696",
"#	c #BEBEC3C3CFCF",
"$	c #202028285151",
"%	c #AEAEB2B22828",
"&	c #FFFFFFFF0000",
"*	c #000008080808",
"=	c #717179798686",
"-	c #C7C7BABAC7C7",
";	c #00001C1C8E8E",
":	c #28282C2C3030",
">	c #616161616161",
",	c #303034343030",
"<	c #E7E7E7E7EFEF",
"1	c #696969697171",
"2	c #595951512828",
"3	c #96969696AEAE",
"4	c #28285D5D4949",
"5	c #A6A69E9EA6A6",
"6	c #8E8E8A8A8E8E",
"7	c #B6B6AEAEB6B6",
"8	c #BEBEB6B6BEBE",
"9	c #51515555FFFF",
"0	c #10102C2CF7F7",
"q	c #414138384141",
"w	c #494949495151",
"e	c #202024249696",
"             .",
".............X",
".oO+@@@@@@o..X",
"Oo#$%&&&&*=..X",
".o-;:>,,<;=..X",
"..-;,121.;=.o3",
"---;,,4X.;=.-3",
".-+;1@56-;=-.6",
"o-7;;;;;;;=--@",
"--+;;;===;=.-6",
"o85;;;X=9;=-73",
"7580,qw4we=-76",
"7777@333337576",
"X@6@6636666661"};
