/* XPM */
static char * image_name[] = {
"14 14 20 1",
" 	c #D7D7DFDFE7E7",
".	c #BEBEBABABEBE",
"X	c #AEAEB2B2CFCF",
"o	c #D7D7D3D3D7D7",
"O	c #616161616161",
"+	c #B6B6AEAEB6B6",
"@	c #8E8E8A8A8E8E",
"#	c #868679798686",
"$	c #797986869E9E",
"%	c #969696969696",
"&	c #494949495151",
"*	c #8E8E86867979",
"=	c #E7E7E7E7EFEF",
"-	c #FFFFFAFAFFFF",
";	c #717179798686",
":	c #010101010101",
">	c #28282C2C3030",
",	c #303034343030",
"<	c #AEAE61616161",
"1	c #696969697171",
" .XoX.oX.oX.oO",
"+@#@@@#@@#@$%&",
"%*@@#@@@#%#@@&",
"%@OOOOOOOOO#%&",
"%#==-=-=-=-+@&",
"%@---------+@&",
"%;=-------@.@&",
"%*-------%:o%&",
"%$-----+-:>#@&",
"%*%&%%&>@&OO%&",
"%;&,O&>&OO#@@&",
"+*@#O$@#@#@#%&",
"%$@%@@<%@@@@@&",
"<OOOOOOOOOO1O,"};
