/* XPM */
static char * image_name[] = {
"14 14 28 1",
" 	c #FFFFFAFAFFFF",
".	c #D7D7D3D3D7D7",
"X	c #D7D7DFDFE7E7",
"o	c #AEAEAEAEB6B6",
"O	c #AEAEA6A6AEAE",
"+	c #BEBEB6B6BEBE",
"@	c #717175757171",
"#	c #CFCFC7C7CFCF",
"$	c #696969697171",
"%	c #B6B6AEAEB6B6",
"&	c #96969696AEAE",
"*	c #8E8E8A8A8E8E",
"=	c #616161616161",
"-	c #28282C2C3030",
";	c #070705050808",
":	c #E7E7E7E7EFEF",
">	c #414138384141",
",	c #000000001111",
"<	c #FFFFE7E7BEBE",
"1	c #303071715959",
"2	c #515155554949",
"3	c #969696969696",
"4	c #202020202020",
"5	c #595951512828",
"6	c #303034343030",
"7	c #C7C7BABAC7C7",
"8	c #BEBEC3C3CFCF",
"9	c #A6A69E9EA6A6",
"             .",
"X.X.o.O+X.X..+",
"..X+@X#$.X.X.%",
"X..&$.o*@...Xo",
".X.=--;;;X.:.+",
".X.>;;;,-*<..O",
".#.1-=,=2@.X.%",
"#:.&;3=>3;#.#O",
".#.%;45;6;7#XO",
".7.8-;-46;+7.O",
".++.=-;-%4X+#9",
"#++7.=,$$-.7+O",
"+7#7++>,;@#+7O",
"OOO9OO*=*o9OO*"};
