/* XPM */
static char * image_name[] = {
"14 14 34 1",
" 	c #FFFFFFFFFFFF",
".	c #D7D7D3D3D7D7",
"X	c #D7D7DFDFE7E7",
"o	c #E7E7E7E7EFEF",
"O	c #CFCFC7C7CFCF",
"+	c #AEAEAEAEB6B6",
"@	c #FFFFFFFFC7C7",
"#	c #BEBEC3C3CFCF",
"$	c #BEBEC3C3BEBE",
"%	c #EFEF28285151",
"&	c #8E8E8A8A8E8E",
"*	c #BEBEB6B6BEBE",
"=	c #5151A2A24949",
"-	c #202020202020",
";	c #616161616161",
":	c #FFFF0000FFFF",
">	c #28282C2C3030",
",	c #B6B645455959",
"<	c #000008080808",
"1	c #AEAE55552828",
"2	c #303034343030",
"3	c #717179798686",
"4	c #BEBE20202020",
"5	c #515155554949",
"6	c #AEAEA6A6AEAE",
"7	c #595951512828",
"8	c #28285D5D4949",
"9	c #181886865151",
"0	c #000000001818",
"q	c #303071715959",
"w	c #181820202020",
"e	c #C7C7BABAC7C7",
"r	c #79799292B6B6",
"t	c #AEAEB2B2CFCF",
"             .",
"X.o.o.o.o.X.oO",
"Xo.X....o.X.o+",
"....@O#X$%&@.*",
"o.Xo=--=;:=XX*",
"O..+>%,<123o.+",
"XXO;42522,&..6",
".Oo789=-0;*OX+",
".O.-q9=9w#.eO6",
".O.-w>ww8eeO.6",
"OOe=2w1wrOOee+",
"O$O.+88rtOeeO6",
"e*$$O+$#eO*O*+",
"*666++66+66+6&"};
