/* XPM */
static char * image_name[] = {
"14 14 32 1",
" 	c #CFCFC7C7CFCF",
".	c #AEAEA6A6AEAE",
"X	c #8E8E8A8A8E8E",
"o	c #696969697171",
"O	c #717175757171",
"+	c #8E8E86867979",
"@	c #5151A2A24949",
"#	c #868679798686",
"$	c #A6A69E9EA6A6",
"%	c #B6B6AEAEB6B6",
"&	c #FFFFFFFFC7C7",
"*	c #FFFFFFFFD7D7",
"=	c #616161616161",
"-	c #96969696AEAE",
";	c #E7E7D7D79E9E",
":	c #595951512828",
">	c #797986869E9E",
",	c #FFFFE7E7BEBE",
"<	c #AEAEA6A67171",
"1	c #9A9A98989A9A",
"2	c #AEAE61616161",
"3	c #717179798686",
"4	c #F7F7B2B2AEAE",
"5	c #FFFFEBEBAEAE",
"6	c #28282C2C3030",
"7	c #DFDFBABA8E8E",
"8	c #010101010101",
"9	c #515155554949",
"0	c #000000001111",
"q	c #DFDFAEAE6969",
"w	c #BEBEC3C3BEBE",
"e	c #303034343030",
"             .",
".............X",
"...XoO+@#....X",
".$%@&***=-.$.+",
".$%#*&;*=:.$.>",
".$$o,;<1@2$$.@",
"$$$3456;21.$$#",
"$1$o7;8*9@1$$3",
"$X$=5;0*+X1-$O",
"$X1=qwe.92X>$O",
"$1X=,Oe:@.X1X3",
"XX121@2@2=111O",
"1XX>OO3X33XX13",
"#3OOOO33O3O33="};
