/* XPM */
static char * image_name[] = {
"14 14 22 1",
" 	c #B6B6AEAEB6B6",
".	c #BEBEC3C3CFCF",
"X	c #717175757171",
"o	c #868679798686",
"O	c #696969697171",
"+	c #717179798686",
"@	c #AEAE61616161",
"#	c #303034343030",
"$	c #616161616161",
"%	c #28282C2C3030",
"&	c #494949495151",
"*	c #414138384141",
"=	c #000000001414",
"-	c #202020202020",
";	c #AEAEB2B2CFCF",
":	c #202028285151",
">	c #C7C7BABAC7C7",
",	c #FFFFFAFAFFFF",
"<	c #D7D7DFDFE7E7",
"1	c #E7E7E7E7EFEF",
"2	c #181820202020",
"3	c #010101010101",
"  .   .   .  X",
"oOO+@O+OO+@O+#",
"O$o$+$$$o$+$o%",
"oO&+$$ o&+$$O*",
"O$oo=-o;o$$$O-",
"O:;o>;;,,>$$$=",
"$*<< ;1;,,o:$*",
"$:<>;1,;  o=$=",
"$*<;.; >;;o=$=",
"::o.;>;, >$=$=",
"$*:o;..+$o::*=",
"%**:&;+::2*:2=",
"*-*:*::2:*:*%=",
"=============3"};
