/* XPM */
static char * image_name[] = {
"14 14 29 1",
" 	c #FFFFFAFAFFFF",
".	c #C7C7BABAC7C7",
"X	c #CFCFC7C7CFCF",
"o	c #868679798686",
"O	c #BEBEC3C3CFCF",
"+	c #B6B6AEAEB6B6",
"@	c #BEBEB6B6BEBE",
"#	c #969696969696",
"$	c #96969696AEAE",
"%	c #10102C2CF7F7",
"&	c #FFFF0C0C4949",
"*	c #202028285151",
"=	c #FFFF14144141",
"-	c #B6B645455959",
";	c #494949495151",
":	c #F7F700000808",
">	c #717179798686",
",	c #69698686BEBE",
"<	c #AEAEB2B2CFCF",
"1	c #A6A679798E8E",
"2	c #616161616161",
"3	c #969614140808",
"4	c #8E8E8A8A8E8E",
"5	c #000000001818",
"6	c #AEAE55552828",
"7	c #696969697171",
"8	c #AEAE61616161",
"9	c #BEBE20202020",
"0	c #303034343030",
"             .",
"XXXXXXXXXXXXXo",
"X.X.O.+..@X.X#",
"..+O$%&*=.O..o",
"X.OO%-;%:@+..>",
"O.++%=-%:+...>",
"++++,=*%-++<+>",
"+.1.+-*:%<1++2",
".1$1<3%*#$$$+>",
"+$$4<o5*.##1+2",
"+#$#4$3644$#$7",
"#4#4$893##4#42",
"####4#4######>",
">>272>2>272>20"};
