/* XPM */
static char * image_name[] = {
"14 14 29 1",
" 	c #CFCFC7C7CFCF",
".	c #D7D7D3D3D7D7",
"X	c #BEBEB6B6BEBE",
"o	c #ADADACACADAD",
"O	c #8E8E8A8A8E8E",
"+	c #9A9A98989A9A",
"@	c #8E8E86867979",
"#	c #B6B6AEAEB6B6",
"$	c #797986869E9E",
"%	c #FFFFFFFFC7C7",
"&	c #FFFFFFFFD7D7",
"*	c #E7E7D7D79E9E",
"=	c #616161616161",
"-	c #BEBEC3C3BEBE",
";	c #FFFFEBEBAEAE",
":	c #303034343030",
">	c #000000001111",
",	c #000005050505",
"<	c #AEAEAEAEB6B6",
"1	c #5151A2A24949",
"2	c #AEAEA6A67171",
"3	c #494949495151",
"4	c #96969696AEAE",
"5	c #414138384141",
"6	c #202020202020",
"7	c #717175757171",
"8	c #515155554949",
"9	c #717179798686",
"0	c #A6A69E9EA6A6",
" . . . . . . X",
"XoXoXoXoXoXoXO",
"XXX+@O@@OXXXo+",
"#oo$%%&%@+ooX+",
"XoXO%&**@=-oo+",
"#ooO;:>,@@oX<O",
"oooO=*,=@1#oo+",
"ooo+=&12o3oooO",
"o+4O:,o5,=o+o$",
"o+oO@,&@6o4+oO",
"o+41&778*o+++O",
"4++9@o@oo1+o+O",
"+++++O@OOO0++$",
"+@$O+1$$OOO$O7"};
