/* XPM */
static char * image_name[] = {
"14 14 21 1",
" 	c #FFFFFAFAFFFF",
".	c #D7D7D3D3D7D7",
"X	c #A6A69E9EA6A6",
"o	c #CFCFC7C7CFCF",
"O	c #AEAEAAAAAEAE",
"+	c #303034343030",
"@	c #9E9E9A9A9E9E",
"#	c #696969697171",
"$	c #28285D5D4949",
"%	c #AEAE61616161",
"&	c #8E8E8A8A8E8E",
"*	c #96969696AEAE",
"=	c #717179798686",
"-	c #C7C7BABAC7C7",
";	c #010101010101",
":	c #797986869E9E",
">	c #BEBEB6B6BEBE",
",	c #B6B6AEAEB6B6",
"<	c #868679798686",
"1	c #28282C2C3030",
"2	c #AEAEAEAEB6B6",
"             .",
".............X",
".ooooooooooo.O",
".o...o....o..X",
"oooo++@++Xooo@",
"..oO#$%#$&o.o*",
"oo.O@=+X=%o.o*",
"--oO*=;#=:o-o&",
"o>-,++;++<-,>&",
"o,Oo#;+;1o>2o&",
"oOOO@+$+#>OO2&",
">XOOO>>oOOOO2&",
"O*OOOOOOOOOOO:",
"*&&&&&&&&&&&&#"};
