/* XPM */
static char * image_name[] = {
"56 46 22 1",
" 	c #FFFFFFFFFFFF",
".	c #BEBEBABABEBE",
"X	c #070705050808",
"o	c #AEAEA6A6AEAE",
"O	c #B6B6AEAEB6B6",
"+	c #9E9E9A9A9E9E",
"@	c #69698686BEBE",
"#	c #DFDFBABA8E8E",
"$	c #717179798686",
"%	c #000000001414",
"&	c #F7F7B2B2AEAE",
"*	c #AEAEAEAEB6B6",
"=	c #BEBEC3C3BEBE",
"-	c #79799292B6B6",
";	c #CFCFC7C7CFCF",
":	c #E7E7D7D79E9E",
">	c #797986869E9E",
",	c #A6A69E9EA6A6",
"<	c #C7C7BABAC7C7",
"1	c #AEAEB2B2CFCF",
"2	c #868679798686",
"3	c #96969696AEAE",
"                                                       .",
" ......................................................X",
" ......................................................X",
" .......                                       o.......X",
" o...O.. XXXoXXXXoXXXoXXXXoXXXXooXoXXXoXXXXoXXX+.O...o.X",
" ....... XXXXoXXXXoXXXoXXoXoo@XXXoXXXoXXXXoXXX+X.......X",
" o.O.o.o ooXXXoXXXoXXXoXXXo #$%XXoXXXoXXXoXXX+XX.o.o.o.X",
" .....o. X&&XX&XXXoXXX#X.&$o*@XoXoXXX#XXX&XX+XXX......oX",
" o.o.o.o XX&oXXoXX#oXXoXo&&=$@OXX#XXooXXoXXoXXXX.o.O.o.X",
" ...o... XXXX#XXoXXoXXXXO-&$@$XXXXXXoXXoXX#XX@@Xo...o..X",
" o.o.o.o @@+XXoXoXXoXXXXX$&;.@%XXXXXoXX#XoXXXXXX.o.o.o.X",
" .O...o. XXXX%&XXoXooXXXX%.oXXXooXXOoXo%X&XXXXXXo.o...oX",
" o.o.O.o XXXXXX#X#o#XXXXXXXooXX#o&X&#ooX#%X++++X.o.o.o.X",
" .o.o.o. ++@+XX%o&&%Xooo&&&   &&&&o&O#X%XXXXXXXXo.o.o.oX",
" o.o.o.o XXXXXXXoXXX%XXXo&&&&&&.XXXXXX&XXXXXXXXX.o.o.o.X",
" oo.ooo. +++X+XXX%XXXXXXXX#o.oXXXXXXXXX.XXo++++Xooo.oooX",
" o.o.o.o XXXXXXXX#o&#ooXXXXo#XXXXo&&oXXX&XXXXXXX.o.o.o.X",
" ooooooo XXXX@&Xoo&&#o##%#Xo&XXXo#&&#ooXooXX+++XoooooooX",
" o.o.o.o oooXoXo##XXXXX%o=X&oXXXX%XXXo.XX&XXXXXX.o.o.o.X",
" ooooooo @$XX&XoXXXoXX&XXXX&#X%#%X&#XXXXXoXXXXXXoooooooX",
" ooo.ooo @%XXoX&oo#*XXXXXoX&oXXXXXX%XooXXoXXoooX.ooo.ooX",
" ooooooo XXXX#o&:o&ooXXooX=&oXXooXXo&#&&o#oXXXXXoooooooX",
" ooooooo oo@XoX&O#o#XoXX#oo&#XXoXOXo:&Oo>.oXXXXXoooooooX",
" ooooooo XXXX#Xoo#o&ooOo#o# o&oXXX#&&&.>o&Xoo#oXoooooooX",
" +ooo+oo XXXXXo#$*o&oooO%&% &&X&o&&&&&&$.oXXXXXXo+ooo+oX",
" ooooooo oXoXXXXOo#o&#oooooXXo:&&&&&&oO%XXX%XXXXoooooooX",
" oo+o+o+ oo#oo#X$.o#&&ooXXXXXXX&&=&:&ooXo#o,,++Xooo+o+oX",
" ooooooo XXXXX%XXoo#o&.oXo#oX&&&:&o&o*$%$%$%$X@XoooooooX",
" +o+o+o+ XX%XXXXX$<oOooXo#XXXoX&&o&.++@%%X%X%XXXo+o+o+oX",
" ooooooo oo#*#.$X%o#o#o#X%X%XXX&&oo+1$Xoooooo++XoooooooX",
" +o+o+o+ XXXXXX%XX$.ooXXX%XXXXXXXXoo+$%-XXXXXXXXo+o+o+oX",
" o+ooo+o @X@%$X@XX%o#XoXoo#XX&&&#oo+@%%XX%$%$X@Xoo+ooo+X",
" +o+o+o+ XXXX%XXXXXXo#o#X#%XX#o#*ooo@XXooX%X%XXXo+o+o+oX",
" o+o+o+o o#ooooooXX%Xo#ooXXXXXooOoo@XX@X$#o#oooX+o+o+o+X",
" +o+o+o+ XXXXXXXXXXXXXo&&&oXXXXooO$%XXX%%%XXXXXXo+o+o+oX",
" ++o+++o $%$%2%$X@XXX#X:&:oXXXX=$@@XX@X@X@%$%$X@+++o+++X",
" +o+o+o+ %%%X%%%XXXXX*oXo#%XXXoXOX%oXXXXoXX%X%XXo+o+o+oX",
" +++++++ ooOoO@@@@XXXXooXXXXXXXoXoXoXXXXXXXXXXXX+++++++X",
" +o+o+o+ XXXXXXXXXXXXXo#Xo@@@-$-oXoX#XXXXXXXXXXXo+o+o+oX",
" +++++++ =oo#oooooooXXXo%$o#o &<$XXXXX&oXXoooooo+++++++X",
" +++o+++ XXXXXXXXXXXX$%oX@%$%o@@@%XXoXo#XXXXXXXXo+++o++X",
" +++++++ XXXXXXXXXXX%@$#XO@@@@@2oXXX&Xo*XXXXXXXX+++++++X",
" +o+++++ ooo#ooo#oooOO%.X$.#O &<$%XXoX&.XXo&o&o&o+o++++X",
" ++++++++oo++++o+ooo++o+,*+++o++*,+oooo++o+oooo++++++++X",
" ++++++++++++++++++++++++3+++++++++++++++++++++++++++++X",
".XXXXXXXXXXXXXXXXXXXXXXXXXXXXXXXXXXXXXXXXXXXXXXXXXXXXXXX"};
