/* XPM */
static char * image_name[] = {
"56 46 36 1",
" 	c #FFFFFFFFFFFF",
".	c #BEBEBABABEBE",
"X	c #BEBEC3C3BEBE",
"o	c #000000001111",
"O	c #AEAEAAAAAEAE",
"+	c #9E9E9A9A9E9E",
"@	c #BEBE20202020",
"#	c #FFFFFFFF0000",
"$	c #FFFFAEAE0000",
"%	c #717179798686",
"&	c #797986869E9E",
"*	c #AEAEAEAEB6B6",
"=	c #C7C7BABAC7C7",
"-	c #96969696AEAE",
";	c #BEBEC3C3CFCF",
":	c #79799292B6B6",
">	c #010101010101",
",	c #AEAE55552828",
"<	c #8E8E8A8A8E8E",
"1	c #FFFF14144141",
"2	c #CFCFC7C7CFCF",
"3	c #CFCF55552828",
"4	c #AEAE61616161",
"5	c #FFFF0C0C4949",
"6	c #FFFF8E8E0808",
"7	c #B6B645455959",
"8	c #DFDFAEAE6969",
"9	c #EFEF28285151",
"0	c #B6B6AEAEB6B6",
"q	c #5959A2A2D7D7",
"w	c #51515555FFFF",
"e	c #0000FFFFFFFF",
"r	c #969614140808",
"t	c #2828FFFF2020",
"y	c #5151A2A24949",
"u	c #A6A69E9EA6A6",
"                                                       .",
" .X.X.X.X.X.X.X.X.X.X.X.X.X.X.X.X.X.X.X.X.X.X.X.X.X.X.Xo",
" X..X..X..X..X..X..X..X..X..X..X..X..X..X..X..X..X..X..o",
" ..X..X..X..X..X..X..X..X..X..X..X..X..X..X..X..X..X..Xo",
" OX.XO.X.O.X.+X.XO.X.O.X.+X.XO.X.O.X.+X.XO.X.O.X.OX.XO.o",
" X...X..X.X..X...X..X.X..X...X..X.X..X...X..X.X..X...X.o",
" O.+XO.+.O.OXO.OX+.O.+.OXO.OX+.O.+.OXO.OX+.O.+.OX+.OXO.o",
" X.X..OX.X.X..OX...X.XOX...X..OX.X.X..OX...X.XOX...X..Oo",
" O.O.OXO.O.+.O.O.OXO.O.O.OXO.O.O.O.O.O.O.OXO.O.O.OXO.OXo",
" .X.OX..OX.XOX.XO@@@@@@@@X..OX.XOX.XO##$OX..O.X.OX..O..o",
" O.OXO.O.O.O.O.@@@@@@@@@@@@X.O.O.O.###$O.O.OXO.OXO.+XOXo",
" .OX..O.OXO.X@@@@@@@@@@@@@@@X.OXO.O##$$.OXOX..O.O.OX..Oo",
" OXO.+XO.O.O@@@@@@@@@@@@@@@@%..O.O##$$.O.O.+XOXO.O.O.O.o",
" .O.O.O.OXO.@@@@@@@@@@@@@@@@&.O.*%#$$.OXOXO.O.O.OXO.OXOo",
" O.OXO.O.O.O@@@@@@@@@@@@@@@&&=XO..%$.OXO.O.O.O.+.O.OXO.o",
" OO.OOOXOOOX@@@@@@@@@@@@&&&&XO.X=&&.OOO.OOOXOOOXOOO.OOOo",
" OXO.O.O.O.+@@@@@@@@@@&&&-%=.*..+&;O.O.OXO.O.O.O.OXO.O.o",
" OOOOOOOOOOO@@@@@@@@@:%-%&.*;%X&&OOOOOOOOOOOOOOOOOOOOOOo",
" O.O.O.OXO.O@@@@@@@@@&&&;=.*&o+%;O.O.O.O.O.O.OXO.O.O.O.o",
" OOOOOOOOOOO@@@@@@@@@-%%..O&>>oO@@@@@XOOOOOOOOOOOOOOOOOo",
" OOO.OOO.OOO@@@@@@@@@@:%;.+o>>@@@@@@@@@.XOOO.OOO.OOO.OOo",
" OOOOOOOOOOO@@@@@@@@@@@@@&>>>@@@@@@@@@@@.OOOOOOOOOOOOOOo",
" OOOOOOOOOOO@@@@@@@@@@@@&o>>@@@##$@##$$@@.OOOOOOOOOOOOOo",
" OOOOOOOOOOO@@@@@@@@@@@&>>>@@##$@@####$@@%.OOOOOOOOOOOOo",
" +OOO+OOO+OO@@@@@&&&@@&o>>@@#$$@@@##$$$@@@.OO+OOO+OOO+Oo",
" OOOOOOOOOOO@@@&&&&.O&>>>@@&&,@@@@@@@@@@@@&.OOOOOOOOOOOo",
" OO+O+O+OOO+@@&&<;.+&o>>@@..&@@@@@@@@111@@&=X+O+OOO+O+Oo",
" OOOOOOOOOOO@%:%.O.&>>>@@.2&@@@@@@34331@@@&.OOOOOOOOOOOo",
" +O+O+O+O+O+@-%;.+&o>>@>..+@@@@@@@133435@@&XO+O+O+O+O+Oo",
" OOOOOOOOOO*@%&..&>>>@>&o&@@@@@@@@367831@@&.OOOOOOOOOOOo",
" +O+O+O+O+O+@:&=&o>>>>&>>@@@@@@@@@13931@@@&=X+O+O+O+O+Oo",
" O+OOO+OOO+0@%&&>>>>>&>@@@@@@@@@7q@@@1@@@&&XOO+OOO+OOO+o",
" +O+O+O+O+O+@@->>>>&&>@@@@@@@@wewew@@@@@@&&..+O+O+O+O+Oo",
" O+O+O+O+O+O@&>>>>&>>@@@@@@@@@rewww@@@@@:&.X+O+O+O+O+O+o",
" +O+O+O+O+O+&o>>>&>@@@@@@@@@@@wweww@@@@&<.;OO+O+O+O+O+Oo",
" ++O+++O+++O>>>>&>@@@@@@ttt@@@erwww@@@&&-..O+++O+++O+++o",
" +O+O+O+O+O+>>>&>@@@@@ttttyt@@@@@@@@@&-%2..+O+O+O+O+O+Oo",
" +++++++++++>&&>@@@@@@9tttty@@@@@@@@&&&..O+++++++++++++o",
" +O+O+O+O+O+&>>@@@@@@@@@9@@@@@@@@@@&&&=X.+O+O+O+O+O+O+Oo",
" ++++++++++++++++++++++++u-u-+-+-+-+-++*+++++++++++++++o",
" +++O+++O+++O+++O+++O+++O+++O+++O+++*+++O+++O+++O+++O++o",
" ++++++++++++++++++++++++++++++++++++++++++++++++++++++o",
" +O+++++++O+++++++O+++++++O+++++++*+++++++O+++++++O++++o",
" ++++++++++++++++++++++++++++++++++++++++++++++++++++++o",
" ++++++++++++++++++++++++++++++++++++++++++++++++++++++o",
".ooooooooooooooooooooooooooooooooooooooooooooooooooooooo"};
