/* XPM */
static char * image_name[] = {
"56 46 9 1",
" 	c #FFFFFFFFFFFF",
".	c #BEBEBABABEBE",
"X	c #000000001111",
"o	c #AEAEAAAAAEAE",
"O	c #C7C7BABAC7C7",
"+	c #010101010101",
"@	c #51515555FFFF",
"#	c #9E9E9A9A9E9E",
"$	c #797986869E9E",
"                                                       .",
" ......................................................X",
" ......................................................X",
" ......................................................X",
" o...o...o...o...o...o...o...o...o...o...o...o...o...o.X",
" .....O....O...O..O....O...O..O....O...O..O...O..O..O..X",
" o.o.o.o.o.o.o.o.o.o.o.o.o.o.o.o.o.o.o.o.o.o.o.o.o.o.o.X",
" .....o.......o.......o.......o.......o.......o.......oX",
" o.o.o.o.o.o.o.o.o.o.o.o.o.o.o.o.o.o.o.o.o.o.o.o.o.o.o.X",
" ...o...o...o...o...o...o...o...o...o++++++.o...o...o..X",
" o.o.o.o.o.o.o.o.o.o.o.o.o.o.o.o.o.o.+@++@+o.o.o.o.o.o.X",
" .o...o.o.o...o.o.o...o.o.o...o.o.o..+@+@@+...o.o.o...oX",
" o.o.o.o.#.o.+++++++++++++++++++++++++@+@@+o.o.o.o.o.o.X",
" .o.o.o.o.o.o+@@@@@@@@@@@@@@@@@@@@@@@@@@@@+.o.o.o.o.o.oX",
" o.o.o.o.o.o.+@+++@@+@@@@+++++++++@@++++@@+o.o.o.#.o.o.X",
" oo.ooo.ooo.o+@+++@+@+@@@@@@@@@@@@@@@@@@@@+.ooo.ooo.oooX",
" o.o.o.o.o.o.+@@+@@@+@@@@+++@@++++++@@@@@@+o.o.o.o.o.o.X",
" oooooooooooo+@@@@@@@@@@@@@@@@@@@@@@@@@@@@+ooooooooooooX",
" o.o.o.o.o.o.+@++++@++@@@+++@++++@++++@++@+o.o.o.o.o.o.X",
" oooooooooooo+@@+@+@+@@@@@@@@@@@@@@@@@@@@@+ooooooooooooX",
" ooo.ooo.ooo.+@@+@+@@+@@@++@++@++++@++@@@@+o.ooo.ooo.ooX",
" oooooooooooo+@@@@@@@@@@@@@@@@@@@@@@@@@@@@+ooooooooooooX",
" oooooooooooo+@@@@+++@@@@@@@@@@@@@@@+++@@@+ooooooooooooX",
" oooooooooooo+@@@@@+@@@@@@@@@@@@@@@@@+@@@@+ooooooooooooX",
" #ooo#ooo#ooo++++++++++++++++++++++++++++++oo#ooo#ooo#oX",
" oooooooooooooooooo+ooooooooooooooooo+oooooooooooooooooX",
" oo#o#o#ooo#o++++++++++++++++++++++++++++++#o#o#ooo#o#oX",
" oooooooooooo+@@@@@+@@@@@@@@@@@@@@@@@+@@@@+ooooooooooooX",
" #o#o#o#o#o#o+@@@@+++@@@@@@@@@@@@@@@+++@@@+#o#o#o#o#o#oX",
" oooooooooooo+@@@@@@@@@@@@@@@@@@@@@@@@@@@@+ooooooooooooX",
" #o#o#o#o#o#o+@@@@@@@@@@@@@@@@@@@@@@@@@@@@+#o#o#o#o#o#oX",
" o#ooo#ooo#oo+++++++++++++++++++++++++@@@@+ooo#ooo#ooo#X",
" #o#o#o#o#o#o+.......................+@@@@+#o#o#o#o#o#oX",
" o#o#o#o#o#o#++X+X+X+X+X+X+X+X+X+X+X++@@@@+o#o#o#o#o#o#X",
" #o#o#o#o#o#o+$$$#$$$#$$$#$$$#$$$#$$$+@@@@+#o#o#o#o#o#oX",
" ##o###o###o#+++++++++++++++++++++++++@@@@+o###o###o###X",
" #o#o#o#o#o#o#o#o#o#o#o#o#o#o#o#o#o#o++++++#o#o#o#o#o#oX",
" ######################################################X",
" #o#o#o#o#o#o#o#o#o#o#o#o#o#o#o#o#o#o#o#o#o#o#o#o#o#o#oX",
" ######################################################X",
" ###o###o###o###o###o###o###o###o###o###o###o###o###o##X",
" ######################################################X",
" #o#######o#######o#######o#######o#######o#######o####X",
" ######################################################X",
" ######################################################X",
".XXXXXXXXXXXXXXXXXXXXXXXXXXXXXXXXXXXXXXXXXXXXXXXXXXXXXXX"};
