/* XPM */
static char * image_name[] = {
"56 46 28 1",
" 	c #FFFFFFFFFFFF",
".	c #D7D7D3D3D7D7",
"X	c #010101010101",
"o	c #E7E7E7E7EFEF",
"O	c #616161616161",
"+	c #AEAEAAAAAEAE",
"@	c #9E9E9A9A9E9E",
"#	c #BEBEB6B6BEBE",
"$	c #494949495151",
"%	c #A6A69E9EA6A6",
"&	c #AEAEAEAEB6B6",
"*	c #B6B6AEAEB6B6",
"=	c #696969697171",
"-	c #717175757171",
";	c #8E8E8A8A8E8E",
":	c #AEAE61616161",
">	c #717179798686",
",	c #797986869E9E",
"<	c #D7D7DFDFE7E7",
"1	c #CFCFC7C7CFCF",
"2	c #28282C2C3030",
"3	c #515155554949",
"4	c #181820202020",
"5	c #5151A2A24949",
"6	c #303034343030",
"7	c #202020202020",
"8	c #BEBEC3C3BEBE",
"9	c #8E8E86867979",
"                                                      .X",
"  ...................................................oOX",
" o++++@+++@+++@+++@+++@+++@+++@+++@+++@+++@+++@+++@+@#$X",
"  %&++&+++&++&++&+++&++&++&+++&+++&++&++&+++&+++&++++*=X",
"  %++++++++++++++++++++++++++++++++++++++++++++++++&+*OX",
"  %++++++++++++++++++++++++++++++++++++++++++++++++++#=X",
"  %++++++++++++++++++++++++++++++++++++++++++++++++++*=X",
"  %+++++++++++++++++++++++++++++++++++++++++++++++++**-X",
"  @++++++++++++++++++++++++++++++++++++++++++++++++++*OX",
"  ++++++++*************************************++++++*=X",
"  %+++++*;=:>=:>=:>=:>=:>=:>=:>=:>=:>=:>=:>=:>,+++++*#OX",
" o+++++++;=O-=O-=O-=O-=O-=O-=O-=O-=O-=O-=O-=O=;++++++*=X",
"  +++++++o                                    o+++++*#OX",
"  +++++&+o                                    o++++++*=X",
"  %++++++<                                    o++++++*-X",
"  +++++++o                                    o+++++#*=X",
"  %+++++%o                                    o++++++*OX",
"  +++++++o                                    o%+++++*=X",
"  +++++++o                                    o++++*+*-X",
"  %+++++@o                                    o++++++*=X",
"  +++++++o                                XX  o&+++++#OX",
"  +++++++o                                XX  o%+++++*=X",
"  @++++++o                                XX  o++++++*=X",
"  %++++++o                             XX XX  o%++++**-X",
"  ++++++%o                             XX XX+ o++++++*-X",
"  %++++++o                             XX X1X o++++++#=X",
"  +++++++o                     <o    o XX X X2o++++++*OX",
" o++++++@o                    .X2    2XXX X oX +++++**=X",
"  %++++++o                    oX3    3XXX X .X %+++++*-X",
"  %+++++&o   XX  o            .XX4+  2* X X .X ++++++#=X",
"  +++++++21 X3X .XXXo .XX@XX&XX2 o,+*X1 X X .X*++++++*-X",
"  ++++++*-o X X 24 23 $3+XXXX@X4 5X@XX1 X3X o3X*+++++*=X",
"  @++++++*-4X XX3o o33X* +3XX 2+ @= .3< oo<  <3*+++*+#OX",
"  %++++++1.1...o.1111...1..<<...11.1.1.*1.11.11++++++*=X",
"  +++++++O2222222262222222222272222222262222223++++++*-X",
"  %+++*++&#+#++#++#&8+#+*+***+8+*#+#+#+#++#+***#++++*#=X",
"  ++++++++*+++#++++*+++++++++++*++++++*++++++++++++++*-X",
" o+++++++++++++++++++++++++++++++++++++++++++++++++++*=X",
"  %+++++++++++++++++++++++++++++++*+++++++++++++++#++*OX",
"  %++++*++++++++++++++#+++++++++++++++++++++++++++++#*=X",
"  +++++++++*++++*++++++++++++#+++++++++++#+++++++++*+*-X",
"  +++++++++++++++++++++++*+++++++++++#+++++++++++++++*=X",
"  %++++++++++++++++*++++++++++++++++++++++++++*++++++*-X",
"  +**************#*#****#*#*****#**#*******#**#*#***#*=X",
"  =;;,;;;,;;;,;;,9,;;;,;;,9;;;;;,9;;;;;;;;;;;,9,;;,;;;=X",
"o2XXXXXXXXXXXXXXXXXXXXXXXXXXXXXXXXXXXXXXXXXXXXXXXXXXXXXX"};
