/* XPM */
static char * image_name[] = {
"56 46 18 1",
" 	c #FFFFFFFFFFFF",
".	c #BEBEBABABEBE",
"X	c #BEBEC3C3BEBE",
"o	c #000000001111",
"O	c #AEAEAAAAAEAE",
"+	c #9E9E9A9A9E9E",
"@	c #CFCFC7C7CFCF",
"#	c #C7C7BABAC7C7",
"$	c #010101010101",
"%	c #BEBEC3C3CFCF",
"&	c #D7D7D3D3D7D7",
"*	c #D7D7DFDFE7E7",
"=	c #AEAEB2B2CFCF",
"-	c #FFFF14144141",
";	c #79799292B6B6",
":	c #EFEF28285151",
">	c #69698686BEBE",
",	c #FFFFFFFF0000",
"                                                       .",
" .X.X.X.X.X.X.X.X.X.X.X.X.X.X.X.X.X.X.X.X.X.X.X.X.X.X.Xo",
" X.X.X.X.X.X.X.X.X.X.X.X.X.X.X.X.X.X.X.X.X.X.X.X.X.X.X.o",
" X..X...X...X...X...X...X...X...X...X...X...X...X...X..o",
" O.X.+X..+X..+X..+X..+X..+X..+X..+X..+X..+X..+X..+X..OXo",
" .X.X.X.X.X.X.X.X.X.X.X.X.X.X.X.X.X.X.X.X.X.X.X.X.X.X..o",
" O.+.O.O.O.O.O.O.O.O.O.O.O.O.O.O.O.O.O.O.O.O.O.O.O.O.+Xo",
" .X.X.O.X.X.X.O.X.X.X.O.X.X.X.O.X.X.X.O.X.X.X.O.X.X.X.Oo",
" O.O.O.O.O.O.O.O.O.+.O.O.O.O.O.O.O.+.O.O.O.O.O.O.O.O.O.o",
" X.XO.@.+.X.OO@.OX.XOX#X+.X.OO@.OX.XO.@.+X.X+.X#OOX.O.Xo",
" O.O.O.OXO.O.O.OXO.O.$$$$$$O.O.OXO.O.O.OXO.OXO.OXO.O#O.o",
" .O.X.O.O.OX.XOXO.O$$X.X.X.$$XOXO.O.XXOXO.OX..O.O.OX.XOo",
" O.O.OXO.O.O.O$O.O$.X.o$o$.X.$.O.O.O.O.O.O.O.O.O.O.O.O.o",
" .OX+.O.O.O.O.O$O$X.o$%%&%$o.X$.O.+.O.O.O.OXO#O.O.O.O.Oo",
" O.O.O.O.O#OXO.O$..o%*%o$%$Xo.X$.O.O.O.OXO.O.OXO.O#+XO.o",
" OO.OOO.OO+.OOO.$X$*%%*%$$$$$o.$OOO#OO+.OOO.OO+.OOOXOOOo",
" O.O#O.O.O.O.O.$..o$%*=o$---;$X.$O$OXO.O.O.O.O.OXOXO.O.o",
" OOOOOOOOOOOOOOoX$%$$o$---;---oX$$OOOOOOOOOOOOOOOOOOOOOo",
" O.O.O.O#O.O.O.$.o%*$$$;-;;;-;$.o-$$.O.O#O.O#O.O.O.O.O.o",
" OOOOOOOOOOOOOO$X$%$$$$;;-;-;;$X$-;;$OOOOOOOOOOOOOOOOOOo",
" OOO.OOO.OOO.OO$.$%*$$$;:----;$%$;$$XOOO.OOO.OOO.OOO.OOo",
" OOOOOOOOOOOOOO$%o%$$$$---;---$X$$OOOOOOOOOOOOOOOOOOOOOo",
" OOOOOOOOOOOOOO$XX$$%&%$$;;>-$X.$X$OOOOOOOOOOOOOOOOOOOOo",
" OOOOOOOOOOOOOOX$X$*%%*%$$$$$$.$OOOOOOOOOOOOOOOOOOOOOOOo",
" +OOO+OOO+OOO+OO$X%o%*%o$%$X$%X$X+OOO+OOO+OOO+OOO+OOO+Oo",
" OOOOOOOOOOOOOO$.$X%$o%%*%$$XX$$OOOOOOOOOOOOOOOOOOOOOOOo",
" OO+O+O+OOO+O+$+O.$XX&o$$$X%X$X.$OO+O+O+OOO+O+O+OOO+O+Oo",
" OOOOOOOOOOOOOOOOO.$$XXX%%X$$$%X.$OOOOOOOOOOOOOOOOOOOOOo",
" +O+O+O+O+O+O+O+O+OO.$$$$$$OXO$X.X$+O+O+O+O+O+O+O+O+O+Oo",
" OOOOOOOOOOOOOOOOOOOOO.XO.OOOOX$%..$OOOOOOOOOOOOOOOOOOOo",
" +O+O+O+O+O+O+O+O+O+O+O+O+O+O+O+$XX.$+O+O+O+O+O+O+O+O+Oo",
" O+OOO+OOO+OOO+OOO+OOO+OOO+OOO+OX$%.,$+OOO+OOO+OOO+OOO+o",
" +O+O+O+O+O+O+O+O+O+O+O+O+O+O+O+O+$,,,$+O+O+O+O+O+O+O+Oo",
" O+O+O+O+O+O+O+O+O+O+O+O+O+O+O+O+O+$,,,$+O+O+O+O+O+O+O+o",
" +O+O+O+O+O+O+O+O+O+O+O+O+O+O+O+O+O+$,.X$+O+O+O+O+O+O+Oo",
" ++O+++O+++O+++O+++O+++O+++O+++O+++O+$X.$++O+++O+++O+++o",
" +O+O+O+O+O+O+O+O+O+O+O+O+O+O+O+O+O+O+$oO+O+O+O+O+O+O+Oo",
" ++++++++++++++++++++++++++++++++++++++++++++++++++++++o",
" +O+O+O+O+O+O+O+O+O+O+O+O+O+O+O+O+O+O+O+O+O+O+O+O+O+O+Oo",
" ++++++++++++++++++++++++++++++++++++++++++++++++++++++o",
" +++O+++O+++O+++O+++O+++O+++O+++O+++O+++O+++O+++O+++O++o",
" ++++++++++++++++++++++++++++++++++++++++++++++++++++++o",
" +O+++++++O+++++++O+++++++O+++++++O+++++++O+++++++O++++o",
" ++++++++++++++++++++++++++++++++++++++++++++++++++++++o",
" ++++++++++++++++++++++++++++++++++++++++++++++++++++++o",
"Xooooooooooooooo$oo$o$o$o$o$o$o$oooooooooooooooooooooooo"};
