/* XPM */
static char * image_name[] = {
"48 48 25 1",
" 	c None",
".	c #30C245144103",
"X	c #30C234D330C2",
"o	c #000000000000",
"O	c #208110402081",
"+	c #79E755550820",
"@	c #DF7D9A691040",
"#	c #965869A61040",
"$	c #9E7969A60820",
"%	c #596541030820",
"&	c #FFFFFFFFFFFF",
"*	c #B6DA75D61040",
"=	c #CF3C86171040",
"-	c #A69975D61040",
";	c #E79D9A691040",
":	c #EFBE9A691040",
">	c #38E320810000",
",	c #79E745140820",
"<	c #514455554103",
"1	c #AEBAAAAA9E79",
"2	c #9E79AAAAAEBA",
"3	c #AEBAAAAAAEBA",
"4	c #AEBA9A69AEBA",
"5	c #71C645141040",
"6	c #71C645140000",
"                                                ",
"                     .XXXXX                     ",
"                     ooooooO                    ",
"                    oooooooo                    ",
"                    oooooooo                    ",
"                    o      o                    ",
"                    +oooooo@                    ",
"                    #$@@@@%@                    ",
"                    +@@@$@&@                    ",
"                    +*=@@@&@                    ",
"                    -@*@@*@@                    ",
"                   +@@@@@@@@+                   ",
"                  #@@@=@@@@@@#                  ",
"                #+@=@@@$@*@*@@*#                ",
"               %@@@=**@@@*@@@*;:;               ",
"              %=@$$;;$$$@$&@&;;;;;              ",
"              %=>,,,,,,,,$$$&<,>$;              ",
"             %,,,,,,,,,,,&&;&1,,,,:             ",
"             >,,,,,,,,,,,22,23,,,,>             ",
"             ,,,,,,,,,,,,,,,41,,,,,             ",
"             >,,,,,,,,,,,22,23,,,,>             ",
"             ,,,,,,,,,,,,,,,,,,,,,,             ",
"             &,,,,,,,,,,,,,,,,,,,,&             ",
"             &&&&,,,,,,,,,,,,,,&&&&             ",
"             &&&&&&&&&&&&&&&&&&&&&&             ",
"             &o&&&&&&&&&&&&&&&&&&o&             ",
"             &&ooo&&&&&&&&&&&&ooo&&             ",
"             &&&&&oooooooooooo&&&&&             ",
"             &o&&&&&&&&&&&&&&&&&&o&             ",
"             &o&&o&oo&ooo&oo&ooo&o&             ",
"             &o&&o&o&o&o&&o&&o&o&o&             ",
"             &o&&o&o&&&o&&oo&oo&&o&             ",
"             &&o&o&&o&&o&&o&&o&o&&&             ",
"             &&&&&&&&o&o&&oo&o&&&&&             ",
"             &o&&&&&o&&&&&&&&&&&&o&             ",
"             &oooo&&&&&&&&&&&&oooo&             ",
"             &o333oooooooooooo333o&             ",
"             &ooo3o33333333o33o3oo&             ",
"             &o33333o3oo3o33o3333o&             ",
"             &&oooo33333333333ooo&&             ",
"             5&&&&oooooooooooo&&&&5             ",
"             ,5&&&&&&&&&&&&&&&&&&5,             ",
"             ,,,,&&&&&&&&&&&&&&,,,,             ",
"              ,,,,,,,,,,,,,,,,,,,,              ",
"              >,,,,,,,,,6,,,,,,,,>              ",
"               >>,,,,,,5,,,,,,,>>               ",
"                 >>>>>>>>>>>>>>                 ",
"                                                "};
