/* XPM */
static char *ft_xpm[] = {
/* columns rows colors chars-per-pixel */
"32 32 7 1",
"  c #000000000000",
". c #000000008080",
"X c #00000000c0c0",
"o c #00000000ffff",
"O c #c0c0c0c0ffff",
"+ c #ffffffffffff",
"@ c None",
/* pixels */
"@@@@@@@@@@@@@@@@@@@@@@@@@@@@@@@@",
"@@@@@@@@@@@@@@@@@@@@@@@@@@@@@@@@",
"@@@@@@@@@@@@@@@@@@@@@@@@@@@@@@@@",
"@@@@@@@@@@@@@@@@@@@@@@@@@@@@@@@@",
"@@@@@@@@@@@@@@@@@@@@@@  @@@@@@@@",
"@@@@@@@@@@@@@@@@@@@@@@  @@@@@@@@",
"@@@@@@@@@@@@@@@@@@@@@@  @@@@@@@@",
"@@@@@@@@@@@@@@@@@ @  oOO   @@@@+",
"@@@@@@@@@@@@@@@@@  OOooooooo @@@",
"@@@@@@@@@@@@@@@@ OOooXXXXXXo @@@",
"@@@@@@@@@@@@@@@ OooXXXXXXXXXo @@",
"@@@@@@@@@@@@@@@ OoXXXXXXXXXXX @@",
"@@@@@@@@    @@ OoXXXXXXXXXXXX @@",
"@@@@@@@ OOoo @ OoXXXXXXXXXXXX @@",
"@@+@@@@ OoXXX OoXXXXXXXXXXXX  @@",
"@@ @@  OoXXXXXXXXXXXXXXXXXXX @@@",
"@   @  XXXXXXXXXXXXXXXXXXXXX @@@",
"@@@@@@@ .XXX. XXXXXXXXXXXXXX  @@",
"@@@+@@@      @ XXXXXXXXXXXXX. @@",
"@@@@@@@@    @@ XXXXXXXXXXXXX. @@",
"@@@@@@@@@@@@@@@ XXXXXXXXXXXX  @@",
"@@@@@@@@@@@@@@@ .XXXXXXXXX... @@",
"@@@@@@@@@@@@@@@@ ..XXXX..    @@@",
"@@@@@@@@@@@@@@@@@  ....   .  @@@",
"@@@@@@@@@@@@@@@@@ @        @@@@@",
"@@@@@@@@@@@@@@@@@@@@@@  @@@@@@@@",
"@@@@@@@@@@@@@@@@@@@@@@  @@@@@@@@",
"@@@@@@@@@@@@@@@@@@@+@@  @@@@@@@@",
"@@@@@@@@@@@@@@@@@@@@@@@@@@@@@@@@",
"@@@@@@@@@@@@@@@@@@@@@@@@@@@@@@@@",
"@@@@@@@@@@@@@@@@@@@@@@@@@@@@@@@@",
"@@@@@@@@@@@@@@@@@@@@@@@@@@@@@@@@",
};
