/* XPM */
static char * image_name[] = {
"48 50 245 2",
"  	c None",
". 	c #000000000000",
"X 	c #8617BEFBBEFB",
"o 	c #AEBAA28928A2",
"O 	c #49243CF34924",
"+ 	c #A699A699A699",
"@ 	c #28A255556185",
"# 	c #1040145128A2",
"$ 	c #000000000820",
"% 	c #082055555965",
"& 	c #492479E70000",
"* 	c #4924451428A2",
"= 	c #492428A20820",
"- 	c #000000009658",
"; 	c #71C669A61040",
": 	c #104020810000",
"> 	c #71C6186130C2",
", 	c #AEBAAAAA0000",
"< 	c #00000000AEBA",
"1 	c #9658618538E3",
"2 	c #E79DEFBECF3C",
"3 	c #FFFFFFFFFFFF",
"4 	c #FFFFFFFFE79D",
"5 	c #618575D65965",
"6 	c #0000000038E3",
"7 	c #AEBA96584924",
"8 	c #9E7986175965",
"9 	c #D75CC30B8E38",
"0 	c #9E79AAAA79E7",
"q 	c #DF7DAEBA5965",
"w 	c #71C68A288617",
"e 	c #C71B92485144",
"r 	c #E79DDB6CAEBA",
"t 	c #C71BC71B9E79",
"y 	c #FFFFEBADAEBA",
"u 	c #FFFFFFFFCF3C",
"i 	c #B6DAAAAA5144",
"p 	c #28A224920820",
"a 	c #A6998E3830C2",
"s 	c #C71BBAEA8E38",
"d 	c #9658924879E7",
"f 	c #AEBAAAAA8E38",
"g 	c #965879E76185",
"h 	c #C71BAAAA8617",
"j 	c #DF7DD34C8E38",
"k 	c #CF3CB2CA9658",
"l 	c #BEFBB6DA8E38",
"z 	c #AEBA8A2869A6",
"x 	c #CF3CC71BA699",
"c 	c #A6997DF771C6",
"v 	c #B6DAB6DA79E7",
"b 	c #618520816185",
"n 	c #000000008617",
"m 	c #6185555538E3",
"M 	c #E79DE79DAEBA",
"N 	c #8E3869A65144",
"B 	c #CF3CDB6CB6DA",
"V 	c #AEBA75D65144",
"C 	c #D75CDB6CA699",
"Z 	c #D75CBEFBA699",
"A 	c #D75CCB2BA699",
"S 	c #D75CCB2B9658",
"D 	c #D75CCB2B71C6",
"F 	c #410338E328A2",
"G 	c #96589E794924",
"H 	c #8E388A285144",
"J 	c #8E3875D65965",
"K 	c #B6DA965879E7",
"L 	c #C71BC30B8E38",
"P 	c #D75CB2CA79E7",
"I 	c #F7DEFBEEC71B",
"U 	c #BEFBB6DA9E79",
"Y 	c #C71BB6DA9658",
"T 	c #9658924871C6",
"R 	c #186114510820",
"E 	c #208100001861",
"W 	c #1040249238E3",
"Q 	c #A6999A6971C6",
"! 	c #F7DEFBEED75C",
"~ 	c #E79DA6999658",
"^ 	c #D75CBAEA9658",
"/ 	c #208108200820",
"( 	c #41034D346185",
") 	c #71C675D66185",
"_ 	c #A6999A698617",
"` 	c #71C6596571C6",
"' 	c #51441C715144",
"] 	c #BEFBB2CAA699",
"[ 	c #AEBAAAAA9658",
"{ 	c #B6DAAAAA8E38",
"} 	c #30C2451430C2",
"| 	c #30C261859658",
" .	c #AEBA4D345144",
"..	c #69A659655965",
"X.	c #B6DA924869A6",
"o.	c #EFBECB2B9658",
"O.	c #FFFFFFFFBEFB",
"+.	c #C71BAEBA71C6",
"@.	c #9E795D754924",
"#.	c #8E3871C630C2",
"$.	c #79E78E380000",
"%.	c #4924492438E3",
"&.	c #8E3869A64924",
"*.	c #A6998A285965",
"=.	c #A6999A6969A6",
"-.	c #69A669A638E3",
";.	c #CF3CBEFBAEBA",
":.	c #000004101040",
">.	c #492408200000",
",.	c #AEBAAEBA69A6",
"<.	c #86178A2879E7",
"1.	c #71C6514430C2",
"2.	c #0000AAAA0000",
"3.	c #69A659654103",
"4.	c #8E3879E76185",
"5.	c #AEBA8A2879E7",
"6.	c #A6998A289658",
"7.	c #EFBECB2BB6DA",
"8.	c #596500000000",
"9.	c #8E3800008E38",
"0.	c #69A649242081",
"q.	c #965875D65965",
"w.	c #71C659654924",
"e.	c #28A218610820",
"r.	c #861769A62081",
"t.	c #8E3879E771C6",
"y.	c #208134D32081",
"u.	c #69A686174924",
"i.	c #965875D64924",
"p.	c #96588A286185",
"a.	c #38E300000000",
"s.	c #F7DEF3CE8E38",
"d.	c #2081249230C2",
"f.	c #186108200820",
"g.	c #96588E388E38",
"h.	c #104000000000",
"j.	c #71C600000000",
"k.	c #5144410330C2",
"l.	c #9E79AAAA8E38",
"z.	c #965879E779E7",
"x.	c #000014511861",
"c.	c #69A641030000",
"v.	c #30C238E34103",
"b.	c #DF7D96584103",
"n.	c #514438E328A2",
"m.	c #4103000079E7",
"M.	c #596571C671C6",
"N.	c #AEBA75D64924",
"B.	c #410328A21861",
"V.	c #492428A228A2",
"C.	c #28A21C711861",
"Z.	c #104030C21040",
"A.	c #F7DECF3C71C6",
"S.	c #DF7DD75C9658",
"D.	c #2081618571C6",
"F.	c #61852CB21040",
"G.	c #38E314510000",
"H.	c #4103000069A6",
"J.	c #5144514438E3",
"K.	c #41031C711040",
"L.	c #186114511040",
"P.	c #082014510000",
"I.	c #71C649246185",
"U.	c #B6DAA28971C6",
"Y.	c #9E7992485965",
"T.	c #51443CF338E3",
"R.	c #410334D32081",
"E.	c #38E324921040",
"W.	c #A69955550000",
"Q.	c #514451445144",
"!.	c #618565950000",
"~.	c #79E769A64924",
"^.	c #10400C300000",
"/.	c #C71B9E798617",
"(.	c #CF3CE38DBEFB",
").	c #71C679E779E7",
"_.	c #C71B82078617",
"`.	c #8E388E3869A6",
"'.	c #861751440000",
"].	c #71C671C65144",
"[.	c #082008200820",
"{.	c #B6DAC30B9E79",
"}.	c #186124921861",
"|.	c #C71B9E7979E7",
" X	c #38E334D31861",
".X	c #0000000030C2",
"XX	c #492449241040",
"oX	c #79E700006185",
"OX	c #69A6451430C2",
"+X	c #9E798A281040",
"@X	c #79E771C65965",
"#X	c #28A228A22081",
"$X	c #AEBAB2CA30C2",
"%X	c #69A600000000",
"&X	c #69A6555528A2",
"*X	c #28A21C712081",
"=X	c #514459651861",
"-X	c #C71B9A694924",
";X	c #71C651444103",
":X	c #AEBADB6CD75C",
">X	c #5144555569A6",
",X	c #38E32CB228A2",
"<X	c #410365955965",
"1X	c #71C665955144",
"2X	c #410355555144",
"3X	c #492430C230C2",
"4X	c #0000000069A6",
"5X	c #082004100000",
"6X	c #965800000000",
"7X	c #38E31C711861",
"8X	c #AEBAD34C8E38",
"9X	c #8E38A6999658",
"0X	c #86175D755144",
"qX	c #79E755551040",
"wX	c #F7DEDB6C28A2",
"eX	c #79E7861779E7",
"rX	c #30C2041028A2",
"tX	c #51442CB21040",
"yX	c #28A224921861",
"uX	c #F7DEFFFFF7DE",
"iX	c #30C228A20820",
"pX	c #20810C3038E3",
"aX	c #E79D9A696185",
"sX	c #71C638E338E3",
"dX	c #00000000B6DA",
"fX	c #B6DA820779E7",
"gX	c #965882072081",
"hX	c #4924555530C2",
"jX	c #AEBA71C630C2",
"kX	c #861738E30000",
"lX	c #A69982074924",
"zX	c #71C68E38B6DA",
"xX	c #186128A20820",
"cX	c #208130C26185",
"vX	c #EFBEBAEA71C6",
"bX	c #18619E795144",
"nX	c #0000000079E7",
"mX	c #AEBA86171040",
"MX	c #B6DA51442081",
"NX	c #861769A671C6",
"BX	c #1040000030C2",
"VX	c #A69996589E79",
"CX	c #8E385D7530C2",
"ZX	c #0000A28971C6",
"AX	c #000096588E38",
"                                                    . . . . . X . . . . o O . .                 ",
"                                                  . . . . + . @ . . . . . . . .                 ",
"                                                . . . . # $ . . . . . . % . . .                 ",
"                                          . . . . . . & . . . * . . . o . .                     ",
"                                      . . . . . . . = - ; : . . . . . > . .                     ",
"                                    . . . . . + , . < 1 2 2 3 4 5 . . . . . .                   ",
"                                . . . . . 6 7 5 8 9 0 q w e r t y u i . . . .                   ",
"                                . . . % p a s d s f g h j s k l z x c v - . . .                 ",
"                            . . . . b n m s M t t N B V C Z s A t S h D F . . . .               ",
"                          . . . . . G H J K l t L 9 P C I C U S L Y s T N R E . . .             ",
"                        . . . . . W 1 Q P r r M A u ! ! ~ ! C ^ A Y 9 C Q l / . . .             ",
"                      . . . . z ( ) V h s f _ 2 ` ` ' . 4 4 ] [ [ S L Y { v } | . . .           ",
"                      . . .  ...7 J X.Q o.y u w $ . . . . . O.S s s S [ +.Y @.#.. . .           ",
"                    . . . $.%.&.*.=.-.X.d ;.3 :.. . . . . . >.,.{ t { h L <.<.1.2.. . .         ",
"                    . . . 3.4.*.z 8 5.o._ 6.3 . . . . . . . . 7.s Q Q +.l c f &.8.. . .         ",
"                  . . . 9.0.H J q.m w.z <.-.. . . . . . . e.r.j 5.f c [ t.e d X.y.b . .         ",
"                  . . . u.g J q.8 i.=.&.Q s p.. . . . . . a.s.r C t d.$ f.e g.3./ n h..         ",
"                . . . j.k.w.8 J H z l.w.p.z.l x.. . . . . c.~ x 7.v.. . . b.q.v n.m.. .         ",
"                . . . g.8 p.8 J M.N.f B.V.C.z A Z.. . . f.A.S.;.D.. . . . F.z.) G.H.. .         ",
"              . . . 8.J.J g ..J.F K.L.. . P.I.+.! u s.^ u u A u . . . . . a.U.0 >.. . .         ",
"              . . . M.V.3.Y.3.T.B.R.F E.R . a.9 s A 9 Y + r t 3 . . . . . W.d Q.>.. . .         ",
"              . . !.Q.~.J w.* / ^.. V.N.} . = /.[ y (.)._.r x (.. . . . . P `.Q.'.. .           ",
"            . . . l.].3.p.%.[.#.{.}.^.m |. Xm B.Q ;..X. . 7.h B g . . . XXQ ..G.oX. .           ",
"            . . . u.OXJ 4.R . J v.. e.&.n.6.m P C l f.. p ).4.U U.S D ,.g.I.. +X. . .           ",
"            . . n k.w.J l L.n.@X. . R n.. @.v z _ K v D Y.}.XX[ &.d g ( #XG.$X%X. . .           ",
"          . . . J &X) V l R . *X. e.=X. K.-XT ;Xz z.o.K :X#X/ z.g.>X,XE.'.o n . . .             ",
"          . . . <XOX1XN 2X. . . L.@X! x.. 3XS.U.S U.d s } . R @XF E.f.r.G 4X5X. .               ",
"          . . 6XQ.N H V &.m . . R.~ M.. . 7XV 6.x 4.N t.;Xy 8Xn.E.0.N.U.8.. . . .               ",
"        . . . 9Xw.@XX.<.0X` qX-.}.f.:.. wX`.P./ O 7.` eX%.rX# tX1 i.N.. . . . .                 ",
"        . . . v.~.V p.x * ~.U.2 L.yX. ,.uXY + . 5XB.h.* iXyXE.&Xa $XpX. . .                     ",
"        . . %X1.J z s I v.aX{.:.. . L.sXuX2 ! . . . . 5Xh.G.&X1 dX5X. . .                       ",
"        . h.....N fXt U W B.:.L.gX3 hX. rX3 9X. . ^.^.5X. jX<XkX. . . .                         ",
"        . . f.w.lXT f ) #XR C.D Z Z zX. . F $ . xX5Xe.. . G.$XcX. . .                           ",
"        . . hXT.vXs _ 5.~.,Xn./.k ,XyX. . . . . OX* ^.. r.3.. . . .                             ",
"        . . eXp z ^ 0 3.q.%.e.7Xw . R A.Z.. . . R F . . bX. . . . .                             ",
"        . . nXh.@.Q [ 4.~.p.F 5X. . w.%.t.}.[.. . . h.mX. . . .                                 ",
"        . . . P.,Xg -.5.*.~.w.f.. L.E.F ,X$ R R . . MX. . . .                                   ",
"        . . . + . / NX3X{ NXQ H * ^.5XC.. . F R.. iX. . . .                                     ",
"          . . BXhXR R . e.. #XsXVXJ.L.5X5X. yX. P.. . . .                                       ",
"          . . :.a.R R 5Xe.5Xe.5XL. Xp e.p . . !.. . . .                                         ",
"        . . . . y.. R ^.e.e.yXE.C.e.C.e.f./ p . . . .                                           ",
"      . . . . I.$ . 5X. = 5Xh.^./ e.. . tX. . . . .                                             ",
". . . . . . ; zX. . . . CXZX.X=XZ.1.. >.. . . . .                                               ",
"6 . . . . ; . . . . . . f.. . . . . . . . . .                                                   ",
"0XAX. . . >X. . . . gXXX. . . . . . . .                                                         ",
". >.AX. W 5X. . . . . . . . .                                                                   ",
". 5X8.6.. . . . XX. . . . .                                                                     ",
". . 5X^.. . . . F.. . .                                                                         ",
"5X^.5X5Xf.5X. . & . .                                                                           ",
". . . 5X5X/ 7X+.. . .                                                                           "};
