#define xfm_files_width 48
#define xfm_files_height 48
static char xfm_files_bits[] = {
  0x00, 0x00, 0x00, 0x00, 0x00, 0x00, 0x00, 0x00, 0x00, 0x00, 0x00, 0x00, 
  0x00, 0x00, 0x00, 0x00, 0x00, 0x00, 0x00, 0x00, 0x00, 0x00, 0x00, 0x00, 
  0x00, 0x00, 0x00, 0x78, 0x00, 0x00, 0x00, 0x00, 0x00, 0x4c, 0x00, 0x00, 
  0x00, 0x00, 0x80, 0xc7, 0x00, 0x00, 0x00, 0x00, 0xfc, 0x80, 0x00, 0x00, 
  0x00, 0x80, 0x07, 0x80, 0x00, 0x00, 0x00, 0xe0, 0x00, 0x80, 0x01, 0x00, 
  0x00, 0xb0, 0x01, 0x00, 0x01, 0x00, 0x00, 0x10, 0x01, 0x00, 0x01, 0x00, 
  0x00, 0x18, 0x03, 0x00, 0x03, 0x00, 0x00, 0x0c, 0x06, 0x00, 0x06, 0x00, 
  0x00, 0x04, 0x04, 0x00, 0x04, 0x00, 0x00, 0x06, 0x0c, 0x00, 0x04, 0x00, 
  0x00, 0xf5, 0x0f, 0x00, 0x0c, 0x00, 0x00, 0x0d, 0x00, 0x00, 0x18, 0x00, 
  0x00, 0x0b, 0x00, 0x00, 0x10, 0x00, 0x80, 0x0b, 0x00, 0x00, 0x10, 0x00, 
  0x80, 0x0a, 0x00, 0x00, 0x30, 0x00, 0x80, 0x0a, 0x00, 0x00, 0x60, 0x00, 
  0x80, 0x1a, 0x00, 0x00, 0xc0, 0x00, 0x80, 0x16, 0x00, 0x00, 0x80, 0x00, 
  0x80, 0x15, 0x00, 0x00, 0x80, 0x01, 0x00, 0x15, 0x00, 0x00, 0x00, 0x01, 
  0x00, 0x15, 0x00, 0x00, 0x00, 0x03, 0x00, 0x35, 0x00, 0x00, 0x00, 0x06, 
  0x00, 0x2d, 0x00, 0x00, 0xc0, 0x03, 0x00, 0x2b, 0x00, 0x00, 0x60, 0x01, 
  0x00, 0x6a, 0x00, 0x00, 0xbc, 0x01, 0x00, 0x5a, 0x00, 0x00, 0xc6, 0x00, 
  0x00, 0x56, 0x00, 0xc0, 0xfb, 0x00, 0x00, 0xd4, 0x00, 0x70, 0x8c, 0x00, 
  0x00, 0xb4, 0x00, 0x9c, 0x77, 0x00, 0x00, 0xac, 0x80, 0xe7, 0x18, 0x00, 
  0x00, 0xa8, 0xf1, 0x38, 0x0f, 0x00, 0x00, 0x68, 0x1f, 0xcf, 0x01, 0x00, 
  0x00, 0xd8, 0xe0, 0x71, 0x00, 0x00, 0x00, 0xb0, 0x3f, 0x1e, 0x00, 0x00, 
  0x00, 0x60, 0xc0, 0x03, 0x00, 0x00, 0x00, 0x80, 0x7f, 0x00, 0x00, 0x00, 
  0x00, 0x00, 0x00, 0x00, 0x00, 0x00, 0x00, 0x00, 0x00, 0x00, 0x00, 0x00, 
  0x00, 0x00, 0x00, 0x00, 0x00, 0x00, 0x00, 0x00, 0x00, 0x00, 0x00, 0x00, 
  0x00, 0x00, 0x00, 0x00, 0x00, 0x00, 0x00, 0x00, 0x00, 0x00, 0x00, 0x00, 
  };
