#define xfm_symlnk_width 48
#define xfm_symlnk_height 48
static unsigned char xfm_symlnk_bits[] = {
   0x00, 0x00, 0x00, 0x00, 0x00, 0x00, 0x00, 0x00, 0x00, 0x00, 0x00, 0x00,
   0x00, 0x00, 0x00, 0x00, 0x00, 0x00, 0x00, 0x00, 0x00, 0x00, 0x00, 0x00,
   0x00, 0x00, 0x00, 0x00, 0x00, 0x00, 0x00, 0x00, 0x00, 0x00, 0x00, 0x00,
   0x00, 0x00, 0x00, 0x00, 0x00, 0x00, 0x00, 0x00, 0x00, 0x00, 0x00, 0x00,
   0x00, 0x00, 0x00, 0x3c, 0x00, 0x00, 0x00, 0x00, 0x00, 0x26, 0x00, 0x00,
   0x00, 0x00, 0xc0, 0x63, 0x00, 0x00, 0x00, 0x00, 0x7e, 0x40, 0x00, 0x00,
   0x00, 0xc0, 0x03, 0x40, 0x00, 0x00, 0x00, 0x70, 0x00, 0xc0, 0x00, 0x00,
   0x00, 0xd8, 0x00, 0x80, 0x00, 0x00, 0x00, 0x88, 0x00, 0x80, 0x00, 0x00,
   0x00, 0x8c, 0x01, 0x80, 0x01, 0x00, 0x00, 0x06, 0x03, 0x00, 0x03, 0x00,
   0x00, 0x02, 0x02, 0x00, 0x02, 0x00, 0x00, 0x02, 0x06, 0x00, 0x02, 0x00,
   0x00, 0xfa, 0x07, 0x00, 0x06, 0x00, 0x00, 0x06, 0x00, 0x00, 0x0c, 0x00,
   0x00, 0x04, 0x00, 0x00, 0x08, 0x00, 0x00, 0x04, 0x00, 0x00, 0x08, 0x00,
   0x00, 0x04, 0x00, 0x00, 0x18, 0x00, 0x00, 0x04, 0x00, 0x00, 0x30, 0x00,
   0x00, 0x0c, 0x00, 0x00, 0x60, 0x00, 0x00, 0x08, 0x00, 0x00, 0x40, 0x00,
   0x00, 0x08, 0x00, 0x00, 0xc0, 0x00, 0x00, 0x08, 0x00, 0x00, 0xc0, 0x00,
   0x00, 0x08, 0x00, 0x00, 0xc0, 0x01, 0x00, 0x18, 0x00, 0x00, 0x40, 0x03,
   0x00, 0x10, 0x00, 0x00, 0x40, 0x02, 0x00, 0x10, 0x00, 0x80, 0x7f, 0x04,
   0x00, 0x30, 0x00, 0x80, 0x00, 0x08, 0x00, 0x20, 0x00, 0x80, 0x00, 0x10,
   0x00, 0x20, 0x00, 0xe0, 0x00, 0x20, 0x00, 0x60, 0x00, 0xb8, 0x00, 0x10,
   0x00, 0x40, 0x00, 0x8e, 0x00, 0x28, 0x00, 0x40, 0xc0, 0x83, 0x7f, 0x54,
   0x00, 0xc0, 0x78, 0x80, 0x6a, 0x2a, 0x00, 0x80, 0x0f, 0x00, 0x55, 0x15,
   0x00, 0x00, 0x00, 0x00, 0xc0, 0x0a, 0x00, 0x00, 0x00, 0x00, 0x40, 0x05,
   0x00, 0x00, 0x00, 0x00, 0x00, 0x02, 0x00, 0x00, 0x00, 0x00, 0x00, 0x01,
   0x00, 0x00, 0x00, 0x00, 0x00, 0x00, 0x00, 0x00, 0x00, 0x00, 0x00, 0x00};
