#define xfm_execlnk_width 48
#define xfm_execlnk_height 48
static unsigned char xfm_execlnk_bits[] = {
   0x00, 0x00, 0x00, 0x00, 0x00, 0x00, 0x00, 0x00, 0x00, 0x00, 0x00, 0x00,
   0x00, 0x00, 0x00, 0x00, 0x00, 0x00, 0x00, 0x00, 0x00, 0x00, 0x00, 0x00,
   0x00, 0x00, 0x00, 0x00, 0x00, 0x00, 0x00, 0x00, 0x00, 0x00, 0x00, 0x00,
   0x00, 0x00, 0x00, 0x00, 0x00, 0x00, 0xf0, 0xff, 0xff, 0xff, 0xff, 0x1f,
   0xb0, 0xaa, 0xaa, 0xaa, 0xaa, 0x1a, 0xd0, 0xff, 0xff, 0xff, 0xff, 0x17,
   0x70, 0xfc, 0xff, 0xff, 0x01, 0x1c, 0x50, 0x04, 0x80, 0xff, 0x01, 0x14,
   0x70, 0xfc, 0xff, 0xff, 0x01, 0x1c, 0xd0, 0xff, 0xff, 0xff, 0xff, 0x17,
   0xb0, 0xaa, 0xaa, 0xaa, 0xaa, 0x1a, 0x10, 0x00, 0x00, 0x00, 0x00, 0x10,
   0x30, 0x00, 0x00, 0x00, 0x00, 0x18, 0x10, 0x00, 0x00, 0x00, 0x00, 0x10,
   0x30, 0x00, 0x00, 0x00, 0x00, 0x18, 0x10, 0x00, 0x00, 0x00, 0x00, 0x10,
   0x30, 0x00, 0x00, 0x00, 0x00, 0x18, 0x10, 0x00, 0x00, 0x00, 0x00, 0x10,
   0x30, 0x00, 0x00, 0x00, 0x00, 0x18, 0x10, 0x00, 0x00, 0x00, 0x00, 0x10,
   0x30, 0x00, 0x00, 0x00, 0x00, 0x18, 0x10, 0x00, 0x00, 0x00, 0x00, 0x10,
   0x30, 0x00, 0x00, 0x00, 0x00, 0x18, 0x10, 0x00, 0x00, 0x00, 0x00, 0x10,
   0x30, 0x00, 0x00, 0x00, 0x40, 0x18, 0x10, 0x00, 0x00, 0x00, 0xc0, 0x10,
   0x30, 0x00, 0x00, 0x00, 0x40, 0x19, 0x10, 0x00, 0x00, 0x00, 0x40, 0x12,
   0x30, 0x00, 0x00, 0x80, 0x7f, 0x1c, 0x10, 0x00, 0x00, 0x80, 0x00, 0x18,
   0x30, 0x00, 0x00, 0x80, 0x00, 0x10, 0x10, 0x00, 0x00, 0x80, 0x00, 0x20,
   0x30, 0x00, 0x00, 0x80, 0x00, 0x10, 0x10, 0x00, 0x00, 0x80, 0x00, 0x28,
   0x30, 0x00, 0x00, 0x80, 0x7f, 0x54, 0x10, 0x00, 0x00, 0x80, 0x6a, 0x2a,
   0xb0, 0xaa, 0xaa, 0x2a, 0x55, 0x15, 0xf0, 0xff, 0xff, 0xff, 0xff, 0x0a,
   0x00, 0x00, 0x00, 0x00, 0x40, 0x05, 0x00, 0x00, 0x00, 0x00, 0x00, 0x02,
   0x00, 0x00, 0x00, 0x00, 0x00, 0x01, 0x00, 0x00, 0x00, 0x00, 0x00, 0x00,
   0x00, 0x00, 0x00, 0x00, 0x00, 0x00, 0x00, 0x00, 0x00, 0x00, 0x00, 0x00};
