#define xfm_blackhole_width 48
#define xfm_blackhole_height 48
static char xfm_blackhole_bits[] = {
  0x00, 0x00, 0x00, 0x00, 0x00, 0x00, 0x00, 0x00, 0x00, 0x00, 0x00, 0x00, 
  0x00, 0x00, 0x00, 0x00, 0x00, 0x00, 0x00, 0x00, 0x00, 0x00, 0x00, 0x00, 
  0x00, 0x00, 0x00, 0x00, 0x00, 0x00, 0x00, 0x00, 0x00, 0x00, 0x00, 0x00, 
  0x00, 0x00, 0x00, 0x00, 0x00, 0x00, 0x00, 0x00, 0x00, 0x00, 0x00, 0x00, 
  0x00, 0x00, 0x00, 0x00, 0x00, 0x00, 0x00, 0x00, 0x00, 0x04, 0x00, 0x00, 
  0x00, 0x00, 0x00, 0x0c, 0x00, 0x00, 0x00, 0x00, 0x00, 0x1c, 0x00, 0x00, 
  0x00, 0x00, 0x00, 0x34, 0x00, 0x00, 0x00, 0x00, 0x00, 0x64, 0x00, 0x00, 
  0x00, 0x00, 0x00, 0xc4, 0x00, 0x00, 0x00, 0x00, 0x00, 0x84, 0x01, 0x00, 
  0x00, 0xfe, 0x1f, 0x06, 0x03, 0x00, 0x00, 0x02, 0x08, 0x02, 0x06, 0x00, 
  0x00, 0x02, 0x08, 0x03, 0x0c, 0x00, 0x00, 0x02, 0x08, 0x01, 0x18, 0x00, 
  0x00, 0x02, 0x0c, 0x03, 0x30, 0x00, 0x00, 0x02, 0x06, 0x02, 0x60, 0x00, 
  0x00, 0x02, 0x02, 0x02, 0xc0, 0x00, 0x00, 0x02, 0x03, 0x03, 0x80, 0x01, 
  0x00, 0x02, 0x01, 0x02, 0x00, 0x03, 0x00, 0x02, 0x01, 0x03, 0x80, 0x01, 
  0x00, 0x02, 0x83, 0x01, 0xc0, 0x00, 0x00, 0x02, 0x0e, 0x01, 0x60, 0x00, 
  0x00, 0x02, 0x8c, 0x01, 0x30, 0x00, 0x00, 0x02, 0x84, 0x00, 0x18, 0x00, 
  0x00, 0x02, 0xc6, 0x00, 0x0c, 0x00, 0x00, 0x82, 0x43, 0x00, 0x06, 0x00, 
  0x00, 0xfe, 0xe0, 0x07, 0x03, 0x00, 0x00, 0x00, 0x00, 0x84, 0x01, 0x00, 
  0x00, 0x00, 0x00, 0xc4, 0x00, 0x00, 0x00, 0x00, 0x00, 0x64, 0x00, 0x00, 
  0x00, 0x00, 0x00, 0x34, 0x00, 0x00, 0x00, 0x00, 0x00, 0x1c, 0x00, 0x00, 
  0x00, 0x00, 0x00, 0x0c, 0x00, 0x00, 0x00, 0x00, 0x00, 0x04, 0x00, 0x00, 
  0x00, 0x00, 0x00, 0x00, 0x00, 0x00, 0x00, 0x00, 0x00, 0x00, 0x00, 0x00, 
  0x00, 0x00, 0x00, 0x00, 0x00, 0x00, 0x00, 0x00, 0x00, 0x00, 0x00, 0x00, 
  0x00, 0x00, 0x00, 0x00, 0x00, 0x00, 0x00, 0x00, 0x00, 0x00, 0x00, 0x00, 
  0x00, 0x00, 0x00, 0x00, 0x00, 0x00, 0x00, 0x00, 0x00, 0x00, 0x00, 0x00, 
  };
