#define xfm_dirlnk_width 48
#define xfm_dirlnk_height 48
static unsigned char xfm_dirlnk_bits[] = {
   0x00, 0x00, 0x00, 0x00, 0x00, 0x00, 0x00, 0x00, 0x00, 0x00, 0x00, 0x00,
   0x00, 0x00, 0x00, 0x00, 0x00, 0x00, 0x00, 0x00, 0x00, 0x00, 0x00, 0x00,
   0x00, 0x00, 0x00, 0x00, 0x00, 0x00, 0x00, 0x00, 0x00, 0x00, 0x00, 0x00,
   0x00, 0x00, 0x00, 0x00, 0x00, 0x00, 0x00, 0x00, 0x00, 0x00, 0x00, 0x00,
   0x00, 0x00, 0x00, 0x00, 0x00, 0x00, 0x00, 0x00, 0x00, 0xe0, 0x03, 0x00,
   0x00, 0x00, 0x00, 0x3f, 0x02, 0x00, 0xc0, 0x0f, 0xf8, 0x01, 0x82, 0x03,
   0x70, 0xd8, 0x0f, 0x00, 0xfe, 0x02, 0x18, 0x30, 0x00, 0xc0, 0x07, 0x02,
   0x08, 0x00, 0x00, 0x3e, 0x00, 0x02, 0x18, 0x00, 0xc0, 0x01, 0x00, 0x02,
   0x10, 0x00, 0x3e, 0x00, 0x00, 0x02, 0x10, 0xc0, 0x01, 0x00, 0x00, 0x02,
   0x30, 0x20, 0x00, 0x00, 0x00, 0x02, 0x20, 0x20, 0x00, 0x00, 0x00, 0x02,
   0x20, 0x20, 0x00, 0x00, 0x00, 0x02, 0x60, 0x20, 0x00, 0x00, 0x00, 0x02,
   0x40, 0x20, 0x00, 0x00, 0x00, 0x02, 0x40, 0x20, 0x00, 0x00, 0x00, 0x02,
   0xc0, 0x20, 0x00, 0x00, 0x00, 0x02, 0x80, 0x20, 0x00, 0x00, 0x00, 0x02,
   0x80, 0x21, 0x00, 0x00, 0x00, 0x02, 0x00, 0x21, 0x00, 0x00, 0x00, 0x02,
   0x00, 0x21, 0x00, 0x00, 0x40, 0x02, 0x00, 0x23, 0x00, 0x00, 0xc0, 0x03,
   0x00, 0x22, 0x00, 0x00, 0x60, 0x01, 0x00, 0x22, 0x00, 0x00, 0x5c, 0x02,
   0x00, 0x26, 0x00, 0xc0, 0x7f, 0x04, 0x00, 0x24, 0x00, 0xf0, 0x00, 0x08,
   0x00, 0x24, 0x00, 0xbe, 0x00, 0x10, 0x00, 0x2c, 0xc0, 0x83, 0x00, 0x20,
   0x00, 0x28, 0xf8, 0x80, 0x00, 0x10, 0x00, 0x28, 0x0e, 0x80, 0x00, 0x28,
   0x00, 0xb8, 0x03, 0x80, 0x7f, 0x54, 0x00, 0xf0, 0x00, 0x80, 0x6a, 0x2a,
   0x00, 0x00, 0x00, 0x00, 0x55, 0x15, 0x00, 0x00, 0x00, 0x00, 0xc0, 0x0a,
   0x00, 0x00, 0x00, 0x00, 0x40, 0x05, 0x00, 0x00, 0x00, 0x00, 0x00, 0x02,
   0x00, 0x00, 0x00, 0x00, 0x00, 0x01, 0x00, 0x00, 0x00, 0x00, 0x00, 0x00,
   0x00, 0x00, 0x00, 0x00, 0x00, 0x00, 0x00, 0x00, 0x00, 0x00, 0x00, 0x00};
