/* XPM */
static char *ft_xpm[] = {
/* columns rows colors chars-per-pixel */
"48 48 180 2",
"   c #000000000000",
".  c #0a0a00000000",
"X  c #0a0a0a0a0a0a",
"o  c #141414141515",
"O  c #0f0f01013434",
"+  c #1b1b0e0e3a3a",
"@  c #2e2e2e2e2d2d",
"#  c #303030302f2f",
"$  c #343434343434",
"%  c #3b3b3b3b3a3a",
"&  c #161603034646",
"*  c #171703034949",
"=  c #252516164a4a",
"-  c #242400007f7f",
";  c #2c2c21214747",
":  c #323229294a4a",
">  c #414141414242",
",  c #4a4a4a4a4a4a",
"<  c #494944445858",
"1  c #545455555353",
"2  c #5b5b5b5b5b5b",
"3  c #545443437e7e",
"4  c #5f5f5e5e6060",
"5  c #5f5f54547b7b",
"6  c #686868686868",
"7  c #717171717272",
"8  c #797979797979",
"9  c #34340d0d9898",
"0  c #32320202acac",
"q  c #37370909aeae",
"w  c #37370707b0b0",
"e  c #37370303baba",
"r  c #3a3a0606bdbd",
"t  c #3f3f0d0dbdbd",
"y  c #3f3f1919a2a2",
"u  c #3c3c0707c2c2",
"i  c #47471b1bb6b6",
"p  c #57573030bbbb",
"a  c #47470808e9e9",
"s  c #4b4b0e0ee7e7",
"d  c #4c4c0e0ee9e9",
"f  c #4f4f0f0ff2f2",
"g  c #54541c1ce3e3",
"h  c #54541818eded",
"j  c #5b5b2f2fcccc",
"k  c #5f5f3333cece",
"l  c #69693232f5f5",
"z  c #71713f3ff0f0",
"x  c #5f5f51518484",
"c  c #6d6d65658383",
"v  c #79796d6d9999",
"b  c #7c7c6c6ca4a4",
"n  c #6d6d4040dfdf",
"m  c #7a7a4949f6f6",
"M  c #7e7e5757e0e0",
"N  c #0606afafb1b1",
"B  c #0b0beaeae8e8",
"V  c #494990909a9a",
"C  c #535393939d9d",
"Z  c #5d5d9494a1a1",
"A  c #5d5d9898a0a0",
"S  c #60609797a1a1",
"D  c #67679898a2a2",
"F  c #6c6c9c9ca4a4",
"G  c #7c7ca2a2a8a8",
"H  c #5b5b9494c3c3",
"J  c #61619494c3c3",
"K  c #65659797cfcf",
"L  c #6a6a9797c5c5",
"P  c #6c6c9797d7d7",
"I  c #6e6e9898d1d1",
"U  c #70709999c7c7",
"Y  c #73739a9ac8c8",
"T  c #7d7d9d9ddcdc",
"R  c #77779c9ce8e8",
"E  c #5050cacad9d9",
"W  c #5454d1d1d9d9",
"Q  c #5c5cd2d2d9d9",
"!  c #6262cecedcdc",
"~  c #6868cecedddd",
"^  c #6b6bd2d2dede",
"/  c #7272cecedfdf",
"(  c #7373d4d4e0e0",
")  c #7b7bd5d5e0e0",
"_  c #d3d300000000",
"`  c #ffff0d0d0d0d",
"'  c #ffff15151515",
"]  c #ffff1c1c1c1c",
"[  c #ffff24242424",
"{  c #ffff28282828",
"}  c #ffff3c3c3c3c",
"|  c #ffff45454545",
" . c #ffff4b4b4b4b",
".. c #ffff52525252",
"X. c #ffff65656565",
"o. c #ffff6b6b6b6b",
"O. c #ffff76767676",
"+. c #8d8d6161fcfc",
"@. c #98987878e9e9",
"#. c #848484848484",
"$. c #85858b8b8a8a",
"%. c #8d8d8d8d8d8d",
"&. c #929292929292",
"*. c #96969c9c9d9d",
"=. c #9a9a9a9a9a9a",
"-. c #91918888a8a8",
";. c #8282a4a4aaaa",
":. c #8f8fa4a4a6a6",
">. c #8c8ca7a7abab",
",. c #9696a9a9acac",
"<. c #a6a6a6a6a6a6",
"1. c #a3a3adadafaf",
"2. c #a4a4adadb1b1",
"3. c #b4b4b9b9baba",
"4. c #85859f9fcccc",
"5. c #9e9e9c9cc3c3",
"6. c #83839f9fe9e9",
"7. c #8585a5a5e9e9",
"8. c #8787a9a9ebeb",
"9. c #8c8ca4a4ebeb",
"0. c #9494aeaeeeee",
"q. c #9494b4b4ecec",
"w. c #9898bcbcecec",
"e. c #9e9ebbbbf1f1",
"r. c #a3a39797cccc",
"t. c #a2a28181f4f4",
"y. c #a7a78989f4f4",
"u. c #b6b69a9afdfd",
"i. c #bfbfbebecdcd",
"p. c #a4a4aaaae4e4",
"a. c #a1a1b4b4f3f3",
"s. c #a4a4bbbbf2f2",
"d. c #b5b5adade5e5",
"f. c #b7b7b1b1e6e6",
"g. c #8484dadae2e2",
"h. c #8989dadae4e4",
"j. c #9393dcdce6e6",
"k. c #9595dbdbe8e8",
"l. c #bfbfc5c5c5c5",
"z. c #b7b7d3d3d6d6",
"x. c #aaaaccccf1f1",
"c. c #aaaad4d4eeee",
"v. c #b3b3cdcdf3f3",
"b. c #bbbbd7d7f3f3",
"n. c #a4a4e2e2eaea",
"m. c #acace4e4eded",
"M. c #b5b5eaeaeeee",
"N. c #bcbce1e1f0f0",
"B. c #ffff8b8b8b8b",
"V. c #ffff98989898",
"C. c #ffffa3a3a3a3",
"Z. c #ffffaeaeaeae",
"A. c #ffffb5b5b5b5",
"S. c #c2c2c2c2c2c2",
"D. c #cecedededfdf",
"F. c #d3d3d3d3d3d3",
"G. c #c0c0c0c0f5f5",
"H. c #cdcdd3d3f5f5",
"J. c #d4d4c6c6f7f7",
"K. c #d3d3dfdfe0e0",
"L. c #cbcbeaeaeded",
"P. c #c9c9eaeaf2f2",
"I. c #cdcdf1f1f6f6",
"U. c #d5d5e2e2e1e1",
"Y. c #d4d4e9e9f4f4",
"T. c #d4d4f2f2f6f6",
"R. c #d8d8f4f4f7f7",
"E. c #ddddf6f6f9f9",
"W. c #ffffc4c4c4c4",
"Q. c #ffffd0d0d0d0",
"!. c #ffffd9d9d9d9",
"~. c #e6e6f6f6f6f6",
"^. c #e4e4f7f7f9f9",
"/. c #ebebf2f2f2f2",
"(. c #e8e8f7f7f9f9",
"). c #ebebf9f9fafa",
"_. c #ffffe4e4e4e4",
"`. c #f1f1fbfbfcfc",
"'. c #ffffffffffff",
"]. c None",
/* pixels */
"].].].].].].].].].].].].].].].].].].].].].].].].].].].].].].].].].].].].].].].].].].].].].].].].",
"].].].].].].].].].].].].].].].].].].].].].].].].].].].].].].].].].].].].].].].].].].].].].].].].",
"].].].].].].].].].                    ].].].].].].].].].].].].].].].].].].].].].].].].].].].].].",
"].].].].].].].    Q.C.C.O.O.X...} } _ .   ].].].].].].].].].].].].].].].].].].].].].].].].].].].",
"].].].].].    Q.C.o.            ` }  .] _ .   ].].].].].].].].].].].].].].].].].].].].].].].].].",
"].].].].. Q.C.]     ].].].].].].  . [ |  .| _   ].].].].].].].].].].].].].].].].].].].].].].].].",
"].].].  Q.B.}   ].].].].].].].].].].. O.X. .] . ].].].].].].].].].].].].].].].].].].].].].].].].",
"].].].. Q.o.'   ].].].].].].].].].].  V.O.X.| _   ].].].].].].].].].].].].].].].].].].].].].].].",
"].].  Q.C.[ . ].].].].].].].].].].].].. C.o.| '   ].].].].].].].].].].].].].].].].].].].].].].].",
"].].  C.O.'   ].].].].].].].].].].].                    ].].].].].].].].].].].].].].].].].].].].",
"].].  C.X.[ . ].].].].].].].].].    J.y.y.m m n n p p -     ].].].].].].].].].].].].].].].].].].",
"].].  o.O.| | .     ].].].].    J.y.z             9 p h e 9     ].].].].].].].].].].].].].].].].",
"].].  o.} ..o.B.C.C..   ].  J.y.y     Q.O.X.{ . ].    t g h k -   ].].].].].].].].].].].].].].].",
"].].].. ] } X.X.O.O.o.    J.@.j   . Q.C.O.| _   ].].].  M l h e   ].].].].].].].].].].].].].].].",
"].].].].. _ ] | X.X.`     J.z q   _.Z.O.| _ . ].].].].  t.m l s -   ].].].].].].].].].].].].].].",
"].].].].].  . _ ` _ .   J.y.u   !.Z.B.| _ . #.            -.l f 0   ].].].].].].].].].].].].].].",
"].].].].].].].      ].  y.m w   Z.B.| _     @ 2 #.=.=.%., < = & 0   ].].].].].].].].].].].].].].",
"].].].].].].].].].].].  y.l u   B.| _   1 #.=.l.D.D.D.D.*.i.-.3 O   ].].].].].].].].].].].].].].",
"].].].].].].].].].].].  z m d j       1 3.K.K.^.E.R.R.,.Y.H.G.d.5   ].].].].].].].].].].].].].].",
"].].].].].].].].].].].  z a f z @.: c #.*.).^.^.E.T.L.;.N.a.a.p.2.2   ].].].].].].].].].].].].].",
"].].].].].].].].].].]..   r a l * x r.f.1.(.).^.E.I.;.b.x.0.9.4.:.).#   ].].].].].].].].].].].].",
"].].].].].].].].].].  _.W.  9 e & b d.f.1.).`.).T.>.P.x.0.6.Y F m.L.S.  ].].].].].].].].].].].].",
"].].].].].].].].].].  W.V.X.  4 ; b 5.2.(.).`.~.,.P.v.e.7.Y D k.n.L./.X #.].].].].].].].].].].].",
"].].].].].].].].].].  V.X.| `   $ $.1.^.^.(.^.1.Y.b.e.7.U Z g.h.j.c./.1 X ].].].].].].].].].].].",
"].].].].].].].].].].].. _ ` _   #.U.E.E.E.T.,.Y.b.s.9.Y A ) ) ( g.j.P.=.X ].].].].].].].].].].].",
"].].].].].].].].].].].].        =.D.R.T.I.>.Y.b.s.9.U S ) / ^ ~ ( j.M.S.X ].].].].].].].].].].].",
"].].].].].].].].].].].].].].].  =.D.T.I.;.L.N.s.0.T Z ) / ! ! Q / j.M.F.X ].].].].].].].].].].].",
"].].].].].].].].].].].].].].].  %.D.T.L.G b.x.q.7.L C / ! Q W W / j.P.<.X ].].].].].].].].].].].",
"].].].].].].].].].].].].        , S.R.>.N.c.w.8.P C / ! Q E E Q ) n.~.1 X ].].].].].].].].].].].",
"].].].].].].].].].].].. B.| } #.o 3.R.>.c.w.7.R K C ! Q E E E ~ h.L./.  #.].].].].].].].].].].].",
"].].].].].].].].].].  B.Q.A.B.'   %.D.>.q.7.R K H V Q E E E ~ ) n.L.&.  ].].].].].].].].].].].].",
"].].].].].].].].].].  { A.B.| _   , 3.(.;.Y I J C ! Q W Q ) ) n.L.(.@ #.].].].].].].].].].].].].",
"].].].].].].].].].].].. ' ` _ . ].  8 3.(.G D D ) ( / / ) h.n.L./.2     ].].].].].].].].].].].].",
"].].].].].].].].].].].].      ].].].  8 3.z.Y.M.M.j.j.j.n.L.L./.2   7 B   ].].].].].].].].].].].",
"].].].].].].].].].].].].].].].].].].].  % $.3././.L.M.P././.$.@   , B B %.  ].].].].].].].].].].",
"].].].].].].].].].].].].].].].].].].].].      % =.S.F.<.1     #.  N N 1 7 %.  ].].].].].].].].].",
"].].].].].].].].].].].].].].].].].].].].  +.v +           #.].].].  $ , 1 6 %.  ].].].].].].].].",
"].].].].].].].].].].].].].].].].].].].  +.J.u.+.q   ].].].].].].].].  $ > 1 7 %.  ].].].].].].].",
"].].].].].].].].].].].].].].].].].].].  i u.+.s -   ].].].].].].].].].  $ > 1 7 %.  ].].].].].].",
"].].].].].].].].].].].].].].].].].].].].  q 0 -   ].].].].].].].].].].].  $ : 1 7 %.  ].].].].].",
"].].].].].].].].].].].].].].].].].].].].].      ].].].].].].].].].].].].].  $ % 1 7 %.  ].].].].",
"].].].].].].].].].].].].].].].].].].].].].].].].].].].].].].].].].].].].].].  $ % 1 7 %.  ].].].",
"].].].].].].].].].].].].].].].].].].].].].].].].].].].].].].].].].].].].].].].  $ > 1 6 %.  ].].",
"].].].].].].].].].].].].].].].].].].].].].].].].].].].].].].].].].].].].].].].].  $ > 1 6 o ].].",
"].].].].].].].].].].].].].].].].].].].].].].].].].].].].].].].].].].].].].].].].].  $ > , X ].].",
"].].].].].].].].].].].].].].].].].].].].].].].].].].].].].].].].].].].].].].].].].].  X X ].].].",
"].].].].].].].].].].].].].].].].].].].].].].].].].].].].].].].].].].].].].].].].].].].].].].].].",
"].].].].].].].].].].].].].].].].].].].].].].].].].].].].].].].].].].].].].].].].].].].].].].].].",
};
