/* XPM */
static char * image_name[] = {
"56 56 26 1",
" 	c None",
".	c #101010101010",
"X	c #292929292929",
"o	c #4F4F52525252",
"O	c #A9A9A9A9A7A7",
"+	c #C7C7BFBFBFBF",
"@	c #BDBDB5B5B5B5",
"#	c #A2A29C9C9A9A",
"$	c #999996969696",
"%	c #7B7B7B7B7A7A",
"&	c #292931313131",
"*	c #181818181818",
"=	c #393939393636",
"-	c #5A5A5A5A5A5A",
";	c #8C8C8C8C8C8C",
":	c #8C8C84848484",
">	c #DEDEDADADADA",
",	c #F8F8E9E9E0E0",
"<	c #FCFCF9F9F3F3",
"1	c #FFFFFFFFFFFF",
"2	c #000000000000",
"3	c #8C8C84847B7B",
"4	c #F0F0C3C3B0B0",
"5	c #A9A9A5A59898",
"6	c #424242424242",
"7	c #F9F9DDDDBBBB",
"               .XXXXoO++@@OOOOO##$%&****                ",
"               *=o=o-@+++@@OOOOO##%=&&&X.               ",
"              .oO+O@+++@OO@@OO##;;:%%%%-X               ",
"            o%%$+>+>>+@OOOOOOOOO##$::::%o==X            ",
"          .X#>>>++++++@OO@OO@OOO@O#$:%%:%%%o*           ",
"          o#>,>>++O++@@@@OOOOOOOOOO#$$;;%%%-=*          ",
"        *&$><>>++OOOO;;$;::%:::::;$#OO#;:%---=*         ",
"        o@>1<>+++@@$%o=&&&XX&&&&=o-:##O##;%--oo*        ",
"      .o$<1<>>+OO#;-=X222.222..2*X=-%:;#O#:%---&*       ",
"      &+,1<,>@O#;%oX2.22****..***&&X&o%;##$%----o*      ",
"     o#,1<>>+@O:%oX22*o%:;$;%:;;%-&X*&o%;##;%--oo&*     ",
"   .&O11<>>@@O:%o&**&o#><<<<<<<,>;-o&&o-%;$#;%-oo-=*    ",
"   o#><<>>+@;-=X*&o%O+>>>++++++++@O;%o&=o-%:$;%-ooo&*   ",
"   %><,>>+@O-&**o-;+1<>>@+O;$;#O@+++$-oo=oo%##;%-ooo*   ",
"   %><>+++O:=*&%+>>>>+++++OOO##OOOOO#$:%ooo%#O#;%-ooX   ",
".*o$>>++OO$-X*%+11<>+>>++OO222OO@+>##O$:-oo%;##$;%-oX.  ",
"X=O+>++O#$%o*o+11>>OO22@2+2+>++O2222;#;%-ooo%:;##;%o&&. ",
"&o+>>++O#%o&X->1>>32>>>>>>>>>>>>>>>O%O$:-oo--%:;$#%oo&* ",
"&o+>>+@@;oX*o;>,>42>>>>>>>>>>>>>>>>>2$O$%oo--%%:$#:oo=* ",
"X=+>++@O%&*X:+>+,-,>>>>>>>>>>>>>>>>>>2O;%-oo%--;#$%-o&. ",
"o-+++@O:oX.=+<+@2O><>>>>>>>>>>>>>>>>>O2;:-&=%%%:#;:-o&* ",
"O@++@O$%=*&%+<+@2>>>>>>>>>>>>>>>>>>>>>;2$%&&-%%%:#$:-=&X",
"+++@O@;oX*-O>>+2@>>>>>>>>>>>>>>#<>>>>>+%#%o&=%::%$$;-=&&",
"+++OO@$=.*;>>@>2>>><>>>>>>>>>>>>>>#<>>>2#$%o*o:;;;$:-&&&",
"+++@O@$=*&$<>O@;>>+-;>+O>>$;>;O;;O,>>>>O2$$o.o;$;$$;-=&&",
"++@+@O:oX&$<+OO2><>%+%%;;%O>$O>%O;>>>>>>$$#-*o#$$##;-o&&",
"O@+OOO:=*&#<+OO2>>>%OoO>;o>+O%O%O;>>>>>>2$#-*o;#$$$:-&&&",
"O@@OOO:&*&#<+#OO>>>%o+5++&5-o5+;o+>>>>>>$#$-.o;O#$$:-&&X",
"@@OO@O:o*&#<+O>2>>>;;;%O+;%O%%;56;O+>>>>2$#-*oOO###;-&**",
"OO#O@O:=X&#,+OO2>>>O,>+OO>>O@++O+++$1>>>2;#-*oOO##$;-X**",
"$$;#OO:=*&#<+OOO2+>1>>>><>>>>>>>>>><>>>O2;;-.oOO#$;;o***",
";;;$OO;oX=#,+OO#35>><>>>>>>>>>>>>>>>>>>-2;%o.o@@O$;:-X**",
";;;$OO;o=o$>+@OOO2+>>>>>>>>>>>>>>>>>>>+2;:-&*%++O$;:-&**",
"$$;#OO$-oo%#++#$$+2O>>>>>>>>>>>>>>>>>+;+;%&&o;++@$:%oX**",
"%%:$#O$%ooo%O+$$#$722+>>>>>>>>>>>>>>>$2$;%*&;@++O$:%=**.",
"&=%:$##;%oo%O@####O,+22O>>>>#>>>>>>>22;$:o2o+>+O$#:o&*  ",
"*X-%:##$%oo-%#########22>OO><><>>OO2+;;;%&&%>>+O;#%=X*  ",
"*X-%%$#$%-oo-%:;$$$$$#222222222%O2;>$;:%&X%@>>+#;;-X**. ",
"*X-%%$O#;%-oo--%;;$;$;2222$#$$;$;$$;;:%&.XO>>+O$;%o*..  ",
"**o-%;###;%---%::;$$$222$#$;#;;$;;;;%%=2.=+<>@#$%-=.2*  ",
" .*o-%%$$#;%---%--%%222$#$;;;$;$$$;%oX2.o$>>O#$:%o&*2.  ",
"   &o--%;##;%----oo--%:$$$;;$;;;%%-o&X&=$>>+$::%o&**.   ",
"   &----%#O#%-%%%%-o=&o%$#$$##;%-&**&%O+>>>+$%%o&X*     ",
"   *oo-o-:$#:%%%%%%-o&&oo-----oo&&&=%@><>++O;%o=X.      ",
"    *=-oo-%;$#;%%%%%%-=***.***..*o;@+>>+O$;;%o&X.       ",
"     *=ooo-%;##;:%%%:%-ooooooo--%#++>++O$::%o=**        ",
"      *=ooo-%;##;%%%%:;:$##OO@@+++++++#;;:%o&X*         ",
"       *&oooo%;$#;::::$##$OOO@+++++OO$$;:%o=X.          ",
"        *&=o=o%;#$$;;;$#$$$#OOO@O@O$;;;%%o&X.           ",
"         .&o&=o%;##$$#$$$#$$##$$$$$##;%-o=X.            ",
"          *X&&&o-%%%%;$;$#$;#$;;;:%%%-o=X*.             ",
"           .*&*X&==oo%%;;;:;;;:;:%oo&X* .               ",
"            **..*X&&=ooo--oooooooo&X*                   ",
"                **&X&&X*X&**********.                   ",
"                .....*******2...                        ",
"                     ******.2.*.                        "};
