/* XPM */
static char * image_name[] = {
"56 56 31 1",
" 	c None",
".	c #101010101010",
"X	c #292929292929",
"o	c #4F4F52525252",
"O	c #A9A9A9A9A7A7",
"+	c #C7C7BFBFBFBF",
"@	c #BDBDB5B5B5B5",
"#	c #A2A29C9C9A9A",
"$	c #999996969696",
"%	c #7B7B7B7B7A7A",
"&	c #292931313131",
"*	c #181818181818",
"=	c #393939393636",
"-	c #5A5A5A5A5A5A",
";	c #8C8C8C8C8C8C",
":	c #8C8C84848484",
">	c #DEDEDADADADA",
",	c #F8F8E9E9E0E0",
"<	c #FCFCF9F9F3F3",
"1	c #FFFFFFFFFFFF",
"2	c #000000000000",
"3	c #080808080808",
"4	c #A9A9A5A59898",
"5	c #424242424242",
"6	c #212129292929",
"7	c #101010100808",
"8	c #F0F0C3C3B0B0",
"9	c #8C8C84847B7B",
"0	c #D9D9ABABA6A6",
"q	c #00000000FFFF",
"w	c #212121211C1C",
"               .XXXXoO++@@OOOOO##$%&****                ",
"               *=o=o-@+++@@OOOOO##%=&&&X.               ",
"              .oO+O@+++@OO@@OO##;;:%%%%-X               ",
"            o%%$+>+>>+@OOOOOOOOO##$::::%o==X            ",
"          .X#>>>++++++@OO@OO@OOO@O#$:%%:%%%o*           ",
"          o#>,>>++O++@@@@OOOOOOOOOO#$$;;%%%-=*          ",
"        *&$><>>++OOOO;;$;::%:::::;$#OO#;:%---=*         ",
"        o@>1<>+++@@$%o=&&&XX&&&&=o-:##O##;%--oo*        ",
"      .o$<1<>>+OO#;-=X222.222..2*X=-%:;#O#:%---&*       ",
"      &+,1<,>@O#;%oX2.22****..***&&X&o%;##$%----o*      ",
"     o#,1<>>+@O:%oX22*o%:;$;%:;;%-&X*&o%;##;%--oo&*     ",
"   .&O11<>>@@O:%o&**&o#><<<<<<<,>;-o&&o-%;$#;%-oo-=*    ",
"   o#><<>>+@;-=X*&o%O+>>>++++++++@O;%o&=o-%:$;%-ooo&*   ",
"   %><,>>+@O-&**o-;+*3&>@+O;$;#O@+++$-oo=o-%##;%-ooo*   ",
"   %><>+++O:=*&%+>>&4o.+++OOO##OOOOO#$:%ooo%#O#;%-ooX   ",
".*o$>>++OO$-X*%+11<&5.*@@O@O#$#######O$:-oo%;##$;%-oX.  ",
"X=O+>++O#$%o*o+11>>5--5oOO@##$$#$$#$$#;%-ooo%:;##;%o&&. ",
"&o+>>++O#%o&X->1>>+5%%o-O@O##$##$###$O$:-oo--%:;$#%oo&* ",
"&o+>>+@@;oX*o;>,>++5%%*@@@@O#O#O#OO#O#O$%oo--%%:$#:oo=* ",
"X=+>++@O%&*X:+>++&&6>@-76&&&&&&&&&&&OO#;%-oo%--;#$%-o&. ",
"o-+++@O:oX.=+<+@@&>5@89-+>%>>%>>O+>$6O$;:-&=%%%:#;:-o&* ",
"O@++@O$%=*&%+<+@+=1o>89%,1O<<;<O*.*+=O##$%&&-%%%:#$:-=&X",
"+++@O@;oX*-O>>+@@*;&089o9;%5.%3-1113=;###%o&=%::%$$;-=&&",
"+++OO@$=.*;>>@OO@=1o>899,1-%<&;<>111$6#;#$%o*o:;;;$:-&&&",
"+++@O@$=*&$<>OOOO&>o089->+-$O>5;%O+111==$$$o.o;$;$$;-=&&",
"++@+@O:oX&$<+OO@OX@=>89---Oq&O>5>$%@>11>5o--*o#$$##;-o&&",
"O@+OOO:=*&#<+OOO@=1o8899X1qo&;;5@11;;$11<%&-*o;#$$$:-&&&",
"O@@OOO:&*&#<+#OO@X+=+89--9<q$%oO;;11>O;1+-$-.o;O#$$:-&&X",
"@@OO@O:o*&#<+OO@+X>5>89-8-9<%o@>>@%;11@<$$#-*oOO###;-&**",
"OO#O@O:=X&#,+OOO+=1o0899,w-=-5-111+O-+15;;#-*oOO##$;-X**",
"$$;#OO:=*&#<+OOO+w$=>89-=>>O@>>5O111><&$;;;-.oOO#$;;o***",
";;;$OO;oX=#,+OO#+=1o088o+1&;<<<<;&111o;$;;%o.o@@O$;:-X**",
";;;$OO;o=o$>+@OOO&1o>77$<11O5><111&->$;$;:-&*%++O$;:-&**",
"$$;#OO$-oo%#++#$$w#&05,<11111--11111%;;$;%&&o;++@$:%oX**",
"%%:$#O$%ooo%O+$$#=1->0-@<11111@O<11;&;;$;%*&;@++O$:%=**.",
"&=%:$##;%oo%O@###w#&8893%$11113-;$>2=;;$:o2o+>+O$#:o&*  ",
"*X-%:##$%oo-%####o5*%0ow559@1;%@--55-;;;%&&%>>+O;#%=X*  ",
"*X-%%$#$%-oo-%:;$$$6;-oo#;---%$@%o-;;;:%&X%@>>+#;;-X**. ",
"*X-%%$O#;%-oo--%;;$&>@9-$$$#-56=o$$;;:%&.XO>>+O$;%o*..  ",
"**o-%;###;%---%::;$$=,o$$#$;#;;$;;;;%%=2.=+<>@#$%-=.2*  ",
" .*o-%%$$#;%---%--%%3*&$#$;;;$;$$$;%oX2.o$>>O#$:%o&*2.  ",
"   &o--%;##;%----oo--*:$$$;;$;;;%%-o&X&=$>>+$::%o&**.   ",
"   &----%#O#%-%%%%-o=&o%$#$$##;%-&**&%O+>>>+$%%o&X*     ",
"   *oo-o-:$#:%%%%%%-o&&oo-----oo&&&=%@><>++O;%o=X.      ",
"    *=-oo-%;$#;%%%%%%-=***.***..*o;@+>>+O$;;%o&X.       ",
"     *=ooo-%;##;:%%%:%-ooooooo--%#++>++O$::%o=**        ",
"      *=ooo-%;##;%%%%:;:$##OO@@+++++++#;;:%o&X*         ",
"       *&oooo%;$#;::::$##$OOO@+++++OO$$;:%o=X.          ",
"        *&=o=o%;#$$;;;$#$$$#OOO@O@O$;;;%%o&X.           ",
"         .&o&=o%;##$$#$$$#$$##$$$$$##;%-o=X.            ",
"          *X&&&o-%%%%;$;$#$;#$;;;:%%%-o=X*.             ",
"           .*&*X&==oo%%;;;:;;;:;:%oo&X* .               ",
"            **..*X&&=ooo--oooooooo&X*                   ",
"                **&X&&X*X&**********.                   ",
"                .....*******2...                        ",
"                     ******.2.*.                        "};
