/* XPM */
static char * image_name[] = {
"48 48 4 1",
" 	c #000000000000",
".	c #AEBAAAAAAEBA",
"X	c #514455555144",
"o	c #FFFFFFFFFFFF",
"                                                ",
"      .XXXXXXXXXXXXXXXXXXXXXXXXXXXXXXXXXX.      ",
"     XXXXXXXXXXXXXXXXXXXXXXXXXXXXXXXXXXXXXX     ",
"    .XXXXXXXXXXXXXXXXXXXXXXXXXXXXXXXXXXXXXX.    ",
"  o XXX..................................XXX    ",
"  o XXX.XXXXXXXXXXXXXXXXXXXXXXXXXXXXXXXX.XXX    ",
"  o XXX.XX X X X X X X X X X X X X X X X.XXX    ",
" oo XXX.X ....... . . . X X X X X X X XX.XXX    ",
"  o XXX.XX.. . . X X X X X X X X X X X X.XXX    ",
"  o XXX.X . . X X X X X Xoooo X X X X XX.XXX    ",
"  o XXX.XX.. X X X X X X oooo  X X X X X.XXX    ",
"  o XXX.X . X X X X X X Xoooo X X X X XX.XXX    ",
" oo XXX.XX . X X X Xoooo oooo oooo X X X.XXX    ",
"  o XXX.X . X X X X oooo oooo oooo  X XX.XXX    ",
"  o XXX.XX X X X X Xoooo oooo oooo ooooX.XXX    ",
"  o XXX.X . X Xoooo oooo oooo oooo oooo .XXX    ",
"  o XooooX X X oooo oooo oooo oooo oooo .XXX    ",
" oo Xoooo . X Xoooo oooo oooo oooo oooo .XXX    ",
"  o Xoooo  X X oooo oooo oooo oooo oooo .XXX    ",
"  o Xoooo X X Xoooo oooo oooo oooo oooo .XXX    ",
"  o Xoooo  X X oooo oooo oooo oooo oooo .XXX    ",
"  o Xoooo ooooXoooo oooo oooo oooo oooo oooo    ",
" oo Xoooo oooo oooo oooo oooo oooo oooo oooo    ",
"  o Xoooo oooo oooo oooo oooo oooo oooo oooo    ",
"  o Xoooo oooo oooo oooo oooo oooo oooo oooo    ",
"  o Xoooo oooo oooo oooo oooo oooo oooo oooo    ",
"  o Xoooo oooo oooo oooo oooo oooo oooo oooo    ",
" oo Xoooo oooo oooo oooo oooo oooo oooo oooo    ",
"  o Xoooo oooo oooo oooo oooo oooo oooo oooo    ",
"  o Xoooo oooo oooo oooo oooo oooo oooo oooo    ",
"  o Xoooo oooo oooo oooo oooo oooo oooo oooo    ",
"  o  oooo oooo oooo oooo oooo oooo oooo oooo    ",
" oo  oooo oooo oooo oooo oooo oooo oooo oooo    ",
"  o  oooo oooo oooo oooo oooo oooo oooo oooo    ",
"  o  oooo oooo oooo oooo oooo oooo oooo oooo    ",
"  o  oooo oooo oooo oooo oooo oooo oooo oooo    ",
"  o .oooo oooo oooo oooo oooo oooo oooo oooo    ",
"  oooooooooooooooooooooooooooooooooooooooooooo  ",
"  . o    o    o    o    o    o    o    o    o   ",
" XXXo XXXo XXXo XXXo XXXo XXXo XXXo XXXo XXXo X ",
" XXXX XXXX XXXX XXXX XXXX XXXX XXXX XXXX XXXX X ",
" .............................................. ",
" XXXXXXXXXXXXXXXXXXXXXX..XXXXXXXXXXXXXXXXXXXXXX ",
" .......................X...................... ",
" XXXXXXXXXXXXXXXXXXXXXXXXXXXXXXXXXXXXXXXXXXXXXX ",
" XXXXXXXXXXXXXXXXXXXXXXXXXXXXXXXXXXXXXXXXXXXXXX ",
"                                                ",
"                                                "};
