/* XPM */
static char * image_name[] = {
"48 48 4 1",
" 	c #000000000000",
".	c #514455555144",
"X	c #AEBAAAAAAEBA",
"o	c #FFFFFFFFFFFF",
"                                                ",
"                                                ",
"                                                ",
"                                                ",
"                             ....               ",
"                            ......              ",
"                           ..X.....             ",
"                          ..XXo.....            ",
"                         ..XXooo.....           ",
"                        ..XXoooXX....           ",
"                       ..XXoooXX.....           ",
"                      ..XXoooXX..  .            ",
"                     ..XXoooXX..  .             ",
"                    ..XXoooXX..  .              ",
"                   ..XXoooXX..  .               ",
"                  ..XXoooXX..  .                ",
"                 ..XXoooXX..  .                 ",
"                ..XXoooXX..  .                  ",
"               ..XXoooXX..  .                   ",
"              ..XXoooXX..  .                    ",
"             ..XXoooXX..  .                     ",
"            ..XXoooXX..  .                      ",
"           ..XXoooXX..  .                       ",
"           ..XoooXX..  .                        ",
"          ..XXoXXX..  .                         ",
"          ..XoXX...  .                          ",
"         ..XoXX..   .                           ",
"         ..XoX..  ..                            ",
"        ..XoX..  ..                             ",
"        ..oXX. ..                               ",
"       ..XoX. ..                                ",
"       .XoX. .                                  ",
"      X.oX. .                                   ",
"      .oo. .                                    ",
"      .o.                                       ",
"       .                                        ",
"                                                ",
"                                                ",
"                                                ",
"                                                ",
"                                                ",
"                                                ",
"                                                ",
"                                                ",
"                                                ",
"                                                ",
"                                                ",
"                                                "};
