#define face_width 64
#define face_height 64
static unsigned char face_bits[] = {
   0x00, 0x00, 0x00, 0x00, 0x00, 0x00, 0x00, 0x00, 0x00, 0x00, 0x00, 0xfc,
   0x03, 0x00, 0x00, 0x00, 0x00, 0x00, 0xe0, 0x03, 0x04, 0x00, 0x00, 0x00,
   0x00, 0x00, 0x1c, 0x00, 0x08, 0x00, 0x00, 0x00, 0x10, 0x42, 0x17, 0x00,
   0x88, 0x10, 0x42, 0x04, 0x00, 0x80, 0x20, 0x44, 0x10, 0x00, 0x00, 0x00,
   0x00, 0x40, 0x40, 0x4e, 0x10, 0x00, 0x00, 0x00, 0x00, 0x40, 0x80, 0x51,
   0x10, 0x00, 0x00, 0x00, 0x20, 0x23, 0x80, 0xa0, 0x0f, 0x10, 0x00, 0x04,
   0xc0, 0x2c, 0xf8, 0x3f, 0x80, 0x00, 0x08, 0x00, 0x20, 0xd0, 0x07, 0xe0,
   0x00, 0x80, 0x00, 0x00, 0x10, 0x1c, 0x00, 0x00, 0x01, 0x00, 0x00, 0x08,
   0x90, 0x17, 0x00, 0x00, 0x02, 0x00, 0x20, 0x00, 0x08, 0x00, 0x00, 0x00,
   0x04, 0x00, 0x00, 0x00, 0x88, 0xff, 0x00, 0x70, 0xa4, 0x07, 0xf8, 0x00,
   0x78, 0x00, 0x0f, 0x18, 0x64, 0x38, 0x06, 0x03, 0x04, 0x00, 0x30, 0x14,
   0x1a, 0x20, 0x01, 0x04, 0x04, 0x00, 0x40, 0x6c, 0x09, 0xc0, 0x00, 0x08,
   0x04, 0x02, 0x81, 0x00, 0x0c, 0x00, 0x00, 0x08, 0x08, 0x01, 0x81, 0x0c,
   0x02, 0x41, 0x00, 0x10, 0x50, 0x01, 0x8d, 0xf2, 0x03, 0x01, 0x00, 0x10,
   0x00, 0x01, 0xc7, 0xe1, 0x02, 0x01, 0x00, 0x10, 0x00, 0x82, 0xaa, 0x18,
   0x82, 0x03, 0x00, 0x20, 0x00, 0x44, 0xc4, 0x00, 0x82, 0x03, 0x00, 0x20,
   0x00, 0x28, 0x38, 0x02, 0xc4, 0x07, 0x00, 0x20, 0x08, 0x00, 0x00, 0x02,
   0xc0, 0x07, 0x00, 0x20, 0x00, 0x00, 0xfc, 0x01, 0xe0, 0x0f, 0x00, 0x20,
   0x00, 0x00, 0x02, 0x02, 0xe0, 0x0d, 0x00, 0x20, 0x80, 0x08, 0x01, 0x04,
   0xe0, 0x0d, 0x00, 0x24, 0x00, 0x80, 0x00, 0x08, 0xe0, 0x0e, 0x00, 0x10,
   0x08, 0x40, 0x00, 0x00, 0xc0, 0x07, 0x08, 0x20, 0x00, 0x40, 0x00, 0x00,
   0x80, 0x03, 0x08, 0x20, 0xc0, 0x4f, 0x00, 0x00, 0x00, 0x00, 0x08, 0x40,
   0x30, 0xb0, 0x00, 0x02, 0x00, 0x00, 0x1c, 0x40, 0x08, 0x00, 0x01, 0x02,
   0x00, 0x00, 0x1c, 0x40, 0x04, 0x00, 0x00, 0x02, 0x00, 0x00, 0x1e, 0x40,
   0x04, 0x00, 0x00, 0x07, 0x00, 0x00, 0x3e, 0x40, 0x02, 0x00, 0x00, 0x07,
   0x00, 0x00, 0x3e, 0x40, 0x02, 0x00, 0x80, 0x07, 0x00, 0x00, 0x7b, 0x40,
   0x02, 0x00, 0xc0, 0x07, 0x00, 0x00, 0x7b, 0x40, 0x01, 0x00, 0xc0, 0x07,
   0x00, 0x00, 0x77, 0x40, 0x01, 0x00, 0xe0, 0x0f, 0x00, 0x00, 0x3e, 0x40,
   0x01, 0x00, 0x60, 0x0f, 0x00, 0x00, 0x1c, 0x40, 0x01, 0x00, 0x70, 0x1f,
   0x00, 0x00, 0x00, 0x40, 0x02, 0x00, 0xb0, 0x1f, 0x00, 0x00, 0x00, 0x21,
   0x02, 0x00, 0xb0, 0x1f, 0x00, 0x00, 0x00, 0x21, 0x24, 0x00, 0x70, 0x1e,
   0x00, 0x00, 0x00, 0x11, 0x10, 0x00, 0xe0, 0x0f, 0x00, 0x00, 0x00, 0x0a,
   0x10, 0x00, 0xc0, 0x07, 0x00, 0x00, 0x00, 0x02, 0x10, 0x00, 0x00, 0x00,
   0x00, 0x00, 0x00, 0x02, 0x10, 0x00, 0x02, 0x00, 0x00, 0x00, 0x00, 0x02,
   0x20, 0x00, 0x02, 0x00, 0x00, 0x40, 0x00, 0x02, 0x20, 0x00, 0x02, 0x00,
   0x00, 0x40, 0x00, 0x02, 0x40, 0x00, 0x02, 0x80, 0x00, 0x20, 0x00, 0x02,
   0x80, 0x80, 0x04, 0x40, 0x01, 0x2c, 0x00, 0x11, 0x00, 0x44, 0x04, 0x20,
   0x8a, 0x81, 0x00, 0x01, 0x00, 0x18, 0x08, 0x08, 0x50, 0x00, 0x81, 0x00,
   0x80, 0x00, 0xa0, 0x05, 0x00, 0x00, 0x5a, 0x00, 0x08, 0x00, 0x00, 0x00,
   0x00, 0x10, 0x00, 0x00, 0x00, 0x40, 0x00, 0x00, 0x01, 0x01, 0x00, 0x00,
   0x00, 0x02, 0x02, 0x08, 0x08, 0x00, 0x00, 0x04, 0x00, 0x00, 0x90, 0x00,
   0x00, 0x00, 0x22, 0x00, 0x00, 0x00, 0x00, 0x00, 0x00, 0x20, 0x00, 0x00,
   0x10, 0x00, 0x00, 0x00, 0x00, 0x00, 0x00, 0x08 };
