/* XPM */
static char * image_name[] = {
"48 48 242 2",
"  	c None",
". 	c #A699AAAAA699",
"X 	c #C71BCB2BC71B",
"o 	c #A699A6998E38",
"O 	c #9E79A28971C6",
"+ 	c #9658AAAA8617",
"@ 	c #AEBABEFBA699",
"# 	c #9658A2899658",
"$ 	c #965892489E79",
"% 	c #965892489658",
"& 	c #EFBEEFBEEFBE",
"* 	c #CF3CDF7DCF3C",
"= 	c #DF7DC71BC71B",
"- 	c #9E7971C64103",
"; 	c #861771C62081",
": 	c #71C671C61040",
"> 	c #861761851040",
", 	c #71C671C60000",
"< 	c #71C661850000",
"1 	c #618571C60000",
"2 	c #71C682071040",
"3 	c #71C682072081",
"4 	c #71C6924830C2",
"5 	c #8617A6996185",
"6 	c #A6998A289E79",
"7 	c #9E7992489658",
"8 	c #DF7DDF7DDF7D",
"9 	c #CF3CBEFBAEBA",
"0 	c #9E798A285965",
"q 	c #8617861730C2",
"w 	c #965871C630C2",
"e 	c #965871C62081",
"r 	c #861771C61040",
"t 	c #618582071040",
"y 	c #6185861728A2",
"u 	c #71C692482081",
"i 	c #71C6A6994103",
"p 	c #9E7982074103",
"a 	c #AEBA71C64103",
"s 	c #9E79820730C2",
"d 	c #9E7971C630C2",
"f 	c #965861852081",
"g 	c #71C6A28930C2",
"h 	c #8617A6994924",
"j 	c #861782078617",
"k 	c #CF3CBEFBCF3C",
"l 	c #BEFB82076185",
"z 	c #AEBA82075144",
"x 	c #AEBA71C65144",
"c 	c #71C661851040",
"v 	c #61858A284103",
"b 	c #8617A2894103",
"n 	c #71C6AEBA4103",
"m 	c #8617AEBA5144",
"M 	c #861792488617",
"N 	c #BEFB71C66185",
"B 	c #AEBA82074103",
"V 	c #8617861771C6",
"C 	c #CF3CDF7DDF7D",
"Z 	c #BEFB82075144",
"A 	c #71C6BEFB5144",
"S 	c #8617C30B69A6",
"D 	c #69A6C71B69A6",
"F 	c #71C68A2869A6",
"G 	c #618571C66185",
"H 	c #965882079658",
"J 	c #CF3C69A669A6",
"K 	c #CF3C82076185",
"L 	c #208100001040",
"P 	c #208100000000",
"I 	c #104000000000",
"U 	c #8617C30B5144",
"Y 	c #8617CF3C6185",
"T 	c #71C671C671C6",
"R 	c #CF3C820771C6",
"E 	c #8617CF3C71C6",
"W 	c #71C6820771C6",
"Q 	c #DF7D820771C6",
"! 	c #104010400000",
"~ 	c #BEFB71C65144",
"^ 	c #514451445144",
"/ 	c #CF3C9A699658",
"( 	c #EFBEA2899E79",
") 	c #DF7D82078617",
"_ 	c #8617DF7D71C6",
"` 	c #8617DF7D8617",
"' 	c #E79D8A288617",
"] 	c #EFBEAEBA9E79",
"[ 	c #9658DF7D8617",
"{ 	c #AEBAEFBE9E79",
"} 	c #69A6659569A6",
"| 	c #CF3C82078617",
" .	c #EFBE82079658",
"..	c #8617EFBE8617",
"X.	c #492449244924",
"o.	c #514465956185",
"O.	c #618561856185",
"+.	c #DF7D71C69658",
"@.	c #DF7D924871C6",
"#.	c #C71B924871C6",
"$.	c #8617DF7D9658",
"%.	c #28A228A228A2",
"&.	c #CF3C71C68617",
"*.	c #DF7D71C68617",
"=.	c #EFBE71C68617",
"-.	c #8617CF3C8617",
";.	c #71C6DF7D8617",
":.	c #28A2451430C2",
">.	c #C71BAAAAAEBA",
",.	c #CF3C69A68E38",
"<.	c #71C6CB2B8E38",
"1.	c #41038E3869A6",
"2.	c #28A245144103",
"3.	c #BEFB61858617",
"4.	c #CF3C61858617",
"5.	c #000010400000",
"6.	c #71C6CF3C8617",
"7.	c #6185CF3C8617",
"8.	c #4924AAAA69A6",
"9.	c #6185BEFB8617",
"0.	c #BEFB51448617",
"q.	c #C71B45148617",
"w.	c #AEBA51448617",
"e.	c #AEBA65958617",
"r.	c #5144BEFB8617",
"t.	c #208161854103",
"y.	c #AEBA514471C6",
"u.	c #6185AEBA8617",
"i.	c #4924BEFB71C6",
"p.	c #5144AEBA8617",
"a.	c #9E79514471C6",
"s.	c #AEBA41038617",
"d.	c #410341034103",
"f.	c #4103BEFB8617",
"g.	c #4103AEBA71C6",
"h.	c #9E79410371C6",
"j.	c #AEBA30C28617",
"k.	c #000004101040",
"l.	c #5144A2898617",
"z.	c #9E7941038617",
"x.	c #9E7930C28617",
"c.	c #8E38410371C6",
"v.	c #965830C271C6",
"b.	c #965828A28617",
"n.	c #28A286178E38",
"m.	c #30C2A28971C6",
"M.	c #4103A2898617",
"N.	c #28A2AAAA71C6",
"B.	c #9E792CB271C6",
"V.	c #9658208171C6",
"C.	c #8617208171C6",
"Z.	c #8E3865958617",
"A.	c #514461855144",
"S.	c #186151445144",
"D.	c #2081924871C6",
"F.	c #28A2861769A6",
"G.	c #30C2924871C6",
"H.	c #861730C271C6",
"J.	c #8617104071C6",
"K.	c #71C6104071C6",
"L.	c #6185104071C6",
"P.	c #69A6249269A6",
"I.	c #618569A68617",
"U.	c #861786179658",
"Y.	c #000071C66185",
"T.	c #1040820771C6",
"R.	c #2081820771C6",
"E.	c #104028A228A2",
"W.	c #71C610406185",
"Q.	c #618510408617",
"!.	c #71C610408617",
"~.	c #69A649248E38",
"^.	c #208169A669A6",
"/.	c #1040618571C6",
"(.	c #104071C671C6",
").	c #104082076185",
"_.	c #71C620818617",
"`.	c #618530C28617",
"'.	c #71C630C29E79",
"].	c #61854D346185",
"[.	c #208130C24924",
"{.	c #30C271C69658",
"}.	c #104071C68617",
"|.	c #104061858617",
" X	c #00006DB669A6",
".X	c #104010401040",
"XX	c #71C620819658",
"oX	c #71C641039E79",
"OX	c #86174103AEBA",
"+X	c #69A66595AEBA",
"@X	c #71C65144AEBA",
"#X	c #49244D348617",
"$X	c #51448207AEBA",
"%X	c #410371C6AEBA",
"&X	c #208171C68617",
"*X	c #208165958617",
"=X	c #1040410330C2",
"-X	c #618520818617",
";X	c #71C64514AEBA",
":X	c #86176185CF3C",
">X	c #861771C6CF3C",
",X	c #86178207DF7D",
"<X	c #9E79A289DF7D",
"1X	c #71C68207DF7D",
"2X	c #69A69248CF3C",
"3X	c #51448207BEFB",
"4X	c #41038207AEBA",
"5X	c #410371C69E79",
"6X	c #000082076185",
"7X	c #71C630C29658",
"8X	c #86174D34AEBA",
"9X	c #86175144BEFB",
"0X	c #86176185BEFB",
"qX	c #9658AEBADF7D",
"wX	c #71C68207CF3C",
"eX	c #514471C6AEBA",
"rX	c #410382079E79",
"tX	c #618510406185",
"yX	c #71C66185BEFB",
"uX	c #86178207EFBE",
"iX	c #61858207CF3C",
"pX	c #30C282079E79",
"aX	c #30C271C69E79",
"sX	c #861771C6C71B",
"dX	c #965871C6DF7D",
"fX	c #9E79AEBADF7D",
"gX	c #71C69248DF7D",
"hX	c #61858207BEFB",
"jX	c #618571C6C71B",
"kX	c #96588207EFBE",
"lX	c #861771C671C6",
"zX	c #86179248DF7D",
"xX	c #861771C6DF7D",
"cX	c #104020811040",
"vX	c #861730C29E79",
"bX	c #208110402081",
"nX	c #514471C6BEFB",
"mX	c #30C251448617",
"MX	c #4924451469A6",
"NX	c #86178207CF3C",
"BX	c #8E388A28E79D",
"VX	c #410330C25144",
"                                . X X X X o O o O O + . @ . # $ % o                             ",
"                          & X * = o - ; ; : > , < 1 : 2 3 4 5 o 6 o 7                           ",
"                      & X 8 9 0 q w ; e r ; : : 1 : t 3 y y u 4 i O # $ #                       ",
"                  & . * = p a s d w w ; f r > , < , : 2 3 u 4 g q g h 5 j %                     ",
"                & k 8 l z x p - q d w w ; ; : c 1 : t 3 u 4 4 v g b n m i j M $                 ",
"              & X X N z x B a - - w d e e r > , < 1 : 2 3 u q g b i b n m i V j 6               ",
"            & C 9 l Z l z x p a s - q w ; ; : : 1 : t 3 y 4 g i n h n m A S D F G H             ",
"          & X 9 J l K Z L z P p a d d I e r > , L , : 2 L u q I b n m U m I S Y F T %           ",
"        & k X R R R l l P P z P p - I P ; ; : c P : t 3 P 4 g P n m A 5 P P Y E E G W %         ",
"        . 8 Q R Q K J ! N Z ~ ! a s P ! w r > ! < 1 : ! 4 g P i h n m U P I S Y E Y ^ M         ",
"      & * / ( ) R R K P P P P z B P p P e ; : P 1 : t P 4 v P b n m A P D P _ E _ ` D ^ #       ",
"      X = ' ' ] ) Q Q I K l N z L I P I d e P , < : P u q g P n m U P I L I E _ [ _ { v }       ",
"    & 8 |  .'  .( ) I Q R R l l P x p P q w I c 1 P y 4 g P n m A S I E _ P _ ` ..{ { ` X.%     ",
"    X X  .)  .'  .] P Q Q K J ! N z x ! d e f ! P t 3 u b I P ! P I S Y E I [ ..{ ..[ ` o.O.    ",
"  & * | | +.)  .'  .( ) @.) #.R l l z x s w ; r 1 : u 4 g m A S D E _ ` _ ` ..{ ..$...$.D %.#   ",
"    k &.*.*.+.) =.)  .] ' Q ) K K l ~ B a w w q ; 3 y g b n 5 U S E -._ [ { { ..` ` $.;.-.:.T   ",
"    >.,.&.,.&.+.| +.)  .(  .' ) R R l N z / @ . . . + 5 n 5 D E _ ` ..{ { $.;.$.;.<.;.<.;.1.2.% ",
"  k 3.4.4.&.4.&.*.&.*.) +.]  .' ) R J #.>.M 5.      5.V V A S _ [ ..{ ..$.;.-.;.6.6.6.7.<.8.%.. ",
"  k 3.3.3.3.3.4.3.,.&.,.&.+.(  .' ) | >.o.              W W _ ` { { ..$.;.<.;.6.7.7.7.9.7.9.%.H ",
"  k 0.J 0.3.q.J 4.3.4.&.4.&.*.&.*.) >.V 5.              5.G D { ` ;.6.6.6.7.<.D <.9.9.D 9.D %.M ",
"  k w.0.e.0.e.0.3.3.3.0.3.4.3.,.&.,.. 5.                    o.<.;.6.7.9.7.9.r.9.r.9.r.9.r.9.t.^ ",
"  k q.y.0.y.q.y.0.y.0.w.0.y.0.3.0.| H                       ^ D 9.9.9.r.u.i.u.i.p.i.p.8.p.8.t.^ ",
"  k w.w.a.s.w.w.a.s.w.w.w.w.w.w.y.6 M                       d.8.r.p.r.p.i.p.f.p.g.p.g.p.g.p.t.d.",
"  k s.h.s.h.s.h.s.h.s.h.s.h.s.h.j.e.j               5.    k.d.8.l.g.l.g.l.g.l.g.l.g.l.g.l.g.2.d.",
"    h.z.h.z.h.x.h.z.c.x.c.x.v.b.v.z.M 5.                    :.n.m.M.m.M.m.M.m.M.N.M.N.M.g.M.t.^ ",
"    x.B.x.c.B.v.x.v.B.v.V.v.V.C.V.C.Z.T 5.              5.A.S.D.F.D.G.G.G.m.1.m.1.m.1.m.M.m.2.X.",
"    c.x.v.b.v.b.v.b.H.V.C.C.C.J.K.L.P.I.k.              U.%.Y.T.T.R.D.D.D.G.N.G.N.n.m.G.m.n.E.U.",
"    B.v.V.v.V.H.V.C.V.C.J.K.J.W.Q.L.!.~.} k.5.k.5.  5.G %.^./.Y.(.).^.).R.D.F.D.F.D.G.G.G.G.E.j ",
"    c.b.H.V.C.C.C.C.P.J.K.!.!.L.L._.`.'.~.].^ T G O.%.[.{.{.}.|. X(.Y.(.T.R.T.R.D.R.D.R.D.R..X% ",
"    Z.C.V.C.J.C.J.W.Q.W.Q.L.L.L.!._.XXoXOX+X@X#X#X#X+X$X%X{.{.&X*X(./.Y.(.Y.^.).R.).R.R.R.=X%.  ",
"    % C.P.J.P.J.K.!.L.!.L.!.-X_.`.'.oX;X@X:X>X,X<X1X2X3X4X5Xn.{.}.&X(.(.Y. X6X(.).(.T.R.).E.G   ",
"    % H.J.W.K.W.Q.L.L.L.K.P._._.XX7X8X;X9X0X>X,XqXwXwX$XeXrX5X{.{.&X&X(./.Y./.Y.(.Y.(.).^..X%   ",
"    # Z.K.K.tXK.L.!.L.!.-XXX`.'.oXoX;X9XyX:X>XuX<X,XiXiX$XeXpXaXn.{.&X&X(.}. X XY.(.Y.(.=X^     ",
"    7 j K.L.Q.L.Q.L.!._.XX_.XX7X'.oXOX@X9XsXdX,XfXgXwXhXjX$XeX5X5X{.{.&X*X(./.(./.Y./.Y..Xj     ",
"    % % T !.L.K.L.!.-XXX`.XX7X'.oX;X@X9XyX:X,XkX<X,X2XiX3X3X4X%XpXaXn.{.&X&X}.}. X/.Y.E.X.      ",
"      # lXP.K.L.!._.XX_.XX7X'.oXOX@X9XyX:X>XdX,XqXzX1XhXjX$XeXrX5X{.aX{.{.&X&X(.*X(.S.! 7       ",
"        M I.P.!.-XXX`.XX7X'.oX;X@X9X+X:X>XxX,XuX<X,X2XwXhXhX$XeXrX5Xn.aXn.{.&X*X}./.cX}         ",
"          j } _.XX_.XX7X'.~.vXoXOX@X9X0X:X>XdX,XfXzX,XwXiX3XjX$XeXrX5X{.{.*X{.&X*XE.X.          ",
"          % G ].`.XX7X'.oX;XoXOX@X9XyX:XjXxX,XkX<XuXgXwXhXiX3X3X4X%XpX5Xn.aXn.{.=X%.%           ",
"            H O.].7X'.~.vXoXOX@X8X8X9X0X:X>XdX,XqXzX,XwXwXhXhX$XeXrX5XrX5X{.{.E.bX%             ",
"              H O.].~.'.oXOX@X9X+X9XyX:X>XxX,XkX<XuXgX1X2XiX3X3X$XeXrX%XpX{.E.%.j               ",
"                  T X.~.OXoXOX@X9XyX0X:X:X>XdX,XfXzX,XwXwXhXjX$XnX4XeX5XmX.XX.                  ",
"                    W d.X.oX@X9XyX:XsX>X>XxX,XkX<XuXgX1XiXiXhXhX$XnX5X[.k.} %                   ",
"                      % } :.MX~.9X0X:X>XsXNXBXzXqXzX,XwXwXhXiX$XI.2..XX.7                       ",
"                          H o.%.%.MX+X:X>XxX,XkXBXuXgX1XiX+XS.%..X^ j %                         ",
"                              % } :.bX%.%.X.MXMXMXMXVX%.bX.X%.O.%                               ",
"                                    # U.W ^ ^ d.2.^ X.U.M % %                                   ",
"                                                                                                "};
