/* XPM */
static char *magick[] = {
/* columns rows colors chars-per-pixel */
"17 14 144 2",
"   c #5018478f3abe",
".  c #54534a313d3b",
"X  c #57764cd03f25",
"o  c #574c556c519c",
"O  c #661256d343c1",
"+  c #6fbd5fd54c11",
"@  c #6f0460144dae",
"#  c #726a61984c9f",
"$  c #741b62d94d4b",
"%  c #79556f5b5cb2",
"&  c #7a3c6f226095",
"*  c #773c73386bb7",
"=  c #7cbe76af6b5d",
"-  c #7251727672bb",
";  c #73d57468757b",
":  c #7e277ee0809a",
">  c #804e6ee758a5",
",  c #84d97b7669aa",
"<  c #85ed7bac687f",
"1  c #860f7bc96896",
"2  c #87507cf56997",
"3  c #8d337aeb6295",
"4  c #8db87bd063fa",
"5  c #8a307f7a6b75",
"6  c #8cb081216b60",
"7  c #99f6815f6209",
"8  c #a87c8d706a2d",
"9  c #a5f9926e7238",
"0  c #a0f6933e797c",
"q  c #c374a4097b6f",
"w  c #c452a4a77be1",
"e  c #832a832a84ae",
"r  c #86d389698e0b",
"t  c #873089c08e59",
"y  c #8987874b8457",
"u  c #8c7a89438500",
"i  c #8918891889e0",
"p  c #899b899b8a62",
"a  c Gray54",
"s  c #8a848a848b4a",
"d  c #88a68add8ed1",
"f  c #8a448c2d8f92",
"g  c #8c448c448d03",
"h  c #8e2e8e2e8ef4",
"j  c Gray56",
"k  c #8fc7922b96a1",
"l  c #915091509216",
"z  c #935e935d932b",
"x  c #92d893c19549",
"c  c #92ff94b49786",
"v  c Gray58",
"b  c #9584958895da",
"n  c #95a0962a96fa",
"m  c #961a961a95ed",
"M  c Gray59",
"N  c #977497769764",
"B  c #96b897ac9958",
"V  c #97be97be9884",
"C  c #97e99a189d3c",
"Z  c #9a609a609a60",
"A  c #9a979abc9b63",
"S  c #9b259b169afb",
"D  c #98d89ab39d8a",
"F  c #98479b0a9ec2",
"G  c #9aac9c819fdb",
"H  c Gray61",
"J  c #9d359d359d98",
"K  c Gray62",
"L  c #99db9cc3a0a3",
"P  c #9a909caea0a2",
"I  c #9bbc9f83a496",
"U  c #9cf09e76a151",
"Y  c #9dea9eada017",
"T  c #9c3d9eeba285",
"R  c #9cfc9f94a312",
"E  c #9e62a040a2c5",
"W  c #9de3a100a528",
"Q  c #9f82a295a6ae",
"!  c #a016a0139fdb",
"~  c #b5ffa5118531",
"^  c #bc26a9f78864",
"/  c #bc51ab488a80",
"(  c #a0d3a0cca0bf",
")  c #a041a041a107",
"_  c #a218a215a1dd",
"`  c #a200a200a2c6",
"'  c Gray64",
"]  c #a0a9a2a4a54b",
"[  c #a38ca38ca437",
"{  c #a44da44aa446",
"}  c Gray65",
"|  c #a728a71da6dd",
" . c #a749a748a746",
".. c #a16ba447a818",
"X. c Gray66",
"o. c #a9bda9bea9b9",
"O. c #a9ffa9ffaabb",
"+. c #aa89aa86aa82",
"@. c Gray67",
"#. c #ab75abe4ac77",
"$. c #ab33abe2ad06",
"%. c #abc3ad40af38",
"&. c #ac81ac83ac86",
"*. c #ad22ad11acf9",
"=. c Gray68",
"-. c #ac1cadb7afda",
";. c #ad2bade9aee8",
":. c #ae3aae3cae3f",
">. c #aeb0aeecaf3c",
",. c Gray69",
"<. c #b277b277b268",
"1. c Gray70",
"2. c Gray71",
"3. c #b714b714b714",
"4. c #b9b4b9b4b9fd",
"5. c #bbe0bbe0bbe0",
"6. c #bc77bc77bc77",
"7. c #c01aac0d8862",
"8. c #c18cae0d8ab9",
"9. c #c2aaaeea8b3c",
"0. c #c39aafb28bd4",
"q. c #c756b1aa8a8e",
"w. c #dd3fc77b9f04",
"e. c #e4c8ce75a4c3",
"r. c #ea42d1f9a493",
"t. c #f482dd91b2b0",
"y. c Wheat",
"u. c #fab6e179b24c",
"i. c #f83ae0fbb586",
"p. c #ff7be60db686",
"a. c #fd44e5a7b95f",
"s. c #ff1de75ebab7",
"d. c #ffffe85eb789",
"f. c #ffffead5bd8c",
"g. c #ffffeb06bdc1",
"h. c #ffffee9dbe6f",
"j. c #c08fc08fc08f",
"k. c #c153c153c153",
"l. c Gray76",
"z. c Gray80",
"x. c #fffff386c27d",
"c. c #fffff553c3c4",
"v. c #fffff6a4c750",
"b. c #fffffa72c7dc",
/* pixels */
"z.k.k.k.k.k.j.6.k.k.k.j.j.j.j.k.4.",
"k.<.>.<.<.<.,.<.,.<.>.<.,.,.,.<.o.",
"5.>.X.X.X.X.X.X.X.X.>.>.X.&.X.>.' ",
"5.>.X.X.X.>.>.>.,.-.W W ,.>.X.X.' ",
"5.X.} X.>.R R R I u 3 4 y ..$.X.! ",
"3.} ' $.: O $ # # 7 w q 8 & ] X.K ",
"3.' ' D , q.0.9.9.^ ~ / 9 > L } D ",
"<.! ' k 0 b.g.g.g.g.g.v./ @ D { M ",
"<.K K L = p.t.t.t.t.t.a.w.X C ' M ",
">.K S K * u.i.t.t.t.t.a.e.. D K x ",
">.S M R - r.c.h.h.h.h.x.d.  c K j ",
"X.M v S ; % 5 2 < < < 2 6 o B M j ",
"X.M z M N f d d t d t t d c M M j ",
"} j i i i d i i i i i g i i i i e "
};
