/* XPM */
static char *magick[] = {
/* columns rows colors chars-per-pixel */
"17 14 144 2",
"   c Gray0",
".  c #297826b825ba",
"X  c #316235f644d7",
"o  c #3a2f4a5e22c2",
"O  c #420b3a9d3834",
"+  c #57e459453f3a",
"@  c #5b736b561ba3",
"#  c #6b0b5a0637a8",
"$  c #642b65232575",
"%  c #6f387c2e2e42",
"&  c #703e681a3ff9",
"*  c #610f5ecc6105",
"=  c #762c6c29480c",
"-  c #7b806bb54d0d",
";  c #78a8676555e1",
":  c #66aa66b5619a",
">  c #6e0b65d3602a",
",  c #6a0a67b669ec",
"<  c #6e636bed6e74",
"1  c #6ffd6eab7344",
"2  c #771f763178c4",
"3  c #7e1e7708705f",
"4  c #798973cd79bf",
"5  c #7c167b1d7e59",
"6  c #94873dfc6850",
"7  c #80bc7da880b1",
"8  c #83a87fe383ef",
"9  c #83c0878b2e89",
"0  c #9909a3c92f01",
"q  c #86dc81b3678a",
"w  c #9bb491c8719b",
"e  c #bf90b4285fb3",
"r  c #d018befd7563",
"t  c #84fe825d8d18",
"y  c #887e851f8818",
"u  c #8e49885c81d8",
"i  c #8dd28a6b8f43",
"p  c #90488c9b91d1",
"a  c #94ec9151924c",
"s  c #96dd92fe97a8",
"d  c #96d2936d9792",
"f  c #9714933797de",
"g  c #9781939f984b",
"h  c #95c491cc9e48",
"j  c #97f6941a98c0",
"k  c #9819943c98e2",
"l  c #9861946e9930",
"z  c #986994a89b30",
"x  c #99bb95619ab6",
"c  c #9a1d963d9adf",
"v  c #991395d19c18",
"b  c #9c09982b9cd2",
"n  c #9d0499559dc5",
"m  c #9f379b5aa001",
"M  c #a0229bfea3ff",
"N  c #a21b9df2a1e9",
"B  c #a2779e7aa2dc",
"V  c #a31e9f02a2ec",
"C  c #a38c9f7ba38a",
"Z  c #a17d9e7ba592",
"A  c #a4dea0d2a4c8",
"S  c #a532a109a4cf",
"D  c #a57ba16ca567",
"F  c #a5bfa1d0a689",
"G  c #a640a224a640",
"H  c #a741a32fa735",
"J  c #a782a3a4a9f1",
"K  c #a847a434a84b",
"L  c #a90ca4eba9d6",
"P  c #a968a548a965",
"I  c #a9ffa65babac",
"U  c #aa7aa66aaa74",
"Y  c #aba7a78cabab",
"T  c #ab4ba740ac15",
"R  c #ac5da847ac44",
"E  c #ada9a98fadaa",
"W  c #adeaa9cfae08",
"Q  c #ae65a9e4af2e",
"!  c #ae42aa33ae2f",
"~  c #afafabadafaf",
"^  c #ab00a67cb53e",
"/  c #ae2faac3b203",
"(  c #ae7aa8e9b6c7",
")  c #b020ac14afee",
"_  c #b022abc0b089",
"`  c #b34baa37b2c7",
"'  c #b111aca6b111",
"]  c #b194ad56b193",
"[  c #b217ad3db2dc",
"{  c #b2deaec4b2de",
"}  c #b20caf20b2a2",
"|  c #b316ae98b316",
" . c #b3e0af76b3d3",
".. c #b24cae3db463",
"X. c #b37db0d7b446",
"o. c #b4c1b059b48f",
"O. c #b556b14ab556",
"+. c #b608b177b5d6",
"@. c #b66bb18bb668",
"#. c #b6ecb279b6ed",
"$. c #b74bb27cb74b",
"%. c #b7d3b32fb7d2",
"&. c #b60ab649b7ff",
"*. c #b3d4b3a8b9ee",
"=. c #b42fb1dcba09",
"-. c #b779b344ba68",
";. c #b64fb812bb56",
":. c #b89db3a6b891",
">. c #b983b3beb945",
",. c #b8e5b434b8e0",
"<. c #b88fb431b94e",
"1. c #b8dab5d4b8d4",
"2. c #b899b551b95e",
"3. c #b962b45bb964",
"4. c #baa3b597ba9b",
"5. c #bb3ab5d5bb38",
"6. c #ba4cb748ba4c",
"7. c #bb7bb6cebb7b",
"8. c #bd40b7cdbd0f",
"9. c #b919b998bbe2",
"0. c #bd9bb841bd9b",
"q. c #bd3eba39bd3e",
"w. c #bf8cbababfc6",
"e. c #bfe9bb28bfe9",
"r. c #bf4bbc46bf4b",
"t. c #bfb7bb53c14c",
"y. c #ce0f9b89b83e",
"u. c #c00ebb44c00e",
"i. c #c0a7bbfec4be",
"p. c #c122bce5c122",
"a. c #c198be93c198",
"s. c #c226bd45c1f8",
"d. c #c267bf64c267",
"f. c #c482c182c482",
"g. c #c62cc32dc62c",
"h. c #c811c51cc8a7",
"j. c #c920c602c920",
"k. c #cb0bc7e3cb0b",
"l. c #cba2c887cba2",
"z. c #cfbfccabcfbf",
"x. c #d00cccfbd006",
"c. c #d093cdaed093",
"v. c #d226cf3cd226",
"b. c #dc33d9f6dc33",
/* pixels */
"b.v.z.z.z.z.z.z.z.z.z.z.z.z.z.x.h.",
"c.p.w.e.e.u.e.e.e.u.e.u.u.u.e.s.<.",
"l.7.:.4.3.4.4.5.0.5.4.4.3.5.3.8.[ ",
"k.4.$.:.,.,.t.=.*.;.9.2.%.,.:.4._ ",
"j.,.+.#.,.w.z ; # 6 y.&.@.$.$.:.Q ",
"g.O.| %.] -.3 = a ` >.X. . . .+.T ",
"f.{ ' 3., v u o X i.X.] ] ] ]  .L ",
"d.~ E ] * d ( 9 @ t -.! ! ! W ) F ",
"a.E U #.7 < h + 0 & ^ W Y R U ! C ",
"r.Y P _ y 1 O   $ % 8 ..U U U R B ",
"q.P G K o.i . - r e > / H H H P m ",
"6.D B C A Y Z : w q 4 I C C C D b ",
"1.A N C V C P M 2 5 J S V C V S c ",
"} n s k g g j g x l k g g l f l p "
};
