/* XPM */
static char *magick[] = {
/* columns rows colors chars-per-pixel */
"17 14 203 2",
"   c #0ea4617b0d8d",
".  c #17f96e961922",
"X  c #11bb74e90dcc",
"o  c #3a6b6a48385c",
"O  c #6b0673b57251",
"+  c #6ac0752a72ef",
"@  c #6ca672c1742b",
"#  c #6d41767373d2",
"$  c #75c16a497915",
"%  c #768d7cd6735e",
"&  c #7ba57e3b7c25",
"*  c #7bb87fa17d65",
"=  c #140685b80f45",
"-  c #12158a2e0d88",
";  c #16c682ed1275",
":  c #180a812017e7",
">  c #1b9381691771",
",  c #19108b6f15af",
"<  c #0f66a3e00b81",
"1  c #0e0dba2908b8",
"2  c #1d74a7051819",
"3  c #1c88a8381743",
"4  c #14d6b6c80f5a",
"5  c #1dd6b8f116d0",
"6  c #1a24beac18b3",
"7  c #216394a52031",
"8  c #23d89ce42237",
"9  c #2e1a9d1a2ac5",
"0  c #2e8d9e492a51",
"q  c #30229f7d2b9f",
"w  c #2753b84f1f5d",
"e  c #28b9a0ed23c1",
"r  c #2d77a2522909",
"t  c #2a9cb46324f6",
"y  c #322da5112d6d",
"u  c #0f98c7540878",
"i  c #1882cfed107a",
"p  c #16ebd7840d59",
"a  c #1fd3d3c718b6",
"s  c #185fefc90c60",
"d  c #1b1bf81f0e7b",
"f  c #2512c5f81b47",
"g  c #207bcb0b19af",
"h  c #2763ce851f6d",
"j  c #2cc2cfdb25f0",
"k  c #3117c5f42f15",
"l  c #227affff1301",
"z  c #3413ffff241d",
"x  c #3eedffff31f1",
"c  c #3e63ff453203",
"v  c #76c8809479da",
"b  c #795382e879b6",
"n  c #7a18832e7a79",
"m  c #7a9187c37a5f",
"M  c #78878f2e776b",
"N  c #7c518d557b69",
"B  c #767395ce7603",
"V  c #72f19e277552",
"C  c #7de79bdd9086",
"Z  c #81ac82998339",
"A  c #8be889448c32",
"S  c #8c9e88cd8d0d",
"D  c #83f893f8832c",
"F  c #8c7492c78c94",
"G  c #8a6993f890a3",
"H  c #904e8cc49084",
"J  c #90488c9b91d1",
"K  c #95178cc9969c",
"L  c #98518ee89a76",
"P  c #948293bc957b",
"I  c #96dd92fe97a8",
"U  c #9732934e97df",
"Y  c #97a093bc9858",
"T  c #97f2941698ab",
"R  c #9845946298f4",
"E  c #98579478991a",
"W  c #9917952999dc",
"Q  c #9a1d963d9adf",
"!  c #9c09982b9cd2",
"~  c #9d0499559dc5",
"^  c #9e469aad9dea",
"/  c #9f379b5aa001",
"(  c #87e5a16a9285",
")  c #8a3da3559675",
"_  c #8a50a0149927",
"`  c #8bfca4ca9b87",
"'  c #8d72a92c9db5",
"]  c #99a0a1089a88",
"[  c #9e71a50dad7e",
"{  c #9845aad2a411",
"}  c #a4b68f5ea5d1",
"|  c #a0519246a0a8",
" . c #a3ea9057a44a",
".. c #a2a59302a6ae",
"X. c #a5af97bea5d4",
"o. c #a2179defa1e6",
"O. c #a27e9e82a2e4",
"+. c #a3129f4ba2f0",
"@. c #a3599f48a36a",
"#. c #a4a09f5fa3d8",
"$. c #a6169fd4a62d",
"%. c #a2d29883abed",
"&. c #a87d9a47a8e1",
"*. c #b2cc9aceb38e",
"=. c #b4d39a00b5a2",
"-. c #b67b9c10b784",
";. c #b7939c8db86d",
":. c #bb669f87bc30",
">. c #a3fba016a3cd",
",. c #a4aaa079a473",
"<. c #a540a119a4dd",
"1. c #a599a199a586",
"2. c #a5bfa1e4a689",
"3. c #a63ea175a5c5",
"4. c #a63ca1c2a618",
"5. c #a655a250a625",
"6. c #a732a300a72b",
"7. c #a876a25da74f",
"8. c #aa34a3a5a8d5",
"9. c #aa9ea310aaaf",
"0. c #a8c7a49ea890",
"q. c #a922a436a8b4",
"w. c #a971a489a901",
"e. c #a97fa544a9c6",
"r. c #aa48a54eaa12",
"t. c #aba6a79aab8f",
"y. c #ab4ba736ac15",
"u. c #add5a769ac9e",
"i. c #acada871ac9f",
"p. c #ad14a91aad15",
"a. c #ae65aa02af2e",
"s. c #aed2ab24ae9e",
"d. c #afbdabb0afbc",
"f. c #b16ba2a3b1c4",
"g. c #b025abaab0ee",
"h. c #b39ea838b2fd",
"j. c #b0cead35b09b",
"k. c #b217ad3eb2dc",
"l. c #b299aeddb27e",
"z. c #b20caf20b2a2",
"x. c #b383af10b383",
"c. c #bba9a657bc24",
"v. c #be16a380befd",
"b. c #be85a705bfd1",
"n. c #b587b156b587",
"m. c #b605b25db5ce",
"M. c #b802b374b7f5",
"N. c #b87bb38db874",
"B. c #b8a2b431b881",
"V. c #b88fb431b94e",
"C. c #b8dab5d4b8d4",
"Z. c #baa4b5d2baa5",
"A. c #baceb689ba7f",
"S. c #ba4cb748ba4c",
"D. c #bb1bb69ebae0",
"F. c #bb79b6ccbb79",
"G. c #bc22b5c6bc2a",
"H. c #bd46b7dabd15",
"J. c #be43b790be44",
"K. c #bd3eba39bd3e",
"L. c #bfa0bab7bfa0",
"P. c #bfd3bb0dbfd3",
"I. c #bf4bbc46bf4b",
"U. c #bfcea7c0c06a",
"Y. c #c3beb3ffc43f",
"T. c #c1e6b46dc220",
"R. c #c778b4a1c7e6",
"E. c #c043bba2c042",
"W. c #c0cebc41c0cd",
"Q. c #c122bce5c122",
"!. c #c198be93c198",
"~. c #c224bd42c1f6",
"^. c #c267bf63c267",
"/. c #c3abbe60c3b0",
"(. c #c535bf9bc539",
"). c #ca13ba23ca6a",
"_. c #c482c17dc482",
"`. c #c62cc32dc62c",
"'. c #c7f6c9b1c86e",
"]. c #c9a9c13dc9cb",
"[. c #c9f9c18bca14",
"{. c #c811c51cc8a7",
"}. c #c920c602c920",
"|. c #cb0bc7e3cb0b",
" X c #cebfc131cf10",
".X c #cf08c1a1cf4e",
"XX c #c893cb15c536",
"oX c #cba2c887cba2",
"OX c #cd32ccbccd03",
"+X c #cfbfccabcfbf",
"@X c #cf7cd095cba4",
"#X c #cfcfd168d00b",
"$X c #d0abc1dbd101",
"%X c #d0a1c21dd0f3",
"&X c #d00cccfbd006",
"*X c #d093cdaed093",
"=X c #d226cf3cd226",
"-X c #d610cec4d598",
";X c #d6b1d131d08b",
":X c #d915d9a6d83e",
">X c #dc33d9f6dc33",
",X c #e3f3cf6be416",
"<X c #e45cd6b4e532",
/* pixels */
">X=X+X+X+X+X+X+X+X+X+X+X+X+X+X&X{.",
"*XQ.L.P.W.(.[..X%X$X X]./.E.P.~.V.",
"oXF.N.J.R.-.} n b m N X.U.).G.H.k.",
"|.Z.M.Y.B 5 i s d p 1 4 r D T.D.g.",
"}.B.N.c.7 l z c x t . : < 8 b.A.a.",
"`.n.n.h.$ V k 6 h f , > = 9 v.B.y.",
"_.l.x.u.@ [ %...] w g j a y :.m.e.",
"^.d.d.8.# C _ -X,XL   ; 2 q ;.l.2.",
"!.p.i.7.O ` ) '.OX<X^ X - 0 =.j.@.",
"I.t.t.#.+ ' ( XX@X;X* 3 u e *.s.O.",
"K.0.6.w.Z G { :X#XF K  .M o &.t./ ",
"S.1.O.4.3.A & % v P r.9.f.| $.5.! ",
"C.,.o.@.,.0.e.S H q.@.+.+.1.>.<.Q ",
"z.~ I R Y Y T T W U T Y U R U E J "
};
