/* XPM */
static char *magick[] = {
/* columns rows colors chars-per-pixel */
"17 14 199 2",
"   c #2307285f31b7",
".  c #170227ab4367",
"X  c #24732ddc4241",
"o  c #328c3b2e4635",
"O  c #430c42d845cc",
"+  c #50315cb06eed",
"@  c #556562587d6b",
"#  c #689468196fc1",
"$  c #63b5694d7925",
"%  c #63506a357ae9",
"&  c #623f6cdf7e55",
"*  c #66836cda7ce2",
"=  c #67556d4a7f51",
"-  c #67ff6e217dde",
";  c #68d76b797e3e",
":  c #6d9370187a59",
">  c #6ebc71207ab4",
",  c #61bb6a5980c2",
"<  c #644571e38825",
"1  c #660a7293890a",
"2  c #67f273958aa6",
"3  c #684575028bd3",
"4  c #76db77e8819c",
"5  c #72ae7ab88859",
"6  c #79017d24816c",
"7  c #7ef57ab980e5",
"8  c #7d647ed8899b",
"9  c #7ce682e98a8f",
"0  c #7f7d82c88807",
"q  c #774482a99933",
"w  c #81c57e248533",
"e  c #84d77fb4895b",
"r  c #80b2805b8745",
"t  c #85ed846e868e",
"y  c #816782a98edb",
"u  c #8553829d8b67",
"i  c #8748852c898c",
"p  c #8a8087dd8f1d",
"a  c #8b7f89608cd0",
"s  c #8b788ca98d37",
"d  c #8e8e8b7c8d2b",
"f  c #8ec38c3a8e4d",
"g  c #813685cf905f",
"h  c #8324897c9420",
"j  c #8fd18ed39426",
"k  c #8d608ee599d5",
"l  c #833590a59ea1",
"z  c #941092ce8e17",
"x  c #962a90cc8ffc",
"c  c #915a90e690d4",
"v  c #93739253936b",
"b  c #933994689393",
"n  c #94379269947b",
"m  c #97f292749482",
"M  c #968d92c497cf",
"N  c #95ce97ec9554",
"B  c #949a9624990b",
"V  c #925498b79655",
"C  c #9a52953b9307",
"Z  c #9c9992559587",
"A  c #9cbf971f9de0",
"S  c #9f049b089a4b",
"D  c #9ec398ed9f1d",
"F  c #9cdf9dc59dcc",
"G  c #88ef93fea5e1",
"H  c #972d9a78a384",
"J  c #98149e49a70b",
"K  c #9e909bfda29f",
"L  c #91919fe1b81d",
"P  c #a3dc9ee39ad4",
"I  c #a0b49b18a24c",
"U  c #a3f19eaaa523",
"Y  c #a47a9dcca568",
"T  c #a55d9f2aa681",
"R  c #a1c49ec2a97c",
"E  c #a43d9f1fa827",
"W  c #a387a65aa77b",
"Q  c #a695a2aba6d4",
"!  c #a1e4a178aa1e",
"~  c #a0e5a31bac87",
"^  c #a3d0a50eae5d",
"/  c #a4f0a5d3ad9a",
"(  c #a9ffa5c0a16a",
")  c #a98da6a7a5c9",
"_  c #a9c4a7d5a467",
"`  c #a8a1a1d5a830",
"'  c #a825a246a94c",
"]  c #aa5aa44caafe",
"[  c #ab39a4daad17",
"{  c #ad0ba5b3ab74",
"}  c #aca5a5d1ac5b",
"|  c #ac49a597adee",
" . c #adb9a4f1acee",
".. c #addda4c9ad6a",
"X. c #ada6a5a0ad14",
"o. c #acc1a45cae3e",
"O. c #aca9a563ae48",
"+. c #afefa5d2ad55",
"@. c #acc2a996a74f",
"#. c #afa6a8f9af45",
"$. c #ade6a748b064",
"%. c #aa67aae5b4bf",
"&. c #ad15aa51b3c2",
"*. c #ae28b40bb104",
"=. c #aa16b1abbfc1",
"-. c #afacb228bac7",
";. c #adacb258bd11",
":. c #b06ba7caadfb",
">. c #b11babffac10",
",. c #b038a921b01a",
"<. c #b114aa0ab15b",
"1. c #b0faaad8b295",
"2. c #b6fdaed9b6fa",
"3. c #b2a2b03aaf0d",
"4. c #b30eb2e6b48f",
"5. c #b772b3deb70c",
"6. c #b9f5b1f3b9ce",
"7. c #b9afb3aeb9b0",
"8. c #ba51b52abd6d",
"9. c #bc33bb17bfd0",
"0. c #be34bc87bfe8",
"q. c #ac4db4aac63e",
"w. c #b87cbc35c4a9",
"e. c #bf68b9f8c086",
"r. c #bf44bfacc92c",
"t. c #b6e9bf89d217",
"y. c #be70c135c839",
"u. c #b99cc0dbd1cb",
"i. c #ba44c117d227",
"p. c #ba0bc204d385",
"a. c #ba05c3a7d5ca",
"s. c #bf6cc747d5d5",
"d. c #be70c661d760",
"f. c #bfa4c694d65b",
"g. c #bc0ec5fdda3a",
"h. c #c24fbb6cc246",
"j. c #c1f5b907c611",
"k. c #c2bcbd27c336",
"l. c #c385be53c492",
"z. c #c3c7c752cc56",
"x. c #c827c0ecc826",
"c. c #c84dc116c853",
"v. c #c9a5c270c9a5",
"b. c #ca82c3a1ca78",
"n. c #cc80c587cc7c",
"m. c #c0d7c6a3d5fd",
"M. c #c2f0c954d69d",
"N. c #c5cec990d6cf",
"B. c #c77ec9e1d723",
"V. c #c6eaca28d6cd",
"C. c #c4a0cb0ada25",
"Z. c #c86aca30d5dc",
"A. c #c92dcc80da97",
"S. c #c8bfcff2de12",
"D. c #dec2cdc8d0ab",
"F. c #d7b7d164d7b7",
"G. c #d522d4b3de3e",
"H. c #ded1d664d9d0",
"J. c #d203d48de05f",
"K. c #d38ad65ce198",
"L. c #d3abd775e2c8",
"P. c #d4ead68ae24b",
"I. c #d42dd737e3a9",
"U. c #d48fda28e620",
"Y. c #d6cfd9ebe6af",
"T. c #d5fddadce898",
"R. c #dc44dd2ee7ca",
"E. c #dd2addd0e81c",
"W. c #db97e1beefa3",
"Q. c #dfe2e173ebd4",
"!. c #dd68e0f3ee2e",
"~. c #e60edd94dbba",
"^. c #ed2be6c4eba9",
"/. c #ed9be7f5ec5a",
"(. c #edb0ea31efd3",
"). c #eb7be9b9f1d8",
"_. c #ef50eea3f5b0",
"`. c #ea71ed6af886",
"'. c #ec4cef4efb03",
"]. c #f6f6ecfef2e8",
"[. c #f397f27ffa26",
"{. c #f44ff4fdfdcb",
"}. c #f76cf5a9fd24",
"|. c #f811f542f6eb",
" X c #f933f348f81c",
".X c #f9c7f599f8e6",
"XX c #f979f63cfa73",
"oX c #f9caf79ffa7c",
"OX c #faeef69dfa26",
"+X c #fa41f7a7fa12",
"@X c #faacf7d5fb0a",
"#X c #fb53f8b8fa93",
"$X c #fbf6f874fcbc",
"%X c #fbe1f96dff75",
"&X c #fbedfa44fc84",
"*X c #fcf7f982fed6",
"=X c #fffffd72ffff",
"-X c #ffe0fe74ffff",
";X c Gray100",
/* pixels */
"F.n.v.c.x.x.x.x.x.x.x.x.x.x.v.b.h.",
"b.6.,.:.O...|  .O.{ } X.o.#.+.2.<.",
"l.1.' |.&X#X@XOXXX.X+X#XoX;X0.y ] ",
"k.$.Q ;X;X-X=X;X;X;X;X=X;X;Xy.3 ` ",
"e.[ R ;X$XK.P.).%X*X^.J. X;Xr.2 T ",
"8.E K ;X[.B.C.d.a.f.N.p._.;Xz.1 I ",
"7.Y S ;X`.u.M.m.V.s.U.Q.).(./ < D ",
"4.A N ;X{.I.R.E.T.!./.5.J W s & 9 ",
"*.V B ;X`.i.B.A.g.L ~ >.P C b g 6 ",
"3.Z M ;X`.t.S.L.H ( ) z c ^ 8   # ",
"&.j n ;X}.Y.q.q 0 G u %.j.H.p o > ",
"@.f x ;X;X'.=.W.;X].D.~.G.l X 5 a ",
"_ d v Z.-.;.w.9.U h k ! + . O m t ",
"F i r 4 - = , @ $ * * ; % : w e 7 "
};
