/* XPM */
static char * mini_keyboard_xpm[] = {
/* width height ncolors cpp */
"14 14 7 1",
/* colors */
" 	c None",
"+	c #404040",
"*	c #E0E0E0",
".	c #808080",
"X	c white",
"o	c black",
"O	c #C0C0C0",
/* pixels */
" ............ ",
".***********+o",
".*..........+o",
".*OoXOoXOoXO+o",
".*.oO.oO.oO.+o",
".*oooooooooo+o",
".*oXOoXOoXXO+o",
".*oO.oO.oOO.+o",
".*oooooooooo+o",
".*XOoXXXOoXO+o",
".*O.oOOO.oO.+o",
".*oooooooooo+o",
".++++++++++++o",
" oooooooooooo ",
};

/* variant:
" ............ ",
".XXXXXXXXXXX.o",
".X...........o",
".X.XOoXOoXOo.o",
".X.O.oO.oO.o.o",
".XOooooooooo.o",
".XOoXOoXXXOo.o",
".XOoO.oOOO.o.o",
".XOooooooooo.o",
".X.XoXXXOoXo.o",
".X.OoOOO.oOo.o",
".X.ooooooooo.o",
".............o",
" oooooooooooo ",
*/

/* original:
static char * mini_keyboard_xpm[] = {
/* width height ncolors cpp [x_hot y_hot] */
"17 15 5 1 0 0",
/* colors */
" 	s none	m none	c none",
".	c #808080",
"X	s iconColor2	m white	c white",
"o	s iconColor1	m black	c black",
"O	c #C0C0C0",
/* pixels */
" ............... ",
".XXXXXXXXXXXXXX.o",
".X..............o",
".X.XOoXOoXOoXOo.o",
".X.O.oO.oO.oO.o.o",
".XOoooooooooooo.o",
".XOoXOoXOoXXXOo.o",
".XOoO.oOOoOOO.o.o",
".XOoooooooooooo.o",
".X.XOoXXXXOoXOo.o",
".X.O.oOOOO.oO.o.o",
".X.oooooooooooo.o",
"................o",
" ooooooooooooooo ",
"                 ",
"                 "};
*/
