/* XPM */
static char * image_name[] = {
"48 48 159 2",
"  	c #000000000000",
". 	c #000051440000",
"X 	c #596500000000",
"o 	c #71C675D60000",
"O 	c #FFFFFFFFA699",
"+ 	c #FFFFCF3C38E3",
"@ 	c #C71BFFFFC71B",
"# 	c #FFFFFFFF0000",
"$ 	c #FFFFDB6C0000",
"% 	c #FFFFFFFFFFFF",
"& 	c #A699EBAD69A6",
"* 	c #CF3CD34C0000",
"= 	c #492469A60000",
"- 	c #E79DC30B0000",
"; 	c #FFFFE79D9E79",
": 	c #FFFFBAEA0000",
"> 	c #965800000000",
", 	c #71C600000000",
"< 	c #9E79EBAD5965",
"1 	c #FFFFE38D0000",
"2 	c #38E320810000",
"3 	c #9658AAAA0000",
"4 	c #FFFFD34C0000",
"5 	c #61857DF70000",
"6 	c #FFFFCB2B0000",
"7 	c #F7DEEFBE71C6",
"8 	c #514400000000",
"9 	c #69A600000000",
"0 	c #EFBE65950000",
"q 	c #9E798A280820",
"w 	c #69A692480000",
"e 	c #D75CC30B0000",
"r 	c #C71BCF3C0000",
"t 	c #FFFFB6DA0000",
"y 	c #C71B51440000",
"u 	c #FFFFDF7D0000",
"i 	c #FFFFA28938E3",
"p 	c #EFBEC71B0000",
"a 	c #CF3CC30B0000",
"s 	c #96589E790000",
"d 	c #000038E30000",
"f 	c #DF7D92480000",
"g 	c #79E775D60000",
"h 	c #71C692480000",
"j 	c #96580C300000",
"k 	c #000020810000",
"l 	c #FFFF82070000",
"z 	c #B6DAC30B0000",
"x 	c #D75CD34C0000",
"c 	c #104000000000",
"v 	c #F7DE00000000",
"b 	c #FFFF00000000",
"n 	c #9E79B2CA0000",
"m 	c #FFFFA2890000",
"M 	c #492475D60000",
"N 	c #FFFFE79D79E7",
"B 	c #DF7D00000000",
"V 	c #8E3800000000",
"C 	c #28A265950000",
"Z 	c #9E7900000000",
"A 	c #FFFF75D60000",
"S 	c #F7DEE38D0000",
"D 	c #FFFFF7DE0000",
"F 	c #FFFFEBAD0000",
"G 	c #DF7DCF3C0000",
"H 	c #28A200000000",
"J 	c #38E300000000",
"K 	c #D75C00000000",
"L 	c #618500000000",
"P 	c #CF3C71C60000",
"I 	c #EFBEE38D0000",
"U 	c #F7DE6DB60000",
"Y 	c #FFFF9E790000",
"T 	c #000059650000",
"R 	c #618582070000",
"E 	c #FFFFEFBE0000",
"W 	c #B6DABEFB0000",
"Q 	c #FFFFD75C0000",
"! 	c #FFFFC30B0000",
"~ 	c #FFFFFBEE0000",
"^ 	c #28A2000079E7",
"/ 	c #38E3000079E7",
"( 	c #514400001861",
") 	c #FFFFBEFB0000",
"_ 	c #410300008617",
"` 	c #38E300008E38",
"' 	c #4924000028A2",
"] 	c #000000000820",
"[ 	c #0000000030C2",
"{ 	c #208100009658",
"} 	c #38E300008617",
"| 	c #FFFF92480000",
" .	c #FFFFB2CA0000",
"..	c #410300009658",
"X.	c #208100008617",
"o.	c #38E300009E79",
"O.	c #38E300009658",
"+.	c #492400000000",
"@.	c #000000005965",
"#.	c #8E38AAAA0000",
"$.	c #000000004924",
"%.	c #28A200008E38",
"&.	c #BEFBD75CFFFF",
"*.	c #28A200009658",
"=.	c #C71B9A690000",
"-.	c #DF7DD34C0000",
";.	c #FFFFAEBA0000",
":.	c #28A2000071C6",
">.	c #0000000069A6",
",.	c #9E7959650000",
"<.	c #1040000071C6",
"1.	c #4103000069A6",
"2.	c #208100008E38",
"3.	c #492400009E79",
"4.	c #71C696580000",
"5.	c #F7DED34C0000",
"6.	c #000000005144",
"7.	c #28A200008617",
"8.	c #69A661850000",
"9.	c #49240000A699",
"0.	c #492400008E38",
"q.	c #0000000038E3",
"w.	c #FFFFE79D0000",
"e.	c #104000008617",
"r.	c #492400009658",
"t.	c #51440000A699",
"y.	c #410320810000",
"u.	c #41030000A699",
"i.	c #000000001861",
"p.	c #208100000000",
"a.	c #F7DE59650000",
"s.	c #BEFBC30B0000",
"d.	c #1040000079E7",
"f.	c #2081000079E7",
"g.	c #E79D92489E79",
"h.	c #104000008E38",
"j.	c #104000009658",
"k.	c #A69900000000",
"l.	c #FFFFF3CEFFFF",
"z.	c #514400009E79",
"x.	c #208100005965",
"c.	c #000000008E38",
"v.	c #492400002081",
"b.	c #F7DEAAAA9658",
"n.	c #28A200009E79",
"m.	c #410300009E79",
"M.	c #61850000B6DA",
"N.	c #38E30000A699",
"B.	c #59657DF7FFFF",
"V.	c #38E30000AEBA",
"C.	c #AEBA8207EFBE",
"Z.	c #41030000B6DA",
"A.	c #69A60000B6DA",
"S.	c #CF3C65959658",
"D.	c #38E3000071C6",
"F.	c #EFBEE79DFFFF",
"G.	c #EFBE92489658",
"H.	c #41030000AEBA",
"J.	c #49240000AEBA",
"                                                                                                ",
"                                          . X       o                                           ",
"                                                              O                                 ",
"                            +                                                                   ",
"                        @                                                                       ",
"                            # $   #                                       %                     ",
"                  &           # * # #   #   = # -                                               ",
"                ;             # #   # # : # #     #   # # #                                     ",
"              %               # #   # #   #       # > #     #   # ,                             ",
"            <             # # 1             # 2 3 #   # 4 #     #       # # # #                 ",
"                          #         # :   5           #   1 1   #       #     # 6   7           ",
"                          # 8 #   #   #   # #   # #         9   # # #   #     # 0     q         ",
"        %                 #     # # # #   #   # # # w # # # #   e       # # # #                 ",
"                        r 6     t     # y #       # #       #   #     #   # u           %       ",
"      i                 # #     # #   p         a # # #     # s #     # # #                     ",
"                        # #   d # #   # # # #         f # # 9 g #   h #   j #             X     ",
"    %                   # #   # #     # # # #       k # #         # #   # 1 # l                 ",
"                        # # z # #   x # # # # c     # # # #           #                         ",
"    v b               n # m # #     # # # # # ,   # # # # #       M # # #                   N   ",
"        B       V b   # #   # #     # #   # #   C # # # # #       # # # # #                     ",
"  %                   # # # #   Z   # #   # #   # # A   # #     # # # # # #                     ",
"                      # # # #   c   # #   # #   # #     # #     # # # # # #                     ",
"                      # # #       c # # # # # S #   b   D #   # # #     # #                     ",
"                      # # #       F # # # #   # #     b G #   # #       # #                     ",
"                    F # # #       # # # # #   # #       # #   # # H     # #                     ",
"                    # # # #       # # # #     # >       # #   # #       # #     J K             ",
"                    # # # #       # # # # L   #         # # # #         # #     J       b K H   ",
"  P                 # # I # U     # #   # Y # #         # # # #         # #                     ",
"  T                 # # R # E   W #     # Q # #         # ! # #   # #   # ~                     ",
"                    # : c # #   # #     # $ # #   ^ / # #   # #   # # # #                       ",
"                  # #     # # ( # #     # ) # #   _   # #   # #   # # # #                       ",
"          c ` _ ' # #     # #   # # ]   # ) # #   _   # #   # #   # # # #                       ",
"        [ { ` }   # #     # #   # #     # | # # # # # #     # #   # # #  ._   ` ..X.            ",
"          o.O.O.    +.@.  # #   # ! ^ #.# | D # # # # # $.  # # c # # #                         ",
"    %.&.%.{ *.`     =.          #   } -.# ;.  # # # #   :.  # # # # # #   X.X.$.^ ` %.} %.`     ",
"    >.O...O.O.`     # # # # ,.:.          |   # # # D <.X.1.# # # # # #   } O.%.O.} %.2.O.O.    ",
"      %.3.*.O.` ..4.# #     #   # #   } c 5.    m   6.^ 7./ 8.# # # # #   X.X.X.%.7.%.` %.      ",
"        ` 9.O.*.0.# 8 #     # # # # # q.    6 # w.X.          # # # # #   e.X.e.X.e.2...7.      ",
"        %.r.r.t.      y.# # 9 #     #   7.  # Z >.%.  # # #   #   [ # #   %.7.%.%.%.2...        ",
"          *.u.O.O.*.*.*.i.  ..  # # p.#   # a.X.` %.  # # # s.# # # # # d.X.f.*.` g.*.          ",
"            ..r.O.o.h.%.*.{ %.j.e.%.2.        X.X.X.S #     # 1 F k.#   X.h.e.h.l.2.            ",
"              O.z.*.*.*.O.{ 2.j.2.2.h.2.2.e.%.2.%.x.  , c.v.# p.    #   2.e.e.b.O.`             ",
"                n.m.M.O.N.N.n.*.%.n.*.*.j.n.{ { { { { { *.]     O.  # >.%.h...2.%.              ",
"                  t.3.% { ` 2.j.n.*.O.*.%.%.{ h.2.2.{ { { %.*...*.j.d.X.B.*.{                   ",
"                    ..V.o.C...{ *...o.Z.*.*.{ h.h.e.%.{ *.O.n.....{ %.*.*.2.                    ",
"                        m.O.o.A.{ *.*.O.{ { *.X.X.h.2.j.N.{ { { *.S.{ h.D.                      ",
"                            { 2.*...F.*.O.{ *.%.%.%.%.%.O.u.G.*.{ j.^                           ",
"                                } u.H.u...O.N.J.N.O.*.u.o.u.N.*.                                "};
