#define face_width 64
#define face_height 64
static unsigned char face_bits[] = {
   0x00, 0x00, 0x00, 0x00, 0x00, 0x00, 0x00, 0x00, 0x00, 0x00, 0x00, 0x00,
   0x00, 0x00, 0x00, 0x00, 0x24, 0x49, 0xf2, 0x92, 0x24, 0x49, 0x92, 0x04,
   0x00, 0x00, 0x10, 0x03, 0x00, 0x00, 0x00, 0x20, 0x00, 0x00, 0x0d, 0x02,
   0x00, 0x00, 0x00, 0x04, 0x92, 0x24, 0x28, 0x4a, 0x92, 0x24, 0x49, 0x00,
   0x00, 0x00, 0x38, 0x82, 0x07, 0x00, 0x00, 0x08, 0x00, 0x00, 0x80, 0x32,
   0x18, 0x1a, 0x80, 0x20, 0x24, 0x13, 0x00, 0x20, 0x90, 0xa1, 0x04, 0x00,
   0x40, 0x04, 0x00, 0x31, 0x21, 0x21, 0x20, 0x04, 0x00, 0x10, 0xc0, 0x90,
   0x20, 0x24, 0x84, 0x20, 0xc9, 0x01, 0x38, 0x20, 0x05, 0xa0, 0x00, 0x00,
   0x00, 0xfe, 0x03, 0xc0, 0x91, 0x20, 0x08, 0x01, 0x00, 0x00, 0x00, 0x00,
   0x14, 0x12, 0x00, 0x24, 0x04, 0x1e, 0x00, 0x00, 0x88, 0x9c, 0xa8, 0x00,
   0x00, 0xf0, 0x00, 0x00, 0x04, 0x1c, 0x02, 0x02, 0x04, 0x00, 0x0f, 0x80,
   0x11, 0x03, 0x01, 0x08, 0x00, 0x00, 0xe0, 0x7f, 0x41, 0x00, 0x00, 0x20,
   0x04, 0x08, 0x00, 0x00, 0x08, 0x80, 0x00, 0x00, 0x80, 0x00, 0x00, 0x04,
   0xc0, 0x07, 0x00, 0x10, 0x10, 0x00, 0x02, 0x20, 0x61, 0x08, 0x00, 0x00,
   0x00, 0x80, 0x01, 0x21, 0x21, 0x08, 0x00, 0x10, 0x44, 0x00, 0x24, 0x08,
   0x20, 0x00, 0x00, 0x40, 0x80, 0x40, 0xf0, 0x01, 0x00, 0x00, 0x00, 0x00,
   0x08, 0x08, 0x82, 0x07, 0x00, 0x08, 0x00, 0x00, 0x00, 0x00, 0x00, 0xf0,
   0x00, 0x06, 0x00, 0x20, 0x20, 0x91, 0x54, 0x01, 0xfe, 0x03, 0x00, 0x00,
   0x02, 0x00, 0x00, 0x00, 0x00, 0x00, 0x00, 0x20, 0x00, 0x02, 0x01, 0x00,
   0x00, 0x00, 0x00, 0x00, 0x48, 0x10, 0x00, 0x00, 0x00, 0x00, 0x00, 0x10,
   0x00, 0x40, 0x00, 0x00, 0x00, 0x00, 0x01, 0x00, 0x02, 0x02, 0x00, 0x00,
   0x00, 0x80, 0x00, 0x20, 0x50, 0x49, 0x00, 0x00, 0x00, 0x80, 0x00, 0x00,
   0x00, 0x10, 0x00, 0x00, 0x00, 0xd0, 0x00, 0x40, 0x04, 0x00, 0x02, 0x00,
   0x00, 0xc4, 0x00, 0x00, 0x00, 0x00, 0x00, 0x00, 0x40, 0x80, 0x01, 0x00,
   0x04, 0x00, 0x00, 0x00, 0x10, 0x80, 0x01, 0x00, 0x00, 0x00, 0x00, 0x00,
   0x06, 0x80, 0x01, 0x40, 0x02, 0x00, 0x00, 0x00, 0x0c, 0x00, 0x83, 0x00,
   0x00, 0x00, 0x00, 0x00, 0x18, 0x00, 0x13, 0x00, 0x00, 0x00, 0x00, 0x00,
   0x30, 0x00, 0x03, 0x00, 0x00, 0x00, 0x00, 0x00, 0x60, 0x00, 0x06, 0x40,
   0x00, 0x00, 0x00, 0x20, 0xc0, 0x00, 0x06, 0x00, 0x00, 0x00, 0x00, 0x00,
   0x82, 0x01, 0x06, 0x00, 0x00, 0x00, 0x00, 0x00, 0x00, 0x03, 0x0c, 0x00,
   0x00, 0x00, 0x00, 0x00, 0x00, 0x06, 0x0c, 0x20, 0x04, 0x00, 0x00, 0x00,
   0x00, 0x0c, 0x0c, 0x00, 0x08, 0x00, 0x00, 0x00, 0x00, 0x18, 0x18, 0x08,
   0x00, 0x00, 0x00, 0x00, 0xe0, 0x3f, 0x18, 0x40, 0x00, 0x00, 0x00, 0x00,
   0xc0, 0x00, 0x98, 0x04, 0x14, 0x00, 0x00, 0x00, 0x80, 0x01, 0x30, 0x00,
   0x00, 0x00, 0x00, 0x00, 0x00, 0x03, 0xb0, 0x10, 0x20, 0x00, 0x00, 0x00,
   0x00, 0x86, 0x3f, 0x02, 0x00, 0x00, 0x00, 0x00, 0x00, 0x0c, 0x03, 0x00,
   0x84, 0x00, 0x01, 0x00, 0x01, 0x18, 0x23, 0x24, 0x00, 0x00, 0x00, 0x20,
   0x20, 0x30, 0x06, 0x00, 0x08, 0x22, 0x04, 0x00, 0x04, 0x7f, 0x46, 0x00,
   0x20, 0x00, 0x80, 0x04, 0x00, 0x06, 0x8c, 0x24, 0x00, 0x44, 0x08, 0x90,
   0x48, 0x0c, 0x0c, 0x00, 0x84, 0x80, 0x00, 0x00, 0x00, 0x98, 0x0f, 0x00,
   0x20, 0x08, 0x90, 0x00, 0x01, 0x30, 0x41, 0x12, 0x00, 0x00, 0x02, 0x24,
   0x24, 0x61, 0x01, 0x00, 0x84, 0x20, 0x80, 0x00, 0x00, 0xc0, 0x09, 0x10,
   0x00, 0x42, 0x10, 0x40, 0x00, 0x84, 0x41, 0x02 };
