/* XPM */
static char * image_name[] = {
"48 48 4 1",
" 	c #000000000000",
".	c #FFFFFFFFFFFF",
"X	c #514455555144",
"o	c #AEBAAAAAAEBA",
"               .X              o.               ",
"      oXXXXXXX.  XXXXXXX   XXXo.XXXXXXXXXo      ",
"     XXXXXXXXo.XXXXXXXXXXXX Xo.oXXXXXXXXXXX     ",
".   oXXXXXX  o.oXXXXXXXXXXXXo.oXXXXXXXXXXXXo    ",
" .  XXXooo XXo.ooooooooooooo.o ooooooooooXXX    ",
"  . XXXoo X.oo.o..........o.o.  XXXXXXXXoXXX    ",
"   .oXXo X X o.o  o    o o.o    XX X X XoXXX    ",
"   o.oXo XXo.o.oo .o  o.o.oo.o . XX X XXoXXX    ",
"    o.o Xoo..o..o...  .o.o .....X  X X XoXXX    ",
"    Xo.oX....o..o...  o.o  .....  X X XXoXXX    ",
"    XXo.o....o..o...o..o.  .. ..  oX X XoXXX    ",
"    XX o.o...o..o..o..o..     .. X XX XXoXXX    ",
"    XX o..o..o..o.o..o...  .. .. X X X XoXXX    ",
"    XX .o..o.o..oo..o ...  ..... o XX XXoXXX    ",
"    XX oXo..oo..o..o  ...  ..... X   X XoXXX    ",
"    XX .o.o..o....oo  o.o  o...o o XX XXoXXX    ",
"oooooooooooo.....ooooooooooooooooooooooXoooo ooo",
"................................................",
"oooo.......................ooooooooooooXoooo ooo",
"  o.oooooooo.....ooooooooooo.o..X  XX XXoXXX    ",
"  o...  Xoo.......oo.o.o..o.o..oX XX X XoXXX    ",
"  o... o o..oo..o..oo..o.o.oo.oX XX X XXoXXX    ",
"  o... .o..o.o..oo..o.o.oo.o.oo X  X X XoXXX    ",
"  o..  o..o..o..ooo..oooo.ooooX  XX X XXoXXX    ",
"  o...o.o. X.o..o.oo..oo.oooX   XX X X XoXXX    ",
"  o..o.o..X  o..oXooo..ooooo  XX o. o oXoXXX    ",
"  o.o.oooooX o..oooooo..ooX   XoX XXXXXXoXXX    ",
"  oo.o......Xo..oXXoXoo..o  X  XoX ooooooXXX    ",
"  o.oo.     oo.o       o..oXXX  XoX  XXXXXXX    ",
" o.o.o. o o oo.oX X X X o..oXXX  X.o XXXXXXX    ",
"o.o..o... ...o.oo  oo  oo o.oXXX Xo.o XXXXXX    ",
".oo..o... ...o.oo ... ... Xo.oXXo Xo.o          ",
"  o..o... ...o.oo oo. ... XXo.XX X Xo.o         ",
"  o..o..   ..o.oo o.o o.o oXoXoX  X Xo.o        ",
"  o..o.......o.o...oooooo XoXoX.oo X Xo.o       ",
"  o..o.......o.o...o..o.o XXXXXo.oXXX Xo.o      ",
"  o oo..........oo...oo.. XXXXXXo.oXXX Xo.o     ",
"   ooo.......o.o...ooo..o XXXXXXXo.XXXX Xo.o    ",
"  oooo.......o.ooooo..ooo oooooooooooooX Xo.o   ",
" XXXXo.......o.ooo.oooooo XXXXXXXXXX.XXXX Xoo.. ",
" XXXXo.......o.oooooooooo XXXXXXXXXXX.XXXX X.X  ",
" ooooo.......o.XoooXXoooX oooooooooooo.oooX     ",
" XXXXo.......X.XoXXXXoXXX XXXXXXXXXXXXXXXXXX XX ",
" ooooo.......X.XXXX XXXX  ooooooooooooooooooooo ",
" XXXXo....... .XX  XXX  X XXXXXXXXXXXXXXXXXXXXX ",
" XXXXo.......X.         X XXXXXXXXXXXXXXXXXXXXX ",
"     o        .                                 ",
"              .                                 "};
