/* XPM */
static char * PenguingWithGhosts_xpm[] = {
"44 52 407 2",
"  	c None",
". 	c #00008C",
"+ 	c #000042",
"@ 	c #000008",
"# 	c #000031",
"$ 	c #00006B",
"% 	c #0000BD",
"& 	c #0000B5",
"* 	c #000010",
"= 	c #0000E7",
"- 	c #000000",
"; 	c #393939",
"> 	c #424242",
", 	c #101008",
"' 	c #0000DE",
") 	c #6B6B65",
"! 	c #505050",
"~ 	c #A1A1A1",
"{ 	c #7F7F7F",
"] 	c #000021",
"^ 	c #52524A",
"/ 	c #636363",
"( 	c #292929",
"_ 	c #000063",
": 	c #61615B",
"< 	c #555555",
"[ 	c #F8F8F8",
"} 	c #FFFFFF",
"| 	c #FEFEFE",
"1 	c #FCFCFC",
"2 	c #929292",
"3 	c #070707",
"4 	c #212121",
"5 	c #181818",
"6 	c #0000C6",
"7 	c #D0D0D0",
"8 	c #FEB4B4",
"9 	c #FFE7E7",
"0 	c #FE9C9C",
"a 	c #1A1A1A",
"b 	c #000084",
"c 	c #000052",
"d 	c #D0ABAB",
"e 	c #FE0C0C",
"f 	c #FF3F3F",
"g 	c #FE8585",
"h 	c #FE0808",
"i 	c #FE9898",
"j 	c #B2B2B2",
"k 	c #101010",
"l 	c #D0BDBD",
"m 	c #FE4444",
"n 	c #FF8888",
"o 	c #FEC0C0",
"p 	c #FE2E2E",
"q 	c #FECACA",
"r 	c #C2C2C2",
"s 	c #292921",
"t 	c #737373",
"u 	c #D8D8D8",
"v 	c #FEECEC",
"w 	c #FFF9F9",
"x 	c #FEE6E6",
"y 	c #F6F6F6",
"z 	c #5B5B5B",
"A 	c #949494",
"B 	c #CECECE",
"C 	c #848484",
"D 	c #B5B5B5",
"E 	c #DEDEDE",
"F 	c #8C8C8C",
"G 	c #6B6B6B",
"H 	c #9C9C9C",
"I 	c #E7E7E7",
"J 	c #5A5A5A",
"K 	c #313131",
"L 	c #0000AD",
"M 	c #E3E3FE",
"N 	c #5050FE",
"O 	c #C9C9FF",
"P 	c #DFDFFE",
"Q 	c #6363FE",
"R 	c #B1B1FE",
"S 	c #4A4A4A",
"T 	c #7B7B7B",
"U 	c #8686FF",
"V 	c #6F6FFE",
"W 	c #ECECFE",
"X 	c #ACACAC",
"Y 	c #080808",
"Z 	c #7F623D",
"` 	c #AD880C",
" .	c #9C8408",
"..	c #947B21",
"+.	c #847B52",
"@.	c #ADADAD",
"#.	c #141414",
"$.	c #00009C",
"%.	c #A5A5A5",
"&.	c #8C6310",
"*.	c #E7AD08",
"=.	c #F7C610",
"-.	c #E7C608",
";.	c #D6B521",
">.	c #E7CE21",
",.	c #9C7B00",
"'.	c #94844A",
").	c #DEDECE",
"!.	c #00007B",
"~.	c #080800",
"{.	c #845A08",
"].	c #DEA508",
"^.	c #F7BD10",
"/.	c #EFC608",
"(.	c #EFCE18",
"_.	c #E7CE31",
":.	c #DEC608",
"<.	c #D6B518",
"[.	c #423100",
"}.	c #C68408",
"|.	c #E7AD10",
"1.	c #EFCE08",
"2.	c #D6AD08",
"3.	c #C6A510",
"4.	c #5A3900",
"5.	c #BBBBBB",
"6.	c #EFBD10",
"7.	c #B59808",
"8.	c #CE9408",
"9.	c #292100",
"0.	c #9C947B",
"a.	c #946308",
"b.	c #BD9C08",
"c.	c #A77508",
"d.	c #CE8C08",
"e.	c #D69410",
"f.	c #CE9C42",
"g.	c #BDB594",
"h.	c #BDBDBD",
"i.	c #AD9C7B",
"j.	c #BD8429",
"k.	c #BDAD84",
"l.	c #C6C6C6",
"m.	c #525252",
"n.	c #787878",
"o.	c #D6D6D6",
"p.	c #B5A594",
"q.	c #9C844A",
"r.	c #A5844A",
"s.	c #B1986B",
"t.	c #BDB5AD",
"u.	c #EFEFEF",
"v.	c #F7F7F7",
"w.	c #52525A",
"x.	c #08085A",
"y.	c #FAFAFA",
"z.	c #5D5D5D",
"A.	c #08088C",
"B.	c #B3B3B3",
"C.	c #ECECEC",
"D.	c #DDDDDD",
"E.	c #C6C6CE",
"F.	c #939393",
"G.	c #E1E1E1",
"H.	c #717171",
"I.	c #010101",
"J.	c #060606",
"K.	c #000073",
"L.	c #F4F4F4",
"M.	c #727272",
"N.	c #D5D5D5",
"O.	c #000094",
"P.	c #222222",
"Q.	c #E6E6E6",
"R.	c #AFAFAF",
"S.	c #4C4C4C",
"T.	c #B7B7B7",
"U.	c #616161",
"V.	c #303030",
"W.	c #A3A39F",
"X.	c #F9F9F9",
"Y.	c #202020",
"Z.	c #161616",
"`.	c #DBDBDB",
" +	c #383838",
".+	c #FBFBFB",
"++	c #FDFDFD",
"@+	c #565656",
"#+	c #9E9E9B",
"$+	c #F5F5F4",
"%+	c #00004A",
"&+	c #8F8F8F",
"*+	c #FD9C9C",
"=+	c #FDB4B4",
"-+	c #EAEAE9",
";+	c #E5E5E5",
">+	c #0E0E0E",
",+	c #FD9898",
"'+	c #FD0808",
")+	c #FD8585",
"!+	c #FD0C0C",
"~+	c #F1F1F0",
"{+	c #0000D6",
"]+	c #E3E3E3",
"^+	c #FDCACA",
"/+	c #FD2E2E",
"(+	c #FDC0C0",
"_+	c #FD4444",
":+	c #F0F0EE",
"<+	c #C8C8C8",
"[+	c #FDE6E6",
"}+	c #FDECEC",
"|+	c #7B7B78",
"1+	c #414141",
"2+	c #484847",
"3+	c #000039",
"4+	c #EBEBEB",
"5+	c #B1B1FD",
"6+	c #6363FD",
"7+	c #DFDFFD",
"8+	c #5050FD",
"9+	c #E3E3FD",
"0+	c #404040",
"a+	c #969696",
"b+	c #ECECFD",
"c+	c #6F6FFD",
"d+	c #5E5E5B",
"e+	c #3B3B3A",
"f+	c #E6E6E5",
"g+	c #735A00",
"h+	c #6B5208",
"i+	c #EEEEEE",
"j+	c #2C2C2C",
"k+	c #D7D7D7",
"l+	c #171717",
"m+	c #B4B4B2",
"n+	c #C68C29",
"o+	c #947300",
"p+	c #EAEAEA",
"q+	c #C7C7C3",
"r+	c #F7EFD6",
"s+	c #EFD66B",
"t+	c #D6B54A",
"u+	c #211808",
"v+	c #7B526B",
"w+	c #DEA510",
"x+	c #8C6B00",
"y+	c #555553",
"z+	c #EFCE7B",
"A+	c #524221",
"B+	c #181008",
"C+	c #AD9442",
"D+	c #4A319C",
"E+	c #CE8C18",
"F+	c #4A3900",
"G+	c #C5C5C5",
"H+	c #F4F4F3",
"I+	c #E7C67B",
"J+	c #3929AD",
"K+	c #634284",
"L+	c #946342",
"M+	c #C9C9C9",
"N+	c #ACACA8",
"O+	c #CEB56B",
"P+	c #4A3100",
"Q+	c #291800",
"R+	c #312100",
"S+	c #8C6308",
"T+	c #E7AD18",
"U+	c #7B5A63",
"V+	c #000007",
"W+	c #000002",
"X+	c #696969",
"Y+	c #4A4A47",
"Z+	c #D0B27D",
"`+	c #E7A508",
" @	c #C68C00",
".@	c #BD8408",
"+@	c #D69C08",
"@@	c #735A84",
"#@	c #AD7B39",
"$@	c #947509",
"%@	c #0B0900",
"&@	c #BABABA",
"*@	c #A0A0A0",
"=@	c #C1C1C1",
"-@	c #0F0F0F",
";@	c #5C5647",
">@	c #D79F09",
",@	c #DEAD08",
"'@	c #D69C00",
")@	c #EFB508",
"!@	c #4A39B5",
"~@	c #8C635A",
"{@	c #EFCE10",
"]@	c #886C09",
"^@	c #0A0801",
"/@	c #717170",
"(@	c #7A7A7A",
"_@	c #B9B9B9",
":@	c #6E5D30",
"<@	c #E4B527",
"[@	c #E9B720",
"}@	c #6B5294",
"|@	c #846363",
"1@	c #E7A510",
"2@	c #3A3A3A",
"3@	c #E8E8E8",
"4@	c #3D3D3D",
"5@	c #878787",
"6@	c #0A0A09",
"7@	c #40391E",
"8@	c #B79B42",
"9@	c #D4B440",
"0@	c #B58C4A",
"a@	c #8E7009",
"b@	c #0C0901",
"c@	c #808080",
"d@	c #BEBEBE",
"e@	c #9F9F9F",
"f@	c #D6D5D5",
"g@	c #D3D2D2",
"h@	c #2E2E2D",
"i@	c #0D0D0D",
"j@	c #726433",
"k@	c #EFBF19",
"l@	c #DEB518",
"m@	c #9A7509",
"n@	c #B6B6B6",
"o@	c #444444",
"p@	c #C3C3C3",
"q@	c #A3A3A3",
"r@	c #A8A8A8",
"s@	c #030303",
"t@	c #DBB540",
"u@	c #DEA518",
"v@	c #3121BD",
"w@	c #EEBC0F",
"x@	c #BB940C",
"y@	c #423302",
"z@	c #201C15",
"A@	c #B1B1B1",
"B@	c #7E7E7E",
"C@	c #DFDFDF",
"D@	c #373737",
"E@	c #A6A6A6",
"F@	c #E6E5E5",
"G@	c #413A1F",
"H@	c #946B63",
"I@	c #1008E7",
"J@	c #C68C18",
"K@	c #926506",
"L@	c #090600",
"M@	c #707070",
"N@	c #494949",
"O@	c #EDEDED",
"P@	c #A7A7A7",
"Q@	c #696968",
"R@	c #292928",
"S@	c #ACACAB",
"T@	c #686868",
"U@	c #1810DE",
"V@	c #3121B5",
"W@	c #AD7318",
"X@	c #AD7B08",
"Y@	c #C68C08",
"Z@	c #4F3500",
"`@	c #000005",
" #	c #000001",
".#	c #1D1D1D",
"+#	c #434343",
"@#	c #C7C7C7",
"##	c #CDCDCD",
"$#	c #D5D4D4",
"%#	c #1D1D1C",
"&#	c #AA8E3F",
"*#	c #2921A5",
"=#	c #1810C6",
"-#	c #4A317B",
";#	c #734A39",
">#	c #9C6B00",
",#	c #845A00",
"'#	c #392900",
")#	c #00002D",
"!#	c #1C1C1D",
"~#	c #A1A0A0",
"{#	c #352E1E",
"]#	c #867039",
"^#	c #836D39",
"/#	c #BE922E",
"(#	c #1008D6",
"_#	c #1810AD",
":#	c #39217B",
"<#	c #734A31",
"[#	c #523110",
"}#	c #1008AD",
"|#	c #423411",
"1#	c #5A3942",
"2#	c #422952",
"3#	c #5A3910",
"4#	c #0808CE",
"5#	c #1008B5",
"6#	c #392931",
"7#	c #634200",
"8#	c #6B4200",
"9#	c #5A3918",
"0#	c #29187B",
"                                    . + @ @ @ # $ %                                     ",
"                                & * @ @ @ @ @ @ @ @ $ =         - - - -                 ",
"                              & @ @ @ @ @ @ @ @ ; > , # '     ) ! ~ ~ { -               ",
"                              ] @ @ @ @ @ @ @ @ ^ / ( @ _   : < [ } | 1 2 3             ",
"                            & @ @ @ @ @ @ @ @ , 4 5 , @ @ 6 - 7 8 9 | 0 | a             ",
"                            b @ @ @ @ @ @ @ @ @ @ @ @ @ @ c - d e f g h i j -           ",
"                            _ @ @ , @ @ @ @ @ @ , k @ @ @ @ - l m n o p q r -           ",
"                            _ @ 4 > s , @ @ s t t ; , @ @ @ ' u v w | x | y z           ",
"                            _ , A B C @ @ 4 D B E F , @ @ @ % | | } | | | | G -         ",
"                            $ ( H t I s @ G E J C I K @ @ @ L M N O P Q R | G -         ",
"                            . ; > > H S 5 t H @ 4 D T @ @ @ L | | U V W | | X Y         ",
"                - - - -     . 5 G Y Z `  ...+.@ @ @.T @ @ @ L | | } | | | | | #.        ",
"              - { ~ ~ ! )   $.@ %.&.*.=.-.;.>.,.'.).5 @ @ @ !.| | } | | | | | #.        ",
"            3 2 1 | } [ < : & ~.{.].^./.(._._.:.-.<.[.@ @ @ _ | | } | | | | | 5 -       ",
"            a | 0 | 9 8 7 - & [.}.|.^.1._._.:.:.2.3.4.@ @ @ + | | } | | | | | 5.-       ",
"          - j i h g f e d - & , {.*.6.(.>.:.7.7.].8.9.@ K @ @ ' | } | | | | | 5.-       ",
"          - r q p o n m l - 6 Y 0.a.b.3.7.c.d.e.f.g.J @ / t , $ | } | | | | | 5.-       ",
"          z y | x | w v u #.' , h.i.c.8.8.}.j.k.l.E h.@ 5 m.@ @ ' } | | | | | 5.-       ",
"        - G | | | | } | | n.+ k o.h.p.q.r.s.t.l.u.v.v.w.@ @ @ @ x.} | | | | | y.z.-     ",
"        - G | R Q P O N M A.k > v.E h.h.h.l.E u.v.v.v.B , @ @ @ @ & B.C.| D.r | 5.3 -   ",
"        Y X | | W V U | 6 * 5 E v.v.o.l.E.u.v.v.v.v.v.v.S @ @ @ @ ] n.D.| r F.| | G.H.I.",
"        #.| | | | | } | # @ A v.v.v.v.v.v.v.v.v.v.v.v.v.@.@ @ @ @ @ $ D.| r F.| | } | J.",
"        #.| | | | | } K.@ 5 E v.v.v.v.v.v.v.v.v.v.v.v.v.I Y @ @ @ @ @ b | L.M.N.| L.G I.",
"      - 5 | | | | | O.@ @ S l.u.v.v.v.l.P.- - < Q.u.I o.I S @ @ @ @ @ @ % | R.S.T.U.-   ",
"      - 5.| | | | ' @ @ @ T h.I v.v.Q.V.{ ~ ~ ! W.o.B h.E.l., 5 , @ @ @ ] X.Q.Y.Z.-     ",
"      - 5.| | | | O.@ , k l.v.v.v.`. +2 .+++} v.@+#+$+u.o.o.J @ , k @ @ @ $.- -         ",
"      - 5.| | | | %+k Y t v.v.v.v.&+a ++*+++9 =+7 - -+v.v.E h.@ Y 5 , @ @ ]             ",
"      - 5.| | | ' @ 5 k u.v.v.v.;+>+j ,+'+)+f !+d - ~+v.v.v.v.S ( ( 5 @ @ @ {+          ",
"    - z.y.| | | !.k Y T v.v.v.v.]+- r ^+/+(+n _+l - :+v.v.v.v.H k k 5 , @ @ K.          ",
"  - 3 5.| r D.| ] 5 Y E v.v.v.v.<+z y ++[+++w }+u #.|+v.v.v.v.h.@ @ @ 5 @ @ ]           ",
"I.H.G.| | F.r & @ , > v.v.v.v.v.1+G ++++++++} ++++n.2+v.v.v.v.o.@ @ @ 5 @ @ @ %         ",
"J.| } | | F.r 3+k @ C v.v.v.v.4+; G ++5+6+7+O 8+9+n.0+v.v.v.v.v.@ @ @ , @ @ @ b         ",
"I.G L.| N.M.. @ 5 , %.v.v.v.v.a+Y X ++++b+c+U ++++n.d+v.v.v.v.v.@ @ , , @ @ @ c         ",
"  - U.T.S.R.* @ s k @.v.v.v.v.a+#.++++++++++} ++++n.d+v.v.v.v.v.5 @ 5 @ @ @ @ +         ",
"    - Z.Y.Q.@ @ Y ( B v.v.v.v.a+#.++++++++++} ++++n.e+f+v.v.v.v.4 @ 5 @ @ @ @ _         ",
"        - - Y g+h+s o.v.v.v.i+j+5 ++++++++++} ++++k+l+m+v.v.v.v.@ , , Y k 4 @ $         ",
"            n+^.^.o+w.I v.v.p+- 5.++++++++++} ++++++4 q+v.r+s+t+u+@ @ @ @ 4 u+L         ",
"          v+w+^.6.^.x+K B v.p+- 5.++++++++++} ++++++4 y+~+z+6.:.A+@ @ @ @ B+7.C+        ",
"        D+E+|.^.6.6.6.F+5 D p+- 5.++++++++++} ++++++G+- H+I+6.w+[.@ @ @ @ x+/.;.        ",
"  J+K+L+E+*.6.6.^.6.^.2.~.@ A - 5.++++++++++} ++++++M+- N+O+|.].c.P+Q+R+S+].6.T+        ",
"U+w+|.6.|.6.6.^.6.6.6.6.g+V+W+z.X.++++++++++} ++++++y.X+Y+Z+].`+ @}..@.@+@6.6.6.@@      ",
"#@6.^.6.^.^.6.^.6.6.^.6.$@%@3 &@++r D.++C.B.} ++*@++++=@-@;@>@,@`+'@+@].)@^.6.^.6.!@    ",
"~@)@^.6.^.6.6.6.6.{@^.]@^@/@G.++++F.r ++D.n.} ++=@(@v.++_@#.:@<@[@*.)@|.6.^.6.6.6.6.}@  ",
"|@1@^.6.6.6.^.6.6.6.^.- J.++} ++++F.r ++D.2@Q.++3@4@5@++++D 6@- 7@8@9@^.6.^.6.^.6.6.^.0@",
"|@1@6.6.^.6.^.6.6.^.6.a@b@G L.++N.M.L.++[ c@d@++++3@4@e@++++f@g@h@i@j@k@6.6.^.6.6.(.^.l@",
"~@1@6.6.^.6.^.{@6.6.6.6.m@- U.n@S.R.++++++++o@p@++++G.{ q@++++++++r@s@t@6.=.6.6.6.^.u@v@",
"j.].)@^.6.^.6.6.6.^.6.=.w@x@y@z@Y.;+[ ++++++A@B@++++++C@D@E@;+F@1 } l+G@6.6.6.6.|.H@I@  ",
"J@+@+@1@,@)@*.^.6.6.6.6.^.6.].K@L@- M@p@++++o.N@O@++++++++P@Q@R@S@} T@- 6.6.w+|@U@      ",
"V@Z W@X@Y@Y@d.+@].*.^.6.6.].8.c.Z@`@ #.#+#+#@#@+##++++++++++++$#%#j J.&#+@W@*#          ",
"      =#-#;#>#c.X@.@8.8.+@.@c.,#'## %+c )#- - - !#*@*@*@*@*@~#~#{#]#^#/#;#(#            ",
"            I@_#:#<#&.c.>#a.,#[#}#        - - - - - - - - - - - |#X@>#1#                ",
"                    _#2#3#4.2#4#                          5#6#7#8#9#0#=                 "};
