/* XPM */
static char * PanguinInMailBox_xpm[] = {
"44 52 302 2",
"  	c None",
". 	c #00008C",
"+ 	c #000042",
"@ 	c #000008",
"# 	c #000031",
"$ 	c #00006B",
"% 	c #0000BD",
"& 	c #0000B5",
"* 	c #000010",
"= 	c #0000E7",
"- 	c #393939",
"; 	c #424242",
"> 	c #101008",
", 	c #0000DE",
"' 	c #000021",
") 	c #52524A",
"! 	c #636363",
"~ 	c #292929",
"{ 	c #000063",
"] 	c #212121",
"^ 	c #181818",
"/ 	c #0000C6",
"( 	c #000084",
"_ 	c #000052",
": 	c #101010",
"< 	c #292921",
"[ 	c #737373",
"} 	c #949494",
"| 	c #CECECE",
"1 	c #848484",
"2 	c #B5B5B5",
"3 	c #DEDEDE",
"4 	c #8C8C8C",
"5 	c #9C9C9C",
"6 	c #E7E7E7",
"7 	c #6B6B6B",
"8 	c #5A5A5A",
"9 	c #313131",
"0 	c #0000AD",
"a 	c #4A4A4A",
"b 	c #7B7B7B",
"c 	c #080808",
"d 	c #7F623D",
"e 	c #AD880C",
"f 	c #9C8408",
"g 	c #947B21",
"h 	c #847B52",
"i 	c #ADADAD",
"j 	c #00009C",
"k 	c #A5A5A5",
"l 	c #8C6310",
"m 	c #E7AD08",
"n 	c #F7C610",
"o 	c #E7C608",
"p 	c #D6B521",
"q 	c #E7CE21",
"r 	c #9C7B00",
"s 	c #94844A",
"t 	c #DEDECE",
"u 	c #00007B",
"v 	c #080800",
"w 	c #845A08",
"x 	c #DEA508",
"y 	c #F7BD10",
"z 	c #EFC608",
"A 	c #EFCE18",
"B 	c #E7CE31",
"C 	c #DEC608",
"D 	c #D6B518",
"E 	c #423100",
"F 	c #C68408",
"G 	c #E7AD10",
"H 	c #EFCE08",
"I 	c #D6AD08",
"J 	c #C6A510",
"K 	c #5A3900",
"L 	c #EFBD10",
"M 	c #B59808",
"N 	c #CE9408",
"O 	c #292100",
"P 	c #9C947B",
"Q 	c #946308",
"R 	c #BD9C08",
"S 	c #A77508",
"T 	c #CE8C08",
"U 	c #D69410",
"V 	c #CE9C42",
"W 	c #BDB594",
"X 	c #BDBDBD",
"Y 	c #AD9C7B",
"Z 	c #BD8429",
"` 	c #BDAD84",
" .	c #C6C6C6",
"..	c #525252",
"+.	c #D6D6D6",
"@.	c #B5A594",
"#.	c #9C844A",
"$.	c #A5844A",
"%.	c #B1986B",
"&.	c #BDB5AD",
"*.	c #EFEFEF",
"=.	c #F7F7F7",
"-.	c #52525A",
";.	c #08085A",
">.	c #08088C",
",.	c #929292",
"'.	c #909090",
").	c #808080",
"!.	c #777777",
"~.	c #7D7D7D",
"{.	c #797979",
"].	c #C6C6CE",
"^.	c #858585",
"/.	c #7F7F7F",
"(.	c #DCDCDC",
"_.	c #DDDDDD",
":.	c #BCBCBC",
"<.	c #9B9B9B",
"[.	c #959595",
"}.	c #ABABAB",
"|.	c #C9C9C9",
"1.	c #ACACAC",
"2.	c #A9A9A9",
"3.	c #9D9D9D",
"4.	c #000073",
"5.	c #6C6C6C",
"6.	c #818181",
"7.	c #DBDBDB",
"8.	c #CCCCCC",
"9.	c #CDCDCD",
"0.	c #C5C5C5",
"a.	c #BBBBBB",
"b.	c #BBBBBC",
"c.	c #939393",
"d.	c #898989",
"e.	c #868686",
"f.	c #CBCBCB",
"g.	c #A2A2A2",
"h.	c #929293",
"i.	c #747474",
"j.	c #727272",
"k.	c #717171",
"l.	c #696969",
"m.	c #6A6A6A",
"n.	c #686868",
"o.	c #676767",
"p.	c #7A7A7A",
"q.	c #FDFDFD",
"r.	c #FEFEFE",
"s.	c #999999",
"t.	c #F4F4F4",
"u.	c #CFCFCF",
"v.	c #DADADA",
"w.	c #8E8E8E",
"x.	c #F1F1F1",
"y.	c #B7B7B7",
"z.	c #AFAFB0",
"A.	c #E1BAC2",
"B.	c #D55B72",
"C.	c #AA7680",
"D.	c #C8C8C8",
"E.	c #E49CAA",
"F.	c #C25267",
"G.	c #6B9A51",
"H.	c #72C66F",
"I.	c #6AD765",
"J.	c #88D185",
"K.	c #C8D2C8",
"L.	c #8B8B8C",
"M.	c #E3ACB6",
"N.	c #CD556C",
"O.	c #AA838B",
"P.	c #C0C0C0",
"Q.	c #A1A1A1",
"R.	c #60B45C",
"S.	c #5AA956",
"T.	c #A7B4A7",
"U.	c #8D8D8D",
"V.	c #878787",
"W.	c #A7A7A7",
"X.	c #E49DAB",
"Y.	c #81656A",
"Z.	c #58AC54",
"`.	c #95A295",
" +	c #8B8B8B",
".+	c #AB838B",
"++	c #8BD788",
"@+	c #7ACE76",
"#+	c #99E397",
"$+	c #D3DDD3",
"%+	c #DADADB",
"&+	c #CACACA",
"*+	c #D1D1D1",
"=+	c #969696",
"-+	c #6D6D6D",
";+	c #828282",
">+	c #767676",
",+	c #757575",
"'+	c #E6E6E6",
")+	c #B2B2B2",
"!+	c #EDEDED",
"~+	c #707070",
"{+	c #DBDBDA",
"]+	c #DDDCDC",
"^+	c #DDDDDC",
"/+	c #1F1F20",
"(+	c #FCFCFC",
"_+	c #A4A4A4",
":+	c #919191",
"<+	c #929290",
"[+	c #939392",
"}+	c #979796",
"|+	c #C1C1C1",
"1+	c #D4D4D4",
"2+	c #D0D0D0",
"3+	c #787878",
"4+	c #727271",
"5+	c #D7D7D7",
"6+	c #DCDBDA",
"7+	c #D5D4D4",
"8+	c #B4B4B3",
"9+	c #D5D5D5",
"0+	c #BFBFBF",
"a+	c #989898",
"b+	c #AAAAAA",
"c+	c #A8A8A8",
"d+	c #7E7E7E",
"e+	c #BABABA",
"f+	c #555555",
"g+	c #B4B4B4",
"h+	c #D2D2D2",
"i+	c #929191",
"j+	c #8F8F8E",
"k+	c #7D7D7C",
"l+	c #B6B6B6",
"m+	c #C2C2C2",
"n+	c #D4D3D3",
"o+	c #AAA9A9",
"p+	c #A3A2A2",
"q+	c #B1B1B1",
"r+	c #7C7C7B",
"s+	c #666666",
"t+	c #626262",
"u+	c #454545",
"v+	c #ACACAB",
"w+	c #A4A4A2",
"x+	c #AEAEAE",
"y+	c #BBBABA",
"z+	c #A8A7A7",
"A+	c #B2B1B1",
"B+	c #9A9999",
"C+	c #939292",
"D+	c #7E7E7D",
"E+	c #727172",
"F+	c #656565",
"G+	c #D3D2D2",
"H+	c #A6A6A5",
"I+	c #B3B3B3",
"J+	c #CDCCCC",
"K+	c #AAAAA9",
"L+	c #A3A3A2",
"M+	c #9A9A99",
"N+	c #666665",
"O+	c #616162",
"P+	c #949493",
"Q+	c #B8B8B8",
"R+	c #BCBBBB",
"S+	c #A4A4A3",
"T+	c #656564",
"U+	c #747473",
"V+	c #989897",
"W+	c #9C9B9B",
"X+	c #9E9E9D",
"Y+	c #B2B2B1",
"Z+	c #9C9C9B",
"`+	c #626261",
" @	c #454544",
".@	c #B4B3B3",
"+@	c #8A8A89",
"@@	c #6F6F6E",
"#@	c #616161",
"$@	c #626161",
"%@	c #848483",
"&@	c #B0B0AF",
"*@	c #9D9D9C",
"=@	c #A0A09F",
"-@	c #C9C8C8",
";@	c #9F9F9E",
">@	c #B3B3B4",
",@	c #444445",
"'@	c #A6A5A5",
")@	c #7C7B7B",
"!@	c #656566",
"~@	c #ACABAB",
"{@	c #A4A3A2",
"]@	c #929190",
"^@	c #7D7D7E",
"/@	c #717172",
"(@	c #707071",
"_@	c #717070",
":@	c #727171",
"<@	c #606062",
"                                    . + @ @ @ # $ %                                     ",
"                                & * @ @ @ @ @ @ @ @ $ =                                 ",
"                              & @ @ @ @ @ @ @ @ - ; > # ,                               ",
"                              ' @ @ @ @ @ @ @ @ ) ! ~ @ {                               ",
"                            & @ @ @ @ @ @ @ @ > ] ^ > @ @ /                             ",
"                            ( @ @ @ @ @ @ @ @ @ @ @ @ @ @ _                             ",
"                            { @ @ > @ @ @ @ @ @ > : @ @ @ @                             ",
"                            { @ ] ; < > @ @ < [ [ - > @ @ @ ,                           ",
"                            { > } | 1 @ @ ] 2 | 3 4 > @ @ @ %                           ",
"                            $ ~ 5 [ 6 < @ 7 3 8 1 6 9 @ @ @ 0                           ",
"                            . - ; ; 5 a ^ [ 5 @ ] 2 b @ @ @ 0                           ",
"                            . ^ 7 c d e f g h @ @ i b @ @ @ 0                           ",
"                            j @ k l m n o p q r s t ^ @ @ @ u                           ",
"                            & v w x y z A B B C o D E @ @ @ {                           ",
"                            & E F G y H B B C C I J K @ @ @ +                           ",
"                            & > w m L A q C M M x N O @ 9 @ @ ,                         ",
"                            / c P Q R J M S T U V W 8 @ ! [ > $                         ",
"                            , > X Y S N N F Z `  .3 X @ ^ ..@ @ ,                       ",
"                            + : +.X @.#.$.%.&. .*.=.=.-.@ @ @ @ ;.                      ",
"                          >.: ; =.3 X X X  .3 *.=.=.=.| > @ @ @ @ &                     ",
"          ,.'.).!.~.{.b / * ^ 3 =.=.+. .].*.=.=.=.=.=.=.a @ @ @ @ ' ^.^.^./.            ",
"          i (._._._._._.# @ } =.=.=.=.=.=.=.=.=.=.=.=.=.i @ @ @ @ @ $ :.:.<.            ",
"        [.}.|.1.1.2.3.4.@ ^ 3 =.=.=.=.=.=.=.=.=.=.=.=.=.6 c @ @ @ @ @ ( 5.!.6.          ",
"        2.(.(._._._.(.(.(.(.(._._._._._._._.7.8.9.8.| 0.:.a.a.a.a.a.a.a.b.:.c.          ",
"      d.e.f.g.c.c.h.,.,.,.,.c.c.c.c.c.e.i.j.j.j.j.j.j.j.j.j.k.5.l.l.m.n.7 o.p.          ",
"      i q.q.q.r.r.q.q.q.q.q.q.q.q.q.q.q.q.q.q.q.q.q.q.q.q.q.q.q.q.q.q.q.q.q.s.          ",
"      i t.(.(._._.(.(.(.(._._._._._._._._._._._._._._._._._.(.(.(.u.9.|.u.v.w.          ",
"      i x.y.!.5 z.1.(.(._._._._._._._._._._._._._._._.A.B.C.D.E.F.G.H.I.J.K.L.          ",
"      i t.(.(._.(.(.(.(._._._._._._._._._._._._._._._._._.M.N.O.P.Q.R.S.T.+.U.          ",
"      V.x.y.k.{.W.(.(._._._._._._._._._._._._._._._._.A.B.C.D.X.F.Y.Z.S.`.f. +          ",
"      i t.(.(.(.(.(.(._._._._._._._._._._._._._._._._._._.M.N..+P.++@+I.#+$+U.          ",
"      V.t.(.(.(.(.(.(._._._._._._._._._._._._._._._._._._._._._.(.(.(.(.(.(.U.          ",
"      i t.(.%+(.(.(.(._._._._._._._._._._._._._._._._._._._._._.(.(.(.(.(.(.U.          ",
"      V.t.(.v.(.(.(.(._._._._._._._._._._._._._._._._._._._._._.(.(.(.(.&+*+=+l.        ",
"    -+i t.(.v.(.(.(.(._._._._._._._._._._._._._._._._._._._._._.(.(.(.(.(.D.;+g.>+      ",
"  ,+'+c.t.(.v.(.(.(.(._._._._._._._._._._._._._._._._._._._._._.(.(.9.| D.*+ +V.)+j.    ",
"5.!+~+V.t.(.{+]+]+(.(._._._._._._._._._._._._._._._._._._.^+]+(.(.(.(.f.X a.)./+k.)+-+  ",
"(++.1.1._+:+<+[+[+}+}.a.|+1+_._._._._._._._._._._._._._._.]+]+]+2+Q.3+k.k.k.4+4+j.j.)+a.",
"(+5+2 _.%+{+6+]+]+7+8+g.i X 9+_.0+6.a+b+3+j.,+c+5 d+e+_._.]+]+]+2 2.2+(.(.(.]+(._._.f+g+",
"(+(.h+k i+<+<+[+[+j+k+4+=+l+m++._._._._._._._._._._._._._.(.n+o+p+q+s.,.,.[+[+r+s+t+u+g+",
"(++.v+v+w+<+<+[+[+j+k+4+c.x+0+9+0+6.j.j.j._+_+j.j.d+e+_.(.(.]+y+z+A+B+C+[+[+D+4+E+F+u+g+",
"(+(.G+H+<+<+<+[+[+j+k+4+}+I+e+h+(._._._._._._._._._._._.+.&+J+K+L+A+M+[+[+[+[+r+N+O+u+g+",
"(++.v+v+w+<+<+[+[+j+k+4+P+x+g+I+Q+:.:.:.:.:.:.:.:.:.:.:.:.a.R+S+L+A+M+[+[+[+D+4+4+T+u+g+",
"(+(.G+H+<+<+<+[+[+[+j+r+U+V+}.}.1.1.1.1.1.1.1.1.1.1.1.1.}.}.W+X+Y+Z+[+[+[+[+[+r+N+`+ @.@",
"(++.v+v+w+<+<+[+[+[+[+[++@@@`+t+t+t+t+t+t+t+t+t+t+t+t+#@#@$@%@&@*@[+[+[+[+[+D+4+4+T+ @8+",
"(+(.G+H+<+<+<+[+[+[+[+[+=@-@]+(._._._._._._._._._.(.(.(.(.(.-@;@[+[+[+[+[+[+[+r+N+`+ @>@",
"(++.v+v+w+<+<+[+[+[+[+[+[+[+[+C+,.c.c.c.c.c.c.,.,.,.,.,.,.C+[+[+[+[+[+[+[+[+D+4+4+T+,@g+",
"(+(.G+'@<+<+<+[+[+[+[+[+[+[+[+C+,.,.,.,.,.,.,.,.,.,.,.,.,.C+[+[+[+[+[+[+[+[+[+)@!@t+u+g+",
"(++.~@~@{@]@]@[+[+[+[+[+[+[+[+C+,.,.,.,.,.,.,.,.,.,.,.,.,.,.C+[+[+[+[+[+[+C+^@j.j.F+u+g+",
"a.}.Q./@(@_@_@4+4+4+4+4+4+4+4+:@k.k.k./@/@/@/@/@/@/@/@k.k.:@4+4+4+4+4+4+:@/@j.j.s+t+u+g+",
"W.t+t+t+#@#@<@O+O+$@`+`+`+`+$@#@O+t+t+t+t+t+t+t+t+t+t+t+O+#@$@`+`+`+`+#@t+t+t+t+t+t+t+y.",
":.:.:.:.a.a.a.:.:.:.a.a.a.a.a.b.:.:.:.:.:.:.:.:.:.:.:.:.:.a.a.a.a.a.a.b.:.:.:.:.:.:.:.  "};
