/* XPM */
static char * utility_xpm[] = {
"44 52 208 2",
"  	c None",
". 	c #00008C",
"+ 	c #000042",
"@ 	c #000008",
"# 	c #000031",
"$ 	c #00006B",
"% 	c #0000BD",
"& 	c #0000B5",
"* 	c #000010",
"= 	c #0000E7",
"- 	c #393939",
"; 	c #424242",
"> 	c #101008",
", 	c #0000DE",
"' 	c #000021",
") 	c #52524A",
"! 	c #636363",
"~ 	c #292929",
"{ 	c #000063",
"] 	c #212121",
"^ 	c #181818",
"/ 	c #0000C6",
"( 	c #000084",
"_ 	c #000052",
": 	c #101010",
"< 	c #292921",
"[ 	c #737373",
"} 	c #949494",
"| 	c #CECECE",
"1 	c #848484",
"2 	c #B5B5B5",
"3 	c #DEDEDE",
"4 	c #8C8C8C",
"5 	c #302030",
"6 	c #203020",
"7 	c #000000",
"8 	c #9C9C9C",
"9 	c #E7E7E7",
"0 	c #6B6B6B",
"a 	c #5A5A5A",
"b 	c #313131",
"c 	c #0000AD",
"d 	c #C0C0C0",
"e 	c #4A4A4A",
"f 	c #7B7B7B",
"g 	c #C0C0B0",
"h 	c #90C0C0",
"i 	c #90C0B0",
"j 	c #90B0C0",
"k 	c #080808",
"l 	c #7F623D",
"m 	c #AD880C",
"n 	c #9C8408",
"o 	c #947B21",
"p 	c #847B52",
"q 	c #ADADAD",
"r 	c #80C0C0",
"s 	c #00009C",
"t 	c #A5A5A5",
"u 	c #8C6310",
"v 	c #E7AD08",
"w 	c #F7C610",
"x 	c #E7C608",
"y 	c #D6B521",
"z 	c #E7CE21",
"A 	c #9C7B00",
"B 	c #94844A",
"C 	c #DEDECE",
"D 	c #00007B",
"E 	c #080800",
"F 	c #845A08",
"G 	c #DEA508",
"H 	c #F7BD10",
"I 	c #EFC608",
"J 	c #EFCE18",
"K 	c #E7CE31",
"L 	c #DEC608",
"M 	c #D6B518",
"N 	c #423100",
"O 	c #C68408",
"P 	c #E7AD10",
"Q 	c #EFCE08",
"R 	c #D6AD08",
"S 	c #C6A510",
"T 	c #5A3900",
"U 	c #A0A0A0",
"V 	c #EFBD10",
"W 	c #B59808",
"X 	c #CE9408",
"Y 	c #292100",
"Z 	c #F0F0F0",
"` 	c #9C947B",
" .	c #946308",
"..	c #BD9C08",
"+.	c #A77508",
"@.	c #CE8C08",
"#.	c #D69410",
"$.	c #CE9C42",
"%.	c #BDB594",
"&.	c #F0E0F0",
"*.	c #BDBDBD",
"=.	c #AD9C7B",
"-.	c #BD8429",
";.	c #BDAD84",
">.	c #C6C6C6",
",.	c #525252",
"'.	c #D6D6D6",
").	c #B5A594",
"!.	c #9C844A",
"~.	c #A5844A",
"{.	c #B1986B",
"].	c #BDB5AD",
"^.	c #EFEFEF",
"/.	c #F7F7F7",
"(.	c #52525A",
"_.	c #C0B0C0",
":.	c #08088C",
"<.	c #B0C0C0",
"[.	c #C6C6CE",
"}.	c #E7D6B5",
"|.	c #000073",
"1.	c #000094",
"2.	c #00004A",
"3.	c #0000D6",
"4.	c #000039",
"5.	c #735A00",
"6.	c #6B5208",
"7.	c #C68C29",
"8.	c #947300",
"9.	c #F7EFD6",
"0.	c #EFD66B",
"a.	c #211808",
"b.	c #7B526B",
"c.	c #DEA510",
"d.	c #8C6B00",
"e.	c #EFCE7B",
"f.	c #AD9442",
"g.	c #4A319C",
"h.	c #CE8C18",
"i.	c #E7C67B",
"j.	c #3929AD",
"k.	c #634284",
"l.	c #946342",
"m.	c #CEB56B",
"n.	c #E7AD18",
"o.	c #7B5A63",
"p.	c #CEAD73",
"q.	c #D69C08",
"r.	c #735A84",
"s.	c #AD7B39",
"t.	c #D69C00",
"u.	c #4A39B5",
"v.	c #8C635A",
"w.	c #EFB508",
"x.	c #9C7B42",
"y.	c #C68C00",
"z.	c #6B5294",
"A.	c #846363",
"B.	c #E7A510",
"C.	c #6B4A00",
"D.	c #B58C4A",
"E.	c #DEB518",
"F.	c #EFCE10",
"G.	c #DEB508",
"H.	c #B58421",
"I.	c #8C5A00",
"J.	c #DEA518",
"K.	c #3121BD",
"L.	c #DEAD08",
"M.	c #BD8408",
"N.	c #524221",
"O.	c #946300",
"P.	c #946B63",
"Q.	c #1008E7",
"R.	c #C68C18",
"S.	c #211800",
"T.	c #9C6B00",
"U.	c #D69408",
"V.	c #1810DE",
"W.	c #3121B5",
"X.	c #AD7318",
"Y.	c #AD7B08",
"Z.	c #C68C08",
"`.	c #634200",
" +	c #2921A5",
".+	c #1810C6",
"++	c #4A317B",
"@+	c #734A39",
"#+	c #845A00",
"$+	c #392900",
"%+	c #100839",
"&+	c #734A00",
"*+	c #1008D6",
"=+	c #1810AD",
"-+	c #39217B",
";+	c #734A31",
">+	c #523110",
",+	c #1008AD",
"'+	c #0800DE",
")+	c #5A3910",
"!+	c #5A3942",
"~+	c #422952",
"{+	c #0808CE",
"]+	c #1008B5",
"^+	c #392931",
"/+	c #6B4200",
"(+	c #5A3918",
"_+	c #29187B",
"                                    . + @ @ @ # $ %                                     ",
"                                & * @ @ @ @ @ @ @ @ $ =                                 ",
"                              & @ @ @ @ @ @ @ @ - ; > # ,                               ",
"                              ' @ @ @ @ @ @ @ @ ) ! ~ @ {                               ",
"                            & @ @ @ @ @ @ @ @ > ] ^ > @ @ /                             ",
"                            ( @ @ @ @ @ @ @ @ @ @ @ @ @ @ _                             ",
"                            { @ @ > @ @ @ @ @ @ > : @ @ @ @                             ",
"                            { @ ] ; < > @ @ < [ [ - > @ @ @ ,                           ",
"                            { > } | 1 @ @ ] 2 | 3 4 > @ @ @ %         5 5 6 5 5 7       ",
"                            $ ~ 8 [ 9 < @ 0 3 a 1 9 b @ @ @ c     7 7 d d d d d d 6     ",
"                            . - ; ; 8 e ^ [ 8 @ ] 2 f @ @ @ c   6 g d h i j h 6 5 5     ",
"                            . ^ 0 k l m n o p @ @ q f @ @ @ c   5 d r h j 6 5 5         ",
"                            s @ t u v w x y z A B C ^ @ @ @ D   6 h j r h 7 6           ",
"                            & E F G H I J K K L x M N @ @ @ { 7 h 7 j h 6               ",
"                            & N O P H Q K K L L R S T @ @ @ + 7 h 7 U h 5               ",
"                            & > F v V J z L W W G X Y @ b @ @ 7 r Z 7 U 6 5             ",
"                            / k `  ...S W +.@.#.$.%.a @ ! [ > 7 &.7 7 U h 6           7 ",
"                            , > *.=.+.X X O -.;.>.3 *.@ ^ ,.@ 5 h Z 7 7 j r 5 5 7 7 7 7 ",
"                            + : '.*.).!.~.{.].>.^././.(.@ @ 7 U r 7 Z &.U j 7 d _.d f   ",
"                          :.: ; /.3 *.*.*.>.3 ^./././.| > @ 6 r j h Z 7 U r j d d <.7   ",
"                        / * ^ 3 /./.'.>.[.^././././././.e 5 r *.h j r h j r h d 7 7     ",
"                        # @ } /././././././././././././.5 r <.}.d h U U 7 7 7 6         ",
"                      |.@ ^ 3 /./././././././././././.6 r <.}.*.r 7 7 7                 ",
"                    1.@ @ e >.^./././.9 ^./././.^.^.6 r <.}.*.r 7 @ @ @ %               ",
"                  , @ @ @ f *.9 /././.^././././.^.5 r <.}.*.r 7 > @ @ @ '               ",
"                  1.@ > : >././././././././././.5 r <.}.*.r 7 @ > : @ @ @ s             ",
"                  2.: k [ /./././././././././.6 r <.}.*.r 7 + @ k ^ > @ @ '             ",
"                , @ ^ : ^./././././././././.6 r <.}.+ + + + + + + + ^ @ @ @ 3.          ",
"                D : k f /././././././././.7 r <.}.+ + + + + + + : : ^ > @ @ |.          ",
"                ' ^ k 3 /./././././././.7 r <.}.+ + + + + + + + + @ @ ^ @ @ '           ",
"              & @ > ; /././././././.^.6 r <.}.j + + + + + + + + @ @ @ ^ @ @ @ %         ",
"              4.: @ 1 /././././././.6 r <.}.d r + + + + + + + + @ @ @ > @ @ @ (         ",
"            . @ ^ > t /./././././.7 r <.}.d r + + + + + + + + + @ @ > > @ @ @ _         ",
"            * @ < : q /././././.6 r <.}.U r 7 /.+ + + + + + + + ^ @ ^ @ @ @ @ +         ",
"            @ @ k ~ | /./././.6 r <.}.d r 7 /./././.+ + + + + + + @ ^ @ @ @ @ {         ",
"            k 5.6.< './././.6 r <.}.d r 7 /./././././././.+ + + u u > k : ] @ $         ",
"            7.H H 8.(.9 /.7 r <.}.U r 7 /././././././././.9.0.v v u @ @ @ ] a.c         ",
"          b.c.H V H d.b 6 r _.}.d r 7 /./././././././././.e.V v w w u @ @ u W f.        ",
"        g.h.P H V #.#.7 7 7 <.d r 7 /././././././././././.i.V w z w w u u v I y         ",
"  j.k.l.h.v V V H x x 7 7 7 <.r 7 /././././././././././.3 m.z z z z w v v G V n.        ",
"o.c.P V P V V H x x x #.7 7 7 7 ^./././././././././././.| p.G z z z z w q.V V V r.      ",
"s.V H V H H V H V x x x 7 7 7 @ 0 /././././././././././.'.{.t.z z z z z z H V H V u.    ",
"v.w.H V H V V V V x x x #.: E @ ; /././././././././././.3 x.y.w.z z z z w H V V V V z.  ",
"A.B.H V V V H V V V H V x #.6.(.>./././././././././././.(.C.y.w.V H z H V H V H V V H D.",
"A.B.V V H V H V V H V V x #.#.}././././././././././.3 ; @ 5.q.w.H V V V V V H V V J H E.",
"v.B.V V H V H F.V V V V H V G.H.9 /./././././././.8 k @ E I.q.w.V H V H V w V V V H J.K.",
"-.G w.H V H V V V H V w V V L.M.N.8 '.9 3 *.8 0 ] @ @ @ > O.q.w.H V V V V V V V P P.Q.  ",
"R.q.q.B.L.w.v H V V V V H V G M.T @ @ @ @ @ @ @ @ @ @ @ S.T.U.w.V V H V V V c.A.V.      ",
"W.l X.Y.Z.Z.@.q.G v H V V G X +.`.@ @ @ @ @ @ @ @ @ @ @ S.I.O t.w.w.v G q.X. +          ",
"      .+++@+T.+.Y.M.X X q.M.+.#+$+# 2.|.. . . . . . . $ %+&++.O @.X Z.M.@+*+            ",
"            Q.=+-+;+u +.T. .#+>+,+                      '+)+I.+.Y.Y.T.!+                ",
"                    =+~+)+T ~+{+                          ]+^+`./+(+_+=                 "};
