/* XPM */
static char * Crab_xpm[] = {
"48 48 64 1",
" 	c None",
".	c #861782078617",
"X	c #618561856185",
"o	c #69A649244103",
"O	c #5965451438E3",
"+	c #9E799A699E79",
"@	c #38E330C228A2",
"#	c #96587DF771C6",
"$	c #BEFB8A2871C6",
"%	c #BEFB7DF76185",
"&	c #D75C82076185",
"*	c #F7DEAEBA8E38",
"=	c #FFFFDB6CBEFB",
"-	c #FFFFC71BAEBA",
";	c #596534D328A2",
":	c #10400C300820",
">	c #30C230C230C2",
",	c #28A218611040",
"<	c #410320811861",
"1	c #28A228A228A2",
"2	c #69A669A669A6",
"3	c #8E388A288E38",
"4	c #71C671C671C6",
"5	c #30C228A228A2",
"6	c #71C659655144",
"7	c #30C224922081",
"8	c #30C21C711040",
"9	c #59652CB22081",
"0	c #8E38492438E3",
"q	c #BEFB69A65144",
"w	c #F7DE9A6971C6",
"e	c #492428A22081",
"r	c #E79D924869A6",
"t	c #FFFFCF3CB6DA",
"y	c #DF7DAAAA9658",
"u	c #69A63CF328A2",
"i	c #41033CF338E3",
"p	c #965892489658",
"a	c #208110400820",
"s	c #B6DA61854924",
"d	c #9658514438E3",
"f	c #FFFFEBADDF7D",
"g	c #492434D328A2",
"h	c #79E7451430C2",
"j	c #FFFFBAEA9E79",
"k	c #EFBEA28979E7",
"l	c #000000000000",
"z	c #9E7965954924",
"x	c #FFFFB2CA8E38",
"c	c #F7DE8E3869A6",
"v	c #104008200000",
"b	c #BEFB71C65965",
"n	c #F7DE965871C6",
"m	c #514451445144",
"M	c #410324921861",
"N	c #9E7955554103",
"B	c #20811C711861",
"V	c #492445144103",
"C	c #A69959654103",
"Z	c #618559655144",
"A	c #DF7D8A2869A6",
"S	c #CF3C75D65965",
"D	c #71C6410338E3",
"F	c #96588A288E38",
"                                                ",
"                    .XoooooooooOO.+             ",
"                  .@#$%%&*==--=*$;:>,<123       ",
"                 45671111890qqwwwqert=y%uip     ",
"                 pX.      .i:a9sqd$ff=fft%72    ",
"                  +.3...p415g#%ehh$jwwk*jtyhX   ",
"                  plzyyy*xxxwckk&u$wccwwk*ty8+  ",
"                   p266goooooo@aavbyccnkkkkj%i  ",
"        +4mli                    2eqb$rnnnkrru4 ",
"       2,Mu:2                     Xa9dNzzzzN0hB ",
"      X6y0V+                       pXg8<e<8a<i  ",
"     +8zM>                             2au0C0a  ",
"     2u:X                              Xzyj&C7  ",
"     1B.                             ppOy-cbM3  ",
"     @,                              .BO=kb;3   ",
"     le2                            pgz9%CM2    ",
"     18@                            iky0a13     ",
"     .ve.                          2z-kN:       ",
"      maV         3.+    +Z3      Z$twb<V       ",
"  .m   B:Z+       OqXp.. 2#g    +Z*-cbuvm       ",
"  >a   pazhZ+     m9BlaNhil.   +O**bN8>>m       ",
"  .uZ   V;$Cg    +iM$kkwqNMm+  OkAd8i. 2>       ",
"   .@    X:eu132>Mzj=fttjwSu,1m<ugX+  +;2       ",
"   pBV    +X7l<Drtffff=fffx*&qevX    +gi        ",
"    XNO     +1CSj====f---tt=kks;.  +.u<+        ",
"     <7V11V4 >Cqhxx*j=xkkkkkAh&;42OO,92         ",
"3.   m<,zC0h<:dC8kkkjtkkkkqkbv&el6D8@3          ",
"+>    .Va<<8alhC<w*k--&rkkkkhMq8l:Vp      +Vi2  ",
" B3        3Xm;se$xk--ckkkkkghq73        .1Bp3  ",
" 1u+         2eqzNxk**ckwk*k,bCi3....p m6h@3    ",
" X9X      32@l<s&M$&qnc&&Ax;Mnhla6##O77u,V      ",
"  :l;2 4V6##9B5CwNDAs&AArqd;AAu1B,;0hv6p        ",
"  pVNh<0y%uaV XdS&%Ss&cnkA&rnqM+   p2+          ",
"   +2ilg:1X3  4vss&Swwkkr&cnzN@p                ",
"             27l<sSSsSk&wkwzha:<;X+             ",
"          pX;h,>2aCsSArknSz9>X:9by6.            ",
"         3OkdB4  .a9NCqqCd<l. +mvO$;Zi3         ",
"        3iN;m   .7MB>;ddgX1e0X  +m,,:uO3        ",
"       4Dlmp   .8d,+ .m2  +7z#4   p.p7Cm        ",
"       6e.     Ohv.        pidDp     p5;3       ",
"      .l>     #<B.           Z@+      #83       ",
"      Ve.     F0             .e2      .9.       ",
"      ><+     3vX            .e2      +4        ",
"      .>       o8           3<i+                ",
"      2>       maX          1V3                 ",
"      31p      p2F          +p                  ",
"                                                ",
"                                                "};
