/* XPM */
static char * image_name[] = {
"48 48 4 1",
" 	c #AEBAAAAAAEBA",
".	c #514455555144",
"X	c #000000000000",
"o	c #FFFFFFFFFFFF",
"                                                ",
"                                                ",
"                                                ",
"                                                ",
"           . . . .         ..XXXX. . . .        ",
"      . .  o o o o  .     .XXXXX.. o o   . .    ",
" . .  oooooooooooooo oo X... XXXX.ooooooooo  ...",
"  ooooooooooooooooooooXX. ..XXXXX.oooooooooooooX",
"o oooooooooooooooooooXX . .o  XXXooooooooooooooX",
"  ooooooooooooooooooX X ..X...XXXooooooooooooooX",
"o ooooooooo      ooo. . .Xo   XX.     oooooooooX",
"  ooooo    ooooooooX. ..X ...XXX.ooooo    oooooX",
"o oo   ooooooooooX ...Xo. .XXXoooooooooooo   ooX",
"  ooooooooo   ooo....XX  .. X .o      oooooooooX",
"o ooooo    oooooX. .X  ..  Xooo oooooo    oooooX",
"  oo   ooooooooX.. . .....Xooooooooooooooo   ooX",
"o ooooooooo ooX .. X  .  X ooooo      oooooooooX",
"  ooooo    oo.X...X ....Xoooo   oooooo    oooooX",
"o oo   oooooX.. .. ...Xooooo ooooooooooooo   ooX",
"  oooooooooX... X....Xooo oooooo      oooooooooX",
"o ooooo  .oX...X ...Xooo  ooo   oooooo    oooooX",
"  oo   o..X.. X ....oo   ooo ooooooooooooo   ooX",
"o oooooo..X..XX....Xo   . oooooo      oooooooooX",
"  ooooo...X.XX ...Xo    .oooo   oooooo    oooooX",
"o oo   X..XXXXXXXo   oo . oo ooooooooooooo   ooX",
"  oooo..X XXX   o   oo  .ooooooo      oooooooooX",
"o oooo...X.......   ooo . ooo   oooooo    oooooX",
"  oo   . X....... oo o  .ooo ooooooooooooo   ooX",
"o ooooo.X X......oooooo . oooooo      oooooooooX",
"  oooooX...X..ooo   oo  .oooo   oooooo    oooooX",
"o oo  Xoo oooooooooo oo . oo ooooooooooooo   ooX",
"  oooX.ooooooooooooooo  .ooooooooooooooooooooooX",
"o ooooooooooooooooooooo . oooooooooooooooooooooX",
"  oooooooooooooooooooo  .ooooooooooooooooooooooX",
"o ooooooooooooooooooooo . oooooooooooooooooooooX",
"  oooooo  ..XXXXXXX. oo .ooo .XXXXXXX..  ooooooX",
"o o   .XXXXX.X.X.X.XXX. . .XXX.X.X.X.XXXXX..  oX",
"  XXXXX.X.X.X.X.X.X.X.X...X.X.X.X.X.X.X.X.XXXXXX",
"oX.X.X.X.X.X.X.X.X.X.X.X.X.X.X.X.X.X.X.X.X.X.X.X",
"XXXXXXXXXXXXXXXXXXXXXXXXXXXXXXXXXXXXXXXXXXXXXXXX",
"XXXXXXXXXXXXXXXXXXXXXXXXXXXXXXXXXXXXXXXXXXXXXXXX",
"XXXXXXXXXXXXXXXXX.X...XXXXX...X.XXXXXXXXXXXXXXXX",
"                                                ",
"                                                ",
"                                                ",
"                                                ",
"                                                ",
"                                                "};
