/* XPM */
static char * image_name[] = {
"48 48 105 2",
"  	c None",
". 	c #861761856185",
"X 	c #DF7DCF3C9E79",
"o 	c #BEFB924871C6",
"O 	c #AEBA924871C6",
"+ 	c #71C671C66185",
"@ 	c #DF7DCF3CAEBA",
"# 	c #BEFB92488617",
"$ 	c #AEBAA28971C6",
"% 	c #BEFBA2898617",
"& 	c #71C661855144",
"* 	c #DF7DBEFBAEBA",
"= 	c #AEBAA2898617",
"- 	c #AEBA92488617",
"; 	c #71C651444103",
": 	c #71C671C65144",
"> 	c #BEFBA2899658",
", 	c #BEFBAEBA8617",
"< 	c #71C651445144",
"1 	c #9E7982076185",
"2 	c #9E7971C671C6",
"3 	c #965882076185",
"4 	c #AEBA820771C6",
"5 	c #BEFBA28971C6",
"6 	c #CF3CA2898617",
"7 	c #30C220812081",
"8 	c #9E79820771C6",
"9 	c #965861856185",
"0 	c #9E79924871C6",
"q 	c #DF7DDF7DBEFB",
"w 	c #DF7DCF3CBEFB",
"e 	c #861771C65144",
"r 	c #965871C66185",
"t 	c #9658820771C6",
"y 	c #410320812081",
"u 	c #861761855144",
"i 	c #861751445144",
"p 	c #AEBA92486185",
"a 	c #9E7971C66185",
"s 	c #AEBA82076185",
"d 	c #6185410330C2",
"f 	c #104000001040",
"g 	c #104010401040",
"h 	c #965871C65144",
"j 	c #9E7982075144",
"k 	c #000092480000",
"l 	c #861771C66185",
"z 	c #9E7992486185",
"x 	c #0000A2890000",
"c 	c #71C641035144",
"v 	c #965861855144",
"b 	c #618551444103",
"n 	c #208110401040",
"m 	c #71C661854103",
"M 	c #71C641034103",
"N 	c #861761854103",
"B 	c #965882075144",
"V 	c #618530C24103",
"C 	c #DF7DCF3CCF3C",
"Z 	c #000000000000",
"A 	c #5144410330C2",
"S 	c #514441034103",
"D 	c #618541034103",
"F 	c #30C230C230C2",
"G 	c #618530C230C2",
"H 	c #104010400000",
"J 	c #30C210402081",
"K 	c #514430C230C2",
"L 	c #514430C24103",
"P 	c #514430C22081",
"I 	c #6185514430C2",
"U 	c #208110402081",
"Y 	c #410330C230C2",
"T 	c #EFBEEFBE0000",
"R 	c #208120811040",
"E 	c #965871C671C6",
"W 	c #5144208130C2",
"Q 	c #BEFBAEBA9658",
"! 	c #4103410330C2",
"~ 	c #30C220811040",
"^ 	c #9E7982078617",
"/ 	c #CF3CA2899658",
"( 	c #965892488617",
") 	c #DF7D51440000",
"_ 	c #DF7D61850000",
"` 	c #CF3C61850000",
"' 	c #410330C22081",
"] 	c #514441032081",
"[ 	c #9E79A2898617",
"{ 	c #AEBA92489658",
"} 	c #AEBAAEBA9658",
"| 	c #BEFBA2899E79",
" .	c #DF7D10402081",
"..	c #DF7D000030C2",
"X.	c #BEFBBEFB9E79",
"o.	c #DF7D104030C2",
"O.	c #CF3CAEBAAEBA",
"+.	c #BEFBBEFBAEBA",
"@.	c #CF3CBEFBAEBA",
"#.	c #61850000AEBA",
"$.	c #CF3CCF3CAEBA",
"%.	c #618500009E79",
"&.	c #000010400000",
"*.	c #30C20000EFBE",
"=.	c #20810000EFBE",
"                                                              . X o O                           ",
"                                                          + @ X # $ % & #                       ",
"                                                      . X * = # O - O % ;                       ",
"                                                  : * X > = - = - = % , <                       ",
"                                              . X * % > 1 2 3 4 5 6 O % 7                       ",
"                                          + @ X > = 8 3 9 3 8 0 # = > = 7                       ",
"                                q w 3 2 7 * = # 1 2 e r 1 8 0 4 O # $ % 7                       ",
"                              q t : * q > 7 8 3 . & 9 3 O 0 - $ - $ - O 7                       ",
"                              . X * % > q y u i u u 3 4 O 4 O O O 4 p o 7                       ",
"                          + @ X > = 8 3 . = 7 & r r 8 0 8 0 4 0 8 1 4 O 7                       ",
"                      . X * = # 1 2 u i u > 7 r 3 2 1 8 1 8 1 a 1 4 1 s d f                     ",
"                  : * X > = 8 3 . & . u r = 7 3 8 3 2 3 a 3 a 1 1 1 4 1 u g                     ",
"              . X * % > 1 2 u i u i u 9 3 % 7 a h a h a h a 1 a j s s s j k k                   ",
"          + @ X > = 8 3 . & u & u & r l r = 7 e r h r h r 3 a 1 1 z O x x k k                   ",
"      . X * = # 1 2 u i ; c ; i u u u 9 e w 7 v h 9 h a h a j a 1 4 x x x k k                   ",
"    * X - 0 8 3 . & < b < b i & u & u e u q 7 e v e r h a 3 a 1 x x x x x k n                   ",
"  . q w r a r i m M ; M ; i m i m i N i N w 7 v h v h a B a 1 4 x x x x x k s V                 ",
"C q Z A C l ; b < b < b < m < m < & i & u q 7 e 9 h a 3 a 1 8 x x x x x x S V                   ",
": V Z Z r o b M b M b M ; < ; ; ; i m i u w 7 v h r h a 1 a 1 x x x x x x                       ",
"q A Z Z V q D b M b M b ; b < ; < m i & u q 7 0 r h r 3 a 3 8 x x x x x F                       ",
"q G H D d w A D d M d M b M ; ; ; i N u A w x x x x x x 1 a 1 x x x A J x x x x x x             ",
"C A g < D q V A D D D b M b < ; < & u u x x x x x k k x x x 7 7 K k k x x x x x x x k           ",
"q V H i K w A V d D d M b M ; i m i N x x x x x x k k x x x x x x k k x x x x x x x k x x       ",
"q A n & K q L A D A D b ; b < m i k k x x x x x x k k x x x x x x k k x x x x x x x k x x x     ",
"q G n . P w K K A G d D I M ; i m k k x x x x x x k k x x x x x x k k x x x x x x x k x x x     ",
"C A U l K q K Y K A D A D b ; ; T T T T T T T T T T T T T T T T T T T T T T T T T T T T T       ",
"q V R E K w Y W K K A G d D I M T T T T T T T T T T T T T T T T T T T T T T T T T T T T         ",
"q A U t K Q ; A K ! K A D A D b T T T T T T T T T T T T T T T T T T T T T T T T T T T           ",
"q G ~ ^ P / u K A K K K A G A T T T T T T T T T T T T T T T T T T T T T T T T T T T T           ",
"C A 7 ( K r - A K ! K A K D 7 ) _ _ _ ) ` ` ) ) ) _ _ ) ) ` ` ) ) _ _ ) ) ` ` ` ) ) _           ",
"q V 7 - K M $ W K K ' K 7 y ] _ ) ) ) _ ) ) _ _ _ ) ) _ _ ) ) _ _ ) ) _ _ ) ) ) _ _ )           ",
"q A 7 [ K A - b K ' 7 7 K A D _ ) ) ) _ ) ) _ _ _ ) ) _ _ ) ) _ _ ) ) _ _ ) ) ) _ _ )           ",
"q G y { P G u # 7 y A K A G ; _ ) ) ) _ ) ) _ _ _ ) ) _ _ ) ) _ _ ) ) _ _ ) ) ) _ _ )           ",
"C A 7 } K A V 7 K ! K A M ; ; _ ) ) ) _ ) ) _ _ _ ) ) _ _ ) ) _ _ ) ) _ _ ) ) ) _ _ )           ",
"q V ~ | K K ' W K K I M ; M ;  ....... ..... . . ..... . ..... . ..... . ....... . ...          ",
"q A J X.V A K ! D b D b M b ; ..o.o.o...o.o.......o.o.....o.o.....o.o.....o.o.o.....o...        ",
"q G R O.d D d D d M d M I M ; ; o.o.o...o.o.......o.o.....o.o.....o.o.....o.o.o.....o.....      ",
"C A U +.D A D A D D D b M ; ; b o.o.o...o.o.......o.o.....o.o.....o.o.....o.o.o.....o.......    ",
"q V n @.K G A V d M I M ; M ; y #.#.#.#.#.#.#.#.#.#.#.#.#.#.#.#.#.#.#.#.#.#.#.#.#.#.#.#.#.#.#.  ",
"q A g $.K A D d D b M I ; 7 Z Z #.#.#.%.#.#.%.%.%.#.#.%.%.#.#.%.%.#.#.%.%.#.#.#.%.%.#.%.%.%.#.  ",
"q G H w A G d M I D ; y Z Z Z Z Z #.#.%.#.#.%.%.%.#.#.%.%.#.#.%.%.#.#.%.%.#.#.#.%.%.#.%.%.%.    ",
"C A f q D D D A M 7 Z Z Z Z Z Z Z Z #.%.#.#.%.%.%.#.#.%.%.#.#.%.%.#.#.%.%.#.#.#.%.%.#.%.%.%.    ",
"q V &.w d M I y Z Z Z Z Z Z Z Z Z Z #.%.#.#.%.%.%.#.#.%.%.#.#.%.%.#.#.%.%.#.#.#.%.%.#.%.%.      ",
"q Z Z q D 7 Z Z Z Z Z Z Z Z Z Z Z     *.*.*.*.*.*.*.*.*.*.*.*.*.*.*.*.*.*.*.*.*.*.*.*.*.*.      ",
"Z K K Z Z Z Z Z Z Z Z Z Z Z Z           =.=.*.*.*.*.*.*.*.=.=.*.*.*.*.*.*.=.=.=.*.*.*.          ",
"  Z Z Z Z Z Z Z Z Z Z Z Z                 =.*.*.*.*.*.*.*.=.=.*.*.*.*.*.*.=.=.=.*.*.*.          ",
"      Z Z Z Z Z Z Z Z                       *.*.*.*.*.*.*.=.=.*.*.*.*.*.*.=.=.=.*.*.            ",
"                                                *.*.*.                    =.=.=.                "};
