#define face_width 64
#define face_height 64
static unsigned char face_bits[] = {
   0x00, 0x00, 0x00, 0x00, 0x00, 0x00, 0x00, 0x00, 0x00, 0x00, 0x00, 0x00,
   0x00, 0x00, 0x00, 0x00, 0x44, 0x22, 0x91, 0x48, 0x24, 0x12, 0x89, 0x08,
   0x00, 0x00, 0x00, 0x00, 0x00, 0x00, 0x00, 0x10, 0x08, 0x04, 0x15, 0x81,
   0x40, 0x20, 0x10, 0x01, 0x40, 0x10, 0x20, 0x08, 0x04, 0x02, 0x01, 0x00,
   0x00, 0x40, 0x00, 0x02, 0x00, 0x00, 0x00, 0x24, 0x08, 0x01, 0x00, 0x90,
   0x48, 0x24, 0x48, 0x00, 0x00, 0x04, 0x00, 0x00, 0x00, 0x00, 0x01, 0x00,
   0x42, 0x08, 0x00, 0x20, 0x00, 0x00, 0x00, 0x12, 0x10, 0x20, 0x00, 0x80,
   0x24, 0x09, 0x12, 0x00, 0x00, 0x00, 0x00, 0x00, 0x00, 0x20, 0x40, 0x00,
   0x10, 0x00, 0x00, 0x00, 0x00, 0x00, 0x00, 0x12, 0x02, 0x00, 0x00, 0x00,
   0x94, 0x04, 0x09, 0x00, 0x00, 0x00, 0x00, 0x00, 0x00, 0x22, 0x50, 0x10,
   0x00, 0x00, 0x00, 0x00, 0x20, 0x08, 0x02, 0x02, 0x04, 0x00, 0x00, 0x00,
   0x10, 0x00, 0x01, 0x20, 0x00, 0x00, 0x00, 0x08, 0x02, 0x00, 0x00, 0x00,
   0x04, 0x00, 0x00, 0x40, 0x00, 0x00, 0x00, 0x00, 0x00, 0x00, 0x00, 0x04,
   0x00, 0x00, 0x00, 0x10, 0x40, 0x01, 0x00, 0x40, 0x02, 0x00, 0x00, 0x00,
   0x08, 0x00, 0x01, 0x81, 0x00, 0x00, 0x00, 0x20, 0x00, 0x00, 0x00, 0x14,
   0x00, 0x00, 0x00, 0x00, 0x81, 0x40, 0x24, 0x00, 0x00, 0x05, 0x00, 0x20,
   0x08, 0x00, 0x00, 0x02, 0x40, 0x12, 0x00, 0x00, 0x00, 0x89, 0x20, 0x00,
   0x80, 0x0a, 0x00, 0x20, 0x10, 0x00, 0x44, 0x01, 0x20, 0x27, 0x00, 0x00,
   0x01, 0x10, 0x00, 0x00, 0xc0, 0x1f, 0x00, 0x20, 0x20, 0x81, 0x00, 0x00,
   0x20, 0x27, 0x00, 0x00, 0x02, 0x00, 0x00, 0x00, 0x80, 0x0a, 0x00, 0x10,
   0x00, 0x12, 0x00, 0x00, 0x40, 0x12, 0x00, 0x00, 0x20, 0x00, 0x00, 0x00,
   0x00, 0x05, 0x00, 0x20, 0x84, 0x4a, 0x00, 0x00, 0x00, 0x00, 0x00, 0x00,
   0x10, 0x10, 0x00, 0x00, 0x00, 0x00, 0x04, 0x00, 0x00, 0x00, 0x00, 0x00,
   0x00, 0x00, 0x10, 0x00, 0x02, 0x00, 0x00, 0x10, 0x00, 0x00, 0x04, 0x40,
   0x00, 0x00, 0x00, 0x40, 0x00, 0x00, 0x08, 0x00, 0x00, 0x00, 0x00, 0x10,
   0x00, 0x00, 0x12, 0x00, 0x02, 0x40, 0x01, 0x20, 0x00, 0x00, 0x20, 0x00,
   0x00, 0x90, 0x04, 0x08, 0x00, 0x00, 0x09, 0x00, 0x00, 0xa0, 0x02, 0xa4,
   0x00, 0x00, 0x20, 0x00, 0x00, 0xc8, 0x09, 0x10, 0x80, 0x02, 0x0a, 0x40,
   0x00, 0xf0, 0x07, 0x42, 0x20, 0x09, 0x10, 0x00, 0x00, 0xc8, 0x09, 0x90,
   0x40, 0x05, 0x00, 0x00, 0x00, 0xa0, 0x02, 0x22, 0x91, 0x13, 0x00, 0x00,
   0x00, 0x90, 0x04, 0x20, 0xe0, 0x0f, 0x00, 0x20, 0x04, 0x40, 0x01, 0x42,
   0x90, 0x13, 0x00, 0x00, 0x00, 0x00, 0x00, 0x14, 0x40, 0x05, 0x00, 0x08,
   0x08, 0x00, 0x00, 0x00, 0x20, 0x09, 0x00, 0x00, 0x00, 0x00, 0x00, 0x00,
   0x80, 0x02, 0x00, 0x22, 0x10, 0x00, 0x00, 0x00, 0x00, 0x00, 0x00, 0x00,
   0x01, 0x00, 0x00, 0x00, 0x00, 0x00, 0x00, 0x04, 0x20, 0x00, 0x00, 0x00,
   0x00, 0x00, 0x00, 0x20, 0x02, 0x00, 0x00, 0x00, 0x00, 0x00, 0x00, 0x02,
   0x00, 0x01, 0x04, 0x00, 0x00, 0x20, 0x00, 0x00, 0x10, 0x40, 0x00, 0x40,
   0x00, 0x02, 0x00, 0x11, 0x00, 0x02, 0x00, 0x00, 0x02, 0x40, 0x00, 0x00,
   0x22, 0x88, 0x04, 0x14, 0x48, 0x04, 0x20, 0x02, 0x00, 0x00, 0x20, 0x01,
   0x00, 0x80, 0x04, 0x10, 0x80, 0x10, 0x00, 0x20, 0x81, 0x08, 0x40, 0x00,
   0x04, 0x80, 0x04, 0x00, 0x04, 0x00, 0x00, 0x22, 0x10, 0x02, 0x40, 0x04,
   0x10, 0x21, 0x09, 0x00, 0x80, 0x10, 0x08, 0x20, 0x00, 0x00, 0x40, 0x00,
   0x02, 0x80, 0x80, 0x00, 0x02, 0x04, 0x00, 0x12 };
