/* XPM */
static char * image_name[] = {
"64 64 46 1",
" 	c None",
".	c #410334D31040",
"X	c #514434D31040",
"o	c #618545142081",
"O	c #71C645142081",
"+	c #71C655552081",
"@	c #208120810000",
"#	c #30C220811040",
"$	c #514445142081",
"%	c #8E38555530C2",
"&	c #8E38659530C2",
"*	c #AEBA659530C2",
"=	c #AEBA75D64103",
"-	c #BEFB75D64103",
";	c #CF3C75D64103",
":	c #CF3C8A285144",
">	c #9E79555530C2",
",	c #9E79659530C2",
"<	c #AEBA65954103",
"1	c #208110400000",
"2	c #208120811040",
"3	c #EFBE9A696185",
"4	c #EFBEAAAA71C6",
"5	c #DF7D9A696185",
"6	c #FFFFBAEA8E38",
"7	c #FFFFBAEA9E79",
"8	c #DF7D8A285144",
"9	c #000000000000",
"0	c #FFFFAAAA71C6",
"q	c #410320811040",
"w	c #410334D32081",
"e	c #6185555530C2",
"r	c #71C675D671C6",
"t	c #8E388A288E38",
"y	c #9E799A699E79",
"u	c #618565956185",
"i	c #514455555144",
"p	c #FFFFBAEA71C6",
"a	c #FFFFCB2BBEFB",
"s	c #FFFFDF7DBEFB",
"d	c #9E7975D65144",
"f	c #9E798A286185",
"g	c #9E7955550000",
"h	c #9E7955551040",
"j	c #FFFF9A695144",
"k	c #FFFFAAAA5144",
"                                                                ",
"                                                                ",
"                                                                ",
"                                                                ",
"                  ..XoXoXoooO+O+O+O+O+ooXoXo..                  ",
"                  ..XoXoXoooO+O+O+O+O+ooXoXo..                  ",
"              @#Xo.$O%%&*=--;:;:;:--*=>,O+Xo.$Xo@#              ",
"              @#Xo.$O%%&*=--;:;:;:--*=>,O+Xo.$Xo@#              ",
"            @#XoO+%&*=--;:;:--<->,>,>,%&%&O+O+.$..@#            ",
"            @#XoO+%&*=--;:;:--<->,>,>,%&%&O+O+.$..@#            ",
"            @#O++%O+%&>,<-+%*=%&,<O+O+O+O+Xo.$@#@#12            ",
"            @#O++%O+%&>,<-+%*=%&,<O+O+O+O+Xo.$@#@#12            ",
"          12#.XoO+Xo%&>,%&%&%&%&..%&Xo..Xo..@#12121212          ",
"          12#.XoO+Xo%&>,%&%&%&%&..%&Xo..Xo..@#12121212          ",
"          12#....$Xo%&.$>,oooo%&oo..oo..#.Xo12@#@##.12          ",
"          12#....$Xo%&.$>,oooo%&oo..oo..#.Xo12@#@##.12          ",
"          12....O+O+.$%&.$ooO+oooo%&%&%&+%+%oo..#...12          ",
"          12....O+O+.$%&.$ooO+oooo%&%&%&+%+%oo..#...12          ",
"          12...$O+%&O+.$,<.$O+%&,<<->,,<%&%&%&oo....12          ",
"          12...$O+%&O+.$,<.$O+%&,<<->,,<%&%&%&oo....12          ",
"          12..Xo%&*=<-,<,<<-<-<-<-<-<-,<,<<-*=%&.$..12          ",
"          12..Xo%&*=<-,<,<<-<-<-<-<-<-,<,<<-*=%&.$..12          ",
"          12..O+>,;:;:;:<-,<*=*=*=*=,<<-;:;:;:>,Xo..12          ",
"          12..O+>,;:;:;:<-,<*=*=*=*=,<<-;:;:;:>,Xo..12          ",
"          12..O+>,;:3453;:--,<%&%&,<--;:5334;:>,O+..12          ",
"          12..O+>,;:3453;:--,<%&%&,<--;:5334;:>,O+..12          ",
"          12..O+<-5367675353;::8:8;:5353>,.$99#.O+..12          ",
"          12..O+<-5367675353;::8:8;:5353>,.$99#.O+..12          ",
"        <-oo..O+#.#..$,<8567--4040--67>,99#.O++%O+..oo<-        ",
"        <-oo..O+#.#..$,<8567--4040--67>,99#.O++%O+..oo<-        ",
"        <-ooqw<-+%Xo#.#.#.99Xo*=*=Xo999999#.Xo<-%&qwoo<-        ",
"        <-ooqw<-+%Xo#.#.#.99Xo*=*=Xo999999#.Xo<-%&qwoo<-        ",
"        %&oooe<-O+rtyyuu9999...$.$..99iiyyuu99O+<-oeoo%&        ",
"        %&oooe<-O+rtyyuu9999...$.$..99iiyyuu99O+<-oeoo%&        ",
"        ooXo+%<-%&*=34*=ooXo%&;:;:%&Xooo*=34*=%&<-+%Xooo        ",
"        ooXo+%<-%&*=34*=ooXo%&;:;:%&Xooo*=34*=%&<-+%Xooo        ",
"        +%Xo+%:8:8--*=%&*=;:*=4040*=;:*=%&*=--:8:8+%Xo+%        ",
"        +%Xo+%:8:8--*=%&*=;:*=4040*=;:*=%&*=--:8:8+%Xo+%        ",
"        %&Xo%&;:853485;:5367536767536753;:853485;:%&Xo%&        ",
"        %&Xo%&;:853485;:5367536767536753;:853485;:%&Xo%&        ",
"          Xo+%,<*=--:8340685:80pas:8850634:8--*=,<+%Xo          ",
"          Xo+%,<*=--:8340685:80pas:8850634:8--*=,<+%Xo          ",
"          XoO+>,,<--3477:8*=>,dfdf>,*=:87734--,<>,O+Xo          ",
"          XoO+>,,<--3477:8*=>,dfdf>,*=:87734--,<>,O+Xo          ",
"            O+<->,:86753,<.$O++%+%O+.$,<5367:8>,<-O+            ",
"            O+<->,:86753,<.$O++%+%O+.$,<5367:8>,<-O+            ",
"            Xo;:>,5340--;:85--,<,<--85;:--4053>,;:Xo            ",
"            Xo;:>,5340--;:85--,<,<--85;:--4053>,;:Xo            ",
"            .$*=,<:853;::84077:8:87740:8;:53:8,<*=.$            ",
"            .$*=,<:853;::84077:8:87740:8;:53:8,<*=.$            ",
"              +%*=;::8%&O+ghghghghghghO+%&:8;:*=+%              ",
"              +%*=;::8%&O+ghghghghghghO+%&:8;:*=+%              ",
"              .$%&<-;:;:;::853jkjk53:8;:;:;:<-%&.$              ",
"              .$%&<-;:;:;::853jkjk53:8;:;:;:<-%&.$              ",
"                oo>,;:85;:*=%&O%O%%&*=;:85;:>,oo                ",
"                oo>,;:85;:*=%&O%O%%&*=;:85;:>,oo                ",
"                  oo,<;:85;:;:5353;:;:85;:,<oo                  ",
"                  oo,<;:85;:;:5353;:;:85;:,<oo                  ",
"                    .$+%<-:853777753:8<-+%.$                    ",
"                    .$+%<-:853777753:8<-+%.$                    ",
"                        oo%&,<,<,<,<%&oo                        ",
"                        oo%&,<,<,<,<%&oo                        ",
"                                                                ",
"                                                                "};
