/* XPM */
static char * image_name[] = {
"21 18 58 1",
"`	c None",
" 	c #DCDCDCDCDCDC",
".	c #D3D3D3D3D3D3",
"X	c #D7D7D3D3D7D7",
"o	c #969692929696",
"O	c #CCCCCCCCCCCC",
"+	c #B0B0B0B0B0B0",
"@	c #B9B9B9B9B9B9",
"#	c #A9A9A9A9A9A9",
"$	c #C4C4C4C4C4C4",
"%	c #B6B6B2B2B6B6",
"&	c #AEAEAEAEAEAE",
"*	c #8E8E8A8A8E8E",
"=	c #A0A0A0A0A0A0",
"-	c #717179798686",
";	c #AAAAAAAAAAAA",
":	c #A6A6A6A6A6A6",
">	c #717175757171",
",	c #B6B6AEAEB6B6",
"<	c #999999999999",
"1	c #555555555555",
"2	c #909090909090",
"3	c #494949495151",
"4	c #797979797979",
"5	c #202020202020",
"6	c #28282C2C3030",
"7	c #CFCFD3D3CFCF",
"8	c #AEAE61616161",
"9	c #666666666666",
"0	c #AEAEB2B2CFCF",
"q	c #2F2F4F4F4F4F",
"w	c #5F5F5F5F5F5F",
"e	c #404042424040",
"r	c #868679798686",
"t	c #CFCFC7C7CFCF",
"y	c #3D3D3B3B3D3D",
"u	c #6B6B69696B6B",
"i	c #080804040808",
"p	c #303034343030",
"a	c #696969697171",
"s	c #BEBEBEBEBEBE",
"d	c #C7C7BABAC7C7",
"f	c #181820202020",
"g	c #A6A69E9EA6A6",
"h	c #000000000000",
"j	c #AEAEAEAEB6B6",
"k	c #AEAEAAAAAEAE",
"l	c #7F7F7F7F7F7F",
"z	c #525252525252",
"x	c #BEBEBABABEBE",
"c	c #AEAEA6A6AEAE",
"v	c #A6A6A2A2A6A6",
"b	c #616161616161",
"n	c #2B2B2B2B2B2B",
"m	c #414138384141",
"M	c #9E9E9A9A9E9E",
"N	c #BEBEB6B6BEBE",
"B	c #96969696AEAE",
" ........XXX.......Xo",
"O+@+#$%&$*=-@@;$@:@O>",
"O,$<1$23.456 41789$.>",
"O,0#313*$q<3<%3wer$t>",
"O%0<yu>%ui4p5Oary9s.>",
"O,@defg.iitwhj@3i#0Ou",
"$k%@g=14uheiy*w*#;@Ou",
"$k+@$ahh9p:yu5hqkd%Ou",
"$#j045hlhywzh1pi3xcdu",
"$v;defbayeyyy1ueh@&du",
"$vcxw5lu*uuu>2915%,du",
"d#;,knnw*pyy1on5*@kd9",
"dvck%voo2e33ac*g,%vd9",
"dgvcuwme*eaz9459wMkx9",
"@M#v9*3hf3fzfif44*c%b",
"NBvo3moa13fn9zMwe4c,b",
"xk%B**>*,,9<No4>o-Ntb",
"*wwbwbbbbbbbbbbbwbbby"};
