/* XPM */
static char * image_name[] = {
"48 48 10 1",
" 	c None",
".	c #000000000000",
"X	c #861700000000",
"o	c #FFFF00000000",
"O	c #514455555144",
"+	c #41036595DF7D",
"@	c #FFFF20812081",
"#	c #FFFFFFFFFFFF",
"$	c #410369A6DF7D",
"%	c #AEBAAAAAAEBA",
"                                                ",
"                                                ",
"      ..                                        ",
"    ..XX..                                      ",
"    .oooo.                     O...O            ",
"   .Xo..oX.                  O..XoX..           ",
"   .Xo..oX.                 O.ooooooo.O         ",
"    .oooo.   ...           ..ooo.X.ooo.         ",
"    ..XX.. ..O+O..        O..ooX@@@Xoo.O        ",
"      ..   .+++++.        ..Xo.@O.O@.oX.        ",
"          .O+O.O+O.      . .ooX@...@Xoo.        ",
"          .++...++.     O. .Xo.@O.O@.oX.O       ",
"          .O+O.O+O.     .  X.ooX@@@Xoo.X.       ",
"      ..   .+++++.     .    .ooo.X.ooo. .       ",
"    ..OO.. ..O+O..    O.    X.ooooooo.X OO      ",
"    .####.   ...      .      X..XoX..X   .      ",
"   .O#..#O.          .         X...X     .      ",
"   .O#..#O.         O.                   OO     ",
"    .####.          .                     .     ",
"    ..OO..         .                      .     ",
"      ..   O......O.                      OO    ",
"          ..$$$$$$..             ..        .    ",
"        ..$$$$$$$.++..O        ..OO..      .    ",
"       ..$$$$$$$.++++..        .####.      OO   ",
"      ..$$$$$$$$.+++++..O     .O#..#O.      .   ",
"     O.$$$$$$$$.+++++++..     .O#..#O.      .   ",
"     .$$$$$$$$.+++++++++..O    .####.   ... OO  ",
"    O.$$$$$$$+..++++++++.O.    ..OO.. ..O+O.O.  ",
"    .$$$$$$$..OO..+++++++. .O    ..   .+++++..  ",
"    .$$$$$$$.%%%%.+++++++.  .        .O+O.O+O.  ",
"    .$$$$$$.O%..%O.++++++.   .O      .++...++.  ",
"    .$$$$$$.O%..%O.++++++.    .      .O+O.O+O.  ",
"    .$$$$$$$.%%%%.+++++++.     .O     .+++++.   ",
"    .$$$$$$$..OO..+++++++.      .     ..O+O..   ",
"    O.$$$$$$$$..O..O..O..O..O..O..O..O.....     ",
"     .$$$$$$$$$$$$$$$$$$.         .             ",
"     O.$$$$$$$$$$$$$$$$.           .O           ",
"      ..$$$$$$$$$$$$$$.O            .           ",
"       ..$$$$$$$$$$$$..              .O         ",
"        ..$$$$$$$$$$..              ...O        ",
"          ..$$$$$$..              ..XX..        ",
"           O......O               .oooo.O       ",
"             O.O.O.O             .Xo..oX.       ",
"                  O.O.O.O        .Xo..oX.       ",
"                       O.O.O.O    .oooo.        ",
"                            O.O.O...XX..        ",
"                                 O.O..          ",
"                                                "};
