/* XPM */
static char * image_name[] = {
"94 94 29 1",
" 	c None",
".	c #EFBEEFBEEFBE",
"X	c #514451445144",
"o	c #69A66DB669A6",
"O	c #BEFBBEFBBEFB",
"+	c #410341034103",
"@	c #000000000000",
"#	c #30C230C230C2",
"$	c #104010401040",
"%	c #8E388E388E38",
"&	c #9E799E799E79",
"*	c #AEBAAEBAAEBA",
"=	c #79E77DF779E7",
"-	c #CF3CCF3CCF3C",
";	c #208120812081",
":	c #61855D756185",
">	c #69A669A669A6",
",	c #DF7DDF7DDF7D",
"<	c #186114511861",
"1	c #514455555144",
"2	c #965896589658",
"3	c #28A228A228A2",
"4	c #D75CD34CD75C",
"5	c #18611C711861",
"6	c #E79DEBADE79D",
"7	c #C71BC71BC71B",
"8	c #AEBAAAAAAEBA",
"9	c #FFFFFFFFFFFF",
"0	c #38E338E338E3",
"                                                                                              ",
"                                            .Xo                                               ",
"                                          O+++@#.                                             ",
"                                        .X@@$X+$#                                             ",
"                                       %$@$@@@#$@&                                            ",
"                              *=-   .=;@@@@@@@;@@X                                            ",
"                             -#@@& *@@@@@;=X;@@@@@:*                                          ",
"                            .;$@@@@@@@#@@@:OX;@@@@+;;>,                                       ",
"                           ,X@@@@$@@;@$@$@@$$o#@@@XX@@@o-.                                    ",
"                           #@@@@@;@@@@@;#@@@$$@@@@$:=<@@@@:O                                  ",
"                          =@@@@@@$#@@<@;:;@@;@@@@@@@$1@@@@@@o                                 ",
"                         &@@@@@@@@$$@@#@##@@$$+;@@@@@@@@@@@@@o                                ",
"                        *@$@@@@@@@@@@@@@@$@;$$$;@@@@@@@@@@$$@$%                               ",
"                      O=+@;@$@@@;@@@@<#@@$@$#:;+#;@@;@@@@@@@@@@o                              ",
"                     =#@@@;@@@@@$@@@@2o$@;@;;=$$$+&=%3+=X$@@@@@@&                             ",
"                   .#<@@@@@@;$$#@@@@@3Xo#@@@@+=+$%*=&4,-=@@@@@@@@&                            ",
"                   >+5@@@<@@@@@@@@@@@@@3+@3@@@<<13@36728><<@@@@@@<4                           ",
"                  ,$;@@@@$@@@@@@@@@@@@$$=$$@;@++=XooO<X%@@@@@@@@@@+.                          ",
"                  :@@@@@@;@@@@;@@$@X@@@+@@$$$$;X&%:=@@#o@@@@@+@@;@@X                          ",
"                 .@@@@@@@@@@@@@@@@@@@@@@@@@@@@+;o;#@@@Xo%==-*&%&=&:;X                         ",
"                 o@$@@@@@@@@@;@@@@@@$3@;@@@@@@;;$@@@@3,..999.,....,%X=*,                      ",
"                ,;=X$3@@$@@@@$@@@@@@$3@@$+#$@@@@@@@@$89999999.999.9.-2o:;;Xo*                 ",
"               O%==#@<;$+@@+@#$@$o%=%2:$:..,-*%o=+++-9.999999999.999.4&X@#@@@%                ",
"              =X+=$@@@@o;$$#+*%X,-.,,6O*O-,,....9-9.99999999999.999999,=:;@@@$-               ",
"             =#@@:++@@$$$:;@OO,,9.,.9999.999,.9999999999999999999999969-&$@@;@;.              ",
"             ;$$@@;@@@@$+@@+*99.9.9.999999999999999999999999999999999999-;@@@@@:              ",
"            O;X=@$@@++o@#@;=-9..9999,99999999999999999999999999999999999.=#@@@@;#             ",
"           -o@#=#@$$@@;$;oX,,.9.9,99999999999999999999999999999999999999.=@@@@@;@O            ",
"          ,#@@@$;$@@$@@;@X-9,9..9..9999999999999999999999999999999999999.,+:$@@@;*            ",
"          X@;;;@@@@@@@@$;=,-99.9..,9.99,9999999999999999999999999999999999:o$@@@$,            ",
"         *@@$$@@@@@@@@@$@:,,,.,...9996999999999999999999999999.99999999999=;@@@;$.            ",
"         =@@$$@@@@@;#<@#@=O,-9,9.999.99.9999999999999999999999999999999999&@@@@oo.            ",
"         :@@@@@@@@@@@@@@@o*-.,999999999999999999999999999999999.999999999,-;@@$oX             ",
"        o@@$@@@;$;;@@@$#@+&O,,,999999999999999999999999999999999999999999,O#@@;@%-            ",
"       O#@@@@;@@@;@@@@@@$X%-99.9999999999999999999999999999999999999999.9.-X@@@@;@+*,         ",
"       =@<@@@<@@@3@@@@@@+1=O669999999999999999999999999999999999999999699942<@@@@@3+1         ",
"      -@$X$@$@#@@@@@@@$$XX=.99.999999999999999999999999999999999999999999..O;@@@$@$X@         ",
"      o$==@@@@@@@@@;$@;@:**O-,9999999999999999999999999999999999999999999..*;$@$$@@#$         ",
"      X$=;@$@@@@@$@@@<@;&.-.,O..,..9999999999999999999999999999999999999999*;@@@@@@++         ",
"      &@:;@;@@@@@@@$@@@X*9.9,,,.,,..-69999999999999999999999999999999999999*@@@X@@o#$         ",
"      .$@@@@@@@@@$@@@@@#O,9-9.,O.O:X:2&O,.,,...999999999999999999999999999.O@@@;;X=+@         ",
"       *@@@@@@@@@$@@@@@#O...,,,*&$;XX+++X+;o+$;:O.9999999999.9999999999999.o;@$;$@$$:         ",
"        %@@@@@@@$$$@$@;+......-%;+%-*8&*o;@@@@$@;X.9999999.-*-O,,9.,.9.999.,$@@@@#+@=         ",
"         =@@@@@@@@@@@<;o99,9.9OX#=O,-4.9.X@@@@@;@$=,999999&#$$;##:%*,4&9999-@@@$@;@$*         ",
"          o@@@$;@@@@@@;%99999OO:#o&OOO%*%o;@@@@@;@o.9999.,:@@@;@@;#:*1$%99.-@$@$@+;-          ",
"          ,$@$@@@@;@;<#&.9.99.=X=%o:;1+*-Oo@@@@$@@$,9999.:$@@@@@@+=,-O=XO99O@@@@@&.           ",
"          O;@@@@@@@@$@#O999..,%X:o;@$@#$$=X@@@@@@@#,9999.#@@@@@$:#=-.6.%O9.&;@@@;,X=          ",
"          :$;$@@@@@@@@@O.9999.,=:@@@$>%.$@;;+@@+@@;,99999#@@$+;#+=oo-99,-.,#@@@@@@@&          ",
"          $=O%;@@@@$@@@%.999.9-*=+;:.6.9o@$&9;:-*o=999999%%o$&+#&+;@;2...9O@@@@$@@;.          ",
"         ,@@X&%@@@$@@@@o,9999..9-*O,99999..999.99-99999999-:&9,;@@;;@@O.,9-@@@@$@@+           ",
"         ,@@@;#@@@@@@@$*,-,99.9.9.,9.999.9999999999999999999.99&$o.o$<-9.9&@@$@@$+*           ",
"         %@@@@#$$@@@@@#--.99...999.9.99,.99999999999999999999999,.99o1,.99&@$$@@@$.           ",
"         :@@@@X;;#@@@@XO--,,..999.9996-.9999999999999999999999999991199998@9@@@@@@%           ",
"         &@@@;=@;$$@@@=&,--..999,999999999999999999.99999999.999999899999111@@+@@#            ",
"          3@@<>1@@<<<@>=86699496999999999999999999696969969999999999999998@18@@@@=            ",
"          :@X+:;@@@;@3ooO,.-.....999999999999999999,96999999.9999999999991@@@1+@$,            ",
"          ,$#X%;@@@;++%-&--9,..9.9.9999999999999999..9999999.9999999999991@@81@+-             ",
"           ,=%=#@@$*+@%=%OO.,,.9.99999999999999999999999999999999999999991@@91%               ",
"            &*,=$@$*%@X&&o&O,-.9,999999999999999999..999999.99999999999998@@81                ",
"            -*,&#;@*:<+*&==O,,9.9999999999999.,999999999999999999999999991@X1                 ",
"             o--*%$+,3:o-&%=,-.9.9.999999999999999999999999999999999999991191                 ",
"             -,.-,&#=<;o%O*=O,....9.9999999999999999999999999999989999999111                  ",
"              &*OO.o;@Xo-**-O-,.,..99999999999-,,-9.999999999999999999999@81                  ",
"              -;#=,9X@X&%=OO.*-,-...9699999999=@@@$+,9999,,99999999999989@9,                  ",
"               %;%&=+<@o%&&O.O-,..9.9999999999X@@@@@;8,-&$O99999999999991 8                   ",
"                oX%**>@;&O-&&O-.,.-.99.999999.%@@;$@@@$+o,999999999998911                     ",
"                 %=*%+@o&O&-O--,,,.9.9999999.99*#$@@@@@+&999999999999991                      ",
"                  &;;@@:=*&=,,,9,9.9999999999..,X@@@@@+=,.99999999999991                      ",
"                   =;@@##&*&-,-.,,.999999999999,o##@@@@;%.99999999999911                      ",
"                   .X@@@:&O=O,,,..999999999,99,&:&o@$@@;%&..99999999991                       ",
"                    &@@@+=O*..,,...99699,,O%%:%:#%%%:@$X%=*999999999911                       ",
"                     =@@X%%&*O,,.,99.9**&+Xo;o$@@;%-*>+X#+&O.999999991                        ",
"                      =$@:==%O..,-,-,O#:;@;;@@@@@@@%*<$@@@=o*999999991                        ",
"                      6@@1===2446662>013@@@<@@@@@@@@@@@@@@3<1999999911                        ",
"                       &@;X:&%,-O--%;>;#@@@@@@@$@@@@@@@@@@+o+99999991                         ",
"                        X;X:==&*-,Oo@@+X@$$$#o+:&OooX1$+$@@$X89999991                         ",
"                       .#$++X&%*O-o+@@XX@=$+=%%%,,O-O=+:+=;++88999911                         ",
"                        ,;##%&%%**oX;@#o;o:%==%o%o=&=1;%%%;$#1999991                          ",
"                         ,#X=&===%%o$3+##=%=%%%=o:+oo==%%&=@@1189911                          ",
"                          ,$#&***,Oo$@#::X%O.9,,*&&&&=%OO&%$:88@991                           ",
"                           -:+*O,--*%+o=*O-.9.999.,,O8O-,%o+=881991                           ",
"                            -#+*%OO%O2O&O.999999999999,-,*=%*18@911                           ",
"                             -$+=%-O-4,,,9999999999999.9.-O*O11891                            ",
"                              *++o*%*O..99.99999999999.9.9.,-89891                            ",
"                               -+X:%&69..9999999.9,99699.999.9898                             ",
"                                ,o#o%O%,O,,9.9999...96..9999.8988                             ",
"                                  *++>=*,,.,.,9....9.9.9999..998                              ",
"                                    *==o&%&O,,,,,9.,96.....,.81                               ",
"                                       O*+X:#o%O-*=O-8-,O,-*O1                                ",
"                                          O=XXX#XX:o=2=o&&%*                                  ",
"                                              --&=XX=>XXo                                     ",
"                                                                                              ",
"                                                                                              ",
"                                                                                              "};
