/* XPM */
static char * image_name[] = {
"48 48 84 1",
" 	c None",
".	c #FFFFFFFFFFFF",
"X	c #18611C711861",
"o	c #28A22CB228A2",
"O	c #30C230C230C2",
"+	c #000000000000",
"@	c #410345144103",
"#	c #B6DAB2CAB6DA",
"$	c #69A669A669A6",
"%	c #186118611861",
"&	c #082008200820",
"*	c #000004100000",
"=	c #618561856185",
"-	c #38E338E338E3",
";	c #79E779E779E7",
":	c #965892489658",
">	c #082004100820",
",	c #20811C712081",
"<	c #71C671C671C6",
"1	c #861782078617",
"2	c #492449244924",
"3	c #104010401040",
"4	c #08200C300820",
"5	c #28A228A228A2",
"6	c #208120812081",
"7	c #41033CF34103",
"8	c #10400C301040",
"9	c #79E77DF779E7",
"0	c #514455555144",
"q	c #28A2249228A2",
"w	c #69A66DB669A6",
"e	c #BEFBBEFBBEFB",
"r	c #38E33CF338E3",
"t	c #492445144924",
"y	c #514451445144",
"u	c #AEBAAEBAAEBA",
"i	c #B6DAB6DAB6DA",
"p	c #596559655965",
"a	c #9E79A2899E79",
"s	c #CF3CD34CCF3C",
"d	c #DF7DE38DDF7D",
"f	c #38E334D338E3",
"g	c #208124922081",
"h	c #FFFFFBEEFFFF",
"j	c #30C234D330C2",
"k	c #8E388E388E38",
"l	c #F7DEF3CEF7DE",
"z	c #DF7DDF7DDF7D",
"x	c #A699A289A699",
"c	c #9E799E799E79",
"v	c #F7DEF7DEF7DE",
"b	c #EFBEEFBEEFBE",
"n	c #BEFBBAEABEFB",
"m	c #F7DEFBEEF7DE",
"M	c #49244D344924",
"N	c #186114511861",
"B	c #E79DEBADE79D",
"V	c #96589A699658",
"C	c #61855D756185",
"Z	c #DF7DDB6CDF7D",
"A	c #C71BC71BC71B",
"S	c #EFBEEBADEFBE",
"D	c #104014511040",
"F	c #E79DE38DE79D",
"G	c #69A6659569A6",
"H	c #71C675D671C6",
"J	c #618565956185",
"K	c #AEBAAAAAAEBA",
"L	c #EFBEF3CEEFBE",
"P	c #8E388A288E38",
"I	c #D75CD75CD75C",
"U	c #CF3CCF3CCF3C",
"Y	c #9E799A699E79",
"T	c #D75CD34CD75C",
"R	c #59655D755965",
"E	c #965896589658",
"W	c #D75CDB6CD75C",
"Q	c #C71BC30BC71B",
"!	c #A699A699A699",
"~	c #E79DE79DE79D",
"^	c #B6DABAEAB6DA",
"/	c #410341034103",
"(	c #CF3CCB2BCF3C",
")	c #861786178617",
"                                                ",
"                      .XoO                      ",
"                    .++@+#                      ",
"               .$ .++o%++&+                     ",
"              .++++*+%=-++;+.:                  ",
"              +++%+>-+>+++,<++1                 ",
"             2+++*+&+34X5++++++6                ",
"           .78++4++9+&605qw&>+++6               ",
"          e++*&&4++6=&+r,t0..0>++r              ",
"         ++++4+&+*%+7&3%yui+p++++++             ",
"         y+++++&+++>+++&3%++......+++           ",
"        .a6%X++++++++.y++++i.......s+++d        ",
"       :+;++fg-.................h....4++.       ",
"       +X+4jX+k...l..................z+++       ",
"     *x+2*>*+c..vb....................+++;      ",
"     n+3+++++..blbhmv...........h.....5++x      ",
"     M+*++N>+l.bh.h.h...........h.....3+0d      ",
"    .++&4%+++2.B....................h.1++VC+    ",
"    +%+3+&+++8.m....................m..+++g+    ",
"   :wo+++*4+3.Zdm......................+++83    ",
"   -++&++**+c.bb.ApZ...................+XXu+    ",
"    .+++*4*+k.S.p+;2D++++2.............+4++:    ",
"     Z+*&+++....+Ad.F%++++z...+++++:G..+++3     ",
"     w+*+&4+...i&H++0.++&+J..c+++N..wd.++Kl     ",
"     $++++++....-++91+++5+%..;+33H<..LK++++     ",
"     $cP+**+..h.F+...+.;.I....2UD+++..6+&+.     ",
"     w+%++++.b.v....m............J.+..+++89     ",
"     t+2DN++.UShvh.Sh.....h....h..YT.v;+*+      ",
"     $+R3++*E.vSL.........Llmm.h......+2+Y      ",
"     +3u++w7Ws.Svh........hh...h......+.3+      ",
"      $.5+U+LyISl......l..hh..h.......+U        ",
"       9.kc8Q!k~vvh..............B...x&         ",
"       V+mk6mKZAzbhm....+N1..........+8         ",
"        +yz+<Q^QSBvh...x++++7+L....~0>3         ",
"         u=+UInzBbh......+++8........           ",
"          #++bcd~b.......w%++v.......           ",
"           ++vUlBv...P55+XdH/C.....+            ",
"           p+9=Ib.u+++++++,g+++T....            ",
"            =39K(.+,X++33w+++++;...C            ",
"            .+oKu#+%-wYA1.Leri+%...             ",
"             .+#:~+++yi(Yjo2:vNO+..             ",
"              .+UZeJK......vzFqc,.c             ",
"               3+xnL..........z)x+              ",
"                U+tl.....vblv..Su6              ",
"                  +++u.........).               ",
"                    Y++++++&+..+                ",
"                        +++9Y                   ",
"                                                "};
