#define m005_width 64
#define m005_height 64
static char m005_bits[] = {
   0x00, 0x00, 0x00, 0xc0, 0x01, 0x00, 0x00, 0x00, 0x00, 0x0c, 0xbe, 0x20,
   0x02, 0xe6, 0x3f, 0x00, 0x00, 0x92, 0xc3, 0x10, 0x04, 0xc9, 0x30, 0x00,
   0x00, 0x92, 0x81, 0x10, 0x04, 0xc9, 0x20, 0x00, 0x00, 0xcc, 0x80, 0x10,
   0x04, 0xc6, 0x24, 0x00, 0x00, 0xc0, 0x00, 0x10, 0x04, 0xc0, 0x04, 0x00,
   0x00, 0xc0, 0x00, 0x10, 0x04, 0xc0, 0x07, 0x00, 0x00, 0xc0, 0x00, 0x10,
   0x04, 0xc0, 0x04, 0x00, 0x00, 0xc0, 0x00, 0x10, 0x04, 0xc0, 0x04, 0x00,
   0x00, 0x80, 0x81, 0x10, 0x04, 0xc0, 0x00, 0x00, 0x00, 0x80, 0xc3, 0x10,
   0x04, 0xc0, 0x00, 0x00, 0x00, 0x00, 0x3e, 0x10, 0x04, 0xe0, 0x01, 0x00,
   0x00, 0x00, 0x00, 0x10, 0x04, 0x00, 0x00, 0x00, 0x00, 0x00, 0x00, 0x10,
   0x04, 0x00, 0x00, 0x00, 0x00, 0x00, 0x00, 0x10, 0x04, 0x00, 0x00, 0x00,
   0x00, 0x00, 0x00, 0x10, 0x04, 0x00, 0x00, 0x00, 0x00, 0x00, 0x00, 0x10,
   0x04, 0x00, 0x00, 0x00, 0x00, 0x00, 0x00, 0x10, 0x04, 0x00, 0x00, 0x00,
   0x00, 0x00, 0x00, 0x10, 0x04, 0x00, 0x00, 0x00, 0x00, 0x00, 0x00, 0x10,
   0x04, 0x00, 0x00, 0x00, 0x00, 0x00, 0x00, 0x10, 0x04, 0x00, 0x00, 0x00,
   0x00, 0x00, 0x00, 0x10, 0x04, 0x00, 0x00, 0x00, 0x00, 0x00, 0x00, 0x10,
   0x04, 0x00, 0x00, 0x00, 0x00, 0x00, 0x00, 0x10, 0x04, 0x00, 0x00, 0x00,
   0x00, 0x00, 0x00, 0x10, 0x04, 0x00, 0x00, 0x00, 0x00, 0x00, 0x00, 0x10,
   0x04, 0x00, 0x00, 0x00, 0x00, 0x00, 0x00, 0x10, 0x04, 0x00, 0x00, 0x00,
   0x00, 0x00, 0x00, 0x10, 0x04, 0x00, 0x00, 0x00, 0x00, 0x00, 0x00, 0x10,
   0x04, 0x00, 0x00, 0x00, 0x00, 0x00, 0x00, 0x10, 0x04, 0x00, 0x00, 0x00,
   0x00, 0x00, 0x00, 0x10, 0x04, 0x00, 0x00, 0x00, 0x00, 0x00, 0x00, 0x10,
   0x04, 0x00, 0x00, 0x00, 0x00, 0x00, 0x00, 0x10, 0x04, 0x00, 0x00, 0x00,
   0x00, 0x00, 0x00, 0x10, 0x04, 0x00, 0x00, 0x00, 0x00, 0x60, 0x1e, 0x10,
   0x04, 0x1c, 0x00, 0x00, 0x00, 0x78, 0x67, 0x10, 0x04, 0x36, 0x00, 0x00,
   0x00, 0x60, 0x63, 0x10, 0x04, 0x63, 0x00, 0x00, 0x00, 0x60, 0x63, 0x10,
   0x04, 0x63, 0x00, 0x00, 0x00, 0x60, 0x2f, 0x10, 0x04, 0x63, 0x00, 0x00,
   0xf8, 0x63, 0x3c, 0x10, 0x04, 0x63, 0x00, 0x00, 0xf8, 0x63, 0x7a, 0x10,
   0x04, 0x63, 0x00, 0x00, 0x00, 0x60, 0x63, 0x10, 0x04, 0x63, 0x00, 0x00,
   0x00, 0x60, 0x63, 0x10, 0x04, 0x63, 0x00, 0x00, 0x00, 0x60, 0x73, 0x10,
   0x04, 0x36, 0x00, 0x00, 0x00, 0x60, 0x3c, 0x10, 0x04, 0x1c, 0x00, 0x00,
   0x00, 0x00, 0x00, 0x10, 0x04, 0x00, 0x00, 0x00, 0x00, 0x00, 0xff, 0xb7,
   0xf6, 0x7f, 0x00, 0x00, 0x00, 0x00, 0xff, 0x57, 0xf5, 0x7f, 0x00, 0x00,
   0x00, 0x00, 0x00, 0xf0, 0x07, 0x00, 0x00, 0x00, 0x00, 0xf0, 0x60, 0xf0,
   0x07, 0x00, 0x7e, 0x00, 0x00, 0x98, 0x7b, 0xf0, 0x07, 0x00, 0x3e, 0x00,
   0x00, 0x18, 0x63, 0xf0, 0x07, 0x00, 0x02, 0x00, 0x00, 0x00, 0x63, 0xf8,
   0x0f, 0x00, 0x02, 0x00, 0x00, 0x00, 0x63, 0xfc, 0x1f, 0x00, 0x3a, 0x00,
   0xf8, 0x83, 0x61, 0xfc, 0x1f, 0x7f, 0x76, 0x00, 0xf8, 0xc3, 0x60, 0xfe,
   0x3f, 0x7f, 0x60, 0x00, 0x00, 0x60, 0x60, 0xfe, 0x3f, 0x00, 0x60, 0x00,
   0x00, 0x30, 0x62, 0xfe, 0x3f, 0x00, 0x63, 0x00, 0x00, 0xf8, 0x63, 0xfe,
   0x3f, 0x00, 0x73, 0x00, 0x00, 0xf8, 0x63, 0xfe, 0x3f, 0x00, 0x1e, 0x00,
   0x00, 0x00, 0x00, 0xfc, 0x1f, 0x00, 0x00, 0x00, 0x00, 0x00, 0x00, 0xfc,
   0x1f, 0x00, 0x00, 0x00, 0x00, 0x00, 0x00, 0xf8, 0x0f, 0x00, 0x00, 0x00,
   0x00, 0x00, 0x00, 0xe0, 0x03, 0x00, 0x00, 0x00};
