/* XPM */
static char * image_name[] = {
"64 64 192 2",
"  	c None",
". 	c #965820811040",
"X 	c #965830C20000",
"o 	c #965830C21040",
"O 	c #861730C20000",
"+ 	c #EFBEAEBA4103",
"@ 	c #EFBEAEBA30C2",
"# 	c #EFBEA2894103",
"$ 	c #EFBEBEFB6185",
"% 	c #EFBEAEBA5144",
"& 	c #EFBEA28930C2",
"* 	c #EFBEAEBA6185",
"= 	c #EFBEBEFB4103",
"- 	c #EFBEBEFB30C2",
"; 	c #E79D86174924",
": 	c #8E38451428A2",
"> 	c #BEFB86176185",
", 	c #9E7971C66185",
"< 	c #8E3861854103",
"1 	c #A69965954103",
"2 	c #EFBEA2896185",
"3 	c #9E7951444103",
"4 	c #9E79AEBABEFB",
"5 	c #9658AEBACF3C",
"6 	c #8617A699A699",
"7 	c #208130C230C2",
"8 	c #CF3CAEBAAEBA",
"9 	c #9658BEFBCF3C",
"0 	c #9658AEBADF7D",
"q 	c #71C6BEFBCF3C",
"w 	c #1040410330C2",
"e 	c #EFBEAEBA8617",
"r 	c #CF3C71C65144",
"t 	c #AEBAAEBACF3C",
"y 	c #492486178617",
"u 	c #28A24D344924",
"i 	c #618561856185",
"p 	c #EFBEAEBA2081",
"a 	c #EFBEAEBA71C6",
"s 	c #EFBEBEFB2081",
"d 	c #E79D8E386185",
"f 	c #E79DAAAAAEBA",
"g 	c #71C6AEBADF7D",
"h 	c #514471C68617",
"j 	c #71C6AEBACF3C",
"k 	c #618592489E79",
"l 	c #EFBEBEFB71C6",
"z 	c #EFBEA2895144",
"x 	c #8617AEBADF7D",
"c 	c #6185AEBADF7D",
"v 	c #69A6451428A2",
"b 	c #EFBEA28971C6",
"n 	c #DF7D92489E79",
"m 	c #8617AEBACF3C",
"M 	c #AEBA41031040",
"N 	c #208130C24103",
"B 	c #8617BEFBDF7D",
"V 	c #6185BEFBDF7D",
"C 	c #6185AAAAAEBA",
"Z 	c #C71B451428A2",
"A 	c #AEBAA2898617",
"S 	c #AEBA8A2869A6",
"D 	c #AEBA49242081",
"F 	c #E79D82071040",
"G 	c #EFBE61851040",
"H 	c #C71BAAAAA699",
"J 	c #514482079E79",
"K 	c #EFBE71C62081",
"L 	c #A699AEBAAEBA",
"P 	c #71C6AEBABEFB",
"I 	c #EFBEBEFB5144",
"U 	c #BEFBA289BEFB",
"Y 	c #9E79CF3CDF7D",
"T 	c #6185AEBACF3C",
"R 	c #AEBAAEBABEFB",
"E 	c #71C6BEFBDF7D",
"W 	c #5144A289A699",
"Q 	c #C71BBEFBA699",
"! 	c #28A271C669A6",
"~ 	c #C71B659528A2",
"^ 	c #EFBECF3C5144",
"/ 	c #EFBEAAAA9658",
"( 	c #69A6BEFBC71B",
") 	c #EFBE924830C2",
"_ 	c #EFBEA28928A2",
"` 	c #E79D8A2828A2",
"' 	c #D75C92488E38",
"] 	c #DF7D71C64103",
"[ 	c #E79DC71BA699",
"{ 	c #6185A289BEFB",
"} 	c #28A251446185",
"| 	c #9658BEFBDF7D",
" .	c #CF3C924871C6",
"..	c #8617C71BC71B",
"X.	c #DF7D71C61040",
"o.	c #DF7D820730C2",
"O.	c #8617CF3CDF7D",
"+.	c #EFBE61850000",
"@.	c #E79DC71B4924",
"#.	c #8E38AAAAC71B",
"$.	c #E79D659528A2",
"%.	c #EFBEA2899E79",
"&.	c #618571C68617",
"*.	c #DF7DAEBA9E79",
"=.	c #9E7982075144",
"-.	c #861751444103",
";.	c #CF3CC71BBEFB",
":.	c #0000410330C2",
">.	c #CF3C618530C2",
",.	c #4103618569A6",
"<.	c #EFBEC71B8E38",
"1.	c #DF7D71C671C6",
"2.	c #618592488617",
"3.	c #DF7D61854103",
"4.	c #DF7DC71B69A6",
"5.	c #EFBECF3C6185",
"6.	c #69A64D344103",
"7.	c #EFBEDF7DBEFB",
"8.	c #EFBECF3CBEFB",
"9.	c #EFBEDF7DCF3C",
"0.	c #AEBA659528A2",
"q.	c #DF7D51441040",
"w.	c #EFBEBEFB8617",
"e.	c #EFBEDF7DDF7D",
"r.	c #BEFB924871C6",
"t.	c #C71BAAAA8617",
"y.	c #AEBA2CB20820",
"u.	c #DF7DAEBABEFB",
"i.	c #EFBEEFBEDF7D",
"p.	c #EFBEDF7DEFBE",
"a.	c #CF3C61851040",
"s.	c #DF7DDF7DCF3C",
"d.	c #E79DC71BC71B",
"f.	c #AEBA51441040",
"g.	c #EFBECF3CCF3C",
"h.	c #104010401040",
"j.	c #BEFBA2896185",
"k.	c #DF7DAAAA4924",
"l.	c #EFBECF3C71C6",
"z.	c #DF7D61851040",
"x.	c #EFBEEFBEEFBE",
"c.	c #CF3C51442081",
"v.	c #71C661854103",
"b.	c #C71B69A64103",
"n.	c #CF3C41031040",
"m.	c #CF3C51441040",
"M.	c #BEFB4D341040",
"N.	c #965892488E38",
"B.	c #9658A2898617",
"V.	c #BEFB82074103",
"C.	c #DF7D51442081",
"Z.	c #965871C66185",
"A.	c #9E79AEBADF7D",
"S.	c #514441032081",
"D.	c #DF7DA69969A6",
"F.	c #8E3830C22081",
"G.	c #CF3CBEFB8E38",
"H.	c #BEFB61851040",
"J.	c #E79D4D340820",
"K.	c #DF7D30C21040",
"L.	c #C71B30C20000",
"P.	c #CF3C82072081",
"I.	c #861700000000",
"U.	c #9E7900000000",
"Y.	c #28A208201040",
"T.	c #9658618530C2",
"R.	c #69A608200820",
"E.	c #618530C228A2",
"W.	c #208100001040",
"Q.	c #49240C300820",
"!.	c #000010402081",
"~.	c #208108202081",
"^.	c #8E3810400000",
"/.	c #104010402081",
"(.	c #104000001040",
").	c #618510400000",
"_.	c #2081208130C2",
"`.	c #000020812081",
"'.	c #104030C230C2",
"].	c #000030C230C2",
"[.	c #618520811040",
"{.	c #208120811040",
"}.	c #DF7D514430C2",
"|.	c #104020812081",
" X	c #08200C3028A2",
".X	c #1040208130C2",
"XX	c #2081104030C2",
"oX	c #104030C24103",
"OX	c #104020814103",
"+X	c #28A2249228A2",
"@X	c #0000208130C2",
"#X	c #410310402081",
"                                                        . X o X .                                                               ",
"                                                  o O o + + @ # + o O o X o O                                                   ",
"                                              X o $ % + # @ & @ & @ & @ # @ + X o X                                             ",
"                                          o O * % % = + @ + @ + @ + @ @ @ + - @ + ; O : > , < 1                                 ",
"                                      X . * * % # @ # @ # @ # @ & @ # @ + @ + @ # % 2 X 3 4 5 6 7                               ",
"                                    O @ $ * = # @ # @ # @ # @ # @ # @ # @ + @ + + + % * X 8 9 0 q 7 w                           ",
"                                o X e % + @ & @ & & # @ & @ & @ # @ # @ + @ # @ # @ & @ + X r 8 t y u 7 i                       ",
"                              o p a $ % + + s @ @ # + # @ + + + + + + + + + + + + + @ + + d O f 4 g q h w                       ",
"                              X a * * + @ p @ @ & & # & # + # @ # + # @ # @ # @ # @ @ @ # * o r f j g q k 7                     ",
"                            O e l * % @ + # + z + # + z + z + z + % + % + # + # + + + + + * ; o f x c c q 7 v                   ",
"                          X . a * % @ p # @ # + # @ # @ z + + + + + + @ + @ + @ + @ + @ + + b X n m g c g y 7                   ",
"                        M @ $ % p @ + + @ # @ + @ # + + @ + = + + % = + + + @ + - @ - + - % % d O N q B V g C 7                 ",
"                        Z l * + @ @ # + # @ + p # @ + + + @ + @ # @ + @ + = # @ + @ @ - @ @ % # . A 7 y B m m w S               ",
"                      D @ l p @ = # + + + + @ + @ + @ + @ + @ + = + = + = % F G = = = + = + + 2 X H 9 N w B q J w               ",
"                      M $ = @ + # @ # @ # @ # @ + @ # @ @ @ + @ + @ + @ + & K K % = + @ @ @ + % o L 0 j 7 P 9 6 7               ",
"                      D I @ s + @ # + + @ # @ + @ + @ + @ + - + + + = + = + + % = + - @ - + = * O U x g V N w Y w               ",
"                    o $ % p + @ + @ + + # @ + @ + @ + @ @ @ + @ + = + @ + + + + + @ + @ @ @ % + . H 0 T c P 7 6 7               ",
"                    O a @ % = + + + @ # + + @ + + + + + = + + + + + + + = + @ + = + = + - + I 2 X R x g V E W N w 7             ",
"                    . I @ @ + @ + @ & @ # @ & @ @ @ @ - + - + @ + @ + - + - + - + - @ - @ @ * ; o Q 0 g g T B ! 7 w             ",
"                    O $ p + - @ @ @ @ @ @ @ - @ - + - @ - + - + - + - - - @ - + - K ~ + ^ I % o / N w x ( c V E ! N             ",
"                  X + I @ = + @ & @ # @ @ @ @ @ @ - + @ + @ + @ + - @ - + @ + - + ) ; _ I I ; X f 0 7 y B T E q k 7             ",
"                  o = * I + @ + - @ @ + - + - + @ @ - @ - + = + = + - + - + - + = G ` l = % O ' 8 x V N W B q g P 7             ",
"                  X + p + @ @ @ @ p & @ + @ + @ @ @ @ @ + - @ @ @ - @ - + - + @ + - + @ + X ] [ U E g { } q g q m w             ",
"                  o = @ = + - @ @ @ - @ - @ - @ - @ - - - @ - + - @ - @ - = - = - + - = = o / U 5 c V g w | E B ( u             ",
"                  X + p + - @ @ @ @ @ - @ @ + - @ s @ s @ - @ s @ - @ _ ` = I = + - = = .  .7 5 x c g V x 7 | ..7               ",
"                  o = @ = @ - @ - @ @ + - @ @ @ - + - @ - - - - - + = G X.I = = - + = o.X 8 w C B g V c V 7 O.| w               ",
"                  X + I @ s @ p @ @ @ s @ s @ p @ s @ p @ s p s @ s @ +.& @.= - - - ` X / #.#.7 j q g c g w 5 q 7               ",
"                  o = $ p @ - @ s @ - @ s @ - @ s @ - @ s @ s @ s @ - = - = - - - ) O / 8 x E 7 W E V c V N C C w               ",
"                    o = @ = + @ @ @ @ @ + @ @ - @ @ @ - @ - @ - @ - + - + @ @ - % $.%.H 7 7 B q 7 7 7 9 0 7 &.w                 ",
"                    O % = @ = @ - @ - @ - @ - + - + - + - @ - = - @ - + - @ - = = ] *.t x 7 ..} } [ =.-.;.{ :.N                 ",
"                      X + = + @ @ p @ s @ s @ - @ - @ @ + - @ - @ - + - + - @ - + >.f R x w ,.S <.` l ~ 1.2.,.                  ",
"                      o = % - @ @ + - = p @ - = F + - + - + - - - = - - - - - = = 3.[ R x N u [ 4.% 5.2 D 6.                    ",
"                        . 7.8.9.9.9.*.0.l p @ = q.w.8.7.e.9.e.9.f r.1 0.I @.= - % >.f L 0 y 7 t.0._ + = y.                      ",
"                        X e.v u.i.p.e.-.4.$ p @ a.[ 7.p.s.;.i.p.i.e.i.d.v 0.@.I ^ >.f t q { w t.@.- - # f.                      ",
"                        o [ H g.p.i.e.< w.5.@ p q.2 g.e.6.h.H 9.p.i.e.e., j.k.I I >.%.R 0 P 7 t.l.- - z.$.                      ",
"                          o Q x.i.p.s.v <.@ s @ # c.[ 9.L i ;.e.i.p.i.e.v.<.l.$ I b.*.t x g w A 4.= ` n.                        ",
"                          X l $ * % * m.$ p @ p + M.; 0.d.9.x.i.p.e.g.N.<.l.I - I ; %.4 0 j 7 B.< V.                            ",
"                          o $ $ ^ + = C.@ @ p @ @ @ m.2 1 1 =.A S Z.< r.5.I p = I d *.A.g g w L S.                              ",
"                            . m.q.m.q.p @ p @ @ @ p @ m.% l.a k.D.$ $ I & p @ - * D.f 5 x y i A F.                              ",
"                            O $ + % a.@ p @ s @ p @ s @ a.c.k.+ = = - @ a.@ s I + / H L y N.G.:                                 ",
"                            o $ $ m.@ p @ p @ - @ p + p @ @ q.m.q.m.q.m.@ p @ p % D 1 < r.l.~ H.                                ",
"                              o a.@ p @ - @ p @ - @ @ + = @ - + - @ - + - @ - @ @ @ p + = n.; e                                 ",
"                              m.@ p @ p @ p @ p @ p @ @ + - @ @ + - @ - @ p @ - @ - @ p @ X.;                                   ",
"                              C.p @ s @ p + - @ p @ s + - + - - - @ - - - + - + - = - + @ K                                     ",
"                            q.p @ p @ p @ p @ @ @ p @ p @ s @ s @ s @ s @ - @ s @ s @ - G                                       ",
"                            m.@ @ @ p @ @ @ p @ @ @ p @ - @ - @ s @ @ + - + - + - @ = K                                         ",
"                          m.@ p @ p @ p @ p q.p @ p @ p @ p @ p @ p @ p @ p @ @ @ @ + J.                                        ",
"                          c.s @ p @ s @ p @ a.@ p @ s @ p @ s @ p @ - @ - @ p @ - @ + K.                                        ",
"                          m.@ p @ p @ p @ m.q.p @ p @ p @ p @ @ + @ + @ @ p @ - @ p ` L.                                        ",
"                        a.@ p @ @ @ p @ a.@ p @ @ @ p @ - @ @ @ - @ - + p @ - @ @ @ z.L.                                        ",
"                        q.p @ p @ p + m.@ p @ p @ p @ p @ p @ p @ p @ @ y.P.$ p @ p q.I.                                        ",
"                      C.p @ s @ p + a.@ p @ s @ p @ s @ @ @ s @ p @ s $.F.: $ @ p @ n.U.                                        ",
"                      m.@ p @ p @ m.J.p @ p @ p p p @ p @ p @ p @ X.$.0.Y.T.* p @ p n.I.R.                                      ",
"                      C.@ @ p @ a.L.p @ @ @ p @ @ @ p @ @ @ X.d , E.Y.W.Y. .l.@ @ @ ` R.Q.!.                                    ",
"                      m.@ p @ z.  m.~ p @ p @ p @ @ & p $.d   S Y.W.~.h.6.k.@ p @ p ) ^.R.!./.                                  ",
"                      C.p @ s C.    M.@ p @ s @ p ~ ~ d E.A v.W.W.(.h.(.j.$ s = p @ o.I.)._.`.'.].                              ",
"                      m.@ p @ m.      m.q.m.q.m.d : d > [.  v Q.W.h.(.{.l I @ - @ p }.^.Q.|. X!..X'.                            ",
"                      C.@ @ m.                  0. .      f [.Q.h.(.7 S I @ p + @ + L.r > XX`. X'.oX'.                          ",
"                        q.m.                              w.b b.D.$ * p @ - @ @ @ p c.l b Q.Q././..X_..X                        ",
"                                                          Z s @ p @ s @ p @ s @ p @ o.a a Q.Y.XX`.OX'..X].                      ",
"                                                            XX|.D p @ p @ p @ p ) ] ; l a ).Q.+X X.X.X|..X.X                    ",
"                                                          _.|.~.v.: p @ @ @ p ; M.~ 4.w.l R.Q.XX@X@X@XOX'..X'.                  ",
"                                                        XX|._.h./ b.o H.~ M c.<.8.: w.l * ).#X|.OX]..X.X.X.X.X.X                ",
"                                                      _.|..X|./.G.D.0.[ Q.#XS g.9.-.<.w.D.R.+X.X@X@X]..X].OX]..X].              "};
