/* XPM */
static char * image_name[] = {
"48 48 228 2",
"  	c #FFFFFFFFDF7D",
". 	c #FFFFFFFFE79D",
"X 	c #FFFFFBEEDF7D",
"o 	c #F7DEF7DEDF7D",
"O 	c #F7DEFBEEDF7D",
"+ 	c #EFBEF3CED75C",
"@ 	c #F7DEF7DED75C",
"# 	c #DF7DE38DC71B",
"$ 	c #B6DAB6DA9E79",
"% 	c #9E7996588617",
"& 	c #8E38924869A6",
"* 	c #8617820769A6",
"= 	c #A699A6998E38",
"- 	c #C71BC71BAEBA",
"; 	c #EFBEEBADCF3C",
": 	c #EFBEEFBED75C",
"> 	c #C71BCB2BB6DA",
", 	c #79E7861769A6",
"< 	c #38E3451438E3",
"1 	c #104014511861",
"2 	c #104018611861",
"3 	c #104014511040",
"4 	c #104010400820",
"5 	c #18611C711040",
"6 	c #4924514430C2",
"7 	c #9658965879E7",
"8 	c #EFBEEFBECF3C",
"9 	c #59655D755144",
"0 	c #1861249228A2",
"q 	c #104018612081",
"w 	c #10401C7128A2",
"e 	c #1861208128A2",
"r 	c #104010401040",
"t 	c #28A228A21861",
"y 	c #FFFFFBEED75C",
"u 	c #D75CD75CB6DA",
"i 	c #69A669A65965",
"p 	c #10401C7130C2",
"a 	c #1861208130C2",
"s 	c #B6DABAEAA699",
"d 	c #28A228A228A2",
"f 	c #1861249238E3",
"g 	c #08200C300820",
"h 	c #4103492428A2",
"j 	c #9658A2898617",
"k 	c #186124924103",
"l 	c #104014512081",
"z 	c #38E338E328A2",
"x 	c #8E389A698617",
"c 	c #186120811861",
"v 	c #5965596528A2",
"b 	c #69A6659528A2",
"n 	c #492445141861",
"m 	c #208124921040",
"M 	c #28A230C22081",
"N 	c #B6DAC71BA699",
"B 	c #38E338E330C2",
"V 	c #492455554103",
"C 	c #514465954924",
"Z 	c #410355554924",
"A 	c #186128A24103",
"S 	c #79E7820738E3",
"D 	c #AEBAA28938E3",
"F 	c #B6DAAAAA38E3",
"G 	c #BEFB965828A2",
"H 	c #AEBA965830C2",
"J 	c #9E7975D62081",
"K 	c #5965618528A2",
"L 	c #38E330C21861",
"P 	c #DF7DDF7DBEFB",
"I 	c #E79DE38DBEFB",
"U 	c #28A234D338E3",
"Y 	c #86178E385144",
"T 	c #B6DAB6DA4924",
"R 	c #C71BCB2B5144",
"E 	c #BEFBC71B5965",
"W 	c #9E79AEBA5965",
"Q 	c #30C24D345144",
"! 	c #18612CB24924",
"~ 	c #186128A238E3",
"^ 	c #4924555538E3",
"/ 	c #A699AAAA4924",
"( 	c #C71BBAEA4103",
") 	c #D75CC71B4103",
"_ 	c #DF7DC71B38E3",
"` 	c #CF3CBAEA38E3",
"' 	c #CF3CA69928A2",
"] 	c #96586DB62081",
"[ 	c #69A655552081",
"{ 	c #28A22CB21861",
"} 	c #59655D7538E3",
"| 	c #F7DEF3CECF3C",
" .	c #69A66DB65144",
"..	c #B6DAAEBA4103",
"X.	c #71C675D630C2",
"o.	c #CF3CD34C5965",
"O.	c #208134D35144",
"+.	c #DF7DCF3C4103",
"@.	c #D75CB6DA30C2",
"#.	c #AEBA861728A2",
"$.	c #861775D628A2",
"%.	c #514445141861",
"&.	c #8E38924871C6",
"*.	c #BEFBCF3C8E38",
"=.	c #CF3CC30B4924",
"-.	c #186118611040",
";.	c #104014510820",
":.	c #AEBAB6DA6185",
">.	c #208138E36185",
",.	c #30C2555579E7",
"<.	c #28A251448617",
"1.	c #D75CCF3C5144",
"2.	c #DF7DD34C4924",
"3.	c #D75CB2CA30C2",
"4.	c #30C22CB21861",
"5.	c #61855D755144",
"6.	c #38E3451428A2",
"7.	c #8E388A2838E3",
"8.	c #CF3CCF3C6185",
"9.	c #38E361858E38",
"0.	c #30C25D758E38",
"q.	c #28A2492471C6",
"w.	c #79E761852081",
"e.	c #492438E31861",
"r.	c #E79DE79DC71B",
"t.	c #28A234D328A2",
"y.	c #96589E794924",
"u.	c #71C682074924",
"i.	c #D75CDB6C79E7",
"p.	c #E79DE79D8E38",
"a.	c #9658AEBA9E79",
"s.	c #492475D69658",
"d.	c #49246DB69658",
"f.	c #C71BBEFB5144",
"g.	c #596545141861",
"h.	c #E79DE38DC71B",
"j.	c #9E79A6996185",
"k.	c #EFBEDF7D5144",
"l.	c #96588E3838E3",
"z.	c #CF3CCB2B69A6",
"x.	c #E79DEBAD9658",
"c.	c #A699C30BA699",
"v.	c #59658207A699",
"b.	c #59657DF79E79",
"n.	c #514471C68E38",
"m.	c #AEBAB6DA5965",
"M.	c #E79DD75C4924",
"N.	c #EFBEDB6C4103",
"B.	c #E79DCB2B4103",
"V.	c #E79DCF3C38E3",
"C.	c #38E334D31861",
"Z.	c #AEBAAEBA8E38",
"A.	c #596555554924",
"S.	c #EFBEE38D5144",
"D.	c #EFBEEFBE8E38",
"F.	c #EFBEF7DEA699",
"G.	c #61858A28A699",
"H.	c #AEBAB2CA9E79",
"J.	c #F7DEE79D5144",
"K.	c #F7DEE38D4924",
"L.	c #E79DC30B38E3",
"P.	c #D75CA69928A2",
"I.	c #C71B965828A2",
"U.	c #71C659652081",
"Y.	c #20811C711040",
"T.	c #CF3CD34CB6DA",
"R.	c #618569A638E3",
"E.	c #8E3896584924",
"W.	c #79E779E738E3",
"Q.	c #EFBEF3CE9E79",
"!.	c #69A69248A699",
"~.	c #69A692489E79",
"^.	c #EFBEE79D6185",
"/.	c #F7DEDF7D4924",
"(.	c #EFBED34C4103",
").	c #E79DC71B38E3",
"_.	c #D75CAAAA30C2",
"`.	c #71C6659528A2",
"'.	c #9658B6DAAEBA",
"].	c #E79DBAEA30C2",
"[.	c #D75CAAAA28A2",
"{.	c #C71B9A6928A2",
"}.	c #A69979E72081",
"|.	c #8E3865952081",
" X	c #FFFFFFFFEFBE",
".X	c #EFBEEFBE9E79",
"XX	c #DF7DDB6C6185",
"oX	c #51443CF31861",
"OX	c #59657DF7A699",
"+X	c #79E759652081",
"@X	c #BEFBB2CA4103",
"#X	c #D75C9E7928A2",
"$X	c #B6DA8A2828A2",
"%X	c #28A224921040",
"&X	c #EFBEEFBEC71B",
"*X	c #18611C712081",
"=X	c #618549241861",
"-X	c #C71BAAAA38E3",
";X	c #86178A284924",
":X	c #596561855965",
">X	c #CF3CBAEA4103",
",X	c #DF7DDB6CBEFB",
"<X	c #86175D752081",
"1X	c #E79DDF7DC71B",
"2X	c #18611C7128A2",
"3X	c #DF7DAEBA28A2",
"4X	c #BEFB8E3828A2",
"5X	c #41033CF330C2",
"6X	c #DF7DB2CA30C2",
"7X	c #10400C300820",
"8X	c #71C679E779E7",
"9X	c #861761852081",
"0X	c #D75CDB6CC71B",
"qX	c #DF7DAAAA28A2",
"wX	c #AEBA9E7938E3",
"eX	c #208120811861",
"rX	c #69A651442081",
"tX	c #28A238E34924",
"yX	c #861779E76185",
"uX	c #618561856185",
"iX	c #79E779E769A6",
"pX	c #8E388A2871C6",
"aX	c #A6999E798E38",
"sX	c #30C22CB22081",
"dX	c #4924492438E3",
"fX	c #AEBAAAAA9658",
"gX	c #96588E3879E7",
"hX	c #BEFBBEFBA699",
"        .       X   X     X X     X     X       X X o o O O O o O o o O O O O O O X X X         ",
"                o o o O X X X   X   X X X     X X o o O O O X O X O O O X o O O O         .   . ",
"                o o o + + o o o o @ X X @ o @ o o o o o o O O O X O O X     O O O     O   .     ",
"                o + + + + o o o + o + # $ % & * * & = - ; o o o X X O   O X O X X X     X .   X ",
"        .       o + + + o + + : > , < 1 2 2 1 1 3 1 4 4 5 6 7 8 o O O O o o O O X O O O O O O O ",
". .             o + + : + : > 9 0 q q w e w e q q 1 1 1 1 r 4 t & 8 o O O O O O O O O O O O O o ",
"            y y : : : : u i e w e p a a w a w e w w q 1 1 1 r 4 4 t 7 + O o o O O O O o o O O O ",
"              y : : : s d e a a f a f a f a a p p w w q 1 1 r r 4 g 4 h # + + o o O o o + + o o ",
"              O ; : j w a a f f f k f k f f f a a p w w q l 1 r r r 4 4 z - + o o o O O O O O O ",
"        y   y @ ; x w e f a f f k k k k f k k k f a p w w q c z v b v n m M N + o o O O O O O O ",
"          y y y N e a a B V C Z A A A k k k k k f f f p e < S D F G H J K L z P + + o o O O O O ",
"          y y I U e B Y T R R E W Q ! ! ! ! ! A A f ~ e ^ / ( ) _ ` ' G ] [ { } ; o o o + o o o ",
"          y |  .e ^ T ..X.K S T o.E Z O.! ! ! ! ! A ~ ^ / ) +.+._ _ @.' #.$.%.m &.+ + + @ y @   ",
"      y   y *.e < =.S -.4 4 ;.n T o.:.O.O.>.,.<.>.~ < / 1.2.+.+._ @.3.' G J [ 4.{ u ; ; + @ @ + ",
"          y 5.0 ....c 6 K 6.c ;.7.o.8., 9.9.9.0.q.U Y 1.+.2.+._ _ _ 3.' G #.w.e.m * r.r.; | | y ",
"    y     - t.X.2.7.{ S y.y.u.c 7.i.p.a.s.d.s.d.<.C f.1.2.+.+.+._ ` @.' G #.] g.{ z h.r.; + | | ",
"        o j.d f.k.l.-.-.{ M M { z.p.x.c.v.v.b.s.n.m.2.M.M.M.N.B.V._ @.3.' G J [ C.-.Z.h.; | | + ",
"    y O : A.6.M.S.o.v -.;.-.M :.p.D.F.N G.G.v.v.H.8.S.S.J.K.K.N.V.L._ 3.P.I.J U.e.Y. .r.; + | | ",
".       T.z R.M.M.=./ E.W.u.j.p.D.Q.Q.N !.G.G.~.- ^.J.J.J.K.K./.(.).L.@._.G #.`.%.t M r.: + | + ",
". . . . Z.d W.S.R.c M h R.Y B i.D.F.F.'.G.G.v.a.^.^.J.J.J.K.K./.(.V.L.].[.{.}.|.%.{ 5 u @ @ @ @ ",
" X X X X& ~ W.K.v -.;.;.-.5 6 i..XQ..X!.v.v.s.j.XXJ.J.J.K.K./.V.N.).L.3.P.I.}.|.oX4.-.$ X O y y ",
" X. . . i d } M.v n h { -.4 } i.p.x.c.s.OX9.Q m.^.J.K.K.K././.N.(.).].3.P.G }.+X%.t 5 = O y     ",
".       V 1 t.@Xl.D @XF 7.{ v R p.*.s.9.<.! < f.k./.S.K./.N.N.(.V.L.@.3.#X$XJ [ oX%X-.= X       ",
"&X| | &X< 2 *XW.` =._ =.=.v $.E / ,.,.q.A ~ C 1.S.K.K.J.K./.N.).).).].[.I.#.] =Xe.m ;.= X       ",
"&XI &XI V 3 2 0 7.-X_ =.=.../ ;XU e ~ a w w } ..( ` ) ) ) _ @.@.@.3.P.#X$X}.|.g.C.m ;.7 + + o . ",
"| &X&X&X:Xr 1 2 0 R.y.../ E.C ~ a a a p w w R.>X+.B.B.B.B.B._ 3.[.{.{.$X}.] =Xe.%X-.;.= u ,XI h.",
"y y | &Xx r 1 q l q 0 d ~ ~ e a a p a p w e  ._ B.M.M.(.B.L.].3.3.' {.#.J <X=XL Y.;.;.- h.1XI I ",
"y y y @ > 3 r 1 q q w e w w w a p p p a 2X0 W.) M.(.(.(.B.].L.3XP.#X4X}.] U.oX4.Y.;.5X,Xh.h.I h.",
"  y y y 8 d r 3 l q q q w w w w w w 2X2X2Xw W.>XM.(.(.B.).].6X3XP.{.$X}.<X=Xe.Y.5 7X* h.&Xr.&X; ",
"y   y y y 8Xr 3 1 1 q q w w w p p 2Xp 2Xw 0 R.>XB.B.(.).].6X6XP.#X4X}.9XU.oXL %X-.5 ,X&X8 8 ; ; ",
"y   y y y 0X3 3 3 2 1 q q w w 2X2X2X2X2X2X*X} -X_ B.].].].6XqX[.4X#.J <X=Xe.Y.5 ;.6 8 8 8 8 : : ",
"      y X @ 9 4 r 1 1 1 l *Xw 2X2X2X2X2X*X*Xh wX>XL.].].6XqX#X{.$XJ <X=Xe.L m 5 ;.= + + + + + + ",
"  y       y > r 4 r 3 1 1 2 q q *X*X*X*X*X*Xt.l._._._._.P.#X$X$X}.<X[ oXC.{ eX-.5X@ o O o o o O ",
"          y @ 8X4 7X3 3 3 1 2 2 2 q *Xq *X*X*XX.H G ' {.I.$X}.J <XrX%.e.{ m 5 -.-   O     .   . ",
"          y y 8 tX7X7X;.3 r 3 3 2 2 2 2 2 -.*Xz $.H #.#.#.}.|.rXg.oXz t m *X-.yX@ O       . . . ",
"                1Xd 7X7X7X;.r 3 3 r 3 3 3 3 3 c n `.$.|.+XrX=XoXe.4.%Xm -.;.i + O O O X   . . . ",
"      . .       y 0Xd g 7X4 7X4 4 4 4 4 ;.4 4 ;.m C.g.%.%.e.C.4.m 5 -.;.;.A.; o o O O X O O O O ",
"  . . . .         o > d 7X7X7Xg g g 7X7X7Xg 7X7X4 m { L L 4.%Xm 5 ;.;.7Xi h.+ o + o O O   O   O ",
".   .   .           o 0XuX3 7X7X7X7X7Xg g g 7X7Xg g -.5 5 5 5 ;.;.;.;.A.= H.- 0Xr.+ + @ O o O O ",
". . .   . .     .   X o o s B ;.7X7X7Xg 7X7X7Xg g g 4 ;.;.;.;.;.7Xm A.i iX* pX% H.N u r.+ o O O ",
". . . . .     . .   X o : > H.9 eX4 4 7X4 g g 4 g g g g g g 7X5 5XA.A.i i iXiXpX7 = s - # : o O ",
". . . . .   .   . . X o # s aXiXA.sX;.;.;.7X4 4 7Xg 7X;.;.5 t B dXA.i i i iXiXpXx = s - ,X; + o ",
". . . . . .   . . .   O : > fXpX:X5XsXeX5 -.-.5 -.5 5 m t sXB dXA.i i iXyXpXpX% % $ s T.# : + + ",
". . . . .       . . O . O + 0Xs % iXi A.dXdX5X5X5X5XdXA.dX5.5. .iXyXpXgX% % fXs hXT.0Xr.: + + @ ",
". . . . . . . .   .   O O O O o r.0XhXs fXaX% gXgXgXpXgXgXgX% aXaXfX$ s > T.0X# : o o o o o o o ",
". . . . . . .     O . O . O O O O o o o o + ; r.1X,X,XT.u ,X,X1X1X; : 8 + o o o o + O o o o o   ",
". . . . . . . O . O O O   O   O O O O O O O O . O o o X o o X o o o X o X O O o o o O o O       ",
".  X. . .   . . . . O o O O O O O   .   .   . .       O   X X X X X X X O O O o O O O O         "};
