/* XPM */
static char *cal_mico[] = {
/* width height num_colors chars_per_pixel */
"    20    20        6            1",
/* colors */
". c #000000",
"# c #000084",
"a c #0000ff",
"b c #c6c6c6",
"c c none",
"d c #ffffff",
/* pixels */
"cccccccccccccccccccc",
"cccccccccccccccccccc",
"cccccccccccccccccccc",
"cc.................c",
"c.a#a#a#a#a#a#a#a#a.",
"c.##.........######.",
"c.a#ddddddddb######.",
"c.#################.",
"c.a#d#d#d#d#d#d#d##.",
"c.##b#b#b#b#b#b#b##.",
"c.a################.",
"c.##d#d#d#d#d#d#d##.",
"c.a#b#b#b#b#b#b#b##.",
"c.##d#d#d#d#d#ddd##.",
"c.a#b#b#b#b#b#bbb##.",
"c.#################.",
"cc.................c",
"cccccccccccccccccccc",
"cccccccccccccccccccc",
"cccccccccccccccccccc"
};
