/* XPM */
static char * image_name[] = {
"48 48 237 2",
"  	c #5965B6DA38E3",
". 	c #6185FBEE38E3",
"X 	c #38E371C64924",
"o 	c #208124925965",
"O 	c #20811C715965",
"+ 	c #20811C715144",
"@ 	c #208120815144",
"# 	c #1861186138E3",
"$ 	c #30C238E330C2",
"% 	c #38E34D3430C2",
"& 	c #28A2208130C2",
"* 	c #208118615144",
"= 	c #20811C714924",
"- 	c #186114515144",
"; 	c #28A228A228A2",
": 	c #6185F3CE38E3",
"> 	c #6185EFBE4103",
", 	c #6185EBAD38E3",
"< 	c #6185BEFB38E3",
"1 	c #6185D75C30C2",
"2 	c #69A6FFFF38E3",
"3 	c #79E7FFFF38E3",
"4 	c #186104106185",
"5 	c #208120816185",
"6 	c #186114514103",
"7 	c #20811C716185",
"8 	c #208120815965",
"9 	c #0820041028A2",
"0 	c #30C234D31040",
"q 	c #71C6FFFF38E3",
"w 	c #41037DF738E3",
"e 	c #208128A25965",
"r 	c #208120814924",
"t 	c #082004102081",
"y 	c #49246DB628A2",
"u 	c #186104105965",
"i 	c #186114515965",
"p 	c #10401C715144",
"a 	c #104008204924",
"s 	c #28A200000820",
"d 	c #6185CB2B30C2",
"f 	c #71C6FFFF30C2",
"g 	c #1861249228A2",
"h 	c #1861186128A2",
"j 	c #514420812081",
"k 	c #28A218611861",
"l 	c #5965B6DA28A2",
"z 	c #71C6FFFF4103",
"x 	c #69A6FBEE4103",
"c 	c #6185CF3C28A2",
"v 	c #38E34D340820",
"b 	c #1861000028A2",
"n 	c #082008204924",
"m 	c #38E318611861",
"M 	c #8E3824921861",
"N 	c #A69928A21861",
"B 	c #C71B30C21861",
"V 	c #B6DA2CB21861",
"C 	c #B6DA30C22081",
"Z 	c #A69924921861",
"A 	c #8E3824921040",
"S 	c #0820082038E3",
"D 	c #186118611861",
"F 	c #30C245141861",
"G 	c #28A238E30000",
"H 	c #186108200820",
"J 	c #514438E31040",
"K 	c #5965CB2B38E3",
"L 	c #49248E3828A2",
"P 	c #104000005144",
"I 	c #20811C7169A6",
"U 	c #186114510820",
"Y 	c #492414511040",
"T 	c #596518610820",
"R 	c #79E724921861",
"E 	c #9E7924921861",
"W 	c #AEBA28A22081",
"Q 	c #186118616185",
"! 	c #0820186138E3",
"~ 	c #0820145128A2",
"^ 	c #596518611040",
"/ 	c #71C61C711861",
"( 	c #8E381C711861",
") 	c #96581C711861",
"_ 	c #AEBA2CB21861",
"` 	c #30C210401040",
"' 	c #AEBA30C21861",
"] 	c #A69928A22081",
"[ 	c #A6992CB21861",
"{ 	c #A6992CB22081",
"} 	c #9E792CB21861",
"| 	c #186120814924",
" .	c #B6DA28A21861",
"..	c #A69930C21861",
"X.	c #9E7924922081",
"o.	c #104000005965",
"O.	c #69A618611040",
"+.	c #410318611861",
"@.	c #082014511861",
"#.	c #618518611861",
"$.	c #9E791C712081",
"%.	c #69A6EBAD28A2",
"&.	c #082014514924",
"*.	c #51444D3469A6",
"=.	c #A69934D32081",
"-.	c #9E7930C21861",
";.	c #30C234D34924",
":.	c #CF3CB2CAAEBA",
">.	c #965892485144",
",.	c #B6DAB2CA8E38",
"<.	c #5144965830C2",
"1.	c #1861041038E3",
"2.	c #596555556185",
"3.	c #E79DD34CC71B",
"4.	c #B6DAB6DA69A6",
"5.	c #8E3871C671C6",
"6.	c #DF7DD75C9658",
"7.	c #86172CB22081",
"8.	c #A69910401040",
"9.	c #69A614512081",
"0.	c #51444D3428A2",
"q.	c #514438E34924",
"w.	c #DF7DC71BC71B",
"e.	c #F7DEDB6CC71B",
"r.	c #69A669A628A2",
"t.	c #C71BB2CAB6DA",
"y.	c #D75CCF3C9658",
"u.	c #AEBA18611861",
"i.	c #F7DEE38DC71B",
"p.	c #DF7DD75CAEBA",
"a.	c #5965FFFF4103",
"s.	c #5144AAAA30C2",
"d.	c #2081249269A6",
"f.	c #EFBEDB6CBEFB",
"g.	c #E79DDB6CB6DA",
"h.	c #B6DAB2CA71C6",
"j.	c #8E3875D65144",
"k.	c #F7DEE38DD75C",
"l.	c #965804101040",
"z.	c #6185618528A2",
"x.	c #6185FFFF38E3",
"c.	c #E79DDB6CC71B",
"v.	c #9E79A69969A6",
"b.	c #96588E3869A6",
"n.	c #F7DEE38DB6DA",
"m.	c #F7DEE79DB6DA",
"M.	c #492461854924",
"N.	c #6185CF3C4103",
"B.	c #514469A669A6",
"V.	c #A69992488E38",
"C.	c #EFBEE79DC71B",
"Z.	c #BEFBB6DA9658",
"A.	c #618520811861",
"S.	c #30C230C228A2",
"D.	c #5144B6DA1861",
"F.	c #5965AEBA5144",
"G.	c #69A6514428A2",
"H.	c #5965D75C30C2",
"J.	c #41033CF330C2",
"K.	c #D75CBAEACF3C",
"L.	c #69A669A65144",
"P.	c #E79DE38DB6DA",
"I.	c #51444D341040",
"U.	c #71C659656185",
"Y.	c #71C610401040",
"T.	c #1040000071C6",
"R.	c #69A659655144",
"E.	c #FFFFF3CED75C",
"W.	c #D75CCB2BA699",
"Q.	c #71C66DB669A6",
"!.	c #69A6FFFF30C2",
"~.	c #38E3492469A6",
"^.	c #F7DEE79DC71B",
"/.	c #DF7DD75CB6DA",
"(.	c #DF7DD34CC71B",
").	c #28A228A271C6",
"_.	c #A6997DF75144",
"`.	c #C71BB2CA8E38",
"'.	c #69A66DB68E38",
"].	c #E79DCB2BAEBA",
"[.	c #9658A2895144",
"{.	c #DF7DCB2BB6DA",
"}.	c #082008200000",
"|.	c #B6DAA699B6DA",
" X	c #492451445965",
".X	c #AEBA8E3869A6",
"XX	c #CF3CC71B8617",
"oX	c #DF7DDF7DEFBE",
"OX	c #4924555528A2",
"+X	c #186128A238E3",
"@X	c #79E792484103",
"#X	c #DF7DE38DB6DA",
"$X	c #B6DA9A699658",
"%X	c #FFFFEFBEE79D",
"&X	c #6185924830C2",
"*X	c #B6DAAAAAC71B",
"=X	c #B6DABAEA5965",
"-X	c #000018610000",
";X	c #38E349245144",
":X	c #965804100820",
">X	c #69A6FFFF28A2",
",X	c #38E369A630C2",
"<X	c #965871C69E79",
"1X	c #104024920000",
"2X	c #A699965871C6",
"3X	c #10402CB21040",
"4X	c #28A20C3030C2",
"5X	c #4924820738E3",
"6X	c #4924CB2B1861",
"7X	c #C71B9248AEBA",
"8X	c #EFBEE79DD75C",
"9X	c #000045140000",
"0X	c #5965FFFF28A2",
"qX	c #E79DE38DAEBA",
"wX	c #C71BBAEA79E7",
"eX	c #186128A20820",
"rX	c #96588A289658",
"tX	c #8E3879E730C2",
"yX	c #8617FFFF4103",
"uX	c #2081104069A6",
"iX	c #5965CF3C28A2",
"pX	c #18610C301040",
"aX	c #410361851861",
"sX	c #38E351442081",
"dX	c #71C661851040",
"fX	c #861779E7A699",
"gX	c #2081145130C2",
"hX	c #514486174924",
"jX	c #208108205965",
"kX	c #B6DAAEBAAEBA",
"lX	c #20810C3071C6",
"zX	c #96589658AEBA",
"xX	c #F7DEE79D9E79",
"cX	c #8617861738E3",
"vX	c #618565952081",
"bX	c #CF3CC71BA699",
"nX	c #C71BC71B9E79",
"  . . . . . . X o O + @ # $ % % & + + + + + O + + o + O O + + + * = - = # ;   . . : : > . . , < ",
"1 2 2 2 2 2 3 $ 4 O @ 5 + # 6 - 7 O @ + + = o @ @ O + 8 + @ O @ + + + o = 9 0 q 2 2 2 2 . 2 2 . ",
", 2 2 2 2 2 q w 4 5 e + o 7 r 8 5 - O O + 8 @ + O 5 + o + @ + + + O = O 8 - t y q 2 2 2 2 2 2 . ",
"1 2 2 2 2 2 q , u 5 7 O 5 5 @ 8 5 + o O i p p O + 8 8 7 O 8 + 8 + + + @ + + a s 3 2 2 2 2 2 2 , ",
"d 2 2 2 2 2 3 f g + e O O @ @ @ 5 O p # h j k k h # p p @ 8 + 8 = + O @ + * 7 9 l z z z x 2 x c ",
"1 2 2 2 3 : v b n O O O 8 + + 7 o # m M N B V C Z A j # O 8 o + * + + * + = p S D F G k H s s J ",
"K 2 2 q L b P I 5 7 o @ o + O e # U Y Y T R E C W V V R # Q O O @ + + i ! ~ D k ^ / ( ) N _ _ E ",
"K 2 f y a Q 7 o 5 O @ o O 8 O O = = = @ 6 # D ` A V _ ' M ! p @ * + p h ^ M N C V W _ ] [ { } E ",
"  q 1 a Q + O e 5 O + O + 8 o o 5 O 5 @ 5 o 7 p h Y N C V R ! 8 | p D A  .Z [ ..[ ' { Z { { E X.",
"d 3 % o.@ @ 8 o 8 O + 8 @ + 7 O 8 8 7 8 @ O 8 7 O # O.V C N +.p i @.#.V ] $.[ Z [ [ { ..[ ..M E ",
"K %.S Q O @ O 5 @ 8 5 + @ 8 8 8 O + i 6 6 + O @ 5 Q # O.V C Z # ! ` N C Z $.[ [ } [ } ] } [ } E ",
", L 4 o o 5 = e 7 o O + o o 5 O &.! *.$ ! 7 o 8 + 8 8 @.( N V k @.A ] ..E E =.{ { [ [ [ -...} E ",
"1 $ Q 5 O e + o + 5 8 @ o + + S ;.:.>.,.h 7 8 o O o O p ` E ) ^ +.W _ =.Z ] ..[ [ [ [ ..[ _ E M ",
"<.1.Q o 8 @ 8 o + 5 + @ O i ! 2.3.4.5.6.9 5 5 O @ O + 8 h #.M +.7._ ] =.] ( [ ] [ } } -.N 8.9.0.",
"<.a 7 8 @ @ = o 8 8 + e + S q.w.e.r.t.y.9 7 O 8 + + + O &.m R +.N M Z _ ( ` E ..} [ ] _ u./ > > ",
"  o.5 8 @ 8 @ @ 8 o @ o O ~ t.i.y.0.e.p.t 7 5 O o o 7 O O D ^ #./ R } ^ #./ ..[ X.Z N 8.9.K a.. ",
"s.o.O d.e 8 o 8 5 O @ 5 S 2.f.g.h.j.k.e.h Q 8 7 + @ @ + O 6 ` ^ / Z ^ #.Z $.{ [ W u.l.z.a.x x.. ",
"K u 7 8 @ 8 + e e 5 o 8 t :.f.c.v.b.n.m.M.n 5 5 - O o + O # m ^ M / 7.' { Z _ V E 7.N.x . 2 2 . ",
"1 B.P + 5 o O o 5 8 + i ; p.p.e.>.V.C.e.Z.a 5 8 + 8 @ O + U N A.^ X.V V W Z ( O.` S.D.x x 2 2 . ",
", F.o.e 8 8 8 @ 8 5 8 - ; r.G.g.>.V.C.C.y.D Q O O @ 5 5 O k  .X.#.` +.^ ^ #./ M } 9.s D H.z 2 . ",
". : 4 O O o 8 5 8 8 o &.J.K.L.Z.v.b.i.P.I.U.&.+ 8 + e + 8 # +.M R / R +.#.( =.C _ C ] Y.H F z . ",
": f B.T.O 5 5 5 O 5 5 &.R.E.W.3.y.L.e.p.2.e.Q.n O * o O 8 O # U #.W _ { X.Y.#.) [ [ _  .$.s D L ",
", !.2 ~.4 O @ o o 8 o &.0.^./.g.g.z.W.C.(.i.g.2.S i O O + 5 5 ~ #. .[ ..] ( R / ( =.[ { _ { Y k ",
", 2 !.f ).4 8 O e 8 5 8 k ^.g./.k.v._.C.c.p.`.g.'.! n + @ o + ! T ( =...{ X./ M / Z } [ Z _ _ R ",
", 2 2 !.x d.T.u + O 8 d.@.].[.I.p.{.j.:.p.I.}.G.f.|. Xt # | 5 # O.#.[ Z X.u.{ [ X.] [ X.Z ..[ -.",
". 2 2 2 f 3 F.<.a O 8 d.t .X0. Xj.E.{.g.XXJ.oXOXj.m.g.@.6 O 5 +XT k O.C ] E =.[ =...=.Z } ..} -.",
". 2 2 2 2 2 f 3 ).4 + d.~ 0.R.@X; p./.g.XXQ.#X2.D $X%Xb.9 O O 6 D i h M  .W =.X.[ { .._ =._ { X.",
". 2 2 2 2 . 2 2 N.'.T.T.D &X Xh.M.{.C./.,.*X=X@X-X$XE.[.;Xh = h = 7 p h ` Y.8.u.N N u.:X:Xl.:XR ",
", 2 2 2 2 2 2 . >X> F.B.,XD.<X@X1X2Xp.g./.%X[.3X-X_.e.b.L.S.b.# I + I 5 a 1.;X4Xb b S.,XX w X 5X",
". 2 2 2 2 2 2 2 2 2 2 f !.6X7X>.-XV./.P.p.8Xh.9X3X7Xe.f.0.t.Z.g O O Q 4 1.d z 2 x > z 2 2 2 q 2 ",
". 2 2 2 2 2 2 2 2 2 2 2 2 0X5.v.}.t.p.g.p.8X/.1X3Xg.qXp.G 2XwXS 7 O 4 ;Xq 3 2 2 2 2 2 2 2 2 . . ",
". 2 2 2 2 2 2 2 2 2 2 2 2 0XR.2X;.{.h.P./.C./.~ '.n.{.i.b.V.>.n d.a % 3 <.OX1 q 2 2 2 2 2 2 2 . ",
". 2 2 2 2 2 2 2 2 2 2 2 2 0XR.k.E.[.Q.n././.P.c.e.qXg.wX0 .X; Q 7 1.d 3 q % 9 l q 2 2 2 2 2 2 . ",
". 2 2 2 2 2 2 2 2 2 2 2 2 x.R.e.i.eX$XC.p.c./.p./.g.h.:.rXz.p 7 5 1.%.q z s.4 b !.2 2 2 2 2 2 . ",
". 2 2 2 2 2 2 2 2 !.q !.3 !.% 3.^.rXZ.wX>.P.p.W.g.n.I.tXI.6 7 8 7 1.s.yX3 ; uXa c 2 2 2 2 2 . . ",
". 2 2 2 2 2 2 2 !.2 OX4XS.%.iX.Xm.^.$XU.|.g./.g.wXI.9 n i Q 5 O 7 a pXaXF u I P L q 2 2 2 2 2 > ",
". 2 2 2 2 2 2 !.d * 4 Q 4 1.sXH r.qX^.k.g.f.y.j.5.F i O 8 8 o @ o O O u u O ).a l q 2 2 2 2 . . ",
". 2 2 2 2 2 2 f ;X4 5 5 Q 5 i i t 0 y.E.^.h.z.rX^.G Q 5 o @ 8 | + + o e o O r pX%.3 2 2 2 2 2 . ",
". 2 2 2 2 2 2 >Xu Q o 5 o e 5 5 7 S H dXI.q.w.k.f.U Q 8 o + o O 8 @ + O O o = 1.b aXq 2 2 2 2 : ",
". 2 2 2 2 2 2 !.4 7 @ 8 O @ 5 8 d.&.& *.fXc.P./.p.@.Q O + @ Q + @ 8 @ 5 + O o 5 Q 1.l q 2 2 2 : ",
". 2 2 2 2 2 2 f  XQ 8 e @ o o O d.9 R.E.n./.p./.p.D 7 5 @ 8 8 @ O @ O @ @ = 8 + + o.gXf 2 2 2 . ",
". 2 2 2 2 !.3 w 1.O 5 5 5 o 5 Q # }.$XP.#Xp.p.g.^.OXn 5 O @ 5 = @ 8 5 o @ O o 8 o 5 a l 2 2 2 . ",
". 2 2 2 2 !.hXuXQ 5 5 5 8 5 + @.$ rX(.p.g.{.g.P.`.v +X~ - O e + 8 @ @ @ @ + @ + + @ u y q 2 2 . ",
". 2 2 2 2 f jXQ 5 @ 8 n S # -X}.kXE.f.p.f.XXp.4.G eXw.rX~ 9 - o @ e 8 o 5 + e + o + o.sX3 2 2 , ",
". 2 2 2 2 2 lXQ - S ~.'.zXv.-XS.`.P.h.OXI.S.U.G eXrXe.n.kXQ.9 S + o O @ @ + e + @ + u ,Xq 2 2 . ",
". 2 2 2 2 f lXn | zXk.E.xX0 *.3.(.p.5.|.w.k.cX3X|.n./.p./.n.kXg &.5 @ @ @ + 5 8 8 O 1.1 2 2 2 . ",
". 2 2 2 2 f I 9 |.n.P.i.vXD c.c.p.P.c.P.^.wX1XrXi.P.p././.W.f.bX@.O o o 8 @ O @ e 7 gX%.q 2 2 . ",
"H.1 , : : : hXQ.kXnXnX[.OXrXbXbXbXW.nXbXh.vXQ.Z.nXW.bXW.bXbXnXkXL.+ @ @ @ + + @ 8 @ r 5X. . . . "};
