/* XPM */
static char * image_name[] = {
"48 48 199 2",
"  	c #71C675D64103",
". 	c #514434D32081",
"X 	c #71C655554103",
"o 	c #9E7975D65144",
"O 	c #4103451430C2",
"+ 	c #71C675D66185",
"@ 	c #410334D32081",
"# 	c #104010400000",
"$ 	c #71C645144103",
"% 	c #9E798A286185",
"& 	c #71C6451430C2",
"* 	c #AEBA75D671C6",
"= 	c #30C220811040",
"- 	c #208110401040",
"; 	c #9E7975D66185",
": 	c #71C675D630C2",
"> 	c #30C210402081",
", 	c #514455554103",
"< 	c #4103208130C2",
"1 	c #9E799A695144",
"2 	c #DF7DAAAAAEBA",
"3 	c #8E3865955144",
"4 	c #6185555530C2",
"5 	c #410320812081",
"6 	c #514434D330C2",
"7 	c #208120811040",
"8 	c #410334D330C2",
"9 	c #9E7975D64103",
"0 	c #8E3865954103",
"q 	c #410345142081",
"w 	c #30C234D32081",
"e 	c #5144208130C2",
"r 	c #71C665954103",
"t 	c #8E3875D64103",
"y 	c #104020811040",
"u 	c #618555554103",
"i 	c #104000001040",
"p 	c #71C665955144",
"a 	c #618534D34103",
"s 	c #BEFB75D671C6",
"d 	c #5144555530C2",
"f 	c #208120812081",
"g 	c #AEBA75D65144",
"h 	c #618534D330C2",
"j 	c #30C245142081",
"k 	c #8E3875D65144",
"l 	c #71C655555144",
"z 	c #BEFB8A285144",
"x 	c #30C220812081",
"c 	c #5144659530C2",
"v 	c #6185208130C2",
"b 	c #000010400000",
"n 	c #BEFBAAAADF7D",
"m 	c #9E799A69BEFB",
"M 	c #8E3875D69E79",
"N 	c #5144659571C6",
"B 	c #AEBAAAAABEFB",
"V 	c #9E7955556185",
"C 	c #AEBAAAAADF7D",
"Z 	c #EFBEFFFFFFFF",
"A 	c #618565958E38",
"S 	c #71C68A289E79",
"D 	c #410345146185",
"F 	c #0000000030C2",
"G 	c #000000000000",
"H 	c #71C675D65144",
"J 	c #410345141040",
"K 	c #BEFBAAAACF3C",
"L 	c #BEFBBAEACF3C",
"P 	c #618555558E38",
"I 	c #000000002081",
"U 	c #9E7955554103",
"Y 	c #2081659571C6",
"T 	c #30C2659571C6",
"R 	c #AEBABAEADF7D",
"E 	c #FFFFFFFFFFFF",
"W 	c #104020815144",
"Q 	c #71C655556185",
"! 	c #618545144103",
"~ 	c #208165956185",
"^ 	c #30C2555571C6",
"/ 	c #FFFFEFBEFFFF",
"( 	c #AEBA9A695144",
") 	c #104000000000",
"_ 	c #AEBABAEACF3C",
"` 	c #104010401040",
"' 	c #208110402081",
"] 	c #5144451430C2",
"[ 	c #6185659571C6",
"{ 	c #30C210401040",
"} 	c #514465952081",
"| 	c #208120810000",
" .	c #208134D35144",
"..	c #30C234D35144",
"X.	c #CF3CCB2B9E79",
"o.	c #208134D31040",
"O.	c #30C265956185",
"+.	c #DF7DDF7DFFFF",
"@.	c #71C665959E79",
"#.	c #30C220815144",
"$.	c #1040208130C2",
"%.	c #1040000030C2",
"&.	c #DF7DAAAA9E79",
"*.	c #EFBEEFBEFFFF",
"=.	c #DF7DEFBEFFFF",
"-.	c #BEFBBAEADF7D",
";.	c #8E389A69AEBA",
":.	c #30C245146185",
">.	c #208120815144",
",.	c #0000104030C2",
"<.	c #30C255558E38",
"1.	c #EFBEDF7DFFFF",
"2.	c #8E388A28AEBA",
"3.	c #5144451471C6",
"4.	c #208134D34103",
"5.	c #1040104030C2",
"6.	c #2081555571C6",
"7.	c #514445144103",
"8.	c #410355556185",
"9.	c #DF7DBAEA9E79",
"0.	c #30C255556185",
"q.	c #9E798A28AEBA",
"w.	c #208155556185",
"e.	c #410355558E38",
"r.	c #30C234D31040",
"t.	c #AEBA65955144",
"y.	c #CF3CCB2BEFBE",
"u.	c #410334D36185",
"i.	c #208120814103",
"p.	c #104020814103",
"a.	c #514465958E38",
"s.	c #208134D32081",
"d.	c #514475D69E79",
"f.	c #AEBAAAAACF3C",
"g.	c #9E79AAAACF3C",
"h.	c #618575D68E38",
"j.	c #104010404103",
"k.	c #208134D371C6",
"l.	c #618575D69E79",
"z.	c #30C2451471C6",
"x.	c #410345148E38",
"c.	c #71C675D69E79",
"v.	c #514445146185",
"b.	c #30C234D34103",
"n.	c #208110404103",
"m.	c #71C68A28AEBA",
"M.	c #514455552081",
"N.	c #104045146185",
"B.	c #208145146185",
"V.	c #208120816185",
"C.	c #000020814103",
"Z.	c #2081451471C6",
"A.	c #514455558E38",
"S.	c #618565959E79",
"D.	c #DF7DDF7DDF7D",
"F.	c #208145145144",
"G.	c #CF3CBAEADF7D",
"H.	c #208134D36185",
"J.	c #BEFB55555144",
"K.	c #30C200002081",
"L.	c #71C634D34103",
"P.	c #DF7DEFBEEFBE",
"I.	c #BEFBBAEAEFBE",
"U.	c #9E7965955144",
"Y.	c #71C665958E38",
"T.	c #30C234D36185",
"R.	c #5144555571C6",
"E.	c #104010405144",
"W.	c #000010401040",
"Q.	c #410334D31040",
"!.	c #61856595AEBA",
"~.	c #DF7DDF7DEFBE",
"^.	c #AEBABAEABEFB",
"/.	c #71C675D6AEBA",
"(.	c #4103555571C6",
").	c #30C210400000",
"_.	c #514465954103",
"`.	c #9E7955555144",
"'.	c #9E799A69AEBA",
"].	c #9E7975D630C2",
"[.	c #71C69A69AEBA",
"{.	c #30C234D371C6",
"}.	c #DF7DCB2BEFBE",
"|.	c #8E389A69BEFB",
" X	c #30C234D330C2",
".X	c #DF7DCB2BDF7D",
"XX	c #9E79AAAABEFB",
"oX	c #71C6659530C2",
"OX	c #CF3CDF7DEFBE",
"+X	c #6185451430C2",
"@X	c #AEBA9A69BEFB",
"#X	c #6185555571C6",
"$X	c #9E79AAAAAEBA",
"%X	c #30C200001040",
"&X	c #AEBA9A6971C6",
"*X	c #BEFB75D65144",
"=X	c #71C665952081",
"-X	c #410310402081",
";X	c #DF7DAAAA8E38",
"  . X o O o + @ # $ + o O $ % & O * + @ O = + @ # @ - @ o o ; @ o . + & - . + : > , < o $ 1 2 o ",
"3 4 5 ; 6 7 6 O 8 4 6 5 3 9 0 5 $ 4 6 ; 3 9 6 5 $ q - O 8 9 3 5 3 w 5 O 6 4 - e r $ r $ t 5 y $ ",
"+ @ u X q $ 8 X % o i @ u * 8 = u @ u = u p - @ O @ u @ q p u o u o 8 @   r o 7 $ o a 1 $ q s q ",
". @ $ ; $ d $ q . d f 4 g d $ X g q 8 q 0 9 3 7 3 q $ q g d 0 X . @ 3 q . d 0 h j 6 k h j 8 q $ ",
"O @ O o O @ X o u $ O & O l O = u @ + @ O l + @ u l O o z . - & o . x & o l u q > q < c v q < b ",
"$ 4 6 x 6 q $ 5 * 9 6 d 3 7 6 5 6 q 6 x 8 7 n m M N M B k 4 $ 5 5 4 5 X 3 q 6 e q > @ e q V k < ",
"u @ 8 = x o 8 l   $ u @ u $ - @ O @ 8 @ u C Z A S D F A N $ 8 G x o x 7 + @ 8 H < q < J < o X H ",
"g q f q - i 5 q - w 0 q . w - q $ q $ 4 K L A L P L A I F L # w x i 6 q $ X - $ t 6 q $ w U y U ",
"# = - @ o # x @ o . O # Y T Y T Y T Y T R E Z A F F I A F W Y T Y T Y T O . u q s 1 Q c ! q < q ",
"f i 6 5 3 7 - d 3 w - x T ~ ^ ~ T ~ ^ ~ / N P L A L P I A I ^ ~ T ~ ^ ~ 8 4 $ V ( U @ x q > c < ",
"+ $ 8 7 O 7 8 X - # - ) ~ T Y T ~ T Y T _ E Z A I F F A I F Y T ~ T Y T ` @ u H Q q < 7 ' b < J ",
". ] 3 q . @ 5 X 3 @ f q ^ ~ T ~ ^ ~ T ~ / [ A L P L A I P I T ~ ^ ~ T ~ . q 3 h w 8 t h w x q h ",
"O . O # # @ u @ u @ O @ Y T Y T Y T Y T R E Z A F F I A F F Y T Y T Y T x $ x ( < q < q > b < q ",
"k 9 $ 7 8 q 3 d 8 q 6 5 T ~ ^ ~ T ~ ^ ~ / N P L A L P I A I ^ ~ T ~ ^ ~ 3 4 6 e q h k < y > c < ",
"q @ - @ % # x X q o u ) ~ T Y T ~ T Y T _ E Z A I F F A I F Y T ~ T Y T q 7 -   < 7 h H < q o J ",
". i # q 3 @ - 4 g d 3 q ^ ~ T ~ ^ ~ T ~ / [ A L P L A I P I T ~ ^ ~ T ~ . 7 # h w x b { } $ t h ",
"  = O & O @ O @ u . u @ Y T Y T Z F Y T R E Z A F F I A F F Y T F T Y T - @ O q < b i | v q < c ",
"8 q 6 5 f 9 3 ; 8 4 * d T ~ ^ ~ / I ^ ~ / N P L A L P I A I ^ ~ F ~ ^ ~ $ q 6 V c h @ i c h @ e ",
"  @ 8 * + 7 8 @ O 7 u @ ~ T Y T Z F F F Z E Z A I F  ...I F F F I T Y T X.p o , Q o o J $ o.< J ",
"$ X 8 w x 9 8 4 0 q 8 7 ^ O.^ ~ / I ^ ~ / Z +.B @.[ #.$.%.I ^ ~ F ~ ^ ~ * &.3 U y 8 r h j 6 c $ ",
"  . O # u $ O & O . O = Y T ~ ^ Z F ~ ^ Z *.=.-.;.A :.>.,.F ~ <.F T ~ ^ u $ O q > q > q $ , ; q ",
"# 4 ' i # O $ d 3 4 6 O ^ ~ ^ O./ I ^ O./ Z 1._ 2.N 3.4.5.I ^ 6.F ~ ^ O.6 i $ V r 5 O < y 5 O e ",
"4 @ 8 7.- @ o = ` p 8 X ~ ^ ~ ^ Z F ~ ^ Z *.=.-.;.A 8...,.F Y <.I ^ Y ^ q $ 8 J < q h o ; 7 X H ",
"9.d 0 9 0 @ 3 4 G d 3 q ^ 0.^ O./ I ^ O./ Z +._ q.[ 3.4.%.I ^ ^ F 0.^ O.. q 8 h k 8 y h t ; r h ",
"- . u o O o ; @   $ + o Y ^ w.^ Z F w.^ =.*.=.-.;.A 8.>.,.F w.e.F ^ ~ ^ o . O r.> b > c $ H < q ",
"6 q t.; 8 4 6 d 6 ; t.d ^ 0.^ 0./ I ^ 0.y.*.1.L 2.[ u.i.F p.^ a.F 0.^ 0.6 q 6 e y h s.e c U c e ",
"q o 8 X O p 8 l u o u @ w.^ w.^ Z F w.^ d.f.g.m h.3. .j.I k.w.l.I ^ w.^ u $ x r.$ q > J ' q < H ",
"$ X 8 q $ d $ q $ d f w z.0.^ 0./ ..^ 0.x.S c.N v.b.n.5.n.0.^ m.F 0.^ 0.. 9 8 h j x q h s.6 c h ",
"$ X < J $ M.$ J $ M.> r.0.^ w.^ R c.N.^ 0.^ B.V.p.F C.V.Z.^ w.A.p.^ w.^ v 9 < . q = q . x . 4 . ",
"k 8 O Q O $ O ; k h O < z.0.z.0.S.D.>.F.z.0.z.0.z.0.z.0.z.0.G.p.H.0.z.0.k $ O 7 f X 8 O 8 u k ; ",
"< 9 J.7 V J K.r.V J L.M.w.z.0.z.w.-.P. .B.z.0.z.w.z.0.z.w.I.N W w.z.0.^ $ } v @ q . o $ x U.o @ ",
"j 8 O ; s.$ s.X s.8 O 8 :.0.z.0.:.0.-.;.Y.8. .F.T.0.e.l.G.R.E.H.:.0.z.0.j 8 s.q k W.k q w   k u ",
"v J s ( ) Q.< o v M.V } 0.z.0.z.0.z.0.!.d.2.S f.~.~.^./.(.W H.z.0.z.0.z.v 7 v ).x $ ; . 4 . 9 . ",
"_.$ _.< y x O $ k ; H < z.:.z.:.z.:.z.:.z.H.>.p.j.p.n.p.V.:.z.:.z.:.z.:._.$ _.7 6 + k ; 6 7 8 O ",
"s } v ( v J L.Q.V } `.Q.:.z.0.z.B.z.0.z.B.z.0.m N j.0.z.B.z.0.z.B.z.0.z.; J v @ q U.z o - $ - @ ",
"j 8 k X s.Q   8 s.$   8 T.:.z.:.:.:.z.:.:.:.z.'.A 5.z.:.:.:.z.:.:.:.z.:.H 8 k u $   @ u w   8 + ",
"{ 9 s r.v r.> J `.Q.v ].:.z.:.z.:.z.:.z.:.z.[.f.:.j.W z.:.z.:.z.:.z.:.z.{ Q.v . 4 . q . 9 . x . ",
"k &.H x O ; _.<   h H < {.:.u.:.{.:.u.:.{.m.}.-.c.i.5.>.{.:.T.:.{.:.T.:.O ! O ; $ u 8 ; p u 8 7 ",
"< 9 L.q > J L.M.< } J.M.:.{.:.z.:.{.:.z.|.y.Z f.h...i.5.W {.:.z.:.{.:.z.$ r L.@ 4 - 4 @ q $ X = ",
"j Q s.; j 8 _.8 _.; _.X j  Xk 8 j x y ;..XE G.XXM R...$.%.>.}.8   Q O Q j i b w w O p 4 f w r w ",
"{ 7 > oX$ Q.> | s J v J v 9 < | $ Q.OXm R +._ m S A D >.p.R.;.} v J v J { 7 { ).9 $ q & 5 @ q . ",
"O ; O x O $ O x O h y $ O Q _.< b +XO $ m ;.@XS #X..%.>.P $X.XQ k ; O < O 8 O , p + 8 O f w f , ",
"; } K.M.V } `.M.$ J v Q.v J L.q i J v M.V } v r.v J L.M.$ J K.) < J L.q $ b %X$ q $ 8 `.q . 8 . ",
"H 8 O * _.; k 8 j $ O ; _.; _.X j 8 _.8 j ; s.8 H 8 k 8 j $ y f s.i _.;   X &X+ k O @ + p O k u ",
"`.9 v q *XX v ].$ M.$ } v 9 ; =X$ o $ ].$ o < J v J v oX-XQ.< J v Q.< } `.;X&.U.5 = - . q $ 9 . ",
"k Q H < O h _.; k ; H x k ; _.; O h O Q k h _.x k ; H < O x O < y 8 O ; O +Xy   6 u $ O $ u k O ",
"< J L.q $ 9 v Q.$ 9 J.Q.v b v Q.$ } `.q V } v M.V 9 J.( i 7 v q < J `.q -Xb ) . q U.o $ x # 8 $ ",
"y x _.; k 8 O 8 H ; _.x _.8 _.8 H ; O i   ; k 8 s.Q k X j i _.f H ; O f y x b u $ ; r + f w p w "};
