/* XPM */
static char * face_xpm[] = {
"64 64 5 1",
" 	c #000000",
".	c #FF0000",
"+	c #1E90FF",
"@	c #DCDCDC",
"#	c #FFFFFF",
"@@@@@@@@@@@@@@@@@@@@@@@@@@@@@@@@@@@@@@@@@@@@@@@@@@@@@@@@@@@@@@@@",
"@@@@@@@@@@@@@@@@@@@@@@@@@@@@@@@@@@@@@@@@@@@@@@@@@@@@@@@@@@@@@@@@",
"@@@@@@@@@@@@@@@@@@@@@@@@@@@@@@@@@@@@@@@@@@@@@@@@@@@@@@@@@@@@@@@@",
"@@@@@@@@@@@@@@@@@@@@@@@@@@@@@@@@@@@@@@@@@@@@@@@@@@@@@@@@@@@@@@@@",
"@@@@@@@@@@@@@@@@+++++@@@@@@@@@@@@@@@@@@@@@@@@@@@@@@@@@@@@@@@@@@@",
"@@@@@@@@@@@@@@@+#####+@@@@@@@@@@@@@@@@@@@@@@@@@@@@@@@@@@@@@@@@@@",
"@@@@@@@@@@@@@@+##....#+@@+++@@@@@@@@@@@@@@@@@@@@@@@@@@@@@@@@@@@@",
"@@@@@@@@@@@@@@+#......#++###+@@@@@@@@@@@@@@@@@@@@@@@@@@@@@@@@@@@",
"@@@@@@@@++@@@+#...##...+#####+@@@@@@@@@@@@@@@@@@@@@@@@@@@@@@@@@@",
"@@@@@@++##++@+#..####..######+@@@@@@@@@@@@@@@@@@@@@@@@@@@@@@@@@@",
"@@@@@+######++#######..######+++@@@@@@@@@@@@@@@@@@@@@@@@@@@@@@@@",
"@@@@+#######+#######...#########+@@@@@@@@@@@@@@@@@@@@@@@@@@@@@@@",
"@@@@+#######+######...###########+@@@@@@@@@@@@@@@@@@@@@@@@@@@@@@",
"@@@+##############...#############+@@@@@@@@@@@@@@@@@@@@@@@@@@@@@",
"@@@+##############..##############+@@@@++++@@@@@@@@+++++@@@@@@@@",
"@@@+##############..########+#####+@@++####++@@@@++#####++@@@@@@",
"@@+###############..########+####+@@+########+@@+#########+@@@@@",
"@@+########################+@++++@@+##########++###########+@@@@",
"@@+######+######+#..#######+@@@@@@@+###########+###########+@@@@",
"@@@+###++#######+#..######+@@@@@@@+###########+#############+@@@",
"@@@@+++@+#######++#######+@@@@@@@+##########################+@@@",
"@@@@@@@@+#######+@+###+++@@@@+++++##########################+@@@",
"@@@@@@@@@+#####+@@@+++@@@@@++####+###########################+@@",
"@@@@@@@@@@+###+@@@@@@@@@@@+######+###### # ##################+@@",
"@@@@@@@@@@@+++@@@@@@@@@@@+########+### ## ## ################+@@",
"@@@@@@@@@@@@@@@@@@@@@@@@@+############# # # #################+@@",
"@@@@@@@@@@@@@@@@@@++++++++########### ##   ## ###############+@@",
"@@@@@@@@@@@@@@@@@+#######+############       ################+@@",
"@@@@@@@@@@@@@@@@+#########+########## ##   ## ############++#+@@",
"@@@@@@@@@@@@@@@+###########+########### # # ################+@@@",
"@@@@@@@@@@@@@@+####################### ## ## ######+#########+@@",
"@@@@@@@@@@@@@@+######################### # ########+#########+@@",
"@@@@@@++++++@@+##############+#####################+##########+@",
"@@@@++######++++#############+####################+++#########+@",
"@@@+############++###########+####################+++#########+@",
"@@+#########################+++##################++++#########+@",
"@@+#########################+++##################+++++########+@",
"@+#########################++++##################+++++########+@",
"@+############ # #########+++++#################++#++++#######+@",
"@+########## ## ## #######+++++#################++#++++#######+@",
"+############ # # #######+++++++################+++#+++#######+@",
"+########## ##   ## #####++#++++####### # #######+++++########+@",
"+###########       #####+++#+++++#### ## ## ######+++#########+@",
"+########## ##   ## ####++#++++++##### # # ###################+@",
"@+########### # # ######++#++++++### ##   ## ###########+####+@@",
"@+########## ## ## #####+++##++++####       ############+####+@@",
"@@+##+######## # ########+++++++#### ##   ## ###########+###+@@@",
"@@@++#####################+++++####### # # ##############+#+@@@@",
"@@@@+################################ ## ## #############++@@@@@",
"@@@@+################################## # ###############+@@@@@@",
"@@@@+############+#######################################+@@@@@@",
"@@@@@+###########+############################+##########+@@@@@@",
"@@@@@+###########+############################+##########+@@@@@@",
"@@@@@@+##########+#############+############++###########+@@@@@@",
"@@@@@@@++######++@+###########+@+#########++@+##########+@@@@@@@",
"@@@@@@@@@++###+@@@+#########++@@@+++###+++@@@@++########+@@@@@@@",
"@@@@@@@@@@@+++@@@@@++######+@@@@@@@@+++@@@@@@@@@+######+@@@@@@@@",
"@@@@@@@@@@@@@@@@@@@@@++++++@@@@@@@@@@@@@@@@@@@@@@++++++@@@@@@@@@",
"@@@@@@@@@@@@@@@@@@@@@@@@@@@@@@@@@@@@@@@@@@@@@@@@@@@@@@@@@@@@@@@@",
"@@@@@@@@@@@@@@@@@@@@@@@@@@@@@@@@@@@@@@@@@@@@@@@@@@@@@@@@@@@@@@@@",
"@@@@@@@@@@@@@@@@@@@@@@@@@@@@@@@@@@@@@@@@@@@@@@@@@@@@@@@@@@@@@@@@",
"@@@@@@@@@@@@@@@@@@@@@@@@@@@@@@@@@@@@@@@@@@@@@@@@@@@@@@@@@@@@@@@@",
"@@@@@@@@@@@@@@@@@@@@@@@@@@@@@@@@@@@@@@@@@@@@@@@@@@@@@@@@@@@@@@@@",
"@@@@@@@@@@@@@@@@@@@@@@@@@@@@@@@@@@@@@@@@@@@@@@@@@@@@@@@@@@@@@@@@"};
