#define face_width 64
#define face_height 64
static unsigned char face_bits[] = {
   0x00, 0x00, 0x00, 0x00, 0x00, 0x00, 0x00, 0x00, 0x00, 0x00, 0x00, 0x00,
   0x00, 0x00, 0x00, 0x00, 0x88, 0x88, 0x88, 0x88, 0x88, 0x88, 0x88, 0x10,
   0x00, 0x00, 0x00, 0x00, 0x00, 0x00, 0x00, 0x01, 0x00, 0x00, 0x15, 0x00,
   0x00, 0x00, 0x00, 0x00, 0x48, 0x12, 0x20, 0x49, 0x92, 0x24, 0x09, 0x10,
   0x00, 0x40, 0x00, 0x04, 0x00, 0x00, 0x80, 0x00, 0x01, 0x00, 0x80, 0x10,
   0x00, 0x00, 0x00, 0x02, 0x88, 0x22, 0x00, 0x80, 0x44, 0x22, 0x09, 0x10,
   0x00, 0x04, 0x00, 0x00, 0x00, 0x00, 0x20, 0x00, 0x10, 0x20, 0x00, 0x40,
   0x08, 0x04, 0x00, 0x21, 0x00, 0x00, 0x00, 0x00, 0x01, 0x00, 0x01, 0x00,
   0x04, 0x00, 0x00, 0x00, 0x90, 0x10, 0x08, 0x02, 0x00, 0x00, 0x00, 0x00,
   0x00, 0x00, 0x20, 0x08, 0x08, 0x00, 0x00, 0x00, 0x80, 0x22, 0x88, 0x00,
   0x00, 0x00, 0x00, 0x00, 0x14, 0x08, 0x01, 0x11, 0x04, 0x00, 0x00, 0x00,
   0x00, 0x40, 0x00, 0x00, 0x00, 0x00, 0x00, 0x80, 0x00, 0x00, 0x00, 0x08,
   0x00, 0x00, 0x00, 0x10, 0x08, 0x00, 0x00, 0x40, 0x00, 0x00, 0x00, 0x00,
   0x00, 0x00, 0x00, 0x00, 0x10, 0x01, 0x00, 0x40, 0x02, 0x00, 0x00, 0x00,
   0x01, 0x00, 0x01, 0x84, 0x00, 0x00, 0x00, 0x10, 0x40, 0x00, 0x20, 0x11,
   0x00, 0x00, 0x10, 0x00, 0x04, 0x00, 0x02, 0x00, 0x00, 0x02, 0x00, 0x20,
   0x00, 0x21, 0x00, 0x02, 0x80, 0x04, 0x28, 0x00, 0x10, 0x00, 0x10, 0x00,
   0xa0, 0x08, 0x00, 0x20, 0x00, 0x82, 0xa4, 0x00, 0x00, 0x10, 0x28, 0x00,
   0x02, 0x08, 0x00, 0x00, 0x00, 0x00, 0x22, 0x20, 0x10, 0x00, 0x01, 0x00,
   0x00, 0x08, 0x40, 0x00, 0x80, 0x00, 0x00, 0x00, 0x00, 0x04, 0x0a, 0x00,
   0x00, 0x24, 0x00, 0x00, 0x00, 0x02, 0x20, 0x00, 0x12, 0x00, 0x00, 0x00,
   0x00, 0x01, 0x08, 0x20, 0x40, 0x45, 0x00, 0x00, 0x00, 0x02, 0x00, 0x00,
   0x00, 0x10, 0x00, 0x00, 0x00, 0x00, 0x00, 0x00, 0x04, 0x00, 0x00, 0x00,
   0x00, 0x00, 0x00, 0x00, 0x00, 0x00, 0x00, 0x00, 0x00, 0x01, 0x00, 0x00,
   0x04, 0x05, 0x00, 0x00, 0x00, 0x02, 0x00, 0x00, 0x40, 0x12, 0x40, 0x00,
   0x00, 0x00, 0x00, 0x40, 0x80, 0x0a, 0x90, 0x00, 0x08, 0x00, 0x00, 0x00,
   0x20, 0x27, 0x14, 0x01, 0x00, 0x00, 0x05, 0x00, 0xc0, 0x1f, 0x00, 0x02,
   0x14, 0x40, 0x12, 0x00, 0x20, 0x27, 0x00, 0x00, 0x01, 0x80, 0x0a, 0x00,
   0x80, 0x0a, 0x00, 0x01, 0x14, 0x20, 0x27, 0x00, 0x40, 0x12, 0x80, 0x80,
   0x02, 0xc0, 0x1f, 0x40, 0x00, 0x05, 0x40, 0x00, 0x28, 0x20, 0x27, 0x00,
   0x00, 0x00, 0x20, 0x80, 0x04, 0x80, 0x0a, 0x00, 0x00, 0x00, 0x40, 0x00,
   0x28, 0x40, 0x12, 0x00, 0x01, 0x00, 0x00, 0x40, 0x10, 0x00, 0x05, 0x10,
   0x10, 0x00, 0x00, 0x00, 0x21, 0x00, 0x00, 0x04, 0x00, 0x00, 0x20, 0x00,
   0x08, 0x00, 0x00, 0x00, 0x10, 0x00, 0x40, 0x00, 0x05, 0x00, 0x00, 0x10,
   0x01, 0x00, 0x00, 0x00, 0x00, 0x00, 0x00, 0x02, 0x20, 0x00, 0x00, 0x00,
   0x00, 0x00, 0x00, 0x00, 0x00, 0x00, 0x00, 0x00, 0x00, 0x00, 0x00, 0x22,
   0x04, 0x00, 0x00, 0x00, 0x00, 0x20, 0x00, 0x00, 0x40, 0x80, 0x00, 0x40,
   0x00, 0x02, 0x00, 0x04, 0x00, 0x08, 0x00, 0x00, 0x42, 0x00, 0x01, 0x00,
   0x88, 0x00, 0x04, 0x08, 0x08, 0x10, 0x82, 0x10, 0x00, 0x90, 0x20, 0x41,
   0x00, 0x01, 0x08, 0x00, 0x01, 0x01, 0x00, 0x00, 0x00, 0x02, 0x10, 0x02,
   0x08, 0x00, 0x02, 0x02, 0x11, 0x10, 0x00, 0x10, 0x10, 0x22, 0x20, 0x10,
   0x00, 0x80, 0x40, 0x00, 0x00, 0x00, 0x04, 0x00, 0x42, 0x00, 0x08, 0x22,
   0x40, 0x40, 0x00, 0x22, 0x00, 0x12, 0x00, 0x00 };
