/* XPM */
static char * image_name[] = {
"48 48 6 1",
" 	c None",
".	c #FFFFFFFFFFFF",
"X	c #B6DA04100820",
"o	c #514455555144",
"O	c #BEFB965828A2",
"+	c #000000000000",
"                                                ",
"                                                ",
"                                                ",
"                                                ",
"                                                ",
"                                                ",
"                                                ",
"................................................",
".XXXXXXXXXXXXXXXXXXXXXXXXXXXXXXXXXXXXXXXXXXXXXXo",
".XXXXXXXXXXXXXXXXXXXXXXXXXXXXXXXXXXXXXXXXXXXXXXo",
".XXXXXXXXXXXXXXXXXXXXXXXXXXXXXXXXXXXXXXXXXXXXXXo",
".XXXXXXXXXXXXXXXXXXXXXXXXXXXXXXXXXXXXXXXXXXXXXXo",
".XXXXXXXXXXXXXXXXXXXXXXXXXXXXXXXXXXXXXXXXXXXXXXo",
".XXXXXXXXXXXXXXXXXXXXXXXXXXXXXXXXXXXXXXXXXXXXXXo",
".XXXXXXXXXXXXXXXXXXXXXXXXXXXXXXXXXXXXXXXXXXXXXXo",
".XXXXXXXXXXXXXXXXXXXXXXXXXXXXXXXXXXXXXXXXXXXXXXo",
".XXXXXXXXXXXXXXXXXXXXXXXXXXXXXXXXXXXXXXXXXXXXXXo",
".XXXXXXXXXXXXXXXXXXXXXXXXXXXXXXXXXXXXXXXXXXXXXXo",
".XXXXXXXXXXXXXXXXXXXXXXXXXXXXXXXXXXXXXXXXXXXXXXo",
"......................OOO......................o",
"......................O.O......................o",
"......................OOO......................o",
"....................OOOOOOO....................o",
".....................OO.OO.....................o",
"....................OOO.OOO....................o",
"....................O.O.O.O....................o",
"....................OOOOOOO....................o",
"....................O.OOO.O....................o",
"....................OO...OO....................o",
".....................OOOOO.....................o",
".++++++++++++++++++++++++++++++++++++++++++++++o",
".++++++++++++++++++++++++++++++++++++++++++++++o",
".++++++++++++++++++++++++++++++++++++++++++++++o",
".++++++++++++++++++++++++++++++++++++++++++++++o",
".++++++++++++++++++++++++++++++++++++++++++++++o",
".++++++++++++++++++++++++++++++++++++++++++++++o",
".++++++++++++++++++++++++++++++++++++++++++++++o",
".++++++++++++++++++++++++++++++++++++++++++++++o",
".++++++++++++++++++++++++++++++++++++++++++++++o",
".++++++++++++++++++++++++++++++++++++++++++++++o",
".ooooooooooooooooooooooooooooooooooooooooooooooo",
"++++++++++++++++++++++++++++++++++++++++++++++++",
"                                                ",
"                                                ",
"                                                ",
"                                                ",
"                                                ",
"                                                "};
