/* XPM */
static char * image_name[] = {
"48 48 11 1",
" 	c None",
".	c #FFFFFFFFFFFF",
"X	c #B6DA04100820",
"o	c #000000005144",
"O	c #30C25555FFFF",
"+	c #514455555144",
"@	c #000000000000",
"#	c #F7DEBEFB30C2",
"$	c #38E33CF34103",
"%	c #000055552081",
"&	c #38E314510820",
"                                                ",
"                                                ",
"                                                ",
"                                                ",
"                                                ",
"                                                ",
"                                                ",
"................................................",
".X..ooooo.XXXXX.ooooo.XXOOOOOOOOOOOOOOOOOOOOOOO+",
".XXX..ooo.XXXXX.ooo.XXX.OOOOOOOOOOOOOOOOOOOOOOO+",
".o.XXX..o.XXXXX.o.XXX..oOOOOOOOOOOOOOOOOOOOOOOO+",
".ooo.XXX..XXXXX.XXX..oooOOOOOOOOOOOOOOOOOOOOOOO+",
".ooooo.XX.XXXXX.X..oooooOOOOOOOOOOOOOOOOOOOOOOO+",
"..........XXXXX.........OOOOOOOOOOOOOOOOOOOOOOO+",
".XXXXXXXXXXXXXXXXXXXXXXXOOOOOOOOOOOOOOOOOOOOOOO+",
".XXXXXXXXXXXXXXXXXXXXXXXOOOOOOOOOOOOOOOOOOOOOOO+",
".XXXXXXXXXXXXXXXXXXXXXXXOOOOOOOOOOOOOOOOOOOOOOO+",
".XXXXXXXXXXXXXXXXXXXXXXXOOOOOOOOOOOOOOOOOOOOOOO+",
"..........XXXXX.........OOOOOXXX@XXXXXXXXXXOOOO+",
".ooo..XXX.XXXXX.XX.oooooOOOOOXX#@#XX#XX##XXOOOO+",
".o..XXXX..XXXXX..XXX.oooOOOOOX##@@#XX@X#X#XOOOO+",
"..XXXX.oo.XXXXX.o..XXX.oOOOOOXXX#XXXXX#XXXXOOOO+",
".XXX.oooo.XXXXX.ooo..XXXOOOOO$%%%%%XX#%%%#$OOOO+",
".X.oooooo.XXXXX.ooooo..XOOOOO$%@%@%XX%%%%%$OOOO+",
".OOOOOOOOOOOOOOOOOOOOOOOOOOOO$#@#@#XX%%%%%$OOOO+",
".OOOOOOOOOOOOOOOOOOOOOOOOOOOO$#@@##XX%&&%#$OOOO+",
".OOOOOOOOOOOOOOOOOOOOOOOOOOOO$#&&##XX##&##$OOOO+",
".OOOOOOOOOOOOOOOOOOOOOOOOOOOO$XXXXXXXXXXXXXOOOO+",
".OOOOOOOOOOOOOOOOOOOOOOOOOOOOXXXXXXXXXXXXXXOOOO+",
".OOOOOOOOOOOOOOOOOOOOOOOOOOOO%%#%#%XX###%#$OOOO+",
".OOOOOOOOOOOOOOOOOOOOOOOOOOOO$%%#%#XX##%@#$OOOO+",
".OOOOOOOOOOOOOOOOOOOOOOOOOOOO$#%@@#XX#%@##$OOOO+",
".OOOOOOOOOOOOOOOOOOOOOOOOOOOOO$$#@%XX%%#$$OOOOO+",
".OOOOOOOOOOOOOOOOOOOOOOOOOOOOOOO$$$XX$$$OOOOOOO+",
".OOOOOOOOOOOOOOOOOOOOOOOOOOOOOOOOOO$$OOOOOOOOOO+",
".OOOOOOOOOOOOOOOOOOOOOOOOOOOOOOOOOOOOOOOOOOOOOO+",
".OOOOOOOOOOOOOOOOOOOOOOOOOOOOOOOOOOOOOOOOOOOOOO+",
".OOOOOOOOOOOOOOOOOOOOOOOOOOOOOOOOOOOOOOOOOOOOOO+",
".OOOOOOOOOOOOOOOOOOOOOOOOOOOOOOOOOOOOOOOOOOOOOO+",
".OOOOOOOOOOOOOOOOOOOOOOOOOOOOOOOOOOOOOOOOOOOOOO+",
".+++++++++++++++++++++++++++++++++++++++++++++++",
"@@@@@@@@@@@@@@@@@@@@@@@@@@@@@@@@@@@@@@@@@@@@@@@@",
"                                                ",
"                                                ",
"                                                ",
"                                                ",
"                                                ",
"                                                "};
