/* XPM */
static char * image_name[] = {
"48 48 6 1",
" 	c None",
".	c #FFFFFFFFFFFF",
"X	c #000055552081",
"o	c #FFFF30C20820",
"O	c #514455555144",
"+	c #000000000000",
"                                                ",
"                                                ",
"                                                ",
"                                                ",
"                                                ",
"                                                ",
"                                                ",
"................................................",
".XXXXXXXXXXXXXXX................oooooooooooooooO",
".XXXXXXXXXXXXXXX................oooooooooooooooO",
".XXXXXXXXXXXXXXX................oooooooooooooooO",
".XXXXXXXXXXXXXXX................oooooooooooooooO",
".XXXXXXXXXXXXXXX................oooooooooooooooO",
".XXXXXXXXXXXXXXX................oooooooooooooooO",
".XXXXXXXXXXXXXXX................oooooooooooooooO",
".XXXXXXXXXXXXXXX................oooooooooooooooO",
".XXXXXXXXXXXXXXX................oooooooooooooooO",
".XXXXXXXXXXXXXXX................oooooooooooooooO",
".XXXXXXXXXXXXXXX................oooooooooooooooO",
".XXXXXXXXXXXXXXX................oooooooooooooooO",
".XXXXXXXXXXXXXXX................oooooooooooooooO",
".XXXXXXXXXXXXXXX................oooooooooooooooO",
".XXXXXXXXXXXXXXX................oooooooooooooooO",
".XXXXXXXXXXXXXXX................oooooooooooooooO",
".XXXXXXXXXXXXXXX................oooooooooooooooO",
".XXXXXXXXXXXXXXX................oooooooooooooooO",
".XXXXXXXXXXXXXXX................oooooooooooooooO",
".XXXXXXXXXXXXXXX................oooooooooooooooO",
".XXXXXXXXXXXXXXX................oooooooooooooooO",
".XXXXXXXXXXXXXXX................oooooooooooooooO",
".XXXXXXXXXXXXXXX................oooooooooooooooO",
".XXXXXXXXXXXXXXX................oooooooooooooooO",
".XXXXXXXXXXXXXXX................oooooooooooooooO",
".XXXXXXXXXXXXXXX................oooooooooooooooO",
".XXXXXXXXXXXXXXX................oooooooooooooooO",
".XXXXXXXXXXXXXXX................oooooooooooooooO",
".XXXXXXXXXXXXXXX................oooooooooooooooO",
".XXXXXXXXXXXXXXX................oooooooooooooooO",
".XXXXXXXXXXXXXXX................oooooooooooooooO",
".XXXXXXXXXXXXXXX................oooooooooooooooO",
".OOOOOOOOOOOOOOOOOOOOOOOOOOOOOOOOOOOOOOOOOOOOOOO",
"++++++++++++++++++++++++++++++++++++++++++++++++",
"                                                ",
"                                                ",
"                                                ",
"                                                ",
"                                                ",
"                                                "};
