/* XPM */
static char * image_name[] = {
"48 48 10 1",
" 	c None",
".	c #FFFFFFFFFFFF",
"X	c #000055552081",
"o	c #B6DA04100820",
"O	c #514455555144",
"+	c #492400000000",
"@	c #18611C712081",
"#	c #A69979E728A2",
"$	c #208155552081",
"%	c #000000000000",
"                                                ",
"                                                ",
"                                                ",
"                                                ",
"                                                ",
"                                                ",
"                                                ",
"................................................",
".XXXXXXXXXXXXXXX................oooooooooooooooO",
".XXXXXXXXXXXXXXX................oooooooooooooooO",
".XXXXXXXXXXXXXXX................oooooooooooooooO",
".XXXXXXXXXXXXXXX................oooooooooooooooO",
".XXXXXXXXXXXXXXX................oooooooooooooooO",
".XXXXXXXXXXXXXXX................oooooooooooooooO",
".XXXXXXXXXXXXXXX................oooooooooooooooO",
".XXXXXXXXXXXXXXX................oooooooooooooooO",
".XXXXXXXXXXXXXXX................oooooooooooooooO",
".XXXXXXXXXXXXXXX................oooooooooooooooO",
".XXXXXXXXXXXXXXX.......+.++.....oooooooooooooooO",
".XXXXXXXXXXXXXXX.....++++.++....oooooooooooooooO",
".XXXXXXXXXXXXXXX...@@@.++++++...oooooooooooooooO",
".XXXXXXXXXXXXXXX.....@..+++++...oooooooooooooooO",
".XXXXXXXXXXXXXXX.....@.++++++...oooooooooooooooO",
".XXXXXXXXXXXXXXX..X.X@#+++.+.X..oooooooooooooooO",
".XXXXXXXXXXXXXXX..X.X@@++++.oX..oooooooooooooooO",
".XXXXXXXXXXXXXXX..X..XX#XXXX.X..oooooooooooooooO",
".XXXXXXXXXXXXXXX...X$.XX@XX.X...oooooooooooooooO",
".XXXXXXXXXXXXXXX....XX.@@.XX....oooooooooooooooO",
".XXXXXXXXXXXXXXX......X@oX......oooooooooooooooO",
".XXXXXXXXXXXXXXX................oooooooooooooooO",
".XXXXXXXXXXXXXXX................oooooooooooooooO",
".XXXXXXXXXXXXXXX................oooooooooooooooO",
".XXXXXXXXXXXXXXX................oooooooooooooooO",
".XXXXXXXXXXXXXXX................oooooooooooooooO",
".XXXXXXXXXXXXXXX................oooooooooooooooO",
".XXXXXXXXXXXXXXX................oooooooooooooooO",
".XXXXXXXXXXXXXXX................oooooooooooooooO",
".XXXXXXXXXXXXXXX................oooooooooooooooO",
".XXXXXXXXXXXXXXX................oooooooooooooooO",
".XXXXXXXXXXXXXXX................oooooooooooooooO",
".OOOOOOOOOOOOOOOOOOOOOOOOOOOOOOOOOOOOOOOOOOOOOOO",
"%%%%%%%%%%%%%%%%%%%%%%%%%%%%%%%%%%%%%%%%%%%%%%%%",
"                                                ",
"                                                ",
"                                                ",
"                                                ",
"                                                ",
"                                                "};
