/* XPM */
static char * image_name[] = {
"48 48 7 1",
" 	c None",
".	c #FFFFFFFFFFFF",
"X	c #000000005144",
"o	c #514455555144",
"O	c #38E33CF34103",
"+	c #000000000000",
"@	c #F7DEBEFB30C2",
"                                                ",
"                                                ",
"                                                ",
"                                                ",
"                                                ",
"                                                ",
"                                                ",
"................................................",
"......................XXXXXXXXXXXXXXXXXXXXXXXXXo",
"...........O..........XXXXXXXXXXXXXXXXXXXXXXXXXo",
"......+.+O.+.O+.+.....XXXXXXXXXXXXXXXXXXXXXXXXXo",
"....+.O+.+.+.+.+O.+...XXXXXXXXXXXXXXXXXXXXXXXXXo",
"....O+..+++++++..+O............................o",
"...O..+++++++++++..O...........................o",
"...++.+++OOOOO+++.++...........................o",
"...O.+++O@@@@@O+++.O..XXXXXXXXXXXXXXXXXXXXXXXXXo",
"...O++++@++@++@++++O..XXXXXXXXXXXXXXXXXXXXXXXXXo",
"...O.++++@O@+@++++....XXXXXXXXXXXXXXXXXXXXXXXXXo",
"...O+++++@@++@+++++O..XXXXXXXXXXXXXXXXXXXXXXXXXo",
"...O.++++@++++++++.O...........................o",
"...++.+++O@+@@+++.++...........................o",
"...O..+++++++++++..O...........................o",
"....O+..+++++++..+O...XXXXXXXXXXXXXXXXXXXXXXXXXo",
"....+.O+.+.+.+.+O.+...XXXXXXXXXXXXXXXXXXXXXXXXXo",
"......+.+O.+.O+.+.....XXXXXXXXXXXXXXXXXXXXXXXXXo",
"...........O..........XXXXXXXXXXXXXXXXXXXXXXXXXo",
"...............................................o",
"...............................................o",
"...............................................o",
".XXXXXXXXXXXXXXXXXXXXXXXXXXXXXXXXXXXXXXXXXXXXXXo",
".XXXXXXXXXXXXXXXXXXXXXXXXXXXXXXXXXXXXXXXXXXXXXXo",
".XXXXXXXXXXXXXXXXXXXXXXXXXXXXXXXXXXXXXXXXXXXXXXo",
".XXXXXXXXXXXXXXXXXXXXXXXXXXXXXXXXXXXXXXXXXXXXXXo",
"...............................................o",
"...............................................o",
"...............................................o",
".XXXXXXXXXXXXXXXXXXXXXXXXXXXXXXXXXXXXXXXXXXXXXXo",
".XXXXXXXXXXXXXXXXXXXXXXXXXXXXXXXXXXXXXXXXXXXXXXo",
".XXXXXXXXXXXXXXXXXXXXXXXXXXXXXXXXXXXXXXXXXXXXXXo",
".XXXXXXXXXXXXXXXXXXXXXXXXXXXXXXXXXXXXXXXXXXXXXXo",
".ooooooooooooooooooooooooooooooooooooooooooooooo",
"                                                ",
"                                                ",
"                                                ",
"                                                ",
"                                                ",
"                                                ",
"                                                "};
