#define p110_width 64
#define p110_height 64
static char p110_bits[] = {
   0x06, 0x60, 0x3c, 0xc0, 0x81, 0x01, 0xc6, 0x38, 0x0c, 0x70, 0xe6, 0xe0,
   0x03, 0x83, 0xf7, 0x6c, 0x18, 0x70, 0xc6, 0xf0, 0x07, 0x06, 0xc6, 0xc6,
   0x30, 0x68, 0xc0, 0xf0, 0x07, 0x0c, 0xc6, 0xc6, 0x60, 0x68, 0x60, 0xf0,
   0x07, 0x18, 0xc6, 0xc6, 0xc0, 0x64, 0x78, 0xf0, 0x07, 0x30, 0xc6, 0xc6,
   0x60, 0x64, 0xc0, 0xf0, 0x07, 0x18, 0xc6, 0xc6, 0x30, 0x62, 0xc0, 0xf0,
   0x07, 0x0c, 0xc6, 0xc6, 0x18, 0x7e, 0xc6, 0xf0, 0x07, 0x06, 0xc6, 0xc6,
   0x0c, 0x60, 0xe6, 0xf0, 0x07, 0x03, 0xc6, 0x6c, 0x06, 0xf0, 0x3c, 0xf0,
   0x87, 0x01, 0xc6, 0x38, 0x00, 0x00, 0x00, 0xf0, 0x07, 0x00, 0x00, 0x00,
   0x00, 0x00, 0x00, 0xf0, 0x07, 0x00, 0x00, 0x00, 0x00, 0x00, 0x00, 0xf0,
   0x07, 0x00, 0x00, 0x00, 0x00, 0x00, 0x00, 0xf0, 0x07, 0x00, 0x00, 0x00,
   0x00, 0x00, 0x00, 0xf0, 0x07, 0x00, 0x00, 0x00, 0x00, 0x00, 0x00, 0xf0,
   0x07, 0x00, 0x00, 0x00, 0x00, 0x00, 0x00, 0xf0, 0x07, 0x00, 0x00, 0x00,
   0x00, 0x00, 0x00, 0xf0, 0x07, 0x00, 0x00, 0x00, 0x00, 0x00, 0x00, 0xf0,
   0x07, 0x00, 0x00, 0x00, 0x00, 0x00, 0x00, 0xf0, 0x07, 0x00, 0x00, 0x00,
   0x00, 0x00, 0x00, 0xf0, 0x07, 0x00, 0x00, 0x00, 0x00, 0x00, 0x00, 0xf0,
   0x07, 0x00, 0x00, 0x00, 0x00, 0x00, 0x00, 0xf0, 0x07, 0x00, 0x00, 0x00,
   0x00, 0x00, 0x00, 0xf0, 0x07, 0x00, 0x00, 0x00, 0x00, 0x00, 0x00, 0xf0,
   0x07, 0x00, 0x00, 0x00, 0x00, 0x00, 0x00, 0xf0, 0x07, 0x00, 0x00, 0x00,
   0x00, 0x00, 0x00, 0xf0, 0x07, 0x00, 0x00, 0x00, 0x00, 0x00, 0x00, 0xf0,
   0x07, 0x00, 0x00, 0x00, 0x00, 0x00, 0x00, 0xf0, 0x07, 0x00, 0x00, 0x00,
   0x00, 0x00, 0x00, 0xf0, 0x07, 0x00, 0x00, 0x00, 0x00, 0x00, 0x00, 0xf0,
   0x07, 0x00, 0x00, 0x00, 0x00, 0x00, 0x00, 0xf0, 0x07, 0x00, 0x00, 0x00,
   0x00, 0x00, 0x00, 0xf0, 0x07, 0x00, 0x00, 0x00, 0x00, 0x00, 0x00, 0xf0,
   0x07, 0x00, 0x00, 0x00, 0x00, 0x00, 0x00, 0xf0, 0x07, 0x00, 0x00, 0x00,
   0x00, 0x00, 0x00, 0xf0, 0x07, 0x00, 0x00, 0x00, 0x00, 0x00, 0x00, 0xf0,
   0x07, 0x00, 0x00, 0x00, 0x00, 0x00, 0x00, 0xf0, 0x07, 0x00, 0x00, 0x00,
   0x00, 0x00, 0x00, 0xf0, 0x07, 0x00, 0x00, 0x00, 0x00, 0x00, 0x00, 0xf0,
   0x07, 0x00, 0x00, 0x00, 0x00, 0x00, 0x00, 0xf0, 0x07, 0x00, 0x00, 0x00,
   0x00, 0x00, 0x00, 0xf0, 0x07, 0x00, 0x00, 0x00, 0x00, 0x00, 0x00, 0xf0,
   0x07, 0x00, 0x00, 0x00, 0x00, 0x00, 0x00, 0xf0, 0x07, 0x00, 0x00, 0x00,
   0x00, 0x00, 0x00, 0xf0, 0x07, 0x00, 0x00, 0x00, 0x00, 0x00, 0x00, 0xf0,
   0x07, 0x00, 0x00, 0x00, 0x00, 0x00, 0x00, 0xf0, 0x07, 0x00, 0x00, 0x00,
   0x00, 0x00, 0x00, 0xf0, 0x07, 0x00, 0x00, 0x00, 0x00, 0x00, 0x00, 0xf0,
   0x07, 0x00, 0x00, 0x00, 0x00, 0x00, 0x00, 0xf0, 0x07, 0x00, 0x00, 0x00,
   0x00, 0x00, 0x00, 0xf0, 0x07, 0x00, 0x00, 0x00, 0x00, 0x06, 0x5f, 0xf8,
   0x0f, 0xe6, 0x3f, 0x00, 0x00, 0xc9, 0x61, 0xfc, 0x1f, 0xc9, 0x30, 0x00,
   0x00, 0xc9, 0x40, 0xfc, 0x1f, 0xc9, 0x20, 0x00, 0x00, 0x66, 0x40, 0xfe,
   0x3f, 0xc6, 0x24, 0x00, 0x00, 0x60, 0x00, 0xfe, 0x3f, 0xc0, 0x04, 0x00,
   0x00, 0x60, 0x00, 0xfe, 0x3f, 0xc0, 0x07, 0x00, 0x00, 0x60, 0x00, 0xfe,
   0x3f, 0xc0, 0x04, 0x00, 0x00, 0x60, 0x00, 0xfe, 0x3f, 0xc0, 0x04, 0x00,
   0x00, 0xc0, 0x40, 0xfc, 0x1f, 0xc0, 0x00, 0x00, 0x00, 0xc0, 0x61, 0xfc,
   0x1f, 0xc0, 0x00, 0x00, 0x00, 0x00, 0x1f, 0xf8, 0x0f, 0xe0, 0x01, 0x00,
   0x00, 0x00, 0x00, 0xe0, 0x03, 0x00, 0x00, 0x00};
