/* XPM */
static char * image_name[] = {
"48 48 4 1",
" 	c #FFFFFFFFFFFF",
".	c #AEBAAAAAAEBA",
"X	c #000000000000",
"o	c #514455555144",
"    .  XX .     .     o   o            X X o    ",
"    . . XXX     o    o    X    .o.o   X X o.X   ",
"  . .  o.X.X.....o   X    o   .    o.X  o .oXX  ",
" . ..  .. XXXX  ..o...........o..  o .ooo.o.X   ",
" o o.  oXXX.X.XX  . o       oo   .... oo o.oX   ",
" ....  .XX...XX X ..        o.  .    .  o . oX .",
" o ..  oX.   ..XXXXo XX.oooo.ooo o ooo.o  . .X.o",
"  o.o  .XXooo.oooXXXXXoo..o.  Xo. X   ..o . oXo.",
"  .... oX...o. X  oXXXXo.    . . Xo. ... . .X..o",
"   .o.XX o  o.o.o.o..XXX.. o  Xo. . ..o   . X ..",
"   o.oXo.o.o  . XXoXo XXXX...... ....o.   . X .o",
"    o.X o      .XX   oXoXXX  ...  X  ..  .  X.  ",
"    ..Xo.      .. X oXXooXXXXXXXX. X..   ..XX   ",
"    ..X o.o    . oXX oXXo  oXXXooXXXX.o o. X.   ",
"     . X o.o  o.o   X  X.  X  oXo. X...o . X.   ",
"    .  X .o.o X.   o XXX .X    o .oXo.. .  X.   ",
"X    . XoX.o.X.. Xo    XXo     o .Xo..o. . X .  ",
" XXX.  XX.oo oXX.      X Xo     o.X...o X..X .  ",
"XX . ..X o.ooXXXXo.o.o.X.o.o  .oXX . . Xo. X .  ",
"  X ...XXXo.oXXXo..  o  X  .o.XXoX..  . X. X..XX",
"   . ..X  Xooo. oo.X.o.oXo.o.X  X. . ..  . XX.X ",
"    X.. X  .o.o.o.o.o X.X. XX  .X. .  . . XX  X ",
"   .o.. X   ..XXXXX .o..XXXX o..X. .   ..X X . o",
"  . X ..X   o.X  o oo. XX XXX.o oX... o .  X . .",
"   . X  X    oX oooo.XX. X  Xo.Xo .. Xo..  X . o",
"  .  o  XX   .Xoo oXX.  oXo.o.X.oo. X o .  XX. .",
"     X    XX.oXo.XXo.o.o X .   ooX..oXoX   XX. o",
"  .   X   oo. XXX  X     X  .  XX..X  o X  X . .",
"o.oooooooo X.XX   X  .oX XoX .XXX. XXXoXo  X . o",
"      XoXoXXX X.XXXo.o   X XX . X.    oXX .X .o ",
"         XXX.XXoXX .     XX    ..X    o XX . .. ",
"o       Xo..ooXoooX X   XX      .Xo   ..... ..o ",
" oooooXXoo .  Xo. o. XXX XX    . .Xo..o X    X. ",
"    XX.    .   Xo.  XX   XX.... . X.  oX    . oX",
"    X      .   XooX.  ...X   . . .X . oX     ..X",
"    X      .  XX.Xoo..  XX  . .  o.Xo.o    XXXo ",
"   .X     .   XXX. o      XX.  oooXX oX  XX  o  ",
"o   XXXXXX.XXX..XoX.XXXXXX .o o  o XX.oXX    .  ",
".o .X     . .o.o... ..  oo.X .XX oX X...     o .",
" .o  X    ..o    ...oo.oX.  .   XXXXX o..    .  ",
" o o  X  o.       .o o . XXX XXXXXoXXX   .   o  ",
" .  o  .o .       ..o....    XX   o XX       .  ",
"  .. o.oX  XXXX...o  o     .X     o X X     .   ",
"  o    XXXX        o    . . . . . . .XX     o   ",
"  ..XXX. . . o.o.o.o . X     .    o  X X . ..   ",
" XXX      X o      oo.o.o.o.o .   o .X.X    o   ",
"X   .      o    XXXo       . o.o.o .  XX   o    ",
"    o     o XXXX    o       . .   o.o.X X  .    "};
