/* XPM */
static char * image_name[] = {
"48 48 6 1",
" 	c None",
".	c #FFFFFFFFFFFF",
"X	c #B6DA04100820",
"o	c #514455555144",
"O	c #000055552081",
"+	c #000000000000",
"                                                ",
"                                                ",
"                                                ",
"                                                ",
"                                                ",
"                                                ",
"                                                ",
"                                                ",
"................................................",
"......XXXXXXXXXXXXXXXXXXXXXXXXXXXXXXXXXXXX.....o",
"........XXXXXXXXXXXXXXXXXXXXXXXXXXXXXXXX.......o",
".........XXXXXXXXXXXXXXXXXXXXXXXXXXXXXX........o",
"...........XXXXXXXXXXXXXXXXXXXXXXXXXX..........o",
".O..........XXXXXXXXXXXXXXXXXXXXXXXX..........Oo",
".OOO..........XXXXXXXXXXXXXXXXXXXX..........OOOo",
".OOOO..........XXXXXXXXXXXXXXXXXX..........OOOOo",
".OOOOOO..........XXXXX....XXXXX..........OOOOOOo",
".OOOOOOO..........XX........XX..........OOOOOOOo",
".OOOOOOOOO.............XX.............OOOOOOOOOo",
".OOOOOOOOOO..........XXXXXX..........OOOOOOOOOOo",
".OOOOOOOOOOOO.........XXXX.........OOOOOOOOOOOOo",
".OOOOOOOOOOOOO.......XXXXXX.......OOOOOOOOOOOOOo",
".OOOOOOOOOOOOOOO.......XX.......OOOOOOOOOOOOOOOo",
".OOOOOOOOOOOOOOO................OOOOOOOOOOOOOOOo",
".OOOOOOOOOOOOOOO...XX......XX...OOOOOOOOOOOOOOOo",
".OOOOOOOOOOOOOOO.XXXXXX..XXXXXX.OOOOOOOOOOOOOOOo",
".OOOOOOOOOOOOOOO..XXXX....XXXX..OOOOOOOOOOOOOOOo",
".OOOOOOOOOOOOO...XXXXXX..XXXXXX...OOOOOOOOOOOOOo",
".OOOOOOOOOOOO......XX......XX......OOOOOOOOOOOOo",
".OOOOOOOOOO..........................OOOOOOOOOOo",
".OOOOOOOOO............................OOOOOOOOOo",
".OOOOOOO..........XX........XX..........OOOOOOOo",
".OOOOOO..........XXXXX....XXXXX..........OOOOOOo",
".OOOO..........XXXXXXXXXXXXXXXXXX..........OOOOo",
".OOO..........XXXXXXXXXXXXXXXXXXXX..........OOOo",
".O..........XXXXXXXXXXXXXXXXXXXXXXXX..........Oo",
"...........XXXXXXXXXXXXXXXXXXXXXXXXXX..........o",
".........XXXXXXXXXXXXXXXXXXXXXXXXXXXXXX........o",
"........XXXXXXXXXXXXXXXXXXXXXXXXXXXXXXXX.......o",
"......XXXXXXXXXXXXXXXXXXXXXXXXXXXXXXXXXXXX.....o",
".ooooooooooooooooooooooooooooooooooooooooooooooo",
"++++++++++++++++++++++++++++++++++++++++++++++++",
"                                                ",
"                                                ",
"                                                ",
"                                                ",
"                                                ",
"                                                "};
