/* XPM */
static char * image_name[] = {
"48 48 8 1",
" 	c None",
".	c #FFFFFFFFFFFF",
"X	c #B6DA04100820",
"o	c #000000008E38",
"O	c #514455555144",
"+	c #F7DEBEFB30C2",
"@	c #86175D755965",
"#	c #000000000000",
"                                                ",
"                                                ",
"                                                ",
"                                                ",
"                                                ",
"                                                ",
"                                                ",
"................................................",
".XXXXXXXXXXXXXXXooooooooooooooooXXXXXXXXXXXXXXXO",
".XXXXXXXXXXXXXXXooooooooooooooooXXXXXXXXXXXXXXXO",
".XXXXXXXXXXXXXXXooooooooooooooooXXXXXXXXXXXXXXXO",
".XXXXXXX+XXXXXXXooooooooooooooooXXXXXXXXXXXXXXXO",
".XXXXX@+++@XXXXXooooooooooooooooXXXXXXXXXXXXXXXO",
".XXXXXX@+@XXXXXXooooooooooooooooXXXXXXXXXXXXXXXO",
".XXXXXX+X+XXXXXXooooooooooooooooXXXXXXXXXXXXXXXO",
".XXXXXXXXXXXXXXXooooooooooooooooXXXXXXXXXXXXXXXO",
".XXXXXXX+XXXXXXXooooooooooooooooXXXXXXXXXXXXXXXO",
".XXXXXXX@XXXXXXXooooooooooooooooXXXXXXXXXXXXXXXO",
".XXXXXX+++XXXXXXooooooooooooooooXXXXXXXXXXXXXXXO",
".XXXXXX+++XXXXXXooooooooooooooooXXXXXXXXXXXXXXXO",
".XXXXXX+++XXXXXXooooooooooooooooXXXXXXXXXXXXXXXO",
".XXXXX@XXX@XXXXXooooooooooooooooXXXXXXXXXXXXXXXO",
".XXXXX@+++@XXXXXooooooooooooooooXXXXXXXXXXXXXXXO",
".XXXXXXXXXXXXXXXooooooooooooooooXXXXXXXXXXXXXXXO",
".XX++XXX@XXX++XXooooooooooooooooXXXXXXXXXXXXXXXO",
".XX++XX+++XX++XXooooooooooooooooXXXXXXXXXXXXXXXO",
".XX++XXXXXXX++XXooooooooooooooooXXXXXXXXXXXXXXXO",
".XX++X+++++X++XXooooooooooooooooXXXXXXXXXXXXXXXO",
".XX++XXXXXXX++XXooooooooooooooooXXXXXXXXXXXXXXXO",
".XX++X+@X+XX++XXooooooooooooooooXXXXXXXXXXXXXXXO",
".XX++X++X++X++XXooooooooooooooooXXXXXXXXXXXXXXXO",
".XX++XX+X@+X++XXooooooooooooooooXXXXXXXXXXXXXXXO",
".XX++XXXXXXX++XXooooooooooooooooXXXXXXXXXXXXXXXO",
".XX++X+++++X++XXooooooooooooooooXXXXXXXXXXXXXXXO",
".XX++XXXXXXX++XXooooooooooooooooXXXXXXXXXXXXXXXO",
".XX++XX+++XX++XXooooooooooooooooXXXXXXXXXXXXXXXO",
".XX++XXX@XXX++XXooooooooooooooooXXXXXXXXXXXXXXXO",
".XXXXXXXXXXXXXXXooooooooooooooooXXXXXXXXXXXXXXXO",
".XXXXXXXXXXXXXXXooooooooooooooooXXXXXXXXXXXXXXXO",
".XXXXXXXXXXXXXXXooooooooooooooooXXXXXXXXXXXXXXXO",
".OOOOOOOOOOOOOOOOOOOOOOOOOOOOOOOOOOOOOOOOOOOOOOO",
"################################################",
"                                                ",
"                                                ",
"                                                ",
"                                                ",
"                                                ",
"                                                "};
