/* XPM */
static char * image_name[] = {
"48 48 8 1",
" 	c None",
".	c #FFFFFFFFFFFF",
"X	c #000055552081",
"o	c #514455555144",
"O	c #B6DA04100820",
"+	c #79E75D751861",
"@	c #F7DEBEFB30C2",
"#	c #000000000000",
"                                                ",
"                                                ",
"                                                ",
"                                                ",
"                                                ",
"                                                ",
"                                                ",
"                                                ",
"................................................",
".XXXXXXXXXXXXXXXXXXXXXXXXXXXXXXXXXXXXXXXXXXXXXXo",
".XXXXXXXXXXXXXXXXXXXXXXXXXXXXXXXXXXXXXXXXXXXXXXo",
".XXXXXXXXXXXXXXXXXXXXXXXXXXXXXXXXXXXXXXXXXXXXXXo",
".XXXXXXXXXXXXXXXXXXXXXXXXXXXXXXXXXXXXXXXXXXXXXXo",
".XXXXXXXXXXXXXXXXXXXXXXXXXXXXXXXXXXXXXXXXXXXXXXo",
".XXXXXXXXXXXXXXXXXXXXXXXXXXXXXXXXXXXXXXXXXXXXXXo",
".XXXXXXXXXXXXXXXXXXXXXXXXXXXXXXXXXXXXXXXXXXXXXXo",
"...............................................o",
"...............................................o",
"...............................................o",
".OOOOOOOOOOOOOOOOOOOOOOOOOOOOOOOOOOOOOOOOOOOOOOo",
".OOOOOOOOOOOOOOOOOOOOOOO++OOOOOOOOOOOOOOOOOOOOOo",
".OOOOOOOOOOOOOOOOOOOOOOO@@OOOOOOOOOOOOOOOOOOOOOo",
".OOOOOOOOOOOOOOOOOOOOOOO@@OOOOOOOOOOOOOOOOOOOOOo",
".OOOOOOOOOOOOOOOOOOO@@@@@@@@@@OOOOOOOOOOOOOOOOOo",
".OOOOOOOOOOOOOOOOOOOOO@@@@@@OOOOOOOOOOOOOOOOOOOo",
".OOOOOOOOOOOOOOOOOOOOOO@@@@OOOOOOOOOOOOOOOOOOOOo",
".OOOOOOOOOOOOOOOOOOOOO@@++@@OOOOOOOOOOOOOOOOOOOo",
".OOOOOOOOOOOOOOOOOOOOO@@OO@@OOOOOOOOOOOOOOOOOOOo",
".OOOOOOOOOOOOOOOOOOOOO@OOOO@OOOOOOOOOOOOOOOOOOOo",
".OOOOOOOOOOOOOOOOOOOOOOOOOOOOOOOOOOOOOOOOOOOOOOo",
"...............................................o",
"...............................................o",
"...............................................o",
".XXXXXXXXXXXXXXXXXXXXXXXXXXXXXXXXXXXXXXXXXXXXXXo",
".XXXXXXXXXXXXXXXXXXXXXXXXXXXXXXXXXXXXXXXXXXXXXXo",
".XXXXXXXXXXXXXXXXXXXXXXXXXXXXXXXXXXXXXXXXXXXXXXo",
".XXXXXXXXXXXXXXXXXXXXXXXXXXXXXXXXXXXXXXXXXXXXXXo",
".XXXXXXXXXXXXXXXXXXXXXXXXXXXXXXXXXXXXXXXXXXXXXXo",
".XXXXXXXXXXXXXXXXXXXXXXXXXXXXXXXXXXXXXXXXXXXXXXo",
".XXXXXXXXXXXXXXXXXXXXXXXXXXXXXXXXXXXXXXXXXXXXXXo",
".ooooooooooooooooooooooooooooooooooooooooooooooo",
"################################################",
"                                                ",
"                                                ",
"                                                ",
"                                                ",
"                                                ",
"                                                "};
