#define face_width 64
#define face_height 64
static unsigned char face_bits[] = {
   0x84, 0xa5, 0x46, 0x86, 0x82, 0x11, 0xb1, 0x80, 0x47, 0x89, 0x61, 0x0a,
   0x19, 0x21, 0x58, 0x47, 0xa2, 0x1b, 0x20, 0x00, 0xd0, 0x62, 0x28, 0xc1,
   0xa0, 0x6a, 0x05, 0x6c, 0xa0, 0x04, 0x39, 0x03, 0xee, 0x1e, 0x7f, 0x66,
   0x0d, 0xbd, 0x2c, 0x18, 0x96, 0xa0, 0x60, 0x05, 0xd4, 0xa8, 0xfc, 0x19,
   0xb3, 0x56, 0xc0, 0xfe, 0x4d, 0x00, 0x09, 0x53, 0x70, 0x4a, 0x80, 0x91,
   0xf2, 0x98, 0x5a, 0xae, 0x67, 0x2b, 0x80, 0x20, 0x80, 0xab, 0xb7, 0x11,
   0xc9, 0x2c, 0x00, 0x20, 0xd0, 0x48, 0x09, 0xaf, 0x26, 0x10, 0x00, 0xe0,
   0x56, 0xa4, 0x81, 0x02, 0x16, 0x10, 0x00, 0x00, 0xa5, 0x00, 0x8e, 0x28,
   0x14, 0x10, 0x00, 0x00, 0x36, 0xa5, 0x32, 0xa4, 0x0c, 0x00, 0x00, 0x00,
   0x1c, 0x01, 0xc0, 0x9a, 0x0d, 0x00, 0x00, 0x00, 0xb4, 0x87, 0xf8, 0x08,
   0x0b, 0x00, 0x00, 0x10, 0x64, 0xb8, 0x06, 0x6f, 0x05, 0x00, 0x00, 0x10,
   0x16, 0x60, 0x01, 0xac, 0x06, 0x00, 0x00, 0xe8, 0x0f, 0xc0, 0x00, 0x88,
   0x04, 0x02, 0x01, 0x28, 0x04, 0x80, 0x00, 0x08, 0x8c, 0x01, 0x01, 0xe4,
   0x04, 0x41, 0x00, 0x10, 0x39, 0x01, 0x01, 0x5a, 0x02, 0x01, 0x00, 0x10,
   0x48, 0x01, 0xc5, 0xe1, 0x03, 0x01, 0x00, 0x10, 0x02, 0x82, 0x5d, 0x19,
   0x82, 0x03, 0x00, 0xe0, 0x20, 0x46, 0x11, 0x04, 0x82, 0x03, 0x00, 0xa0,
   0x3c, 0x58, 0x03, 0x02, 0xc4, 0x07, 0x00, 0x60, 0x93, 0x40, 0xa1, 0x02,
   0xc0, 0x07, 0x00, 0x60, 0x2d, 0x23, 0xff, 0x01, 0xe0, 0x0f, 0x00, 0x60,
   0xe6, 0x4a, 0x02, 0x02, 0xe0, 0x0d, 0x00, 0x20, 0xf2, 0x48, 0x01, 0x04,
   0xe0, 0x0d, 0x00, 0x2c, 0x09, 0xa4, 0x00, 0x08, 0xe0, 0x0e, 0x00, 0x10,
   0x7e, 0x73, 0x00, 0x00, 0xc0, 0x07, 0x08, 0xa0, 0x48, 0x41, 0x00, 0x00,
   0x80, 0x03, 0x08, 0x20, 0xd1, 0x4f, 0x00, 0x00, 0x00, 0x00, 0x08, 0x40,
   0x33, 0xd0, 0x00, 0x02, 0x00, 0x00, 0x1c, 0x40, 0x0a, 0x00, 0x03, 0x02,
   0x00, 0x00, 0x1c, 0x40, 0x04, 0x00, 0x00, 0x02, 0x00, 0x00, 0x1e, 0xc0,
   0x04, 0x00, 0x00, 0x07, 0x00, 0x00, 0x3e, 0x40, 0x02, 0x00, 0x00, 0x07,
   0x00, 0x00, 0x3e, 0x40, 0x03, 0x00, 0x80, 0x07, 0x00, 0x00, 0x7b, 0x40,
   0x02, 0x00, 0xc0, 0x07, 0x40, 0x00, 0x7b, 0xc0, 0x01, 0x00, 0xc0, 0x07,
   0x40, 0x00, 0x77, 0x40, 0x01, 0x00, 0xe0, 0x0f, 0x40, 0x00, 0x3e, 0x40,
   0x01, 0x00, 0x60, 0x0f, 0xe0, 0x00, 0x1c, 0x40, 0x01, 0x00, 0x70, 0x1f,
   0xe0, 0x00, 0x00, 0x40, 0x02, 0x00, 0xb0, 0x1f, 0xf0, 0x00, 0x00, 0x21,
   0x02, 0x00, 0xb0, 0x1f, 0xf0, 0x01, 0x00, 0x21, 0x25, 0x00, 0x70, 0x1e,
   0xf0, 0x01, 0x00, 0xd1, 0x18, 0x00, 0xe0, 0x0f, 0x78, 0x03, 0x00, 0x2a,
   0x10, 0x00, 0xc0, 0x07, 0x78, 0x03, 0x00, 0x5a, 0x12, 0x00, 0x00, 0x00,
   0xb8, 0x03, 0x00, 0x4a, 0x10, 0x00, 0x02, 0x00, 0xf0, 0x01, 0x00, 0x12,
   0x32, 0x00, 0x02, 0x00, 0xe0, 0x40, 0x00, 0xa6, 0x1c, 0x00, 0x02, 0x00,
   0x00, 0x40, 0x00, 0x62, 0x56, 0x00, 0x02, 0x80, 0x00, 0x20, 0x00, 0x9a,
   0x92, 0x81, 0x05, 0x40, 0x01, 0x2c, 0x00, 0x01, 0x0b, 0xc6, 0x05, 0x70,
   0x8e, 0xc2, 0x00, 0xb9, 0xc0, 0x1e, 0x18, 0x28, 0x71, 0xc1, 0x80, 0x93,
   0x0a, 0xfd, 0xe4, 0x9f, 0xd4, 0x43, 0x5e, 0x04, 0x00, 0x04, 0x08, 0x86,
   0x42, 0x21, 0x2c, 0x9c, 0xe0, 0x88, 0x62, 0x4a, 0x3e, 0x82, 0xf1, 0x2f,
   0x16, 0xa8, 0xd0, 0x40, 0x8a, 0x89, 0xa0, 0x32, 0x83, 0x00, 0x16, 0x65,
   0x96, 0x8a, 0x60, 0x19, 0x88, 0xc4, 0x79, 0x02, 0xda, 0x6a, 0x48, 0x51,
   0x69, 0x81, 0x6f, 0xb1, 0xe2, 0x6c, 0xd0, 0x48 };
