/* XPM */
static char *todo16[] = {
/* width height num_colors chars_per_pixel */
"    16    16        3            1",
/* colors */
"  c None",
". c yellow",
"# c black",
/* pixels */
"                ",
"      ....      ",
"     ......     ",
"    ...##...    ",
"   ....##....   ",
"  .####.......  ",
" ..#.###..##... ",
" .###########.. ",
" ...##....##... ",
" ...###.....#.. ",
"  ..#.#..##...  ",
"   .#.#.####.   ",
"    ........    ",
"     ......     ",
"      ....      ",
"                ",
};
