#define face_width 64
#define face_height 64
static unsigned char face_bits[] = {
   0x00, 0x00, 0x00, 0x00, 0x00, 0x00, 0x00, 0x00, 0x00, 0x00, 0x00, 0x80,
   0xff, 0x00, 0x00, 0x00, 0x88, 0x88, 0x88, 0x3c, 0x00, 0x11, 0x11, 0x01,
   0x00, 0x00, 0x80, 0x01, 0x00, 0x02, 0x00, 0x10, 0x00, 0x00, 0x7d, 0x40,
   0x04, 0x02, 0x20, 0x02, 0x48, 0x12, 0x01, 0x04, 0x48, 0x4a, 0x02, 0x00,
   0x00, 0x40, 0x00, 0x02, 0x08, 0x02, 0x00, 0x24, 0x01, 0x00, 0x00, 0x90,
   0x08, 0x02, 0x44, 0x00, 0x88, 0x22, 0x00, 0x00, 0xf0, 0x21, 0x00, 0x00,
   0x00, 0x04, 0x00, 0x20, 0x01, 0x00, 0x08, 0x11, 0x10, 0x20, 0xf8, 0x1f,
   0x00, 0x41, 0x00, 0x00, 0x00, 0xc0, 0x03, 0x60, 0x11, 0x84, 0x20, 0x00,
   0x04, 0x38, 0x00, 0x80, 0x01, 0x00, 0x00, 0x09, 0x80, 0x07, 0x00, 0x00,
   0x46, 0x00, 0x04, 0x10, 0x08, 0x00, 0x00, 0x00, 0x04, 0x25, 0x50, 0x00,
   0x80, 0xff, 0x00, 0x70, 0x24, 0x00, 0x02, 0x02, 0x74, 0x00, 0x0e, 0x08,
   0x04, 0x20, 0x01, 0x10, 0x00, 0x00, 0x30, 0x84, 0x08, 0x00, 0x00, 0x00,
   0x00, 0x00, 0x40, 0x14, 0x08, 0x00, 0x00, 0x10, 0x00, 0x00, 0x00, 0x08,
   0x04, 0x00, 0x00, 0x00, 0x10, 0x01, 0x80, 0x88, 0x06, 0x00, 0x00, 0x20,
   0x01, 0x00, 0x82, 0xf1, 0x01, 0x00, 0x00, 0x00, 0x40, 0x00, 0x82, 0x08,
   0x00, 0x00, 0x10, 0x00, 0x04, 0x40, 0x92, 0x00, 0x00, 0x02, 0x00, 0x20,
   0x00, 0x01, 0xc4, 0x02, 0x80, 0x04, 0x28, 0x00, 0x10, 0x10, 0x38, 0x00,
   0xa0, 0x08, 0x00, 0x20, 0x00, 0x82, 0x48, 0x02, 0x00, 0x10, 0x28, 0x00,
   0x02, 0x00, 0x00, 0x00, 0x00, 0x00, 0x22, 0x20, 0x10, 0x08, 0x01, 0x00,
   0x00, 0x08, 0x40, 0x00, 0x80, 0x00, 0x00, 0x00, 0x00, 0x04, 0x0a, 0x00,
   0x00, 0x50, 0x00, 0x00, 0x00, 0x02, 0x20, 0x00, 0x12, 0x01, 0x00, 0x00,
   0x00, 0x01, 0x08, 0x20, 0x40, 0x04, 0x00, 0x00, 0x00, 0x02, 0x00, 0x00,
   0x00, 0x20, 0x00, 0x00, 0x00, 0x00, 0x00, 0x00, 0x08, 0x00, 0x00, 0x00,
   0x00, 0x00, 0x00, 0x00, 0x00, 0x00, 0x00, 0x00, 0x00, 0x01, 0x00, 0x00,
   0x04, 0x05, 0x00, 0x00, 0x00, 0x02, 0x00, 0x00, 0x40, 0x12, 0x40, 0x00,
   0x00, 0x00, 0x00, 0x40, 0x80, 0x0a, 0x90, 0x00, 0x08, 0x00, 0x00, 0x00,
   0x20, 0x27, 0x14, 0x01, 0x00, 0x00, 0x05, 0x00, 0xc0, 0x1f, 0x00, 0x02,
   0x14, 0x40, 0x12, 0x00, 0x20, 0x27, 0x00, 0x00, 0x01, 0x80, 0x0a, 0x00,
   0x80, 0x0a, 0x00, 0x01, 0x14, 0x20, 0x27, 0x00, 0x40, 0x12, 0x80, 0x80,
   0x02, 0xc0, 0x1f, 0x40, 0x00, 0x05, 0x40, 0x00, 0x28, 0x20, 0x27, 0x00,
   0x00, 0x00, 0x20, 0x80, 0x04, 0x80, 0x0a, 0x00, 0x00, 0x00, 0x40, 0x00,
   0x28, 0x40, 0x12, 0x00, 0x01, 0x00, 0x00, 0x40, 0x10, 0x00, 0x05, 0x10,
   0x10, 0x00, 0x00, 0x00, 0x21, 0x00, 0x00, 0x04, 0x00, 0x00, 0x20, 0x00,
   0x08, 0x00, 0x00, 0x00, 0x10, 0x00, 0x40, 0x00, 0x05, 0x00, 0x00, 0x10,
   0x01, 0x00, 0x00, 0x00, 0x00, 0x00, 0x00, 0x02, 0x20, 0x00, 0x00, 0x00,
   0x00, 0x00, 0x00, 0x00, 0x00, 0x00, 0x00, 0x00, 0x00, 0x00, 0x00, 0x22,
   0x04, 0x00, 0x00, 0x00, 0x00, 0x20, 0x00, 0x00, 0x40, 0x80, 0x00, 0x40,
   0x00, 0x02, 0x00, 0x04, 0x00, 0x08, 0x00, 0x00, 0x42, 0x00, 0x01, 0x00,
   0x88, 0x00, 0x04, 0x08, 0x08, 0x10, 0x82, 0x10, 0x00, 0x90, 0x20, 0x41,
   0x00, 0x01, 0x08, 0x00, 0x01, 0x01, 0x00, 0x00, 0x00, 0x02, 0x10, 0x02,
   0x08, 0x00, 0x02, 0x02, 0x11, 0x10, 0x00, 0x10, 0x10, 0x22, 0x20, 0x10,
   0x00, 0x80, 0x40, 0x00, 0x00, 0x00, 0x04, 0x00, 0x42, 0x00, 0x08, 0x22,
   0x40, 0x40, 0x00, 0x22, 0x00, 0x12, 0x00, 0x00 };
