/* XPM */
static char * image_name[] = {
"56 46 22 1",
"`	c None",
" 	c #FFFFFFFFFFFF",
".	c #BEFBBAEABEFB",
"X	c #AEBAA699AEBA",
"o	c #000000001040",
"O	c #9E799A699E79",
"+	c #BEFBB6DABEFB",
"@	c #C71BBAEAC71B",
"#	c #000000000000",
"$	c #FFFFFBEEFFFF",
"%	c #AEBAAAAAAEBA",
"&	c #79E786179E79",
"*	c #000000001861",
"=	c #69A68617BEFB",
"-	c #A6999E79A699",
";	c #FFFF14514103",
":	c #FFFFFFFF0000",
">	c #FFFFF3CEFFFF",
",	c #A69979E78E38",
"<	c #96589658AEBA",
"1	c #FFFF0C304924",
"2	c #965896589658",
"                                                       .",
" ...X...X...X...X...X...X...X...X...X...X...X...X...X..o",
" X.....................................................o",
" ......................................................o",
" X...O...O+..O...O+..O...O+..O...O+..O...O+..O...O+..O.o",
" ...+.+.+..@+.+.+..@+.+.+..@+.+.+..@+.+.+..@+.+.+...+..o",
" O.X.X@X.X.X.X.X.X.X.X.X.X.X.X.X.X.X.X.X.X.X.X.X@X.X.X.o",
" .....XX...X..XX...X..XX...X..XX...X..XX...X..X.X.....Xo",
" X.X+X.X.X+X.X.X+X.X.X.X+X.#.X.X+X.X.X.X+X.X.X.X.X+O+X.o",
" ..+O...X...X+.@X..+X.+@X.#.#.+@X..+X.+@X..+XX.+X..@X..o",
" O.X@X+X.XXX.X.$.X$X.X.X.#...#.X.XXX.X.X.X.X.X.X.X.X.X.o",
" .X.+.X.X+X...X      $X.Xo...#X.X.X..XX.XXX.@+X.X+X...Xo",
" X.X.XXX.X.X+X        .X#.....oX.X.X+X.X.X.X+X.XXX.X+X.o",
" .X.X.X.X.X.X.X      .X.#..$..#.X+X.X.X.X+X.X.X.X.X.X.Xo",
" X.X.X.X+X@X.X.X.X.X.X.#.......#.X.$$ .X.X.XXX.X.X.X.O.o",
" XXXXXX.XXX.XXX.XXX.XXXo.......#XX    $$XXX.XXX+XXX.XXXo",
" X.X.X.X.XXX.X.X.X.  X.#.$.+$..o.X       X.X.X.X.XXX+X.o",
" XXXXXXXXXXXXXX  XX  XX#.......#X       XXXXXXXXXXXXXXXo",
" X.X.X+X.X.X.X.      X.#......$#.  %.X.X.X.X.X.X.X.X.X.o",
" XXXXXXXXXXXXX       X.o...$...#XXXXXXXXXXXXXXXXXXXXXXXo",
" XXX.XXX.XXX.X   %XX.XX#.$...+.#.XXX.XXX.XXX.XXX.XXX.XXo",
" XXXXXXXXXXXXXXXXXXXXXX#...+...#XXXXXXXXXXXXXXXXXXXXXXXo",
" OXXXXXXXXXXXXXXXXXXXX##...#X..o#XXXXXXXXXXXXXXXXXXXXXXo",
" XXXXXXXXXXXXXXXXXXXXX##...#&..##XXXXXXXXXXXXXXXXXXXXXXo",
" OXXXOXXXOXXXOXXXOXXX#&#.$.#&+ #&#XXXOXXXOXXXOXXXOXXXOXo",
" XXXXXXXXXXXXXXXXXXXX#&#...#&..#&#XXXXXXXXXXXXXXXXXXXXXo",
" XXOXOXOXXXOXOXOXXXO#&&#...#&..#&&#OXOXOXXXOXOXOXXXOXOXo",
" XXXXXXXXXXXXXXXXXXX#&&#.$.*&+.#&&#XXXXXXXXXXXXXXXXXXXXo",
" OXOXOXOXOXOXOXOXOX#&&&#...#&. #&&&#XOXOXOXOXOXOXOXOXOXo",
" XXXXXXXXXXXXXXXXXX#&=&#...#&..#=&&#XXXXXXXXXXXXXXXXXXXo",
" OXOXOXOXOXOXOXOXOX#&&&#.$.#&..#&&&#XOXOXOXOXO-OXOXOXOXo",
"$XOXX-OXX-OXXXOXXXO#####.....+.#####XXOXXXO-XXOXX-OXXXOo",
" OXOXOXOXOXO-O-OXOXOXXX#####*#o#.OXOXOXO-OXOXOXOXOXOXOXo",
"$XOXOXOXOXOXOXOXOXOXOXOXX##.##XXOXOXO-OXOXOXOXOXOXOXOXOo",
" OXOXOXOXOXOXOXOXO-OXOXOX;:O:;XOXOXOXOXOXOXOXOXOXOXO-OXo",
">OO-OOOX,OO-OOOXOOOXOOOX;:;:;:;XOOO-OOOXOOOX<,OX<,OXOOOo",
" OXOX,X<X<X--O-OXOXO-OXOX;:;:;:OXOX<XOXO----XOXOXOXOXOXo",
">OOOO<OOOOO,OOO-<,OOOOOO;:;:O:1:OOOOO<,OO<,OOOOOOOOOOOOo",
" OXOX-XOX-X<XO-OXOXOXOX1:O:;X;:O-OXO--X<XOXOXO-------OXo",
">OOO<,OOO2OO<,OOOOO<,OO2OOOOOOOOO<,OOOOOOOO<,-<,OO<,OOOo",
" OOOXOO,XOOOX-O,XOOOX<OOXOOO-OOOXO-O--,OXOOOXOOOXO-OXOOo",
"$<,OOOO<O<,OOOO-<,OOOO<,OO2OOOOO2-2O-OO<O,OOOOOOOO2OOOOo",
" OOOOOOOOOX<OOOOO<XOOOOOO,XOO,<O,<XO,OOO-OXO,<OO,<XO,<Oo",
"$OO<,O<,OOOOO<,OOOOO<,OOO<OO<O-OOOOO<OOO2OOO<OOOOO-O<OOo",
" OOOOOOO<O,-2OO<OO,OOO<OO-O,OO2OOO,OOO,<OO,<OO,<OO,OOOOo",
".oooo*oooo*ooooooo**ooooooo**o*oo***o**oo**ooo*ooo**oooo"};
