/* XPM */
static char * image_name[] = {
"51 51 202 2",
"  	c None",
". 	c #861761856185",
"X 	c #410330C230C2",
"o 	c #CF3C410330C2",
"O 	c #DF7D30C230C2",
"+ 	c #965851444103",
"@ 	c #71C630C230C2",
"# 	c #71C671C66185",
"$ 	c #DF7DCF3CAEBA",
"% 	c #DF7DCF3C9E79",
"& 	c #30C230C230C2",
"* 	c #965841034103",
"= 	c #CF3C30C22081",
"- 	c #000000000000",
"; 	c #DF7DBEFBAEBA",
": 	c #AEBAA2898617",
"> 	c #BEFB92488617",
", 	c #410330C24103",
"< 	c #CF3C61856185",
"1 	c #EFBEDF7DEFBE",
"2 	c #410341034103",
"3 	c #104020812081",
"4 	c #71C671C65144",
"5 	c #DF7DAEBAAEBA",
"6 	c #BEFBA2899658",
"7 	c #AEBA92488617",
"8 	c #4103410330C2",
"9 	c #965800000000",
"0 	c #9E7941034103",
"q 	c #CF3C61855144",
"w 	c #BEFB61855144",
"e 	c #CF3C51446185",
"r 	c #DF7D92488617",
"t 	c #EFBECF3CEFBE",
"y 	c #4103618530C2",
"u 	c #30C2104030C2",
"i 	c #CF3CCF3C9E79",
"p 	c #9E7982076185",
"a 	c #9E7971C671C6",
"s 	c #965882076185",
"d 	c #AEBA820771C6",
"f 	c #AEBA924871C6",
"g 	c #BEFBA2898617",
"h 	c #30C220812081",
"j 	c #DF7D51445144",
"k 	c #EFBEDF7DDF7D",
"l 	c #410330C25144",
"z 	c #30C2514430C2",
"x 	c #8617618571C6",
"c 	c #9E79820771C6",
"v 	c #965861856185",
"b 	c #9E79924871C6",
"n 	c #514441034103",
"m 	c #861700000000",
"M 	c #9E79A2899E79",
"N 	c #CF3CDF7DBEFB",
"B 	c #618541036185",
"V 	c #514451444103",
"C 	c #618551446185",
"Z 	c #71C6820771C6",
"A 	c #9658A2899658",
"S 	c #CF3CBEFBCF3C",
"D 	c #DF7DDF7DDF7D",
"F 	c #EFBEBEFBEFBE",
"G 	c #DF7DBEFBDF7D",
"H 	c #BEFBBEFBCF3C",
"J 	c #BEFBAEBABEFB",
"K 	c #8617820771C6",
"L 	c #861771C671C6",
"P 	c #30C230C22081",
"I 	c #208110402081",
"U 	c #104010401040",
"Y 	c #104000001040",
"T 	c #DF7DDF7DBEFB",
"R 	c #861771C68617",
"E 	c #514461854103",
"W 	c #71C682076185",
"Q 	c #514461855144",
"! 	c #965871C69658",
"~ 	c #AEBAA289AEBA",
"^ 	c #DF7DCF3CDF7D",
"/ 	c #861710400000",
"( 	c #BEFBBEFBBEFB",
") 	c #965892489658",
"_ 	c #861782079658",
"` 	c #965882078617",
"' 	c #861792488617",
"] 	c #965882079658",
"[ 	c #71C692488617",
"{ 	c #6185618571C6",
"} 	c #AEBAA2899E79",
"| 	c #BEFBCF3CBEFB",
" .	c #CF3CCF3CCF3C",
"..	c #618561855144",
"X.	c #CF3CBEFBBEFB",
"o.	c #BEFBBEFBAEBA",
"O.	c #BEFBA289AEBA",
"+.	c #AEBAAEBAAEBA",
"@.	c #71C671C671C6",
"#.	c #30C2208130C2",
"$.	c #104010400000",
"%.	c #30C2410330C2",
"&.	c #861782078617",
"*.	c #71C6924871C6",
"=.	c #9E79AEBA9E79",
"-.	c #AEBABEFB9E79",
";.	c #71C661856185",
":.	c #AEBAAEBABEFB",
">.	c #9E79AEBAAEBA",
",.	c #9E79A289AEBA",
"<.	c #861792489658",
"1.	c #000010401040",
"2.	c #71C6618571C6",
"3.	c #618571C66185",
"4.	c #71C671C68617",
"5.	c #410341035144",
"6.	c #AEBAAEBA9E79",
"7.	c #9E7992489E79",
"8.	c #BEFB92489658",
"9.	c #410351444103",
"0.	c #618571C65144",
"q.	c #618561856185",
"w.	c #9658A2899E79",
"e.	c #208120812081",
"r.	c #30C230C24103",
"t.	c #861771C69658",
"y.	c #9E79A2899658",
"u.	c #965800001040",
"i.	c #9E7992489658",
"p.	c #965892488617",
"a.	c #618551445144",
"s.	c #618551444103",
"d.	c #30C200000000",
"f.	c #514441035144",
"g.	c #861761855144",
"h.	c #861751446185",
"j.	c #208130C21040",
"k.	c #410300000000",
"l.	c #71C661855144",
"z.	c #71C651445144",
"x.	c #514451445144",
"c.	c #4103514430C2",
"v.	c #30C210400000",
"b.	c #DF7DCF3CBEFB",
"n.	c #965871C66185",
"m.	c #9E7971C66185",
"M.	c #861751445144",
"N.	c #71C661854103",
"B.	c #71C641034103",
"V.	c #208120811040",
"C.	c #DF7DCF3CCF3C",
"Z.	c #5144410330C2",
"A.	c #861771C66185",
"S.	c #71C651444103",
"D.	c #514430C24103",
"F.	c #104000000000",
"G.	c #618530C24103",
"H.	c #BEFB924871C6",
"J.	c #208100000000",
"K.	c #618541034103",
"L.	c #618541035144",
"P.	c #30C241034103",
"I.	c #618530C230C2",
"U.	c #6185410330C2",
"Y.	c #410351445144",
"T.	c #514430C230C2",
"R.	c #208110401040",
"E.	c #514430C22081",
"W.	c #514430C25144",
"Q.	c #514451446185",
"!.	c #965871C671C6",
"~.	c #5144208130C2",
"^.	c #9658820771C6",
"/.	c #BEFBAEBA9658",
"(.	c #30C220811040",
").	c #9E7982078617",
"_.	c #CF3CA2899658",
"`.	c #AEBAA28971C6",
"'.	c #410330C22081",
"].	c #9E79A2898617",
"[.	c #208130C22081",
"{.	c #410320812081",
"}.	c #AEBA92489658",
"|.	c #000010400000",
" X	c #30C210402081",
".X	c #AEBAAEBA9658",
"XX	c #861771C64103",
"oX	c #104020811040",
"OX	c #BEFBA2899E79",
"+X	c #6185514430C2",
"@X	c #861761854103",
"#X	c #BEFBBEFB9E79",
"$X	c #9E7992486185",
"%X	c #CF3CAEBAAEBA",
"&X	c #AEBA82076185",
"*X	c #CF3CBEFBAEBA",
"=X	c #4103208130C2",
"-X	c #CF3CCF3CAEBA",
";X	c #208100001040",
":X	c #514441032081",
">X	c #71C6410330C2",
",X	c #8617514430C2",
"                                                                                                      ",
"                                                                                                      ",
"                                                                                                      ",
"                                                                                                      ",
"                                                                . X o O + O @                         ",
"                                                            # $ % & O O * * @ = O =                   ",
"                                                -       . % ; : > , + * * * @ * o <                   ",
"                                    1 2 3 - - - - - 4 5 % 6 : 7 : 8 9 @ 0 q @ w e r                   ",
"                                    t y u - - - . i ; : 6 p a s d 8 9 f g h @ < < j                   ",
"                                  - k l z x # ; i 6 : c s v s c b n m 6 : h M r                       ",
"                            - - - N B V C Z , V C A S D F D G H J 2 9 K L P I U Y -                   ",
"                          - - - T R E n # L W L Q ! M ~ ^ t D t 1 2 / 1 1 G ( ~ ) _ & U               ",
"                        - - - - ` 2 ) ' ] [ ] ' ] Z { A } D ( |  ...9 | S ( X.o.O.+.] @.#.$.          ",
"                        - - # R %.L K R W L @.R Z x &.K *.~ =.M -.;.m ( | ( +.:.>.+.=.,.<.#.1.        ",
"                      - x i 2.<.] ' @.# @.3.@.# 4.@.R @.5.A } M +...9 6.+.=.~ =.~ =.} M 7._ C         ",
"                    4 5 % 8.9.R K L # ;.0.;.0.;.# 2.@.2.K C M M A q./ M =.M =.M M M w.M A 7.q.e.      ",
"                . % ; : 6 K r.Z # 3.q.3.q...q.3.;.3.@.3.K %.t.y.] ..u.y.7.A 7.A i.) ) p.` &.R q.      ",
"            # $ % 6 : c s a.K # 0.;...q...a...q...;.q.q.3.L 3.M &.s.d.7.A 7.) ) ) ) ' ] &.R 3.f.      ",
"        . % ; : > p a g.h.9.# q.q.....Q C Q a.Q q...;.q.C Z a.y.R j.k.p.i.p.` &.` K L @.2.q.C V       ",
"      ; % 7 b c s . l.z.s.f...;...a.E a.Q a.E a...C ..C x.L c.` q.e.v.@.# @.# @.# @.# 2.q.C x.x.      ",
"    . T b.n.m.n.M.N.B.N.B.c.q.....Q x.Q a.E x.Q a.Q C Q x.# , V a.V.k...;.# ;.# ;.# ;...a.x.n 8       ",
"  C.T - Z.C.A.S.s.z.s.z.s.D.a.a.E a.V a.V a.E a.E a.E x.9.R 3.f.9.I F.a.Q q...q.q.;...C x.f.2 ,       ",
"  4 G.- - n.H.s.B.s.B.s.B.z Q x.x.x.x.E x.Q a.E x.x.x.9.f.q.f.n f.V.J.V a.x.a...C ..a.x.f.2 , 8       ",
"  T Z.- - G.T K.s.B.s.B.s.D.V V V n V L.V f.V L.V f.V n c.C x.f.2 2 F.x.V x.Q C Q C Q x.9.2 P.2       ",
"  T I.$.K.U.b.Z.K.U.B.U.B.%.9.V V 9.f.9.x.9.f.9.x.9.f.9.2 Y.n n , 2 , ..n V f.V L.V f.2 n 8 , 8       ",
"  C.Z.U z.K.T G.Z.K.K.K.s., n n n n 2 2 2 f.9.n 2 n 8 , %.f.2 x.n 2 P.2 9.2 2 f.9.f.9.2 2 2 %.,       ",
"  T G.$.M.T.b.Z.G.U.K.U.B.%.9.2 2 9.2 P.2 2 n 2 2 c.2 8 , 2 , 2 , %., 8 2 8 n 2 n 2 n 8 , %., 8       ",
"  T Z.R.l.T.T D.Z.K.Z.G.s.r.n , 2 2 8 n 2 2 2 , 2 , %.D.%.2 P.f.n r.P.2 P.2 2 2 9.2 2 2 %.r.%.2       ",
"  T I.R.. E.b.T.T.Z.I.U.K.8 2 2 2 2 2 2 2 2 , 2 f.9.f.2 n 8 , n n %., 8 , 8 2 8 n 2 2 8 X 8 , 8       ",
"  C.Z.I A.T.T T.X T.Z.K.Z., K.n n D.n , 2 D.2 X 2 W.2 , 2 , %.Q.n 2 P.2 2 2 P.2 2 2 2 , %., %.,       ",
"  T G.V.!.T.b.X ~.T.T.Z.I.8 9.5.2 2 2 2 r.2 P., D.2 n 8 , %., n , 2 2 2 , 8 , 8 2 8 , 8 X %.2 2       ",
"  T Z.I ^.T./.S.Z.T.8 T.Z.2 n , n , , X , & r.X 2 , 2 , %.r.%.C P.2 9.2 %.2 P.2 2 2 %.2 %.5.          ",
"  T I.(.).E._.g.T.Z.T.T.T.2 9.2 2 2 r.r.%.X 2 , n 2 2 8 X 8 , n n 2 n 8 , 8 , 8 , 8 , 9.              ",
"  C.Z.h p.T.n.7 Z.T.8 T.Z., n , 2 X X X , X , & 2 , 2 , %., %.n 2 2 9.2 P.2 P.2 P.f.                  ",
"  T G.h 7 T.B.`.~.T.T.'.T.%.2 2 2 , %., P.%.r.8 2 8 , 8 X %.2 n 2 2 n 2 X %.#.e.-                     ",
"  T Z.h ].T.Z.7 s.T.'.h h e.%.r.%.r.P., P.2 P.l P.5.Y.f.Y.Q.9.x.%., 9., [.I e.e.                      ",
"  T I.{.}.E.I.g.> h {.Z.T.e.I e.I e.e.e.e.[.#.P #.& , 2 , 2 , & f.X |.U R.V. XV.                      ",
"  C.Z.h .XT.Z.G.h T.8 T.Z.B.S.S.S.z.N.M.N.M.`.h XXv Z.- 3 |.oXU |.e.U Y V.I V.e.                      ",
"  T G.(.OXT.T.'.~.T.T.+XB.S.B.S.B.S.M.N.M.@Xd h I.- - - e.[.#.|.U |.Y $.I V.h h                       ",
"  T Z. X#XG.Z.T.8 K.s.K.s.B.s.S.S.z.N.M.N.g.$X- - - - - & I oXY |.Y |.Y V.h [.h                       ",
"  T I.V.%XU.K.U.K.U.B.U.B.+XB.S.S.S.B.@X{.- &X- - - - - h $.Y |.Y $.Y |.h h #.P                       ",
"  C.Z.I o.K.Z.K.Z.K.K.K.s.B.S.S.s.z.h - - M.- - - - - - |.Y |.Y U U 1.Y e.#.P #.                      ",
"  T G.R.*XT.I.Z.G.U.B.+XB.S.B.S.{.- - - - - - - - - - - Y $.Y U Y $.Y U #.P =XP                       ",
"  T Z.U -XT.Z.K.U.K.s.B.+XS.h - - - - - - - - - - -     U U U U U U U I P X 8 X                       ",
"  T I.$.b.Z.I.U.B.+XK.S.{.- - - - - - - - - - -         ;XU R.U R.U R.V.~.E.T.:X                      ",
"  C.Z.Y T K.K.K.Z.B.h - - - - - - - - - - -             U R.U U U I U I 8 Z.+XU.                      ",
"  T G.|.b.U.B.+X{.- - - - - - - - - - -                 , V.R.U I U R.h T.+X>X,X                      ",
"  T - - T K.h - - - - - - - - - - -                     9.#.e.e.e.e.e.& Z.K.N.@X                      ",
"  - T.T.- - - - - - - - - - - -                         f.& #.P =X& X 8 S.N.l.4                       ",
"                                                                                                      ",
"                                                                                                      "};
