#define sat_width 64
#define sat_height 64
static char sat_bits[] = {
   0x00, 0x00, 0x00, 0x00, 0x00, 0x00, 0x00, 0x00, 0x00, 0x0c, 0x06, 0x00,
   0x03, 0x00, 0x00, 0x00, 0x00, 0x08, 0x03, 0x00, 0x02, 0x00, 0x00, 0x00,
   0x00, 0x94, 0x72, 0x8d, 0xb1, 0x05, 0x00, 0x00, 0x00, 0x54, 0x52, 0x4a,
   0x29, 0x05, 0x00, 0x00, 0x00, 0x52, 0x49, 0x2a, 0x25, 0x05, 0x00, 0x00,
   0x00, 0x32, 0x29, 0xa5, 0x14, 0x03, 0x00, 0x00, 0x00, 0x97, 0x3b, 0x4d,
   0x2d, 0x02, 0x00, 0x00, 0x00, 0x00, 0x00, 0x00, 0x00, 0x01, 0x00, 0x00,
   0x00, 0x00, 0x00, 0x00, 0x00, 0x01, 0x00, 0x00, 0x00, 0x7e, 0x00, 0x80,
   0xc1, 0x00, 0x00, 0x00, 0x00, 0x29, 0x00, 0x00, 0x01, 0x00, 0x00, 0x00,
   0x00, 0xc4, 0x62, 0xc6, 0xd8, 0x02, 0x00, 0x00, 0x00, 0x84, 0x52, 0xa1,
   0x94, 0x02, 0x00, 0x00, 0x00, 0x42, 0x39, 0x92, 0x92, 0x02, 0x00, 0x00,
   0x00, 0x42, 0x49, 0x54, 0x8a, 0x01, 0x00, 0x00, 0x00, 0xc7, 0x3a, 0xa3,
   0x16, 0x01, 0x00, 0x00, 0x00, 0x00, 0x00, 0x00, 0x80, 0x00, 0x00, 0x00,
   0x00, 0x00, 0x00, 0x00, 0x80, 0x00, 0x00, 0x00, 0x00, 0xb7, 0x03, 0x06,
   0x60, 0x30, 0x00, 0x00, 0x00, 0x12, 0x01, 0x04, 0x00, 0x20, 0x00, 0x00,
   0x00, 0x92, 0x18, 0x6b, 0xcc, 0x18, 0x5b, 0x00, 0x00, 0x92, 0x94, 0x52,
   0x2a, 0x94, 0x52, 0x00, 0x00, 0x5a, 0x4e, 0x52, 0x47, 0x52, 0x52, 0x00,
   0x00, 0x36, 0x52, 0x29, 0x89, 0x4a, 0x31, 0x00, 0x00, 0x12, 0x8e, 0x6a,
   0x67, 0xd4, 0x22, 0x00, 0x00, 0x00, 0x00, 0x00, 0x00, 0x00, 0x10, 0x00,
   0x00, 0x00, 0x00, 0x00, 0x00, 0x00, 0x10, 0x00, 0x00, 0xfe, 0x01, 0x00,
   0x18, 0x00, 0x0c, 0x00, 0x00, 0x29, 0x01, 0x00, 0x10, 0x00, 0x00, 0x00,
   0x00, 0x04, 0x5b, 0x6a, 0x8c, 0x2d, 0x00, 0x00, 0x00, 0x84, 0x52, 0x16,
   0x4a, 0x29, 0x00, 0x00, 0x00, 0x82, 0x2a, 0x22, 0x29, 0x29, 0x00, 0x00,
   0x00, 0x42, 0x29, 0x41, 0xa5, 0x18, 0x00, 0x00, 0x00, 0x47, 0x5b, 0x31,
   0x6a, 0x11, 0x00, 0x00, 0x00, 0x00, 0x00, 0x00, 0x00, 0x08, 0x00, 0x00,
   0x00, 0x00, 0x00, 0x00, 0x00, 0x08, 0x00, 0x00, 0x00, 0x7c, 0x20, 0x06,
   0x00, 0x06, 0x00, 0x00, 0x00, 0x48, 0x00, 0x04, 0x00, 0x00, 0x00, 0x00,
   0x00, 0x04, 0x1d, 0x63, 0x0b, 0x00, 0x00, 0x00, 0x00, 0x1c, 0x93, 0x52,
   0x0a, 0x00, 0x00, 0x00, 0x00, 0x02, 0x51, 0x4a, 0x0a, 0x00, 0x00, 0x00,
   0x00, 0x82, 0x48, 0x29, 0x06, 0x00, 0x00, 0x00, 0x00, 0x87, 0x98, 0x5a,
   0x04, 0x00, 0x00, 0x00, 0x00, 0x00, 0x00, 0x00, 0x02, 0x00, 0x00, 0x00,
   0x80, 0xff, 0xff, 0xff, 0xfd, 0xff, 0xff, 0x00, 0x80, 0x6b, 0xfc, 0x7f,
   0x3e, 0xff, 0xaf, 0x00, 0x80, 0xab, 0xfd, 0xfd, 0x7f, 0xff, 0xaf, 0x00,
   0x80, 0xb5, 0x4f, 0xd0, 0x9a, 0x93, 0xd6, 0x00, 0x80, 0x75, 0xd7, 0xd6,
   0xac, 0xb5, 0xd6, 0x00, 0x80, 0xfa, 0x5a, 0xeb, 0xb6, 0xb6, 0xea, 0x00,
   0x80, 0xda, 0x6a, 0x6b, 0xd7, 0x3a, 0xeb, 0x00, 0x80, 0x1a, 0x53, 0x52,
   0xaf, 0x74, 0xeb, 0x00, 0x80, 0xff, 0xff, 0xff, 0xff, 0xbf, 0xff, 0x00,
   0x00, 0x00, 0x00, 0x00, 0x00, 0x40, 0x00, 0x00, 0x00, 0x94, 0x03, 0x80,
   0x01, 0x30, 0x50, 0x00, 0x00, 0x54, 0x02, 0x00, 0x01, 0x00, 0x50, 0x00,
   0x00, 0x4a, 0xac, 0xc6, 0xd8, 0x02, 0x28, 0x00, 0x00, 0x8a, 0x28, 0xa5,
   0x94, 0x02, 0x28, 0x00, 0x00, 0x05, 0x15, 0x95, 0x92, 0x02, 0x14, 0x00,
   0x00, 0x25, 0x95, 0x52, 0x8a, 0x01, 0x14, 0x00, 0x00, 0xe5, 0xac, 0xa6,
   0x16, 0x01, 0x14, 0x00, 0x00, 0x00, 0x00, 0x00, 0x80, 0x00, 0x00, 0x00,
   0x00, 0x00, 0x00, 0x00, 0x80, 0x00, 0x00, 0x00};
