/* XPM */
static char * amusement_xpm[] = {
"48 48 756 2",
"  	c None",
". 	c #2D2610",
"+ 	c #49401B",
"@ 	c #625626",
"# 	c #241E0C",
"$ 	c #7E7131",
"% 	c #B1A24A",
"& 	c #A89642",
"* 	c #635726",
"= 	c #080703",
"- 	c #403717",
"; 	c #C0AE4E",
"> 	c #D4CA61",
", 	c #C8B855",
"' 	c #A7933F",
") 	c #5A4C1F",
"! 	c #887632",
"~ 	c #806F2F",
"{ 	c #584F23",
"] 	c #372D11",
"^ 	c #5E5426",
"/ 	c #B8AD51",
"( 	c #C5B352",
"_ 	c #BCA94B",
": 	c #A18A3A",
"< 	c #524920",
"[ 	c #5F5425",
"} 	c #927D35",
"| 	c #AA9843",
"1 	c #C0B050",
"2 	c #8E843E",
"3 	c #51461E",
"4 	c #1C160A",
"5 	c #4E4820",
"6 	c #8B7B36",
"7 	c #B6A247",
"8 	c #B69E44",
"9 	c #9D8D3F",
"0 	c #5D5223",
"a 	c #473B17",
"b 	c #897732",
"c 	c #A8913D",
"d 	c #B49C43",
"e 	c #C2B350",
"f 	c #C2B453",
"g 	c #9C8E40",
"h 	c #3C3315",
"i 	c #19170A",
"j 	c #413919",
"k 	c #74652A",
"l 	c #AA9541",
"m 	c #B19A42",
"n 	c #A18939",
"o 	c #695B26",
"p 	c #23200F",
"q 	c #615A29",
"r 	c #A19848",
"s 	c #827A3B",
"t 	c #594C20",
"u 	c #988236",
"v 	c #B09A42",
"w 	c #B8A348",
"x 	c #B7A246",
"y 	c #A89B47",
"z 	c #786F33",
"A 	c #685B27",
"B 	c #463A17",
"C 	c #615325",
"D 	c #968036",
"E 	c #AF913A",
"F 	c #9E8839",
"G 	c #8A7A34",
"H 	c #51441C",
"I 	c #1B170A",
"J 	c #28220E",
"K 	c #887B36",
"L 	c #CEC15B",
"M 	c #ABA24D",
"N 	c #67612D",
"O 	c #373014",
"P 	c #3E3414",
"Q 	c #3A3215",
"R 	c #574C22",
"S 	c #554A20",
"T 	c #7C6C2F",
"U 	c #A08D3D",
"V 	c #B59E44",
"W 	c #A7923F",
"X 	c #8A7D38",
"Y 	c #837432",
"Z 	c #7D6729",
"` 	c #9D8336",
" .	c #A58E3C",
"..	c #927B32",
"+.	c #3C3314",
"@.	c #4E441D",
"#.	c #99873A",
"$.	c #CBBC56",
"%.	c #C0B556",
"&.	c #786E33",
"*.	c #4C421C",
"=.	c #5E5021",
"-.	c #665825",
";.	c #7D6B2D",
">.	c #998538",
",.	c #9E8A3B",
"'.	c #7D6E30",
").	c #6E6028",
"!.	c #4A401A",
"~.	c #0E0904",
"{.	c #231D0C",
"].	c #352E13",
"^.	c #1C1A0C",
"/.	c #7D682A",
"(.	c #8F7B33",
"_.	c #8E7931",
":.	c #483E19",
"<.	c #746329",
"[.	c #BFAC4C",
"}.	c #BEAF50",
"|.	c #817434",
"1.	c #5F5121",
"2.	c #7D6A2C",
"3.	c #887530",
"4.	c #806D2E",
"5.	c #7A692D",
"6.	c #635524",
"7.	c #473E1B",
"8.	c #3C3113",
"9.	c #403515",
"0.	c #53441B",
"a.	c #645624",
"b.	c #5B5022",
"c.	c #72662C",
"d.	c #312911",
"e.	c #0C0B05",
"f.	c #131006",
"g.	c #241F0D",
"h.	c #473E1A",
"i.	c #594D20",
"j.	c #685A25",
"k.	c #77662A",
"l.	c #3A3214",
"m.	c #6E5D26",
"n.	c #A08B3A",
"o.	c #AA9640",
"p.	c #988639",
"q.	c #5B4F22",
"r.	c #3F3415",
"s.	c #5D4D1F",
"t.	c #685A26",
"u.	c #615424",
"v.	c #554920",
"w.	c #433816",
"x.	c #685824",
"y.	c #8F7830",
"z.	c #9D883A",
"A.	c #9F8A3B",
"B.	c #8F7E37",
"C.	c #6E612A",
"D.	c #5A5024",
"E.	c #5F5525",
"F.	c #5E5324",
"G.	c #6E642E",
"H.	c #807333",
"I.	c #726128",
"J.	c #6F5E25",
"K.	c #2F270F",
"L.	c #463B18",
"M.	c #615423",
"N.	c #635624",
"O.	c #574B1F",
"P.	c #3E3618",
"Q.	c #4D421C",
"R.	c #73642B",
"S.	c #5E5223",
"T.	c #493F1C",
"U.	c #1A1609",
"V.	c #151409",
"W.	c #483D19",
"X.	c #8C7630",
"Y.	c #A38C3A",
"Z.	c #B49F45",
"`.	c #B09B44",
" +	c #AD9842",
".+	c #A89440",
"++	c #AB9641",
"@+	c #A08C3C",
"#+	c #9E8A3C",
"$+	c #907F36",
"%+	c #847331",
"&+	c #6A5D36",
"*+	c #49412D",
"=+	c #252011",
"-+	c #2C240E",
";+	c #261E0C",
">+	c #2B2510",
",+	c #372F15",
"'+	c #665725",
")+	c #9E893A",
"!+	c #A49240",
"~+	c #8E7E37",
"{+	c #77682D",
"]+	c #5F5223",
"^+	c #615524",
"/+	c #836F2E",
"(+	c #372C12",
"_+	c #27210E",
":+	c #32250C",
"<+	c #1E190A",
"[+	c #433917",
"}+	c #635322",
"|+	c #968439",
"1+	c #948137",
"2+	c #937D32",
"3+	c #937E32",
"4+	c #796B38",
"5+	c #5C5134",
"6+	c #47432F",
"7+	c #43423C",
"8+	c #48506E",
"9+	c #404D80",
"0+	c #1E202A",
"a+	c #161207",
"b+	c #0D0903",
"c+	c #0A0904",
"d+	c #141509",
"e+	c #252D16",
"f+	c #4B4F25",
"g+	c #7B6E31",
"h+	c #938138",
"i+	c #A08F3F",
"j+	c #AC9B45",
"k+	c #AF9D46",
"l+	c #AC9944",
"m+	c #9B873A",
"n+	c #71632A",
"o+	c #4B401A",
"p+	c #5A4E21",
"q+	c #362D13",
"r+	c #040402",
"s+	c #645625",
"t+	c #41381D",
"u+	c #403B33",
"v+	c #39405D",
"w+	c #2D3C78",
"x+	c #2B3F7A",
"y+	c #31448A",
"z+	c #465EB6",
"A+	c #4960B0",
"B+	c #1D2134",
"C+	c #1E100E",
"D+	c #261412",
"E+	c #251412",
"F+	c #282214",
"G+	c #2F4825",
"H+	c #436E3D",
"I+	c #576F3F",
"J+	c #57572C",
"K+	c #5E5425",
"L+	c #7C7032",
"M+	c #9C8D3F",
"N+	c #AD9B45",
"O+	c #B8A548",
"P+	c #B6A54A",
"Q+	c #AB9944",
"R+	c #94873D",
"S+	c #887733",
"T+	c #584A1F",
"U+	c #0C0A04",
"V+	c #121E55",
"W+	c #182C7F",
"X+	c #2540A0",
"Y+	c #324FBC",
"Z+	c #3C59BF",
"`+	c #435EC2",
" @	c #4059B2",
".@	c #2A386B",
"+@	c #3B242C",
"@@	c #703533",
"#@	c #85403F",
"$@	c #854544",
"%@	c #855346",
"&@	c #786449",
"*@	c #5F764F",
"=@	c #538754",
"-@	c #517D4C",
";@	c #445834",
">@	c #404729",
",@	c #504C24",
"'@	c #857532",
")@	c #94853B",
"!@	c #A39341",
"~@	c #9D8E3D",
"{@	c #8A7935",
"]@	c #675825",
"^@	c #181509",
"/@	c #112672",
"(@	c #1E3AAF",
"_@	c #2343B5",
":@	c #2D4CBC",
"<@	c #3251C0",
"[@	c #3C58BD",
"}@	c #4A65C8",
"|@	c #25366E",
"1@	c #2A1828",
"2@	c #7D3234",
"3@	c #B7504F",
"4@	c #C55B5B",
"5@	c #C76665",
"6@	c #C96E6C",
"7@	c #BF706D",
"8@	c #91645C",
"9@	c #6C7856",
"0@	c #74A86D",
"a@	c #70AA6F",
"b@	c #5F895F",
"c@	c #4B6846",
"d@	c #36462B",
"e@	c #464E2E",
"f@	c #545B35",
"g@	c #716743",
"h@	c #4D4320",
"i@	c #4E431C",
"j@	c #152F8C",
"k@	c #2345C2",
"l@	c #2241AC",
"m@	c #2C4BBB",
"n@	c #3452C0",
"o@	c #405CC2",
"p@	c #425AB4",
"q@	c #262141",
"r@	c #6C2427",
"s@	c #AD3F3F",
"t@	c #BC4C4C",
"u@	c #BE5454",
"v@	c #C25D5D",
"w@	c #C56666",
"x@	c #CE7474",
"y@	c #BF7C6B",
"z@	c #A87D61",
"A@	c #92846C",
"B@	c #68986B",
"C@	c #78BE80",
"D@	c #7EBE82",
"E@	c #6CA070",
"F@	c #6D9D71",
"G@	c #709D74",
"H@	c #7C9479",
"I@	c #414F3C",
"J@	c #0F0D08",
"K@	c #0B184A",
"L@	c #1B3FBC",
"M@	c #1C3EB6",
"N@	c #2747BA",
"O@	c #3352BD",
"P@	c #4561CC",
"Q@	c #23346E",
"R@	c #511F32",
"S@	c #A13032",
"T@	c #B73F3F",
"U@	c #B94747",
"V@	c #BE5050",
"W@	c #C15858",
"X@	c #C36161",
"Y@	c #C76969",
"Z@	c #C48066",
"`@	c #CD9171",
" #	c #B46D71",
".#	c #554944",
"+#	c #4B8351",
"@#	c #7DC782",
"##	c #8ED494",
"$#	c #97DC9B",
"%#	c #99DD9E",
"&#	c #9BDCA0",
"*#	c #82B280",
"=#	c #212E20",
"-#	c #122982",
";#	c #1C40BF",
">#	c #1D3FB5",
",#	c #2C4BBC",
"'#	c #3150BF",
")#	c #3453BF",
"!#	c #4664D1",
"~#	c #202145",
"{#	c #811B1D",
"]#	c #AE2E2E",
"^#	c #B53B3B",
"/#	c #B74141",
"(#	c #BB4B4B",
"_#	c #BE5656",
":#	c #C25E5E",
"<#	c #C66767",
"[#	c #C97070",
"}#	c #CD7A7A",
"|#	c #CD7C7D",
"1#	c #9F6062",
"2#	c #535242",
"3#	c #64A869",
"4#	c #7FCC85",
"5#	c #83CD88",
"6#	c #89CF8F",
"7#	c #91D798",
"8#	c #A1E3A5",
"9#	c #507452",
"0#	c #060D2F",
"a#	c #1939B2",
"b#	c #1C3EB5",
"c#	c #1C3FB7",
"d#	c #3554C2",
"e#	c #3855C0",
"f#	c #4563D0",
"g#	c #342546",
"h#	c #8D181B",
"i#	c #B02B2B",
"j#	c #B43333",
"k#	c #B53C3C",
"l#	c #B94646",
"m#	c #BC5151",
"n#	c #C05B5B",
"o#	c #C46464",
"p#	c #C76C6C",
"q#	c #CA7474",
"r#	c #D17D7D",
"s#	c #D48282",
"t#	c #A17168",
"u#	c #4E7C4E",
"v#	c #73C97B",
"w#	c #7CCB83",
"x#	c #85CD89",
"y#	c #8BD091",
"z#	c #9ADD9F",
"A#	c #76A679",
"B#	c #1B261B",
"C#	c #091541",
"D#	c #1C41C0",
"E#	c #1F41BB",
"F#	c #304FBD",
"G#	c #3553C1",
"H#	c #405CC1",
"I#	c #3C56B4",
"J#	c #3E1F3B",
"K#	c #90171A",
"L#	c #AD2525",
"M#	c #B22F2F",
"N#	c #B53838",
"O#	c #B84141",
"P#	c #BF5454",
"Q#	c #C66666",
"R#	c #C96E6E",
"S#	c #CB7777",
"T#	c #B77C6F",
"U#	c #5D7543",
"V#	c #6AC074",
"W#	c #77CA7F",
"X#	c #82CD87",
"Y#	c #85D18C",
"Z#	c #8CD292",
"`#	c #9CE2A1",
" $	c #416143",
".$	c #0F2166",
"+$	c #1B3FBA",
"@$	c #1D3EB5",
"#$	c #2444BA",
"$$	c #3653BD",
"%$	c #4663CC",
"&$	c #253B7B",
"*$	c #571421",
"=$	c #991616",
"-$	c #AC2021",
";$	c #B02A2A",
">$	c #B43434",
",$	c #B73E3E",
"'$	c #BA4646",
")$	c #BE4F4F",
"!$	c #C25A5A",
"~$	c #C46363",
"{$	c #CD7171",
"]$	c #D47D7C",
"^$	c #CE8C7B",
"/$	c #A79E63",
"($	c #60A565",
"_$	c #72C87A",
":$	c #76C87E",
"<$	c #7DCB84",
"[$	c #84CB8A",
"}$	c #7FB883",
"|$	c #2D4830",
"1$	c #132B85",
"2$	c #1B3FB8",
"3$	c #3854BC",
"4$	c #4A67D3",
"5$	c #1B3268",
"6$	c #671218",
"7$	c #A21515",
"8$	c #AC1D1D",
"9$	c #AE2627",
"0$	c #B12F2F",
"a$	c #B63737",
"b$	c #B83F3F",
"c$	c #BB4949",
"d$	c #C15C5C",
"e$	c #C56464",
"f$	c #C96F6F",
"g$	c #CE7979",
"h$	c #D58381",
"i$	c #AF7B73",
"j$	c #4A6D4B",
"k$	c #65B86E",
"l$	c #62AC6C",
"m$	c #63AC6D",
"n$	c #68A16C",
"o$	c #445244",
"p$	c #0D0D0D",
"q$	c #050A26",
"r$	c #16319F",
"s$	c #1C3EB7",
"t$	c #1D3FB6",
"u$	c #3250BD",
"v$	c #506BD5",
"w$	c #11244E",
"x$	c #6F0C0D",
"y$	c #A81313",
"z$	c #AB1717",
"A$	c #AB1D1D",
"B$	c #AE2828",
"C$	c #B53332",
"D$	c #B73C3C",
"E$	c #B94545",
"F$	c #BC4F4F",
"G$	c #BE5858",
"H$	c #C36060",
"I$	c #C66B6B",
"J$	c #CC7575",
"K$	c #CF8077",
"L$	c #A27564",
"M$	c #3F3E3F",
"N$	c #65936A",
"O$	c #738C78",
"P$	c #768E7B",
"Q$	c #6B786A",
"R$	c #675865",
"S$	c #454445",
"T$	c #040819",
"U$	c #112777",
"V$	c #1C3FB8",
"W$	c #2345B9",
"X$	c #3452BD",
"Y$	c #3A56BC",
"Z$	c #6C0C0E",
"`$	c #A71314",
" %	c #AA1717",
".%	c #A71817",
"+%	c #AB2222",
"@%	c #B02D2D",
"#%	c #B53737",
"$%	c #BA4949",
"%%	c #C06666",
"&%	c #BD7474",
"*%	c #B48676",
"=%	c #97936A",
"-%	c #6D6D6E",
";%	c #8C8C8C",
">%	c #BABABA",
",%	c #C4C3C3",
"'%	c #C7C6C6",
")%	c #CBCBCB",
"!%	c #AEAEAE",
"~%	c #5D4F5B",
"{%	c #030714",
"]%	c #0A1943",
"^%	c #1A369B",
"/%	c #2B49B6",
"(%	c #2E4DBD",
"_%	c #6F0C0E",
":%	c #A61313",
"<%	c #A91717",
"[%	c #AB1C1C",
"}%	c #AE2727",
"|%	c #B43232",
"1%	c #BA3C3C",
"2%	c #B64343",
"3%	c #B34D4E",
"4%	c #B25D5E",
"5%	c #AC7373",
"6%	c #A38888",
"7%	c #9C9292",
"8%	c #A4A4A4",
"9%	c #B3B3B3",
"0%	c #B2B2B2",
"a%	c #B4B4B4",
"b%	c #B5B5B5",
"c%	c #BCBCBC",
"d%	c #BDBDBD",
"e%	c #C6C6C6",
"f%	c #AFAEAE",
"g%	c #585858",
"h%	c #070F2F",
"i%	c #0D1C4F",
"j%	c #1C327E",
"k%	c #2C47A6",
"l%	c #3553BB",
"m%	c #3E5AC1",
"n%	c #516DD6",
"o%	c #6D0C0E",
"p%	c #A71414",
"q%	c #A81817",
"r%	c #A61817",
"s%	c #A81717",
"t%	c #AC2323",
"u%	c #AC2C2C",
"v%	c #A93333",
"w%	c #9D3D3D",
"x%	c #8A4D5E",
"y%	c #896D82",
"z%	c #968E8E",
"A%	c #969A9A",
"B%	c #9F9F9F",
"C%	c #A2A2A2",
"D%	c #A6A6A6",
"E%	c #ADADAD",
"F%	c #B1B1B1",
"G%	c #BFC0BF",
"H%	c #C2C2C2",
"I%	c #B0B0B0",
"J%	c #4F4F4F",
"K%	c #070D1E",
"L%	c #0E1530",
"M%	c #1A2854",
"N%	c #2A3E86",
"O%	c #364B9D",
"P%	c #4054A4",
"Q%	c #101C37",
"R%	c #5E0B0C",
"S%	c #99110F",
"T%	c #A71615",
"U%	c #A91817",
"V%	c #951D1D",
"W%	c #832323",
"X%	c #743232",
"Y%	c #735252",
"Z%	c #6F6B85",
"`%	c #797F95",
" &	c #989482",
".&	c #979696",
"+&	c #9A9A9A",
"@&	c #9E9E9E",
"#&	c #AAAAAA",
"$&	c #B9B9B9",
"%&	c #BEBEBE",
"&&	c #4C4C50",
"*&	c #070C1A",
"=&	c #080E1F",
"-&	c #17224A",
";&	c #1E2B5C",
">&	c #232B54",
",&	c #0D0C0E",
"'&	c #2B0807",
")&	c #5E0A08",
"!&	c #821112",
"~&	c #851011",
"{&	c #7C1010",
"]&	c #4D0F0F",
"^&	c #462929",
"/&	c #605555",
"(&	c #747575",
"_&	c #828385",
":&	c #8D8B7B",
"<&	c #949175",
"[&	c #919292",
"}&	c #969797",
"|&	c #9D9D9D",
"1&	c #9FA09F",
"2&	c #C0C0C0",
"3&	c #BFBFBF",
"4&	c #A9A8A8",
"5&	c #575453",
"6&	c #0A0504",
"7&	c #0E0503",
"8&	c #400908",
"9&	c #5C0D10",
"0&	c #4F090A",
"a&	c #250505",
"b&	c #191010",
"c&	c #383838",
"d&	c #656566",
"e&	c #7A7A7A",
"f&	c #818181",
"g&	c #888886",
"h&	c #8D8C89",
"i&	c #8F8F8F",
"j&	c #959595",
"k&	c #999A9A",
"l&	c #A3A3A3",
"m&	c #A9A9A9",
"n&	c #C0C1C0",
"o&	c #C1C1C1",
"p&	c #A9A7A7",
"q&	c #525252",
"r&	c #292929",
"s&	c #49494A",
"t&	c #6C6C6C",
"u&	c #7D7D7D",
"v&	c #848484",
"w&	c #8A8989",
"x&	c #8D8D8D",
"y&	c #919191",
"z&	c #9B9A9A",
"A&	c #A5A5A5",
"B&	c #ACACAC",
"C&	c #B8B8B8",
"D&	c #BDBEBD",
"E&	c #C1C1C0",
"F&	c #7B7C7C",
"G&	c #343434",
"H&	c #545454",
"I&	c #6F6F6F",
"J&	c #7E7F7F",
"K&	c #858686",
"L&	c #989696",
"M&	c #A2A3A3",
"N&	c #BBBBBB",
"O&	c #838484",
"P&	c #3D3D3B",
"Q&	c #545353",
"R&	c #6F7070",
"S&	c #7E8080",
"T&	c #878686",
"U&	c #8C8B8B",
"V&	c #8E8E8E",
"W&	c #949595",
"X&	c #999999",
"Y&	c #9FA0A0",
"Z&	c #A8A8A8",
"`&	c #B1B2B2",
" *	c #717272",
".*	c #363534",
"+*	c #4D4D4D",
"@*	c #898989",
"#*	c #8E8D8D",
"$*	c #AEAFAF",
"%*	c #686868",
"&*	c #646464",
"**	c #737272",
"=*	c #838383",
"-*	c #8E8F8F",
";*	c #969696",
">*	c #9F9D9D",
",*	c #7F7F7F",
"'*	c #5F5D5D",
")*	c #4F4E4D",
"!*	c #5F5F61",
"~*	c #676877",
"{*	c #8A898A",
"]*	c #939393",
"                                                                                                ",
"                                                                                                ",
"                                                                                                ",
"                                                                                                ",
"                                                                                                ",
"                                                                                                ",
"                  . + @                                                                         ",
"                # $ % & *                                                                       ",
"              = - ; > , ' )                                             ! ~ {                   ",
"                ] ^ / ( _ : <                                       [ } | 1 2 3                 ",
"                  4 5 6 7 8 9 0                                 a b c d e f g h                 ",
"                    i j k l m n o       p q r s               t u v w x y z A B                 ",
"                          C D E F G H I J K L M N O P Q R S T U V W X Y                         ",
"                              Z `  ...+.@.#.$.%.&.*.=.-.;.>.,.6 '.).!.                          ",
"          ~.{.].^.              /.(._.:.<. .[.}.|.1.2.3.4.5.6.7.                                ",
"        8.9.0.a.b.c.d.e.f.e.g.h.i.j.k.l.m.n.o.p.q.r.s.t.u.v.                                    ",
"        w.x.y.z.A.B.C.D.E.F.G.H.'.I.J.K.L.M.N.O.P.Q.<.R.S.T.U.V.                                ",
"          W.X.Y.Z.`. +.+++@+#+$+%+&+*+=+-+;+{.>+,+'+)+!+~+{+]+^+/+(+_+:+                        ",
"          <+[+}+#.|+1+2+3+4+5+6+7+8+9+0+a+b+c+d+e+f+g+h+i+j+k+l+m+n+S.o+p+q+r+                  ",
"                    s+t+u+v+w+x+y+z+A+B+C+D+E+F+G+H+I+J+K+L+M+N+O+P+Q+R+S+T+U+                  ",
"                      V+W+X+Y+Z+`+ @.@+@@@#@$@%@&@*@=@-@;@>@,@@ '@)@!@~@{@]@^@                  ",
"                    /@(@_@:@<@[@}@|@1@2@3@4@5@6@7@8@9@0@a@b@c@d@e@f@g@h@Q i@                    ",
"                    j@k@l@m@n@o@p@q@r@s@t@u@v@w@x@y@z@A@B@C@D@E@F@G@H@I@J@                      ",
"                  K@L@M@N@:@O@P@Q@R@S@T@U@V@W@X@Y@Z@`@ #.#+#@###$#%#&#*#=#                      ",
"                  -#;#>#,#'#)#!#~#{#]#^#/#(#_#:#<#[#}#|#1#2#3#4#5#6#7#8#9#                      ",
"                0#a#b#c#:@d#e#f#g#h#i#j#k#l#m#n#o#p#q#r#s#t#u#v#w#x#y#z#A#B#                    ",
"                C#D#b#E#F#G#H#I#J#K#L#M#N#O#(#P#:#Q#R#S#s#T#U#V#W#X#Y#Z#`# $                    ",
"                .$+$@$#$F#$$%$&$*$=$-$;$>$,$'$)$!$~$Y@{$]$^$/$($_$:$<$[$}$|$                    ",
"                1$2$>#N@F#3$4$5$6$7$8$9$0$a$b$c$u@d$e$f$g$h$i$j$k$l$m$n$o$p$                    ",
"              q$r$s$t$,#u$$$v$w$x$y$z$A$B$C$D$E$F$G$H$I$J$K$L$M$N$O$P$Q$R$S$                    ",
"              T$U$V$W$,#X$Y$v$w$Z$`$ %.%+%@%#%b$$%u@d$%%&%*%=%-%;%>%,%'%)%!%~%                  ",
"              {%]%^%/%(%)#Y$v$w$_%:% %<%[%}%|%1%2%3%4%5%6%7%8%9%0%a%b%c%d%e%f%g%                ",
"                h%i%j%k%l%m%n%w$o%p%q%r%s%t%u%v%w%x%y%z%A%B%C%D%E%F%b%c%G%d%H%I%J%              ",
"                  K%L%M%N%O%P%Q%R%S%T% %U%V%W%X%Y%Z%`% &.&+&@&8%#&E%b%$&%&G%$&,%D%&&            ",
"                    *&=&-&;&>&,&'&)&!&~&{&]&^&/&(&_&:&<&[&}&|&1&D%E%F%b%$&G%2&3&e%4&5&          ",
"                              6&7&8&9&0&a&b&c&d&e&f&g&h&i&j&k&@&l&m&E%F%b%%&n&n&3&o&p&q&        ",
"                                            r&s&t&u&v&w&x&y&j&z&B%A&m&B&a%C&D&G%G%3&E&|&F&      ",
"                                              G&H&I&J&K&w&x&y&L&|&M&A&B&F%a%N&G%G%2&o&d%O&      ",
"                                                P&Q&R&S&T&U&V&W&X&Y&8%Z&E%a%C&D&2&2&`&V& *      ",
"                                                  .*+*t&f&@*#*W&X&|&8%A&Z&I%b%C&$*@*            ",
"                                                        %*&***=*-*;*>*8%Z&E%l&,*                ",
"                                                              '*)*!*~*{*]*                      ",
"                                                                                                ",
"                                                                                                ",
"                                                                                                ",
"                                                                                                ",
"                                                                                                ",
"                                                                                                "};
