/* XPM */
static char *ft_xpm[] = {
/* columns rows colors chars-per-pixel */
"48 48 219 2",
"   c #000000000000",
".  c #0c0c0c0c0c0c",
"X  c #111111111111",
"o  c #1c1c1c1c1c1c",
"O  c #242424242424",
"+  c #2b2b2b2b2b2b",
"@  c #343434343434",
"#  c #3c3c3c3c3c3c",
"$  c #7f7f70702d2d",
"%  c #434343434343",
"&  c #4c4c4c4c4c4c",
"*  c #535353535353",
"=  c #5c5c5c5c5c5c",
"-  c #7e7e74744646",
";  c #7e7e76764e4e",
":  c #777773735f5f",
">  c #7a7a74745757",
",  c #626262626262",
"<  c #6b6b6b6b6b6b",
"1  c #767674746c6c",
"2  c #7f7f7b7b6565",
"3  c #7b7b79796f6f",
"4  c #747474747474",
"5  c #7b7b7a7a7474",
"6  c #7c7c7c7c7c7c",
"7  c #848475752d2d",
"8  c #87877a7a3131",
"9  c #8b8b7c7c3232",
"0  c #808077774747",
"q  c #86867c7c4242",
"w  c #9d9d85852a2a",
"e  c #949484843434",
"r  c #949485853939",
"t  c #979788883636",
"y  c #969689893c3c",
"u  c #9c9c86863131",
"i  c #9a9a87873939",
"p  c #9b9b8b8b3737",
"a  c #9c9c8c8c3b3b",
"s  c #9f9f91913d3d",
"d  c #a5a58c8c2b2b",
"f  c #aaaa8e8e2b2b",
"g  c #a1a18f8f3a3a",
"h  c #a8a88f8f3232",
"j  c #acac91912c2c",
"k  c #a4a493933c3c",
"l  c #a7a798983f3f",
"z  c #acac93933535",
"x  c #aaaa95953b3b",
"c  c #aaaa98983e3e",
"v  c #b3b396962e2e",
"b  c #b7b79a9a2f2f",
"n  c #baba9c9c2f2f",
"m  c #b3b396963232",
"M  c #b0b097973838",
"N  c #b7b79a9a3434",
"B  c #b3b39b9b3b3b",
"V  c #baba9d9d3232",
"C  c #b8b89e9e3939",
"Z  c #bebea0a02f2f",
"A  c #b7b7a4a43e3e",
"S  c #bfbfa3a33737",
"D  c #bdbda3a33a3a",
"F  c #9e9e92924343",
"G  c #878785856b6b",
"H  c #898986866d6d",
"J  c #878786867676",
"K  c #878787877979",
"L  c #8b8b8b8b7c7c",
"P  c #959591916464",
"I  c #9d9d95956a6a",
"U  c #9e9e99996363",
"Y  c #9f9f99996f6f",
"T  c #969692927373",
"R  c #999994947676",
"E  c #a6a695954040",
"W  c #a5a598984646",
"Q  c #abab9b9b4141",
"!  c #a9a99f9f4a4a",
"~  c #b0b09d9d4242",
"^  c #a4a49b9b6e6e",
"/  c #afafa0a04343",
"(  c #a6a6a0a05f5f",
")  c #a8a8a2a25b5b",
"_  c #b3b3a0a04242",
"`  c #b5b5a5a54a4a",
"'  c #b5b5aaaa4b4b",
"]  c #bbbba4a44242",
"[  c #b9b9a8a84747",
"{  c #bcbcacac4d4d",
"}  c #b5b5a2a25959",
"|  c #b8b8a5a55b5b",
" . c #bcbcadad5353",
".. c #bdbdb5b54d4d",
"X. c #bebeb4b45656",
"o. c #bebebbbb5858",
"O. c #a9a9a2a26161",
"+. c #b9b9a7a76363",
"@. c #c2c2a3a33434",
"#. c #c2c2a6a63a3a",
"$. c #c4c4aaaa3d3d",
"%. c #c9c9a7a73636",
"&. c #cbcbacac3232",
"*. c #ceceb0b03f3f",
"=. c #d3d3b2b23535",
"-. c #d0d0b1b13c3c",
";. c #ddddbaba3a3a",
":. c #c5c5aeae4141",
">. c #c0c0aeae4c4c",
",. c #c9c9afaf4545",
"<. c #c0c0afaf5656",
"1. c #c4c4b0b04444",
"2. c #c4c4b4b44d4d",
"3. c #c7c7b9b94f4f",
"4. c #cacab3b34444",
"5. c #cacab5b54c4c",
"6. c #ccccbaba4c4c",
"7. c #c3c3b3b35454",
"8. c #c2c2b4b45c5c",
"9. c #c2c2bbbb5454",
"0. c #c4c4bbbb5e5e",
"q. c #cacab7b75151",
"w. c #ccccbbbb5252",
"e. c #cbcbbaba5b5b",
"r. c #d4d4b6b64444",
"t. c #d9d9baba4343",
"y. c #d1d1bfbf5353",
"u. c #d0d0bebe5d5d",
"i. c #c1c1afaf6f6f",
"p. c #c3c3b5b56060",
"a. c #c6c6b9b96161",
"s. c #cacabcbc6363",
"d. c #e7e7c5c53e3e",
"f. c #cdcdc1c15353",
"g. c #cfcfc3c35a5a",
"h. c #cccccbcb5d5d",
"j. c #d3d3c1c14f4f",
"k. c #dfdfc4c44f4f",
"l. c #d4d4c3c35454",
"z. c #d4d4c4c45c5c",
"x. c #d7d7c9c95a5a",
"c. c #d8d8c7c75959",
"v. c #d9d9c9c95555",
"b. c #dbdbcccc5b5b",
"n. c #ddddd1d15d5d",
"m. c #dddddcdc5e5e",
"M. c #c3c3c0c06060",
"N. c #cdcdc2c26565",
"B. c #cdcdcbcb6666",
"V. c #cdcdcbcb6969",
"C. c #d1d1c9c96464",
"Z. c #d4d4cfcf6d6d",
"A. c #d8d8c5c56161",
"S. c #dcdccdcd6464",
"D. c #d5d5d4d46666",
"F. c #deded4d46262",
"G. c #d4d4d3d37070",
"H. c #dcdcdbdb7575",
"J. c #e6e6c8c84e4e",
"K. c #e1e1d2d25c5c",
"L. c #f6f6d2d24545",
"P. c #f5f5d7d74949",
"I. c #fbfbdede4c4c",
"U. c #e0e0d5d56363",
"Y. c #e2e2d3d36a6a",
"T. c #e6e6dada6363",
"R. c #e7e7d9d96c6c",
"E. c #e9e9dddd6565",
"W. c #e8e8dcdc6f6f",
"Q. c #e9e9dede7171",
"!. c #e4e4e2e25c5c",
"~. c #efefeded5a5a",
"^. c #f4f4e0e04f4f",
"/. c #f3f3e7e75555",
"(. c #fbfbe7e75454",
"). c #fbfbf4f45c5c",
"_. c #e4e4e4e46b6b",
"`. c #ebebe0e06767",
"'. c #ecece4e46d6d",
"]. c #ebebebeb6767",
"[. c #e3e3e3e37474",
"{. c #ecececec7878",
"}. c #f0f0e6e66d6d",
"|. c #f0f0e6e67070",
" X c #f3f3eaea7070",
".X c #f4f4f3f36a6a",
"XX c #fafafafa6363",
"oX c #f4f4f4f47272",
"OX c #f0f0f0f07a7a",
"+X c #fcfcfcfc7f7f",
"@X c #848483838383",
"#X c #8c8c8c8c8c8c",
"$X c #9a9a97978787",
"%X c #949494949494",
"&X c #989897979696",
"*X c #9b9b9b9b9b9b",
"=X c #a7a7a1a18d8d",
"-X c #aaaaa5a58f8f",
";X c #b9b9afaf8686",
":X c #b5b5afaf9e9e",
">X c #b7b7b2b29d9d",
",X c #a3a3a3a3a3a3",
"<X c #ababababaaaa",
"1X c #b5b5b3b3adad",
"2X c #bfbfb9b9a6a6",
"3X c #b2b2b2b2b2b2",
"4X c #c2c2bdbda9a9",
"5X c #d7d7cbcb9e9e",
"6X c #c7c7c3c3adad",
"7X c #cbcbc6c6b0b0",
"8X c #e0e0d6d6a6a6",
"9X c #e1e1d8d8a5a5",
"0X c #e7e7e7e78b8b",
"qX c #ebebebeb8d8d",
"wX c #edede4e49e9e",
"eX c #f5f5e0e08f8f",
"rX c #f1f1efef9292",
"tX c #f8f8e4e49191",
"yX c None",
/* pixels */
"yXyXyXyXyXyXyXyXyXyXyXyXyXyXyXyXyXyXyXyXyXyXyXyXyXyXyXyXyXyXyXyXyXyXyXyXyXyXyXyXyXyXyXyXyXyXyXyX",
"yXyXyXyXyXyXyXyXyXyXyXyXyXyXyXyXyXyXyXyXyXyXyXyXyXyXyXyXyXyXyXyXyXyXyXyXyXyXyXyXyXyXyXyXyXyXyXyX",
"yXyXyXyXyXyXyXyXyXyXyXyXyXyXyXyXyXyXyXyXyXyXyXyXyXyXyXyXyXyXyXyXyXyXyXyXyXyXyXyXyXyXyXyXyXyXyXyX",
"yXyXyXyXyXyXyXyXyXyXyXyXyXyXyXyXyXyXyXyXyXyXyXyXyXyXyXyXyXyXyXyXyXyXyXyXyXyXyXyXyXyXyXyXyXyXyXyX",
"yXyXyXyXyXyXyXyXyXyXyXyXyXyXyXyXyXyXyXyXyXyXu.u.A.S.F.yXyXyXyXyXyXyXyXyXyXyXyXyXyXyXyXyXyXyXyXyX",
"yXyXyXyXyXyXyXyXyXyXyXyXyXyXyXyXyXyXs.a.e.e.u.u.A.S.Y.R.W.W.Q.yXyXyXyXyXyXyXyXyXyXyXyXyXyXyXyXyX",
"yXyXyXyXyXyXyXyXyXyXyXyXyXyXyXp.0.8.<.>.>.>.>.7.q.e.A.S.U.R.W.}.}. XyXyXyXyXyXyXyXyXyXyXyXyXyXyX",
"yXyXyXyXyXyXyXyXyXyXyXyXyXyXp.8. .` c p r r y y F W ! ` X.z.U.E.}.'.`.yXyXyXyXyXyXyXyXyXyXyXyXyX",
"yXyXyXyXyXyXyXyXyXyXyXyXX.p. .` a 9 8 q ; 2 5 6 6 6 J H P ( X.C.U.T.E.T.K.yXyXyXyXyXyXyXyXyXyXyX",
"yXyXyXyXyXyXyXyXyXyXyXp.X. .W r 8 ; 1 @X#X*X*X,X*X*X*X*X%X#XL U 9.g.n.n.b.v.yXyXyXyXyXyXyXyXyXyX",
"yXyXyXyXyXyXyXyXyXyXp. .` a 8 0 1 @X&X,X<X,X,X, , ,X*X*X*X*X&X#XL O.f.l.v.l.j.yXyXyXyXyXyXyXyXyX",
"yXyXyXyXyXyXyXyXyXp.X.` i 8 > 6 &X4 &X<X,X,X,X, , *X,X*X*X*X#X< %X#XY 3.l.j.6.4.yXyXyXyXyXyXyXyX",
"yXyXyXyXyXyXyXyXp. .` e 7 : @X*X<X, * ,X,X,X,X, , *X*X*X*X*X& = %X%X#XR 2.6.5.4.#.yXyXyXyXyXyXyX",
"yXyXyXyXyXyXyXyXX.` r 7 : @X,X<X,X*X* #X,X,X*X*X*X*X*X*X*X@X& #X%X%X%X#XR 1.:.$.D yXyXyXyXyXyXyX",
"yXyXyXyXyXyXyX<.` g 7 > @X,X<X,X,X,X4 < ,X*X*X*X*X*X*X*X&X, < %X%X%X%X#X#X^ D #.V m yXyXyXyXyXyX",
"yXyXyXyXyXyX8.<.~ 9 - 6 *X<X,X,X,X,X,X*X,X,X*X*X*X*X&X&X&X%X%X%X%X%X%X#X#X#X| @.V j j yXyXyXyXyX",
"yXyXyXyXyXyXp.{ s $ 4 %X,X,X,X,X,X,X*X*X*X*X*X*X*X*X*X%X%X%X%X%X%X#X#X#X#X#X&X#.S j j yXyXyXyXyX",
"yXyXyXyXyXyX8.` e ; @X%X* 4 ,X,X*X,X,X*X*X*X*X*X*X%X&X%X%X%X%X#X%X#X#X, % 6 #X+.S b j yXyXyXyXyX",
"yXyXyXyXyXe.7.Q 8 1 %X*X6 , # #X,X*X*X*X*X*X*X&X%X%X%X%X%X%X#X#X#X6 @ & < @X#X-X=.n j d yXyXyXyX",
"yXyXyXyXyXe...k q 6 ,X,X,X,X@X%X*X,X*X*X*X*X&X&X%X%X%X%X#X%X%X#X#X@X< #X#X#X@X*X4.Z j d yXyXyXyX",
"yXyXyXyXyXq.{ i > #X,X,X,X*X*X,X*X*X*X*X&X&X&X&X%X%X%X%X#X#X#X#X#X#X#X#X#X@X@X%Xi.&.V j yXyXyXyX",
"yXyXyXyXyX3.>.i 2 %X,X,X,X,X*X*X*X*X*X&X&X&X%X%X%X#X#X4 * @ + O = #X@X@X@X@X@X#X;X;.@.m yXyXyXyX",
"yXyXyXyXw.w...y 3 *X,X,X*X*X*X*X*X*X*X&X&X%X#X6 * @ O o o o o o @ @X@X#X@X@X@X@X>Xd.-.N z yXyXyX",
"yXyXyXyX6.f.9.y 5 *X@X6 @X#X*X*X*X*X&X&X%X%X% . X o o o o o o O = #X@X4 < < < @X1XP.;.C x yXyXyX",
"yXyXyXyXy.l.7.F 6 ,X* * & < *X&X%X%X%X%X%X%Xo   . o o o + # = 6 @X@X@X= % % % @X3X^.t.M x yXyXyX",
"yXyXyXyXl.c.w.W 4 *X*X*X*X&X*X*X%X%X%X%X%X#X% . . # , 6 #X#X#X@X@X@X@X@X@X6 6 @X1X/.r.z g yXyXyX",
"yXyXyXyXc.b.z.! 5 *X*X*X&X*X%X%X%X%X%X%X#X#X#X#X# 6 #X#X#X@X@X@X@X@X@X@X6 @X6 #X4X~.,.a p yXyXyX",
"yXyXyXyXyXb.x.' G %X*X&X&X&X%X%X%X%X%X%X%X#X#X#X= = #X@X@X@X@X@X@X@X@X@X6 6 6 &X5X!.] i i yXyXyX",
"yXyXyXyXyXb.b.7.P #X&X&X%X%X%X%X%X%X#X#X#X#X#X#X6 + #X#X@X@X@X@X@X6 6 6 6 6 6 <XeXm.B e yXyXyXyX",
"yXyXyXyXyXl.b.g.) @X%X&X%X%X4 #X%X#X%X#X#X#X#X#X#X& = @X@X@X@X@X@X6 , 6 6 6 K 3XOXh.E r yXyXyXyX",
"yXyXyXyXyXl.b.F.X.J %X#X4 * @ 6 %X#X#X#X#X#X#X#X@X< % @X@X@X@X6 6 < + % = 4 %X6X_.o.s a yXyXyXyX",
"yXyXyXyXyXyXx.F.B.P #X@X& < #X%X#X#X#X#X#X#X@X@X@X6 + , @X@X@X6 6 6 6 * # < 3XqXD.` s yXyXyXyXyX",
"yXyXyXyXyXyXx.m.n.9.K #X%X%X#X#X#X#X@X#X@X@X#X@X@X@X& & 6 6 6 6 6 6 6 4 4 &X7X[.M.l s yXyXyXyXyX",
"yXyXyXyXyXyXx.b.b.f.( @X#X#X#X#X#X#X#X@X#X@X@X@X@X@X@Xo 4 6 6 6 6 6 6 4 @X3X0XB.' s k yXyXyXyXyX",
"yXyXyXyXyXyXyXl.x.x.6.I #X#X#X#X#X#X= * @X@X@X@X@X@X@X* & * * 6 6 6 4 @X<XwXG.o./ s yXyXyXyXyXyX",
"yXyXyXyXyXyXyXyXw.x.f.5.T #X#X#X#X@X% 4 @X@X@X@X6 @X6 < % < # 4 4 4 6 <X8XH.M.' s yXyXyXyXyXyXyX",
"yXyXyXyXyXyXyXyXf.l.j.6...T @X#X#X* % @X@X@X@X& & 6 6 6 6 4 # & 4 @X<X9XH.M...l k yXyXyXyXyXyXyX",
"yXyXyXyXyXyXyXyXyXj.j.j.4.[ U @X@X= 4 @X@X@X@X& & 6 6 6 6 6 < * %X3XwXH.V...c k yXyXyXyXyXyXyXyX",
"yXyXyXyXyXyXyXyXyXyXj.6.4.$.D } $X#X@X@X6 6 6 & & 6 6 6 4 6 #X<X6XqXH.B.o./ k yXyXyXyXyXyXyXyXyX",
"yXyXyXyXyXyXyXyXyXyXyX4.$.$.#.@.%.+.=X&X%X#X@X6 6 @X@X%X,X3X7XrX{.H.B.../ k yXyXyXyXyXyXyXyXyXyX",
"yXyXyXyXyXyXyXyXyXyXyXyX#.S V S V @.=.5.i.;X:X<X<X1X2X5XtX+XoX'.D.f.[ c c yXyXyXyXyXyXyXyXyXyXyX",
"yXyXyXyXyXyXyXyXyXyXyXyXyXyXv v v b Z @.=.d.L.I.(.).).XX.X].m.f.../ c yXyXyXyXyXyXyXyXyXyXyXyXyX",
"yXyXyXyXyXyXyXyXyXyXyXyXyXyXyXv f d d f V %.*.t.k.J.J.k.j.5.[ / E l yXyXyXyXyXyXyXyXyXyXyXyXyXyX",
"yXyXyXyXyXyXyXyXyXyXyXyXyXyXyXyXyXyXw d h z M C A _ A ~ c c Q yXyXyXyXyXyXyXyXyXyXyXyXyXyXyXyXyX",
"yXyXyXyXyXyXyXyXyXyXyXyXyXyXyXyXyXyXyXyXyXyXM M x x c c yXyXyXyXyXyXyXyXyXyXyXyXyXyXyXyXyXyXyXyX",
"yXyXyXyXyXyXyXyXyXyXyXyXyXyXyXyXyXyXyXyXyXyXyXyXyXyXyXyXyXyXyXyXyXyXyXyXyXyXyXyXyXyXyXyXyXyXyXyX",
"yXyXyXyXyXyXyXyXyXyXyXyXyXyXyXyXyXyXyXyXyXyXyXyXyXyXyXyXyXyXyXyXyXyXyXyXyXyXyXyXyXyXyXyXyXyXyXyX",
"yXyXyXyXyXyXyXyXyXyXyXyXyXyXyXyXyXyXyXyXyXyXyXyXyXyXyXyXyXyXyXyXyXyXyXyXyXyXyXyXyXyXyXyXyXyXyXyX",
};
