/* XPM */
static char * refresh_xpm[] = {
"48 48 160 2",
"  	c None",
". 	c #080601",
"+ 	c #000000",
"@ 	c #070808",
"# 	c #0A0A04",
"$ 	c #0C0C0C",
"% 	c #1A1A12",
"& 	c #5D5A39",
"* 	c #9A996A",
"= 	c #8D895F",
"- 	c #797652",
"; 	c #131314",
"> 	c #9B9A66",
", 	c #FFFFB2",
"' 	c #FBF79A",
") 	c #EFEF98",
"! 	c #FFFFA3",
"~ 	c #DAD485",
"{ 	c #4C4926",
"] 	c #18170B",
"^ 	c #13130A",
"/ 	c #A29E69",
"( 	c #FFFFAF",
"_ 	c #FFFF84",
": 	c #FEFE92",
"< 	c #F5F374",
"[ 	c #B8B856",
"} 	c #9B9544",
"| 	c #928D43",
"1 	c #9A9946",
"2 	c #706C31",
"3 	c #FFFF7C",
"4 	c #F3EB5A",
"5 	c #FFFE64",
"6 	c #FEFE6C",
"7 	c #FFFF73",
"8 	c #D4CD54",
"9 	c #44421B",
"0 	c #131205",
"a 	c #0E0E12",
"b 	c #A8A574",
"c 	c #E5DF4C",
"d 	c #F6EC3A",
"e 	c #EBE448",
"f 	c #F4EB44",
"g 	c #FEFC4C",
"h 	c #FFFE53",
"i 	c #FFFD5D",
"j 	c #FAF35C",
"k 	c #B9B249",
"l 	c #98933D",
"m 	c #AFA947",
"n 	c #8A8639",
"o 	c #1C1B0C",
"p 	c #FFFA46",
"q 	c #FDF545",
"r 	c #FCF43B",
"s 	c #F3EC63",
"t 	c #2A2A12",
"u 	c #373625",
"v 	c #777649",
"w 	c #E4DD64",
"x 	c #F8F36B",
"y 	c #8E893C",
"z 	c #787534",
"A 	c #5B5A2A",
"B 	c #A19A3C",
"C 	c #E5E367",
"D 	c #D3D35B",
"E 	c #DBD45B",
"F 	c #E3DB5C",
"G 	c #D6D464",
"H 	c #F4EC49",
"I 	c #F8EF3B",
"J 	c #EAEA62",
"K 	c #A39E4B",
"L 	c #393818",
"M 	c #333219",
"N 	c #646130",
"O 	c #555325",
"P 	c #CCC754",
"Q 	c #E9E55C",
"R 	c #C3BD51",
"S 	c #EDED68",
"T 	c #252413",
"U 	c #DDD84C",
"V 	c #686628",
"W 	c #211F0A",
"X 	c #413E1C",
"Y 	c #F4F24A",
"Z 	c #272507",
"` 	c #53531A",
" .	c #151519",
"..	c #CBC64A",
"+.	c #040517",
"@.	c #100F06",
"#.	c #FFFF8B",
"$.	c #AAA443",
"%.	c #B2AC48",
"&.	c #938D36",
"*.	c #252629",
"=.	c #857F29",
"-.	c #DAD555",
";.	c #262836",
">.	c #1B1800",
",.	c #35330C",
"'.	c #4B4A1C",
").	c #777229",
"!.	c #46440D",
"~.	c #454411",
"{.	c #514E23",
"].	c #66695F",
"^.	c #4C4C4C",
"/.	c #171919",
"(.	c #0E101E",
"_.	c #02020A",
":.	c #2C2E32",
"<.	c #36393C",
"[.	c #39382A",
"}.	c #2A2B2C",
"|.	c #D7D770",
"1.	c #5E6271",
"2.	c #575B6A",
"3.	c #414133",
"4.	c #CCCA5C",
"5.	c #3B3E42",
"6.	c #333434",
"7.	c #565B61",
"8.	c #C2BB45",
"9.	c #DDD43C",
"0.	c #A9A44A",
"a.	c #0F1010",
"b.	c #232324",
"c.	c #2E2D1A",
"d.	c #777C81",
"e.	c #595E63",
"f.	c #4A4E51",
"g.	c #1A1E34",
"h.	c #050925",
"i.	c #464B59",
"j.	c #D4CE4A",
"k.	c #E3DB54",
"l.	c #939896",
"m.	c #5E6469",
"n.	c #656B71",
"o.	c #CECE66",
"p.	c #837E37",
"q.	c #5C6166",
"r.	c #1F201E",
"s.	c #3E4144",
"t.	c #55585A",
"u.	c #A39D43",
"v.	c #4E535A",
"w.	c #171A26",
"x.	c #F6F05D",
"y.	c #353639",
"z.	c #4E5361",
"A.	c #4E5153",
"B.	c #1B1C1C",
"C.	c #2F3031",
"                                                                                                ",
"                                                                                                ",
"                    . + @ # $ $ $ $ $ @                                                         ",
"                    % . & * * = = * * - ;                                                       ",
"                      # > , , ' ) ! , ~ { # # ] ^ ^ ^ #                                         ",
"                      $ / ( ' _ _ : : < [ } } } | 1 } 2 .                                       ",
"                      $ * ' 3 4 4 4 4 4 5 6 6 5 5 6 7 8 9 ^ 0 ] ] ] ] 0 + +                     ",
"                      a b ( _ c d e d f g h h h h i i j k } l l m [ [ n o +                     ",
"                      @ = ) _ j g p q q q q q q r d d q 5 6 6 6 s 6 6 k t                       ",
"                      . u v w 7 6 5 5 5 i 5 5 i p d d r q 5 3 x y 2 z A                         ",
"                      + + 0 B C C D E F F w G F H r r I I h J K ] + +                           ",
"                        + + L A L M { A N O 9 A P i r q i Q z L                                 ",
"                          + + + @ # + + + + + M R 5 h h S m o                                   ",
"                                    T + + + N K U h 5 4 n L                                     ",
"                                    V T W { 8 6 h g Q m o                                       ",
"                                    n [ [ k H i 6 j n X                                         ",
"                                T ] m 7 7 i f Y F K ^ +                                         ",
"                        Z ` N N 2 l U g g h j 8 A o + +                                         ",
"                         .+ + ^ ..3 i I I h 6 P X 0 o t t t t o + + $                           ",
"                            +.@.P #.3 5 5 5 h e m } $.%.R D G &.. +                             ",
"                            *.# =.D D P D -.f g i 7 7 6 Q J J $.t ;.                            ",
"                            *.+ >.,.,.,.'.2 8 i g i 3 x ).!.~.{.].                              ",
"                            ^./.+.(. ._.+ # m 6 h Y U K :.+.+.<.                                ",
"                                        _.+ l 3 3 e V [.                                        ",
"                                        }.9 k < |.n + _.1.                                      ",
"                                    2.3.z [ C 4.A . + + +.;.5.6.T 6.                            ",
"                                  7.+ # 8.#.3 8.9 ] T M Z 0 + + + :.                            ",
"                                ^.@ + >.-._ i 9.%.0.m P D &.. + 5.                              ",
"                                6.a.b.[.| ..g h 5 7 7 7 S $.c.;.d.                              ",
"                                      e.T !.U 6 h h 3 s V c.f.                                  ",
"                                        g./.z 4.H H 8 n ^ h.                                    ",
"                                          i.; 9 j.k.V T <.                                      ",
"                                        l.m.a 9 w F Z _.                                        ",
"                                      n.<.u z 4.3 -.Z +                                         ",
"                                      2.+ # .._ o.p.W a                                         ",
"                                      q.+ . P < A # # r.                                        ",
"                                      s.u V U U V T # a.                                        ",
"                                  t.(.T u.Q Y Y Q $.W .                                         ",
"                                  v.(.r.l J h g Q $.M w.                                        ",
"                                    7.<.T V x.j V r.y.                                          ",
"                                      z._.. l 0.r.+.                                            ",
"                                      t.(.+ o t s.                                              ",
"                                      A.B.+ + w.q.                                              ",
"                                      f.@ . C.                                                  ",
"                                      v.b.b.    n.                                              ",
"                                                                                                ",
"                                                                                                ",
"                                                                                                "};
