#define m999_width 64
#define m999_height 64
static char m999_bits[] = {
   0x00, 0x00, 0x00, 0xc0, 0x01, 0x00, 0x00, 0x00, 0x00, 0x06, 0x5f, 0x20,
   0x02, 0xe6, 0x3f, 0x00, 0x00, 0xc9, 0x61, 0x10, 0x04, 0xc9, 0x30, 0x00,
   0x00, 0xc9, 0x40, 0x10, 0x04, 0xc9, 0x20, 0x00, 0x00, 0x66, 0x40, 0x10,
   0x04, 0xc6, 0x24, 0x00, 0x00, 0x60, 0x00, 0x10, 0x04, 0xc0, 0x04, 0x00,
   0x00, 0x60, 0x00, 0x10, 0x04, 0xc0, 0x07, 0x00, 0x00, 0x60, 0x00, 0x10,
   0x04, 0xc0, 0x04, 0x00, 0x00, 0x60, 0x00, 0x10, 0x04, 0xc0, 0x04, 0x00,
   0x00, 0xc0, 0x40, 0x10, 0x04, 0xc0, 0x00, 0x00, 0x00, 0xc0, 0x61, 0x10,
   0x04, 0xc0, 0x00, 0x00, 0x00, 0x00, 0x1f, 0x10, 0x04, 0xe0, 0x01, 0x00,
   0x00, 0x00, 0x00, 0x10, 0x04, 0x00, 0x00, 0x00, 0x00, 0x00, 0x00, 0x10,
   0x04, 0x00, 0x00, 0x00, 0x00, 0x00, 0x00, 0x10, 0x04, 0x00, 0x00, 0x00,
   0x00, 0x00, 0x00, 0x10, 0x04, 0x00, 0x00, 0x00, 0x00, 0x00, 0x00, 0x10,
   0x04, 0x00, 0x00, 0x00, 0x00, 0x00, 0x00, 0x10, 0x04, 0x00, 0x00, 0x00,
   0x00, 0x00, 0x00, 0x10, 0x04, 0x00, 0x00, 0x00, 0x00, 0x00, 0x00, 0x10,
   0x04, 0x00, 0x00, 0x00, 0x00, 0x00, 0x00, 0x10, 0x04, 0x00, 0x00, 0x00,
   0x00, 0x00, 0x00, 0x10, 0x04, 0x00, 0x00, 0x00, 0x00, 0x00, 0x00, 0x10,
   0x04, 0x00, 0x00, 0x00, 0x00, 0x00, 0x00, 0x10, 0x04, 0x00, 0x00, 0x00,
   0x00, 0x00, 0x00, 0x10, 0x04, 0x00, 0x00, 0x00, 0x00, 0x00, 0x00, 0x10,
   0x04, 0x00, 0x00, 0x00, 0x00, 0x00, 0x00, 0x10, 0x04, 0x00, 0x00, 0x00,
   0x00, 0x00, 0x00, 0x10, 0x04, 0x00, 0x00, 0x00, 0x00, 0x00, 0x00, 0x10,
   0x04, 0x00, 0x00, 0x00, 0x00, 0x00, 0x00, 0x10, 0x04, 0x00, 0x00, 0x00,
   0x00, 0x00, 0x00, 0x10, 0x04, 0x00, 0x00, 0x00, 0x00, 0x00, 0x00, 0x10,
   0x04, 0x00, 0x00, 0x00, 0x00, 0x00, 0x00, 0x10, 0x04, 0x00, 0x00, 0x00,
   0x00, 0x00, 0x00, 0x10, 0x04, 0x00, 0x00, 0x00, 0x00, 0x00, 0x00, 0x10,
   0x04, 0x00, 0x00, 0x00, 0x00, 0x00, 0x00, 0x10, 0x04, 0x00, 0x00, 0x00,
   0x00, 0x00, 0x00, 0x10, 0x04, 0x00, 0x00, 0x00, 0x00, 0x00, 0x00, 0x10,
   0x04, 0x00, 0x00, 0x00, 0x00, 0x00, 0x00, 0x10, 0x04, 0x00, 0x00, 0x00,
   0x00, 0x00, 0x00, 0x10, 0x04, 0x00, 0x00, 0x00, 0x60, 0x00, 0x00, 0x10,
   0x04, 0x60, 0x00, 0x00, 0x30, 0x00, 0x00, 0x10, 0x04, 0x30, 0x00, 0x00,
   0x18, 0x00, 0x00, 0x10, 0x04, 0x18, 0x00, 0x00, 0x0c, 0x00, 0x00, 0x10,
   0x04, 0x0c, 0x00, 0x00, 0x06, 0x00, 0x00, 0x10, 0x04, 0x06, 0x00, 0x00,
   0x03, 0x00, 0x00, 0x10, 0x04, 0x03, 0x00, 0x00, 0x06, 0x00, 0x00, 0x10,
   0x04, 0x06, 0x00, 0x00, 0x0c, 0x00, 0x00, 0x10, 0x04, 0x0c, 0x00, 0x00,
   0x18, 0x00, 0x00, 0x10, 0x04, 0x18, 0x00, 0x00, 0x30, 0x00, 0x00, 0x10,
   0x04, 0x30, 0x00, 0x00, 0x60, 0x00, 0x00, 0x10, 0x04, 0x60, 0x00, 0x00,
   0x00, 0x00, 0x00, 0x10, 0x04, 0x00, 0x00, 0x00, 0x00, 0x1e, 0x3c, 0xf8,
   0x0f, 0x00, 0xcc, 0x0f, 0x00, 0x73, 0x66, 0xfc, 0x1f, 0x00, 0xcf, 0x07,
   0x00, 0x63, 0x63, 0xfc, 0x1f, 0x00, 0x4c, 0x00, 0x00, 0x60, 0x03, 0xfe,
   0x3f, 0x00, 0x4c, 0x00, 0x00, 0x60, 0x3b, 0xfe, 0x3f, 0x00, 0x4c, 0x07,
   0x7f, 0x30, 0x77, 0xfe, 0x3f, 0x7f, 0xcc, 0x0e, 0x7f, 0x18, 0x63, 0xfe,
   0x3f, 0x7f, 0x0c, 0x0c, 0x00, 0x0c, 0x63, 0xfe, 0x3f, 0x00, 0x0c, 0x0c,
   0x00, 0x46, 0x63, 0xfc, 0x1f, 0x00, 0x6c, 0x0c, 0x00, 0x7f, 0x67, 0xfc,
   0x1f, 0x00, 0x6c, 0x0e, 0x00, 0x7f, 0x1e, 0xf8, 0x0f, 0x00, 0xcc, 0x03,
   0x00, 0x00, 0x00, 0xe0, 0x03, 0x00, 0x00, 0x00};
