#define face_width 64
#define face_height 64
static unsigned char face_bits[] = {
   0x00, 0x00, 0x00, 0x00, 0x00, 0x00, 0x00, 0x00, 0x00, 0x00, 0x1b, 0x00,
   0x00, 0x00, 0x00, 0x00, 0x24, 0x89, 0x20, 0x49, 0x92, 0x24, 0x49, 0x12,
   0x00, 0x00, 0x40, 0x0a, 0x00, 0x00, 0x00, 0x00, 0x00, 0x50, 0x00, 0x11,
   0x00, 0x00, 0x00, 0x20, 0x24, 0x03, 0x00, 0x20, 0x92, 0x24, 0x49, 0x02,
   0x40, 0x24, 0x00, 0x20, 0x00, 0x00, 0x00, 0x00, 0x00, 0x20, 0x00, 0xc0,
   0x00, 0x00, 0x00, 0x10, 0x14, 0x10, 0x00, 0x00, 0x49, 0x92, 0x24, 0x01,
   0x10, 0x10, 0x00, 0x00, 0x02, 0x00, 0x00, 0x20, 0x08, 0x00, 0x00, 0x00,
   0x04, 0x00, 0x00, 0x02, 0x08, 0x00, 0x00, 0x00, 0x24, 0x97, 0xf8, 0x00,
   0x00, 0x00, 0x00, 0x10, 0x20, 0x10, 0x02, 0x09, 0x04, 0x00, 0x00, 0x10,
   0x02, 0x20, 0x01, 0x24, 0x00, 0x00, 0x00, 0x48, 0x09, 0x40, 0x00, 0x08,
   0x04, 0x02, 0x01, 0x08, 0x08, 0x80, 0x00, 0x08, 0x80, 0x00, 0x00, 0x04,
   0x04, 0x40, 0x00, 0x10, 0x20, 0x01, 0x02, 0x00, 0x00, 0x00, 0x00, 0x10,
   0x00, 0x00, 0x41, 0xe1, 0x02, 0x00, 0x00, 0x00, 0x02, 0x02, 0x10, 0x08,
   0x02, 0x00, 0x00, 0x20, 0x00, 0x40, 0x00, 0x04, 0x00, 0x00, 0x00, 0x20,
   0x24, 0x28, 0x00, 0x00, 0x04, 0x00, 0x00, 0x20, 0x00, 0x00, 0x21, 0x02,
   0x00, 0x00, 0x00, 0x00, 0x80, 0x00, 0xd4, 0x02, 0x00, 0x00, 0x00, 0x20,
   0x04, 0x00, 0x02, 0x00, 0x00, 0x00, 0x00, 0x00, 0x10, 0x24, 0x00, 0x04,
   0x00, 0x00, 0x01, 0x28, 0x40, 0x80, 0x00, 0x00, 0x00, 0x00, 0x00, 0x00,
   0x80, 0x00, 0x00, 0x00, 0x00, 0x00, 0x01, 0x20, 0x04, 0x44, 0x00, 0x00,
   0x00, 0xc0, 0x00, 0x00, 0x40, 0x4d, 0x00, 0x00, 0x40, 0x80, 0x00, 0x40,
   0x10, 0x90, 0x00, 0x00, 0x00, 0xd1, 0x00, 0x04, 0x08, 0x00, 0x02, 0x00,
   0x00, 0xc4, 0x00, 0x44, 0x04, 0x00, 0x00, 0x08, 0x40, 0x80, 0x01, 0x00,
   0x04, 0x00, 0x00, 0x20, 0x14, 0x80, 0x01, 0x42, 0x02, 0x00, 0x00, 0x80,
   0x06, 0x80, 0x01, 0x01, 0x02, 0x00, 0x00, 0x00, 0x0c, 0x00, 0x43, 0x40,
   0x00, 0x00, 0x00, 0x00, 0x18, 0x00, 0x2b, 0x00, 0x01, 0x00, 0x00, 0x00,
   0x30, 0x00, 0x03, 0x40, 0x00, 0x00, 0x00, 0x00, 0x60, 0x00, 0x06, 0x00,
   0x01, 0x00, 0x00, 0x28, 0xc8, 0x00, 0x06, 0x40, 0x00, 0x00, 0x00, 0x80,
   0x82, 0x11, 0x06, 0x00, 0x02, 0x00, 0x00, 0x00, 0x00, 0x0b, 0x1c, 0x20,
   0x00, 0x00, 0x00, 0x00, 0x00, 0x22, 0x0c, 0x00, 0x24, 0x00, 0x00, 0x00,
   0x10, 0x04, 0x1c, 0x10, 0x10, 0x00, 0x00, 0x00, 0x00, 0x00, 0x18, 0x08,
   0x10, 0x00, 0x00, 0x00, 0xd0, 0x07, 0x58, 0x08, 0x00, 0x00, 0x00, 0x00,
   0xc0, 0x40, 0x1a, 0x45, 0x10, 0x00, 0x02, 0x00, 0x80, 0x11, 0x22, 0x01,
   0x20, 0x00, 0x00, 0x00, 0x21, 0x01, 0x88, 0x08, 0x21, 0x00, 0x02, 0x00,
   0x00, 0x85, 0x10, 0x01, 0x00, 0x00, 0x00, 0x80, 0x00, 0x04, 0x42, 0x10,
   0x00, 0x01, 0x05, 0x00, 0x41, 0x11, 0x91, 0x02, 0x04, 0x42, 0x00, 0x10,
   0x8a, 0x14, 0x02, 0x20, 0x10, 0x10, 0x10, 0x20, 0x28, 0x16, 0x42, 0x04,
   0x00, 0x00, 0xa0, 0x82, 0x08, 0x46, 0x00, 0x01, 0x00, 0x00, 0x01, 0x00,
   0x01, 0x1c, 0x44, 0x25, 0x24, 0x21, 0x00, 0x48, 0x14, 0xa2, 0x03, 0x04,
   0x00, 0x02, 0x00, 0x80, 0x00, 0x04, 0x03, 0x01, 0x00, 0x80, 0x24, 0x41,
   0x0a, 0x20, 0x01, 0x0a, 0x24, 0x08, 0x00, 0x44, 0x00, 0xa0, 0x83, 0x20,
   0x00, 0x00, 0x00, 0x00, 0x01, 0xc1, 0x81, 0x00, 0x00, 0x21, 0x49, 0x80,
   0xc4, 0x6b, 0x49, 0x02, 0x24, 0x00, 0x00, 0x12, 0xce, 0xf7, 0x7b, 0x10,
   0x00, 0x04, 0x00, 0x00, 0xbe, 0xff, 0x3f, 0x00 };
