#define dectalk_width 48
#define dectalk_height 48
static unsigned char dectalk_bits[] = {
   0x00, 0x00, 0x00, 0x00, 0x00, 0x00, 0x00, 0x00, 0x00, 0x00, 0x00, 0x00,
   0x00, 0x00, 0x00, 0x00, 0x00, 0x00, 0x00, 0x00, 0x00, 0x00, 0x00, 0x00,
   0x00, 0x00, 0x00, 0x00, 0x00, 0x00, 0x00, 0x00, 0x00, 0x00, 0x00, 0x00,
   0x00, 0x00, 0x00, 0x00, 0x00, 0x00, 0x00, 0x00, 0x00, 0x00, 0x00, 0x00,
   0x00, 0x00, 0xf1, 0x07, 0x00, 0x00, 0x00, 0x80, 0xf8, 0x1f, 0x01, 0x00,
   0x00, 0x40, 0x1c, 0x38, 0x02, 0x00, 0x00, 0x40, 0x2c, 0x70, 0x04, 0x00,
   0x00, 0x40, 0x4c, 0xe0, 0x08, 0x00, 0x00, 0x40, 0x9c, 0xc0, 0x11, 0x00,
   0x00, 0x80, 0x38, 0x8f, 0x23, 0x00, 0x00, 0x00, 0x71, 0x1f, 0x47, 0x00,
   0x00, 0x00, 0xe0, 0x3b, 0x0e, 0x00, 0x00, 0x00, 0xc0, 0x71, 0x1c, 0x00,
   0x00, 0x00, 0x00, 0xe0, 0x38, 0x00, 0x00, 0x00, 0x00, 0xc0, 0x71, 0x00,
   0x00, 0x00, 0x07, 0x8e, 0x63, 0x00, 0x00, 0x00, 0x05, 0x0a, 0xc3, 0x00,
   0x00, 0x00, 0x05, 0x8a, 0xc3, 0x00, 0x00, 0x80, 0xff, 0xdf, 0xc3, 0x00,
   0x00, 0xc0, 0xff, 0xff, 0xc4, 0x00, 0x00, 0xe0, 0x00, 0xf0, 0xc9, 0x00,
   0x00, 0x60, 0x6c, 0xe3, 0xd3, 0x00, 0x00, 0x70, 0x00, 0xe0, 0xe7, 0x00,
   0x00, 0x70, 0x6c, 0xe3, 0x7e, 0x00, 0x00, 0x70, 0x00, 0xe0, 0x3c, 0x00,
   0x00, 0x78, 0x6c, 0xe3, 0x60, 0x00, 0x00, 0x54, 0x00, 0xa0, 0x63, 0x00,
   0x00, 0xd2, 0xff, 0xbf, 0x67, 0x00, 0x00, 0x51, 0x00, 0xa0, 0x7c, 0x00,
   0x00, 0x51, 0x00, 0xa0, 0x38, 0x00, 0x00, 0x51, 0x00, 0xa0, 0x00, 0x00,
   0x00, 0x61, 0x00, 0x60, 0x00, 0x00, 0x00, 0xe2, 0xff, 0x7f, 0x00, 0x00,
   0x00, 0xc4, 0xff, 0x3f, 0x00, 0x00, 0x00, 0x84, 0x01, 0x18, 0x00, 0x00,
   0x00, 0x00, 0x00, 0x00, 0x00, 0x00, 0x00, 0x00, 0x00, 0x00, 0x00, 0x00,
   0x00, 0x00, 0x00, 0x00, 0x00, 0x00, 0x00, 0x00, 0x00, 0x00, 0x00, 0x00,
   0x00, 0x00, 0x00, 0x00, 0x00, 0x00, 0x00, 0x00, 0x00, 0x00, 0x00, 0x00,
   0x00, 0x00, 0x00, 0x00, 0x00, 0x00, 0x00, 0x00, 0x00, 0x00, 0x00, 0x00 };
