#define face_width 64
#define face_height 64
static unsigned char face_bits[] = {
   0x00, 0x00, 0x00, 0x00, 0x00, 0x00, 0x00, 0x00, 0x00, 0x00, 0x00, 0x00,
   0x00, 0x00, 0x00, 0x00, 0x24, 0x49, 0xd2, 0x49, 0x92, 0x24, 0x49, 0x22,
   0x00, 0x00, 0x20, 0x06, 0x00, 0x00, 0x00, 0x00, 0x00, 0x00, 0x15, 0x04,
   0x00, 0x00, 0x00, 0x04, 0x48, 0x12, 0x50, 0x44, 0x92, 0x24, 0x49, 0x10,
   0x00, 0x40, 0x70, 0x16, 0x0f, 0x00, 0x00, 0x00, 0x01, 0x00, 0x00, 0x44,
   0x30, 0x34, 0x00, 0x01, 0x48, 0x25, 0x00, 0x40, 0x20, 0x43, 0x09, 0x24,
   0x00, 0x04, 0x00, 0x22, 0x42, 0x42, 0x20, 0x00, 0x20, 0x20, 0x80, 0xa1,
   0x40, 0x48, 0x00, 0x00, 0x84, 0x03, 0x70, 0x40, 0x09, 0x40, 0x84, 0x24,
   0x10, 0xfc, 0x07, 0x80, 0x23, 0x41, 0x20, 0x00, 0x00, 0x00, 0x00, 0x00,
   0x24, 0xa4, 0x00, 0x00, 0x08, 0x3c, 0x00, 0x00, 0x90, 0x30, 0x54, 0x09,
   0x00, 0xe0, 0x01, 0x00, 0x08, 0x18, 0x00, 0x11, 0x04, 0x00, 0x1e, 0x00,
   0x13, 0x86, 0x00, 0x00, 0x00, 0x00, 0xc0, 0xff, 0x81, 0x00, 0x00, 0x08,
   0x04, 0x00, 0x00, 0x00, 0x08, 0x80, 0x00, 0x20, 0x80, 0x1c, 0x00, 0x04,
   0x80, 0x0f, 0x00, 0x00, 0x10, 0x60, 0x02, 0x00, 0xc2, 0x10, 0x00, 0x00,
   0x00, 0x80, 0x03, 0xa1, 0x40, 0x10, 0x00, 0x20, 0x20, 0x02, 0x08, 0x14,
   0x40, 0x00, 0x00, 0x00, 0x04, 0x40, 0xe0, 0x03, 0x00, 0x00, 0x00, 0x20,
   0x40, 0x08, 0x02, 0x0c, 0x00, 0x10, 0x00, 0x00, 0x00, 0x00, 0x10, 0xe0,
   0x01, 0x0c, 0x00, 0x20, 0x84, 0x10, 0xa4, 0x02, 0xfc, 0x07, 0x00, 0x00,
   0x00, 0x81, 0x00, 0x00, 0x00, 0x00, 0x00, 0x20, 0x08, 0x20, 0x00, 0x00,
   0x00, 0x00, 0x00, 0x00, 0x00, 0x02, 0x00, 0x00, 0x00, 0x00, 0x00, 0x10,
   0x08, 0x40, 0x00, 0x00, 0x00, 0x00, 0x01, 0x00, 0x40, 0x04, 0x00, 0x00,
   0x00, 0x80, 0x00, 0x20, 0x10, 0x49, 0x00, 0x00, 0x00, 0x80, 0x00, 0x00,
   0x11, 0x10, 0x00, 0x00, 0x00, 0xd0, 0x00, 0x40, 0x00, 0x00, 0x02, 0x00,
   0x00, 0xc4, 0x00, 0x00, 0x02, 0x00, 0x00, 0x00, 0x40, 0x80, 0x01, 0x00,
   0x00, 0x00, 0x00, 0x00, 0x10, 0x80, 0x01, 0x00, 0x00, 0x08, 0x00, 0x00,
   0x06, 0x80, 0x01, 0x40, 0x02, 0x12, 0x00, 0x00, 0x0c, 0x00, 0x03, 0x00,
   0x80, 0x22, 0x00, 0x00, 0x18, 0x00, 0x23, 0x00, 0x00, 0x40, 0x00, 0x00,
   0x30, 0x00, 0x03, 0x00, 0x00, 0x00, 0x00, 0x00, 0x60, 0x00, 0x06, 0x40,
   0x00, 0x20, 0x00, 0x20, 0xc0, 0x00, 0x06, 0x00, 0x00, 0x10, 0x00, 0x00,
   0x82, 0x01, 0x06, 0x00, 0x00, 0x08, 0x00, 0x00, 0x00, 0x03, 0x0c, 0x00,
   0x00, 0x04, 0x00, 0x00, 0x00, 0x06, 0x0c, 0x20, 0x04, 0x08, 0x00, 0x00,
   0x00, 0x0c, 0x0c, 0x00, 0x08, 0x00, 0x00, 0x00, 0x00, 0x18, 0x18, 0x08,
   0x00, 0x00, 0x00, 0x00, 0xe0, 0x3f, 0x18, 0x00, 0x00, 0x04, 0x00, 0x00,
   0xc0, 0x00, 0x98, 0x24, 0x08, 0x08, 0x00, 0x00, 0x80, 0x01, 0x30, 0x00,
   0x00, 0x00, 0x00, 0x00, 0x00, 0x03, 0xb0, 0x00, 0x20, 0x00, 0x00, 0x00,
   0x00, 0x86, 0x3f, 0x12, 0x02, 0x00, 0x00, 0x00, 0x00, 0x0c, 0x03, 0x00,
   0x80, 0x00, 0x01, 0x00, 0x01, 0x18, 0x43, 0x20, 0x08, 0x00, 0x00, 0x20,
   0x20, 0x30, 0x06, 0x02, 0x00, 0x22, 0x08, 0x00, 0x04, 0x7f, 0x06, 0x00,
   0x21, 0x00, 0x81, 0x04, 0x00, 0x06, 0x4c, 0x10, 0x00, 0x04, 0x00, 0x20,
   0x48, 0x0c, 0x0c, 0x01, 0x44, 0x20, 0x10, 0x00, 0x01, 0x98, 0x0f, 0x10,
   0x00, 0x00, 0x41, 0x42, 0x00, 0x30, 0x01, 0x02, 0x80, 0x04, 0x02, 0x04,
   0x24, 0x61, 0x49, 0x00, 0x04, 0x20, 0x00, 0x00, 0x00, 0xc0, 0x01, 0x48,
   0x10, 0x00, 0x48, 0x88, 0x00, 0x84, 0x81, 0x00 };
