/* XPM */
static char *boomerang[] = {
/* width height ncolors chars_per_pixel */
"32 32 14 1",
/* colors */
"` c wheat",
"a c firebrick",
"b c peru",
"c c sky blue",
"d c grey",
"e c sienna",
"f c red",
"g c navy blue",
"h c tomato",
"i c orange",
"j c white",
"k c slate grey",
"l c lemon chiffon",
"m c blue",
/* pixels */
"jjjjjjjjjjjjjjj```````llcjjjjjjj",
"jjjjjjjjjjj````iiiiiiijjmclljjjj",
"jjjjjjjj```iiieeebbeebjjmmjjhhhj",
"jjjjjj``iieebeebbebebbllmmjjfffa",
"jjjjj`ieeeebebeeebebebddmmddffaa",
"jjjj`iebeeeebeeeeeeeeekkggkkaaaj",
"jjj`iebeeeeeeeeeegggeejjjjjjjjjj",
"jjj`ibeeeeeeeeegejjjjjjjjjjjjjjj",
"jj`ieeeeeeeeegejjjjjjjjjjjjjjjjj",
"jj`ieeeeeeeegjjjjjjjjjjjjjjjjjjj",
"jj`eeeeeeeegjjjjjjjjjjjjjjjjjjjj",
"j`ieeeeeeegjjjjjjjjjjjjjjjjjjjjj",
"j`ieeeeeegjjjjjjjjjjjjjjjjjjjjjj",
"j`ieeeeegjjjjjjjjjjjjjjjjjjjjjjj",
"j`eeeeeeejjjjjjjjjjjjjjjjjjjjjjj",
"`iebeeegjjjjjjjjjjjjjjjjjjjjjjjj",
"`iebeeeejjjjjjjjjjjjjjjjjjjjjjjj",
"`ibeeegjjjjjjjjjjjjjjjjjjjjjjjjj",
"`ibeeegjjjjjjjjjjjjjjjjjjjjjjjjj",
"`ieeeegjjjjjjjjjjjjjjjjjjjjjjjjj",
"`ibeeeejjjjjjjjjjjjjjjjjjjjjjjjj",
"`ibbbbejjjjjjjjjjjjjjjjjjjjjjjjj",
"ljjldkjjjjjjjjjjjjjjjjjjjjjjjjjj",
"ljjldkjjjjjjjjjjjjjjjjjjjjjjjjjj",
"cmmmmgjjjjjjjjjjjjjjjjjjjjjjjjjj",
"jcmmmgjjjjjjjjjjjjjjjjjjjjjjjjjj",
"jljjdkjjjjjjjjjjjjjjjjjjjjjjjjjj",
"jljjdkjjjjjjjjjjjjjjjjjjjjjjjjjj",
"jjhffajjjjjjjjjjjjjjjjjjjjjjjjjj",
"jjhffajjjjjjjjjjjjjjjjjjjjjjjjjj",
"jjhfaajjjjjjjjjjjjjjjjjjjjjjjjjj",
"jjjaajjjjjjjjjjjjjjjjjjjjjjjjjjj"
};
