/* XPM */
static char * tits_xpm[] = {
/* width height ncolors chars_per_pixel */
"32 32 8 1",
/* colors */
" 	c black",
".	c cyan",
"X	c sea green",
"o	c red",
"O	c yellow",
"+	c white",
"@	c firebrick",
"#	c sienna",
/* pixels */
"                                ",
"  ............................  ",
" . .......................... X ",
" ..                          XX ",
" .. oOoOoOoOoOoOoOoOoOoOoOoO XX ",
" .. +o+o+o+o+@#o+o#@+o+o+o+o XX ",
" .. oOoOoOoOoOo#@#oOoOoOoOoO XX ",
" .. +o+o+o+o+o+o#o+o+o+o+o+o XX ",
" .. oO@OoOoOoOoOoOoOoOoOo#oO XX ",
" .. +o#o+o+o+o+o+o+o+o+o+@+o XX ",
" .. oO@OoOoOoOoOoOoOoOoOo#@O XX ",
" .. O@#o+o+o+o+o+o+o+o+o+o#o XX ",
" .. @#@OoOoOoOoOoOoOoOoOoO@#@XX ",
" ..@#o+o+o+o+o+o+o+o+o+o+o+@#@X ",
" .@#oOoOoOoOoOoOoOoOoOoOoOo+@#X ",
" .#o+o#@#@#o+o+o+o+o+o#@#@#o+@# ",
" #@Oo#@#@#@OoOo#oOoOo#@#@#@#oO@ ",
" @#o+@#@O@#@+o+@#o+o+@#@O@#@+o# ",
" #@Oo#@ # @#oOo#@OoOo#@ # @#oO@ ",
" @#o+@#@ @#@+o#@#@+o+@#@ @#@+o# ",
" #@OoO@#@#@OoO@#@#oOoO@#@#@OoO@ ",
" @#@+o+o+o+o+@#@#@#o+o+o+o+o+@# ",
" #@#@OoOoOoO@#@#@#@#oOoOoOoO@#@ ",
" @#@#@+o+o+@#@#oO@#@#o+o+o+@#@# ",
" .@#@#@#@#@#@#@OoO@#@#@#@#@#@@X ",
" .. #@#@#@#@#@+o+oO@#@#@#@#@@XX ",
" ..  #@#@#@#@OoOoOoO@#@#@#@  XX ",
" ..   #@#@#@#@#@#@#@#@#@#@   XX ",
" ..                          XX ",
" . XXXXXXXXXXXXXXXXXXXXXXXXXX X ",
"  XXXXXXXXXXXXXXXXXXXXXXXXXXXX  ",
"                                "};
