/* XPM */
static char * button_paint_xpm[] = {
/* width height ncolors chars_per_pixel */
"32 32 6 1",
/* colors */
" 	c black",
".	c grey",
"X	c white",
"o	c green",
"O	c sea green",
"+	c slate grey",
/* pixels */
"                           .XX..",
" XooOoOoOoOoOoOoOoOoOoOo+ .XX...",
" OXooOoOoOoOoOoOoOoOoOo+ .XX...+",
" oOXooOoOoOoOoOoOoOoOo+ .XX...+.",
" OoOXXXXXXXXXXXXXXXXXO .XX...+.+",
" oOoXoooooooooooooooO .XX...+.+ ",
" OoOXooooooooooooooo +XX...+.+  ",
" oOoXoooooooooooooo  .XX..+.+ O ",
" OoOXoooooooooooo   ++XX.+.+ O  ",
" oOoXoooooooooo  ++  ++XXX+ O O ",
" OoOXooooooooo  ++++  ++.  O O  ",
" oOoXoooooooo  ++++ +  +  OOO O ",
" OoOXoooooooo +++  + +   OOO O  ",
" oOoXooooooo +++  + +    OOOO o ",
" OoOXooooooo  +  + + +  OOOO o  ",
" oOoXoooooo  ++ +   +   OOOoo o ",
" OoOXoooooo ++         OOOOo o  ",
" oOoXooooo             OOOooo o ",
" OoOXooooo  o o       OOOOoo o  ",
" oOoXoooo  o o OOO   OOOOoooo o ",
" OoOoooo  o oOOO   OOOOOoooo o  ",
" oOoooo OOOOO   OOOOOOooooooo o ",
"XXooo        OOOOOOOoooooooo o  ",
"XXXXXoOOOOOOOOOOOoooooooooooo o ",
"XXXXXXXXXXXXoooooooooooooooo o  ",
"XXXXXXXXXXXXooooooooooooooooo o ",
"XXXXXXXXXXXooooooooooooooooo o  ",
"XXXXXXXXXXooooooooooooooooooo o ",
"XXXXXXXXXX o o o o o o o o o o  ",
"XXXXXXXXXXX o o o o o o o o o o ",
"XXXXXXXXXXXX o o o o o o o o o  ",
"XXXXXXXXXXX                     "};
