/* XPM */
static char *chess3[] = {
/* width height ncolors chars_per_pixel */
"32 32 3 1",
/* colors */
"` c black",
"a c tan",
"b c gainsboro",
/* pixels */
"bbbbbbbbbbbbbbbbbbbbbbbbbbbbbbbb",
"b``````````````````````````````b",
"b`aaaaaaaaaaaaaaaaaaaaaaaaaaaa`b",
"b`aaaaaaaaaaaa`aaaaaaaaaaaaaaa`b",
"b`aaaaaaaaaa`a`aaaaaaaaaaaaaaa`b",
"b`aaaaaaaaaa```aaaaaaaaaaaaaaa`b",
"b`aaaaaaaaaa``````aaaaaaaaaaaa`b",
"b`aaaaaaaaaa``````````aaaaaaaa`b",
"b`aaaaaaaa``aa```a````aaaaaaaa`b",
"b`aaaaaaa`````````a````aaaaaaa`b",
"b`aaaaa`````````````a````aaaaa`b",
"b`aaaa```````````````a```aaaaa`b",
"b`aaaa`````````````a``a```aaaa`b",
"b`aaa``````````````````````aaa`b",
"b`aa``````````````a```````aaaa`b",
"b`aa``````````aa````a```a```aa`b",
"b`a````a``aaaaaa`aa``````a`aaa`b",
"b`a```a```aaaaaa`````a```a`aaa`b",
"b`a``aa`aaaaaaa`aaa``````a`````b",
"b`aaaa`aaaaaaa```````````a``aa`b",
"b`aaaaaaaaaaaa``````````````aa`b",
"b`aaaaaaaaaaa``````````````````b",
"b`aaaaaaaaaa``````````````a``a`b",
"b`aaaaaaaaa```````````````a````b",
"b`aaaaaaaaa```````````````a````b",
"b`aaaaaaaa````````````````a``a`b",
"b`aaaaaaaa````````````````a````b",
"b`aaaaaaa`````````````````a``a`b",
"b`aaaaaaa`````````````````a``a`b",
"b`aaaaaa``````````````````a````b",
"b``````````````````````````````b",
"bbbbbbbbbbbbbbbbbbbbbbbbbbbbbbbb"
};
