/* XPM */
static char * dir_applications_big_xpm[] = {
"32 32 11 1",
" 	c none",
".	c #CF3CC71B71C6",
"X	c #FFFFFFFFFFFF",
"o	c #F7DEDF7DB6DA",
"O	c #DF7DDF7DDF7D",
"+	c #FFFFF7DE8E38",
"@	c #8E388A288E38",
"#	c #410345144103",
"$	c #9E79659530C2",
"%	c #618530C20000",
"&	c #30C200000000",
"                                ",
"                                ",
"                                ",
"                                ",
"     ......                     ",
"    ........                    ",
"   ..........                   ",
"  ............                  ",
" .............................. ",
" ooooooooooooooooooooooooooooo. ",
" oooooooooooooOOOOO+OOoooooooo. ",
" oooooooooooOO@@@@@@@#oooooooo. ",
" ooooooooooO@ @@@@@ ##oooooooo. ",
" oooooooooO oo  @@ o  oooooooo. ",
" oooooooooOooooO@ oooooooooooo. ",
" ooooooooooooooO@ oooooooooooo. ",
" ooooooooooooooO@ oooooooooooo. ",
" ooooooooooooooO@ oooooooooooo. ",
" ooooooooooooo$%%& ooooooooooo. ",
" ooooooooooooo$%%& ooooooooooo. ",
" ooooooooooooo$%%& ooooooooooo. ",
" ooooooooooooo$%%& ooooooooooo. ",
" ooooooooooooo$%%& ooooooooooo. ",
" ooooooooooooo$%%& ooooooooooo. ",
" ooooooooooooo$%%& ooooooooooo. ",
" oooooooooooooo   oooooooooooo. ",
" ooooooooooooooooooooooooooooo. ",
"                                ",
"                                ",
"                                ",
"                                ",
"                                "};
