/* XPM */
static char * image[] = {
"32 32 17 1",
"  c none",
"a c black",
"b c navy",
"c c green4",
"d c turquoise4",
"e c red4",
"f c magenta4",
"g c gold4",
"h c SlateGrey",
"i c grey75",
"j c blue",
"k c green",
"l c cyan",
"m c red",
"n c magenta",
"o c LightYellow1",
"p c white",
"                                ",
"                                ",
"                                ",
"                                ",
"      aaaaaaaaaaaa              ",
"      aiiiiiiiiiiia             ",
"      aiiiiiiiiiiiaa            ",
"      aiiiiiiiiiiiaaa           ",
"      aiiiiiiiiiiiaaaa          ",
"      aiiiiiiiiiiiaaaaa         ",
"      aiibiiibiiiiaaaaaa        ",
"      aibbiiibbiiiaaaaaaa       ",
"      aibbiiibbiiiiiiiiiia      ",
"      aibbiiibbiiiiiiiiiia      ",
"      aiibbibbiiiiiiiiiiia      ",
"      aiiibbbiiiiiiiiiiiia      ",
"      aiiibbbiiiiiiiiiiiia      ",
"      aiiibbbiiiiiiiiiiiia      ",
"      aiiibbbiiiiiiiiiiiia      ",
"      aiiibbbiiiiiiiiiiiia      ",
"      aiiibbbiiiiiiiiiiiia      ",
"      aiiibbbiiiiiiiiiiiia      ",
"      aiiibbbiiiiiiiiiiiia      ",
"      aiiibbbiiiiiiiiiiiia      ",
"      aiiibbbiiiiiiiiiiiia      ",
"      aiiibbbiiiiiiiiiiiia      ",
"      aiibbibbiiiiiiiiiiia      ",
"      aabbaaabbaaaaaaaaaaa      ",
"        bb   bb                 ",
"        bb   bb                 ",
"         b   b                  ",
"                                "};
