/* XPM */
static char * fillOp_xpm[] = {
"32 32 3 1",
" 	c #FFFFFFFFFFFF",
".	c #000000000000",
"X	c #E6E65858D8D8",
"                                ",
"                                ",
"                                ",
"                                ",
"         ..                     ",
"         . ..                   ",
"        .    ..                 ",
"        .      ..               ",
"       ..        ..             ",
"       .           ..           ",
"      .             ..          ",
"      .XXXXXXXXXXXX.  X         ",
"     ..XXXXXXXXXXX.   X         ",
"     .XXXXXXXXXXXX.  XX         ",
"    .XXXXXXXXXXXX.   XX         ",
"    .XXXXXXXXXXXX.    XX        ",
"   .XXXXXXXXXXXX.     XX        ",
"   ..XXXXXXXXXXX.     XXX       ",
"    ...XXXXXXXX.       XX       ",
"      ..XXXXXXX.       X        ",
"        ...XXX.        X    .   ",
"          .....       XX   .    ",
"            ..        XX   .    ",
"                .     XXX  .    ",
"                ...  XXXX     ..",
"                      XXX .     ",
"                 X   XXXXX X   .",
"  X  XXXX XXX X  XXXXXXXXXXXXXX ",
"XXXXXXXXXXXXXXXXXXXXXXXXXXXXXXXX",
"XXXXXXXXXXXXXXXXXXXXXXXXXXXXXXXX",
"XXXXXXXXXXXXXXXXXXXXXXXXXXXXXXXX",
"XXXXXXXXXXXXXXXXXXXXXXXXXXXXXXXX"};
