/* XPM */
static char *lightnin_xpm[] = {
/* width height ncolors chars_per_pixel */
"32 32 3 1",
/* colors */
"` c black",
"a c yellow",
"b c slate grey",
/* pixels */
"````````````````````````````````",
"```````````````````````a````````",
"``````````````````````ab````````",
"`````````````````````aa`````````",
"````````````````````bab`````````",
"```````````````````baa``````````",
"``````````````````baab``````````",
"``````````````````aaa```````````",
"`````````````````aaab```````````",
"````````````````aaaa````````````",
"```````````````baaab````````````",
"```````````````aaaa`````````````",
"``````````````aaaab`````````````",
"`````````````aaaaa``````````````",
"````````````baaaaaaaaaaa````````",
"```````````baaaaaaaaaaa`````````",
"``````````baaaaaaaaaaa``````````",
"`````````baaaaaaaaaaa```````````",
"```````````````aaaaa````````````",
"``````````````aaaaab````````````",
"`````````````baaaab`````````````",
"`````````````aaaab``````````````",
"````````````aaaaa```````````````",
"```````````baaaa````````````````",
"```````````aaaa`````````````````",
"``````````baaa``````````````````",
"``````````aaab``````````````````",
"`````````aaab```````````````````",
"````````baab````````````````````",
"````````aab`````````````````````",
"```````bab``````````````````````",
"```````ab```````````````````````"
};
