/* XPM */
static char *pallete[] = {
/* width height ncolors chars_per_pixel */
"32 32 12 1",
/* colors */
"` c green",
"a c wheat",
"b c dodger blue",
"c c firebrick",
"d c peru",
"e c sienna",
"f c dark slate grey",
"g c red",
"h c white",
"i c yellow",
"j c orange",
"k c sea green",
/* pixels */
"hhhhhhhhhheeeeeeeeeeeeeehhhhhhhh",
"hhhhhhhheeaaaaaaaaaaaaaaeehhhhhh",
"hhhhhhheaaaaaaaaaaaaaaaaaaehhhhh",
"hhhhhheaaaaagggaaaaaaaaaaaaehhhh",
"hhhhheaaaaaggggcaaaaaaiiiaaaehhh",
"hhhheaaaaaaggggcaaaaaiiiijaaehhh",
"hhheaaaaaaagggccaaaaaiiiijaaaehh",
"hhheaaaaaaaacccaaaaaaiiijjaaaehh",
"hheaaaaaaaaaaaaaaaaaaajjjaaaaach",
"hheaaaaaaaaaaaaaaaaaaaaaaaaaaach",
"hheaa```aaaaaaaccccaaaaaaaaaaach",
"heaa````kaaaaacckkkkaaaaaaaaackh",
"heaa````kaaaacckhhhheaaaaaacckhh",
"caaa```kkaaaackhhhhheaaaccckkhhh",
"caaaakkkaaaaaakhhhheaacchhhhhhhh",
"caaaaaaaaaaaaaaeeeeaachhhhhhhhhh",
"caaaaaaaaaaaaaaaaaaaachhhhhhhhhh",
"caaaaaaaaaaaaaaaaaaaachhhhhhhhhh",
"caaaaaaaaaaaaaaaaaaaachhhhhhhhhh",
"caaajjjaaaaaaaaaaaaaaachhhhhhhhh",
"caajjjjdaaaaaaaaaaaaaachhhhhhhhh",
"caajjjjdaaaaaaaaaaaaaaakhhhhhhhh",
"caajjjddaaaaaaaaaaaaaaakhhhhhhhh",
"caaadddaaaaaaaaaaaaaaaakhhhhhhhh",
"caaaaaaaaaabbbaaaaaaaackhhhhhhhh",
"hcaaaaaaaabbbbfaaaaaaackhhhhhhhh",
"hcaaaaaaaabbbbfaaaaaackhhhhhhhhh",
"hhcaaaaaaabbbffaaaaackhhhhhhhhhh",
"hhhcaaaaaaafffaaaaackhhhhhhhhhhh",
"hhhhcaaaaaaaaaaaaackhhhhhhhhhhhh",
"hhhhhccaaaaaaaaacckhhhhhhhhhhhhh",
"hhhhhhhkkkkkkkkkkhhhhhhhhhhhhhhh"
};
