/* XPM */
static char *radar[] = {
/* width height ncolors chars_per_pixel */
"32 32 4 1",
/* colors */
"` c black",
"a c grey",
"b c white",
"c c slate grey",
/* pixels */
"bbbbbbbbbbbbbbbbbbbbbbbbbbbbbbbb",
"bbbbbbbbbbbbbbbbbbbbbbbbbbbbbbbb",
"bbbbbb````bbbbbbbbbbbbbbbbbbbbbb",
"bbbbb`bbbb``bbbbbbbbbbbbbbbbbbbb",
"bbbbb`baaabb``bbbbbbbbbbbbbbbbbb",
"bbbbb`aaaaaabb`bbbbbbb``abbbbbbb",
"bbbbb``aaaaaaab`bbbbb`ba`bbbbbbb",
"bbbbb``aaaaaaaab`bbb`baa`bbbbbbb",
"bbbbb`a`aaaaaaaab`b`````bbbbbbbb",
"bbbbb`a`aaaaaaaaab``bbbbbbbbbbbb",
"bbbbb`aa`aaaaaaaa```bbbbbbbbbbbb",
"bbbbbb`a``aaaaaa``ab`bbbbbbbbbbb",
"bbbbbb`aa``aaaa``aaab`bbbbbbbbbb",
"bbbbbb`aac``aa``aaaaab`bbbbbbbbb",
"bbbbbbb`acc````aaaaaaab`bbbbbbbb",
"bbbbbbb`accc``aaaaaaaaab`bbbbbbb",
"bbbbbbb`aaccc``aaaaaaaaab`bbbbbb",
"bbbbbbbb`acccc``aaaaaaaab`bbbbbb",
"bbbbbb```accccc``aaaaaaaab`bbbbb",
"bbbbb`ac``cccccc``aaaaaaaab`bbbb",
"bbbbb`acc``cccccc``aaaaaaab`bbbb",
"bbbbb`aacc``cccccc``aaaaaaab`bbb",
"bbbbbb`accc```cccccc``aaaaab`bbb",
"bbbbbbb`acccc````ccccc``aabb`bbb",
"bbbbbbbb`aaccc`bb```````````bbbb",
"bbbbbbbbb`aaacc`bbbbbbbbbbbbbbbb",
"bbbbbbbbbb`aaaaa`bbbbbbbbbbbbbbb",
"bbbbbbbbbbb`aaaaa`bbbbbbbbbbbbbb",
"bbbbbbb`````````````````bbbbbbbb",
"bbbbbb`aaaaaaaaaaaaaaaaa`bbbbbbb",
"bbbbb`aaccccccccccccccccc`bbbbbb",
"bbbbbb```````````````````bbbbbbb"
};
