/* XPM */
static char * image[] = {
"32 32 17 1",
"  c none",
"a c black",
"b c navy",
"c c green4",
"d c turquoise4",
"e c red4",
"f c magenta4",
"g c gold4",
"h c SlateGrey",
"i c grey75",
"j c blue",
"k c green",
"l c cyan",
"m c red",
"n c magenta",
"o c LightYellow1",
"p c white",
"                       a  a     ",
"                      aaaaaa    ",
"                     aapaaa     ",
"                    aapppaa     ",
"                   aapppaa      ",
"                  aapppaa       ",
"                 aapppaa        ",
"                aapppaa         ",
"           a   aapppaa          ",
"          aaa aapppaaaa         ",
"           aaaaappaaaaaa        ",
"            aaaaaaa  aaaa       ",
"             aaaaa    aaaa      ",
"             aaaaaa    aaaa     ",
"             aaaaaaa    aaaa    ",
"              aaa aaa   aaaa    ",
"              aaa  a     aaaa   ",
"              aaa        aaaa   ",
"                         aaaa   ",
"       ddddddddd         aaaa   ",
"       ddmmmmmdd         aaa    ",
"       dmmmmmmmd        aaaa    ",
"       dmmmmmmmd        aaa     ",
"       dmmmmmmmd       aaaa     ",
"       ddmmmmmdd      aaaa      ",
"       ddddddddd     aaaaa      ",
"       aaaaaaaaaa   aaaa        ",
"         aaaaaaa   aaaa         ",
"             aaaaaaaaa          ",
"      aaaaaaaaaaaaaaaaaaaaa     ",
"      aaaaaaaaaaaaaaaaaaaaa     ",
"        hhhhhhhhhhhhhhhhhhhhh   "};
