/* XPM */
static char * image_name[] = {
"48 49 47 1",
" 	c None",
".	c #30C230C22081",
"X	c #618551445144",
"o	c #DF7DDF7DDF7D",
"O	c #DF7DCF3CDF7D",
"+	c #EFBEEFBEEFBE",
"@	c #514461855144",
"#	c #618551446185",
"$	c #514451445144",
"%	c #618561856185",
"&	c #410330C230C2",
"*	c #104020811040",
"=	c #208110401040",
"-	c #104010401040",
";	c #30C230C230C2",
":	c #30C2410330C2",
">	c #00002081EFBE",
",	c #000030C2EFBE",
"<	c #00005144EFBE",
"1	c #00001040EFBE",
"2	c #00004103EFBE",
"3	c #00006185EFBE",
"4	c #CF3CDF7DCF3C",
"5	c #CF3CDF7DDF7D",
"6	c #000000000000",
"7	c #DF7DCF3CCF3C",
"8	c #30C230C24103",
"9	c #000030C25144",
"0	c #000041034103",
"q	c #000041035144",
"w	c #208110402081",
"e	c #104020812081",
"r	c #208120812081",
"t	c #CF3CCF3CCF3C",
"y	c #CF3CBEFBCF3C",
"u	c #000020815144",
"i	c #71C651445144",
"p	c #71C651446185",
"a	c #71C610400000",
"s	c #618510400000",
"d	c #104000001040",
"f	c #618520810000",
"g	c #000010400000",
"h	c #30C2208130C2",
"j	c #208130C22081",
"k	c #9E79A2899E79",
"l	c #618561855144",
"                                                ",
"                                                ",
"      ....................................      ",
"    ..XoOoOoOoOoOoOoOoOoOoOOOOOOOOOOO++oO@..    ",
"   .@ooooooooooooooooooooooOOOOOOOOOO+Ooooo#.   ",
"  .$OoOoOoOoOoOoOoOoOoOoOoOOOOOOOOOOOOOoOoOo#.  ",
"  .ooooooooooooooooooooooooOOOOOOOOOOOOoooooo.  ",
" .XoOoO++%&*=-=*=-=*=-=*=-=*=-.......+O++oOoO@. ",
" ;ooooo+:->>,<<<<<<<<<<<<<<<<<<<<<<<<..o++oooo. ",
" .OoOoO;>12<2<2<2<2<2<2<2<2<2<2<2<2<2<2.++OoOo. ",
" ;ooooo;><3<<<3<<<3<<<3<<<3O4<5<<<3<<<3.+ooooo. ",
" .OoOoO62<2<2<2<2<2<2<2<27O4O7O42<2<2<2<.oOoOo. ",
" ;ooooo6<<<<<<<<<<<<<<<O5O4O5O4O5O<<<<<<.ooooo. ",
" .OoOoO62<2<2<2<2<2<2<2<2<O7O4O72<2<2<2<.oOoOo. ",
" ;ooooo6<<5O4<3<<<3<<<3<<<3<<<3<<<3<<<3<.ooooo. ",
" .OoOoO627O4O7O<2<2<2<2<2<2<2<2<2<2<2<2<.oOoOo. ",
" ;ooooo6<<4O<O4O5<<<<;;;<<<<<<<<<<<<<<<<.ooooo. ",
" .OoOoO6O4O7O<2<2<2;;+++;<2<2<2<2<2<2<2<.oOoOo. ",
" ;ooooo6<<3<<<3<<<;++++++83<<<3<<<5O4<3<.ooooo. ",
" .OoOoO62<2<2<2<2;++90++++&<2<2<2<2<O<2<.oOoOo. ",
" ;ooooo6<<<<<<<<qqqqqq+qqq+8<<<<<<<<<<<<.ooooo. ",
" .OoOoO62<2<2<2;909090909090;<2<2<2<2<2<.oOoOo. ",
" ;ooooo6:83<<<:qqqqqqqqqqqqqq83<<8:<<<3<.ooooo. ",
" .OoOoO690&<2;q090q090q090q090&;&++;&;2<.oOoOo. ",
" ;ooooo6qqq8:qqqqqqqqqqqqqqqqqq++q+++q;8.ooooo. ",
" .OoOoO6909090w*w*w090909090909090909090.oOoOo. ",
" ;ooooo6qwer*wer*wer*werqqqqqqqqqqqqqqqq.ooooo. ",
" .OoOoO6w*t*7*t*7*t*7*t*w0q000q090q090q0.oOoOo. ",
" ;ooooo6ertwtrtwtrtwtrtweqqq00qqqqqqqqqq.ooooo. ",
" .Oo+oO6w*y*t*y*t*y*t*y*w09090u090909090.oOoOo. ",
" ;o+++er*wer*wer*wer*wer*wqqqq00qqqqqqqq.ooooo. ",
" .O+oowXiipXiipXiipXiipXi*q090q9009009q0.ooooo. ",
" ;o+er*wer*wer*wer*wer*wer*wqqqqqqqqq0qq.ooooo. ",
" .O*asasasasasasasasasasasasd0909090q09q.ooooo. ",
" ;orsafasafasafasafasafasafagqqq666q09qq.ooooo. ",
" .O*aaasaaasaaasaaasaaasaaasd666h.6ququq.ooooo. ",
" ;owfasafasafasafasafasafasag;j6j;6q9u9q.ooooo. ",
" .O*asasasasasasasasasasasasd.h6h.6ququ.oooooo. ",
" ;orsafasafasafasafkkskskssaghj6jh6u9uq.oooooo. ",
" .O*aaasaaasaaasaaasaaasaaasd.h6h.6qq..ooooooo. ",
" ;ower*wer*wer*wer*wer*wer*wg;j6j;6..ooooooooo. ",
"  w*w*w*w*w*w*w*w*w*w*w*w*w*d666h.6oooooooooo.@ ",
"  erlplplplplplplplplplplplpgoo+666oooooooooo.  ",
"   *ii66iipXiipXiipX66pX66pXdoOoOoOooooooooo.@  ",
"   wli66lpXplpXplpXplpXplpXpgooooooooooooo..@   ",
"   *pXpXpXpXpXpXpXpXpXpXpXpXd*w*w*w*w*w*w.@     ",
"    gdg-gdg-gdg-gdg-gdg-gdg-                    ",
"      666              666                      ",
"                                                "};
