/* XPM */
static char * fifo_xpm[] = {
"32 32 3 1",
" 	c white",
".	c black",
"X	c LightSkyBlue1",
"                                ",
"     .................          ",
"     .XXXXXXXXXXXXXX.X.         ",
"     .XXXXXXXXXXXXXX.XX.        ",
"     .XXXXXXXXXXXXXX.XXX.       ",
"     .XXXXXXXXXXXXXX.XXXX.      ",
"     .XXXXXXXXXXXXXX.......     ",
"     .XXXXXXXXXXXXXXXXXXX..     ",
"     .XXXXXXXXXXXXXXXXXXX..     ",
"     .XXXXXXXXXXXXXXXXXXX..     ",
"     .XXXXXXXXXXXXXXXXXXX..     ",
"     .XXXXXXXXXXXXXXXXXXX..     ",
"     .XXXX.XXXXXXXXX.XXXX..     ",
"     .XXX..XXXXXXXXX..XXX..     ",
"     .XX...............XX..     ",
"     .X.................X..     ",
"     .XX...............XX..     ",
"     .XXX..XXXXXXXXX..XXX..     ",
"     .XXXX.XXXXXXXXX.XXXX..     ",
"     .XXXXXXXXXXXXXXXXXXX..     ",
"     .XXXXXXXXXXXXXXXXXXX..     ",
"     .XXXXXXXXXXXXXXXXXXX..     ",
"     .XXXXXXXXXXXXXXXXXXX..     ",
"     .XXXXXXXXXXXXXXXXXXX..     ",
"     .XXXXXXXXXXXXXXXXXXX..     ",
"     .XXXXXXXXXXXXXXXXXXX..     ",
"     .XXXXXXXXXXXXXXXXXXX..     ",
"     .XXXXXXXXXXXXXXXXXXX..     ",
"     .XXXXXXXXXXXXXXXXXXX..     ",
"     ......................     ",
"      .....................     ",
"                                "};
