/* XPM */
static char * GIF_xpm[] = {
/* width height ncolors chars_per_pixe*/
"32 32 3 1",
/**/
" 	c white",
".	c black",
"X	c PaleTurquoise",
/* pixels */
"    ..................          ",
"    .XXXXXXXXXXXXXXXX..         ",
"    .XXXXXXXXXXXXXXXX.X.        ",
"    .XXXX...XX.X....X.XX.       ",
"    .XXX.XXX.X.X.XXXX.XXX.      ",
"    .XXX.XXXXX.X...XX.XXXX.     ",
"    .XXX.XX..X.X.XXXX.XXXXX.    ",
"    .XXX.XXX.X.X.XXXX........   ",
"    .XXXX...XX.X.XXXXXXXXXX..   ",
"    .XXXXXXXXXXXXXXXXXXXXXX..   ",
"    .XXXXXXXXXXXXXXXXXXXXXX..   ",
"    .XXX................XXX..   ",
"    .XXX....  ....  ....XXX..   ",
"    .XXX....  ....  ....XXX..   ",
"    .XXX................XXX..   ",
"    .XXX.  .  ....  .  .XXX..   ",
"    .XXX.  .  ....  .  .XXX..   ",
"    .XXX................XXX..   ",
"    .XXX.  ....  ....  .XXX..   ",
"    .XXX.  ....  ....  .XXX..   ",
"    .XXX................XXX..   ",
"    .XXX....  .  ....  .XXX..   ",
"    .XXX....  .  ....  .XXX..   ",
"    .XXX................XXX..   ",
"    .XXX.  .......  ....XXX..   ",
"    .XXX.  .......  ....XXX..   ",
"    .XXX................XXX..   ",
"    .XXXXXXXXXXXXXXXXXXXXXX..   ",
"    .XXXXXXXXXXXXXXXXXXXXXX..   ",
"    .XXXXXXXXXXXXXXXXXXXXXX..   ",
"    .........................   ",
"     ........................   "};
