/* XPM */
static char * GILfile_xpm[] = {
/* width height ncolors chars_per_pixel */
"32 32 3 1",
/* colors */
" 	c white",
".	c black",
"X	c lightskyblue1",
/*PX*/
"    ..................          ",
"    .XXXXXXXXXXXXXXXX..         ",
"    .XXXXXXXXX.XXX.XX.X.        ",
"    .XXXXXXXX.XXXXX.X.XX.       ",
"    .XXXXXXXXX.XXX.XX.XXX.      ",
"    .XXXXXXXX.X.X.X.X.XXXX.     ",
"    .XXXXXXXXX.X.X.XX.XXXXX.    ",
"    .XXXXXXXXXX.X.XXX........   ",
"    .XXXXXX.XXXX.XXXXXXXXXX..   ",
"    .XX.XXX...X.X.XXXXXXXXX..   ",
"    .XXX.XX.XX.X.XXXXX...XX..   ",
"    .XX.X.X.XXX.X.XXX.XXX.X..   ",
"    .XXX.XX.XXX.......XXX.X..   ",
"    .XX.X.X.XXX.XXXXX.XXX.X..   ",
"    XXXXXXX.XXX.XXXXX.XXX.X..   ",
"  ..........XXX.XXXXX.XXX.X..   ",
"   .........XXX.XXXXX.XXX.X..   ",
"    XXXXXXX.XXX.......XXX.X..   ",
"    .XX.X.X.XX.........X..X..   ",
"    .XXX.XX...............X..   ",
"    .XX.X.X.....X.XXX.....X..   ",
"    .XXX.XX....X.X.XXX...XX..   ",
"    .XX.X.X...XXX.X.XXXXXXX..   ",
"    .XXX.XXXXXXXXX.X.XXXXXX..   ",
"    .XX.X.X.X.X.X.X.X.XXXXX..   ",
"    .XXX.X.X.X.X.X.X.X.XXXX..   ",
"    .XX.X.X.X.X.X.X.X.X.XXX..   ",
"    .XXXXXXXXXXXXXXXXXXXXXX..   ",
"    .XXXXXXXXXXXXXXXXXXXXXX..   ",
"    .XXXXXXXXXXXXXXXXXXXXXX..   ",
"    .........................   ",
"     ........................   "};
