/* XPM */
static char * Shelltool_xpm[] = {
/* width height ncolors chars_per_pixel */
"32 32 4 1",
/* colors */
" 	c white",
".	c black",
"X	c gray80",
"o	c lightskyblue1",
/* pixels */
"                                ",
"                                ",
"                                ",
"                                ",
"       ...................      ",
"      .XXXXXXXXXXXXXXXXXXX.     ",
"      .X................XX.     ",
"      .X..o.o.o.o.o.o.o..X.     ",
"      .X.o.o.o.o.o.o.o.o.X.     ",
"      .X..o.o.o.o.o  oo..X.     ",
"      .X.o.o.o.o.o. oo.o.X.     ",
"      .X..o.o.o.o.ooooo..X.     ",
"      .X.o.o.o.o.o.o.o.o.X.     ",
"      .X..o.o.o.o.o.o.o..X.     ",
"      .X.o.o.o.o.o.o.o.o.X.     ",
"      .X..o.o.o.o.o.o.o..X.     ",
"      .X.o.o.o.o.o.o.o.o.X.     ",
"      .XX...............XX.     ",
"      .XXXXXXXXXXXXXXXXXXX.     ",
"      .....................     ",
"       ...................      ",
"                                ",
"    .........................   ",
"   .XXXXXXXXXXXXXXXXXXXXXXXXX.  ",
"  .XX.X.X.X.X.X.X.X.X.X.X.X.XX. ",
" .XX.X.X.X.X.X.X.X.X.X.X.X.X.XX.",
" .XXXXXXXXXXXXXXXXXXXXXXXXXXXXX.",
" ...............................",
"  ............................. ",
"                                ",
"                                ",
"                                "};
