/* XPM */
static char * Shell_script_xpm[] = {
/* width height ncolors chars_per_pixel */
"32 32 3 1",
/* colors */
" 	c white",
".	c black",
"X	c lightgreen",
/* pixels */
"               .                ",
"              .X.               ",
"             .XXX.              ",
"   ..........XXXXX........      ",
"   .XXXXXXX.XXXXXXX.XXXX.X.     ",
"   .XXXXXX.XX.....XX.XXX.XX.    ",
"   .XXXXX.XXXXXXXXXXX.XX....    ",
"   .XXXX.XXXX...XXXXXX.XXXX..   ",
"   .XXX.XXXXXXXXXXXXXXX.XXX. .  ",
"   .XX.XXX..........XXXX.XX..   ",
"   .X.XXXXXXXXXXXXXXXXXXX.X. .  ",
"   ..XXXXX.............XXX...   ",
"   .XXXXXXXXXXXXXXXXXXXXXXX. .  ",
"  .XXXXXXX........XXXXXXXXXX.   ",
" .XXXXXXXXXXXXXXXXXXXXXXXXXXX.  ",
".XXXXXXXXXXXX.........XXXXXXXX. ",
"..XXXXXXXXXXXXXXXXXXXXXXXXXXX.. ",
" ..XXXXXXXXXX...XXXXXXXXXXXX.. .",
"  ..XXXXXXXXXXXXXXXXXXXXXXX.. . ",
"   ..XXXXX............XXXX.. .  ",
"   ...XXXXXXXXXXXXXXXXXXX....   ",
"   .X..XXX........XXXXXX..X. .  ",
"   .XX..XXXXXXXXXXXXXXX..X...   ",
"   .XXX..XXXX....XXXXX..X.X. .  ",
"   .XXXX..XXXXXXXXXXX..X.XX..   ",
"   .XXXXX..XX.....XX..X.XXX. .  ",
"   .........XXXXXXX..........   ",
"     . . . ..XXXXX.. . . . . .  ",
"    . . . . ..XXX.. . . . . .   ",
"             ..X.. . .          ",
"              ... . .           ",
"                 . .            "};
