/* XPM */
static char * Stop_Doc_xpm[] = {
/* width height ncolors chars_per_pixel */
"32 32 2 1",
/* colors */
" 	c white",
".	c red",
/* pixels */
"    ..................          ",
"    .                ..         ",
"    .                . .        ",
"    .                .  .       ",
"    .                .   .      ",
"    .                .    .     ",
"    .                .     .    ",
"    .                ........   ",
"    .                      ..   ",
"    .       .........      ..   ",
"    .      ..       ..     ..   ",
"    .     .. ....... ..    ..   ",
"    .    .. ......... ..   ..   ",
"    .   .. ........... ..  ..   ",
"    .   . ............. .  ..   ",
"    .   . .           . .  ..   ",
"    .   . . .. . .  . . .  ..   ",
"    .   . .    . .    . .  ..   ",
"    .   . ...  . .  ... .  ..   ",
"    .   . .    .    ... .  ..   ",
"    .   . ............. .  ..   ",
"    .   . ............. .  ..   ",
"    .   .. ........... ..  ..   ",
"    .    .. ......... ..   ..   ",
"    .     .. ....... ..    ..   ",
"    .      ..       ..     ..   ",
"    .       .........      ..   ",
"    .                      ..   ",
"    .                      ..   ",
"    .                      ..   ",
"    .........................   ",
"     ........................   "};
