/* XPM */
static char * image_name[] = {
"64 64 4 1",
" 	c #FFFFFFFFFFFF",
".	c #AEBAAAAAAEBA",
"X	c #514455555144",
"o	c #000000000000",
" . . . . . . . . .X.X..X.XX.XXX..X.X.XX.XXX.XX.. . . . . . . . .",
"... ... ... .....X.X.XoooooooooooooooooooXXX.XX ... ... ... ... ",
" . . . . . . ...X..XooXoXoooooooooooooXoXo.XXX.X . . . . . . . .",
". ... . . . . X.XooooooooooooooooooooooooooooXXXX.. . . . ... ..",
" . . . . . . .XXooXoooXoooXoooooooooooooooXoXoXoXX . . . . . . .",
"... ... ... .XoooooooooooooooooooooooooooooXoooooX. . . ... ... ",
" . . . . . .XoooXoXoXoooXoooooooooooXoooXoXoXoXoXo.. . . . . . .",
". . . . . .Xooooooooooooooooooooooooooooooooooooooo.. . . . . ..",
" . . . . .XoooXoooXoooXoooXoooXoooXoooooXoXoXoXoooXX.. . . . . .",
"... ... ..oooooooooooooooooooooooooooooooooooooooooXX.. . . ... ",
" . . . .XoooooooXoooXoXoXoooooooooooooooXoXoooooooooXo.. . . . .",
". . . .Xooooooooooooooooooooooooooooooooooooooooooooooo . . . . ",
" . . .XoooXoooXoooooXoooooooooooooooooooooooooXoooXoooX. . . . .",
"... ..oooooooooooooooooooooooooooooooooXooooooooooooooo..   . . ",
" . . XooooooooooooooXoooXoooXoooooooXoooXoooooooooooooXo . . . .",
". . .XoooooooooooooooooooooooooooooooooooooooooooooooooX. . . . ",
" . ..XooooooooXoooXoooooooXoooXoooXoXoXoooXoooXoooooooXo.. . . .",
"... .oooooooooooooooooooooooooooooooooooooooooooooooooooo.. ... ",
" . ..oooooooooooXoooXoooooXoXoXoXoooXoooooooXoooooooooooXX . . .",
". . .ooooooooooooooooooooXoooXoooooooXoooooooooooooooooooX. . . ",
" . ..oooooXoooooooooXoXoXoXoXoXoXoXoXoXoXoXoooXoooXoooXooo.. . .",
".....ooooooooooooooXoXoXooXXXXXXoXXXoXXXXXoXooooooooooooooX ... ",
" . .XoooooooooooXoXoXXXoXXXXXoXXXXXoXoXXXXXoXoooooooooooXo.. . .",
". . XooooooooooXoXXXoXoXXXXXXXXXXXXXoXoXoXXXoooooooooooooX. . . ",
" . .XoooooooooXoXoXoXoXoXoXoXoXXXoXoooXXXXXoXoXoooooooXooo . . .",
"....oooooooooooXoooooooooooXXXXXXXoooooooooooooooooooooooo. ... ",
" . .ooooooooooXoXoXoXoooXoXoXoXoXoooXoooXoXoXoXooooooooooX . . .",
". ..oooooooooooXoXoXoXoooooXoXoXoXoooooooooooooooooooooooX. . . ",
" . XooooooooooXoXoXoXoXoXoXoXoXoXoXoXoXoooXoXoXooooooooooX . . .",
"....oooooooooXXXoooooooooooXoXXXoooooooooooooooXoooooooooo. ... ",
" . XooooooooooXoXoooooooooooXXXoXoooooooooooXoXoXooooooooo . . .",
". .XoooooooooXXXoooooooooooXXXXXoooooooooooooXoXoooooooooo... ..",
" . XooXoooooXoXoXoXoXoXoXoXoXX.XXoXoXoXoXoXoXoXoXoooooXooo . . .",
". .XoooooooooXXXXXoXoooXoXoXXX..XXoXoooXoXXXXXXXXooooXoooo. ... ",
" ..oooXoXoooXoXXXXXoXoXoXoXXXX.X.XXoXoXoXXXX.XXoXooXooXooo . . .",
". .ooXooooooXXXXXXXXXXXXXXXXX...XXXXXXXXXXX.XXXXXXoooXoXoo... ..",
" ..oooXoXoXoXoXXXX.XXXXXXXXXXX.X.XXXXX.X.X.XXXXXXoXXXoXoXo . . .",
". XooooooooXoXXXXXXXXXXXXXXXXX..XXXXoXXXXXXXXXXXXXooXXoXoo. ... ",
" ..oooXoXoXoXoXXXXXX.XXXXoXXXX.X.XXoXoXX.X.X.XXoXoXXoXXoXo . . .",
". XooooooooXoXXXXXXXXXXXXXXXXXXXXXX.XXoXXXXXXXXXXXoXXooXoo... ..",
" ..oooXoXoXoXoXXXX.XXXXoXoXXXoXoXoXXXoXoXoXXXXXXXXooXoXooo . . .",
". .ooooXoXoXoXXXXXXXXXXXoXXXoooXoooXoXoXoXXXXXXXooXXooXooX. ... ",
" ..oooooXoXoXoXoXXXoXoXoXoXoooXoXoooXoXoXoXoXoXoXoooXXoooo . . .",
". .oooooXXXXoXoXXXoXoXoXXXoooooooooooXoooXoXoXoXXXoXXXoooo... ..",
" ..oXoooXoXoXoXoXoXoXoXoXoXoXoXoooXoXoXoooXoXoXoXoXoXooooo . . .",
"...XoooooooooooXoXXXoooXXXoXoooooooooXXXoooXoooXoooooooooo. ... ",
" ..XXoooooooooXoXoXoXoXoXoXoXoXoXoXoXoXoXoXoXoXoXoooooooXo . . .",
". ...XoooooooooXoXXXoooXoXoooooooooooooooooXXXoXoooooooooX... ..",
" . ..XooooooooXoXoXoXoXoooXoooXoooXoooXoXoXXXoXoXoooooXoXX . . .",
".......ooooooooXoXXXXXoXoooXoooXoXXXoXXXXXXXoooXoooooooXoX. ... ",
" . . ..XooooooXoXoXoXXXoXoXoXoXoXoXoXoXXXXXoXoXoXoooooXo.. . . .",
". ... ..XooooooXoXoXXXXXXXoXoooooooXoXXXXXoooooooooooooXX ... ..",
" . . . ..XooooXoXoXoXoXXXoXoXoXoXoXoXoXoXoXoXoXoooXoooX. . . . .",
"... ... .XoooooXoooXoXXXXXXXoXoXoXXXoXXXooooooooooooooo.... ... ",
" . . . . XooooooXoXoXoXXXXXXXXXX.X.X.XXoXoXoXoXoooooXoX. . . . .",
". . . ....XooooooooXoXoXXXXXXXXXX.XXXXXXXXoooooooooooo... ... ..",
" . . . . .XoooooXoXoXoXoXoXoXoXXXXXXXoXXXoXoXoXoooXoXo . . . . .",
"... ... ..XXoooXoooXoooXoXoXoXXXoXoXoooXoooooooXooooo.. ... ... ",
" . . . . . XooooXoXoXoXoXoXoXoXoXoXoXoXoXoXoXoXoXoo. . . . . . .",
". ... ... .XoooXoooooooooXoooooooXooooooooooooooooo.. ... ... ..",
" . . . . . XooooXoXoXoXoXoXoXoXoXoXoooXoXoXoooXooo . . . . . . .",
"... ... ....oooXoooXoooXoooooooXooooooooooooooooo.. ... ... ... ",
" . . . . . XooooXoooXoXoXoXoXoXoXoXoXoXoXoXoXoXoo. . . . . . . .",
"............XooXoooXoooXoooXoooXoooXoooXoooXooooo ... ... ... .."};
