/* XPM */
static char * image_name[] = {
"64 64 4 1",
" 	c #FFFFFFFFFFFF",
".	c #AEBAAAAAAEBA",
"X	c #514455555144",
"o	c #000000000000",
"        ..XooooooooooooooooooooooooooooooooooXoooXX.            ",
"       ..XXoooooooooooooooooooooooooooXooooooXXoooXX.           ",
"      ..X.XXooooooooooooooooooooooooooooooooooooooooo.          ",
"     ..X.XXoXoooooooooooooooooooooooXoXooooooooooooooo..        ",
"    ..X.XXXXoXooooooooooooooooooooooooooooooooooooooXoX..       ",
"   ..X.X.X.XXoXooooooo.XXoXoXoXoooXoooXoXoooooooooXoooXX        ",
"   .XX..X.XXXooooooXoX..XXXXoXXXoooXoooooooooooooooooooXX       ",
"   XXX.X.XXXXXooXoXo.X.X.XXoXo.XXoXoXoooXoooooooooooooooX.      ",
"  XXXXXXXXXXXXXXXXX........XXXXXXXXXXXoooooooooooooooooooX      ",
" ..XXoXoXoXX.XXX.X.X.. ... X.X.X.XXXXoXooooooooooooooooooo      ",
"  .XoXoXoXX.XXX.X...... . ..X.X.X.XXXXooooooooooooooooooooX     ",
"  .oXoXoXX.X.X.X.... . . . ..X.X.X.XXoXoooooooooooooooooooX.    ",
"  XXoXooX.X.X.X.... . .   ....X.X.X.XXooooooooooooooooooooX     ",
" .XoXoXoXX...X.X.. . . . . . ..X.X.X.XXooooooooooooooooooo      ",
" .XXoXoXX.......... .       ....X...XXXooooooooooooooooooo      ",
" XXoXoXo.X.X.... . . . . . . . ..X.X.XXooooooooooooooooooo      ",
"..ooooooXXX.....      .       .....XXXXXoooooooooooooooooo.     ",
" XXoooXoXo.X.. . . . .   .   . . ..X.X.oXoXoooooooooooooooX.    ",
".Xoooooooo..... .       .       . ....XXoooooooooooooooooooX.   ",
" oooooooXX.X.. . .     . .     . . . ..X.XXooooooooooooooooo    ",
".XooooooXX..........          . ....X.XXXXoooooooooooooooooo.   ",
"XoXoooXoXX.X.X.XXoXX..   .   . ..oXoooXooooooooooooooooooooo    ",
"ooooooooX.XXoXXXoXX...        ..XXoXoooooooooooooooooooooooo.   ",
"Xooooooo.oXX.X.X.X.X.. . . . ....X.X.X.oXoXooooooooooooooooo.   ",
"ooooooooXXX.. . . .....   . ......... ....XoooooooooooooooooX   ",
"ooXooooo.X . . . ..... . . ..X.. . . ....X.XooXoooooooXoooooX.  ",
"oooooooXX.. ...XooXX... . ..XX.....XXXX.X.XXoooooooooooXooooo   ",
"oooooooo.. ..XXoXo...... ..X.o.X.. XooooXoXoXoXoooooooooooooo.  ",
"oooooooX....oXXXX...........XXX.X...XooooooXXXXooooooooooooooX  ",
"ooooooXo.. ... . ..... . ..XXoXX.. ..X.XXoXoXXXooooooooooooooX  ",
"XooooooX... . . ............oXXX... ....XXX.X.XXoooooooooooooX. ",
" ooooooo . . . . . . . . ..XXXXo.. . ......X.XXoXooooooooooooo. ",
" ooooooo. .   .............XoXXXX...... ......XXooooooooooooooo.",
" oXoooXo..   . ... . . ....XXoXX.X.... . . ..XXooooooooooooooooX",
" .oooo...       ... ........XooX............X.XooooooooooooooooX",
" .Xooo.. . . . . . . ... ..XXoXo.... ... ..X.XXoXoooooooooooooo.",
"  .Xoo. .     ...    .......XXooo.............ooooooooooooooooo.",
"   .Xo....   . .   . . . . ..oXooo . . ......XXooooooooooooooo.X",
"     .X ..          ...   ...Xoooo  .........XoooooXoooooooooo. ",
"     .X. . .       . . . . X.XXoXo . . . ....XXooooooooooooooo..",
"      .             ........XXoooX.   .......XoooooooooooooooX. ",
"         .   .   . . . ....oooXX..   . . ..X.oXoooXoooooooooo.  ",
"                    ... ....XXX...  .   ....XoooooooooooooooX   ",
"         . .       . . . . ....X..   . . ..XXoXoXoXoXooooooX    ",
"          .       ..... . . ....XXX..  ....XXXoooooooooooo.     ",
"         .   . . . ... . . . ..XXX.X.. ....XXoXooooooooooo      ",
"         .     ........ ... ....X.XXXX.....XoXooooooooooo.      ",
"         . . . X.X.. . . . . ..X.XXoXo.. ..oXoXoooooooooX.      ",
"         ..   ....X.............X.XXXXX....XoXoooooooooo.       ",
"         . . . . ..o.. . . . . X.oXo.X...X.oXoXooooooooo        ",
"         .. .   . ..X.      .....oo.... ..XooXoooooooooo.       ",
"         . . . . . ....X.oXX.X.oXoXX.. . XXoXoXoXoooooooXX      ",
"          . .     ..............XXX.. . .XoooXoooooooooooo      ",
"         ... .   . . . . . ....X.X.... ..oXoXoXooooooooooX      ",
"          ... .     . . . ......X.......oooXooooooooooooo.      ",
"          .X . . . . . . . . ..........XooooXoXoXooooooooo      ",
"           XX..   .   .   . ...........ooooooooooooooooooX.     ",
"           .XX . . . .   . . . . ..X.X.oooXoooXoXooooooooo..    ",
"            .X. .   .   .   ... ......XooooooooooooooooooX      ",
"             ... . . . . . . . . ..X.XooXoooooXoXooooooooX      ",
"                .     .   . . ......XXoooooooooooooooooooX      ",
"               . .   . . . . . ....XXoXoooooooXooooooooooX      ",
"                .           . .....Xooooooooooooooooooooo.      ",
"               . . . . . . . . ..XXoXoooooooXoXoXoooooooo.      "};
