/* XPM */
static char *brushicon[] = {
/* width height num_colors chars_per_pixel */
"    48    48      254            2",
/* colors */
".. c #020204",
".# c #1e823c",
".a c #0c442a",
".b c #978609",
".c c #3acc40",
".d c #9e4a0c",
".e c #a40d59",
".f c #579617",
".g c #91dc20",
".h c #50c42c",
".i c #520a24",
".j c #86ae54",
".k c #1a621c",
".l c #042c21",
".m c #16a646",
".n c #c61a64",
".o c #11eb91",
".p c #ce4274",
".q c #56aa94",
".r c #4ae654",
".s c #0eacb4",
".t c #331b0e",
".u c #ce862c",
".v c #cd692e",
".w c #4e4a24",
".x c #bea624",
".y c #5c641f",
".z c #0dcba6",
".A c #07150c",
".B c #ce2a44",
".C c #08342c",
".D c #08594a",
".E c #8e3234",
".F c #4c89d8",
".G c #38c69d",
".H c #cac610",
".I c #463614",
".J c #ca58cc",
".K c #0e96a1",
".L c #8d739f",
".M c #8bb648",
".N c #35e861",
".O c #56e0d9",
".P c #16b4cc",
".Q c #14dba6",
".R c #8c46d8",
".S c #180508",
".T c #5ac9d8",
".U c #276e3a",
".V c #11bb67",
".W c #c65265",
".X c #ab8b4b",
".Y c #ca1acc",
".Z c #73c851",
".0 c #0a9470",
".1 c #36460c",
".2 c #0e7648",
".3 c #1f2709",
".4 c #4aaaac",
".5 c #c666d4",
".6 c #5e62ec",
".7 c #9636e4",
".8 c #1e4810",
".9 c #a57b0b",
"#. c #be7a24",
"## c #e3b305",
"#a c #ed3155",
"#b c #fefefc",
"#c c #6c2e33",
"#d c #030b07",
"#e c #799012",
"#f c #8bae91",
"#g c #16f675",
"#h c #71e039",
"#i c #18cad5",
"#j c #1a1204",
"#k c #19390f",
"#l c #6e86ac",
"#m c #c6df0c",
"#n c #2ebebc",
"#o c #8e52d4",
"#p c #4d77e9",
"#q c #0c4c38",
"#r c #2da22c",
"#s c #225218",
"#t c #861c2c",
"#u c #86c6d4",
"#v c #51d15c",
"#w c #541c10",
"#x c #aca234",
"#y c #65aa8c",
"#z c #8e9a9c",
"#A c #e05433",
"#B c #de12cb",
"#C c #919206",
"#D c #bac617",
"#E c #0a6460",
"#F c #182404",
"#G c #e5493e",
"#H c #2aa9ea",
"#I c #ce9224",
"#J c #764ee4",
"#K c #031d14",
"#L c #043c3c",
"#M c #963e1c",
"#N c #9eba3c",
"#O c #3bf44d",
"#P c #58f2a8",
"#Q c #10d8ce",
"#R c #a69644",
"#S c #289630",
"#T c #e33c54",
"#U c #743a24",
"#V c #0b0204",
"#W c #46da34",
"#X c #ab5764",
"#Y c #5ac26c",
"#Z c #f21284",
"#0 c #25e977",
"#1 c #5af137",
"#2 c #e56521",
"#3 c #22ceac",
"#4 c #165a2c",
"#5 c #a7272b",
"#6 c #5696b4",
"#7 c #dec604",
"#8 c #3a8eec",
"#9 c #aa628c",
"a. c #76aeec",
"a# c #667ac4",
"aa c #9e5e04",
"ab c #8e6274",
"ac c #b4528b",
"ad c #629e9c",
"ae c #38bc40",
"af c #cb3b84",
"ag c #b676ec",
"ah c #715721",
"ai c #b6469c",
"aj c #d6a614",
"ak c #9a85e6",
"al c #671a3d",
"am c #b028d4",
"an c #78a214",
"ao c #6dd744",
"ap c #0a8d69",
"aq c #ae7264",
"ar c #5ebee4",
"as c #ea7414",
"at c #62b674",
"au c #df2195",
"av c #629674",
"aw c #7a162c",
"ax c #add714",
"ay c #8e96ec",
"az c #7a67ca",
"aA c #ea5ed1",
"aB c #864e6c",
"aC c #b26a44",
"aD c #a2825c",
"aE c #ee920c",
"aF c #a68694",
"aG c #12be9c",
"aH c #d61a6c",
"aI c #26a28c",
"aJ c #70ee2c",
"aK c #aa36cc",
"aL c #ca2aa4",
"aM c #969a54",
"aN c #30d06c",
"aO c #7696dc",
"aP c #be4e84",
"aQ c #ea870c",
"aR c #32da7c",
"aS c #6e461c",
"aT c #9a1e37",
"aU c #6ebef4",
"aV c #0a7a80",
"aW c #de2b86",
"aX c #e2da04",
"aY c #5c89c1",
"aZ c #1aa284",
"a0 c #88bc78",
"a1 c #eaad04",
"a2 c #9f7d54",
"a3 c #dcbd07",
"a4 c #b78934",
"a5 c #82ce24",
"a6 c #41bc9f",
"a7 c #76be5c",
"a8 c #5d6ce2",
"a9 c #e35a2e",
"b. c #9e3224",
"b# c #309ae9",
"ba c #99a759",
"bb c #26fa64",
"bc c #79213e",
"bd c #312e0f",
"be c #50a222",
"bf c #8e5bc9",
"bg c #c0263c",
"bh c #968e9c",
"bi c #325e14",
"bj c #3ea6cc",
"bk c #36d28c",
"bl c #c124c3",
"bm c #9e5a4c",
"bn c #1dbadb",
"bo c #0ae6bc",
"bp c #5fc634",
"bq c #9e6f93",
"br c #22d894",
"bs c #a69684",
"bt c #069c80",
"bu c #50b690",
"bv c #120e04",
"bw c #6d59ec",
"bx c #268e24",
"by c #32966c",
"bz c #d24a5c",
"bA c #9e42d4",
"bB c #d2772c",
"bC c #1c6e28",
"bD c #1eb65c",
"bE c #ee0eac",
"bF c #c6d20c",
"bG c #aaac2c",
"bH c #6a929c",
"bI c #ee1e74",
"bJ c #ae5a8c",
"bK c #40a224",
"bL c #eb9e04",
"bM c #366a2c",
"bN c #ba2ebc",
"bO c #59edd4",
"bP c #72b68c",
"bQ c #a28e54",
"bR c #9e6e04",
"bS c #ded004",
"bT c #26b6dc",
"bU c #f23a3c",
"bV c #7a7eac",
"bW c #adb72c",
"bX c #42ea44",
"bY c #e24e2c",
"bZ c #9a6a54",
"b0 c #06464c",
"b1 c #1a7644",
"b2 c #593319",
"b3 c #eaa204",
"b4 c #0ad2ac",
"b5 c #086a60",
"b6 c #96ae3c",
"b7 c #5ee24c",
/* pixels */
"................................................................................................",
"...w.w.y.y.yahahahaSahaSaSaSaSaSaS#U#UaS#U#U#c#U#U#c#c#c#c#c#c#c#cbc#cbcalbcbcbcbcbcalalalalaBab",
"...w.y.b.b.b.9.9.9.9.9bRaaaaaaaaaa.d.d.d.d.d#M#M#Mb.b.#5#5#5#5#5aTaTawaT.e.e.e.e.e.e.e.e.e.eac#b",
"..ah.bbS#7a3a3######a1b3aEaEaEaEaQasasasas#2a9#A#AbYbU#abUbUbUbU#aaT...i#Z#Z#Z#Z#Z#Z#Z#Z#ZbEaA#b",
"...y#CaXbS#7a3##a1####a1bLaEaEaEaQbBas#2as#2#2a9a9bYbUbUbUbUbUbUaT...SaHbI#Z#Z#Z#Z#Z#Z#ZbEbEaA#b",
"...y#CaXbS#7a3####a1a1a1b3aEaEaEaEaQasasas#2#2a9a9bY#G#abU#abU#t...S.BbI#Z#Z#Z#Z#Z#Z#ZbEbEbEaA#b",
"...y#CaXaXbS#7a3a1a1####a1bLaEaEaEaQasasas#2a9a9a9bY#GbUbUbU#t...S.nbIbI#Z#Z#Z#Z#Z#Z#ZbEbEbEaA#b",
"#V.y.bbSaXbS#7a3######a1a1bLaEaEaEaQaQ#2asas#2a9a9#2#GbUbUbc..#Vbg#a#abI#Z#Z#Z#Z#Z#Z#ZbEbEbEaA#b",
"...y#CaXaXaXbSa3##a1####a1a1bLaEaEaEaQasas#2#2#2bYa9bY#Gal..#Vbg#abIbIbI#Z#Z#Z#Z#Z#Z#B#ZbEbEaA#b",
"#Vah#CaXaXaX#7#7##########ajbLaEaEaEaQasasasasa9#2bYbY#w..#V#5#a#a#aaWaH#Z#Z#ZbEbEbEbEbEbEbEaA#b",
"...y#CaX#7bSa3a3##a1a1##a1##a1bLaQaQaQasas#2as#2#2a9#w....#5#a#aaHbI#aaW#ZbE#BbEbEbEbEbEbEbEaA#b",
"..ah#CaXaXbS#7###7##a1####a1a1.xaE#I#.bB.vas.vbB#2.t.....E#T#a#a#aaWaWauau#ZbEbE#Z#BbEbE#B#BaA#b",
"...y#CaXaXaX#7#7a3a3a3a1a3a1##ajaj#IbBbBbBbBbB.v.t..#V.E#G.p#T#a#aaWauaWaLaHbEbEbEbE#B#B#B#BaA#b",
"..ah#CaXaXaXbSbS.H#7a3a3##a3a3ajaj#I#I.ubBbB.v.t....#Ua9bz#G#TaWaW#aaWauauau.Y.Y#B#B#B#B#B#BaA#b",
"...y#CaX#m#m#mbF.H.H#7.Ha3bW.Ha3##.x#I.u.u#.#j....#U#A.W#Gbz.p.pafaWaWaWauaLaLaL.Y#B#B#B#B#B.J#b",
"#V.y#C#m#m#m#mbF#m.H.H.H.H.H#Da3ajaj#I#Ia4#j....b2.v.va9.Wbz.WaPafaWauaWaWblaLblbl.Y#B#B#B#BaA#b",
"...y#C#m#m#m#mbFbF.H.H.H.H#D#DbW.x.x#I.9#j....b2aCaCbm.W#A.W.WacafafaWauaLblbN.Ybl.Y#B#B#B#BaA#b",
"...y#e#m#m#mbFbFbFbF.H.H.H#D#DbWbG.x.9#j....b2.uaCbZbm#Xac.W.WaPacafaWafaublblblbl.Y.Y#B#B#BaA#b",
"...y#C#m#m#mbFbFbFaxax#Dax.H#NbWbW.bbv.....Ia4a4aDa2bmbm.W.WaPacafaPafafaL.YbNblambl.Y.Y.Y.Y.J#b",
"...y#C#m#mbFaxbFax#D#Daxax#D#DbW#Cbv....bd.Xa4.Xa4a2bZ#X#Xac#XaPacaPaiafaLblblblblamamamam.Y.J#b",
"...y#e#max#maxaxax.gaxaxax#N#N#e......bd#xbQaDbQbQaDaqbJacbJacaPaPacacaibNblblblambl.Y.Yambl.5#b",
"...yanaxaxaxaxaxax.gax.gax.g#e......bdbG#x#RbQbQbQaqbZ#9#9#9#9bJbJ#XbJacaibNamamamamamamambl.5#b",
"...y.f.g.g.g.g.g.gaxaxaxan.3#F#F...3b6#N.jbaaMaMbQaDbqbq#9.L#9#9#9bf#9bfacaKaKbAbA.7amamamam.5#b",
"...y.f.g.g.g.g.g.g.g.gan......#F.1.M.M.j.M.j.jbababsaF.Lbqbqbqbq#9bq.Lbfbf.R.R.R#o.R.R.7.7am.5#b",
"...ybK.g#h.g.g#h.g.ga5.A........be.Z.Za7a7a7a7a0#f#zbh.L.Lbq.L.LbVab.Lbfbfbf#o.R.R.R.7.7.7.7ag#b",
"...y.faJaJaJaJaJaJ#hbi........#kao.Za7a7a7a7a0a0#f#f#zbV.L.L.LbVbV.Lazbf#obf#o.R.7.7.7.7.7.7ag#b",
"..bMbe#haJ.gaJ#haJbp........#kbpaoao.Za7a7a7.jbP#yadbH#lbVbV#l#l#lbVazbfbfbfbf#J.R.7.7.7.7.7ag#b",
"...ybeaJaJaJaJ#1aJ.8.......Uao#h#Wao.Za7a7atat#y#y.qadbH#l#l#l#lbVazazazbw#o#o#o#J.R.R.7.7.7ag#b",
"..bMbKaJaJ#1aJ#1.h....#sbp#h#h#h#haobp.Za7atbububu.q.qadbH#laY#la#bVazazazbwbw#Jbw#J#J#J.R.7ag#b",
"..bMbK#1#1aJ#1#1.8#s.hb7b7b7b7b7.rb7#v#Yatbubu.qbububu.qadadaYaYaYa8a8a8#pa8.6bw#J#Jbw#J#J#Jak#b",
"..bMbKaJ#1#1aJ#1.c#1#1b7b7b7.r.r.r.r#v#Ybubububua6bububu.q.4#6aYaYaYa##p#p#pa8.6bwbw#Jbwbwbwak#b",
"..bMbK#1#O#1#O#W.A#kbC#Sae#v.N.N.NaR.Nbka6.Gbubu.4a6a6a6bu.4.q#6aY.FaY.Fa##p#pa8.6.6bwbwbwbwak#b",
"..bM#rbX#1bX#ObXaebx.k.l.....l#4.#bDaNaRbkbk.G.Gbua6#n.Ga6a6a6.4#6.F.FaY.F#p#p#p.6.6.6.6.6bwak#b",
"..bC#r#O#O#1#O#O#O#O.NbX.N.c#SbC.a.A..#K#q.2bya6bT.G#n.G#n.GbTa6bjb#.F.F#8.F#8#p#p#p#pa8.6.6ay#b",
"..bM#r#O#ObXbX#O#O#O#O#O.N#0.N#0.N.NaR.mb1.a#d..#qaI.G#n#n#n#n#n#Hbj#8.F.F.F.F#8#p#p#p#p#p#pay#b",
"...U#r#1#O#O#O#O#O#Obbbb#O#0.N.N#0#0#0#0br.QbraZ.a#d#3#3#i#n#H.PbT#H.Pbj#8#8#8#8#8#p#p#p#pa8aO#b",
"..bM#r#O#Obb#O#Obb#Obbbbbb#g#0#0#0#0.Q#gbDap#E.C...D.Q#3#3#i#n#HbjbT#H#H#H#8#8#8#8#8#8#p#p#paO#b",
"..bC.mbb#O#O#Obb#Obbbbbbbbbb#0#0#0.o.V#K...C.DapaGbo.Q#Qb4#3#i#ibn#H#H.Pb#b#b#b##8#8#8#8#8#paO#b",
"...U#r#O#gbbbbbbbbbbbbbbbb#g.o#g#g#g#q.a.o.o.o.o#Q.Q#Q#Q#Q#Q#ibnbnbT#H#H#H#Hb#b#b##8#8#8#8#8a.#b",
"..bC.mbbbbbbbbbbbbbbbb#g.o#g#g#g#g.o.V#K.l.2aG.obo#Q#Q.Q#Q#Q#Q#Q#ibnbn.P#H#H.sb#b#b##8b##8#8a.#b",
"...U.mbbbbbbbb#g#g#g#g#g#g#g#g.o.o.o.o.Q.0.a#d#Kb5bt.z#Q#Qb4#Q#i#i#ibnbn#H#H#H#H#Hb#b#b##8#8a.#b",
"..bC.mbb.obb#g#g#g#g#g#g#g#g.o.obo#g#g.obo.ob4bt#q#K...l#Eapbn#Q#Q#i#i#ibnbn#H#H#H.Pb#b#b#b#aU#b",
"...U.m#g#g#g.o#g#g#g.o#g#g#g#g.o.o.obobo.obobobobobo.zap.D.l..#Kb0aV.s#i#ibnbn#H#H#H#H#Hb#b#aU#b",
"..bC.m.o#g#g#g#g#g#g#g#g.o.o.o#g.o.o.o.obobobobobobobobo#Q#Q.z.K#E#L....#Lb5.K.Pbn.P#H#H#H#HaU#b",
"...U.m#g#g.o#g#g.o#g#g#g#g#g.o.o.o.obobo.Q.obobobobobobobo#Q#Q#Q#Q#Q#Q.saVb0#K...Cbn#H#H#H#Har#b",
"..bC.m#g#g#g#g#g#g#g.o#g.o.o#g.o#g.o.obobobo.Qbobobobobobobobo#Q#i#Q#i#Q#Q#Q#i.P.K#ibnbn#H#Har#b",
"..av.G#P#Pbb#P#P#P#P#P#P#P#P#P#P#PbO.O.O.O.ObO.ObO.ObObObObObO.O.O.O.O.O.O.O.O.O.O.T.T.Tar.T#u#b",
"..#b#b#b#b#b#b#b#b#b#b#b#b#b#b#b#b#b#b#b#b#b#b#b#b#b#b#b#b#b#b#b#b#b#b#b#b#b#b#b#b#b#b#b#b#b#b#b"
};
SIMPLE  =                    T                                                  BITPIX  =                    8                                                  NAXIS   =                    2                                                  NAXIS1  =                   48                                                  NAXIS2  =                   48                                                  HISTORY Written by XV 3.10a                                                     END                                                                                                                                                                                                                                                                                                                                                                                                                                                                                                                                                                                                                                                                                                                                                                                                                                                                                                                                                                                                                                                                                                                                                                                                                                                                                                                                                                                                                                                                                                                                                                                                                                                                                                                                                                                                                                                                                                                                                                                                                                                                                                                                                                                                                                                                                                                                                                                                                                                                                             ~FehMevT0#FehD((FhMeZ:0TvFed2DZMe^,FdFesK}vMg2,Fes#:Z}zNgsZD#:zzzMgn,zzzzyNgeN,2szzzzzzFg`F,2KmzzzzyvvNg{Y>;TszzzvvvvvvNl'F`{~zzyvvvvvvNl~zzzyvvvsvvvNl08yyyzyvvssvsssNl8~}}}vvsvssstrVq0M}}}vzzzsttrrrNq'}}}}}strrrrrVlC'}}z}ztrrrrrrVlqs}}}ztttrrrrVl}7}}tttzttrrqVl}}}|uuxxrqqqqV}t*w~~u~|ytqqqqqqqrVtt*~|~|||||ytrrrqrrrqrV{{*wuu|u|||ywtrrrrqqqqrV{x6oo||||w|wwtrtrqrrrrrVtw<|wou|||||wvwtrrrrrruuuV{w<||o|~|||wwvttrtrrruuuuV{<|{||wvtvvrtrrruuuuV{J~||{yywvvvttttruuuuuW{!J{|yvvwvtttrruuuuuuV{!Q|yywwvtvtgssssuuuuW{!QywwwvvttpsspussuuV{-SwwgrwvpsusssssssW{{{-SwwwvgpppsssssssV{{{|9^wrrrppppppupssVx|yyC^wwrpppppppsssV{{|yyyB`rrpppppppsssV{{|wywyBfrpppppppsssV{{yyyyyyLgrpppppppssWx~~{ywyyyywL&pppppppppsEVxxxwwwwwmeeeee]]]]]VVVTTSSSSSLL;LLLLLLLLLLL|EEVVVWWWMWMMMMMMJJMJJDJJDDDDDDDDCDC9CCCCC9999es                                                                                                                                                                                                                                                                                                                                                                                                                                                                                                                                                                                                