/* XPM */
static char *geicon[] = {
/* width height num_colors chars_per_pixel */
"    48    48      253            2",
/* colors */
".. c #020204",
".# c #0b8e64",
".a c #124254",
".b c #968604",
".c c #861c3c",
".d c #11cf71",
".e c #86420c",
".f c #99c82f",
".g c #4d0e41",
".h c #9e6204",
".i c #86ae54",
".j c #5ac26c",
".k c #15a645",
".l c #022214",
".m c #ba264c",
".n c #0a715c",
".o c #28080e",
".p c #0be6b6",
".q c #c64624",
".r c #c2a525",
".s c #47a221",
".t c #ce862c",
".u c #c2324c",
".v c #d36928",
".w c #051214",
".x c #5a961c",
".y c #4ae655",
".z c #4d4a1c",
".A c #c9c611",
".B c #a62624",
".C c #526624",
".D c #36c69d",
".E c #7e42bc",
".F c #4a3a04",
".G c #0aaa9c",
".H c #9a6d99",
".I c #37e862",
".J c #96be14",
".K c #271508",
".L c #be4e84",
".M c #ee324f",
".N c #21cdaf",
".O c #e5b204",
".P c #4b85dd",
".Q c #57dfe4",
".R c #5e62e4",
".S c #2aacac",
".T c #180713",
".U c #52aa9c",
".V c #564a8c",
".W c #9e42d4",
".X c #a40d59",
".Y c #86c6d4",
".Z c #053b29",
".0 c #f21284",
".1 c #15f579",
".2 c #ea8711",
".3 c #4e3274",
".4 c #aec71b",
".5 c #d2522c",
".6 c #1a1604",
".7 c #5e9ba5",
".8 c #929204",
".9 c #73e039",
"#. c #fefefc",
"## c #38180a",
"#a c #666ed4",
"#b c #29b7cf",
"#c c #228ec4",
"#d c #324a84",
"#e c #a37a08",
"#f c #d6a614",
"#g c #ba2ebc",
"#h c #c666d4",
"#i c #c6e00c",
"#j c #922694",
"#k c #6c2e33",
"#l c #a9b227",
"#m c #11d7cf",
"#n c #66aa8c",
"#o c #050b0e",
"#p c #5ac9d8",
"#q c #25e977",
"#r c #d2772c",
"#s c #a8628c",
"#t c #aa5214",
"#u c #8bae91",
"#v c #2d6c35",
"#w c #6e461c",
"#x c #8e9a9c",
"#y c #6986b3",
"#z c #aa20ac",
"#A c #065541",
"#B c #651845",
"#C c #52d561",
"#D c #2a2604",
"#E c #dec604",
"#F c #8e52d4",
"#G c #281842",
"#H c #e13d54",
"#I c #3ea6cc",
"#J c #b55288",
"#K c #df2195",
"#L c #ec9e04",
"#M c #de5438",
"#N c #733a23",
"#O c #0d0207",
"#P c #0ed888",
"#Q c #91dc20",
"#R c #aea337",
"#S c #ca1acc",
"#T c #3e0a1c",
"#U c #12ed8b",
"#V c #cc9625",
"#W c #031d1f",
"#X c #5bf137",
"#Y c #36da87",
"#Z c #8e7699",
"#0 c #3cf44b",
"#1 c #debc06",
"#2 c #478bd4",
"#3 c #4679eb",
"#4 c #2aa9eb",
"#5 c #744ee3",
"#6 c #9e1f3a",
"#7 c #323404",
"#8 c #abd914",
"#9 c #161430",
"a. c #72bd65",
"a# c #1abc6c",
"aa c #ea5ed1",
"ab c #9636e3",
"ac c #92520c",
"ad c #2e6494",
"ae c #72b68c",
"af c #8e6274",
"ag c #b676ec",
"ah c #629674",
"ai c #a69604",
"aj c #953e1a",
"ak c #9a85e6",
"al c #c93c84",
"am c #88bc78",
"an c #a2825c",
"ao c #864e6c",
"ap c #ae7264",
"aq c #1e2e54",
"ar c #667ac4",
"as c #6a929c",
"at c #1ebada",
"au c #66beec",
"av c #8e96ec",
"aw c #47b997",
"ax c #2f9aea",
"ay c #5af0bd",
"az c #b26a44",
"aA c #6e521c",
"aB c #b028d4",
"aC c #263e5c",
"aD c #d04668",
"aE c #d21e7c",
"aF c #129c88",
"aG c #7a2244",
"aH c #a68694",
"aI c #76aeec",
"aJ c #b5469c",
"aK c #ab5764",
"aL c #c63e2c",
"aM c #545808",
"aN c #3a72ac",
"aO c #841864",
"aP c #ca58cc",
"aQ c #63621b",
"aR c #3a58a0",
"aS c #78920c",
"aT c #145c74",
"aU c #de12cb",
"aV c #71ee2c",
"aW c #6a34a4",
"aX c #e66620",
"aY c #cc2b99",
"aZ c #2ea22c",
"a0 c #73c851",
"a1 c #3eb6ac",
"a2 c #969a54",
"a3 c #8ab64c",
"a4 c #22aed4",
"a5 c #de2b84",
"a6 c #aa9644",
"a7 c #e2da04",
"a8 c #aa4ea4",
"a9 c #d6aa14",
"b. c #6b5aec",
"b# c #9f7d54",
"ba c #6ed646",
"bb c #afba26",
"bc c #9e5a4c",
"bd c #beae04",
"be c #ea7314",
"bf c #e05c32",
"bg c #aa8c4e",
"bh c #26fa64",
"bi c #dd494c",
"bj c #3a8eec",
"bk c #c99129",
"bl c #935db9",
"bm c #822254",
"bn c #c2d20c",
"bo c #9e4a0c",
"bp c #16cadc",
"bq c #c75264",
"br c #c025c7",
"bs c #666e04",
"bt c #7696dc",
"bu c #62569c",
"bv c #a61a6c",
"bw c #99a75c",
"bx c #a6c614",
"by c #ee1e74",
"bz c #a69684",
"bA c #322664",
"bB c #56b68c",
"bC c #c2c614",
"bD c #5c3a04",
"bE c #8b44da",
"bF c #ee0eac",
"bG c #c6d20c",
"bH c #ed910c",
"bI c #9e3224",
"bJ c #0e4e44",
"bK c #ae5a8c",
"bL c #ce9e04",
"bM c #aeae2c",
"bN c #ded104",
"bO c #022c1c",
"bP c #9e6e04",
"bQ c #d2303c",
"bR c #f23a3c",
"bS c #22da94",
"bT c #5a8ebc",
"bU c #7a7eac",
"bV c #5272ec",
"bW c #9a6a54",
"bX c #705a1f",
"bY c #566aec",
"bZ c #2ebebc",
"b0 c #b49c0c",
"b1 c #5ee24c",
"b2 c #796ac4",
"b3 c #e7a304",
"b4 c #9eba3c",
"b5 c #eaad04",
"b6 c #56e6bc",
/* pixels */
"................................................................................................",
"...z.zaQaQaQbXaAbXaAaA#w#w#w#w#w#w#N#N#w#N#N#k#N#N#k#k#k#k#k#k#k#kaG#kaG#BaGaGaGaGaG#B#B#B#Baoaf",
"...zaQ.b.b.b#e#e#e#e#ebP.h.h.h.h.hboboboboboajajajbIbI.B.B.B.B.B#6#6#6#6.X.X.X.X.X.X.X.X.X.X#J#.",
"..aQ.bbN#E#1#1.O.O.Ob5b3bHbHbHbH.2.2bebebeaXaX#M#M#MbR.MbRbRbRbR.M.Ma5by.0.0.0.0.0.0.0.0.0bFaa#.",
"..aQ.8a7bN#E#1.Ob5.O.Ob5#LbHbHbH.2bebebebeaXaXbf#M#MbRbRbRbRbRbR.M.Mbybyby.0.0.0.0.0.0.0bFbFaa#.",
"..aQ.8a7bN#E#1.O.Ob5b5b5b3bHbHbHbH.2bebebeaXaXbf#M.qaL.MbR.MbR.M.M.M.Mby.0.0.0.0.0.0.0bFbFbFaa#.",
"..aQ.8a7a7bN#E#1.O.O.O.Ob5#LbHbHbH.2bebebeaXaX.5##.....obQbR.MbR.Mbybyby.0.0.0.0.0.0.0bFbFbFaa#.",
"..aQ.ba7a7bN#E#1.Ob5.Ob5b5b3bHbHbHbH.2be.v#taj##.........obR.MbR.M.M.Mby.0.0.0.0.0.0.0bFbFbFaa#.",
"..aQ.8a7a7a7bN#1.O.O.O.O.Ob5b3bHbHbHac##..................bQ.M.M.Mbybyby.0.0.0.0.0.0bFbFbFbFaa#.",
"..bX.8a7a7a7#E#E.O.O.O.O.Ob5#LbH.h.6....###N.e.T...........T#6.M.MbQa5aE.0.0.0bFbFaUbFbF.0bFaa#.",
"..aQ.8a7bNbN#1#1.Ob5b5.Ob5.Ob3bD....bD.vbebeaX#N.........o....#TaEby.M#K.0bFaU.0bF.0bFbFbFbFaa#.",
"..bX.8a7a7bN#E#1#1.O.O.O.ObL#D...K#e#r#r.vbe#r.v#N.K.T#kbi.u#T..#O.ma5aEa5.0bFaUbFbFaUbFaUaUaa#.",
"..aQ.8a7a7a7#E#E#1#1#1.Ob0.6...FbLbk#r#r#r.v#r#r.vbf#Mbibi#H#H.c..#Obva5#K#KbFbFbFbFaUaUaUaUaa#.",
"..bX.8a7a7a7bNbN.Abd#1b0.6..aAa9#f#Vbk.t#r#r#r#raX.vbf.5bqbi#Ha5.c..#Obv#K#KaE#SaUaUaUaUaUaUaa#.",
"..aQ.8a7#i#i#ibG.A#7ai.6..aQ.A#1a9a9#V.t.t.t#r#r#r.vbf.5biaDaDaDaY.c...oaEaYaYaY#SaUaUaUaUaUaP#.",
"..aQ.8#i#i#i#ibGbb......aMbCbC#1a9a9bk#V#V.t.t#raz.vbfbf.5aDbq.Lala5.g..#B#SaYbr#z#SaUaUaUaUaa#.",
"...C.8#i#i#i#i#ibs......#7bbbCbb.r.r#Vbk#V.t.t#razazbcbqbqbqbq.Lala5aY.T..bv#g#Sbr#SaUaUaUaUaa#.",
"..aQaS#i#i#ibnbn#D.....zbbbC.4bbbM.r#V#V#V#V#r.tazbWbcaKbq.Lbq.L#Jala5bm...gbrbrbr#S#SaUaUaUaa#.",
"...C.8#i#ibGbn#l...6aS.4bnbCbbbb#l.r.rbk.t#Vbgbganb#bcbcbq.L.L#Jal.LalaY.T..#zbr#zbr#S#S#S#SaP#.",
"...C.8#i#i#ibnbsaMbx.4#8.4.4.4#lbb#lbM#Ra6bgbgbgbgb#bWaKaK#J#J.L#J.LaJal#B..aObrbr#zaB#zaB#SaP#.",
"...CaS#i#8#i#8.J#8#8#8#8#8.4b4bbbbbbbbbM#RbgbgbgbganapbK#JbK#J.L.L#J#JaJ#j...gbrbrbrbr#SaBbr#h#.",
"...CaS#8#8#8#8#8#8#Q#8#Q#8#Q.4bbb4bb#l#l#Ra6bgbgbgb#bW#s#s#s#sbKbKbKbKa8aJ..#OaBaBaB#zaBaBbr#h#.",
"...C.x#Q#Q#Q#Q#Q#Q#8#8#8#8#Q.f.f.fb4b4b4.ibwa2a2bgan#Z.H.H.H.H#s#sbl#sbla8.T...W.WabaBaBaBaB#h#.",
"...C.x#Q#Q#Q#Q#Q#8#Q#Q#Q#Q#Q#Q#Q.f.fa3a3a3.i.ibwbwbzaH.H.H.H.H.H.H.H.Hblbl#G...E#FbEbEababaB#h#.",
"...C.s#Q.9#Q#Q.9#Q#Q#Q#Q#Q#Q.9babaa.a0a.a0a.a.am#u#xbz#Z.H#s#Z#Z#Z.H.Hbl#F#G...EbEbEababababag#.",
"...C.xaVaV#XaV.9aV.9.9#Q#Q.9.9.9baa0a0a.a.a.amam#u#u#xbU#Z#Z#ZbUar#Zb2bl.3#o..aWababababababag#.",
"..#v.s.9aV#QaV.9aVaVaVb1.9.9.9.9babaa0a.a0a3amae#n.7as#ybUbU#y#y#ybUb2#G........aWbEababababag#.",
"#O.C.xaVaVaVaV#XaV#XaV#Xbab1.9b1b1baa0a.a.a.bB#n#n.U.7as#y#y#y#ybUb2bu..........#9bE.Eabababag#.",
"..#v.saVaV#X#X#X#X#XaVb1.9b1.9.9b1baa0a0a.bBbBbBbB.U#n.7as#y#ybUarbU.V..........#9#5#5#5bEabag#.",
"#O#v.s#X#X#XaV#XaV#X#Xb1b1b1#Cb1.yb1#C.jaebBbBbBbBbBbB#nah.7bT.P#y#a.R..........bA#5b.#5#5#5ak#.",
"..#v.s#XaV#X#X#X#0#X#Xb1b1b1.y.y.y.y#C.jawbBaw.UawawbBaw.U.U.7bTbTbTar#d......#9#5b.#5#5b.b.ak#.",
"#O#v.s#0#X#X#0#X#X.y#0#0.y#C.I.I.I.I.I#Yaw.Da1awa1a1awawa1.U.UbT.P.P.PaC..aqaRbYbY.Rb.b.b.b.ak#.",
"..#vaZ#X#0#X#0#0#0#0#0.y.I.I.I.I.I#q#Y#Y#Y.D.D.DawawbZ.Dawawa1.U.7#2aR..#o#3#3bYbYbYbY.R.Rb.ak#.",
"..#vaZ#0#0.y#0#0.y#0.I.I.I#0.I#Y.I#q#q.I#Y.y.D.DbZ.D.D.DbZ.NbZa1#Iad....aN.P.P#3#3bVbVbYbY.Rav#.",
"..#vaZ#0#0#0#0#0#0#0#0#0.I#q.I#q.I#Y.I#qbS#Y.D.DbZ.DbZbZ.D#bbZ.S.Z....ad#2.Pbj#3#3#3bVbYbVbVav#.",
"..#vaZ#X#0#0#0#0#0#0#0bh#0#q.I.I#q#q#qbSbS#PbS.N.N.N.N.N.N.SaT#o..#W#c#Ibjbjbjbjbj#3#3#3bVbVbt#.",
"..#vaZ#0#0#0#0bh#0bh.1bhbh.1#q#q#q#qa#.dbS.p#P#m#P.N#PaF.a....#oaTa4#4a4#4bjbjbjbjbjbj#3#3#3bt#.",
"..#v.k#0bh#0#0.1#0bhbhbhbhbh#q#qa#.l.....Z#P.p#P.##A#o....#W.natat#4#b#4ax#4ax#cbjbjbjbjbj#3bt#.",
"..#v.k#0bh.1bhbhbhbhbhbhbh.1.1.1.l........bO.l.......w#AaFbpbpatata4a4#4a4#4#4axaxbjbjbjbjbjaI#.",
"..#v.kbhbhbhbhbhbhbhbh.1.1#U.1.d............#o.Z.n.G#m.p#m#m#m#mbpatat#4#4#4#4axax#cbjaxbjbjaI#.",
"..#v.kbhbhbhbh#Ubh#U#U.1.1.1.1.d..........#W.p.p.p.p#m#m#m#m#mbpbpbpatat#4#4#4#4#4#4bjaxbjbjaI#.",
"..#v.kbh#Ubh.1.1.1.1.1.1.1.1#U.1bJ.........#.p.p.p.p.p#m#m#m#m#m#mbpbpbpatat#4#4a4#4#4axaxaxau#.",
"..#v.k.1.1.1.1.1.1.1.1.1.1.1.1#U#U.nbObO.#.p.p.p.p.p.p#m#m#m#mbp#m#m#mbpbpatat#4#4#4#4#4axaxau#.",
"..#v.k.1.1.1.1.1.1.1.1.1#U#U#U#U#U.p#U.p.p.p.p.p.p.p.p.p.p#m#m#mbp#m#m#mbpbpbpatat#4#4#4#4#4au#.",
"..#v.k.1.1.1.1.1.1.1.1#U.1#U.1#U#U.1.p#U.p.p.p.p.p.p.p.p.p#m.p#m#m#mbp#m#m#mbpbpatata4a4#4#4au#.",
"..#v.k.1.1.1.1.1.1.1#U.1#U#U#U#U.1#U.p.p.p#m.p.p.p.p.p.p.p.p.p#m#m#m#m#m#m#mbpbpbpbpatat#4#4au#.",
"..ah.Dayaybhayayayayayayayayayayayb6b6b6b6b6b6b6.Qb6b6b6b6ayb6.Q.Q.Q.Q.Q.Q.Q.Q.Q.Q#p#p#pau#p.Y#.",
"..#.#.#.#.#.#.#.#.#.#.#.#.#.#.#.#.#.#.#.#.#.#.#.#.#.#.#.#.#.#.#.#.#.#.#.#.#.#.#.#.#.#.#.#.#.#.#."
};
SIMPLE  =                    T                                                  BITPIX  =                    8                                                  NAXIS   =                    2                                                  NAXIS1  =                   48                                                  NAXIS2  =                   48                                                  HISTORY Written by XV 3.10a                                                     END                                                                                                                                                                                                                                                                                                                                                                                                                                                                                                                                                                                                                                                                                                                                                                                                                                                                                                                                                                                                                                                                                                                                                                                                                                                                                                                                                                                                                                                                                                                                                                                                                                                                                                                                                                                                                                                                                                                                                                                                                                                                                                                                                                                                                                                                                                                                                                                                                                                                                             ııııııııııııııııııııııııııııııııııııııııııııııı~´´™´´´´´´´´´´´­­­­­­­±­­­­´­±±±±±±±±±±¥¥¥¦¥²ıMe”””””””’”’’’’”’“““‘“““““““““‘‘‘‘‘‘‘‰‰‡‡¦ıMe””””””””’”’”’’”“’“““““““““‘“‘‘‘‘‘‘‰‰ƒƒ‡‡¦ıMe”””””””””’’’’’“’““““““““““‘‘‘‘‘‘‰‰‡‡‡‡‡¦ıMe””””””””””””’’JZ““““““‘‘‘‘‘‘‘‰‰‡‡‡‡‡¦ıMe™’™””””””””’”6Z“““““‘‘‘‘‘‘‰‰‡‡ƒ‡‡¦ıMe™™™™’™’’””””““““‘‘‘‘‘‰‰‡‡‡‡‡‡¤ıMe™™™™™™™™””’”	%Jp‘“‘‘‘‘‰‰‡‡‡‡q¤ıMeš™”™™™™™™™”””6i‰‰ƒƒ‡ƒ‡‡¤ıMeš™šš”š™™™™™““w%†“†Z6	J‰‰‡‰‡‡qy•ıMgšššš™š™”™™”““““w“†‘††i4	Gƒ‡ƒ‡yyy•ıMg ššššššš™š“––“““†G	qˆyyyzz•ıMgššššššššš–“–“–”–“”ŒŒŒ‰Œ%X~yyyzwzz ıMgšš™šš™š–––š–”–““–”™ŒŒŒ‹ˆXg~~yyzzwwt ıMg š ššššš™–––––“”””ŒŒŒŒŒ‹‰‡X	yywwwwttv›ıMnš  š  ™šš™•–––––”Œ‹Œ‹‹ŒŒ‹‰‰ƒ~~~:.Xwwtvvvv›ıMn ¤   š  ™™™™•ŒŒ‰ŒŒŒ‰‰‡ƒƒƒ~Jrvrrvv›ıMn   ¤ ¤  •™•˜~‡ƒ~ƒ{t3rvrrr›ıMn¤¤     ¤   ›˜˜•‰‡…ƒƒƒ~ƒXrrrsrıTn¤¤¤¤ ¤ ¤ › ›˜•••‰‡…ƒƒƒƒƒ}esirrrıMn ¤¤¤ ¤¤¤    ››˜•˜–Ÿ˜‡…ƒƒƒƒƒƒƒ}$XsrrrrıTn¤¤ ¤ ¤  ¤¤   ›˜˜•••ŸŸ–ƒƒƒƒƒ~ƒ}}E	XrrrrrrıTn¤ ¤¤ ¤¤¤¤¤¤ ››•˜•˜••Ÿ–˜ƒƒ€ƒƒƒƒƒ}z$issrrrrıTn¤¤¤¤¤ª¤¤¤¤¤¤¤ŸŸ–––’’––˜“ƒƒƒƒƒƒƒƒ}}$izssrrq˜ıTn¤¤¤¤¤¤ªªªª¤ŸŸŸœœœ’–Œ‡ƒƒƒƒƒ€€}€}{xxrqqqq˜ıTtªªªªªª¤ª¤ª¤£ŸœŸ™™•ŒŒŒ‚w€€€€~~~~{yqqqeqqs˜ıTtµªµª•ªªªªª£œŸŸŸŸ™•ŒŒŒŒ‡„~|~|||||y\+ssssrqs˜ıT{µµµ­ZJŸ£ª£££™Ÿ™™•ŒŒŒŒ‚wuu|||||yw9Isseqeqr‘ıT{µµ®­™t£­¨ŸŸ™šš”–ŒŒ‡‚oo}|||w|wsesesrrrr‘ıWtµµµ­­"CŸ¨£Ÿ™š––––Š|wou}|}||wvJ+sssrruuu ıT{µµµµµZ+Ÿ¨Ÿšš–”–Š||o}}}}|wvsVtrsruuuu ıW{µµµµ®ŸJ¨¨«¡¡”––Š|ƒ‚‚xz}|wv+9rsseruuuu ıW{»µµµ®ª+„Wª«¡¡–ŠŠŠƒ‚x|zzzsEjsssruuuuu‘ıX{»»»µµª˜«S¡Ÿ–”ŠŠŠŠ‡ƒ‚x}|xvEVttjruuuuuu ıW{»»»¯¯«««¨7–”ŠŠŠƒŠŠƒ‚||xxEVvttssssuuuu ıX{»»µ¯««¨¨¨¨–"vŠŠƒŠƒJD|g^vjvpsussusuu ıW{»µµ««¨§§¨§¨¡==ƒ‡Jjrwtpsupspssss ıX{»»»¯¯¨¨¨¨¨§ ›g JPNwwivjpppssussps ıW{»»»µ«¨¨¨¨¨§¡›››] iwwwrrrppppppssss ıWw»»µ¯«¨§¨§§¡››››–ƒfV ywywwwrpppppppsss ıW{»»µ¯«¨¨¨¨§ ›››–‡‡x iywywrrrpppppppsss ıW{»µ¯«¨¨§§§¡››››–‡‡‚liwywywwwwrpppppppsss ıW{»µ¯«¨§¨¨§ ›››–‡‡‚yyyyyywwrrrpppppppss ıWwµ¯««¨¨¨§¡››››––‡‡ywyyyywwvrppppppppps ıCWwwwvvvvvmggggg]]]]]VVVTTQQQQQNNNNLLLLLLLLLL|ıCCWWWXSXSSMMMMMMJJMJJDJJDDDDDDDDEDE9EEEEE9999es                                                                                                                                                                                                                                                                                                                                                                                                                                                                                                                                                                                                