#define face_width 64
#define face_height 64
static unsigned char face_bits[] = {
   0x00, 0x00, 0x00, 0x00, 0x00, 0x00, 0x00, 0x00, 0x00, 0x00, 0x00, 0x00,
   0x00, 0x00, 0x00, 0x00, 0x00, 0x00, 0x00, 0x00, 0x00, 0x00, 0x00, 0x00,
   0x00, 0x00, 0x00, 0x00, 0x00, 0x00, 0x00, 0x00, 0x00, 0x00, 0x1f, 0x00,
   0x00, 0x00, 0x00, 0x00, 0x00, 0x80, 0x20, 0x00, 0x00, 0x00, 0x00, 0x00,
   0x44, 0x44, 0x40, 0x4e, 0x44, 0x44, 0x44, 0x04, 0x00, 0x00, 0x84, 0x11,
   0x00, 0x00, 0x00, 0x00, 0x00, 0x23, 0x04, 0x20, 0x00, 0x00, 0x00, 0x00,
   0xc0, 0x2c, 0x0e, 0x20, 0x00, 0x00, 0x00, 0x00, 0x20, 0x20, 0x04, 0xe0,
   0x00, 0x00, 0x00, 0x00, 0x10, 0x00, 0x00, 0x01, 0x01, 0x00, 0x00, 0x08,
   0x10, 0x11, 0x00, 0x01, 0x02, 0x00, 0x00, 0x00, 0x00, 0x01, 0x80, 0x03,
   0x04, 0x00, 0x00, 0x00, 0x88, 0x03, 0x08, 0x01, 0x84, 0x47, 0xfc, 0x00,
   0x08, 0x01, 0x08, 0x10, 0x64, 0x18, 0x02, 0x03, 0x04, 0x20, 0x1c, 0x00,
   0x10, 0x20, 0x01, 0x04, 0x04, 0x20, 0x08, 0xa8, 0x01, 0x40, 0x20, 0x08,
   0x00, 0x72, 0x01, 0x00, 0x08, 0x80, 0x20, 0x08, 0x88, 0x20, 0x01, 0x04,
   0x04, 0x11, 0x70, 0x10, 0x20, 0x01, 0x02, 0x02, 0x02, 0x11, 0x20, 0x10,
   0x00, 0x01, 0x84, 0xe0, 0x02, 0x39, 0x00, 0x10, 0x00, 0x80, 0x10, 0x08,
   0x80, 0x13, 0x00, 0x22, 0x00, 0x44, 0x00, 0x04, 0x82, 0x03, 0x01, 0x22,
   0x00, 0x10, 0x00, 0x02, 0xc0, 0x07, 0x21, 0x07, 0x08, 0x00, 0x10, 0x42,
   0xc0, 0x87, 0x23, 0x22, 0x00, 0x00, 0x76, 0x41, 0xe0, 0x0f, 0x21, 0x00,
   0x80, 0x00, 0x00, 0xe2, 0xe0, 0x0d, 0x70, 0x20, 0x00, 0x24, 0x01, 0x40,
   0xe0, 0x0d, 0x71, 0x24, 0x00, 0x80, 0x10, 0x08, 0xe0, 0x0e, 0x79, 0x00,
   0x08, 0x40, 0x10, 0x00, 0xc0, 0x07, 0xf9, 0x20, 0x00, 0x40, 0x38, 0x00,
   0x81, 0x43, 0xf8, 0x20, 0xc0, 0x0f, 0x10, 0x00, 0x41, 0x80, 0xec, 0x41,
   0x10, 0xb0, 0x80, 0x80, 0x03, 0x31, 0xec, 0x45, 0x08, 0x00, 0x82, 0x08,
   0x81, 0x04, 0xdc, 0x01, 0x04, 0x00, 0x80, 0x20, 0x00, 0x00, 0xf8, 0x44,
   0x04, 0x00, 0xc0, 0x81, 0x2a, 0x00, 0x70, 0x00, 0x00, 0x00, 0xc1, 0x11,
   0x00, 0x00, 0x00, 0x41, 0x02, 0x04, 0xe1, 0x11, 0x04, 0x00, 0x40, 0x08,
   0x12, 0x84, 0xf3, 0x39, 0x00, 0x00, 0x10, 0x48, 0x10, 0x0e, 0xf1, 0x11,
   0x00, 0x00, 0x00, 0x1c, 0x39, 0x04, 0xf8, 0x03, 0x10, 0x00, 0x00, 0x48,
   0x10, 0x00, 0xd8, 0x2b, 0x04, 0x00, 0x80, 0x00, 0x01, 0x00, 0xdc, 0x47,
   0x01, 0x00, 0x80, 0x40, 0x00, 0x40, 0xec, 0x07, 0x00, 0x00, 0xc0, 0x21,
   0x02, 0x40, 0xec, 0x87, 0x00, 0x00, 0x80, 0x20, 0x24, 0xe0, 0x9c, 0x87,
   0x00, 0x00, 0x00, 0x10, 0x08, 0x42, 0xf8, 0xc3, 0x01, 0x00, 0x00, 0x00,
   0x10, 0x02, 0xf0, 0x81, 0x00, 0x00, 0x00, 0x08, 0x10, 0x07, 0x00, 0x08,
   0x00, 0x00, 0x00, 0x05, 0x00, 0x02, 0x42, 0x08, 0x08, 0x00, 0x00, 0x01,
   0x20, 0x00, 0x42, 0x1c, 0x08, 0x00, 0x00, 0x00, 0x00, 0x00, 0xe0, 0x08,
   0x1c, 0x00, 0x40, 0x00, 0x40, 0x00, 0x42, 0x80, 0x08, 0x00, 0x00, 0x00,
   0x00, 0x81, 0x04, 0x40, 0x40, 0x00, 0x00, 0x04, 0x00, 0x44, 0x00, 0x10,
   0x22, 0x01, 0x00, 0x00, 0x00, 0x28, 0x08, 0x08, 0x08, 0x00, 0x40, 0x00,
   0x04, 0x00, 0xa0, 0x02, 0x00, 0x00, 0x00, 0x00, 0x00, 0x00, 0x00, 0x00,
   0x00, 0x00, 0x00, 0x08, 0x20, 0x00, 0x00, 0x00, 0x00, 0x00, 0x00, 0x00,
   0x00, 0x80, 0x00, 0x48, 0x04, 0x00, 0x00, 0x00, 0x80, 0x08, 0x80, 0x00,
   0x20, 0x00, 0x00, 0x00, 0x00, 0x00, 0x02, 0x00, 0x00, 0x00, 0x00, 0x00,
   0x00, 0x00, 0x08, 0x00, 0x00, 0x00, 0x20, 0x00 };
