/* XPM */
static char * image_name[] = {
"48 48 230 2",
"  	c None",
". 	c #0000186128A2",
"X 	c #79E700000000",
"o 	c #492414510000",
"O 	c #492430C21861",
"+ 	c #69A692489658",
"@ 	c #69A659654103",
"# 	c #596518611861",
"$ 	c #9E7930C22081",
"% 	c #69A618611861",
"& 	c #69A600000000",
"* 	c #5965451430C2",
"= 	c #71C669A65965",
"- 	c #71C675D671C6",
"; 	c #596559655144",
": 	c #38E334D330C2",
"> 	c #28A224922081",
", 	c #30C234D330C2",
"< 	c #38E338E330C2",
"1 	c #618551444103",
"2 	c #9E792CB22081",
"3 	c #9E791C712081",
"4 	c #514438E32081",
"5 	c #596555554924",
"6 	c #410349244103",
"7 	c #38E32CB22081",
"8 	c #28A214511040",
"9 	c #30C21C711861",
"0 	c #28A21C711861",
"q 	c #30C234D328A2",
"w 	c #30C22CB228A2",
"e 	c #38E334D328A2",
"r 	c #30C228A228A2",
"t 	c #49243CF330C2",
"y 	c #000028A230C2",
"u 	c #965834D31861",
"i 	c #69A6555538E3",
"p 	c #38E324921861",
"a 	c #30C22CB22081",
"s 	c #38E338E328A2",
"d 	c #41033CF330C2",
"f 	c #4924410328A2",
"g 	c #38E334D32081",
"h 	c #51444D3438E3",
"j 	c #30C224921861",
"k 	c #59652CB22081",
"l 	c #0000555538E3",
"z 	c #000000000000",
"x 	c #BEFB20811861",
"c 	c #69A62CB21861",
"v 	c #49245D755965",
"b 	c #410334D328A2",
"n 	c #28A224921861",
"m 	c #30C220811861",
"M 	c #4924451428A2",
"N 	c #38E32CB21861",
"B 	c #492430C22081",
"V 	c #61855D755144",
"C 	c #71C618611861",
"Z 	c #104034D32081",
"A 	c #71C628A21861",
"S 	c #596561855965",
"D 	c #492455554924",
"F 	c #4103410330C2",
"G 	c #38E330C22081",
"H 	c #5144451428A2",
"J 	c #30C228A21861",
"K 	c #49242CB228A2",
"L 	c #5965514438E3",
"P 	c #8E3871C64924",
"I 	c #492434D328A2",
"U 	c #965861855965",
"Y 	c #38E3410338E3",
"T 	c #492449244103",
"R 	c #410328A21861",
"E 	c #28A220811861",
"W 	c #410334D32081",
"Q 	c #410338E32081",
"! 	c #596538E328A2",
"~ 	c #000061855965",
"^ 	c #49243CF328A2",
"/ 	c #492434D31861",
"( 	c #18610C300820",
") 	c #C71B9E79A699",
"_ 	c #69A61C711040",
"` 	c #61853CF328A2",
"' 	c #49244D3438E3",
"] 	c #208118611040",
"[ 	c #30C21C711040",
"{ 	c #492418611040",
"} 	c #A699B2CAB6DA",
"| 	c #71C6451428A2",
" .	c #71C6514430C2",
"..	c #410338E328A2",
"X.	c #186114511040",
"o.	c #9E79B2CABEFB",
"O.	c #61851C712081",
"+.	c #30C249244103",
"@.	c #30C230C228A2",
"#.	c #410324921861",
"$.	c #618569A66185",
"%.	c #492451444924",
"&.	c #51442CB21861",
"*.	c #492428A21861",
"=.	c #49242CB21861",
"-.	c #514441032081",
";.	c #492438E32081",
":.	c #4103492438E3",
">.	c #69A665955965",
",.	c #41032CB21861",
"<.	c #596530C21861",
"1.	c #514434D31861",
"2.	c #618534D31861",
"3.	c #186110400820",
"4.	c #000000008617",
"5.	c #71C671C669A6",
"6.	c #5144451438E3",
"7.	c #59652CB21861",
"8.	c #596538E31861",
"9.	c #596545142081",
"0.	c #28A228A22081",
"q.	c #4924514438E3",
"w.	c #28A22CB22081",
"e.	c #082004100000",
"r.	c #4924451438E3",
"t.	c #59654D344103",
"y.	c #0000000028A2",
"u.	c #38E33CF338E3",
"i.	c #28A22CB228A2",
"p.	c #8E389E798E38",
"a.	c #28A230C228A2",
"s.	c #61853CF31861",
"d.	c #79E7555530C2",
"f.	c #86177DF769A6",
"g.	c #69A634D31861",
"h.	c #79E745141861",
"j.	c #8617555528A2",
"k.	c #69A645142081",
"l.	c #00007DF779E7",
"z.	c #410345144103",
"x.	c #79E73CF31861",
"c.	c #8E384D341861",
"v.	c #9E7979E771C6",
"b.	c #410341034103",
"n.	c #71C63CF31861",
"m.	c #861738E31861",
"M.	c #861745141861",
"N.	c #8E3855552081",
"B.	c #79E751441861",
"V.	c #79E765956185",
"C.	c #69A671C66185",
"Z.	c #69A63CF31861",
"A.	c #79E745142081",
"S.	c #9E7959652081",
"D.	c #9E7971C61861",
"F.	c #79E7555528A2",
"G.	c #965855552081",
"H.	c #9E7955552081",
"J.	c #A69969A62081",
"K.	c #965865952081",
"L.	c #69A649242081",
"P.	c #514455554924",
"I.	c #596565954103",
"U.	c #9E7961852081",
"Y.	c #96585D752081",
"T.	c #965869A630C2",
"R.	c #71C63CF338E3",
"E.	c #9E79659528A2",
"W.	c #8617596530C2",
"Q.	c #28A210401040",
"!.	c #618530C21861",
"~.	c #71C630C21861",
"^.	c #8E38659530C2",
"/.	c #AEBA820728A2",
"(.	c #8617659538E3",
").	c #861761854103",
"_.	c #492424921861",
"`.	c #96584D341861",
"'.	c #B6DA8A2830C2",
"].	c #BEFB924838E3",
"[.	c #965871C638E3",
"{.	c #B6DA9A696185",
"}.	c #C71BA28969A6",
"|.	c #96586DB638E3",
" X	c #8617820779E7",
".X	c #AEBA6DB628A2",
"XX	c #BEFB861728A2",
"oX	c #A69975D628A2",
"OX	c #AEBA8A284103",
"+X	c #9E7979E74103",
"@X	c #B6DA92485144",
"#X	c #00004D3428A2",
"$X	c #082008200820",
"%X	c #A6997DF730C2",
"&X	c #B6DA79E728A2",
"*X	c #A69986174924",
"=X	c #618561854924",
"-X	c #596524921861",
";X	c #A69971C62081",
":X	c #B6DA861730C2",
">X	c #79E73CF32081",
",X	c #A6995D752081",
"<X	c #28A204100000",
"1X	c #79E7659538E3",
"2X	c #5965514428A2",
"3X	c #79E761852081",
"4X	c #000049242081",
"5X	c #8E3830C228A2",
"6X	c #86172CB21861",
"7X	c #9E7975D628A2",
"8X	c #9E79820730C2",
"9X	c #A6998A284103",
"0X	c #9E7986174103",
"qX	c #79E765954924",
"wX	c #86174D3428A2",
"eX	c #B6DAA2895965",
"rX	c #186120812081",
"tX	c #AEBA96584924",
"yX	c #A6999A695144",
"uX	c #79E75D754924",
"iX	c #8E3882076185",
"pX	c #79E771C65144",
"aX	c #861728A22081",
"sX	c #00001C711861",
"dX	c #9E795D755144",
"fX	c #28A238E34103",
"gX	c #00003CF328A2",
"hX	c #E79D20812081",
"jX	c #10402CB21861",
"kX	c #410369A64924",
"                                                                                                ",
"                                    . X o O O + @ # $                                           ",
"                                % & * = - ; : ; > , < 1 2                                       ",
"                              3 4 5 6 7 8 9 0 q < 0 w e r t 2                                   ",
"                          y u i , p 8 0 a s d f g e h j w r k l                                 ",
"                      z x c v 6 b 0 0 n h j p m M f N @ B 9 B V C                               ",
"                    Z A s S D 0 m F a p m G H n J K L g 4 P I I I P                             ",
"                  U * B Y < 9 0 7 T R m L m J j N J E W Q I * * ! ! z                           ",
"              ~ U u I p I j 9 E ^ m / R N M E N E m N 0 j b ^ 4 i * i (                         ",
"            ) _ ` e t ' e a : t J m Q g m b ] ] 0 E ] 0 n J 0 0 [ I 5 {                         ",
"            } |  .B ! I ..e d ..R N 0 H E X.X.X.X.] E E 0 0 E m Q [ m J *                       ",
"            o.@ ` K ^ d : > 0 m m J ] ] X.X.] X.] 0 0 m 0 m N J a j j j ] O.                    ",
"            +.` I ! t d w @.d 0 0 X.X.X.X.0 m 0 ] #.p p N E ] 0 E n E r m g $.                  ",
"              } K 7 b ..e %.m m ] X.X.] ] #.p p E &.*.*.=.O -.;.f e g F :.T Y (                 ",
"              z >.7 r d d < [ ] X.] 0 m 0 ,.#.m E <.=.1.2.=.R p [ Q J g ;.J 0 7                 ",
"        3.4.    5.6.r d 6 > ] X.] m R m p R #.E m 1.=.<.7.7.8.4 9.N O J 0.7 q X.1               ",
"      ( >.q.w.- e.>.r.m v > X.0 [ p #.j j ,.R n j =.*.=.<.7.<.*.R 9.i t.G w @.g X.y.            ",
"      z >.5 u., i.$.- S 6 ] 0 p R ,.,.E m ,.,.n p =.=.1.1.2.&.=.2.R R G 4 @.@.a n i             ",
"      p.5 6 w : < a.F 0 n [ p R ,.=.,.n p *.,.m R 1.1.2.1.2.2.<.&.s.d.i L g 0.w.a 0.y.          ",
"      f.V %.: < < a a 0 p N ,.R =.O *.m j =.R j p &.=.7.2.g.g.g.h.j.k.[ ] m n n a a ^           ",
"      l.5.; 6 z.z.w.n n N m p p R R p n E ,.,.j R 1.<.2.k.h.h.x.c.j.4 Q J @.w.w.> @.n z         ",
"      v.>.%.b.< < @.0 n / m R *.,.p R E m O R G =.8.s.n.h.h.m.M.N.B.R f ..X.{ 8 n J J t.        ",
"      V.C.; Y Y z.F n n R #.p #.=.R m m ,.=.R e k.Z.n.n.A.M.c.c.S.D.9.N t % #.A m g > L         ",
"      5.C.%.6 T D q.i.n 0 #.p p *.,.j m B 8.=.W F.j.M.n.M.G.S.H.J.K.` L.L.# X.c  .H J w.        ",
"      V.C.P.:.P.I.q.Y D J 0 p =.,.R m p 1.1.R N <.A.h.h.N.U.J.Y.U.K.| ! T.* 0 ` P 9.N i.R.      ",
"      p.- S I.D $.z 5 T L.#.0 p p p j N O 8.R m p #.&.&.<.c.S.U.Y.E.W.L.T.F.! * d.i ;.0 Q.      ",
"      6.f.$.v     V ..> * !.] 0 p R R j =.=.#.E #.&.<.&.&.~.x.m.n.n.^.| W./.i O (.).i W z       ",
"              ; e 5 e a H ~.=.0 m ,.p J *.*.#.K #._.7.&.!.m.`.h.0 N.'.j.j.].[.` T.{.}.|.P       ",
"             Xe n r.7 n ^ ~.g.&.m p p 4 R #.*.m p =.&._.7.m.M.M.<..XXXoXG.OXOX+X@X'.m.#X        ",
"          $X>.F w.t.d n :.c !.7.R p L.j =.=.&.,.#.#.#.#.7.m.c.S.M.u .XXX%X&X@XT.*X(.            ",
"             X=X@.r.e a e -X-X=.=.*.p / 1.R L.O F.s.1.=.2.Y.oX;XS.H.S.J.&X:X:XT.G.              ",
"            y. Xq 7 d ..w.k | 4 9.9.;.p #.p =.p 2.g.>X2.g.S.oX;XS.,X,X,XJ.&X2.<Xe.              ",
"              e. X0.d g g s -X!.!.1.s.4 k.R 1X2XF.3X3X^.k.E.U..XS.H.S.H.H.`.Z.$X                ",
"                e.s Q f Q @.^ A k.1XL.F.Z.*.#.L.d.8.k.2.k.A.E.N.c.A ~.u c.4X                    ",
"                  p.n F Q M s ` 5XA 6X| j.j.(.3X3X7X8X9X0X+XT.7X'.^.G h qX                      ",
"                    $.G h / f P.>XW.x. .wXn.!.k.B.g.c g.k.E.[.eXi rXw X.                        ",
"                    z q E M / ! k A wX| >X^.| F.^.K.7XtXyX*X*X= X.w.9 6.                        ",
"                        T s M G @.D uX-X1Xn.wXA.M.h.T.A.!.k.iXi.0 w.5X                          ",
"                          5 Q h / G ' = A u  .yXyX[.wX@ pX5 V 0 X.aX                            ",
"                            >.a f g J s r.T > u.0 _.^ j ; e.t R._                               ",
"                              $Xz.e Y F d s q J u.; rX6 z   5XR.sX                              ",
"                                  z d X.w.a.i.Y z X.;     aXdXsX                                ",
"                                                        fX5X~                                   ",
"                                                        5XgX                                    ",
"                                                      hX:                                       ",
"                                                  z jX<X                                        ",
"                                                z kX$X                                          ",
"                                                  e.                                            "};
