/* XPM */
static char * NIC_eth_2_xpm[] = {
"49 48 192 2",
"  	c None",
". 	c #181000",
"+ 	c #606078",
"@ 	c #383840",
"# 	c #B88C88",
"$ 	c #C8A478",
"% 	c #889488",
"& 	c #283020",
"* 	c #585068",
"= 	c #283828",
"- 	c #485060",
"; 	c #484838",
"> 	c #484850",
", 	c #8894A0",
"' 	c #E0B468",
") 	c #B0A458",
"! 	c #507838",
"~ 	c #504840",
"{ 	c #182020",
"] 	c #403830",
"^ 	c #404840",
"/ 	c #283038",
"( 	c #A09450",
"_ 	c #507048",
": 	c #283030",
"< 	c #001800",
"[ 	c #207818",
"} 	c #608450",
"| 	c #100810",
"1 	c #403838",
"2 	c #282020",
"3 	c #182028",
"4 	c #688468",
"5 	c #C08C78",
"6 	c #C09458",
"7 	c #186808",
"8 	c #509C50",
"9 	c #585058",
"0 	c #101010",
"a 	c #080810",
"b 	c #68AC68",
"c 	c #80BC78",
"d 	c #80DC78",
"e 	c #78CC68",
"f 	c #687078",
"g 	c #787888",
"h 	c #78B460",
"i 	c #606868",
"j 	c #68A458",
"k 	c #605060",
"l 	c #181818",
"m 	c #080808",
"n 	c #90AC80",
"o 	c #606070",
"p 	c #68C458",
"q 	c #B89470",
"r 	c #000808",
"s 	c #000000",
"t 	c #605850",
"u 	c #585048",
"v 	c #989470",
"w 	c #68B458",
"x 	c #C09C78",
"y 	c #183810",
"z 	c #182018",
"A 	c #706868",
"B 	c #68BC60",
"C 	c #A08478",
"D 	c #000010",
"E 	c #A8AC98",
"F 	c #808C78",
"G 	c #107018",
"H 	c #68A450",
"I 	c #185010",
"J 	c #506860",
"K 	c #387020",
"L 	c #688458",
"M 	c #A0A488",
"N 	c #606050",
"O 	c #687860",
"P 	c #109410",
"Q 	c #509440",
"R 	c #307030",
"S 	c #F0C480",
"T 	c #D8AC50",
"U 	c #887038",
"V 	c #68AC60",
"W 	c #608440",
"X 	c #686060",
"Y 	c #787078",
"Z 	c #606060",
"` 	c #409428",
" .	c #78C468",
"..	c #D8B480",
"+.	c #A0BC60",
"@.	c #78AC68",
"#.	c #908468",
"$.	c #B09C98",
"%.	c #B0A470",
"&.	c #78CC60",
"*.	c #D0C4B0",
"=.	c #B8AC98",
"-.	c #C0ACA0",
";.	c #606040",
">.	c #403020",
",.	c #684828",
"'.	c #605040",
").	c #404020",
"!.	c #281008",
"~.	c #381008",
"{.	c #402008",
"].	c #683018",
"^.	c #585848",
"/.	c #BCA694",
"(.	c #B09490",
"_.	c #A79288",
":.	c #6F626F",
"<.	c #A09C80",
"[.	c #B0AC78",
"}.	c #282010",
"|.	c #B89CA0",
"1.	c #C09C98",
"2.	c #C0AC8A",
"3.	c #BAA28E",
"4.	c #B8A89A",
"5.	c #D0BCA0",
"6.	c #F8FCE8",
"7.	c #F0FCE0",
"8.	c #C8DCC0",
"9.	c #180810",
"0.	c #B88C90",
"a.	c #C8A488",
"b.	c #B89C88",
"c.	c #C09C90",
"d.	c #B89C8E",
"e.	c #BF9C8F",
"f.	c #D8D4B0",
"g.	c #D8DCD8",
"h.	c #E8ECD8",
"i.	c #886860",
"j.	c #E0F4E8",
"k.	c #C0A480",
"l.	c #C09C80",
"m.	c #B89C78",
"n.	c #C0AC90",
"o.	c #E0DCC8",
"p.	c #B09478",
"q.	c #D0D4C0",
"r.	c #F0F4E0",
"s.	c #A09C90",
"t.	c #C0AC88",
"u.	c #A88C68",
"v.	c #685850",
"w.	c #B89C80",
"x.	c #A09478",
"y.	c #C0AC98",
"z.	c #B8A490",
"A.	c #C8C4B8",
"B.	c #B0A490",
"C.	c #B8ACA0",
"D.	c #B09C78",
"E.	c #B39C83",
"F.	c #9BAC64",
"G.	c #79BB4F",
"H.	c #A9A17B",
"I.	c #988C78",
"J.	c #A8C4D0",
"K.	c #9FA774",
"L.	c #43D22A",
"M.	c #28E413",
"N.	c #77BC53",
"O.	c #C0BCA0",
"P.	c #B89C90",
"Q.	c #B09C88",
"R.	c #AFA382",
"S.	c #31D11B",
"T.	c #2FD61B",
"U.	c #8DB264",
"V.	c #BC9889",
"W.	c #AA9460",
"X.	c #969856",
"Y.	c #B89985",
"Z.	c #C49668",
"`.	c #C4392E",
" +	c #BD8868",
".+	c #C37667",
"++	c #D81914",
"@+	c #C09488",
"#+	c #C37258",
"$+	c #C3725D",
"%+	c #BA9479",
"&+	c #B08C88",
"                                                                                                  ",
"                                                                                                  ",
"                                                                                                  ",
"                                                                                                  ",
"                                                                                                  ",
"                                                                                                  ",
"                                                            .                                     ",
"                                                            . +               @                   ",
"                                                      # $ % & * = @ - @     ; >                   ",
"                                                    , ' ) ! ~ { ] ^ / - @ ] ] & @                 ",
"                                                  , ' ( _ ~ : < [ } * | 1 1 2 3 4 , , +           ",
"                                                , 5 6 } ~ : < 7 8 9 0 / ; : | a } b c c c d e % f ",
"                                              g 5 $ h 2 i & [ j k l l m 2 { a ^ n 4 4 o ~ j h p b ",
"                                            - * q ) n r a { @ @ { l s m 0 0 : _ } 4 t u / v w c   ",
"                                            x s _ j n y z & ^ 0 a s { { s { ! } } @ ] ~ A c B +   ",
"                                          , C D } E F [ G H ] y y ^ I = & J K } F z 0 t L h ,     ",
"                                        ' ' v z } n M _ N O F } [ P Q [ [ G } 8 } R Q Q B ,       ",
"                                      S T U V 7 W j 4 X A Y Z 1 _ W n ` _ Z ! w j n  .p %         ",
"                                    ..T +.@.j [ _ F Z Y f O 1 ~ #.n F _ & / Z c p  .B B           ",
"                                  $.T ( @.@.j ! V ] ] ] @ 1 & A 4 } L ; m & _ h h h V +           ",
"                                , x %.c j n j H L ! u J ; & t N t Z Z F F #.M  .&.B ,             ",
"                              , 5 T @.@.n n @.n j 8 Q W } Z Z Z f Y Z ~ Y *.=.8 h b               ",
"                            g x T F L 4 F L h j c h h c 4 % N i f t u : ] ! ! j @.                ",
"                          * -.6 j ;.>.,.'.t A F F F j j 4 N Z Y o t / & = >.).Q -                 ",
"                          F 6 +.j ,.!.~.{.. ].& 2 Y F o ^.Z f t t ^ : / ^ H ` g                   ",
"      g /.(._.:.        $ <.[.F F ).}.>.!.. !.m a ^ z a 2 : > X - / & { ! n 8                     ",
"    , |.1.|.2.3.4., g 5...6.7.8.=.F & l 2 { 9.>.z ! s s s m s s 2 & 2 3 ;.b                       ",
"  0.0.a.b.c.d.e.c.0.0.c.b.f.g.g.6.h.#.i.j.h.E F % O @ a s s s s { 3 { & Q                         ",
"  |.1.k.b.b.b.c.b.c.l.m.n.*.o.f.~ i.p.q.g.r.j.h.o.Y s.Y 0 l { s l @ z [ f                         ",
"  |.c.b.b.t.b.b.b.b.l.b.h.6.q.5.u.v.c.b.c.n.*.q.=.X > i N Y o { : ).I 4                           ",
"    c.b.t.b.t.b.b.b.b.q.f.h.h.=.w.x.y.y.z.t.c.b.k.t.n.<.g A > : z R _                             ",
"      |.b.t.b.b.b.t.n.5.A.B.h.C.p.C.z ; A x.D.E.F.G.H.b.t.z.y.B.I.@.g     g J.                    ",
"      g |.b.t.t.b.b.n.=.N ] q.E w.=.l s s s ~ K.L.M.N.b.b.b.b.b.b.=.C.O.s.|.P.                    ",
"          + , |.b.i.2 u | ; C.Q.z.B.m s s s ; R.S.T.U.b.b.b.b.b.t.b.z.z.P.C.b.                    ",
"                  ; . 2 ] ;.O.c.b.<.u s s s ; V.W.X.Y.m.b.b.b.b.b.b.b.b.b.B.O.                    ",
"                  * m !.] g P.z.w.C B.2 a ] C Z.`.`. +z.l.l.z.b.t.b.b.z.b.w.p.                    ",
"                    !..         + g (.z.p.Q.x..+++++.+k.w.w.b.b.b.z.b.b.z.p.x.                    ",
"                      -                 * + , @+#+$+%+c.w.b.b.z.k.z.b.c.m.w.x.                    ",
"                                                  + * , 0.z.w.m.w.l.m.w.w.Q.x.                    ",
"                                                            , C P.w.w.w.&+C p.                    ",
"                                                                  - + ,   , C                     ",
"                                                                          C                       ",
"                                                                                                  ",
"                                                                                                  ",
"                                                                                                  ",
"                                                                                                  ",
"                                                                                                  ",
"                                                                                                  "};
