#define face_width 64
#define face_height 64
static unsigned char face_bits[] = {
   0x00, 0x00, 0x00, 0x80, 0x03, 0x00, 0x00, 0x00, 0x00, 0x00, 0x00, 0x40,
   0x04, 0x00, 0x00, 0x00, 0x00, 0x00, 0x00, 0x20, 0x08, 0x00, 0x00, 0x00,
   0x00, 0x00, 0x00, 0x20, 0x08, 0x00, 0x00, 0x00, 0x00, 0x00, 0x1f, 0xe0,
   0x08, 0x1e, 0x00, 0x00, 0x00, 0x80, 0x20, 0x00, 0x88, 0x60, 0x00, 0x00,
   0x10, 0x41, 0x40, 0x0e, 0x80, 0x40, 0x44, 0x00, 0x00, 0x40, 0x80, 0x11,
   0x44, 0x80, 0x00, 0x02, 0x00, 0x23, 0x80, 0x20, 0x43, 0x80, 0x00, 0x00,
   0xc0, 0x2c, 0x05, 0xe0, 0x80, 0x00, 0x00, 0x00, 0x20, 0x30, 0x50, 0xe7,
   0x00, 0x47, 0x00, 0x00, 0x10, 0x10, 0x00, 0x00, 0x01, 0x40, 0x00, 0x04,
   0x10, 0x10, 0x40, 0x00, 0x02, 0x20, 0x00, 0x00, 0x08, 0x00, 0xc0, 0x03,
   0x04, 0x10, 0x00, 0x00, 0x08, 0x00, 0x00, 0x3c, 0x84, 0x07, 0xf9, 0x00,
   0x08, 0x00, 0x00, 0x90, 0xff, 0x19, 0x06, 0x03, 0x04, 0x00, 0x00, 0x10,
   0x12, 0x20, 0x01, 0x04, 0x04, 0x00, 0x00, 0xe8, 0x09, 0xc0, 0x15, 0x08,
   0x04, 0x02, 0x01, 0x08, 0x08, 0x80, 0x01, 0x08, 0x88, 0x01, 0x01, 0x04,
   0x04, 0x40, 0x20, 0x10, 0x70, 0x01, 0x03, 0x02, 0x02, 0x00, 0x00, 0x10,
   0x00, 0x01, 0xc5, 0xe1, 0x07, 0x00, 0x00, 0x10, 0x00, 0x82, 0x38, 0x18,
   0x1a, 0x00, 0x20, 0x20, 0x00, 0x44, 0x00, 0x04, 0xc2, 0x02, 0x18, 0x20,
   0x00, 0x38, 0x00, 0x02, 0x0c, 0x28, 0x0f, 0x20, 0x00, 0x00, 0x00, 0x02,
   0x20, 0x00, 0x00, 0x20, 0x00, 0x00, 0xfc, 0x03, 0x80, 0x00, 0x00, 0x20,
   0x00, 0x00, 0x02, 0x02, 0x00, 0x04, 0x00, 0x20, 0x08, 0x00, 0x01, 0x04,
   0x00, 0x00, 0x00, 0x2c, 0x00, 0x80, 0x00, 0x08, 0x00, 0x30, 0x00, 0x10,
   0x20, 0x42, 0x00, 0x00, 0x00, 0x60, 0x00, 0x20, 0x00, 0x40, 0x00, 0x00,
   0x00, 0x40, 0x00, 0x20, 0xc0, 0x4f, 0x00, 0x00, 0x00, 0x80, 0x00, 0x40,
   0x30, 0xf0, 0x00, 0x00, 0x00, 0x80, 0x00, 0x40, 0x08, 0x00, 0x03, 0x00,
   0x00, 0x80, 0x00, 0x40, 0x04, 0x00, 0x00, 0x00, 0x00, 0x80, 0x00, 0x40,
   0x04, 0x00, 0x00, 0x00, 0x00, 0x42, 0x00, 0x40, 0x02, 0x00, 0x00, 0x00,
   0x00, 0x3c, 0x00, 0x40, 0x02, 0x00, 0x00, 0x00, 0x00, 0x00, 0x00, 0x40,
   0x02, 0x00, 0x00, 0x00, 0x00, 0x00, 0x00, 0x40, 0x01, 0x00, 0x00, 0x00,
   0x00, 0x00, 0x00, 0x40, 0x01, 0x00, 0x00, 0x00, 0x00, 0x00, 0x00, 0x40,
   0x01, 0x00, 0x00, 0x00, 0x00, 0x00, 0x00, 0x40, 0x01, 0x00, 0x00, 0x00,
   0x00, 0x00, 0x00, 0x40, 0x02, 0x00, 0x00, 0x00, 0x00, 0x00, 0x00, 0x21,
   0x02, 0x00, 0x00, 0x00, 0x00, 0x00, 0x00, 0x21, 0x24, 0x00, 0x00, 0x00,
   0x00, 0x00, 0x00, 0x11, 0x18, 0x00, 0x00, 0x00, 0x00, 0x00, 0x00, 0x0a,
   0x10, 0x00, 0x00, 0x00, 0x00, 0x00, 0x00, 0x06, 0x10, 0x00, 0x00, 0x00,
   0x00, 0x00, 0x00, 0x02, 0x10, 0x00, 0x02, 0x00, 0x00, 0x00, 0x00, 0x02,
   0x20, 0x00, 0x02, 0x00, 0x00, 0x40, 0x00, 0x02, 0x20, 0x00, 0x02, 0x00,
   0x00, 0x40, 0x00, 0x02, 0x40, 0x00, 0x02, 0x80, 0x00, 0x30, 0x00, 0x02,
   0x80, 0x81, 0x05, 0x40, 0x01, 0x2c, 0x00, 0x01, 0x00, 0x46, 0x04, 0x30,
   0x8e, 0xc3, 0x00, 0x01, 0x00, 0x3c, 0x18, 0x08, 0x70, 0x00, 0x81, 0x00,
   0x00, 0x00, 0xe0, 0x07, 0x00, 0x00, 0x7e, 0x00, 0x00, 0x00, 0x00, 0x00,
   0x00, 0x00, 0x00, 0x04, 0x00, 0x00, 0x00, 0x00, 0x00, 0x00, 0x00, 0x00,
   0x00, 0x00, 0x00, 0x00, 0x00, 0x00, 0x00, 0x00, 0x12, 0x00, 0x00, 0x00,
   0x00, 0x00, 0x00, 0x00, 0x00, 0x20, 0x00, 0x10, 0x20, 0x02, 0x20, 0x08,
   0x00, 0x02, 0x01, 0x00, 0x02, 0x20, 0x00, 0x00 };
