/* XPM */
static char * colors_xpm[] = {
"48 48 76 1",
" 	c None",
".	c #F7A409",
"+	c #EDA727",
"@	c #EAA424",
"#	c #E6A120",
"$	c #D2A55B",
"%	c #DEAF68",
"&	c #DAAD63",
"*	c #DAAF63",
"=	c #B79453",
"-	c #FB5B25",
";	c #FD2B37",
">	c #C7B3A0",
",	c #8D8A85",
"'	c #BAA592",
")	c #3C8A45",
"!	c #CEB6A7",
"~	c #4AF01C",
"{	c #FF1441",
"]	c #BEB6BE",
"^	c #79869E",
"/	c #51A249",
"(	c #188651",
"_	c #BEBABE",
":	c #8E8A8E",
"<	c #C7BAC7",
"[	c #28FF20",
"}	c #A6A2A6",
"|	c #FFFF00",
"1	c #B6AEB6",
"2	c #AEB2CF",
"3	c #AE5528",
"4	c #B38E47",
"5	c #AEA6AE",
"6	c #CFC7CF",
"7	c #5155FF",
"8	c #FFFFFF",
"9	c #D7D3D7",
"0	c #FDF0D6",
"a	c #DCCBB5",
"b	c #EEA729",
"c	c #BEC3BE",
"d	c #FDE5D6",
"e	c #AEAAAE",
"f	c #FFF3FF",
"g	c #E19E22",
"h	c #717986",
"i	c #969696",
"j	c #CEA257",
"k	c #AEAEB6",
"l	c #C7B6A0",
"m	c #EAA524",
"n	c #CA9E53",
"o	c #FFFBFF",
"p	c #E9A323",
"q	c #FBD184",
"r	c #EFF3F7",
"s	c #F8B332",
"t	c #FBD104",
"u	c #AEAEAE",
"v	c #F8B307",
"w	c #F88B12",
"x	c #BE2020",
"y	c #ED8D0C",
"z	c #DA6114",
"A	c #C7351C",
"B	c #FDECD6",
"C	c #C69C4F",
"D	c #87942D",
"E	c #DAB363",
"F	c #C7BDA0",
"G	c #A5987E",
"H	c #C0AC99",
"I	c #F0E5CF",
"J	c #E59F1F",
"K	c #EAA526",
"                                                ",
"                                                ",
"                                                ",
"                                                ",
"       ...................................      ",
"      .....................................     ",
"     .......................................    ",
"     ...+@+@+#+@@@+@+@+@@@+@@@+@+@@@+@@@+...    ",
"     ...+$$%&*&***=$%&$***$*&=%&**$****=+...    ",
"     ...+-;;;;;;;>,'))))))))!,~~))!~~~!=+...    ",
"     ...@-;{{{{{{]^]/(/(/(/(_:((/(<<[[>=@...    ",
"     ...+-;{{{{{{_^}(((/((/]<|(/(1<[[[!=+...    ",
"     ...+-;{{{{{{]^2/(/((<2||3((<<<[[[!4+...    ",
"     ...+-;{{{{{{]^5((((6||33337__[[[[!=+...    ",
"     ...@-;{{{{{{8^2/(/<||^|333<59[[[[0=@...    ",
"     ...+-;{{{{{{]^}((<||^||3335]<<9[[a4b...    ",
"     ...@-;{{{{{{8^c(<||^|||3|5___9/[[d=@...    ",
"     ...@&>]_]8_88^ec||^|||^||]____89f0=+...    ",
"     ...g=,^^^^^^h^_||^|||^||55hi^i^^^,=@...    ",
"     ...+j>}]}]}]k]||^|||^||]5<k_5]}]}l=+...    ",
"     ...m-;{{{{{{_||^|||^||55^5]<[[[[[>=@...    ",
"     ...+-;{{{{{_||^|||^||}5_^}__<[[[[!=+...    ",
"     ...@-;{{{{_||^|||^||5k(]^<__<<9[[l=@...    ",
"     ...@-;{{{_||^|||^||}5((c^}_8_<<[[!n@...    ",
"     ...@-;{{_||^|||^||5k(/(8^___]<<9[0=@...    ",
"     ...@-;{_||^|||^||}5(((/]^5___o]<<!=p...    ",
"     ...@-;_||^|||^||}1((/((8^]_____]_0=@...    ",
"     ...@-l8_^|||^||}k_<c8<88^]____o_o0=p...    ",
"     ...@*0_]8||^||5}^^^^^h^^^^^^5^^^^,=@...    ",
"     ...+ql_88^r||}i5i]i}5ki]^ki]^]i]:l=p...    ",
"     ...st>88^8^|k5577777777]^u7777777>=m...    ",
"     ...v-;_^r^^^:^i77777777]^}7777777l=p...    ",
"     ...w-;{8^^^}]^577777777]^i7777777>=m...    ",
"     ...w-;{x^^^(c^:77777777]^}7777777>=p...    ",
"     ...y-;xxx^/(_^577777777]^i7777777>=#...    ",
"     ...@zAxxi(((8^:77777777o^}7777777B=p...    ",
"     ...#CAxi((/(]^577777777]^:7777777>=#...    ",
"     ...@D)(/(/((8^:77777777f^}7777777B=p...    ",
"     ...@EFFlF0F00,G>>>HHdHB0,'>>>Hd>I0=#...    ",
"     ...g=============4=========44======p...    ",
"     ...####pJp#J#J#J@#@#@J#J#JJ#K#p##J##...    ",
"     .......................................    ",
"      .....................................     ",
"       ...................................      ",
"                                                ",
"                                                ",
"                                                ",
"                                                "};
