/* XPM */
static char * ChessKnightBlack_xpm[] = {
"48 48 57 1",
" 	c None",
".	c #71C686179658",
"X	c #41034D345144",
"o	c #28A234D338E3",
"O	c #10401C7128A2",
"+	c #208128A230C2",
"@	c #000000001861",
"#	c #000008201861",
"$	c #082008201861",
"%	c #1040249230C2",
"&	c #514459656185",
"*	c #8E3886178617",
"=	c #000000000000",
"-	c #000000000820",
";	c #000000001040",
":	c #0000104028A2",
">	c #000008201040",
",	c #0000186128A2",
"<	c #0820186128A2",
"1	c #0820208130C2",
"2	c #208130C24924",
"3	c #104018612081",
"4	c #186128A24103",
"5	c #38E351445965",
"6	c #28A23CF35965",
"7	c #5144659579E7",
"8	c #4103596569A6",
"9	c #18612CB24103",
"0	c #61856DB679E7",
"q	c #000010402081",
"w	c #0820186130C2",
"e	c #28A245146185",
"r	c #618579E78E38",
"t	c #69A682079658",
"y	c #8E3896589E79",
"u	c #208138E34924",
"i	c #410345144924",
"p	c #30C238E34924",
"a	c #AEBABEFBC71B",
"s	c #28A238E35144",
"d	c #514469A679E7",
"f	c #9E79A699A699",
"g	c #30C249245965",
"h	c #000008202081",
"j	c #596571C68617",
"k	c #D75CE38DEFBE",
"l	c #104028A238E3",
"z	c #186138E34924",
"x	c #86179E79AEBA",
"c	c #410351446185",
"v	c #4924618571C6",
"b	c #10401C7130C2",
"n	c #082004100820",
"m	c #28A230C24924",
"M	c #4103514471C6",
"N	c #082000000000",
"B	c #186130C238E3",
"              .XoOo+@#$%&*                      ",
"             &==-;-@#:::-=+                     ",
"             =-;;@>#,<1+2%,=3                   ",
"             =;;;@#:4567.892@=0                 ",
"            *=@;qw%2ertyt.0u4%-i                ",
"            3=;;@:%4p.aaa.y7su2-$               ",
"          ===;-;@#:5d&7tfaa7gg62:-+             ",
"         .=-;;-hh1gjaakkkatplzu6g2:=3+X         ",
"         +=;;@##::40akkkkaxj5u2688c6%:=X        ",
"         ==:$$u:hl2;<ue&j.yxkxeX8rttvu1=*       ",
"        0=-+$-u8b#:,:<hh:%2uvjv88ryaax8hp       ",
"        +=-93-:6v<hh<4l<#iX-15lp88vtkkx2>       ",
"        =;-b%=@%&1hq:44w@2fpjkjlX6uvyaadO       ",
"        =@;$8-;:eu@h1l4lwhlcvvggioosXo88$       ",
"       f=@@;v+-q6c@hw144ll%%96egs2sog5e,*       ",
"       &=@q=40=;u7,#3b22uu2i8gl,::,l5v$X        ",
"       0=@,-;v+-%8l@h1lluuo2q;.f0+$=:-i         ",
"       o=;1#=wj@@66:#h3191-+f                   ",
"       $=-w1-;gc@2sl1bb9o+                      ",
"       =;;#1<;,7l422uiccv#*                     ",
"       =-@;quO;4vl4l4Xcc8gp                     ",
"       O-@;;<gO;oX44lee5c&s3*                   ",
"       n=@#@;l7%#5442ecc88ve#&*                 ",
"       &=;@h#;utm4g44g888&dd82>=i               ",
"       *=;#@<%#6rzs29oc8vvjttd86=+              ",
"        =;;#;l9hu&gu+uX8Mvvdyyr0M=              ",
"        n-#;q#lo148oz9i8&vvv8tt..w              ",
"        N=@@#<q:6c4p2425vddjvc7txuy             ",
"         $N##hl1:o8os92o87jrt07d.o3             ",
"          -;h#h%2<46uu4z6v7ttyr0.4@             ",
"          o=;h<h<2egu2992o8jtt0tx<@$            ",
"           f=@:<41%ce2l442oe8&.a7@we&           ",
"            f=##1pXu9l4%429g7.x4;#6dl*          ",
"            *=;@@#wup4422s6e59#@;6v8e&          ",
"            3=;;;;q:28+9lw<:q#;#cj8M5+          ",
"            +=@@@#h#h<q:::q:>;l0t7888=          ",
"            +=;#@##hqq,:::::B7xt07v88=          ",
"            +=#h#@#h<1%bb9ue77r.rd788=          ",
"            +=@hh###q:<wb4usevtxtjvv9o          ",
"            i=#hhhhq:,,w%l2siv.fyr7dq           ",
"             =#hq#:::<1<%42sXv.fy0r53           ",
"             =;hqqqq:<<14lzgXv.fy..;            ",
"             *=qhq,,wb1149zic7yfaaln            ",
"              o=:::<1%bl42pg5jaa.bp             ",
"               &-h14499uupX8dt.e$f              ",
"                 +=@%9uu6ee8g2$&                ",
"                   0+=>qq<3-+                   ",
"                                                ",
};
