#define p105_width 64
#define p105_height 64
static char p105_bits[] = {
   0x00, 0x00, 0x00, 0xc0, 0x01, 0x00, 0x00, 0x00, 0x00, 0x00, 0x00, 0x20,
   0x02, 0x00, 0x00, 0x00, 0x00, 0x00, 0xff, 0xb7, 0xf6, 0x7f, 0x00, 0x00,
   0x00, 0x00, 0xff, 0x57, 0xf5, 0x7f, 0x00, 0x00, 0x00, 0x00, 0x00, 0xf0,
   0x07, 0x00, 0x00, 0x00, 0x00, 0x30, 0x1e, 0xf0, 0x07, 0x8c, 0x71, 0x00,
   0x00, 0x38, 0x73, 0xf0, 0x07, 0xef, 0xd9, 0x00, 0x00, 0x38, 0x63, 0xf0,
   0x07, 0x8c, 0x8d, 0x01, 0x00, 0x34, 0x60, 0xf0, 0x07, 0x8c, 0x8d, 0x01,
   0x00, 0x34, 0x30, 0xf0, 0x07, 0x8c, 0x8d, 0x01, 0x00, 0x32, 0x3c, 0xf0,
   0x07, 0x8c, 0x8d, 0x01, 0x00, 0x32, 0x60, 0xf0, 0x07, 0x8c, 0x8d, 0x01,
   0x00, 0x31, 0x60, 0xf0, 0x07, 0x8c, 0x8d, 0x01, 0x00, 0x3f, 0x63, 0xf0,
   0x07, 0x8c, 0x8d, 0x01, 0x00, 0x30, 0x73, 0xf0, 0x07, 0x8c, 0xd9, 0x00,
   0x00, 0x78, 0x1e, 0xf0, 0x07, 0x8c, 0x71, 0x00, 0x00, 0x00, 0x00, 0xf0,
   0x07, 0x00, 0x00, 0x00, 0x00, 0x30, 0x0c, 0xf0, 0x07, 0x8c, 0xc3, 0x0f,
   0x00, 0x38, 0x0f, 0xf0, 0x07, 0xcf, 0xc6, 0x07, 0x00, 0x38, 0x0c, 0xf0,
   0x07, 0x6c, 0x4c, 0x00, 0x00, 0x34, 0x0c, 0xf0, 0x07, 0x6c, 0x4c, 0x00,
   0x00, 0x34, 0x0c, 0xf0, 0x07, 0x6c, 0x4c, 0x07, 0x00, 0x32, 0x0c, 0xf0,
   0x07, 0x6c, 0xcc, 0x0e, 0x00, 0x32, 0x0c, 0xf0, 0x07, 0x6c, 0x0c, 0x0c,
   0x00, 0x31, 0x0c, 0xf0, 0x07, 0x6c, 0x0c, 0x0c, 0x00, 0x3f, 0x0c, 0xf0,
   0x07, 0x6c, 0x6c, 0x0c, 0x00, 0x30, 0x0c, 0xf0, 0x07, 0xcc, 0x66, 0x0e,
   0x00, 0x78, 0x0c, 0xf0, 0x07, 0x8c, 0xc3, 0x03, 0x00, 0x00, 0x00, 0xf0,
   0x07, 0x00, 0x00, 0x00, 0x00, 0x00, 0x00, 0xf0, 0x07, 0x00, 0x00, 0x00,
   0x00, 0x00, 0x00, 0xf0, 0x07, 0x00, 0x00, 0x00, 0x00, 0x00, 0x00, 0xf0,
   0x07, 0x00, 0x00, 0x00, 0x00, 0x00, 0x00, 0xf0, 0x07, 0x00, 0x00, 0x00,
   0x00, 0x00, 0x00, 0xf0, 0x07, 0x00, 0x00, 0x00, 0x00, 0x00, 0x00, 0xf0,
   0x07, 0x00, 0x00, 0x00, 0x00, 0x00, 0x00, 0xf0, 0x07, 0x00, 0x00, 0x00,
   0x00, 0x00, 0x00, 0xf0, 0x07, 0x00, 0x00, 0x00, 0x00, 0x00, 0x00, 0xf0,
   0x07, 0x00, 0x00, 0x00, 0x00, 0x00, 0x00, 0xf0, 0x07, 0x00, 0x00, 0x00,
   0x00, 0x00, 0x00, 0xf0, 0x07, 0x00, 0x00, 0x00, 0x00, 0x00, 0x00, 0xf0,
   0x07, 0x00, 0x00, 0x00, 0x00, 0x00, 0x00, 0xf0, 0x07, 0x00, 0x00, 0x00,
   0x00, 0x00, 0x00, 0xf0, 0x07, 0x00, 0x00, 0x00, 0x00, 0x00, 0x00, 0xf0,
   0x07, 0x00, 0x00, 0x00, 0x00, 0x00, 0x00, 0xf0, 0x07, 0x00, 0x00, 0x00,
   0x00, 0x00, 0x00, 0xf0, 0x07, 0x00, 0x00, 0x00, 0x00, 0x00, 0x00, 0xf0,
   0x07, 0x00, 0x00, 0x00, 0x00, 0x00, 0x00, 0xf0, 0x07, 0x00, 0x00, 0x00,
   0x00, 0x00, 0x00, 0xf0, 0x07, 0x00, 0x00, 0x00, 0x00, 0x00, 0x00, 0xf0,
   0x07, 0x00, 0x00, 0x00, 0x00, 0x00, 0x00, 0xf0, 0x07, 0x00, 0x00, 0x00,
   0x00, 0x00, 0x00, 0xf0, 0x07, 0x00, 0x00, 0x00, 0x00, 0x06, 0x5f, 0xf8,
   0x0f, 0xe6, 0x3f, 0x00, 0x00, 0xc9, 0x61, 0xfc, 0x1f, 0xc9, 0x30, 0x00,
   0x00, 0xc9, 0x40, 0xfc, 0x1f, 0xc9, 0x20, 0x00, 0x00, 0x66, 0x40, 0xfe,
   0x3f, 0xc6, 0x24, 0x00, 0x00, 0x60, 0x00, 0xfe, 0x3f, 0xc0, 0x04, 0x00,
   0x00, 0x60, 0x00, 0xfe, 0x3f, 0xc0, 0x07, 0x00, 0x00, 0x60, 0x00, 0xfe,
   0x3f, 0xc0, 0x04, 0x00, 0x00, 0x60, 0x00, 0xfe, 0x3f, 0xc0, 0x04, 0x00,
   0x00, 0xc0, 0x40, 0xfc, 0x1f, 0xc0, 0x00, 0x00, 0x00, 0xc0, 0x61, 0xfc,
   0x1f, 0xc0, 0x00, 0x00, 0x00, 0x00, 0x1f, 0xf8, 0x0f, 0xe0, 0x01, 0x00,
   0x00, 0x00, 0x00, 0xe0, 0x03, 0x00, 0x00, 0x00};
