/* XPM */
static char * face_xpm[] = {
/* width height ncolors chars_per_pixel */
"64 64 3 1",
/* colors */
" 	c sky blue",
".	c black",
"X	c yellow",
/* pixels */
"                               .                                ",
"                              .X.                               ",
"                             .XXX.                              ",
"                            .XXXXX.                             ",
"                           .XXXXXXX.                            ",
"                          ...........                           ",
"                                                                ",
"                           ..........                           ",
"                       ....XXXXXXXXXX....                       ",
"         ........    ..XXXXXXXXXXXXXXXXXX..    ........         ",
"         .XXXXX.   ..XXXXXXXXXXXXXXXXXXXXXX..   .XXXXX.         ",
"         .XXXX.  ..XXXXXXXXXXXXXXXXXXXXXXXXXX..  .XXXX.         ",
"         .XXX.  .XXXXXXXXXXXXXXXXXXXXXXXXXXXXXX.  .XXX.         ",
"         .XX.  .XXXXXXXXXXXXXXXXXXXXXXXXXXXXXXXX.  .XX.         ",
"         .X.  .XXXXXXXXXXXXXXXXXXXXXXXXXXXXXXXXXX.  .X.         ",
"         ..  .XXXXXXXXXXXXXXXXXXXXXXXXXXXXXXXXXXXX.  ..         ",
"         .  .XXXXXXXXXXXXXXXXXXXXXXXXXXXXXXXXXXXXXX.  .         ",
"           .XXXXXXXXXXXXXXXXXXXXXXXXXXXXXXXXXXXXXXXX.           ",
"           .XXXXXXXXXXXXXXXXXXXXXXXXXXXXXXXXXXXXXXXX.           ",
"          .XXXXXXXXXXXXXXXXXXXXXXXXXXXXXXXXXXXXXXXXXX.          ",
"          .XXXXXXXXXXXXXXXXXXXXXXXXXXXXXXXXXXXXXXXXXX.          ",
"         .XXXXXXXXXXXXXXXXXXXXXXXXXXXXXXXXXXXXXXXXXXXX.         ",
"         .XXXXXXXXXXXXXXXXXXXXXXXXXXXXXXXXXXXXXXXXXXXX.         ",
"        .XXXXXXXXXXXXXXXXXXXXXXXXXXXXXXXXXXXXXXXXXXXXXX.        ",
"        .XXXXXXXXXXXXXXXXXXXXXXXXXXXXXXXXXXXXXXXXXXXXXX.        ",
"        .XXXXXXXXXXXXXXXXXXXXXXXXXXXXXXXXXXXXXXXXXXXXXX.        ",
"     .  .XXXXXXXXXXXXXXXXXXXXXXXXXXXXXXXXXXXXXXXXXXXXXX.  .     ",
"    .. .XXXXXXXXXXXXXXXXXXXXXXXXXXXXXXXXXXXXXXXXXXXXXXXX. ..    ",
"   .X. .XXXXXXXXXXXXXXXXXXXXXXXXXXXXXXXXXXXXXXXXXXXXXXXX. .X.   ",
"  .XX. .XXXXXXXXXXXXXXXXXXXXXXXXXXXXXXXXXXXXXXXXXXXXXXXX. .XX.  ",
" .XXX. .XXXXXXXXXXXXXXXXXXXXXXXXXXXXXXXXXXXXXXXXXXXXXXXX. .XXX. ",
".XXXX. .XXXXXXXXXXXXXXXXXXXXXXXXXXXXXXXXXXXXXXXXXXXXXXXX. .XXXX.",
" .XXX. .XXXXXXXXXXXXXXXXXXXXXXXXXXXXXXXXXXXXXXXXXXXXXXXX. .XXX. ",
"  .XX. .XXXXXXXXXXXXXXXXXXXXXXXXXXXXXXXXXXXXXXXXXXXXXXXX. .XX.  ",
"   .X. .XXXXXXXXXXXXXXXXXXXXXXXXXXXXXXXXXXXXXXXXXXXXXXXX. .X.   ",
"    .. .XXXXXXXXXXXXXXXXXXXXXXXXXXXXXXXXXXXXXXXXXXXXXXXX. ..    ",
"     .  .XXXXXXXXXXXXXXXXXXXXXXXXXXXXXXXXXXXXXXXXXXXXXX.  .     ",
"        .XXXXXXXXXXXXXXXXXXXXXXXXXXXXXXXXXXXXXXXXXXXXXX.        ",
"        .XXXXXXXXXXXXXXXXXXXXXXXXXXXXXXXXXXXXXXXXXXXXXX.        ",
"        .XXXXXXXXXXXXXXXXXXXXXXXXXXXXXXXXXXXXXXXXXXXXXX.        ",
"        .XXXXXXXXXXXXXXXXXXXXXXXXXXXXXXXXXXXXXXXXXXXXXX.        ",
"         .XXXXXXXXXXXXXXXXXXXXXXXXXXXXXXXXXXXXXXXXXXXX.         ",
"         .XXXXXXXXXXXXXXXXXXXXXXXXXXXXXXXXXXXXXXXXXXXX.         ",
"          .XXXXXXXXXXXXXXXXXXXXXXXXXXXXXXXXXXXXXXXXXX.          ",
"          .XXXXXXXXXXXXXXXXXXXXXXXXXXXXXXXXXXXXXXXXXX.          ",
"           .XXXXXXXXXXXXXXXXXXXXXXXXXXXXXXXXXXXXXXXX.           ",
"           .XXXXXXXXXXXXXXXXXXXXXXXXXXXXXXXXXXXXXXXX.           ",
"         .  .XXXXXXXXXXXXXXXXXXXXXXXXXXXXXXXXXXXXXX.  .         ",
"         ..  .XXXXXXXXXXXXXXXXXXXXXXXXXXXXXXXXXXXX.  ..         ",
"         .X.  .XXXXXXXXXXXXXXXXXXXXXXXXXXXXXXXXXX.  .X.         ",
"         .XX.  .XXXXXXXXXXXXXXXXXXXXXXXXXXXXXXXX.  .XX.         ",
"         .XXX.  .XXXXXXXXXXXXXXXXXXXXXXXXXXXXXX.  .XXX.         ",
"         .XXXX.  .XXXXXXXXXXXXXXXXXXXXXXXXXXX..  .XXXX.         ",
"         .XXXXX.  ..XXXXXXXXXXXXXXXXXXXXXXX..   .XXXXX.         ",
"         ........   ..XXXXXXXXXXXXXXXXXXX..    ........         ",
"                      ....XXXXXXXXXXX....                       ",
"                          ...........                           ",
"                                                                ",
"                          ...........                           ",
"                           .XXXXXXX.                            ",
"                            .XXXXX.                             ",
"                             .XXX.                              ",
"                              .X.                               ",
"                               .                                "};
