/* XPM */
static char * image_name[] = {
"48 48 4 1",
" 	c #000000000000",
".	c #AEBAAAAAAEBA",
"X	c #514455555144",
"o	c #FFFFFFFFFFFF",
"                                                ",
"                                                ",
"                                                ",
"                                                ",
"             ...................                ",
"           .XXXXXXXXXXXXXXXXXXXXXX              ",
"         .XXXXXXXXXXXXXXXXXXXXXXXXX.            ",
"         XXXXXXXXXXXXXXXXXXXXXXXXXXX            ",
"        XXXXXX              .XXXXXX .           ",
"        XXXXXX X     oo     .XXXXXX X           ",
"        XXXXXX      o..o    .XXXXXX X...        ",
"        XXXXXX     o....o   .XXXXXX X           ",
"               X  o......o          X...        ",
"               . o........o         X   X       ",
"        .     . o..........o X     X   ..X      ",
"               o............o           .       ",
"              o..............o           .X     ",
"             o................o                 ",
"            o..................o         .X     ",
"           o....................o               ",
"          o......................o       .X     ",
"         o........................o             ",
"        o..........................o     .X     ",
"       o............................o           ",
"      o..............................o   .X     ",
"       o............................oo    X     ",
"       oo..........................oo    X      ",
"        oo........................oo   . X      ",
"         oo......................oo    XX       ",
"          oo....................oo   .X         ",
"           oo..................oo X  X          ",
"            oo................oo  .             ",
"             oo..............oo X.o.X           ",
"              oo............oo    .             ",
"               oo..........oo     X             ",
"                oo........oo   o                ",
"                 oo......oo                     ",
"                  oo....oo                      ",
"                   oo..oo   o                   ",
"                    oooo X                      ",
"                     oo  .                      ",
"                       X.o.X                    ",
"                         .                      ",
"                         X                      ",
"                                                ",
"                                                ",
"                                                ",
"                                                "};
