/* XPM */
static char * a_editor_ja_xpm[] = {
"48 48 9 1",
" 	c None",
".	c #000000",
"X	c #a0a0a0",
"o	c #606060",
"O	c #c0c0c0",
"+	c #e0e0e0",
"@	c #ffc000",
"#	c #ff0000",
"$	c #ffffff",
"                                                ",
"                                                ",
"                                                ",
"                                                ",
"                                                ",
"                                                ",
"                                                ",
"                                                ",
"                           ..                   ",
"                         ..XX.                  ",
"                       ..XXXX.                  ",
"                  .....XXXXXXo.                 ",
"              ....oXOOOXXXXXXX.                 ",
"             .XXXXOOOOOXXXXXXX.                 ",
"            .+oXXXXXXXXXXXXXXXX.                ",
"           .++ooXXXXXXXXXXXXXXX.     oo.        ",
"          .X++OooXXXXXXXXXXXXXXX.   @@o.        ",
"          .++++ooXXXXXXXXXXXXXXX.  @@@@.        ",
"         .X+XooooXXXXXXXXXXXXXXXX@@@@@.         ",
"         .oooooooXXXXXXXXXX#X$$XX@@@@.          ",
"         .ooooooXXXXXXXX#####XXX@@@@.           ",
"          .XXXXoXXXXXX#######X$@@@@.            ",
"          .XXXXXXXX$####OOO##$O@@@@.            ",
"          .OOXXX$$####OO$$$###@@@@..            ",
"          .OO$$$####O$$$OOOO#@@@@.OX.           ",
"          .XOOOO##$$$OOOOO$$@@@@.$OOo.          ",
"          .o+++$$#+++++++##@@@@@.OOOO.          ",
"           .+$$++##++$$###@@@@@.O$$OOX.         ",
"           .++++++#$$#####@@@@.#$OOOOO.         ",
"           .O+++$$#####$$@@@@.##+O$$OOX.        ",
"           .o+$$+++##$++@@@@.+###$OOOOOX.       ",
"            .++++$$##+++@@@.++$##+++OOOX.       ",
"            .+++$+++#+$@@@.+$###+++++X..        ",
"            .O+$++++#$@@@@$##++++++X...         ",
"             o++++$$##@@@.#++++++X......        ",
"             .++$$+++@@@.++++++X........        ",
"             .O++++$$...++++OX...........       ",
"             .o++$$++..+++X.............        ",
"              .++++++++OX............           ",
"              .O+++++Xo..........               ",
"               o++Oo.........                   ",
"               ..........                       ",
"                ....                            ",
"                                                ",
"                                                ",
"                                                ",
"                                                ",
"                                                "};
