/* XPM */
static char * a_xfig_xpm[] = {
/* columns rows colors chars-per-pixel */
"48 48 4 1",
" 	c None",
".	c #ffc000",
"X	c #a0a0a0",
"o	c #000000",
/* pixels */
"                                                ",
"                                                ",
"                                                ",
"   ........................................     ",
"   ........................................X    ",
"   ..ooooo..........................ooooo..XX   ",
"   ..o...o..........................o...o..XX   ",
"   ..o.oooooooooooooooooooooooooooooooo.o..XX   ",
"   ..o.o.o..........................o.o.o..XX   ",
"   ..ooooo..........................ooooo..XX   ",
"   ....o..............................o....XX   ",
"   ....o......ooo.........ooooo.......o....XX   ",
"   ....o.....ooooo......oo.o.o.oo.....o....XX   ",
"   ....o....oo...oo....oo.......oo....o....XX   ",
"   ....o...oo.....oo..oo.........oo...o....XX   ",
"   ....o...oo.....oo..o...........o...o....XX   ",
"   ....o.....ooo.......oo.......oo....o....XX   ",
"   ....o......ooo.......oo.o.o.oo.....o....XX   ",
"   ....o........oo........ooooo.......o....XX   ",
"   ....o.........oo...................o....XX   ",
"   ....o...oo.....oo..................o....XX   ",
"   ....o....oo...oo...................o....XX   ",
"   ....o.....ooooo.............oo.....o....XX   ",
"   ....o......ooo..............ooo....o....XX   ",
"   ....o........................ooo...o....XX   ",
"   ....o..............ooooooooo..oo...o....XX   ",
"   ....o..................o.......oo..o....XX   ",
"   ....o..................o.......oo..o....XX   ",
"   ....o..................o........o..o....XX   ",
"   ....o...oooooooooo.....o.......oo..o....XX   ",
"   ....o...oooooooooo.....o.......oo..o....XX   ",
"   ....o...o........o.....o......oo...o....XX   ",
"   ....o...o........o.....o.....ooo...o....XX   ",
"   ....o...oooooooooo.....o....ooo....o....XX   ",
"   ....o...oooooooooo.....o....oo.....o....XX   ",
"   ....o..................o...........o....XX   ",
"   ..ooooo..........................ooooo..XX   ",
"   ..o.o.o..........................o.o.o..XX   ",
"   ..o.oooooooooooooooooooooooooooooooo.o..XX   ",
"   ..o...o..........................o...o..XX   ",
"   ..ooooo..........................ooooo..XX   ",
"   ........................................XX   ",
"   ........................................XX   ",
"    XXXXXXXXXXXXXXXXXXXXXXXXXXXXXXXXXXXXXXXXX   ",
"     XXXXXXXXXXXXXXXXXXXXXXXXXXXXXXXXXXXXXXXX   ",
"                                                ",
"                                                ",
"                                                "};
