/* XPM */
static char * f_dot_f_xpm[] = {
/* columns rows colors chars-per-pixel */
"48 48 6 1",
" 	c None",
".	c #000000",
"X	c #a0a0a0",
"o	c #606060",
"O	c #c0c0c0",
"+	c #e0e0e0",
/* pixels */
"                                                ",
"                                                ",
"                                                ",
"                                                ",
"                                                ",
"                                                ",
"                                                ",
"                                                ",
"                           ..                   ",
"                         ..XX.                  ",
"                       ..XXXX.                  ",
"                  .....XXXXXXo.                 ",
"              ....oXOOOXXXXXXX.                 ",
"             .XXXXOOOOOXXXXXXX.                 ",
"            .+oXXXXXXXXXXXXXXXX.                ",
"           .++ooXXXXXXXXXXXXXXX.                ",
"          .X++OooXXXXXXXXXXXXXXX.               ",
"          .++++ooXXXXXXXXXXXXXXX.               ",
"         .X+XooooXXXXXXXXXXXXXXXX.              ",
"         .oooooooXXXXXXXXXXXX+..X.              ",
"         .ooooooXXXXXXXXXX+++....X.             ",
"          .XXXXoXXXXXXX+++XXX..OXO.             ",
"          .XXXXXXXX++++OOOO+++..XOX.            ",
"          .OOXXX+++OOOOO+++OOX....O.            ",
"          .OO+++OOOOO+++OOOOX....OOX.           ",
"          .XOOOOOO+++OOOOO++..X.X+OOo.          ",
"          .o+++++++++++++++OOO+X.XOOO.          ",
"           .++++++++++++++++++OX.X+OOX.         ",
"           .++++++++++++++++++++..XOOO.         ",
"           .O+++++++++++++++++++X.O+OOX.        ",
"           .o++++++++++++++++++++..XOOOX.       ",
"            .++++++++++++++++XO++..+OOOX.       ",
"            .++++++++++++++++..++++++X..        ",
"            .O+++++++++++++++..++++X...         ",
"             o+++++++++++++++++++X......        ",
"             .+++++++++++++++++X........        ",
"             .O+++++++++++++OX...........       ",
"             .o+++++++++++X.............        ",
"              .++++++++OX............           ",
"              .O+++++Xo..........               ",
"               o++Oo.........                   ",
"               ..........                       ",
"                ....                            ",
"                                                ",
"                                                ",
"                                                ",
"                                                ",
"                                                "};
