/* XPM */
static char * f_html_xpm[] = {
"49 50 8 1",
" 	c None",
".	c #000000",
"X	c #a0a0a0",
"o	c #606060",
"O	c #c0c0c0",
"+	c #e0e0e0",
"@	c #00c0ff",
"#	c #ffc000",
"                                                 ",
"                                                 ",
"                                                 ",
"                                                 ",
"                                                 ",
"                                                 ",
"                                                 ",
"                                                 ",
"                            ..                   ",
"                          ..XX.                  ",
"                        ..XXXX.                  ",
"                   .....XXXXXXo.                 ",
"               ....oXOOOXXXXXXX.                 ",
"              .XXXXOOOOOXXXXXXX.                 ",
"             .+oXXXXXXXXXXXXXXXX.                ",
"            .++ooXXXXXXXXXXXXXXX.                ",
"           .X++OooXXX@@@@@@@XXXXX.               ",
"           .++++ooX@@@#@@@#@@@XXX.               ",
"          .X+Xoooo@@@#@@@###@@@XXX.              ",
"          .oooooo@@@@@@######@@@XX.              ",
"          .ooooo@@@@@@######@@#@@XX.             ",
"           .XXX@@@@@@#######@#@@@@O.             ",
"           .XXX@@@@#@######@@@@@@@OX.            ",
"           .OO@@@@#########@@@@@@@@O.            ",
"           .OO@#@@##########@@@@@@@OX.           ",
"           .XO@@#@@#########@@@@@@@OOo.          ",
"           .o+@###@@@@#######@#@@@@OOO.          ",
"            .+@@##@@@@@#######@@@@@OOOX.         ",
"            .+@###@@@@@@###@#@@@@@@OOOO.         ",
"            .O@####@@@@@##@#@@@@@@@OOOOX.        ",
"            .o+@@###@@@@#@#@@@@@@@+OOOOOX.       ",
"             .+@#@##@@@###@@@@@@@@+++OOOX.       ",
"             .++@@@#@@##@@@@@@@@@+++++X..        ",
"             .O++@@@@@@@@@@@@@@@++++X...         ",
"              o+++@@@@@@@@@@@@@+++X......        ",
"              .++++@@@@@@@@@@@++X........        ",
"              .O+++++@@@@@@@+OX...........       ",
"              .o+++++++++++X.............        ",
"               .++++++++OX............           ",
"               .O+++++Xo..........               ",
"                o++Oo.........                   ",
"                ..........                       ",
"                 ....                            ",
"                                                 ",
"                                                 ",
"                                                 ",
"                                                 ",
"                                                 ",
"                                                 ",
"                                                 "};
