/* XPM */
static char * f_smiley_xpm[] = {
/* columns rows colors chars-per-pixel */
"48 48 7 1",
" 	c None",
".	c #000000",
"X	c #a0a0a0",
"o	c #606060",
"O	c #c0c0c0",
"+	c #e0e0e0",
"@	c #ffff00",
/* pixels */
"                                                ",
"                                                ",
"                                                ",
"                                                ",
"                                                ",
"                                                ",
"                                                ",
"                                                ",
"                           ..                   ",
"                         ..XX.                  ",
"                       ..XXXX.                  ",
"                  .....XXXXXXo.                 ",
"              ....oXOOOXXXXXXX.                 ",
"             .XXXXOOOOOXXXXXXX.                 ",
"            .+oXXXXXXXXXXXXXXXX.                ",
"           .++ooXXXXXXXXXXXXXXX.                ",
"          .X++OooXXXXXXXXXXXXXXX.               ",
"          .++++ooXXXXXXXXXXXXXXX.               ",
"         .X+XooooXXXXXX@@@XXXXXXX.              ",
"         .oooooooXXX@@@@@@@@@XXXX.              ",
"         .ooooooXXX@@@@@@@@@@@XXXX.             ",
"          .XXXXoXX@@@@@@@@@@@@@XXO.             ",
"          .XXXXXX@@@@@@@@@@@@@@@OOX.            ",
"          .OOXXX@@@@@@@@@@.@@@@@@OO.            ",
"          .OOOOO@@@@@@@@@...@@@@@OOX.           ",
"          .XOOOO@@@@.@@@@@.@@@@@@OOOo.          ",
"          .o+++@@@@...@@@@@@@@@@@@OOO.          ",
"           .+++@@@@@.@@@@@@@@@@@@@OOOX.         ",
"           .+++@@@@@@@@@@@@@o.@@@@OOOO.         ",
"           .O+++@@@@@@@@@@@O.O@@@OOOOOX.        ",
"           .o+++@@@@@@@@@@O.o@@@@+OOOOOX.       ",
"            .+++@@@@@ooooOoo@@@@@+++OOOX.       ",
"            .++++@@@@@ooooo@@@@@+++++X..        ",
"            .O++++@@@@@@@@@@@@@++++X...         ",
"             o+++++@@@@@@@@@@@+++X......        ",
"             .++++++@@@@@@@@@++X........        ",
"             .O++++++++@@@++OX...........       ",
"             .o+++++++++++X.............        ",
"              .++++++++OX............           ",
"              .O+++++Xo..........               ",
"               o++Oo.........                   ",
"               ..........                       ",
"                ....                            ",
"                                                ",
"                                                ",
"                                                ",
"                                                ",
"                                                "};
