/* XPM */
static char * v_socket_xpm[] = {
"48 48 6 1",
" 	c None",
".	c #e0e0e0",
"X	c #a0a0a0",
"o	c #606060",
"O	c #000000",
"+	c #ffffff",
"                                                ",
"                                                ",
"                                                ",
"                                                ",
"                                                ",
"                                                ",
"                                                ",
"                                                ",
"                                                ",
"                                                ",
"                                                ",
"                                                ",
"                                                ",
"                                                ",
"     .......................................    ",
"    ........................................X   ",
"    .........................................X  ",
"    .....ooooooooooooooooooooooooooooooo.....X  ",
"    ....o...............................o....X  ",
"    ...o...o.o.o.o.o.o.o.o.o.o.o.o.o.o...o...X  ",
"    ...o..o.o.o.o.o.o.o.o.o.o.o.o.o.o.o..oO..X  ",
"    ...o.o.+++.o.+++.o.+++.o.+++.o.+++.o.oO..X  ",
"    ...o..o+.Xo.o+.Xo.o+.Xo.o+.X..o+.Xo..oO..X  ",
"    ...o.o.+XO.o.+XO.o.+XO.o.+XO.o.+XO.o.oO..X  ",
"    ...o..o.o.o.o.o.o.o.o.o.o.o.o.o.o.o..oO..X  ",
"    ...o...o.o.o.o.o.o.o.o.o.o.o.o.o.o...oO..X  ",
"    ...Oo.o.o.+++.o.+++.o.+++.o.+++.o.o.oOO..X  ",
"    ....o..o.o+.Xo.o+.Xo.o+.Xo.o+.Xo.o..oO...X  ",
"    ....Oo..o.+XO.o.+XO.o.+XO.o.+XO.o..oOO...X  ",
"    .....o.o.o.o.o.o.o.o.o.o.o.o.o.o.o.oO....X  ",
"    .....o....o.o.o.o.o.o.o.o.o.o.o....oO....X  ",
"    .....Ooo.........................ooOO....X  ",
"    ......OOoooooooooooooooooooooooooOOO.....X  ",
"    ........OOOOOOOOOOOOOOOOOOOOOOOOOOO......X  ",
"    .........................................X  ",
"    X.......................................XX  ",
"      XXXXXXXXXXXXXXXXXXXXXXXXXXXXXXXXXXXXXXX   ",
"                                                ",
"                                                ",
"                                                ",
"                                                ",
"                                                ",
"                                                ",
"                                                ",
"                                                ",
"                                                ",
"                                                ",
"                                                "};
