#define face_width 64
#define face_height 64
static unsigned char face_bits[] = {
   0x00, 0x00, 0x00, 0x00, 0x00, 0x00, 0x00, 0x00, 0x00, 0x00, 0x00, 0x00,
   0x00, 0x00, 0x00, 0x00, 0x00, 0x00, 0x00, 0x00, 0x00, 0x00, 0x00, 0x00,
   0x00, 0x00, 0x00, 0x00, 0x00, 0x00, 0x00, 0x00, 0x00, 0x00, 0x1f, 0x00,
   0x00, 0x00, 0x00, 0x00, 0x00, 0x80, 0x20, 0x00, 0x00, 0x00, 0x00, 0x00,
   0x00, 0x40, 0x40, 0x0e, 0x00, 0x00, 0x00, 0x00, 0x00, 0x40, 0x84, 0x11,
   0x00, 0x00, 0x00, 0x00, 0x00, 0x23, 0x04, 0x20, 0x00, 0x00, 0x00, 0x00,
   0xc0, 0x2c, 0x0e, 0x20, 0x00, 0x00, 0x00, 0x00, 0x20, 0x10, 0x04, 0xe0,
   0x88, 0x88, 0x88, 0x00, 0x10, 0x10, 0x00, 0x01, 0x01, 0x00, 0x00, 0x00,
   0x10, 0x11, 0x00, 0x01, 0x02, 0x00, 0x00, 0x00, 0x08, 0x01, 0x80, 0x03,
   0x04, 0x00, 0x00, 0x00, 0x88, 0x03, 0x08, 0x01, 0x84, 0x07, 0xf8, 0x00,
   0x08, 0x01, 0x08, 0x10, 0x64, 0x18, 0x06, 0x03, 0x04, 0x20, 0x1c, 0x00,
   0x12, 0x20, 0x01, 0x04, 0x04, 0x20, 0x08, 0x68, 0x09, 0xc0, 0x00, 0x08,
   0x04, 0x72, 0x01, 0x08, 0x08, 0x00, 0x08, 0x08, 0x88, 0x20, 0x01, 0x00,
   0x00, 0x49, 0x08, 0x10, 0x50, 0x01, 0x02, 0x02, 0x02, 0x09, 0x1c, 0x10,
   0x00, 0x01, 0x45, 0xe1, 0x02, 0x1d, 0x08, 0x10, 0x00, 0x82, 0x28, 0x18,
   0x82, 0x0b, 0x00, 0x20, 0x00, 0x04, 0x00, 0x04, 0x82, 0x03, 0x00, 0x20,
   0x00, 0x28, 0x00, 0x02, 0xc4, 0x47, 0x00, 0x00, 0x00, 0x00, 0x00, 0x42,
   0xc0, 0x47, 0x40, 0x20, 0x00, 0x00, 0xfc, 0x42, 0xe0, 0xef, 0x40, 0x20,
   0x00, 0x00, 0x02, 0xe2, 0xe0, 0x4d, 0xe0, 0x20, 0x00, 0x00, 0x01, 0x44,
   0xe0, 0x0d, 0x40, 0x24, 0x00, 0x80, 0x40, 0x08, 0xe0, 0x0e, 0x00, 0x10,
   0x00, 0x40, 0x40, 0x00, 0xc0, 0x07, 0x08, 0x20, 0x00, 0x40, 0xe0, 0x00,
   0x81, 0x03, 0x08, 0x20, 0xc0, 0x4f, 0x40, 0x00, 0x01, 0x00, 0x08, 0x40,
   0x30, 0xa0, 0x00, 0x82, 0x03, 0x00, 0x1c, 0x40, 0x08, 0x00, 0x01, 0x02,
   0x01, 0x41, 0x1c, 0x00, 0x04, 0x00, 0x00, 0x02, 0x00, 0x41, 0x1e, 0x44,
   0x04, 0x20, 0x00, 0x07, 0x80, 0xe3, 0x3e, 0x44, 0x80, 0x20, 0x08, 0x07,
   0x00, 0x41, 0x3e, 0x4e, 0x82, 0x70, 0x88, 0x07, 0x02, 0x00, 0x7b, 0x04,
   0xc2, 0x21, 0xdc, 0x07, 0x42, 0x00, 0x7b, 0x40, 0x81, 0x00, 0xc8, 0x07,
   0x47, 0x00, 0x77, 0x40, 0x01, 0x00, 0xe0, 0x0f, 0x42, 0x02, 0x3e, 0x40,
   0x00, 0x00, 0x60, 0x0f, 0xe0, 0x02, 0x1c, 0x00, 0x01, 0x00, 0x70, 0x1f,
   0xe0, 0x87, 0x00, 0x40, 0x02, 0x00, 0xb1, 0x1f, 0xf0, 0x82, 0x00, 0x21,
   0x02, 0x00, 0xb1, 0x1f, 0xf0, 0xc1, 0x01, 0x21, 0x24, 0x80, 0x73, 0x1e,
   0xf0, 0x81, 0x00, 0x10, 0x08, 0x04, 0xe1, 0x4f, 0x78, 0x03, 0x00, 0x0a,
   0x10, 0x04, 0xc0, 0x47, 0x78, 0x03, 0x00, 0x04, 0x10, 0x0e, 0x00, 0xe0,
   0xb8, 0x03, 0x10, 0x02, 0x10, 0x04, 0x42, 0x40, 0xf0, 0x01, 0x10, 0x00,
   0x20, 0x00, 0x42, 0x00, 0xe0, 0x40, 0x38, 0x02, 0x20, 0x00, 0xe0, 0x00,
   0x00, 0x00, 0x10, 0x02, 0x40, 0x00, 0x42, 0x80, 0x00, 0x30, 0x00, 0x02,
   0x80, 0x80, 0x04, 0x40, 0x00, 0x24, 0x00, 0x01, 0x00, 0x44, 0x04, 0x20,
   0x8a, 0x82, 0x00, 0x01, 0x00, 0x28, 0x08, 0x08, 0x50, 0x00, 0x81, 0x00,
   0x00, 0x00, 0xa0, 0x05, 0x00, 0x00, 0x5a, 0x00, 0x80, 0x00, 0x00, 0x00,
   0x00, 0x00, 0x00, 0x00, 0x00, 0x00, 0x00, 0x00, 0x00, 0x00, 0x00, 0x00,
   0x00, 0x00, 0x00, 0x00, 0x00, 0x00, 0x00, 0x00, 0x00, 0x00, 0x00, 0x00,
   0x00, 0x01, 0x00, 0x00, 0x00, 0x00, 0x00, 0x20, 0x00, 0x00, 0x00, 0x00,
   0x00, 0x00, 0x00, 0x00, 0x00, 0x00, 0x00, 0x00 };
