/* XPM */
static char * PenguinInBox_xpm[] = {
/* columns rows colors chars-per-pixel */
"44 52 158 2",
"  	c None",
". 	c #00008c",
"X 	c #000042",
"o 	c #000008",
"O 	c #000031",
"+ 	c #00006b",
"@ 	c #0000bd",
"# 	c #0000b5",
"$ 	c #000010",
"% 	c #0000e7",
"& 	c #393939",
"* 	c #101008",
"= 	c #0000de",
"- 	c #000021",
"; 	c Gray39",
": 	c Gray16",
"> 	c #000063",
", 	c Gray13",
"< 	c #181818",
"1 	c #0000c6",
"2 	c #000084",
"3 	c #000052",
"4 	c #101010",
"5 	c #292921",
"6 	c Gray45",
"7 	c #adada5",
"8 	c Gray71",
"9 	c #eff7f7",
"0 	c #7b7b7b",
"q 	c Gray42",
"w 	c #e7e7e7",
"e 	c #313131",
"r 	c #313129",
"t 	c #bdbdc6",
"y 	c black",
"u 	c #cebd94",
"i 	c #7b735a",
"p 	c #4a4231",
"a 	c #528452",
"s 	c #294a29",
"d 	c #213121",
"f 	c Gray3",
"g 	c #ad880c",
"h 	c #9c8408",
"j 	c #947b21",
"k 	c #847b52",
"l 	c Gray68",
"z 	c #efd6ad",
"x 	c #f7deb5",
"c 	c #a59473",
"v 	c #314a31",
"b 	c #314229",
"n 	c #8c7b63",
"m 	c #bda584",
"M 	c #101808",
"N 	c #a5a5a5",
"B 	c #8c6310",
"V 	c #e7ad08",
"C 	c #f7c610",
"Z 	c #e7c608",
"A 	c #d6b521",
"S 	c #e7ce21",
"D 	c #9c7b00",
"F 	c #ad9c7b",
"G 	c #6b634a",
"H 	c #677767",
"J 	c #ceb594",
"K 	c #f7e7b5",
"L 	c #d6bd9c",
"P 	c #c6ad84",
"I 	c #080800",
"U 	c #845a08",
"Y 	c #dea508",
"T 	c #f7bd10",
"R 	c #efc608",
"E 	c #efce18",
"W 	c #e7ce31",
"Q 	c #dec608",
"! 	c #d6b518",
"~ 	c #423100",
"^ 	c #213921",
"/ 	c #394a31",
"( 	c #ffe7bd",
") 	c #c68408",
"_ 	c #e7ad10",
"` 	c #efce08",
"' 	c #d6ad08",
"] 	c #c6a510",
"[ 	c #5a3900",
"{ 	c #847363",
"} 	c #efbd10",
"| 	c #b59808",
" .	c #ce9408",
"..	c #292100",
"X.	c #7b7b5a",
"o.	c #b59c84",
"O.	c #946308",
"+.	c #bd9c08",
"@.	c #a77508",
"#.	c #ce8c08",
"$.	c #d69410",
"%.	c #ce9c42",
"&.	c #5a844a",
"*.	c #313931",
"=.	c #395231",
"-.	c Gray74",
";.	c #bd8429",
":.	c #d6c69c",
">.	c #736b52",
",.	c #736352",
"<.	c #e7cea5",
"1.	c #ceb58c",
"2.	c #b5a584",
"3.	c #a5844a",
"4.	c #b1986b",
"5.	c #bdb5ad",
"6.	c #efefef",
"7.	c Gray97",
"8.	c #dec6a5",
"9.	c #182918",
"0.	c #efdeb5",
"q.	c #734a00",
"w.	c #183118",
"e.	c #394229",
"r.	c #292118",
"t.	c #524a39",
"y.	c #e7c6a5",
"u.	c #dec69c",
"i.	c #e7d6ad",
"p.	c #c6b594",
"a.	c white",
"s.	c #84735a",
"d.	c #635a42",
"f.	c #423931",
"g.	c #7b736b",
"h.	c #ad9473",
"j.	c #7b7b73",
"k.	c #102910",
"l.	c #e7d6a5",
"z.	c #6b635a",
"x.	c #c6b58c",
"c.	c #f7fff7",
"v.	c #f7dead",
"b.	c #080810",
"n.	c #393929",
"m.	c #637b4a",
"M.	c #debda5",
"N.	c #312921",
"B.	c #7b6b52",
"V.	c #e7ce9c",
"C.	c #d6bd8c",
"Z.	c #efcea5",
"A.	c #c6ad8c",
"S.	c #dec694",
"D.	c #c6ad94",
"F.	c #73634a",
"G.	c #e7bd9c",
"H.	c #cebd8c",
/* pixels */
"                                    . X o o o O + @                                     ",
"                                # $ o o o o o o o o + %                                 ",
"                              # o o o o o o o o & & * O =                               ",
"                              - o o o o o o o o o ; : o >                               ",
"                            # o o o o o o o o * , < * o o 1                             ",
"                            2 o o o o o o o o o o o o o o 3                             ",
"                            > o o * o o o o o o * 4 o o o o                             ",
"                            > o , , 5 * o o 5 6 6 & * o o o =                           ",
"                            > * 7 7 7 o o , 8 8 8 8 * o o o @                           ",
"                            + : 9 0 0 5 o q q q q w e o o o o r r                       ",
"                            . & t y y & < 6 6 o , 8 0 o o o o u i p p a                 ",
"                  s d 6     . < t f y g h j k o o l 0 o o o o z x z c i i v             ",
"                b n m i M o y o N B V C Z A S D D D < o o o o z z z z z z F G           ",
"              H J x x K L P y I U Y T R E W W Q Z ! ~ o o o o z z z z z z m ^           ",
"            / G z z z z ( P y ~ ) _ T ` W W Q Q ' ] [ o o o o z z z z z ( ^ ^           ",
"          p { z z z z z L P y * U V } E S Q | | Y  ...o e o o z z z z x X.6             ",
"        v o.z z z z z ( p P y f f O.+.] | @.#.$.%.m m o ; o o x z z ( &.*.              ",
"      =.=.z z z z z z x ( y y * -.F @. . .) ;.m m m -.o < o o :.K x >.:                 ",
"      ,.<.z z z z z z ( 1.y y 4 4 -.2.2.3.4.5.5.6.7.7.7.o o o 4 o.8.d                   ",
"    9.0.z z z z z z z o.q.y 4 4 7.7.-.-.-.-.-.6.7.7.7.7.* o o o 7 7 w.r p p p / e.r.p F ",
"  r.r.z z z z z z z 1.q.y y < < 7.7.7.7.7.6.7.7.7.7.7.7.o o o o F F t.<.y.8.8.y.y.u.u.p ",
"e J x z z z z z x L q.1.y o o 7.7.7.7.7.7.7.7.7.7.7.7.7.l o o o o t.x z z z z z x i.0.p ",
"n z z z z z z z o.q.1.y o < < 7.7.7.7.7.7.7.7.7.7.7.7.7.w o o o t.P z z z z z z x 0.F p ",
"n x x z z z z K q.p.P y o o o 6.7.7.7.w 6.7.7.7.a.6.a.a.w w o p t.z z z z z z ( 0.P p   ",
"^ e.s.x x 0.i.d.o.L y o o y -.w 7.7.7.6.7.7.7.7.a.6.a.a.a.a.-.t.z z z z z z z 0.P p     ",
"      f.{ L p p.P y y * 4 4 7.7.7.7.7.7.7.7.7.7.7.7.7.6.6.6.t.x z z z z z z 0.0.P       ",
"        d 5 t.t.y y 4 f y y 7.7.7.7.7.7.7.7.7.7.7.7.7.7.7.t.x z z z z z z x 0.P p       ",
"      ; ^ n g.g.t.t.< y y 7.7.7.7.7.7.7.7.7.7.7.7.7.7.7.t.u z z z z z z z z w.p         ",
"      b y.( z h.h.j.t.t.y 7.7.7.7.7.7.7.7.7.7.7.7.7.7.t.P x z z z z z z z P p           ",
"    k.x 0.z z x l.u.u.z.t.t.8 7.7.7.7.7.7.7.7.7.7.7.t.P x z z z z z z z ( p             ",
"  9.t.z z z z z z z K z x.x.{ { { c.6.7.7.7.7.7.7.t.P z z z z z z z z ( n o             ",
"^ d.<.z z z z z z z z z x x v.2.2.t.t.t.7.7.7.7.t.P 8.z z z z z z z ( ( 9.              ",
"p i.z z z z z z z z z z z z z x x L i t.t.t.j.t.P z x z z v.z z z z m 9.p               ",
"8.x ( x z z z z z z z z z z z z z 0.K x :.m 5 b.n.i i 2.o.2.J z z x k.o [               ",
", =.m.M.( z z z z z z z z z z z z z z z 0.2.h.N.d.s.n B.G d.d.d.8.<.P P B.              ",
"    H w.w.p.x x v.z z z z z z z z z z x c h.v.v.c V.V.V.V.V.s.G G p * P [               ",
"          < >.>.i.x z z z z z z z z x :.C.V.Z.F t.P P P P P Z.Z.m s.s.P p               ",
"          p A.A.N.N.u 0.x z z z z x L c V.u.Z.F n P P P P P P P V.Z.P P p               ",
"          p Z.u.u u u f.f.:.x x x x.n S.u.u.Z.F s.P P P P P P P V.P P D.[               ",
"          : Z.u.V.V.V.x.p f.f.f.F s.V.V.u.u.Z.F B.P P P P P P P P P D.B.                ",
"          : Z.u.u.u.u.V.V.S.m p r.n Z.u.u.u.Z.F F.P P P P P P P P D.[                   ",
"          G Z.u.u.u.u.u.u.u.V.V.V.S.u.u.u.u.Z.F ,.P P P P P P P D.[                     ",
"          p G.V.u.u.u.u.u.u.u.u.u.V.u.u.u.u.Z.F ,.P P P P P P B.B.                      ",
"            e.d.H.u.u.u.u.u.u.u.u.u.u.u.u.u.Z.F G P P P P P D.[                         ",
"                d.U u u.u.u.u.u.u.u.u.u.u.u.Z.F d.P P P P P [                           ",
"                    U U 1.V.u.u.u.u.u.u.u.u.Z.F d.P P m P [                             ",
"                        U U h.u.u.u.u.u.u.u.Z.F d.P P P [                               ",
"                            U U h.u.u.u.u.u.Z.F d.P P B.                                ",
"                                U U h.H.u.u.Z.F d.d.B.                                  ",
"                                    U U h.H.V.F d.[                                     ",
"                                        U U c n N.                                      ",
"                                            U U                                         "};
