/* XPM */
static char * image_name[] = {
"64 64 171 2",
"  	c None",
". 	c #000010400000",
"X 	c #104000001040",
"o 	c #410341034103",
"O 	c #71C6820771C6",
"+ 	c #965882079658",
"@ 	c #9658A2899658",
"# 	c #9E7992489658",
"$ 	c #514441035144",
"% 	c #410330C24103",
"& 	c #861792488617",
"* 	c #BEFBAEBAAEBA",
"= 	c #BEFBBEFB9E79",
"- 	c #AEBAAEBA9E79",
"; 	c #BEFBAEBA9E79",
": 	c #AEBAAEBA9658",
"> 	c #514430C24103",
", 	c #8617820771C6",
"< 	c #BEFBBEFBAEBA",
"1 	c #AEBABEFB9E79",
"2 	c #AEBAAEBAAEBA",
"3 	c #514441034103",
"4 	c #000000000000",
"5 	c #514451444103",
"6 	c #AEBA92489658",
"7 	c #9E79A2899658",
"8 	c #30C220812081",
"9 	c #30C230C230C2",
"0 	c #965892488617",
"q 	c #9E79820771C6",
"w 	c #208110401040",
"e 	c #104020811040",
"r 	c #104010401040",
"t 	c #5144410330C2",
"y 	c #AEBAA2899E79",
"u 	c #9658820771C6",
"i 	c #71C6410330C2",
"p 	c #965871C66185",
"a 	c #208130C22081",
"s 	c #000000001040",
"d 	c #208110400000",
"f 	c #965851445144",
"g 	c #9658924871C6",
"h 	c #861751444103",
"j 	c #861761854103",
"k 	c #208110402081",
"l 	c #208130C21040",
"z 	c #618500000000",
"x 	c #618500001040",
"c 	c #965871C671C6",
"v 	c #71C671C66185",
"b 	c #71C661854103",
"n 	c #410310401040",
"m 	c #208120811040",
"M 	c #104000000000",
"N 	c #30C200000000",
"B 	c #514400001040",
"V 	c #618510401040",
"C 	c #618520812081",
"Z 	c #410330C230C2",
"A 	c #208100000000",
"S 	c #618510400000",
"D 	c #514410401040",
"F 	c #30C220811040",
"G 	c #208120812081",
"H 	c #5144514430C2",
"J 	c #514400000000",
"K 	c #71C610402081",
"L 	c #30C200001040",
"P 	c #4103410330C2",
"I 	c #410310400000",
"U 	c #410300001040",
"Y 	c #71C630C230C2",
"T 	c #71C610401040",
"R 	c #104010400000",
"E 	c #30C2410330C2",
"W 	c #965892489658",
"Q 	c #861761856185",
"! 	c #104010402081",
"~ 	c #000010401040",
"^ 	c #410300000000",
"/ 	c #71C6618571C6",
"( 	c #30C241034103",
") 	c #71C630C22081",
"_ 	c #71C620811040",
"` 	c #71C641032081",
"' 	c #618530C21040",
"] 	c #618520811040",
"[ 	c #514430C230C2",
"{ 	c #71C671C671C6",
"} 	c #965882078617",
"| 	c #410341032081",
" .	c #514420812081",
"..	c #30C210401040",
"X.	c #618551445144",
"o.	c #861720810000",
"O.	c #71C630C20000",
"+.	c #514420810000",
"@.	c #410330C22081",
"#.	c #AEBAA2899658",
"$.	c #71C651445144",
"%.	c #71C600000000",
"&.	c #8617514430C2",
"*.	c #71C620812081",
"=.	c #9E79AEBA9E79",
"-.	c #618561856185",
";.	c #30C241032081",
":.	c #514451445144",
">.	c #30C230C22081",
",.	c #2081208130C2",
"<.	c #514410400000",
"1.	c #30C230C24103",
"2.	c #30C210402081",
"3.	c #4103208130C2",
"4.	c #618561855144",
"5.	c #618530C22081",
"6.	c #30C210400000",
"7.	c #514451446185",
"8.	c #618551446185",
"9.	c #861730C20000",
"0.	c #6185514471C6",
"q.	c #208130C230C2",
"w.	c #71C620810000",
"e.	c #861720811040",
"r.	c #861741030000",
"t.	c #71C6514430C2",
"y.	c #965820811040",
"u.	c #861761855144",
"i.	c #410351444103",
"p.	c #410320811040",
"a.	c #965841031040",
"s.	c #71C610400000",
"d.	c #30C2208130C2",
"f.	c #71C682075144",
"g.	c #208100001040",
"h.	c #9E7982078617",
"j.	c #71C671C65144",
"k.	c #9E7941031040",
"l.	c #514461855144",
"z.	c #861730C21040",
"x.	c #965841030000",
"c.	c #861771C66185",
"v.	c #965830C21040",
"b.	c #861782076185",
"n.	c #514461854103",
"m.	c #410320810000",
"M.	c #6185410330C2",
"N.	c #000020811040",
"B.	c #618551442081",
"V.	c #410330C21040",
"C.	c #618561854103",
"Z.	c #618551444103",
"A.	c #514430C22081",
"S.	c #6185514430C2",
"D.	c #71C661855144",
"F.	c #104020812081",
"G.	c #410320812081",
"H.	c #514420811040",
"J.	c #861771C64103",
"K.	c #71C671C64103",
"L.	c #71C651444103",
"P.	c #514451442081",
"I.	c #861771C671C6",
"U.	c #71C661852081",
"Y.	c #861782078617",
"T.	c #618571C66185",
"R.	c #861782075144",
"E.	c #71C661856185",
"W.	c #8617924871C6",
"Q.	c #618571C671C6",
"!.	c #4103514430C2",
"                                                                                                                                ",
"                                                                                                                                ",
"                                                                                                                                ",
"                                                                                                                                ",
"                                                                              .                                                 ",
"                                                            . X               o O + @ # @ $                                     ",
"                                                                        % & * = * - ; = * : >                                   ",
"                                                                      , < * 1 * 1 2 1 < 1 * - 3                                 ",
"                                                            4 4 4 4 4 5 6 - - - ; - ; = ; ; ; 7 8                               ",
"                                                            4 4 4 4 4 4 4 9 0 * - 2 1 * 1 - 0 q 7 w             e r r           ",
"                                                            4 4 4 4 4 4 X 4 4 t 6 : ; - ; - y u i p 8       w r r r 8           ",
"                                                              4 4 4 4 4 e % a s d f 7 - - - - - g h j o   r r r e k l           ",
"        z z z z z z z z z 4 4 4 4 4                             4 4 4 4 4 4 k o X z x h 6 , c v t u q b n d k a 9 m M           ",
"      z z z z z z z z z N 4 4 4 4 4 4 4       B z z z z V C C C C M 4 M . Z 4 4 A z z z S D F 8 a G 5 # H x m r e               ",
"      z z z z z z z z J M 4 4 4 4 4 4 4 4   K z z z z z z z z z J N N N L P 4 A z z z z z z z z z I U Y T z z M                 ",
"    . z z z z z z z z A 4 4 4 4 4 4 4 4 4 4 S z z z z z z z z z J N N N M k 4 4 J z z z z z z z z z z z z z z J                 ",
"    $ , x z z z z z z M 4 4 4 4 4 4 4 4 4 M z z z z z z z z z z J A M 4 4 4 4 4 N z z z z z z z z z z z z z z z               R ",
"    E W Q z z z z z z M 4 4 4 4 4 4 4 4 4 M z z z z z z S x J N 4 4 4 ! ~ 4 4 4 4 z z z z z z z z z z z z z z z ^               ",
"    M o + C z z z z z N 4 4 4 4 4 4 4 4 4 A z z z z z z ^ M 4 4 4 R $ o X 4 k 4 4 J z z z z z z z z z z z z z z z               ",
"      4 o / S z z V z z ^ A 4 4 4 4 4 4 4 N z z z z z ^ 4 4 4 X ( % . 4 4 r E G 4 ^ z z z z z z z z z z z z z z S D             ",
"  R X   M 9 C z z S ) _ z z z N M 4 4 4 4 J z z z z z z J M $ E M 4 4 . 5 0 $ P 4 N z z z z z z z z z z z z z z z ` A           ",
"  G G G r 4 E C z z z x ' ) ] z J N 4 4 N J ^ J z z z z d $ G 4 4 4 4 4 r o o $ 4 N z z S [ # # # # # # n T # { , } |           ",
"  R X 4   4 4 G  .z z z z z T ) z z J ^ z z z J J ^ J ..X.w N N ^ I o.O.+.M A @.J z z z T # # # # # # #.$.S # # # , Z           ",
"        . 4 4 4 4 M A B z z z z z z z z z z z z z z M 3 I J z z z %.O.&.' z z z z z z z S D @.> o $ v #., *.=.-.;.3 r           ",
"        M 4 4 4 4 4       R L A A A J z z z z z z ^ ^ J z z z z z z z S z z z z %.J ^ ^ J z z z z z z z z z z ) ..4             ",
"        4 4 4 4 4           a 9 ~ ! .  .J z z z N ^ z z z z z z z z z z z z z z J N A A A ^ ^ J z J J z z N N A                 ",
"                                :.e >.w N z z A ^ z z z z z z z z z z z z z z %.^ N ^ ^ J ^ ^ d X R 4 M ^ z %.N                 ",
"                4 4 4 4 4 4 .   e ,.E r 4 ^ A J z z z z z z z z z z z z z z z z z z <.N M 4 4 4 4 1.1.4 4 A ^ M                 ",
"              4 4 4 4 4 4 4 4 4 w 9 o m 2.4 J z z z z z z z z z z z z z z z z z z N 1.4 4 4 4 4 4 1.% 4 4 J                     ",
"            4 4 4 4 4 4 4 4 4 4 a 8 E 5 4 J z z z z z z z z z z z z z z z z z z N X 1.k 4 4 4 4 4 4 ( 4 A                       ",
"          4 4 4 4 4 4 4 4 4 4 4 Z m 3.4 J J ^ z z z z z z z z z z z z z z z z ^ 4 1.1.1.4 4 M 4 J J z z z   M                   ",
"          4 . s 4 s e 4 4 4 4 r 4.G a 5.z M 6.z z z z z z z z z z z z z z z J 4 4 1.7.1.. 4 J z z z z z z z z                   ",
"        4 . 4 4 4 P X m M 4 r e 8.P A z ^ A %.9.%.z z z z z z z z z z z z z A 4 M 1.0.G N z z z z z z z J N N A                 ",
"        . 4 4 4 4 / R r e 4 . q.:.G F z R ^ w.e.r.z z z z z z z z z z z z ^ 4 4 4 s 7.7.t.z <.z z z ^ M 4 4 4 4 . s             ",
"      r 4 4 4 4 4 v X   X R X E 8.>.B z J z %.o.y.9.z z z z z z z z z z z M 4 4 4 4 7.7.y u.z z z J M 4 4 4 4 4 4 4 M           ",
"      R 4 4 4 4 4 { R X r ! a 3 i.9 p.z z z z z w._ a.s.z z z z z z z z A 4 4 4 4 N 1.7.u.z z z z L 4 4 . 4 4 4 4 4 4 4         ",
"    d.R 4 4 M 4 4 -.w e 4 r P f.3 9 A z z z z z %.9.e.o.s.z z z z z z z M 4 4 M N ^ 1.7.%.V z z z t 3 4 M R 4 4 4 4 4 R         ",
"    ,.R 4 4 4 4 4 o q.r a o i.r a 9 4 z z z z z z z w.T a.e.S z z z z J 4 4 4 ^ J g.4 7.V z z z z h.1 r G r . 4 4 4 4 s r       ",
"    d.R 4 4 4 4 4 l 3 R w . Z j.o R 4 z z z z z z z z a.e.s.k.s.z z z N 4 4 A J J 4 4 7.7.z z z B t X.4 Z R X 4 4 4 4 4 X       ",
"    q.R 4 4 4 9 ~ 9 l.4 4 4 e % r 4 . z z z z z z z z T w.z.r.s.x.z z M 4 4 m c.5 4 . 7.7.z z z I G P G e d.4 X 4 4 4 4 4 k     ",
"    d.R 4 4 4 9 r r 0 a 4 4 r P X R M z z z z z z z z z %.w.v.w.v.z z 4 4 4 w b.% R 8 4 7.<.z z B >.X.l.r 9 4 e 4 4 4 4 4 P     ",
"    ,.R 4 4 4 9 4 4 5 } a 4 . G . t p.z z z z z z z z z z z w.e.z z ^ 4 4 4 e $ ~ 8 G 4 n.7.z z 5.8 l 8.E % G n . 4 4 s 4 d.~   ",
"    d.R 4 4 4 9 9 4 M j.7 f.M P r m.z z J z z z z z z z z z z z z z J 4 4 M ^ N 4 P M.R ..1.z z D m 5.5 X.a 8 M X 4 4 4 4 R 8   ",
"    q.R 4 4 4 4 9 4 N.r >.o 4 4 ~ ^ z z N N z z z z z z N z z z z z ^ 4 4 M d A 4 X.B.m . 2.<.z <.o V.t 5 9 o 4 ~ 4 4 4 4 4 E   ",
"      R 4 4 4 4 4 4 M R X R 4 4 2.M z z z ^ z z z z z z N ^ z z z z J 4 4 4 r 4 4 C.Z.4 M H D z D m A.S.3 9 G a k 4 4 4 4 4 8   ",
"      ,.4 4 4 4 4 4 4 r e r 4 4 4 4 A z z z z z z z z z J z z z z z J 4 4 4 ~ 4 4 D.S.4 . 3 >.8 G G 5 c.n.3 , / F.4 4 4 4 4 o   ",
"        4 4 4 4 4 4 4 r k 4 4 4 4 4 4 w J z z z z z z z z z z z z z z A 4 4 4 M 4 j...4 w | 8 >.8 m G.B.3 5 w R r 4 4 4 4 4 %   ",
"        4 4 ~ 4 4 4 4 4 4 4 4 4 4 4 . r . X n V z z z z z z z z z z z ^ 4 4 4 N 4 v . r e 3 a >.l 8 | j.n.$ E X.a 4 4 4 4 4 E   ",
"          4 4 4 M 4 4 4 4 4 4 4 4 4 r         . ..H.x z z z z z z z ^ J M 4 4 A M 4.k m 9 S.J.K.L.| @.K.t j.9 R 3 4 4 4 4 r 9   ",
"            4 4 4 4 4 4 4 4 4 4 4 X 4               4 ..I z z z z z A ^ A 4 4 N R 3 ( r 5 H K.u P.P H b 0 W 4.4 e 4 4 4 4 r a   ",
"              4 4 4 4 4 4 4 4 4 4 4                       R U <.z z ^ A J 4 N J A R I.4 o n.p J.X.U.u.C.# C.G 5 w 4 4 4 4 . 8   ",
"                4 4 4 4 4 4 . r .                               R L I N z ^ J J p.4 Y.r e :.T.S.R.b P E.W.4.a 9 e 4 4 4 4 s a   ",
"                                                                      4 ..I n p.M R Z l.M P 3 n.I.T.4.v X.v w R w 4 4 4 4 R w   ",
"                                                                                  s ~ W e s a 3 5 X.l.-.a 4 . G 4 4 4 4 4 d.    ",
"                                                                                  . r >.Y.4 M 4 k >.8 R r a 8 m 4 4 4 4 4 >.    ",
"                                                                                    . s 5 Q.. 4 4 r ~     o ;.4 4 4 4 4 . k     ",
"                                                                                    4 . 4 Z., e M 4 w m Z t M 4 4 4 4 4 M       ",
"                                                                                      s ~ 4 >.I.T.o !.:.;.4 4 4 4 4 4 w         ",
"                                                                                        X . 4 4 X m w 4 4 4 4 4 4 4 X R         ",
"                                                                                          r . 4 4 4 4 4 4 4 4 4 4 r .           ",
"                                                                                            M 4 4 4 4 4 4 4 4 . w .             ",
"                                                                                                . 4 . 4 4 X . X                 ",
"                                                                  r                                                             ",
"                                                                                                                                "};
