/* XPM */
static char * image_name[] = {
"48 48 220 2",
"  	c None",
". 	c #000000000000",
"X 	c #104010401040",
"o 	c #28A21C712081",
"O 	c #38E334D330C2",
"+ 	c #71C651445965",
"@ 	c #492430C230C2",
"# 	c #492430C238E3",
"$ 	c #79E75D7569A6",
"% 	c #8E386DB679E7",
"& 	c #000010401040",
"* 	c #596534D338E3",
"= 	c #186114511861",
"- 	c #69A645145144",
"; 	c #D75C596569A6",
": 	c #FFFF8A289E79",
"> 	c #71C600000000",
", 	c #D75C00000000",
"< 	c #FFFF249228A2",
"1 	c #69A600000000",
"2 	c #082004100000",
"3 	c #38E30C301040",
"4 	c #9658208128A2",
"5 	c #71C61C7128A2",
"6 	c #492428A228A2",
"7 	c #104018611861",
"8 	c #492428A230C2",
"9 	c #FFFF82078E38",
"0 	c #BEFB30C238E3",
"q 	c #28A228A228A2",
"w 	c #082010401040",
"e 	c #000004100820",
"r 	c #492414511861",
"t 	c #208114511861",
"y 	c #30C22CB230C2",
"u 	c #FFFF555569A6",
"i 	c #FFFFC30BE79D",
"p 	c #EFBE38E34103",
"a 	c #79E700000000",
"s 	c #082000000000",
"d 	c #492449244924",
"f 	c #38E304100820",
"g 	c #69A62CB238E3",
"h 	c #DF7D30C238E3",
"j 	c #F7DE75D65144",
"k 	c #FFFF96584103",
"l 	c #B6DA00000000",
"z 	c #492400000000",
"x 	c #00001C712081",
"c 	c #082004100820",
"v 	c #30C214511040",
"b 	c #618508200820",
"n 	c #FFFF00000000",
"m 	c #EFBE00000000",
"M 	c #DF7D00000000",
"N 	c #AEBA00000000",
"B 	c #965818611861",
"V 	c #E79D0C301040",
"C 	c #BEFB49242081",
"Z 	c #B6DA1C710000",
"A 	c #8E3800000000",
"S 	c #28A200000000",
"D 	c #9E7951444103",
"F 	c #000008200820",
"G 	c #30C249245144",
"H 	c #514400000000",
"J 	c #FFFF4D345144",
"K 	c #F7DE4D345144",
"L 	c #EFBE49244924",
"P 	c #EFBE34D338E3",
"I 	c #EFBE34D330C2",
"U 	c #F7DE14511861",
"Y 	c #FFFF10401040",
"T 	c #AEBA04100820",
"R 	c #410328A228A2",
"E 	c #A69900000000",
"W 	c #B6DA08200820",
"Q 	c #965800000000",
"! 	c #C71B45144103",
"~ 	c #861749244924",
"^ 	c #79E775D679E7",
"/ 	c #71C669A671C6",
"( 	c #69A6659571C6",
") 	c #861738E338E3",
"_ 	c #9E7900000000",
"` 	c #CF3C0C301040",
"' 	c #79E7249228A2",
"] 	c #71C608200820",
"[ 	c #8E380C301040",
"{ 	c #FFFF30C230C2",
"} 	c #AEBA41034103",
"| 	c #20810C300820",
" .	c #861700000000",
"..	c #410308200820",
"X.	c #79E708200820",
"o.	c #79E714511861",
"O.	c #30C214511861",
"+.	c #514410401040",
"@.	c #618500000000",
"#.	c #BEFB00000000",
"$.	c #861718611861",
"%.	c #69A608200820",
"&.	c #596541034103",
"*.	c #C71B04100820",
"=.	c #30C218611861",
"-.	c #86172CB230C2",
";.	c #30C204100000",
":.	c #596500000000",
">.	c #514438E34103",
",.	c #18610C301040",
"<.	c #186100000000",
"1.	c #EFBE04100000",
"2.	c #965896588E38",
"3.	c #CF3C00000000",
"4.	c #514430C230C2",
"5.	c #AEBAAEBAB6DA",
"6.	c #618538E338E3",
"7.	c #8E3851446185",
"8.	c #30C2249228A2",
"9.	c #10400C301040",
"0.	c #000004100000",
"q.	c #41031C712081",
"w.	c #AEBA1C712081",
"e.	c #208118611861",
"r.	c #492434D338E3",
"t.	c #208100000000",
"y.	c #5144659569A6",
"u.	c #082008200820",
"i.	c #8E38208128A2",
"p.	c #5965249228A2",
"a.	c #186118611861",
"s.	c #69A665956185",
"d.	c #9E798A289658",
"f.	c #69A634D338E3",
"g.	c #000010401861",
"h.	c #30C23CF34103",
"j.	c #514441034924",
"k.	c #514430C24103",
"l.	c #8E3808200820",
"z.	c #D75C24922081",
"x.	c #D75C20812081",
"c.	c #79E78E389658",
"v.	c #30C238E330C2",
"b.	c #8E388A288E38",
"n.	c #514451445144",
"m.	c #186128A22081",
"M.	c #208120811861",
"N.	c #E79DBAEAC71B",
"B.	c #618555555965",
"V.	c #DF7DC71BDF7D",
"C.	c #596551445965",
"Z.	c #861755555965",
"A.	c #51440C301040",
"S.	c #28A214511861",
"D.	c #F7DE0C301040",
"F.	c #F7DE69A669A6",
"G.	c #DF7D0C301040",
"H.	c #B6DA79E779E7",
"J.	c #B6DAA289AEBA",
"K.	c #79E771C671C6",
"L.	c #FFFFEBADF7DE",
"P.	c #B6DA8A289E79",
"I.	c #A699A289AEBA",
"U.	c #208110400820",
"Y.	c #C71B10401040",
"T.	c #FFFF45144924",
"R.	c #61854D345144",
"E.	c #9E7904100820",
"W.	c #08200C300820",
"Q.	c #38E3249228A2",
"!.	c #79E7410338E3",
"~.	c #BEFB55555965",
"^.	c #514428A21861",
"/.	c #E79DC71BD75C",
"(.	c #208128A22081",
").	c #69A61C712081",
"_.	c #FFFF618571C6",
"`.	c #8E3818611861",
"'.	c #96584D3438E3",
"].	c #69A62CB21861",
"[.	c #9E7971C66185",
"{.	c #618559656185",
"}.	c #618538E328A2",
"|.	c #4924249228A2",
" X	c #208114511040",
".X	c #C71BBAEAC71B",
"XX	c #618528A228A2",
"oX	c #104028A228A2",
"OX	c #08201C712081",
"+X	c #492418611040",
"@X	c #DF7D65955965",
"#X	c #28A20C300820",
"$X	c #8E3875D679E7",
"%X	c #9E799A699E79",
"&X	c #79E755555965",
"*X	c #38E320812081",
"=X	c #514420811040",
"-X	c #861734D328A2",
";X	c #D75CB6DACF3C",
":X	c #69A645144924",
">X	c #28A214511040",
",X	c #8E387DF78617",
"<X	c #514451444924",
"1X	c #9E7982078617",
"2X	c #38E318611861",
"3X	c #C71B9658AEBA",
"4X	c #BEFB71C68617",
"5X	c #38E32CB230C2",
"6X	c #8E386DB669A6",
"7X	c #B6DA92489658",
"8X	c #69A671C669A6",
"9X	c #CF3CCF3CCF3C",
"0X	c #FFFFFFFFFFFF",
"qX	c #38E330C230C2",
"wX	c #9658618569A6",
"eX	c #FFFFD75CEFBE",
"rX	c #DF7D9E79B6DA",
"tX	c #79E738E338E3",
"yX	c #9E796DB679E7",
"uX	c #96585D755965",
"                                                                                                ",
"                                                                                                ",
"                                                                                                ",
"                                                                                                ",
"                              . X o X                                                           ",
"                        . O + @ # $ % .                                                         ",
"                      & O * = - ; : * .                                                         ",
"                  . > , < 1 2 3 4 5 6 7                                                         ",
"                  8 9 9 0 . q w e r t e y                                                       ",
"                . u i p a . w X s 2 o . d f e                                                   ",
"                g h j k l z x X c v y b n m m M N B * q .                                       ",
"                0 V C Z 1 A S D F G H 0 J K L P I < U Y T s                                     ",
"                R n l a a 1 E W Q ! ~ z A + ^ / ^ ( ) _ ` p .                                   ",
"                . ' m ) + ~ N ] [ W { } | 1 _ a  . . .a > W 2                                   ",
"          ..X.o.O.w +.@.A Q #.o.$.o.X.T T } *  .N > %.1 1 B S                                   ",
"      . &.y E n *.1 =.-.@.1 ;...a 1 1 :.%.X.T -.r 1 a A A T ...           . :.*.X.S . . . =.    ",
"    O >.,.e <.1.M l M 2.1 Q 1 ..A E E M 3.Q  .:.4.5.6.H > l 7.- 8.9.. . . 0.q., 3.V 1., a w..   ",
"  e.r.. . e t.m #.r y.u.. i._ Q  .A  .i.p.v / . a.s.s.d.f.1 :.g.h.j.k.# 6 >.e  .l.l.0 } } z.x.,.",
"u.>.. . a.x l.3.H c.G . 2 7 e.R a.v.h.b.. n.m.M.N.= 9.B.V.C.Z.] o.A.S.X & . %.D.U L F.L ! 3.G.f.",
"e.= . a.* M.M E H.O 9.. <.X     . 7 e &.J.K.L.P.. 9.. c I.U.. z E #.W l Y.T.< 3.) R.5 ] 1 a E.f.",
"e.. W.Q.=.!._ ~.j.^.v e . c     W.s . . 9./.$ . . 2 . . ^ u.# (.).A A A _.T :.:.@.1 `.z <.. y.. ",
"a.. . r.'.].[.{.t.}.|.X . W.. W. X,.= . . e . . . . . = .X. s.b.<.. ;.z :.+.p.XX* x . oXOX+X@XW.",
"9.. e o }.+X!.#X+X| U.. . = . . 8.. . . . . e.= 9.W.2 . 2 5.d OXd.$X%X&XR s.. . w 7 a.. 7 *Xp.a.",
"W.. c a.S.^.=X].-XS.9.. . u.    9.X c e c . W.u.c u.. a.n.L./.;Xk.2 . . n.K.0.B.. . e q . a.R.q ",
"W.e . . = S.=.O. X= F e . W.      0.. 8.s . # :X. . . . = N.>X,Xr.r.<X. $X,X1X@ . . . 9..   . u.",
". a.. . W.a.W.a.a.W.e . X .       9.W.u.. s = W.9.W.. . | Z.2X{.. . 3X. Q.4XS.. . m.2.M.6 .     ",
"  u.W.u.. . u.9.. c . 9.e         W.=.W.c . . . * 5X. . r.6X6XZ.e.. . 7Xv.8X9X0X0X0X0X- O.Q.    ",
"    . u.W.u.c u.c u.9.u.            = q.a.e . . . 8.q qXJ.4.J.:XwX&X. 0X0X0XeXrXH.~ tXO.. Z..   ",
"        . e W.W.c c                   W.e.9.. . . . . . a.. . . . u.. yXwXq.3 <.t.9.W.. . uX.   ",
"                                        . . W.u.W.X X c 9.e.W.u.. . . 8.2Xr *X6  X. e w . f.u.  ",
"                                                . c .         X . . . W.. =.2 R ,.X 0.u.. 6.e   ",
"                                                              9.. . e = W.U.=.>Xs s c . . @ .   ",
"                                                              X . . s =   . e W.X e s 0.. Q.    ",
"                                                                = . . W.W.X . . X . . . 9.X     ",
"                                                                9.W.. s . w c u.0.. . . =       ",
"                                            . . . . .       . . . c X w . . . e . 0.= e..       ",
"      . . . . . . . . . . . . . . . . . . . . . . . . . . . . . . . . s e c . . . . W.. . .     ",
"      . . . . . . . . . . . . . . . . . . . . . . . . . . . . . . . . . . . . . . . . . . .     ",
"          . . . . . . . . . . . . . . . . . . . . . . . . . . . . . . . . . . . . . . . . .     ",
"                        . . . . . . . . . . . . . . . . . . . . . . . . . . . . .               ",
"                                                      . .                                       ",
"                                                                                                ",
"                                                                                                ",
"                                                                                                ",
"                                                                                                ",
"                                                                                                ",
"                                                                                                ",
"                                                                                                "};
