/* XPM */
static char * image_name[] = {
"48 48 257 2",
"  	c None",
". 	c #000010400000",
"X 	c #30C210401040",
"o 	c #30C224920000",
"O 	c #514420812081",
"+ 	c #71C630C22081",
"@ 	c #71C641032081",
"# 	c #8617514430C2",
"$ 	c #9E7930C230C2",
"% 	c #EFBEEFBE0000",
"& 	c #9E79514430C2",
"* 	c #618551444103",
"= 	c #4103410330C2",
"- 	c #104000001040",
"; 	c #000000000000",
": 	c #208110401040",
"> 	c #410330C21040",
", 	c #965851442081",
"< 	c #861741031040",
"1 	c #9E7941032081",
"2 	c #86172CB230C2",
"3 	c #9658514430C2",
"4 	c #BEFB61852081",
"5 	c #9E7930C22081",
"6 	c #861741032081",
"7 	c #BEFB71C671C6",
"8 	c #C71BA28969A6",
"9 	c #CF3CCF3C9658",
"0 	c #AEBA86176185",
"q 	c #8E3869A66185",
"w 	c #410320811040",
"e 	c #A6998A2828A2",
"r 	c #71C630C230C2",
"t 	c #69A64D3428A2",
"y 	c #8617618530C2",
"u 	c #8E3865954924",
"i 	c #E79DCF3C28A2",
"p 	c #DF7DEFBE0000",
"a 	c #A69969A66185",
"s 	c #A6998E388617",
"d 	c #AEBAAAAA8617",
"f 	c #C71BAAAAAEBA",
"g 	c #CF3CAAAA8E38",
"h 	c #DF7DAAAAAEBA",
"j 	c #AEBAAAAA9E79",
"k 	c #618561856185",
"l 	c #000004101040",
"z 	c #861730C22081",
"x 	c #CF3CCB2B0820",
"c 	c #965851444103",
"v 	c #AEBA61854103",
"b 	c #BEFBA2898617",
"n 	c #9E79820771C6",
"m 	c #BEFB92488617",
"M 	c #CF3CAEBA30C2",
"N 	c #EFBEDF7D0000",
"B 	c #C71B8A288E38",
"V 	c #A699BEFB9658",
"C 	c #CF3CBEFBAEBA",
"Z 	c #CF3CCB2BBEFB",
"A 	c #EFBEEBAD28A2",
"S 	c #5144410330C2",
"D 	c #104000000000",
"F 	c #410320812081",
"G 	c #8E3882075144",
"H 	c #DF7DDF7D2081",
"J 	c #8E38861769A6",
"K 	c #CF3CAEBA4103",
"L 	c #C71BC30BA699",
"P 	c #CF3C9248A699",
"I 	c #EFBEEBAD6185",
"U 	c #28A20C302081",
"Y 	c #208110400000",
"T 	c #514430C230C2",
"R 	c #8E3849244924",
"E 	c #71C651444103",
"W 	c #C71BC71B28A2",
"Q 	c #9E79A2896185",
"! 	c #AEBAA28971C6",
"~ 	c #DF7DCF3C2081",
"^ 	c #C71BAEBABEFB",
"/ 	c #C71B861769A6",
"( 	c #EFBEEFBE1040",
") 	c #E79DCB2BCF3C",
"_ 	c #104020811040",
"` 	c #618541032081",
"' 	c #6185514430C2",
"] 	c #8617410330C2",
"[ 	c #861761854103",
"{ 	c #AEBABEFB0000",
"} 	c #965892488617",
"| 	c #AEBA924871C6",
" .	c #CF3C71C69E79",
"..	c #EFBECF3CBEFB",
"X.	c #E79DDF7DBEFB",
"o.	c #E79DC71BA699",
"O.	c #DF7DCF3CBEFB",
"+.	c #208120810000",
"@.	c #965851446185",
"#.	c #AEBAAAAA0000",
"$.	c #DF7DE79D0820",
"%.	c #DF7DCF3C0820",
"&.	c #E79DE79DAEBA",
"*.	c #618530C230C2",
"=.	c #104010401040",
"-.	c #6185410330C2",
";.	c #618582076185",
":.	c #965871C68617",
">.	c #CF3CC71B4103",
",.	c #EFBEDF7D1040",
"<.	c #DF7DA2899658",
"1.	c #E79DA6998617",
"2.	c #DF7DA28971C6",
"3.	c #410330C22081",
"4.	c #4924451428A2",
"5.	c #69A641034103",
"6.	c #618565954924",
"7.	c #71C682075144",
"8.	c #A69969A64924",
"9.	c #C71B86174924",
"0.	c #E79DC71B8617",
"q.	c #DF7DAAAA69A6",
"w.	c #CF3C71C65144",
"e.	c #E79D8A286185",
"r.	c #208120811040",
"t.	c #492449244924",
"y.	c #BEFB69A68E38",
"u.	c #C71BA6994924",
"i.	c #EFBEEFBE8E38",
"p.	c #CF3C71C64103",
"a.	c #AEBA82074924",
"s.	c #28A22CB22081",
"d.	c #CF3CDF7D28A2",
"f.	c #DF7DDF7D1040",
"g.	c #514420811040",
"h.	c #69A6618528A2",
"j.	c #BEFB924871C6",
"k.	c #DF7D61854103",
"l.	c #CF3C4D344924",
"z.	c #C71B65954924",
"x.	c #C71B69A66185",
"c.	c #DF7D61855144",
"v.	c #BEFB410330C2",
"b.	c #965830C230C2",
"n.	c #9658618528A2",
"m.	c #861751442081",
"M.	c #104010400000",
"N.	c #410330C230C2",
"B.	c #AEBA4D344924",
"V.	c #AEBA82075144",
"C.	c #CF3C410330C2",
"Z.	c #BEFB514430C2",
"A.	c #AEBA41032081",
"S.	c #9658410330C2",
"D.	c #9E79410330C2",
"F.	c #965830C22081",
"G.	c #AEBA51442081",
"H.	c #BEFB71C64103",
"J.	c #CF3C618530C2",
"K.	c #BEFB71C630C2",
"L.	c #861730C21040",
"P.	c #AEBA30C22081",
"I.	c #CF3C2CB228A2",
"U.	c #DF7D92485144",
"Y.	c #DF7D924871C6",
"T.	c #30C220811040",
"R.	c #410330C24103",
"E.	c #AEBA514430C2",
"W.	c #DF7DDB6C5965",
"Q.	c #BEFB618530C2",
"!.	c #DF7D71C65144",
"~.	c #618541031040",
"^.	c #A699659528A2",
"/.	c #8E3845141040",
"(.	c #CF3C51442081",
").	c #DF7D820730C2",
"_.	c #DF7D82074103",
"`.	c #618530C22081",
"'.	c #618520812081",
"].	c #514430C22081",
"[.	c #965841032081",
"{.	c #AEBA410330C2",
"}.	c #AEBA30C230C2",
"|.	c #CF3C861730C2",
" X	c #71C620812081",
".X	c #861720811040",
"XX	c #618530C21040",
"oX	c #DF7DC71B4924",
"OX	c #E79D92489658",
"+X	c #DF7DAEBA9658",
"@X	c #DF7D8E3828A2",
"#X	c #514430C21040",
"$X	c #30C220812081",
"%X	c #965820811040",
"&X	c #618520811040",
"*X	c #71C630C21040",
"=X	c #E79D8A284924",
"-X	c #DF7D71C66185",
";X	c #9E79A2895965",
":X	c #DF7DA2894924",
">X	c #DF7D71C64103",
",X	c #EFBE514430C2",
"<X	c #DF7D71C630C2",
"1X	c #DF7D514430C2",
"2X	c #DF7D51442081",
"3X	c #DF7D61852081",
"4X	c #CF3C41032081",
"5X	c #71C620811040",
"6X	c #410310402081",
"7X	c #CF3C514430C2",
"8X	c #DF7D410330C2",
"9X	c #CF3C61852081",
"0X	c #410310401040",
"qX	c #965830C21040",
"wX	c #DF7D618530C2",
"eX	c #DF7D71C62081",
"rX	c #CF3C30C22081",
"tX	c #BEFB20812081",
"yX	c #CF3CE79D1040",
"uX	c #AEBA61852081",
"iX	c #AEBA618530C2",
"pX	c #BEFB51442081",
"aX	c #BEFB41032081",
"sX	c #9E7920812081",
"dX	c #CF3C71C630C2",
"fX	c #DF7D2CB22081",
"gX	c #BEFB30C21040",
"hX	c #DF7D41032081",
"jX	c #BEFB20811040",
"kX	c #AEBA30C21040",
"lX	c #965820812081",
"zX	c #DF7D41031040",
"xX	c #EFBE69A630C2",
"cX	c #BEFB30C22081",
"vX	c #C71B71C62081",
"bX	c #AEBA20812081",
"nX	c #9E7951442081",
"mX	c #C71B45141040",
"MX	c #861792480000",
"NX	c #9E7930C21040",
"BX	c #BEFB10402081",
"VX	c #AEBA20811040",
"CX	c #A69945141040",
"ZX	c #514410401040",
"AX	c #861720810000",
"SX	c #9E7920811040",
"DX	c #861720812081",
"FX	c #618510401040",
"GX	c #410320810000",
"HX	c #492410400000",
"JX	c #514420810000",
"KX	c #618520810000",
"LX	c #71C610401040",
"PX	c #28A208200820",
"IX	c #8E3810401040",
"UX	c #C71B514469A6",
"YX	c #514410402081",
"                                  . X o O + @ # $ % & # * = -                                   ",
"                            ; : > , + < 1 2 3 4 5 % 6 7 8 9 0 q = -                             ",
"                        - w e r t 6 + 2 y 3 u e i p a s d f g h j f k l                         ",
"                    ; X O z r x c v * u b q n m M N B f V C C h f f Z A S D                     ",
"                  . F + z + # G H 9 q u 0 n J m K % m C L C f h P I I b d d U                   ",
"                Y F T @ R E u n G A W a Q ! L d ~ % h ^ L f ! / ( V Z Z ) L P T                 ",
"              _ ` T ' ] t u [ G 0 c W { m g } P H % | g 8 B  .( h ..X.o.X.O.) C *               ",
"            +.= S S * # R J E | q @.q #.% j ^ } $.% B d L M %.) O.O.O.O...o.h &.&.*.            ",
"          =.S = = -.E * q ;.J J :.7 J n b % >.f ,.% K ) ,.W C ..O.&.o.<.o.o.h 1.2.2.3.          ",
"        . O S 4.5.5.6.E a J 7.0 7 8.a b J s % ,.% % % N 9...h o.o.0.1.<.q.2.w.8 e.q.e :         ",
"      ; r.t.= t.6.R R a J G 8.s J y.s g g Z >.% % % % $.K u.9.i.q.g 2.e.9.9.p.8 a.w.u.& ;       ",
"      : T s.-.= i.I >.>.d.i f.H $.,.% N % N % % % % % % % % % % % ,.% f.f.~ x W M K i.& g.      ",
"    - = 4.T = t h.E R q J Q g / j.f d g d g <.% % % % f./ k.u.l.z.u.z.x.c.v.b.8.n.y m.$ @ M.    ",
"    : N.S T S * * J B.[ a b j./ x./ V.x.B.i % N % % ~ ~ f.c.8 C.Z.A.S., D.F.b.] G.H.9.J.p.y     ",
"  . > 4.T -.h.# B.8.c 8.0 a / v z.8.K.6 % p f.9.( % u.3 K p 3 A.5 1 L.P.1 I.1 U.H.u./ Y.1.0.=.  ",
"  T.3.R.S R ' # R [ R a.u y l.E.# v W.% % ~ p.[ p % u.D.1 6 % i.P.6 E.G.v.Q.!.j./ 1.8 Y.8 q.~.  ",
"  w F @ -.n.] 6 z 3 t ^.# 5.F.R / d.% % i p.A.P.H % L./.(.).J.I W v.^.l.!.c.q.1.Y.0.0.<.1._.A.  ",
"; `.'.O ` ] ].'.[.4.*.6 n.-.{.{.f.% % 8.E.P.5 @ f.% }.y.X.&.M ).|.W l.z.Y.8 o.1.1.0.0.Y.u.).k.D ",
"=.F 3.T.F 3.'.`.F ].+ O 6 5  Xp % p  X.X5  XXX+ oX% 0 OXh X.q.|.9.B.W Y.<.+X0.q.OXq.e.@Xk.J.(.w ",
"M.O #XT.X w $Xg.F.].g.%X&X'.% % % *X1 /.F.'.3.N.R N ..o.<.U.=X9.U.-XY.;Xw.e.:X>X,X<X1X2X3X(.4X5X",
"6XF T.6XF T.g.+ w XX X#Xd.% % p L.2 6 F.[.S.r y V.p +Xe.w._.:Xa.q.z.c._.>XQ.=X1X4X>X7X8X).9XC.< ",
"T.6Xg.T.F g.0Xw &X6X#Xf.% % p qX, 6 J.A.$ l.v V./ N 8 <X>X:XU.>X>X1XwX>X(.(.eXwX,XwX8X(.<X(.rXtX",
"X T.0X0XT.0Xw g.g.XX( % % yXz b.uXiX, D.7XpXZ.K.H.$.=XwX9.U.=X>X<XwX<X|.4X9X).k.J.wX2X8X(.aXsXz ",
"M.X w o 0XT.X XXyXN % % yXZ.1 [.& 4 v Q.1X7XE.7XQ.%.|.dX<X|._.3X,XC.9XwX1X<X@X<XwX(.fXgXhXjXkXaX",
"=.X +.T.U > '.p % % % ` ` lX[.[.{.dXK.4 C.I.pXJ.3Xx 9XzX2X<X3XdXxX1X@X).(.1X3XkXtXkXcXA.P.5 [.5 ",
"=.r.0XU T.I p N % % 6 6 z z A.$ iXQ.uXC.4 G.1XdX8X#.wXhXvX@X|.<X<X4X(.vXbXcXaXaXpXaX1 aXpXnX{.5 ",
"+.0Xr.&.( p $.% % 5 < P.z sXA.G.G.mXcXkXaXhXeXxX2XMX3X2XxXeXwXeXrXtXjXtXkX{.vX5 lX1 (.uX& P.z [.",
"M.T.&.( % N % N XX6 5 A.5 P.cX{.G.rXaX(.4X2XwX9X,XW.1XhX(.4XaXfXkXgXA.[.Z.9.<XP.1 v.1 pXQ.P.P.[.",
": I % % ( % ( w  X%XNX5 NXP.F.mX(.aXfX2X2XhXeX2X4XfXmXgXtXjXBXVXtXcXaXQ.pXQ.4 P.4XG.aXCX9X}.4X&X",
"Y A % % % f.ZXAX.X5 CXcXqXsXgXpXA.rXtXNXrXrXNXSXkXSXP.mXiXK.C.dXhX1X<X<XvX7XpXcX(.v.Z.G.5 sXDXX ",
"l ( % % w g.5XFX*XqXbXL.P.NX1 A.uX5 kXtX%X.XSXSXF.P.Q.H.Q.J.pXwX<XdX<XdX7X4 1Xv.aXaX1 lXkXDXsX. ",
"  A % A 0Xw FX&XDXSXqXP.L.DXNX5X&XFXDX5X%XrX@ B.p.{.kX4X8X3XrXaXrXcXaXD.G.4XA.1 4X%XlXL.bXP.XX  ",
"  I 0XX GX0XL.5X&X5XlX+  X&Xg.5X5Xz z A., a.7 iX5 1 sXsXF.5 A.F.NXF.pX1 bX1 A.P.1 sXF.[.^.6 O   ",
"  D HXJXZXZXg.KXFXZXGX0Xw LXGX*X1 < z z a 1 VXlX&X5 5 CXv.G.F.qXDXz qXcXNXA.< 5 [.*X$ 9XG.}.D   ",
"    : ZXw &XT.0XPX0X0Xw &X+ 5 1 ` F.F.S |.%Xz 1 P.& I.k.|.E.pXQ.4 5 5 , D.1 5 & uX{.G.H.iX`     ",
"    ; : M.X o : PXg.+ 3.] c n.y ^.& /.lX'.@ v.pXE.Q.l.U.oX1.p.=X9XnXG.G.5 uXD.{.^.x.j.2.e -     ",
"      M.PXY PXPXX ].`.+ XX'.~.[.z qX.X*X5 J.pXP.aXaXaXJ.1XwX>X4 8XQ.uXS.uX& l.-X+X/ +X8 *.      ",
"      ; M.: T.O w XXO $XO L.].+ NX6X`.P.F.nXaXgXaXA.cXrX(.8XZ.7X1 nXv K./ | z.j.! j.! a         ",
"        l Y w T.F ZXT.'.JXg.*XL.5Xg.DXL.A.aX1 tXcXtXrXrX4XaXI.6 }.Z.K.E.j.B x.8 ! 8 s _         ",
"          - r.$XT.w O *X+ #X&XIXO '.qXlX5 kXP.5 cXgXtX(.4 aXA.1 A.8.9.V.b 8.UXs L m s.          ",
"            - X T.g.6X> O ~.'.0Xw '.XXlXqXqXsXP.P.1 5 F.@ }.B.z.R ! 0 n | a UX/ G s.            ",
"              PXX IX&Xg.T.FX0XX 0Xg.ZX&XLX.X5XIX%X X*XiXB.& B.v B.8.9.B.0 v v h.T.              ",
"                - T.YXT.F > F w w &Xg. XXXXX X[.z m.] E.# B.c v ' V.c c [ iX] T.                ",
"                  - +.O `.3.#Xm.`.> z #Xw + 5X+ 6 , & # l.c S.] {.u nX$ ^.] M.                  ",
"                    l r.O ].'.].g.`.4.O g.].O z + 4.@ R B.S.t 3 [.' b.z 3.;                     ",
"                        ; : T.F r.$X#XT 3.` 6 ` '.XX`.r 1 '.`.`.`.].T.-                         ",
"                            ; . : g.O 4.*.T 3. X> w w #X6X&X5Xg.: .                             ",
"                                  D Y : r.O HXT.X g.GXU : - ;                                   "};
