#define app_width 58
#define app_height 48
#define app_x_hot 1
#define app_y_hot 1
static unsigned char app_bits[] = {
   0x00, 0x00, 0x00, 0x00, 0x00, 0x00, 0x00, 0x00, 0x02, 0x00, 0x00, 0x00,
   0x00, 0x00, 0x00, 0x00, 0x06, 0x00, 0x00, 0x00, 0x00, 0x00, 0x00, 0x00,
   0x0e, 0x00, 0x00, 0x00, 0x00, 0x00, 0x00, 0x00, 0x1e, 0x00, 0x00, 0x00,
   0x00, 0x00, 0x00, 0x00, 0x3e, 0x00, 0x00, 0x00, 0x00, 0x00, 0x00, 0x00,
   0x7e, 0x00, 0x00, 0x00, 0x00, 0x00, 0x00, 0x00, 0xfe, 0xc0, 0xff, 0xff,
   0xff, 0xff, 0x7f, 0x00, 0xfe, 0xc1, 0xaa, 0xaa, 0xaa, 0xaa, 0x6a, 0x00,
   0x3e, 0x40, 0xff, 0xff, 0xff, 0xff, 0x5f, 0x00, 0x36, 0xc0, 0xf1, 0xff,
   0xff, 0x07, 0x70, 0x00, 0x62, 0x40, 0x11, 0x00, 0xfe, 0x07, 0x50, 0x00,
   0x60, 0xc0, 0xf1, 0xff, 0xff, 0x07, 0x70, 0x00, 0xc0, 0x40, 0xff, 0xff,
   0xff, 0xff, 0x5f, 0x00, 0xc0, 0xc0, 0xaa, 0xaa, 0xaa, 0xaa, 0x6a, 0x00,
   0x00, 0x40, 0x00, 0x00, 0x00, 0x00, 0x40, 0x00, 0x00, 0xc0, 0x00, 0x00,
   0x00, 0x00, 0x60, 0x00, 0x00, 0x40, 0x00, 0x00, 0x00, 0x00, 0x40, 0x00,
   0x00, 0xc0, 0x00, 0x00, 0x00, 0x00, 0x60, 0x00, 0x00, 0x40, 0x00, 0x00,
   0x00, 0x00, 0x40, 0x00, 0x00, 0xc0, 0x00, 0x00, 0x00, 0x00, 0x60, 0x00,
   0x00, 0x40, 0x00, 0x00, 0x00, 0x00, 0x40, 0x00, 0x00, 0xc0, 0x00, 0x00,
   0x00, 0x00, 0x60, 0x00, 0x00, 0x40, 0x00, 0x00, 0x00, 0x00, 0x40, 0x00,
   0x00, 0xc0, 0x00, 0x00, 0x00, 0x00, 0x60, 0x00, 0x00, 0x40, 0x00, 0x00,
   0x00, 0x00, 0x40, 0x00, 0x00, 0xc0, 0x00, 0x00, 0x00, 0x00, 0x60, 0x00,
   0x00, 0x40, 0x00, 0x00, 0x00, 0x00, 0x40, 0x00, 0x00, 0xc0, 0x00, 0x00,
   0x00, 0x00, 0x60, 0x00, 0x00, 0x40, 0x00, 0x00, 0x00, 0x00, 0x40, 0x00,
   0x00, 0xc0, 0x00, 0x00, 0x00, 0x00, 0x60, 0x00, 0x00, 0x40, 0x00, 0x00,
   0x00, 0x00, 0x40, 0x00, 0x00, 0xc0, 0x00, 0x00, 0x00, 0x00, 0x60, 0x00,
   0x00, 0x40, 0x00, 0x00, 0x00, 0x00, 0x40, 0x00, 0x00, 0xc0, 0x00, 0x00,
   0x00, 0x00, 0x60, 0x00, 0x00, 0x40, 0x00, 0x00, 0x00, 0x00, 0x40, 0x00,
   0x00, 0xc0, 0x00, 0x00, 0x00, 0x00, 0x60, 0x00, 0x00, 0x40, 0x00, 0x00,
   0x00, 0x00, 0x40, 0x00, 0x00, 0xc0, 0x00, 0x00, 0x00, 0x00, 0x60, 0x00,
   0x00, 0x40, 0x00, 0x00, 0x00, 0x00, 0x40, 0x00, 0x00, 0xc0, 0xaa, 0xaa,
   0xaa, 0xaa, 0x6a, 0x00, 0x00, 0xc0, 0xff, 0xff, 0xff, 0xff, 0x7f, 0x00,
   0x00, 0x00, 0x00, 0x00, 0x00, 0x00, 0x00, 0x00, 0x00, 0x00, 0x00, 0x00,
   0x00, 0x00, 0x00, 0x00, 0x00, 0x00, 0x00, 0x00, 0x00, 0x00, 0x00, 0x00,
   0x00, 0x00, 0x00, 0x00, 0x00, 0x00, 0x00, 0x00, 0x00, 0x00, 0x00, 0x00,
   0x00, 0x00, 0x00, 0x00, 0x00, 0x00, 0x00, 0x00, 0x00, 0x00, 0x00, 0x00};
