#define app_mask_width 58
#define app_mask_height 48
#define app_mask_x_hot 1
#define app_mask_y_hot 1
static unsigned char app_mask_bits[] = {
   0x03, 0x00, 0x00, 0x00, 0x00, 0x00, 0x00, 0x00, 0x07, 0x00, 0x00, 0x00,
   0x00, 0x00, 0x00, 0x00, 0x0f, 0x00, 0x00, 0x00, 0x00, 0x00, 0x00, 0x00,
   0x1f, 0x00, 0x00, 0x00, 0x00, 0x00, 0x00, 0x00, 0x3f, 0x00, 0x00, 0x00,
   0x00, 0x00, 0x00, 0x00, 0x7f, 0x00, 0x00, 0x00, 0x00, 0x00, 0x00, 0x00,
   0xff, 0x00, 0x00, 0x00, 0x00, 0x00, 0x00, 0x00, 0xff, 0xc1, 0xff, 0xff,
   0xff, 0xff, 0x7f, 0x00, 0xff, 0xc3, 0xff, 0xff, 0xff, 0xff, 0x7f, 0x00,
   0xff, 0xc3, 0xff, 0xff, 0xff, 0xff, 0x7f, 0x00, 0x7f, 0xc0, 0xff, 0xff,
   0xff, 0xff, 0x7f, 0x00, 0xf7, 0xc0, 0xff, 0xff, 0xff, 0xff, 0x7f, 0x00,
   0xf3, 0xc0, 0xff, 0xff, 0xff, 0xff, 0x7f, 0x00, 0xe0, 0xc1, 0xff, 0xff,
   0xff, 0xff, 0x7f, 0x00, 0xe0, 0xc1, 0xff, 0xff, 0xff, 0xff, 0x7f, 0x00,
   0xc0, 0xc0, 0xff, 0xff, 0xff, 0xff, 0x7f, 0x00, 0x00, 0xc0, 0xff, 0xff,
   0xff, 0xff, 0x7f, 0x00, 0x00, 0xc0, 0xff, 0xff, 0xff, 0xff, 0x7f, 0x00,
   0x00, 0xc0, 0xff, 0xff, 0xff, 0xff, 0x7f, 0x00, 0x00, 0xc0, 0xff, 0xff,
   0xff, 0xff, 0x7f, 0x00, 0x00, 0xc0, 0xff, 0xff, 0xff, 0xff, 0x7f, 0x00,
   0x00, 0xc0, 0xff, 0xff, 0xff, 0xff, 0x7f, 0x00, 0x00, 0xc0, 0xff, 0xff,
   0xff, 0xff, 0x7f, 0x00, 0x00, 0xc0, 0xff, 0xff, 0xff, 0xff, 0x7f, 0x00,
   0x00, 0xc0, 0xff, 0xff, 0xff, 0xff, 0x7f, 0x00, 0x00, 0xc0, 0xff, 0xff,
   0xff, 0xff, 0x7f, 0x00, 0x00, 0xc0, 0xff, 0xff, 0xff, 0xff, 0x7f, 0x00,
   0x00, 0xc0, 0xff, 0xff, 0xff, 0xff, 0x7f, 0x00, 0x00, 0xc0, 0xff, 0xff,
   0xff, 0xff, 0x7f, 0x00, 0x00, 0xc0, 0xff, 0xff, 0xff, 0xff, 0x7f, 0x00,
   0x00, 0xc0, 0xff, 0xff, 0xff, 0xff, 0x7f, 0x00, 0x00, 0xc0, 0xff, 0xff,
   0xff, 0xff, 0x7f, 0x00, 0x00, 0xc0, 0xff, 0xff, 0xff, 0xff, 0x7f, 0x00,
   0x00, 0xc0, 0xff, 0xff, 0xff, 0xff, 0x7f, 0x00, 0x00, 0xc0, 0xff, 0xff,
   0xff, 0xff, 0x7f, 0x00, 0x00, 0xc0, 0xff, 0xff, 0xff, 0xff, 0x7f, 0x00,
   0x00, 0xc0, 0xff, 0xff, 0xff, 0xff, 0x7f, 0x00, 0x00, 0xc0, 0xff, 0xff,
   0xff, 0xff, 0x7f, 0x00, 0x00, 0xc0, 0xff, 0xff, 0xff, 0xff, 0x7f, 0x00,
   0x00, 0xc0, 0xff, 0xff, 0xff, 0xff, 0x7f, 0x00, 0x00, 0xc0, 0xff, 0xff,
   0xff, 0xff, 0x7f, 0x00, 0x00, 0xc0, 0xff, 0xff, 0xff, 0xff, 0x7f, 0x00,
   0x00, 0x00, 0x00, 0x00, 0x00, 0x00, 0x00, 0x00, 0x00, 0x00, 0x00, 0x00,
   0x00, 0x00, 0x00, 0x00, 0x00, 0x00, 0x00, 0x00, 0x00, 0x00, 0x00, 0x00,
   0x00, 0x00, 0x00, 0x00, 0x00, 0x00, 0x00, 0x00, 0x00, 0x00, 0x00, 0x00,
   0x00, 0x00, 0x00, 0x00, 0x00, 0x00, 0x00, 0x00, 0x00, 0x00, 0x00, 0x00};
