#define cursor_big_width 10
#define cursor_big_height 16
#define cursor_big_x_hot 1
#define cursor_big_y_hot 1
static unsigned char cursor_big_bits[] = {
   0x03, 0x00, 0x07, 0x00, 0x0f, 0x00, 0x1f, 0x00, 0x3f, 0x00, 0x7f, 0x00,
   0xff, 0x00, 0xff, 0x01, 0xff, 0x03, 0xff, 0x03, 0x7f, 0x00, 0xf7, 0x00,
   0xf3, 0x00, 0xe0, 0x01, 0xe0, 0x01, 0xc0, 0x00};
