#define dir_width 58
#define dir_height 48
#define dir_x_hot 1
#define dir_y_hot 1
static unsigned char dir_bits[] = {
   0x00, 0x00, 0x00, 0x00, 0x00, 0x00, 0x00, 0x00, 0x02, 0x00, 0x00, 0x00,
   0x00, 0x00, 0x00, 0x00, 0x06, 0x00, 0x00, 0x00, 0x00, 0x00, 0x00, 0x00,
   0x0e, 0x00, 0x00, 0x00, 0x00, 0x00, 0x00, 0x00, 0x1e, 0x00, 0x00, 0x00,
   0x00, 0x00, 0x00, 0x00, 0x3e, 0x00, 0x00, 0x00, 0x00, 0x00, 0x00, 0x00,
   0x7e, 0x00, 0x00, 0x00, 0x00, 0x00, 0x00, 0x00, 0xfe, 0x00, 0x00, 0x00,
   0x00, 0x00, 0x00, 0x00, 0xfe, 0x01, 0x00, 0x00, 0x00, 0x00, 0x00, 0x00,
   0x3e, 0x00, 0x00, 0x00, 0x80, 0x0f, 0x00, 0x00, 0x36, 0x00, 0x00, 0x00,
   0xfc, 0x08, 0x00, 0x00, 0x62, 0x00, 0x3f, 0xe0, 0x07, 0x08, 0x0e, 0x00,
   0x60, 0xc0, 0x61, 0x3f, 0x00, 0xf8, 0x0b, 0x00, 0xc0, 0x60, 0xc0, 0x00,
   0x00, 0x1f, 0x08, 0x00, 0xc0, 0x20, 0x00, 0x00, 0xf8, 0x00, 0x08, 0x00,
   0x00, 0x60, 0x00, 0x00, 0x07, 0x00, 0x08, 0x00, 0x00, 0x40, 0x00, 0xf8,
   0x00, 0x00, 0x08, 0x00, 0x00, 0x40, 0x00, 0x07, 0x00, 0x00, 0x08, 0x00,
   0x00, 0xc0, 0x80, 0x00, 0x00, 0x00, 0x08, 0x00, 0x00, 0x80, 0x80, 0x00,
   0x00, 0x00, 0x08, 0x00, 0x00, 0x80, 0x80, 0x00, 0x00, 0x00, 0x08, 0x00,
   0x00, 0x80, 0x81, 0x00, 0x00, 0x00, 0x08, 0x00, 0x00, 0x00, 0x81, 0x00,
   0x00, 0x00, 0x08, 0x00, 0x00, 0x00, 0x81, 0x00, 0x00, 0x00, 0x08, 0x00,
   0x00, 0x00, 0x83, 0x00, 0x00, 0x00, 0x08, 0x00, 0x00, 0x00, 0x82, 0x00,
   0x00, 0x00, 0x08, 0x00, 0x00, 0x00, 0x86, 0x00, 0x00, 0x00, 0x08, 0x00,
   0x00, 0x00, 0x84, 0x00, 0x00, 0x00, 0x08, 0x00, 0x00, 0x00, 0x84, 0x00,
   0x00, 0x00, 0x08, 0x00, 0x00, 0x00, 0x8c, 0x00, 0x00, 0x00, 0x0e, 0x00,
   0x00, 0x00, 0x88, 0x00, 0x00, 0x80, 0x07, 0x00, 0x00, 0x00, 0x88, 0x00,
   0x00, 0xf0, 0x01, 0x00, 0x00, 0x00, 0x98, 0x00, 0x00, 0x3e, 0x00, 0x00,
   0x00, 0x00, 0x90, 0x00, 0xc0, 0x07, 0x00, 0x00, 0x00, 0x00, 0x90, 0x00,
   0xf8, 0x00, 0x00, 0x00, 0x00, 0x00, 0xb0, 0x00, 0x0f, 0x00, 0x00, 0x00,
   0x00, 0x00, 0xa0, 0xe0, 0x03, 0x00, 0x00, 0x00, 0x00, 0x00, 0xa0, 0x38,
   0x00, 0x00, 0x00, 0x00, 0x00, 0x00, 0xe0, 0x0e, 0x00, 0x00, 0x00, 0x00,
   0x00, 0x00, 0xc0, 0x03, 0x00, 0x00, 0x00, 0x00, 0x00, 0x00, 0x00, 0x00,
   0x00, 0x00, 0x00, 0x00, 0x00, 0x00, 0x00, 0x00, 0x00, 0x00, 0x00, 0x00,
   0x00, 0x00, 0x00, 0x00, 0x00, 0x00, 0x00, 0x00, 0x00, 0x00, 0x00, 0x00,
   0x00, 0x00, 0x00, 0x00, 0x00, 0x00, 0x00, 0x00, 0x00, 0x00, 0x00, 0x00,
   0x00, 0x00, 0x00, 0x00, 0x00, 0x00, 0x00, 0x00, 0x00, 0x00, 0x00, 0x00,
   0x00, 0x00, 0x00, 0x00, 0x00, 0x00, 0x00, 0x00, 0x00, 0x00, 0x00, 0x00};
