#define files_width 58
#define files_height 48
#define files_x_hot 1
#define files_y_hot 1
static unsigned char files_bits[] = {
   0x00, 0x00, 0x00, 0x00, 0x00, 0x00, 0x00, 0x00, 0x02, 0x00, 0x00, 0x00,
   0x00, 0x00, 0x00, 0x00, 0x06, 0x00, 0x00, 0x00, 0x0c, 0x00, 0x00, 0x00,
   0x0e, 0x00, 0x00, 0x00, 0x13, 0x00, 0x00, 0x00, 0x1e, 0x00, 0x00, 0xc0,
   0x10, 0x00, 0x00, 0x00, 0x3e, 0x00, 0x00, 0x3e, 0x30, 0x00, 0x00, 0x00,
   0x7e, 0x00, 0xe0, 0x03, 0x20, 0x00, 0x00, 0x00, 0xfe, 0x00, 0x10, 0x00,
   0x20, 0x00, 0x00, 0x00, 0xfe, 0x01, 0x28, 0x00, 0x60, 0x00, 0x00, 0x00,
   0x3e, 0x00, 0x64, 0x00, 0x40, 0x00, 0x00, 0x00, 0x36, 0x00, 0x82, 0x00,
   0x80, 0x00, 0x00, 0x00, 0x62, 0x00, 0x82, 0x00, 0x80, 0x00, 0x00, 0x00,
   0x60, 0x00, 0x82, 0x01, 0x80, 0x01, 0x00, 0x00, 0xc0, 0x00, 0xfe, 0x01,
   0x00, 0x01, 0x00, 0x00, 0xc0, 0x00, 0x06, 0x00, 0x00, 0x02, 0x00, 0x00,
   0x00, 0x00, 0x02, 0x00, 0x00, 0x02, 0x00, 0x00, 0x00, 0x00, 0x03, 0x00,
   0x00, 0x06, 0x00, 0x00, 0x00, 0x00, 0x03, 0x00, 0x00, 0x04, 0x00, 0x00,
   0x00, 0x00, 0x03, 0x00, 0x00, 0x08, 0x00, 0x00, 0x00, 0x00, 0x03, 0x00,
   0x00, 0x10, 0x00, 0x00, 0x00, 0x00, 0x03, 0x00, 0x00, 0x18, 0x00, 0x00,
   0x00, 0x00, 0x05, 0x00, 0x00, 0x30, 0x00, 0x00, 0x00, 0x00, 0x06, 0x00,
   0x00, 0x20, 0x00, 0x00, 0x00, 0x00, 0x07, 0x00, 0x00, 0x40, 0x00, 0x00,
   0x00, 0x00, 0x0b, 0x00, 0x00, 0x80, 0x00, 0x00, 0x00, 0x00, 0x09, 0x00,
   0x00, 0x80, 0x00, 0x00, 0x00, 0x00, 0x0d, 0x00, 0x00, 0x60, 0x00, 0x00,
   0x00, 0x00, 0x0e, 0x00, 0x00, 0x58, 0x00, 0x00, 0x00, 0x00, 0x0a, 0x00,
   0x00, 0xc6, 0x00, 0x00, 0x00, 0x00, 0x1b, 0x00, 0x80, 0x71, 0x00, 0x00,
   0x00, 0x00, 0x1e, 0x00, 0x60, 0xce, 0x00, 0x00, 0x00, 0x00, 0x14, 0x00,
   0x9c, 0x71, 0x00, 0x00, 0x00, 0x00, 0x36, 0x80, 0x63, 0xce, 0x00, 0x00,
   0x00, 0x00, 0x3c, 0x70, 0x9c, 0x71, 0x00, 0x00, 0x00, 0x00, 0x38, 0x18,
   0x63, 0xce, 0x00, 0x00, 0x00, 0x00, 0xcc, 0xe7, 0x9c, 0x71, 0x00, 0x00,
   0x00, 0x00, 0xa8, 0x18, 0x63, 0xce, 0x00, 0x00, 0x00, 0x00, 0x30, 0xe6,
   0x9c, 0x71, 0x00, 0x00, 0x00, 0x00, 0x98, 0x19, 0x63, 0x1e, 0x00, 0x00,
   0x00, 0x00, 0x50, 0xe6, 0x9c, 0x03, 0x00, 0x00, 0x00, 0x00, 0xe0, 0x19,
   0xe3, 0x00, 0x00, 0x00, 0x00, 0x00, 0x30, 0xe6, 0x3c, 0x00, 0x00, 0x00,
   0x00, 0x00, 0xa0, 0x19, 0x07, 0x00, 0x00, 0x00, 0x00, 0x00, 0x60, 0xe6,
   0x01, 0x00, 0x00, 0x00, 0x00, 0x00, 0xc0, 0x39, 0x00, 0x00, 0x00, 0x00,
   0x00, 0x00, 0x40, 0x0e, 0x00, 0x00, 0x00, 0x00, 0x00, 0x00, 0x80, 0x01,
   0x00, 0x00, 0x00, 0x00, 0x00, 0x00, 0x00, 0x00, 0x00, 0x00, 0x00, 0x00};
