#define grey_width 58
#define grey_height 48
#define grey_x_hot 1
#define grey_y_hot 1
static unsigned char grey_bits[] = {
   0x00, 0x00, 0x00, 0x00, 0x00, 0x00, 0x00, 0x00, 0x02, 0x00, 0x00, 0x00,
   0x00, 0x00, 0x00, 0x00, 0x06, 0x00, 0x00, 0x00, 0x00, 0x00, 0x00, 0x00,
   0x0e, 0x00, 0x00, 0x00, 0x00, 0x00, 0x00, 0x00, 0x1e, 0x00, 0x00, 0x00,
   0x00, 0x00, 0x00, 0x00, 0x3e, 0x00, 0x00, 0x00, 0x00, 0x00, 0x00, 0x00,
   0x7e, 0x00, 0x00, 0x00, 0x00, 0x00, 0x00, 0x00, 0xfe, 0x00, 0x00, 0x00,
   0x00, 0x00, 0x00, 0x00, 0xfe, 0x01, 0x00, 0x00, 0xf0, 0x00, 0x00, 0x00,
   0x3e, 0x00, 0x00, 0x00, 0xd8, 0x00, 0x00, 0x00, 0x36, 0x00, 0x00, 0x00,
   0xaf, 0x01, 0x00, 0x00, 0x62, 0x00, 0x00, 0xf8, 0x55, 0x01, 0x00, 0x00,
   0x60, 0x00, 0x00, 0xaf, 0xaa, 0x01, 0x00, 0x00, 0xc0, 0x00, 0xc0, 0x55,
   0x55, 0x03, 0x00, 0x00, 0xc0, 0x00, 0x60, 0xab, 0xaa, 0x02, 0x00, 0x00,
   0x00, 0x00, 0x20, 0x56, 0x55, 0x03, 0x00, 0x00, 0x00, 0x00, 0x30, 0xaa,
   0xaa, 0x06, 0x00, 0x00, 0x00, 0x00, 0x18, 0x54, 0x55, 0x0d, 0x00, 0x00,
   0x00, 0x00, 0x08, 0xa8, 0xaa, 0x0a, 0x00, 0x00, 0x00, 0x00, 0x08, 0x58,
   0x55, 0x0d, 0x00, 0x00, 0x00, 0x00, 0xe8, 0xaf, 0xaa, 0x1a, 0x00, 0x00,
   0x00, 0x00, 0x58, 0x55, 0x55, 0x35, 0x00, 0x00, 0x00, 0x00, 0xb0, 0xaa,
   0xaa, 0x3a, 0x00, 0x00, 0x00, 0x00, 0x50, 0x55, 0x55, 0x35, 0x00, 0x00,
   0x00, 0x00, 0xb0, 0xaa, 0xaa, 0x6a, 0x00, 0x00, 0x00, 0x00, 0x50, 0x55,
   0x55, 0xd5, 0x00, 0x00, 0x00, 0x00, 0xb0, 0xaa, 0xaa, 0xaa, 0x01, 0x00,
   0x00, 0x00, 0x60, 0x55, 0x55, 0x55, 0x01, 0x00, 0x00, 0x00, 0xa0, 0xaa,
   0xaa, 0xaa, 0x02, 0x00, 0x00, 0x00, 0x60, 0x55, 0x55, 0x55, 0x03, 0x00,
   0x00, 0x00, 0xa0, 0xaa, 0xaa, 0xaa, 0x06, 0x00, 0x00, 0x00, 0x60, 0x55,
   0x55, 0x55, 0x0d, 0x00, 0x00, 0x00, 0x80, 0xaa, 0xaa, 0xaa, 0x07, 0x00,
   0x00, 0x00, 0x40, 0x55, 0x55, 0xd5, 0x00, 0x00, 0x00, 0x00, 0x40, 0xaa,
   0xaa, 0x7a, 0x00, 0x00, 0x00, 0x00, 0x80, 0x55, 0x55, 0x0d, 0x00, 0x00,
   0x00, 0x00, 0x80, 0xaa, 0xaa, 0x07, 0x00, 0x00, 0x00, 0x00, 0x80, 0x55,
   0xf5, 0x00, 0x00, 0x00, 0x00, 0x00, 0x80, 0xaa, 0x3a, 0x00, 0x00, 0x00,
   0x00, 0x00, 0x00, 0x55, 0x0f, 0x00, 0x00, 0x00, 0x00, 0x00, 0x00, 0xeb,
   0x01, 0x00, 0x00, 0x00, 0x00, 0x00, 0x00, 0x3e, 0x00, 0x00, 0x00, 0x00,
   0x00, 0x00, 0x00, 0x00, 0x00, 0x00, 0x00, 0x00, 0x00, 0x00, 0x00, 0x00,
   0x00, 0x00, 0x00, 0x00, 0x00, 0x00, 0x00, 0x00, 0x00, 0x00, 0x00, 0x00,
   0x00, 0x00, 0x00, 0x00, 0x00, 0x00, 0x00, 0x00, 0x00, 0x00, 0x00, 0x00,
   0x00, 0x00, 0x00, 0x00, 0x00, 0x00, 0x00, 0x00, 0x00, 0x00, 0x00, 0x00};
