#define mime_width 30
#define mime_height 20
#define mime_x_hot 1
#define mime_y_hot 1
static unsigned char mime_bits[] = {
   0x00, 0x00, 0x00, 0x00, 0x02, 0x00, 0x80, 0x01, 0x06, 0x00, 0x80, 0x01,
   0x0e, 0x00, 0x00, 0x00, 0x1e, 0xb0, 0x99, 0x01, 0x3e, 0x70, 0xb7, 0x01,
   0x7e, 0x30, 0xb3, 0x01, 0xfe, 0x30, 0xb3, 0x01, 0xfe, 0x31, 0xb3, 0x01,
   0x3e, 0x30, 0xb3, 0x01, 0x36, 0x30, 0xb3, 0x01, 0x62, 0x00, 0x00, 0x00,
   0x60, 0xb0, 0x19, 0x0f, 0xc0, 0x70, 0xb7, 0x19, 0xc0, 0x30, 0xb3, 0x19,
   0x00, 0x30, 0xb3, 0x1f, 0x00, 0x30, 0xb3, 0x01, 0x00, 0x30, 0xb3, 0x11,
   0x00, 0x30, 0x33, 0x0f, 0x00, 0x00, 0x00, 0x00};
