#define mime_mask_width 30
#define mime_mask_height 20
static unsigned char mime_mask_bits[] = {
   0x03, 0x00, 0x80, 0x01, 0x07, 0x00, 0xc0, 0x03, 0x0f, 0x00, 0xc0, 0x03,
   0x1f, 0xb8, 0x99, 0x01, 0x3f, 0xf8, 0xff, 0x03, 0x7f, 0xf8, 0xff, 0x03,
   0xff, 0xf8, 0xff, 0x03, 0xff, 0xf9, 0xff, 0x03, 0xff, 0xfb, 0xff, 0x03,
   0xff, 0xf9, 0xff, 0x03, 0x7f, 0xf8, 0xff, 0x03, 0xf7, 0xf8, 0xff, 0x0f,
   0xf3, 0xf8, 0xff, 0x1f, 0xe0, 0xf9, 0xff, 0x3f, 0xe0, 0xf9, 0xff, 0x3f,
   0xc0, 0xf8, 0xff, 0x3f, 0x00, 0xf8, 0xff, 0x3f, 0x00, 0xf8, 0xff, 0x3f,
   0x00, 0xf8, 0xff, 0x1f, 0x00, 0xf8, 0xff, 0x0f};
