#define text_width 58
#define text_height 48
#define text_x_hot 1
#define text_y_hot 1
static unsigned char text_bits[] = {
   0x00, 0x00, 0x00, 0x00, 0x00, 0x00, 0x00, 0x00, 0x02, 0x00, 0x00, 0x00,
   0x00, 0x00, 0x00, 0x00, 0x06, 0x00, 0x00, 0x00, 0x00, 0x00, 0x00, 0x00,
   0x0e, 0x00, 0x00, 0x00, 0x00, 0x00, 0x00, 0x00, 0x1e, 0x00, 0x00, 0x00,
   0x00, 0x00, 0x00, 0x00, 0x3e, 0x00, 0x00, 0x00, 0x00, 0x00, 0x00, 0x00,
   0x7e, 0x00, 0x00, 0x00, 0x00, 0x00, 0x00, 0x00, 0xfe, 0x00, 0x00, 0x00,
   0x00, 0x00, 0x00, 0x00, 0xfe, 0x01, 0x00, 0x00, 0xf0, 0x00, 0x00, 0x00,
   0x3e, 0x00, 0x00, 0x00, 0x98, 0x00, 0x00, 0x00, 0x36, 0x00, 0x00, 0x00,
   0x8f, 0x01, 0x00, 0x00, 0x62, 0x00, 0x00, 0xf8, 0x01, 0x01, 0x00, 0x00,
   0x60, 0x00, 0x00, 0x0f, 0x00, 0x01, 0x00, 0x00, 0xc0, 0x00, 0xc0, 0x01,
   0x00, 0x03, 0x00, 0x00, 0xc0, 0x00, 0x60, 0x03, 0x00, 0x02, 0x00, 0x00,
   0x00, 0x00, 0x20, 0x02, 0x00, 0x02, 0x00, 0x00, 0x00, 0x00, 0x30, 0x06,
   0x00, 0x06, 0x00, 0x00, 0x00, 0x00, 0x18, 0x0c, 0x00, 0x0c, 0x00, 0x00,
   0x00, 0x00, 0x08, 0x08, 0x00, 0x08, 0x00, 0x00, 0x00, 0x00, 0x08, 0x18,
   0xe0, 0x09, 0x00, 0x00, 0x00, 0x00, 0xe8, 0x1f, 0x38, 0x18, 0x00, 0x00,
   0x00, 0x00, 0x18, 0x00, 0x07, 0x33, 0x00, 0x00, 0x00, 0x00, 0x10, 0xc0,
   0xe1, 0x21, 0x00, 0x00, 0x00, 0x00, 0x10, 0x78, 0x38, 0x24, 0x00, 0x00,
   0x00, 0x00, 0x10, 0x0f, 0x87, 0x67, 0x00, 0x00, 0x00, 0x00, 0x90, 0xc1,
   0x70, 0xc0, 0x00, 0x00, 0x00, 0x00, 0x30, 0x38, 0x1e, 0x8f, 0x01, 0x00,
   0x00, 0x00, 0xa0, 0x8f, 0xc3, 0x01, 0x01, 0x00, 0x00, 0x00, 0x20, 0xe0,
   0x78, 0x38, 0x03, 0x00, 0x00, 0x00, 0x20, 0x3c, 0x0e, 0x0f, 0x02, 0x00,
   0x00, 0x00, 0x20, 0x87, 0xc3, 0x61, 0x06, 0x00, 0x00, 0x00, 0x60, 0xf0,
   0x78, 0x3c, 0x0c, 0x00, 0x00, 0x00, 0x40, 0x0e, 0x0e, 0x87, 0x07, 0x00,
   0x00, 0x00, 0x40, 0xc0, 0xc3, 0xc1, 0x00, 0x00, 0x00, 0x00, 0xc0, 0x78,
   0x78, 0x78, 0x00, 0x00, 0x00, 0x00, 0x80, 0x08, 0x0e, 0x0c, 0x00, 0x00,
   0x00, 0x00, 0x80, 0xc0, 0x83, 0x07, 0x00, 0x00, 0x00, 0x00, 0x80, 0x71,
   0xe0, 0x00, 0x00, 0x00, 0x00, 0x00, 0x00, 0x01, 0x38, 0x00, 0x00, 0x00,
   0x00, 0x00, 0x00, 0x01, 0x0f, 0x00, 0x00, 0x00, 0x00, 0x00, 0x00, 0xe3,
   0x01, 0x00, 0x00, 0x00, 0x00, 0x00, 0x00, 0x3e, 0x00, 0x00, 0x00, 0x00,
   0x00, 0x00, 0x00, 0x00, 0x00, 0x00, 0x00, 0x00, 0x00, 0x00, 0x00, 0x00,
   0x00, 0x00, 0x00, 0x00, 0x00, 0x00, 0x00, 0x00, 0x00, 0x00, 0x00, 0x00,
   0x00, 0x00, 0x00, 0x00, 0x00, 0x00, 0x00, 0x00, 0x00, 0x00, 0x00, 0x00,
   0x00, 0x00, 0x00, 0x00, 0x00, 0x00, 0x00, 0x00, 0x00, 0x00, 0x00, 0x00};
