#define url_width 33
#define url_height 23
#define url_x_hot 1
#define url_y_hot 1
static unsigned char url_bits[] = {
   0x00, 0x00, 0x00, 0x00, 0x00, 0x02, 0x00, 0xf8, 0x03, 0x00, 0x06, 0x00,
   0xee, 0x0e, 0x00, 0x0e, 0x00, 0x77, 0x1c, 0x00, 0x1e, 0x80, 0x1f, 0x38,
   0x00, 0x3e, 0xc0, 0x0f, 0x6c, 0x00, 0x7e, 0xe0, 0x07, 0xf4, 0x00, 0xfe,
   0xe0, 0x05, 0xfe, 0x00, 0xfe, 0xf1, 0x00, 0xfe, 0x01, 0x3e, 0xd0, 0x00,
   0xfc, 0x01, 0x36, 0xb0, 0x01, 0xfc, 0x01, 0x62, 0x10, 0x0f, 0xe8, 0x01,
   0x60, 0x30, 0x1f, 0xf0, 0x01, 0xc0, 0x10, 0x3f, 0xfa, 0x01, 0xc0, 0x10,
   0x3e, 0xfd, 0x01, 0x00, 0x60, 0xbc, 0xfe, 0x00, 0x00, 0xa0, 0x1c, 0xff,
   0x00, 0x00, 0xc0, 0xcd, 0x7f, 0x00, 0x00, 0x80, 0xff, 0x3f, 0x00, 0x00,
   0x00, 0xff, 0x1f, 0x00, 0x00, 0x00, 0xfe, 0x0f, 0x00, 0x00, 0x00, 0xf8,
   0x03, 0x00, 0x00, 0x00, 0x00, 0x00, 0x00};
