/* XPM */
static char * image_name[] = {
"20 20 12 1",
" 	c None",
".	c #BDBDB5B5B5B5",
"X	c #A9A9A9A9A7A7",
"o	c #999996969696",
"O	c #8C8C8C8C8C8C",
"+	c #DEDEDADADADA",
"@	c #C7C7BFBFBFBF",
"#	c #8C8C84848484",
"$	c #7B7B7B7B7A7A",
"%	c #5A5A5A5A5A5A",
"&	c #4F4F52525252",
"*	c #424242424242",
"        ..XoO       ",
"      +@.XXo#$%     ",
"    ++@@.XoO$$%&    ",
"    ++@.XooO$$%&*   ",
"   ++@..XoO#$%%&**  ",
"  ++@..XoO#$%%&***% ",
"  +@..XXo#$$%&&**** ",
"  @@.XXoO$$$%&***** ",
" @@.XXoo#$$%&******$",
" @..XooO$$%%&******%",
" X.Xoo#$$%%&*******$",
"  Xoo#$$%%&******** ",
"  oo#$$$%&********* ",
"  OO$$$%&&********% ",
"   $$$%%&*********  ",
"    %%&&*********   ",
"    $&**********    ",
"      *********     ",
"        &***$       ",
"                    "};
