/* XPM */
static char * image_name[] = {
"48 48 213 2",
"  	c None",
". 	c #410334D31040",
"X 	c #59653CF31861",
"o 	c #514434D31040",
"O 	c #618545142081",
"+ 	c #69A645142081",
"@ 	c #71C655552081",
"# 	c #71C645142081",
"$ 	c #71C64D342081",
"% 	c #69A64D342081",
"& 	c #208120810000",
"* 	c #30C220811040",
"= 	c #514445142081",
"- 	c #8E38555528A2",
"; 	c #9E79659530C2",
": 	c #9E79555530C2",
"> 	c #9E795D7530C2",
", 	c #8E38555530C2",
"< 	c #79E7555528A2",
"1 	c #28A220810820",
"2 	c #30C228A20820",
"3 	c #410334D31861",
"4 	c #618541032081",
"5 	c #61854D342081",
"6 	c #79E74D3428A2",
"7 	c #79E75D7528A2",
"8 	c #A6996DB638E3",
"9 	c #A6995D7530C2",
"0 	c #A699659538E3",
"q 	c #AEBA6DB638E3",
"w 	c #A6995D7538E3",
"e 	c #9658555530C2",
"r 	c #8E38596530C2",
"t 	c #38E328A21040",
"y 	c #8E38659530C2",
"u 	c #AEBA659538E3",
"i 	c #AEBA75D64103",
"p 	c #AEBA659530C2",
"a 	c #AEBA6DB64103",
"s 	c #BEFB75D64103",
"d 	c #AEBA65954103",
"f 	c #B6DA6DB638E3",
"g 	c #96585D7530C2",
"h 	c #8E385D7530C2",
"j 	c #8E385D7528A2",
"k 	c #208118610820",
"l 	c #208110400000",
"z 	c #208120811040",
"x 	c #49243CF31861",
"c 	c #9658659530C2",
"v 	c #9658618538E3",
"b 	c #C71B75D64103",
"n 	c #C71B79E74924",
"m 	c #C71B7DF74924",
"M 	c #9E795D7538E3",
"N 	c #8617555528A2",
"B 	c #CF3C75D64103",
"V 	c #CF3C7DF74924",
"C 	c #CF3C8A285144",
"Z 	c #79E7514428A2",
"A 	c #A69969A64103",
"S 	c #B6DA6DB64103",
"D 	c #8E3820812081",
"F 	c #28A21C710820",
"G 	c #69A610401040",
"H 	c #71C610401040",
"J 	c #A699618538E3",
"K 	c #B6DA75D64103",
"L 	c #71C6492428A2",
"P 	c #208118610000",
"I 	c #28A220811040",
"U 	c #514400000000",
"Y 	c #618500000000",
"T 	c #71C634D32081",
"R 	c #9E7934D330C2",
"E 	c #38E310400000",
"W 	c #492410400820",
"Q 	c #514414510820",
"! 	c #30C210400820",
"~ 	c #410318610820",
"^ 	c #492434D31861",
"/ 	c #410328A21040",
"( 	c #51443CF31861",
") 	c #86175D7530C2",
"_ 	c #8617555530C2",
"` 	c #79E73CF32081",
"' 	c #861738E328A2",
"] 	c #618520811040",
"[ 	c #71C620811861",
"{ 	c #71C618611861",
"} 	c #61853CF31861",
"| 	c #38E328A20820",
" .	c #30C200000000",
"..	c #410300000000",
"X.	c #38E300000000",
"o.	c #104010400000",
"O.	c #596520811040",
"+.	c #8E3810401040",
"@.	c #69A628A21861",
"#.	c #492400000000",
"$.	c #596500000000",
"%.	c #71C600000000",
"&.	c #8E3800000000",
"*.	c #104000000000",
"=.	c #71C628A21861",
"-.	c #514418610820",
";.	c #410310400820",
":.	c #000000000000",
">.	c #AEBA00000000",
",.	c #BEFB00000000",
"<.	c #69A600000000",
"1.	c #410310400000",
"2.	c #514410400820",
"3.	c #D75C00000000",
"4.	c #79E718611861",
"5.	c #9E7900000000",
"6.	c #B6DA00000000",
"7.	c #514420811040",
"8.	c #38E334D31040",
"9.	c #38E310400820",
"0.	c #618545141861",
"q.	c #596520811861",
"w.	c #9E7928A228A2",
"e.	c #9E79659538E3",
"r.	c #9E79451430C2",
"t.	c #A69934D330C2",
"y.	c #B6DA4D344924",
"u.	c #D75C8A285144",
"i.	c #AEBA45144103",
"p.	c #BEFB55555144",
"a.	c #CF3C65956185",
"s.	c #71C64D3428A2",
"d.	c #71C6555528A2",
"f.	c #CF3C00000000",
"g.	c #DF7D00000000",
"h.	c #E79D9A696185",
"j.	c #FFFFAAAA71C6",
"k.	c #FFFFBAEA8E38",
"l.	c #E79DA28971C6",
"z.	c #DF7D8A285144",
"x.	c #DF7D75D671C6",
"c.	c #D75C6DB669A6",
"v.	c #EFBE9A696185",
"b.	c #EFBEAAAA71C6",
"n.	c #EFBEA28969A6",
"m.	c #DF7D9A696185",
"M.	c #F7DEAAAA71C6",
"N.	c #FFFFBAEA9E79",
"B.	c #FFFFA2896185",
"V.	c #FFFF8A2830C2",
"C.	c #CF3C6DB669A6",
"Z.	c #FFFFCB2BAEBA",
"A.	c #C71B7DF75144",
"S.	c #EFBEA28971C6",
"D.	c #E79DAAAA79E7",
"F.	c #A6993CF338E3",
"G.	c #9E794D3438E3",
"H.	c #96584D3430C2",
"J.	c #965828A228A2",
"K.	c #9E79618538E3",
"L.	c #D75C7DF74924",
"P.	c #D75C92485965",
"I.	c #8E3834D328A2",
"U.	c #69A628A21040",
"Y.	c #B6DA79E74924",
"T.	c #E79D92485965",
"R.	c #B6DA71C64103",
"E.	c #79E72CB22081",
"W.	c #8E38249228A2",
"Q.	c #9E7920812081",
"!.	c #79E708200820",
"~.	c #618510401040",
"^.	c #79E710401040",
"/.	c #596545141861",
"(.	c #69A64D3428A2",
").	c #8617596530C2",
"_.	c #8E3818611861",
"`.	c #79E714511861",
"'.	c #79E700000000",
"].	c #965804100000",
"[.	c #69A610400820",
"{.	c #596518610820",
"}.	c #71C610400820",
"|.	c #A69900000000",
" X	c #8E3808200820",
".X	c #9E7918611861",
"XX	c #69A608200820",
"oX	c #B6DA45144103",
"OX	c #9E792CB230C2",
"+X	c #965834D330C2",
"@X	c #96582CB230C2",
"#X	c #9E79249228A2",
"$X	c #A69920812081",
"%X	c #A6994D3438E3",
"&X	c #9E79410330C2",
"*X	c #AEBA34D330C2",
"=X	c #965820812081",
"-X	c #A6994D3430C2",
";X	c #C71B5D755965",
":X	c #C71B65954924",
">X	c #AEBA49244924",
",X	c #AEBA555538E3",
"<X	c #BEFB75D64924",
"1X	c #8617451428A2",
"2X	c #186130C230C2",
"3X	c #9658451428A2",
"4X	c #082010401040",
"5X	c #186100000000",
"6X	c #28A200000000",
"7X	c #410308200820",
"8X	c #38E308200820",
"9X	c #38E304100000",
"0X	c #28A204100000",
"                          . . X o O O + @ # $ @ # $ @ # % O o X O . .                           ",
"                          . . X o O O + @ # $ @ # $ @ # % O o X O . .                           ",
"                    & * X . = X # @ # - ; : > ; : > ; , < @ O X O . = X & *                     ",
"                  1 2 3 4 X 5 6 6 7 - > 8 9 0 q w 0 8 e r 7 % + % X 5 4 2 t 1                   ",
"                  1 . = O # @ > , y ; u i p a s d f i : g y @ 6 @ # @ O . . 1                   ",
"                  1 . . $ : ; h ; d p a s s s s s f i ; w ; : j , # @ O . . k                   ",
"              l z 1 . x < e c v > 0 p a s b n m s f i > M c - N < + % O . . k l z               ",
"              l z 1 . = h , y 0 : ; p a s B V C s f i : g y @ 6 @ O O O . . k l z               ",
"              l z k . = < , y 0 : ; p a s B V C s f i : g y @ 6 @ O O . & * 1 l z               ",
"              l z k . = Z , y v : ; 9 A s b n m S f i : g y @ 6 @ O O . & * 1 l z               ",
"              l z k . = 6 , y h : ; : 0 s s s s d f i : g y @ 6 @ O O . & * 1 l z               ",
"              l z k D D 6 , y h : ; : 0 s d S s d f i : g y @ 6 @ O O . & * 1 l z               ",
"              l z F G H 6 6 h h e c > J q u a K w 0 8 : g c % L @ + % . P I 1 l z               ",
"              l z 1 U Y 6 # , h , y ; w ; p q i : > ; : > ; O + @ # @ . l z 1 l z               ",
"              l z 1 U Y Y * . X o O , g ; , h y , h y @ 6 @ o T R # @ . & * . l z               ",
"              l z 1 E W Q ! ~ ^ / ( + < g , ) h < _ 7 ` ' ` ] [ { } % | & * . l z               ",
"              l z 1 & * t  ...t * . o % , , 7 , @ 6 @ D D D H G U o O 1 & * . l z               ",
"              l z . Y Y X. ...X.o.l * O.H O + @ O T R +.@.O U #.U . = $.o O . l z               ",
"              l z . Y Y X. ...X.o.l * O.H O + @ O T R +.@.O U #.U . = $.o O . l z               ",
"            S l z . o O X.%.&.X.o.l *.k . @ + O o =.D U -.. ..;.. & * &.o O . l z S             ",
"            S :.:.. # @ H >.,.<. .........o O.Y o O.Y U 1.* Y 2.. * . 3.# @ . :.:.S             ",
"            S :.:.. # @ H >.,.<. .........o O.Y o O.Y U 1.* Y 2.. * . 3.# @ . :.:.S             ",
"            h * . . # @ 4.5.5.6.&.&.%.$.... 7.Y & ;.Y . 8.* Y 2.. o O ,.# @ . * . h             ",
"            < * . . , y D 5.5.&.o O & 9.U H =.O O . * # 0.O +.q.. D R ,., y X * . <             ",
"            < * . . , y D 5.5.&.o O & 9.U H =.O O . * # 0.O +.q.. D R ,., y X * . <             ",
"            O o O X , y w.&.&.h , y & t = & 1 * , e.s : > ; R r.y , y t., y X o O O             ",
"            x o O X , y y.# , u.; d ; e , . . = & t . # g d C s d , y X , y < o O x             ",
"            x o O X , y y.# , u.; d ; e , . . = & t . # g d C s d , y X , y < o O x             ",
"              o O < i.p.a.O O 6 # , O X O O s.y , d.O o + , # 6 , O O &.d s < o O               ",
"              o O < s s a.f.g.O O O , q C C h.j.k.l.z.B a y O O O &.&.6.s s $ o O               ",
"              o O < s s a.f.g.O O O , q C C h.j.k.l.z.B a y O O O &.&.6.s s $ o O               ",
"              o O $ ; d y.a.x.c.v.b.b.n.v.m.M.N.k.B.V.m.n.j.x.C.p.N.Z.y.; d $ o O               ",
"                  $ , y h p.a.p.b.j.z.A.s C S.Z.N.D.z.d V m.p.y.p.m.v.F., y $                   ",
"                  $ , y h p.a.p.b.j.z.A.s C S.Z.N.D.z.d V m.p.y.p.m.v.F., y $                   ",
"                  $ ; d > R i.y.z.m.i.G.@ d C v.m.m d # H.p.R F.i.s s J.; d $                   ",
"                  O g e.K.w.F.F.L.P.R I.U.e Y.T.P.R.g ] E.i.w.R F.s s W.g e.O                   ",
"                  x , y 0 Q.R J.B C D { Y # 8 z.C u @ U G R Q.w.R s s D , y x                   ",
"                    @ , h +.D 4.p.p.Y !.5.U -.O o ] ~.5.5.5.D D D d s ^.@ ,                     ",
"                    /.(.).^._.`.y.y.'.].>.%.[.T {.}.!.|.|.5.R J.J.d s ^./.(.                    ",
"                    . = < H +.^.i.i.5.|.,.5. XD Y &.5.>.>.5.i.R R d s ^.. =                     ",
"                        ^.Y H ^.p.p.i.F.R i.p.a.a.p.i.D .X5.R R R : ; ^.                        ",
"                        ^.XX^.^.i.oXR OXJ.w.+XR +X@XR D #X$X%X&XR e c ^.                        ",
"                          H +.^.R *XD =XD +.G Y U XXD D R i.d -XR , y                           ",
"                              ^.D R i.J.D i.;Xx.a.;Xp.i.:XC ; r.R                               ",
"                              ^.4.=XR W.D J.i.;Xy.>XF.R ,X<X% 1X2X                              ",
"                                H +.D D D H J.i.R R D D 3Xd . =                                 ",
"                                      U U +.G Y U XX+.H 4X                                      ",
"                                      5X6X7X8X .6X9X7X8X0X                                      "};
