/* XPM */
static char * image_name[] = {
"48 48 82 1",
" 	c None",
".	c #9E79618538E3",
"X	c #CF3C82075144",
"o	c #BEFB79E74924",
"O	c #B6DA71C64924",
"+	c #F7DEAAAA79E7",
"@	c #E79D9A6969A6",
"#	c #DF7D92486185",
"$	c #71C6514428A2",
"%	c #79E7555530C2",
"&	c #FFFFC71BA699",
"*	c #FFFFBAEA9658",
"=	c #8E385D7538E3",
"-	c #FFFFB2CA8617",
";	c #FFFF79E779E7",
":	c #28A255551861",
">	c #E79D00000000",
",	c #EFBEA28971C6",
"<	c #FFFFBEFB9E79",
"1	c #FFFF9A699E79",
"2	c #38E338E338E3",
"3	c #410345144103",
"4	c #A69969A64103",
"5	c #514451445144",
"6	c #596559655965",
"7	c #618508200820",
"8	c #208124922081",
"9	c #28A228A228A2",
"0	c #38E33CF338E3",
"q	c #492449244924",
"w	c #30C230C230C2",
"e	c #B6DA51445144",
"r	c #9E7934D330C2",
"t	c #AEBA79E72081",
"y	c #596555555965",
"u	c #D75C5D750820",
"i	c #F7DE71C61861",
"p	c #861745140820",
"a	c #965830C230C2",
"s	c #861720812081",
"d	c #69A610401040",
"f	c #18611C711861",
"g	c #8E3824922081",
"h	c #8E382CB228A2",
"j	c #104014511040",
"k	c #30C22CB21040",
"l	c #69A6492428A2",
"z	c #AEBA6DB64103",
"x	c #492438E31861",
"c	c #08200C300820",
"v	c #79E71C711861",
"b	c #8617555530C2",
"n	c #DF7D86178617",
"m	c #D75C8A285965",
"M	c #618545142081",
"N	c #A6993CF338E3",
"B	c #BEFB55555965",
"V	c #AEBA49244924",
"C	c #28A224921040",
"Z	c #69A669A669A6",
"A	c #69A66DB669A6",
"S	c #618561856185",
"D	c #A69941034103",
"F	c #71C618611861",
"G	c #514441032081",
"H	c #410330C21861",
"J	c #69A60C300820",
"K	c #BEFB59655965",
"L	c #514408200820",
"P	c #C71B61856185",
"I	c #20812CB21040",
"U	c #38E3410328A2",
"Y	c #CF3C69A669A6",
"T	c #30C238E32081",
"R	c #596508200820",
"E	c #71C614511040",
"W	c #514400000000",
"Q	c #208118610820",
"!	c #186110400820",
"~	c #104018610000",
"^	c #186120810820",
"/	c #000000000000",
"                  .XXXo.                        ",
"                 .O++@#$.                       ",
"                 %X&&&+X%                       ",
"                 %O+*+*O=                       ",
"                -#;:+:>;#-                      ",
"                Xo-,<,1-oX                      ",
"               23$4#o#,4$                       ",
"              235$o676@o$89                     ",
"           03qqw294eret48w3029                  ",
"         805y65399wuitpw8923309                 ",
"        805q0qwqa3sdffds000929w9    82          ",
"        80q30w0q5a3gsahhs20ffww8   2q28         ",
"        j88wwj8w0gagsarh2wwklzzx82508c          ",
"        %4#X4kcwwggvdvsg998l=wwqqbbc            ",
"        4n<+mMcc8w8fdfkw8ccw0qMNBVM             ",
"       $On<+O$cccc77C8f05ZAq$bBBNNC             ",
"       $O#*X$kcc8ffw805SAS5xbDDahF              ",
"       G90o+o$Hffx=Sy35www98CvJJ7d              ",
"       f9=,<,zxfxKD32www9ff  ffLL               ",
"       fwz#nPm4b$Drw89ff88IU                    ",
"       ff.ennYVKeahhs08xIITU                    ",
"        flboPPPVaddRR8MxIITU                    ",
"         CH$beNrv777LjHC889                     ",
"         CCH9EEddWWW9890C99w                    ",
"          CHQ!99~^I^^20002923                   ",
"           !j92q2~~~99202222k                   ",
"            f222929j9990v2v2k                   ",
"            j299vd9j92vggg902                   ",
"            j992dLfc9k9ddEE02                   ",
"             f997L990v2ggEEq                    ",
"             jkL9L9222hDagF                     ",
"              cL99fcv5q2q50                     ",
"              cfffLf08222w0                     ",
"              cccccc82q5q28                     ",
"               cccccf8w2wvv                     ",
"               cccccjf888fk                     ",
"                cccc/ccjjc/                     ",
"                  cffw230w9                     ",
"                   ff89ww8f                     ",
"                   cf99ww9f                     ",
"                   cffv9v8f                     ",
"                  jcfJsv99J                     ",
"                  ccfvhNNhx                     ",
"                  cc8RJFFJf                     ",
"                   cRlNNNr8                     ",
"                    lhrDrhM                     ",
"                    0xhhhx0                     ",
"                     wwCCww                     "};
