#define chaos_width 48
#define chaos_height 48
static unsigned char chaos_bits[] = {
   0x08, 0x80, 0x00, 0x00, 0x00, 0x00, 0x1c, 0x40, 0x01, 0x00, 0x00, 0x00,
   0x0e, 0x20, 0x02, 0x08, 0x00, 0x00, 0x1f, 0x40, 0x01, 0x14, 0x00, 0x00,
   0x3a, 0xa0, 0x00, 0x22, 0x00, 0x00, 0x70, 0x10, 0x00, 0x41, 0x00, 0x00,
   0xe0, 0x08, 0x80, 0x80, 0x00, 0x00, 0xc0, 0x05, 0x40, 0x00, 0x01, 0x00,
   0x80, 0x03, 0x20, 0x00, 0x02, 0x00, 0x00, 0x07, 0x40, 0x00, 0x01, 0x00,
   0x00, 0x0e, 0x80, 0x80, 0x00, 0x00, 0x08, 0x1e, 0x00, 0x41, 0x00, 0x00,
   0x14, 0x39, 0x80, 0x22, 0x00, 0x00, 0xa2, 0x70, 0x40, 0x14, 0x00, 0x00,
   0x41, 0xe0, 0x20, 0x08, 0x00, 0x00, 0x82, 0xc0, 0x11, 0x00, 0x00, 0x00,
   0x04, 0x81, 0x0b, 0x80, 0x00, 0x00, 0x08, 0x02, 0x07, 0x40, 0x01, 0x00,
   0x10, 0x01, 0x0e, 0x20, 0x02, 0x00, 0xa0, 0x00, 0x1c, 0x40, 0x01, 0x00,
   0x40, 0x00, 0x38, 0xa0, 0x08, 0x00, 0x00, 0x00, 0x70, 0x10, 0x14, 0x00,
   0x00, 0x00, 0xe0, 0x08, 0x22, 0x00, 0x00, 0x00, 0xc0, 0x05, 0x14, 0x01,
   0x00, 0x20, 0xa0, 0x03, 0x8a, 0x02, 0x00, 0x50, 0x10, 0x07, 0x41, 0x04,
   0x00, 0x88, 0x08, 0x8e, 0x20, 0x08, 0x00, 0x04, 0x05, 0x5c, 0x40, 0x10,
   0x00, 0x02, 0x02, 0x38, 0x80, 0x08, 0x00, 0x01, 0x04, 0x70, 0x40, 0x05,
   0x80, 0x00, 0x08, 0xe0, 0x20, 0x22, 0x40, 0x00, 0x10, 0xc0, 0x11, 0x50,
   0x80, 0x00, 0x20, 0x80, 0x0b, 0x88, 0x00, 0x01, 0x10, 0x00, 0x07, 0x50,
   0x00, 0x02, 0x08, 0x80, 0x0e, 0x28, 0x01, 0x04, 0x04, 0x40, 0x1c, 0x04,
   0x03, 0x0a, 0x02, 0x20, 0x38, 0x02, 0x07, 0x11, 0x01, 0x14, 0x70, 0x01,
   0x8e, 0xa0, 0x00, 0x0a, 0xe8, 0x00, 0x5c, 0x40, 0x00, 0x11, 0xc4, 0x01,
   0x3a, 0x00, 0x00, 0x0a, 0x82, 0x03, 0x71, 0x00, 0x00, 0x44, 0x01, 0x07,
   0xe0, 0x00, 0x00, 0xa0, 0x00, 0x0e, 0xc0, 0x01, 0x00, 0x10, 0x01, 0x5c,
   0x80, 0x03, 0x00, 0xa0, 0x00, 0xf8, 0x00, 0x07, 0x00, 0x40, 0x00, 0x70,
   0x80, 0x0e, 0x00, 0x00, 0x00, 0x38, 0x40, 0x1c, 0x00, 0x00, 0x00, 0x10 };
