/* XPM */
static char * image_name[] = {
"20 20 20 1",
" 	c None",
".	c #101010101010",
"X	c #A9A9A9A9A7A7",
"o	c #BDBDB5B5B5B5",
"O	c #C7C7BFBFBFBF",
"+	c #A2A29C9C9A9A",
"@	c #8C8C8C8C8C8C",
"#	c #7B7B7B7B7A7A",
"$	c #5A5A5A5A5A5A",
"%	c #DEDEDADADADA",
"&	c #999996969696",
"*	c #393939393636",
"=	c #FCFCF9F9F3F3",
"-	c #000000000000",
";	c #292929292929",
":	c #8C8C84848484",
">	c #292931313131",
",	c #4F4F52525252",
"<	c #181818181818",
"1	c #FFFFFFFFFFFF",
"     .XoOXX+@#$     ",
"    +%OOoXXXX&@#*   ",
"   &=OX$-.-.;#+:$>  ",
"  X=o:,<+===@>$&@,* ",
"  =%X<,O%O&+O&,,+#, ",
";XO+,O1OXX+&&&#,#+#>",
";OO#;%OoXX+XXX@,#@#>",
"OOo;XOoooo++&++,*:&*",
"OoX;=XXXXX&+++++<&+,",
"XoX<=XoXX+&@&@&&.X&>",
"&@X<=XOX+&+X&&&@.X@<",
"&@X,++&&+&&++&&>,O:;",
"<$+#$+++++&+&@@>%X#<",
"<,@+$#:&+++@@#-O%&*<",
"  $@@$$$:&&@#>*%&#< ",
"  *,@@##*<<.,OO@#;  ",
"   >,@+:&&XOOX@,;   ",
"    ;>$#&++@:#*.    ",
"      <;;><<<.      ",
"        <<-<        "};
