/* XPM */
static char * image_name[] = {
"20 20 12 1",
" 	c None",
".	c #C7C7BFBFBFBF",
"X	c #DEDEDADADADA",
"o	c #BDBDB5B5B5B5",
"O	c #A9A9A9A9A7A7",
"+	c #999996969696",
"@	c #8C8C84848484",
"#	c #7B7B7B7B7A7A",
"$	c #8C8C8C8C8C8C",
"%	c #5A5A5A5A5A5A",
"&	c #424242424242",
"*	c #4F4F52525252",
"             ...    ",
"          XXX..oooO ",
"       ...OOOOOoooo ",
"     OO++++OOOOoooO ",
"    @#@#$++OOOo...O ",
"  %%%##@++O...XX..$ ",
"  %%#@+OOo..XXXX.O  ",
"  $+OO..XXXXXXXX.$  ",
"  OO...XXXXXXXXX.   ",
"    ..XXXXXXXXX..   ",
"     O.XXXXXXXX.O   ",
"      ..XXXXXXXo#   ",
"        .XXXX..$    ",
"        $.....O%    ",
"         $OoO+@%    ",
"           ##%&     ",
"            &&&     ",
"             &*     ",
"                    ",
"                    "};
