/* XPM */
static char * image_name[] = {
"48 48 4 1",
" 	c #FFFFFFFFFFFF",
".	c #000000000000",
"X	c #514455555144",
"o	c #AEBAAAAAAEBA",
"                                                ",
" .............................................. ",
" ............. ........... .................... ",
" ............. ........... ........ ........... ",
" ............. ........... ........ ........... ",
" .............. .......... ....... ............ ",
" ............... ........ ........ ............ ",
" .... .......... ........ ........ ..... ...... ",
" ..... ......... ........ ....... ..... ....... ",
" ...... ........ ......... ...... ..... ....... ",
" ....... ........ ........ ..... ...... ....... ",
" ....... ........ ........ ..... ..... ........ ",
" ........ ........ ....... ..... ..... ........ ",
" ......... ....... ........ .... .... ......... ",
" .......... ...... ........ .... .... ......... ",
" ........... ...... ....... .... ... .......... ",
" ............ ...... ..... ..... ... .......... ",
" . ........... ...... .... ..... ... .......... ",
" ..  .......... ..... .... .... ... ........ .. ",
" ....  ......... .... .... ... .... ......  ... ",
" ......  ....... .... ............ ...... ..... ",
" ........  ......  .....X.X....... ..... ...... ",
" .......... .......... .. X. .X... .... ....... ",
" ...........  .....X... .  . .. ...... ........ ",
" ............. ...  X X X       . ... ......... ",
" ................                  .........  . ",
" .    ..........                    ......  ... ",
" .....   .......                    ....  ..... ",
" ........   ...                      .. ....... ",
" ..............                      .......... ",
" .............                       ........ . ",
" .............                        .....  .. ",
" .............                        ..   .... ",
" .  ....    ..                        ......... ",
" ...    ......                        ......... ",
" .............              XXXX      ......... ",
" .......... ..    XXX      Xo.. .     ......... ",
" ........  ...    ...X     . .. .     ..     .. ",
" .....   .....  X X.XX      XX.       ....... . ",
" ...  .......    XXXX                   ....... ",
" .  ..........                        X ....... ",
" ............ X        . .X          X  ....... ",
" ............ X                      X  ....... ",
" ............oo                      . o....... ",
" ............o                      o  o....... ",
" .............        XX...X           ........ ",
" ...............     ..    ..      .  ......... ",
"               .                   ....         "};
