/* XPM */
static char * image_name[] = {
"48 48 16 1",
" 	c None",
".	c #000000000000",
"X	c #10408617FFFF",
"o	c #1040208179E7",
"O	c #000059650000",
"+	c #514455555144",
"@	c #000024920000",
"#	c #FFFFFFFFFFFF",
"$	c #C71B8E385965",
"%	c #492434D32081",
"&	c #514414510820",
"*	c #79E70C300820",
"=	c #FFFF18614103",
"-	c #CF3C96582081",
";	c #51443CF31040",
":	c #FFFFE79D1040",
"                     .X.Xo...                   ",
"                    ..X.Xo.....                 ",
"                    .oX.X.....  O               ",
"                    .oX.X.....  OO              ",
"                    .oX.X....    O              ",
"                    .X.Xo....    O              ",
"                 ......Xo...  OO O              ",
"                ..+++....... OOOOO              ",
"                 .............. @O  OOOOOOOO    ",
"                 O@@@@ @..   OOOOOOOOOOOOOOO    ",
"                OOO..@O.##.      OO     OOOO    ",
"                OO.##.$$..$$$$        OOOOO     ",
"              $$$$....$$$%%%%%$$    OOOOO       ",
"             $$$$$$..$$$%%%$$$$$ OOOOOO         ",
"            $$$$$$$$$$%%$$$$$$$OOOOO            ",
"            $$$$$%$$$$$$$$$%%OOOOO        OOO   ",
"             $$$%$%&&&$$$**$$@@        OOOOOO   ",
"             O$$$$$&&&&**===$OOO     OOOOOOOO   ",
"             OOOO$$$&&=======OOO   OOOOOO@OO    ",
"              OOOO$$$$=======OOO  OOOOOO@OOO    ",
"               OOO$$$$$$*=====OO OOOOOO@OOO     ",
"                OOO$$$$$$**====OOOOOOO@OO       ",
"                 OOO$$$$$$$*===O$$OO  OO        ",
"                  OOO$$$$$$$$===$$   OO         ",
"                  OOO$$$$%$$$$$$$$  OO          ",
"                   OOO$$$$$%%$%$$  OOO  OOO     ",
"                   OOO$$$$$$$$$   OOOOOOOOOOOO  ",
"                    OOO$$$$$$$$  OOOOOOOOOO@@O  ",
"                     OO$$$$$$$$      OOOOOOOO   ",
"                 OOO  OO$$$$$$$         OOO@O   ",
"                   @OO O$$$$$$           OOO    ",
"   --;--         -;OOOOO@@$$$                   ",
"       -;--;--;-   O--OO@OOOO                   ",
"               --;--;OO OOOO                    ",
"                    O    OOO                    ",
"                         OOO                    ",
"                         OOO                    ",
"                         OOO                    ",
"                         @OO                    ",
"                  OOOOOOOOOO                    ",
"                 OOO  OOOOOO                    ",
"                OOO                             ",
"       :::::::::OOOO:::::::::                   ",
"    ::::::::::::OOOO::::::::::::                ",
"  ::::::::::::::OOOOO:::::::::::::              ",
"  ::::::::::::::OO@@O@OO::::::::::              ",
"    ::::::::::::OOOO@O::::::::::                ",
"       ::::::::::::::::::::::                   "};
