#define cdromicon_width 64
#define cdromicon_height 64
static unsigned char cdromicon_bits[] = {
   0x00, 0x00, 0x00, 0x00, 0x00, 0x00, 0x00, 0x00, 0x00, 0x00, 0x00, 0x00,
   0x00, 0x00, 0x00, 0x00, 0x00, 0x00, 0x00, 0x00, 0x00, 0x00, 0x00, 0x00,
   0x00, 0x00, 0x00, 0x00, 0x00, 0x00, 0x00, 0x00, 0x00, 0x00, 0x00, 0x00,
   0x00, 0x00, 0x00, 0x00, 0x00, 0x00, 0x00, 0x00, 0x00, 0x00, 0x00, 0x00,
   0x00, 0x80, 0xff, 0xff, 0xff, 0xff, 0x00, 0x00, 0x00, 0x40, 0x00, 0xf8,
   0x0f, 0x00, 0x01, 0x00, 0x00, 0xa0, 0x3f, 0x0e, 0x38, 0xfe, 0x02, 0x00,
   0x00, 0xa0, 0x80, 0xf1, 0xc7, 0x80, 0x06, 0x00, 0x00, 0xa0, 0x60, 0x0e,
   0x38, 0x83, 0x06, 0x00, 0x00, 0xa0, 0xb0, 0x01, 0xc0, 0x86, 0x06, 0x00,
   0x00, 0xa0, 0xd8, 0x00, 0x80, 0x8d, 0x06, 0x00, 0x00, 0xa0, 0x2c, 0x00,
   0x00, 0x9a, 0x06, 0x00, 0x00, 0xa0, 0x14, 0x00, 0x00, 0x94, 0x06, 0x00,
   0x00, 0xa0, 0x1a, 0x00, 0x00, 0xac, 0x06, 0x00, 0x00, 0x20, 0x0a, 0x00,
   0x00, 0x28, 0x06, 0x00, 0x00, 0x20, 0x05, 0x00, 0x00, 0x50, 0x06, 0x00,
   0x00, 0x20, 0x05, 0xe0, 0x03, 0x50, 0x06, 0x00, 0x00, 0xa0, 0x05, 0x10,
   0x04, 0xd0, 0x06, 0x00, 0x00, 0xa0, 0x02, 0x08, 0x08, 0xa0, 0x06, 0x00,
   0x00, 0xa0, 0x02, 0x04, 0x10, 0xa0, 0x06, 0x00, 0x00, 0xa0, 0x02, 0x04,
   0x10, 0xa0, 0x06, 0x00, 0x00, 0xa0, 0x02, 0x04, 0x10, 0xa0, 0x06, 0x00,
   0x00, 0xa0, 0x02, 0x04, 0x10, 0xa0, 0x06, 0x00, 0x00, 0xa0, 0x02, 0x04,
   0x10, 0xa0, 0x06, 0x00, 0x00, 0xa0, 0x02, 0x08, 0x08, 0xa0, 0x06, 0x00,
   0x00, 0xa0, 0x05, 0x10, 0x04, 0xd0, 0x06, 0x00, 0x00, 0x20, 0x05, 0xe0,
   0x03, 0x50, 0x06, 0x00, 0x00, 0x20, 0x05, 0x00, 0x00, 0x50, 0x06, 0x00,
   0x00, 0x20, 0x0a, 0x00, 0x00, 0x28, 0x06, 0x00, 0x00, 0xa0, 0x1a, 0x00,
   0x00, 0xac, 0x06, 0x00, 0x00, 0xa0, 0x14, 0x00, 0x00, 0x94, 0x06, 0x00,
   0x00, 0xa0, 0x2c, 0x00, 0x00, 0x9a, 0x06, 0x00, 0x00, 0xa0, 0xd8, 0x00,
   0x80, 0x8d, 0x06, 0x00, 0x00, 0xa0, 0xb0, 0x01, 0xc0, 0x86, 0x06, 0x00,
   0x00, 0xa0, 0x61, 0x0e, 0x38, 0xc3, 0x06, 0x00, 0x00, 0x20, 0x81, 0xf1,
   0xc7, 0x40, 0x06, 0x00, 0x00, 0x20, 0xff, 0xff, 0xff, 0x7f, 0x06, 0x00,
   0x00, 0x20, 0x01, 0x00, 0x00, 0x40, 0x06, 0x00, 0x00, 0x20, 0x01, 0x00,
   0x00, 0x40, 0x06, 0x00, 0x00, 0x60, 0x01, 0x00, 0x00, 0x40, 0x07, 0x00,
   0x00, 0x40, 0x80, 0xff, 0xff, 0x00, 0x07, 0x00, 0x00, 0x80, 0xff, 0x00,
   0x80, 0xff, 0x03, 0x00, 0x00, 0x00, 0xff, 0xff, 0xff, 0xff, 0x01, 0x00,
   0x00, 0x00, 0x00, 0xff, 0xff, 0x01, 0x00, 0x00, 0x00, 0x00, 0x00, 0x00,
   0x00, 0x00, 0x00, 0x00, 0x00, 0x00, 0x00, 0x00, 0x00, 0x00, 0x00, 0x00,
   0x00, 0x00, 0x00, 0x00, 0x00, 0x00, 0x00, 0x00, 0x00, 0x00, 0x00, 0x00,
   0x00, 0x00, 0x00, 0x00, 0x00, 0x00, 0x00, 0x00, 0x00, 0x00, 0x00, 0x00,
   0x00, 0x00, 0x00, 0x00, 0x00, 0x00, 0x00, 0x00, 0x00, 0x00, 0x00, 0x00,
   0x00, 0x00, 0x00, 0x00, 0x00, 0x00, 0x00, 0x00, 0x00, 0x00, 0x00, 0x00,
   0x00, 0x00, 0x00, 0x00, 0x00, 0x00, 0x00, 0x00, 0x00, 0x00, 0x00, 0x00,
   0x00, 0x00, 0x00, 0x00, 0x00, 0x00, 0x00, 0x00, 0x00, 0x00, 0x00, 0x00,
   0x00, 0x00, 0x00, 0x00, 0x00, 0x00, 0x00, 0x00, 0x00, 0x00, 0x00, 0x00,
   0x00, 0x00, 0x00, 0x00, 0x00, 0x00, 0x00, 0x00, 0x00, 0x00, 0x00, 0x00,
   0x00, 0x00, 0x00, 0x00, 0x00, 0x00, 0x00, 0x00, 0x00, 0x00, 0x00, 0x00,
   0x00, 0x00, 0x00, 0x00, 0x00, 0x00, 0x00, 0x00, 0x00, 0x00, 0x00, 0x00,
   0x00, 0x00, 0x00, 0x00, 0x00, 0x00, 0x00, 0x00};
