#define dragmultiicon_width 38
#define dragmultiicon_height 38
static unsigned char dragmultiicon_bits[] = {
   0x00, 0x00, 0x00, 0x00, 0x00, 0x00, 0x00, 0x00, 0x00, 0x00, 0x00, 0x00,
   0x00, 0x00, 0x00, 0x80, 0xff, 0xff, 0x03, 0x00, 0x80, 0x00, 0x00, 0x04,
   0x00, 0xc0, 0xff, 0xff, 0x08, 0x00, 0x40, 0x00, 0x00, 0x11, 0x00, 0xe0,
   0xff, 0x3f, 0x22, 0x00, 0x20, 0x00, 0x50, 0x64, 0x00, 0x20, 0x00, 0x90,
   0x68, 0x00, 0x20, 0x00, 0x10, 0x69, 0x00, 0x20, 0x00, 0x10, 0x6a, 0x00,
   0x20, 0x00, 0xf0, 0x6b, 0x00, 0x20, 0x00, 0x00, 0x6a, 0x00, 0x20, 0x00,
   0x00, 0x6a, 0x00, 0x20, 0x00, 0x00, 0x6a, 0x00, 0x20, 0x00, 0x00, 0x6a,
   0x00, 0x20, 0x00, 0x00, 0x6a, 0x00, 0x20, 0x00, 0x00, 0x6a, 0x00, 0x20,
   0x00, 0x00, 0x6a, 0x00, 0x20, 0x00, 0x00, 0x6a, 0x00, 0x20, 0x00, 0x00,
   0x6a, 0x00, 0x20, 0x00, 0x00, 0x6a, 0x00, 0x20, 0x00, 0x00, 0x6a, 0x00,
   0x20, 0x00, 0x00, 0x6a, 0x00, 0x20, 0x00, 0x00, 0x6a, 0x00, 0x20, 0x00,
   0x00, 0x6a, 0x00, 0x20, 0x00, 0x00, 0x6a, 0x00, 0x20, 0x00, 0x00, 0x6a,
   0x00, 0x20, 0x00, 0x00, 0x6a, 0x00, 0x20, 0x00, 0x00, 0x6a, 0x00, 0x20,
   0x00, 0x00, 0x6a, 0x00, 0x20, 0x00, 0x00, 0x7a, 0x00, 0x20, 0x00, 0x00,
   0x7e, 0x00, 0x20, 0x00, 0x00, 0x1e, 0x00, 0xe0, 0xff, 0xff, 0x07, 0x00,
   0xc0, 0xff, 0xff, 0x07, 0x00, 0x00, 0x00, 0x00, 0x00, 0x00};
