#define folderviewmask_width 64
#define folderviewmask_height 64
static unsigned char folderviewmask_bits[] = {
   0x00, 0x00, 0x00, 0x00, 0x00, 0x00, 0x00, 0x00, 0x00, 0x00, 0x00, 0x00,
   0x00, 0x00, 0x00, 0x00, 0x00, 0x00, 0x00, 0x00, 0x00, 0x00, 0x00, 0x00,
   0x00, 0x00, 0x00, 0x00, 0x00, 0x00, 0x00, 0x00, 0x00, 0x00, 0x00, 0x00,
   0x00, 0x00, 0x00, 0x00, 0x00, 0x00, 0x00, 0x00, 0x00, 0x00, 0x00, 0x00,
   0x00, 0x00, 0x00, 0x00, 0x00, 0x00, 0x00, 0x00, 0x00, 0x00, 0x00, 0x00,
   0x00, 0x0f, 0x00, 0x00, 0x00, 0x00, 0x00, 0x00, 0xf0, 0x3f, 0x00, 0x00,
   0x00, 0x00, 0x00, 0x00, 0xf8, 0x7f, 0x00, 0x00, 0x00, 0x00, 0x00, 0x00,
   0xf8, 0x7f, 0x00, 0x00, 0x00, 0x00, 0x00, 0x00, 0xfc, 0x7f, 0x00, 0x00,
   0x00, 0x00, 0x00, 0x00, 0xfa, 0x7f, 0x00, 0x00, 0x00, 0x00, 0x80, 0x07,
   0xf9, 0x7f, 0x00, 0x00, 0x00, 0x00, 0xf8, 0x9f, 0xf8, 0x7f, 0x00, 0x00,
   0x00, 0x00, 0xfc, 0x7f, 0xf0, 0x3f, 0x00, 0x00, 0x00, 0x00, 0xfc, 0x3f,
   0x00, 0x00, 0x00, 0x00, 0x00, 0x00, 0xfc, 0x3f, 0x00, 0x00, 0x00, 0x00,
   0x00, 0x00, 0xfc, 0x3f, 0x00, 0x00, 0x00, 0x00, 0x00, 0x00, 0xfe, 0x7f,
   0x00, 0x00, 0x00, 0x00, 0xc0, 0x03, 0xfd, 0xbf, 0x00, 0x0f, 0x00, 0x1e,
   0xfc, 0x8f, 0xf8, 0x1f, 0xf1, 0x3f, 0xe0, 0x7f, 0xfe, 0x9f, 0x00, 0x00,
   0xfa, 0x7f, 0xf0, 0xff, 0xfe, 0x5f, 0x00, 0x00, 0xfc, 0x7f, 0xf0, 0xff,
   0xfe, 0x3f, 0x00, 0x00, 0xf8, 0xff, 0xff, 0xff, 0xfe, 0x5f, 0x00, 0x00,
   0xf8, 0x7f, 0xf0, 0xff, 0xfe, 0x9f, 0x80, 0x07, 0xf8, 0x7f, 0xf0, 0xff,
   0xfe, 0x1f, 0xf9, 0x1f, 0xf8, 0x7f, 0xf0, 0xff, 0xfc, 0x0f, 0xfd, 0x3f,
   0xf0, 0x3f, 0xe0, 0x7f, 0x00, 0x00, 0xfe, 0x3f, 0x00, 0x00, 0x00, 0x00,
   0x00, 0x00, 0xfc, 0x3f, 0x00, 0x00, 0x00, 0x00, 0x00, 0x00, 0xfc, 0x3f,
   0x00, 0x00, 0x00, 0x00, 0x00, 0x00, 0xfc, 0xff, 0x01, 0x00, 0x00, 0x00,
   0x00, 0x00, 0xfc, 0x3f, 0x1e, 0x00, 0x00, 0x00, 0x00, 0x00, 0xf8, 0x1f,
   0xe0, 0x00, 0x00, 0x1e, 0x00, 0x00, 0x00, 0x00, 0x00, 0x07, 0xe0, 0x7f,
   0x00, 0x00, 0x00, 0x00, 0x00, 0x78, 0xf0, 0xff, 0x00, 0x00, 0x00, 0x00,
   0x00, 0x80, 0xf3, 0xff, 0x00, 0x00, 0x00, 0x00, 0x00, 0x00, 0xfc, 0xff,
   0x00, 0x00, 0x00, 0x00, 0x00, 0x00, 0xf0, 0xff, 0x00, 0x00, 0x00, 0x00,
   0x00, 0x00, 0xf0, 0xff, 0x00, 0x00, 0x00, 0x00, 0x00, 0x00, 0xf0, 0xff,
   0x00, 0x00, 0x00, 0x00, 0x00, 0x00, 0xe0, 0x7f, 0x00, 0x00, 0x00, 0x00,
   0x00, 0x00, 0x00, 0x00, 0x00, 0x00, 0x00, 0x00, 0x00, 0x00, 0x00, 0x00,
   0x00, 0x00, 0x00, 0x00, 0x00, 0x00, 0x00, 0x00, 0x00, 0x00, 0x00, 0x00,
   0x00, 0x00, 0x00, 0x00, 0x00, 0x00, 0x00, 0x00, 0x00, 0x00, 0x00, 0x00,
   0x00, 0x00, 0x00, 0x00, 0x00, 0x00, 0x00, 0x00, 0x00, 0x00, 0x00, 0x00,
   0x00, 0x00, 0x00, 0x00, 0x00, 0x00, 0x00, 0x00, 0x00, 0x00, 0x00, 0x00,
   0x00, 0x00, 0x00, 0x00, 0x00, 0x00, 0x00, 0x00, 0x00, 0x00, 0x00, 0x00,
   0x00, 0x00, 0x00, 0x00, 0x00, 0x00, 0x00, 0x00, 0x00, 0x00, 0x00, 0x00,
   0x00, 0x00, 0x00, 0x00, 0x00, 0x00, 0x00, 0x00, 0x00, 0x00, 0x00, 0x00,
   0x00, 0x00, 0x00, 0x00, 0x00, 0x00, 0x00, 0x00, 0x00, 0x00, 0x00, 0x00,
   0x00, 0x00, 0x00, 0x00, 0x00, 0x00, 0x00, 0x00, 0x00, 0x00, 0x00, 0x00,
   0x00, 0x00, 0x00, 0x00, 0x00, 0x00, 0x00, 0x00, 0x00, 0x00, 0x00, 0x00,
   0x00, 0x00, 0x00, 0x00, 0x00, 0x00, 0x00, 0x00, 0x00, 0x00, 0x00, 0x00,
   0x00, 0x00, 0x00, 0x00, 0x00, 0x00, 0x00, 0x00, 0x00, 0x00, 0x00, 0x00,
   0x00, 0x00, 0x00, 0x00, 0x00, 0x00, 0x00, 0x00};
