#define folderviewicon_width 64
#define folderviewicon_height 64
static unsigned char folderviewicon_bits[] = {
   0x00, 0x00, 0x00, 0x00, 0x00, 0x00, 0x00, 0x00, 0x00, 0x00, 0x00, 0x00,
   0x00, 0x00, 0x00, 0x00, 0x00, 0x00, 0x00, 0x00, 0x00, 0x00, 0x00, 0x00,
   0x00, 0x00, 0x00, 0x00, 0x00, 0x00, 0x00, 0x00, 0x00, 0x00, 0x00, 0x00,
   0x00, 0x00, 0x00, 0x00, 0x00, 0x00, 0x00, 0x00, 0x00, 0x00, 0x00, 0x00,
   0x00, 0x00, 0x00, 0x00, 0x00, 0x00, 0x00, 0x00, 0x00, 0x00, 0x00, 0x00,
   0x00, 0x0f, 0x00, 0x00, 0x00, 0x00, 0x00, 0x00, 0xf0, 0x30, 0x00, 0x00,
   0x00, 0x00, 0x00, 0x00, 0x08, 0x60, 0x00, 0x00, 0x00, 0x00, 0x00, 0x00,
   0x08, 0x60, 0x00, 0x00, 0x00, 0x00, 0x00, 0x00, 0x0c, 0x60, 0x00, 0x00,
   0x00, 0x00, 0x00, 0x00, 0x0a, 0x60, 0x00, 0x00, 0x00, 0x00, 0x80, 0x07,
   0x09, 0x60, 0x00, 0x00, 0x00, 0x00, 0x78, 0x98, 0xf8, 0x7f, 0x00, 0x00,
   0x00, 0x00, 0x04, 0x70, 0xf0, 0x3f, 0x00, 0x00, 0x00, 0x00, 0x04, 0x30,
   0x00, 0x00, 0x00, 0x00, 0x00, 0x00, 0x04, 0x30, 0x00, 0x00, 0x00, 0x00,
   0x00, 0x00, 0x04, 0x30, 0x00, 0x00, 0x00, 0x00, 0x00, 0x00, 0x06, 0x70,
   0x00, 0x00, 0x00, 0x00, 0xc0, 0x03, 0xfd, 0xbf, 0x00, 0x0f, 0x00, 0x1e,
   0x3c, 0x8c, 0xf8, 0x1f, 0xf1, 0x30, 0xe0, 0x61, 0x02, 0x98, 0x00, 0x00,
   0x0a, 0x60, 0x10, 0xc0, 0x02, 0x58, 0x00, 0x00, 0x0c, 0x60, 0x10, 0xc0,
   0x02, 0x38, 0x00, 0x00, 0x08, 0xe0, 0x1f, 0xc0, 0x02, 0x58, 0x00, 0x00,
   0x08, 0x60, 0x10, 0xc0, 0x02, 0x98, 0x80, 0x07, 0x08, 0x60, 0x10, 0xc0,
   0xfe, 0x1f, 0x79, 0x18, 0xf8, 0x7f, 0xf0, 0xff, 0xfc, 0x0f, 0x05, 0x30,
   0xf0, 0x3f, 0xe0, 0x7f, 0x00, 0x00, 0x06, 0x30, 0x00, 0x00, 0x00, 0x00,
   0x00, 0x00, 0x04, 0x30, 0x00, 0x00, 0x00, 0x00, 0x00, 0x00, 0x04, 0x30,
   0x00, 0x00, 0x00, 0x00, 0x00, 0x00, 0x04, 0xf0, 0x01, 0x00, 0x00, 0x00,
   0x00, 0x00, 0xfc, 0x3f, 0x1e, 0x00, 0x00, 0x00, 0x00, 0x00, 0xf8, 0x1f,
   0xe0, 0x00, 0x00, 0x1e, 0x00, 0x00, 0x00, 0x00, 0x00, 0x07, 0xe0, 0x61,
   0x00, 0x00, 0x00, 0x00, 0x00, 0x78, 0x10, 0xc0, 0x00, 0x00, 0x00, 0x00,
   0x00, 0x80, 0x13, 0xc0, 0x00, 0x00, 0x00, 0x00, 0x00, 0x00, 0x1c, 0xc0,
   0x00, 0x00, 0x00, 0x00, 0x00, 0x00, 0x10, 0xc0, 0x00, 0x00, 0x00, 0x00,
   0x00, 0x00, 0x10, 0xc0, 0x00, 0x00, 0x00, 0x00, 0x00, 0x00, 0xf0, 0xff,
   0x00, 0x00, 0x00, 0x00, 0x00, 0x00, 0xe0, 0x7f, 0x00, 0x00, 0x00, 0x00,
   0x00, 0x00, 0x00, 0x00, 0x00, 0x00, 0x00, 0x00, 0x00, 0x00, 0x00, 0x00,
   0x00, 0x00, 0x00, 0x00, 0x00, 0x00, 0x00, 0x00, 0x00, 0x00, 0x00, 0x00,
   0x00, 0x00, 0x00, 0x00, 0x00, 0x00, 0x00, 0x00, 0x00, 0x00, 0x00, 0x00,
   0x00, 0x00, 0x00, 0x00, 0x00, 0x00, 0x00, 0x00, 0x00, 0x00, 0x00, 0x00,
   0x00, 0x00, 0x00, 0x00, 0x00, 0x00, 0x00, 0x00, 0x00, 0x00, 0x00, 0x00,
   0x00, 0x00, 0x00, 0x00, 0x00, 0x00, 0x00, 0x00, 0x00, 0x00, 0x00, 0x00,
   0x00, 0x00, 0x00, 0x00, 0x00, 0x00, 0x00, 0x00, 0x00, 0x00, 0x00, 0x00,
   0x00, 0x00, 0x00, 0x00, 0x00, 0x00, 0x00, 0x00, 0x00, 0x00, 0x00, 0x00,
   0x00, 0x00, 0x00, 0x00, 0x00, 0x00, 0x00, 0x00, 0x00, 0x00, 0x00, 0x00,
   0x00, 0x00, 0x00, 0x00, 0x00, 0x00, 0x00, 0x00, 0x00, 0x00, 0x00, 0x00,
   0x00, 0x00, 0x00, 0x00, 0x00, 0x00, 0x00, 0x00, 0x00, 0x00, 0x00, 0x00,
   0x00, 0x00, 0x00, 0x00, 0x00, 0x00, 0x00, 0x00, 0x00, 0x00, 0x00, 0x00,
   0x00, 0x00, 0x00, 0x00, 0x00, 0x00, 0x00, 0x00, 0x00, 0x00, 0x00, 0x00,
   0x00, 0x00, 0x00, 0x00, 0x00, 0x00, 0x00, 0x00};
