#define folder16_glyph_width 16
#define folder16_glyph_height 16
static unsigned char folder16_glyph_bits[] = {
   0x00, 0x00, 0x00, 0x0f, 0x80, 0x10, 0xfc, 0x30, 0x02, 0x40, 0x02, 0xc0,
   0x02, 0xc0, 0x02, 0xc0, 0x02, 0xc0, 0x02, 0xc0, 0x02, 0xc0, 0x02, 0xc0,
   0x02, 0xc0, 0xfe, 0xff, 0xfc, 0xff, 0x00, 0x00};
