#define folder16_mask_width 16
#define folder16_mask_height 16
static unsigned char folder16_mask_bits[] = {
   0x00, 0x00, 0x00, 0x0f, 0x80, 0x1f, 0xfc, 0x3f, 0xfe, 0x7f, 0xfe, 0xff,
   0xfe, 0xff, 0xfe, 0xff, 0xfe, 0xff, 0xfe, 0xff, 0xfe, 0xff, 0xfe, 0xff,
   0xfe, 0xff, 0xfe, 0xff, 0xfc, 0xff, 0x00, 0x00};
