#define linkdir16_glyph_width 16
#define linkdir16_glyph_height 16
static unsigned char linkdir16_glyph_bits[] = {
   0x00, 0x00, 0x00, 0x0f, 0x80, 0x10, 0xff, 0x70, 0x01, 0x40, 0x01, 0xc0,
   0x01, 0xc0, 0xe5, 0xd9, 0x3d, 0xcf, 0xe5, 0xd9, 0x01, 0xc0, 0x01, 0xc0,
   0x01, 0xc0, 0xff, 0xff, 0xfe, 0xff, 0x00, 0x00};
