#define linkdir16_mask_width 16
#define linkdir16_mask_height 16
static unsigned char linkdir16_mask_bits[] = {
   0x00, 0x00, 0x00, 0x0f, 0x80, 0x1f, 0xff, 0x7f, 0xff, 0x7f, 0xff, 0xff,
   0xff, 0xff, 0xff, 0xff, 0xff, 0xff, 0xff, 0xff, 0xff, 0xff, 0xff, 0xff,
   0xff, 0xff, 0xff, 0xff, 0xfe, 0xff, 0x00, 0x00};
