#define regular16_glyph_width 16
#define regular16_glyph_height 16
static unsigned char regular16_glyph_bits[] = {
   0xfc, 0x03, 0x04, 0x06, 0x04, 0x0a, 0x04, 0x12, 0x04, 0x3e, 0x04, 0x30,
   0x04, 0x30, 0x04, 0x30, 0x04, 0x30, 0x04, 0x30, 0x04, 0x30, 0x04, 0x30,
   0x04, 0x30, 0x04, 0x30, 0xfc, 0x3f, 0xf8, 0x3f};
