#define regular16_mask_width 16
#define regular16_mask_height 16
static unsigned char regular16_mask_bits[] = {
   0xfc, 0x03, 0xfc, 0x07, 0xfc, 0x0f, 0xfc, 0x1f, 0xfc, 0x3f, 0xfc, 0x3f,
   0xfc, 0x3f, 0xfc, 0x3f, 0xfc, 0x3f, 0xfc, 0x3f, 0xfc, 0x3f, 0xfc, 0x3f,
   0xfc, 0x3f, 0xfc, 0x3f, 0xfc, 0x3f, 0xf8, 0x3f};
