#define xvfmgricon_width 64
#define xvfmgricon_height 64
static unsigned char xvfmgricon_bits[] = {
   0x00, 0x00, 0x00, 0x00, 0x00, 0x00, 0x00, 0x00, 0x00, 0x00, 0x00, 0x00,
   0x80, 0x3f, 0x00, 0x00, 0x00, 0x00, 0x00, 0x00, 0x40, 0x40, 0x00, 0x00,
   0x00, 0xf4, 0xff, 0xfd, 0x7d, 0xc0, 0x2f, 0x00, 0x00, 0x04, 0x00, 0x02,
   0x02, 0x00, 0x20, 0x00, 0x00, 0x02, 0x00, 0x02, 0x02, 0x00, 0x40, 0x00,
   0x00, 0xea, 0xef, 0x03, 0xfe, 0xff, 0x5f, 0x00, 0x00, 0x11, 0x10, 0x00,
   0x00, 0x00, 0x80, 0x00, 0x00, 0x11, 0x10, 0x00, 0x00, 0x00, 0x80, 0x00,
   0x80, 0x1e, 0xf0, 0xff, 0xff, 0xff, 0x7f, 0x01, 0x80, 0x00, 0x00, 0x00,
   0x00, 0x00, 0x00, 0x01, 0xc0, 0xff, 0xff, 0xff, 0xff, 0xff, 0xff, 0x03,
   0x40, 0x00, 0x00, 0x00, 0x00, 0x00, 0x00, 0x06, 0x40, 0xff, 0xff, 0xff,
   0xff, 0xff, 0xff, 0x06, 0x40, 0x01, 0x00, 0x00, 0x00, 0x00, 0x00, 0x06,
   0x40, 0x01, 0x00, 0x00, 0x00, 0x00, 0x00, 0x06, 0x40, 0x01, 0x00, 0x00,
   0x00, 0x00, 0x00, 0x06, 0x40, 0x01, 0x80, 0xff, 0xff, 0x01, 0x00, 0x06,
   0x40, 0x01, 0x80, 0x55, 0x55, 0x01, 0x00, 0x06, 0x40, 0x01, 0x80, 0xaa,
   0x2a, 0x01, 0x00, 0x06, 0x40, 0x01, 0x80, 0x55, 0x05, 0x01, 0x00, 0x06,
   0x40, 0x01, 0x80, 0xaa, 0x00, 0x01, 0x00, 0x06, 0x40, 0x01, 0x80, 0x15,
   0x00, 0x01, 0x00, 0x06, 0x40, 0x01, 0x80, 0x02, 0x00, 0x01, 0x00, 0x06,
   0x40, 0x01, 0x80, 0x01, 0x00, 0x01, 0x00, 0x06, 0x40, 0x01, 0x80, 0x00,
   0x00, 0x01, 0x00, 0x06, 0x40, 0x01, 0x80, 0xff, 0xff, 0x01, 0x00, 0x06,
   0x40, 0x01, 0x00, 0x00, 0x00, 0x00, 0x00, 0x06, 0x40, 0x01, 0x00, 0x00,
   0x00, 0x00, 0x00, 0x06, 0x40, 0x01, 0x00, 0x00, 0x00, 0x00, 0x00, 0x06,
   0x40, 0x01, 0x00, 0x00, 0x00, 0x00, 0x00, 0x06, 0x40, 0x01, 0x80, 0x01,
   0x80, 0x01, 0x00, 0x06, 0x40, 0x01, 0x40, 0x02, 0x40, 0x02, 0x00, 0x06,
   0x40, 0x01, 0x40, 0x02, 0x40, 0x02, 0x00, 0x06, 0x40, 0x01, 0x40, 0x06,
   0x20, 0x06, 0x00, 0x06, 0x40, 0x01, 0x80, 0xf8, 0x1f, 0x05, 0x00, 0x06,
   0x40, 0x01, 0x00, 0x01, 0x00, 0x0b, 0x00, 0x06, 0x40, 0x01, 0x00, 0x07,
   0x80, 0x05, 0x00, 0x06, 0x40, 0x01, 0x00, 0xfa, 0xff, 0x02, 0x00, 0x06,
   0x40, 0x01, 0x00, 0x54, 0x55, 0x01, 0x00, 0x06, 0x40, 0x01, 0x00, 0xa8,
   0xaa, 0x00, 0x00, 0x06, 0x40, 0x01, 0x00, 0x50, 0x55, 0x00, 0x00, 0x06,
   0x40, 0x01, 0x00, 0x00, 0x00, 0x00, 0x00, 0x06, 0x40, 0x01, 0x00, 0x00,
   0x00, 0x00, 0x00, 0x06, 0x40, 0x01, 0x00, 0x00, 0x00, 0x00, 0x00, 0x06,
   0x40, 0x01, 0x00, 0x00, 0x00, 0x00, 0x00, 0x06, 0x40, 0x01, 0x00, 0x00,
   0x00, 0x00, 0x00, 0x06, 0x40, 0x01, 0x00, 0x00, 0x00, 0x00, 0x00, 0x06,
   0x40, 0x00, 0x00, 0x00, 0x00, 0x00, 0x00, 0x06, 0xc0, 0xff, 0xff, 0xff,
   0xff, 0xff, 0xff, 0x07, 0x80, 0xff, 0xff, 0xff, 0xff, 0xff, 0xff, 0x07,
   0x00, 0x00, 0x00, 0x00, 0x00, 0x00, 0x00, 0x00, 0x00, 0x00, 0x00, 0x00,
   0x00, 0x00, 0x00, 0x00, 0x00, 0x00, 0x00, 0x00, 0x00, 0x00, 0x00, 0x00,
   0x00, 0x00, 0x00, 0x00, 0x00, 0x00, 0x00, 0x00, 0x00, 0x00, 0x00, 0x00,
   0x00, 0x00, 0x00, 0x00, 0x00, 0x00, 0x00, 0x00, 0x00, 0x00, 0x00, 0x00,
   0x00, 0x00, 0x00, 0x00, 0x00, 0x00, 0x00, 0x00, 0x00, 0x00, 0x00, 0x00,
   0x00, 0x00, 0x00, 0x00, 0x00, 0x00, 0x00, 0x00, 0x00, 0x00, 0x00, 0x00,
   0x00, 0x00, 0x00, 0x00, 0x00, 0x00, 0x00, 0x00, 0x00, 0x00, 0x00, 0x00,
   0x00, 0x00, 0x00, 0x00, 0x00, 0x00, 0x00, 0x00, 0x00, 0x00, 0x00, 0x00,
   0x00, 0x00, 0x00, 0x00, 0x00, 0x00, 0x00, 0x00};
