/* XPM */
static char *app_write[] = {
/* width height ncolors chars_per_pixel */
"32 32 10 1",
/* colors */
"` c black",
"a c cyan",
"b c dodger blue",
"c c violet",
"d c grey",
"e c magenta",
"f c tomato",
"g c white",
"h c slate grey",
"i c lemon chiffon",
/* pixels */
"gggggggggggggggggggggggggggggggg",
"ggggggggggggggg`dddggggggggggggg",
"gggggggggggggg`g`hhdgggggggggggg",
"ggggggggggggg`gag`hhdggggggggggg",
"gggggggggggg`gagag`hhdgggggggggg",
"ggggggggggg`gag``ag`hhdggggggggg",
"gggggggggg`gag`cc`ag`hhdgggggggg",
"ggggggggg`gag`cbc``gg`hhdggggggg",
"gggggggg`gag`cbcbcc`ag`hhdgggggg",
"ggggggg`gag`cbcbcbc`gag`hhdggggg",
"gggggg`gaga`ccbcbc`gagag`hhdgggg",
"ggggg`ga``g``ccbc`ga`agag`hhdggg",
"gggg`ga```ag``cc`ga`a`agag`hhdgg",
"ggg`ga```agag```ga`a`a`agag`hhdg",
"gg`gaga`agaeag`ga`a`a`agafag`hhd",
"g`gagagagaeagagaga`a`agafafag`hd",
"gg`gag`gaeaeaeagaga`agafafag`hhd",
"ggg`gag`gaeaeag`````gagafag`hhdg",
"gggg`gag`gaea``gigig````````````",
"ggggg`gag`ga``g````ig```````````",
"gggggg`gag`g`i`gag``ig``````````",
"ggggggg`gag``````````i``````````",
"gggggggg`gag`gi````gig``````````",
"ggggggggg`gag`gigigigi``````````",
"gggggggggg`gag``igigig``````````",
"ggggggggggg`gag`````````````````",
"gggggggggggg`gagagag`h``````````",
"ggggggggggggg`gagag`hhdggggggggg",
"gggggggggggggg`gag`hhdgggggggggg",
"ggggggggggggggg`g`hhdggggggggggg",
"gggggggggggggggg`dddgggggggggggg",
"gggggggggggggggggggggggggggggggg"
};
