/* XPM */
static char *arch[] = {
/* width height ncolors chars_per_pixel */
"32 32 6 1",
/* colors */
"` c black",
"a c cyan",
"b c dodger blue",
"c c red",
"d c white",
"e c blue",
/* pixels */
"dddddddddddddddddddddddddddddddd",
"daaaddaaaaaaddaaaaaaaaaaaadddaad",
"daadddddaaaadddaaadddddddaaaaaad",
"daaadddddddaaddddaaaaddddddaaaad",
"daaaaaaaaaaaaaaaaaaaaaaaaddddaad",
"daaaaa``````````````````aaaaaaad",
"daaaaa`ccccccccccccccc`c`aaaaaad",
"daaaaa`ccccccccccccccc`cc`aaaaad",
"ddddaa`ccccccccccccccc`ccc`aaddd",
"dadddd`ccc`````````ccc`ccc`adddd",
"ddddda`ccc``cccccc`ccc`ccc`adddd",
"daaaaa`ccc`c`ccccc`ccc`ccc`adddd",
"daaaaa`ccc`cc`cccc`ccc`ccc`aaadd",
"ddddaa`ccc`ccc`````ccc`ccc`aaaad",
"daadaa`ccc`ccc`aaa`ccc`ccc`aaaad",
"dadaaa`ccc`ccc`aaa`ccc`ccc`aaaad",
"daddda`ccc`ccc`aaa`ccc`ccc`adddd",
"daaaaa`ccc`ccc`dda`ccc`ccc`dddad",
"daddda`ccc`ccc`aad`ccc`ccc`aaaad",
"daaaaa`ccc`ccc`aaa`ccc`ccc`aaaad",
"daaaaa`ccc`ccc`aaa`ccc`ccc`adddd",
"daadda`ccc`ccc`aaa`ccc`ccc`aaaad",
"daaaaa`ccc`ccc`aaa`ccc`ccc`addad",
"daaaaa`ccc`ccc`aaa`ccc`ccc`aaaad",
"dadada`ccc`ccc`ada`ccc`ccc`aadad",
"daaaaa`ccc`ccc`aaa`ccc`ccc`baaad",
"daabaa`bcc`bcc`aaa`bcc`bcc`baabd",
"dabbba`bbc`bbc`bbb`bbc`bbc`bbabd",
"dbebbbbbbbbbbbbbbbbbeebbbbbbbaad",
"daaebbbbeaeabbbbbeaaeaebbbaaebbd",
"daaaebbeaaaeeebbeaaeaeaeebbaaebd",
"dddddddddddddddddddddddddddddddd"
};
