/* XPM */
static char * bla_xpm[] = {
/* width height ncolors chars_per_pixel */
"32 32 4 1",
/* colors */
" 	c #bfbfbfbfbfbf",
".	c grey100",
"X	c grey1",
"o	c grey76",
/* pixels */
"                                ",
"    .....................X      ",
"    .oooooooooooooooooo.oXX     ",
"    .oooooooooooooooooo.ooXX    ",
"    .oooooooooooooooooo.oooXX   ",
"    .ooooo............o.XXXXX   ",
"    .ooooo............XoooooX   ",
"    .ooooooXXXXXXXXXXXXoooooX   ",
"    .ooooooooo.....oooooooooX   ",
"    .ooooooooooXXXXoooooooooX   ",
"    .ooo...oooooooooooooooooX   ",
"    .ooooXXXooooooooooooooooX   ",
"    .ooo.......ooo........ooX   ",
"    .ooooXXXXXXXoooXXXXXXXXoX   ",
"    .ooo.......ooo........ooX   ",
"    .ooooXXXXXXXoooXXXXXXXXoX   ",
"    .ooo.......ooo........ooX   ",
"    .ooooXXXXXXXoooXXXXXXXXoX   ",
"    .ooo.......ooo........ooX   ",
"    .ooooXXXXXXXoooXXXXXXXXoX   ",
"    .ooo.......ooo........ooX   ",
"    .ooooXXXXXXXoooXXXXXXXXoX   ",
"    .ooo.......ooo........ooX   ",
"    .ooooXXXXXXXoooXXXXXXXXoX   ",
"    .ooo.......ooo........ooX   ",
"    .ooooXXXXXXXoooXXXXXXXXoX   ",
"    .oooooooooooooooooooooooX   ",
"    .ooooooooooooooooooo..ooX   ",
"    .ooooooooooooooooooooXXoX   ",
"    .oooooooooooooooooooooooX   ",
"    .XXXXXXXXXXXXXXXXXXXXXXXX   ",
"                                "};
