/* XPM */
static char *bomb_defuse[] = {
"32 32 9 1",
" 	c white",
".	c blue",
"X	c cyan",
"o	c slate grey",
"O	c black",
"+	c dark slate grey",
"@	c red",
"#	c lemon chiffon",
"$	c grey",
"                           .    ",
"                           .    ",
"                          .X.   ",
"                          .X.   ",
"                          .XX.  ",
"                         .XXX.  ",
"                         .XXX.  ",
"                        .XXXXX. ",
"           oOoOo        .XXX.X. ",
"          O     Oo      .XXX.X. ",
"         o        O     .XXXXX. ",
"         O        o      .XXX.  ",
"       +++++       O      ...   ",
"       +OOO+       o            ",
"      +OOOOO+       O           ",
"    ++OOOOOOO++     o  @       @",
"   +OOOOOOOOOOO+    O      @  @ ",
"  +OOOOOOOOOOOOO+    o  @       ",
"  +OOOOOOO#$oOOO+    O   @  @   ",
" +OOOOOOOOO#$oOOO+    o         ",
" +OOOOOOOOOOOOOOO+     OoO @ @ @",
" +OOOOOOOOOO#$oOO+              ",
" +OOOOOOOOOO#$oOO+      @   @   ",
" +OOOOOOOOOO#$oOO+        @  @  ",
" +OOOOOOOOO#$oOOO+     @        ",
" +OOOOOOOOO#$oOOO+    @   @    @",
"  +OOOOOOO#$oOOO+               ",
"  +OOOOOOOOOOOOO+         @     ",
"   +OOOOOOOOOOO+                ",
"    ++OOOOOOO++                 ",
"      +++++++                   ",
"                                "};
