/* XPM */
static char *bullwink_xpm[] = {
/* width height ncolors chars_per_pixel */
"32 32 6 1",
/* colors */
"` c black",
"a c peru",
"b c grey",
"c c sienna",
"d c dark slate grey",
"e c white",
/* pixels */
"eeeeeeeeeeeeeeeeeeeeeeeeeeee``ee",
"eee```eeeeeeeee`ee``eeeeeee`aa`e",
"ee`aaa`eeeeeeeee``ee`eeeeee`aaa`",
"ee`aaa`e``e`e``ee```e``e``e`aaa`",
"ee`aaaa`aa`a`aa``aaa`aa`aa`aaaa`",
"ee`aaaaaaaaaac``aa``aaaaaaaaaaa`",
"eee`aaaaa```c`ee``ee`````aaaaa`e",
"eeee`````eee`ebe`ebee`ccc`````ee",
"eeeeeeeeeeee`e`b`e`be`aa`c`eeeee",
"eeeeeeeeeeeee`eda`ee`aaaa`eeeeee",
"eeeeee`````````aaa``aaa`aa`eeeee",
"eee```aaaaaaaaaaaaaaaaad`aa`eeee",
"ee`aaaaaaaaaaaaaaaaaaaaa``aa`eee",
"e`aaaaaaaa`a`aa````daaa`ee``eeee",
"e`aaaaaaaaa`aa`eeee`da`eeeeeeeee",
"`aaaaaaaaa``a`eeeee`aa`eeeeeeeee",
"`d`aa`daaa``a`eeeee`aa`eeeeeeeee",
"``ad`a`aa`d`a`eeeeee`aa`eeeeeeee",
"`a`aa`aaa`ada`eeeeee`aa`eeeeeeee",
"`aaaaaaa`e`a`eeeeeee`aa`eeeeeeee",
"`aaaaaaa`eedeeeeeeee`aaa`eeeeeee",
"`aaaaaa`eeeeeeeeeee`adada`eeeeee",
"e`aaaa`eeeeeeeeeeee`ada`aa`eeeee",
"ee````eeeeeeeeeeee`aa`aa`a`eeeee",
"eeeeeeeeeeeeeeeeee`a`aa`aaa`eeee",
"eeeeeeeeeeeeeeeeee`a`a`aaaa`eeee",
"eeeeeeeeeeeeeeeee`a`aa`aa`a`eeee",
"eeeeeeeeeeeeeeeee`a`aa`aa`a`eeee",
"eeeeeeeeeeeeeeeee`ad`a`aa`aa`eee",
"eeeeeeeeeeeeeeeee``ada`aa`da`eee",
"eeeeeeeeeeeeeeeee`da`a`aa`ad`eee",
"eeeeeeeeeeeeeeeee`a`aa`aa`ad`eee"
};
