/* XPM */
static char *floppy_green[] = {
/* width height ncolors chars_per_pixel */
"32 32 9 1",
/* colors */
"` c black",
"a c green",
"b c grey",
"c c dark slate grey",
"d c white",
"e c yellow",
"f c slate grey",
"g c sea green",
"h c pale green",
/* pixels */
"heeeeeedbbbbbdbbbdbdbbbbaeeaaddd",
"eaa`gggdcccfbccfdbcbcffc`aaaaadd",
"eaa`gggdccfbccfdfcccffbc`aaaaaad",
"eaa`gggdcfbccfdbc```dbbc`aaaaaa`",
"eaa`gggdcbccfdbcc`ggdbfc`aaaaaa`",
"eaa`gggdbccfdbccc`ggdffc`aaaaaa`",
"eaa`gggdccfdbcccc`ggdfbc`aaaaaa`",
"eaa`gggdcfdbcccfc`ggdbfc`aaaaaa`",
"eaa`gggdfdbcccffddddbfcc`aaaaaa`",
"eaa`gggddbcccffdbffbfccc`aaaaaa`",
"eaa`ggghcccccccccccccccc`aaaaaa`",
"eaaaeeeee```````````````aaaaaaa`",
"eaaaaaaaaaaaaaaaaaaaaaaaaaaaaaa`",
"eaaaaaaaaaaaaaaaaaaaaaaaaaaaaaa`",
"eaaahffffffffffffffffffffffhaaa`",
"eaaafbbdfbbbbbbdfbbbbbbdfbbcaaa`",
"eaaafbbbdfbbbbbfbbbbbbdfbbbcaaa`",
"eaaafbbbbdfbbbbfbbbbbdfbbbbcaaa`",
"eaaafbbbbbdfbbf`fbbbdfbbbbbcaaa`",
"eaaafbbbbbfbbb`d`bbbfbbbbbbcaaa`",
"eaaafbbbbbbbbcbdbcbbbbbbbbbcaaa`",
"eaaafbbbbbbbb`dff`bbbbbbbbbcaaa`",
"eaaafbbbbbbbcbdddbcbbbbbbbbcaaa`",
"eaaafbddddfb`ddcdc`bbdddddfcaaa`",
"eaaafbffffbbcbdfdbcbbfffffbcaaa`",
"eaaafbbbbbbbb`dcf`bbbbbbbbbcaaa`",
"eaaafbbbbbbbbcbfbcbbbbbbbbbcaaa`",
"eaaafbbbbbbbbb`d`bbbbbbbbbbcaaa`",
"eddafbbbbbdfbbc`cbbbdfbbbbbcaaa`",
"eddafbbbbdfbbbbcbbbbbdfbbbbcaaa`",
"eaaafbbbdfbbbbbbbbbbbbdfbbbcaaa`",
"a```cccccccccccdfccccccccccc```a"
};
