/* XPM */
static char * disk_3D_red_xpm[] = {
/* width height ncolors chars_per_pixel */
"32 32 5 1",
/* colors */
" 	c black",
".	c firebrick",
"X	c red",
"o	c grey",
"O	c white",
/* pixels */
"                                ",
"                                ",
"   .. .....................X... ",
"  ... .....................X... ",
"  ... .....................X. . ",
"  ... .....................X. . ",
"  ... .....................X... ",
"  ... .....................X... ",
"  ... .....................X... ",
"  ... .....................X... ",
"  ... .....................X... ",
"  ... .....................X... ",
"  ... .....................X... ",
"  ... .....................X... ",
"  ... .....................X... ",
"  ... .....................X... ",
"  ... .....................X... ",
"  ...XXXXXXXXXXXXXXXXXXXXXXX... ",
"  ............................. ",
"  ............................. ",
"  ............................. ",
"  ........                 .... ",
"  ........ oooooooooooo ..XX... ",
"  ........ oooooooooooo ...X... ",
"  ........ oo    Oooooo ...X... ",
"  ........ oo ...Oooooo ...X... ",
"  ........ oo ...Oooooo ...X... ",
"  ........ oo ...Oooooo ...X... ",
"  ........ oo ...Oooooo ...X... ",
"  ........ ooOOOOOooooo ...X... ",
"   ....... oooooooooooo ...X..  ",
"                                "};
