/* XPM */
static char *doorrun_xpm[] = {
/* width height ncolors chars_per_pixel */
"32 32 6 1",
/* colors */
"` c black",
"a c firebrick",
"b c sky blue",
"c c white",
"d c gold",
"e c orange",
/* pixels */
"bbbbbbbbbbbbbbbbbbbbbbbbbbbbbbbb",
"b`````````````bbbbbbbbbbbbbbbbbb",
"b``cccccccccc`bbbbbbbbbbbbbbbbbb",
"b`e`dcdcdcdcd`bbbbbbbbbbbbbbbbbb",
"b`ae`cdcdcdcd`bbb```bbbbbbbbbbbb",
"b`eae`cdcdcdc`bbb````bbbbbbbbbbb",
"b`aeae`cdcdcd`bb`````bbbbbbbbbbb",
"b`eaeae`cdcdc`bb`````bbbbbbbbbbb",
"b`aeaea`dcdcd`bbb```bbbbbbbbbbbb",
"b`eaeae`cdcdc````bbb`````bbbbbbb",
"b`aeaea`dcdcd`````````````bbbbbb",
"b`eaeae`cdcdc`bbb`````bb``bbbbbb",
"b`aeaea`dcdcd`bbbbb```bb``bbbbbb",
"b`eae`e`cdcdc`bbbbb```bbb``bbbbb",
"b`aea`a`dcdcd`bbbbb```bbb``bbbbb",
"b`eaeae`cdcdc`bbbbb```bbbbbbbbbb",
"b`aeaea`cdccd`bbbb````bbbbbbbbbb",
"b`eaeae`ddddd`bbb``````bbb``bbbb",
"b``eaea```````bbb``bb```b````bbb",
"bbb`eae`dcdcdcbbb``bbb`````b`bbb",
"bbbb`ea`cdcdcdcb``bbbbb```bbbbbb",
"bbbbb`e`dcdcdcdc``bbbbbbbbbbbbbb",
"bbbbbb``cdcdcdcd``bbbbbbbbbbbbbb",
"bbbbbbbbdcdcdcd```dbbbbbbbbbbbbb",
"bbbbbbbbbdcdcdcdcdcdcdbbbbbbbbbb",
"bbbbbbbbbbdcdcdcdcdcdcdbbbbbbbbb",
"bbbbbbbbbbbdcdcdcdcdcdcdcdbbbbbb",
"bbbbbbbbbbbbdcdcdcdcdcdcdcdbbbbb",
"bbbbbbbbbbbbbdcdcdcdcdcdcdcdbbbb",
"bbbbbbbbbbbbbbdcdcdcdcdcdcdcdbbb",
"bbbbbbbbbbbbbdcdcdcdcdcdcdcdcdbb",
"bbbbbbbbbbbbbbbbbbbbbbbbbbbbbbbb"
};
