/* XPM */
static char *earth2_xpm[] = {
/* width height ncolors chars_per_pixel */
"32 32 8 1",
/* colors */
"` c black",
"a c dodger blue",
"b c grey",
"c c dark slate grey",
"d c navy blue",
"e c white",
"f c slate grey",
"g c blue",
/* pixels */
"eeeeeeeeeeeeeeeeeeeeeeeeeeeeeeee",
"eee`eee`eee`eee`eee`eee`eee`eeee",
"eee`eee`eee`eee`eee`eee`eee`eeee",
"e````````````d```dd```````````ee",
"eee`eee`eeedaa```aaagee`eee`eeee",
"eee`eee`ecaaaa```aaa``e`eee`eeee",
"eee`eee`daaaaa``aa``````eee`eeee",
"eee`ee``aaa``aaaa````````ee`eeee",
"e````````````aaaaa````````cc``ee",
"eee`b````````aaaaa```````adceeee",
"eee`````````a```aa```a`aaa``eeee",
"eee`aa`````a````aa```aaa````eeee",
"eee`aa````````aaaaaaa```````eeee",
"e```aa```````aaaaaa```````````ee",
"eee`aa```````aaaaaa`````````eeee",
"eee`aaa`````aaaaaaa`````````eeee",
"eee`aaa``aaa`aaaaaaaa```````eeee",
"eee`aaaa```aaaaaaaaaaa``````eeee",
"e```aaaa```aaaaaaaaaaa````````ee",
"eee`daaaa````````aaaaaaaaa``eeee",
"eee`daaaaaa``````aaaaaaaaad`eeee",
"eee`eaaaaaa`````aaaaaaaaaad`eeee",
"eee`e`aaaaa`````aaaaaaaaaaeceeee",
"e`````daaaaa````aaaaaaaaad`c``ee",
"eee`eecaaaaa``aaaaaaaaaadee`eeee",
"eee`eee`aaaaa`aaaaaaaac`eee`eeee",
"eee`eee`ecdaa`aaaaaaace`eee`eeee",
"eee`eee`eeeda`aaaaadfee`eee`eeee",
"e`````````````````````````````ee",
"eee`eee`eee`eee`eee`eee`eee`eeee",
"eee`eee`eee`eee`eee`eee`eee`eeee",
"eeeeeeeeeeeeeeeeeeeeeeeeeeeeeeee"
};
