/* XPM */
static char *keys[] = {
/* width height ncolors chars_per_pixel */
"32 32 6 1",
/* colors */
"` c black",
"a c gainsboro",
"b c grey",
"c c dark slate grey",
"d c white",
"e c slate grey",
/* pixels */
"dddddddddddddddddddddddddddddddd",
"dddddddddddddddddddddddddddddddd",
"dddddddddddddddddddddddddddddddd",
"dddddddddddddddddddddddddddddddd",
"dddddddddddddddddddddddddddddddd",
"````````````````````````````````",
"cbbbbbbbbbb``cbbbbbbbbbb``cbbbbb",
"baaaaaaaaae``baaaaaaaaae``baaaaa",
"baeeeeeeeec``baeeeeeeeec``baeeee",
"baeccccceec``baeccccceec``baeccc",
"baecceeebec``baecceeebec``baecce",
"baeceeeebec``baeceeeebec``baecee",
"baeceeeebec``baeceeeebec``baecee",
"baeceeebbec``baeceeebbec``baecee",
"baeebbbbbec``baeebbbbbec``baeebb",
"baeeeeeeeec``baeeeeeeeec``baeeee",
"beccccccccc``beccccccccc``becccc",
"````````````````````````````````",
"````````````````````````````````",
"b``cbbbbbbbbbb``cbbbbbbbbbb``cbb",
"e``baaaaaaaaae``baaaaaaaaae``baa",
"c``baeeeeeeeec``baeeeeeeeec``bae",
"c``baeccccceec``baeccccceec``bae",
"c``baecceeebec``baecceeebec``bae",
"c``baeceeeebec``baeceeeebec``bae",
"c``baeceeeebec``baeceeeebec``bae",
"c``baeceeebbec``baeceeebbec``bae",
"c``baeebbbbbec``baeebbbbbec``bae",
"c``baeeeeeeeec``baeeeeeeeec``bae",
"c``beccccccccc``beccccccccc``bec",
"````````````````````````````````",
"````````````````````````````````"
};
