/* XPM */
static char *ladybi_r.recol_xpm[] = {
/* width height ncolors chars_per_pixel */
"32 32 5 1",
/* colors */
"` c black",
"a c firebrick",
"b c grey",
"c c red",
"d c slate grey",
/* pixels */
"bbbbbbbbbbbbbbbbbbbbbbbbbbbbbbbb",
"bbbbbbbbbbbbbbbbbbbbbbbbbbbbbbbb",
"bbbbbbbbbbbbbbbbbbbbbbbbbbbbbbbb",
"bbbbbbbbbbbbbbbbbbbbbbbbbbbbbbbb",
"bbbbbbbbbbbbcccccccbbbbbbbbbbbbb",
"bbbbbbbbbcccccccc```ccbbbbbbbbbb",
"bbbbbbbbca`````ccc```ccbbbbbbbbb",
"bbbbbbbacccccc``ccccccccbbbbbbbb",
"bbbbbbacccccccc```cccccccbbbbbbb",
"bbbbbacccccccc`cc``cccc``cbbbbbb",
"bbbbbc``ccccc```cc``ccc``abbbbbb",
"bbbbaa```cccc```ccc``ccc`cabbbbb",
"bbbbcc```ccccc`ccccc`cccccabbbbb",
"bbbbaac``ccccccccccc``cccacbbbbb",
"bbbaacacacacccccccccc`ccccabbbbb",
"bbbaaaaacccc``ccccccc``ccacbbbbb",
"bbbaaaccacc````ccccccc``ca`bbbbb",
"bbbaaaaacaca``ccccccccc`cc``bbbb",
"bbddaaacacccccccccccccc`c```bbbb",
"bbdd`caaccaccccccccccccc````bbbb",
"bbd`dddcaaccaccccccccac```c`bbbb",
"bdd`dddd`caccaccccacca```cc`bbbb",
"bdddddd`ddddacacaccaa```````bbbb",
"bbbbbdd`dddd`dd`dddddd`````dbdbb",
"bbbbdbbdddd`ddd`ddbdddddddddbbbb",
"bbbbbbbbbdd`dbd`ddbdbddddddbdbbb",
"bbbbbbdbbbbbbbddbbbbbbbdbbbbbbbb",
"bbbbbbbbbbbdbbbbbdbbbdbbbbdbbbbb",
"bbbbbbbbbbbbbbbbbbbbbbbbbbbbbbbb",
"bbbbbbbbbbbbbbbbbbbbbbbbbbbbbbbb",
"bbbbbbbbbbbbbbbbbbbbbbbbbbbbbbbb",
"bbbbbbbbbbbbbbbbbbbbbbbbbbbbbbbb"
};
