/* XPM */
static char *martini_pour[] = {
/* width height ncolors chars_per_pixel */
"32 32 6 1",
/* colors */
"` c black",
"a c sky blue",
"b c grey",
"c c black",
"d c white",
"e c red",
/* pixels */
"dddddddddddddddddddddddddddddddd",
"dddddddddddddddddddddddddddddddd",
"dddddddddd``dddddddddddddddddddd",
"dddddddddd`d`ddddddddddddddddddd",
"dddddddddd`dd`dddddddddddddddddd",
"dddddddddd`ddd`ddddddddddddddddd",
"dddddddddd`dddd`dddddddddddddddd",
"dddddddddd`ddddd`ddddcdddddddddd",
"dddddddddd`dddddd`ddcddddddddddd",
"dddddddddd`ddddddd`cdddddddddddd",
"dddddddddd`dddddddc`dddddddddddd",
"dddddddddd`ddddddcdd`ddddddddddd",
"dddddddddd`dddeecdddd`dddddddddd",
"dddddddddd`ddeeeeddddd`ddddddddd",
"dddddddddd`adeeeeadadad`dadddddd",
"dddddddddd`daceeadadadad`daddddd",
"ddddddddd``acadadadadadad`dadddd",
"dddddddd`b````````````````ddaddd",
"ddddddd`bbb`dddddddddddddadadadd",
"dddddd`bbb`dddddddddddddddadadad",
"ddddd`bbb`dddddddddddddddadadada",
"d````bbb`dddddddddddddddadadadad",
"dd`bbbb`dddddddddddddddddadadada",
"ddd`bb`dddddddddddddddddadadadad",
"dddd`b`ddddddddddddddddadadadada",
"ddddd``dddddddddddddddddadadadad",
"dddddd`ddddddddadddddddadadadada",
"ddddddddddddddddadddddadadadadad",
"dddddddddddddddadadddadadadadada",
"ddddddddddddddddadadddadadadadad",
"dddddddddddddddddadadadadadadada",
"ddddddddddddddddadadadadadadadad"
};
