/* XPM */
static char *medical_xpm[] = {
/* width height ncolors chars_per_pixel */
"32 32 6 1",
/* colors */
"` c black",
"a c firebrick",
"b c grey",
"c c red",
"d c white",
"e c slate grey",
/* pixels */
"cccccccccccccccccccccccccccccccc",
"cccccccccccccca``acccccccccccccc",
"ccccccccccccc`ebbe`ccccccccccccc",
"ccccccccccccaebddbeacccccccccccc",
"ccccaa```acc`bddddb`ccca```acccc",
"ccaa`eeee`ac`bddddb`cc``eee``acc",
"ca``eddddb`caebddbe`c`ebdddde`ac",
"a`edde`dddeac`ebbe`caedddd`dde`a",
"`bdd``de`dd`ac````ca`dd`edd`dde`",
"a```ede`ebde`ac``ca`dddd``dd``ac",
"caa`````````````d``a````````accc",
"cccccccca`eee`c`d`c``ee`accccccc",
"ccccccca`eddd```d``eddde`acccccc",
"ccccccc`edd`dd``d``ed`dde`cccccc",
"ccccccc`ddddd`a`d`a`edddd`cccccc",
"ccccccc`ddde`ac`d`cc``ddd`cccccc",
"ccccccc`edd`acc`d`ca`bddb`cccccc",
"ccccccca`bdd````````bdde`acccccc",
"cccccccca`bddddddde`````accccccc",
"ccccccccca`edddddddde`accccccccc",
"ccccccccc`e```````edde`ccccccccc",
"ccccccccc`bddde`d``ede`ccccccccc",
"ccccccccca`edddee``ede`ccccccccc",
"cccccccccca`ebdddd`ee`accccccccc",
"cccccccccccaa``ebdde`acccccccccc",
"cccccccccccc`ed``bde`ccccccccccc",
"cccccccccccc`d`e``dd`ccccccccccc",
"cccccccccccc``edd`dd`ccccccccccc",
"cccccccccccc`ede``dd`ccccccccccc",
"cccccccccccc`de`d`dd`ccccccccccc",
"cccccccccccce`de``deaccccccccccc",
"ccccccccccccce`dd`e`cccccccccccc"
};
