/* XPM */
static char * 3dpacm_xpm[] = {
/* width height ncolors chars_per_pixel */
"32 32 5 1",
/* colors */
" 	c black",
".	c yellow",
"X	c slate grey",
"o	c white",
"O	c sea green",
/* pixels */
"                                ",
"               .......          ",
"             ...........        ",
"            .....  ......       ",
"             ....  .......      ",
"            X  ...........      ",
"            XXX  ..........     ",
"              XXX  ........ X   ",
"                XXX ....... XX  ",
"                   ........ XX  ",
"                 .......... XX  ",
"               ........... XXX  ",
"             ............. XXX  ",
"            ............. XXXX  ",
"             ........... XXXXX  ",
"            X  .......  XXXXX   ",
"   ooooo     XX       XXXXXX    ",
"  ooooooo     XXXXXXXXXXXXX     ",
" ooooooooo     XXXXXXXXXXX      ",
" ooooooooo       XXXXXXX        ",
" ooooooooo X                    ",
" ooooooooo XX                   ",
"  ooooooo XXX     OOOOO         ",
"   ooooo XXXX   OOOOOOOOO       ",
"  X     XXXXX  OOOOOOOOOOO      ",
"   XXXXXXXXX  OOOOOOOOOOOOO     ",
"    XXXXXXX   OO  OOOOO  OO     ",
"     XXXXX   OO    OOO    OO    ",
"             OOo  oOOOo  oOO    ",
"             OOooooOOOooooOO X  ",
"             OOOooOOOOOooOOO XX ",
"             OOOOOOOOOOOOOOO XX "};
