/* XPM */
static char *HS_xpm[] = {
/* width height ncolors chars_per_pixel */
"32 32 6 1",
/* colors */
"` c black",
"a c firebrick",
"b c grey",
"c c sienna",
"d c white",
"e c gold",
/* pixels */
"bbbbbbbbbbbbbbbbbbbbbbbbbbbbbbbb",
"bbbbbbbbbbbbbbbbbbbbbbbbbbbbbbbb",
"bbbbbbbbbbbbbbbbbbbbbbbbbbbbbbbb",
"bbbbbbbbbbbbbbbbbbbbbbbbbbbbbbbb",
"bbbbbbbbbbbbbbbbbbbbbbbbb```bbbb",
"bbbbbbbbbbbbbbbbbbbbbb````bbbbbb",
"bbbbbbbbbbbbbbbbbbb````bbbbbbbbb",
"bbbbbbbbbbbbbbbb````bbbbbbbbbbbb",
"bbbbbbbbbbbbb````bb`bbbbbbbbbbbb",
"bbbbbbbbbb````bbbbb`bbbbbbbbbbbb",
"bbbbbbb````bbbbbbbb`bbbbbbbbbbbb",
"bbbb``eeeeeeeeebbbb`bbbbbbbbbbbb",
"bb````ededededebbbb`bbbbbbbbbbbb",
"``````ee`e`e`ee`````````ca`aa`ca",
"`acaacededededeaacaac```c``c`c``",
"`caacaee`````eeacacac````c``c`c`",
"`accaceeeeeeeeecacaca`````c````a",
"``a````````````````````````````b",
"``d`d`d`d`d`d`d`d`d`d```````babb",
"``d`d`d`d`d`d`d`d`d`d`````bbb`bb",
"`dddddddddddddddddddd```bbbbb`bb",
"`aacaaacacacaaacaacac`bbbbbbb`bb",
"````a`````````````````bbbbbbb`bb",
"baccbbbbbbbbbbbbbbcccbbbbbbbbbab",
"bbabbbbbbbbbbbbbbbbabbbbbbbbbbbb",
"bbcbbbbbbbbbbbbbbbbcbbbbbbbbbbbb",
"bbcbbbbbbbbbbbbbbbbabbbbbbbbbbbb",
"bbabbbbbbbbbbbbbbbbcbbbbbbbbbbbb",
"bbcbbbbbbbbbbbbbbbbabbbbbbbbbbbb",
"bcbbbbbbbbbbbbbbbbbbabbbbbbbbbbb",
"bbbbbbbbbbbbbbbbbbbbbbbbbbbbbbbb",
"bbbbbbbbbbbbbbbbbbbbbbbbbbbbbbbb"
};
