/* XPM */
static char *picture[] = {
/* width height ncolors chars_per_pixel */
"32 32 8 1",
/* colors */
"` c black",
"a c cyan",
"b c dodger blue",
"c c grey",
"d c red",
"e c white",
"f c slate grey",
"g c pale green",
/* pixels */
"eeeeeeeeeeeeeeeeeeeeeeeeeeeeeeee",
"eee````````````````````````eeeee",
"ee`eeeeeeeeeeeeeeeeeeeeeeee`eeee",
"e`ecccccccccccccccccccccccce`eee",
"`ec````````````````````````ce`ee",
"`ec`eeeeeeeaaaaaaaaeeeeeee`ce`ce",
"`ec`eeeeeeaaaaeeeeeeeeeeee`ce`cc",
"`ec`eeeeeeeeeeegeeeeeeeeee`ce`cc",
"`ec`eaaaeeeeegggeeaaaaaeee`ce`cc",
"`ec`eeaaaeeeegcfgeeeaaaaee`ce`cc",
"`ec`eeeeeeefgcggggeeeeeeee`ce`cc",
"`ec`eeeeeeeggggfggeeeeeeee`ce`cc",
"`ec`aaeeeegcgcfgcggeaaaaee`ce`cc",
"`ec`eaaaeegfgggggcgeeeaaae`ce`cc",
"`ec`eeeeegggggfgcgfgeeeeee`ce`cc",
"`ec`eeeeegcgfcgggcggeeeeee`ce`cc",
"`ec`eeeegfgfgfdfgfgfgeeeee`ce`cc",
"`ec`eeeeeggggddgcgfgeeeeee`ce`cc",
"`ec`bbbbbbgggdddgggbbbbbbb`ce`cc",
"`ec`bbbbbbbbfgdgfbbbbbbbbb`ce`cc",
"`ec`bbbbbbbbbdddbbbbbbbbbb`ce`cc",
"`ec`deddecdecdddccdedddced`ce`cc",
"`ec`ececdeedcdddecececedee`ce`cc",
"`ec`dedededceccededdedeecd`ce`cc",
"`ec`dcededeedeedecedededed`ce`cc",
"`ec`edcedecdededcddedecdec`ce`cc",
"`ec````````````````````````ce`cc",
"e`ecccccccccccccccccccccccce`ccc",
"ee`eeeeeeeeeeeeeeeeeeeeeeee`ccce",
"eee````````````````````````cccee",
"eeeeccccccccccccccccccccccccceee",
"eeeeeccccccccccccccccccccccceeee"
};
