/* XPM */
static char *printer_xpm[] = {
/* width height ncolors chars_per_pixel */
"32 32 5 1",
/* colors */
"` c black",
"a c sienna",
"b c dark slate grey",
"c c white",
"d c yellow",
/* pixels */
"cccccccccccccccccccccccccccccccc",
"cccccccccccccccccccccccccccccccc",
"cccccccccccc````````````````````",
"cccccccccccc`cccccccccccccccccc`",
"ccccccccccc`cccccccccccccccccc``",
"ccccccccccc`ccbbbbbbbbbbbbbccc``",
"cccccccccc`cccccccccccccccccc`c`",
"cccccccccc`ccbbbbbbbbbbbbbccc`c`",
"ccccccccc`cccccccccccccccccc`cc`",
"ccccccccc`ccbbbbbbbbbbbbbccc`cc`",
"cccccccc`cccccccccccccccccc`````",
"cccccccc`ccbbbbbbbbbbbbcccc`cccc",
"ccccccc`cccccccccccccccccc`ccccc",
"ccccc```cccccccccccccccccc``````",
"cccc`d`cccccccccccccccccc`adad``",
"ccc`da````````````````````bad`d`",
"cc`dabbbbbbbbbbbbbbbbbbbbbad`da`",
"c`dadadadadadadadadadadadad`dad`",
"```````````````````````````dada`",
"`adadadadadadadadadadadada`adad`",
"`dadadadadadada````````cad`dada`",
"`adadadadadadad`bbbbbbbcda`adad`",
"`dadadadadadada`bbbbbbbcad`dada`",
"`adadadadadadad`bbbbbbbcda`ada`c",
"`dadadadadadada`ccccccccad`da`bb",
"`adadadadadadadadadadadada`a`bbc",
"`dadadadadadadadadadadadad``bbcc",
"```````````````````````````bbccc",
"ccbbbbbbbbbbbbbbbbbbbbbbbbbbcccc",
"cccbbbbbbbbbbbbbbbbbbbbbbbbccccc",
"cccccccccccccccccccccccccccccccc",
"cccccccccccccccccccccccccccccccc"
};
