/* XPM */
static char * startrek_grey_xpm[] = {
/* width height ncolors chars_per_pixel */
"32 32 4 1",
/* colors */
" 	c white",
".	c black",
"X	c grey",
"o	c peru",
/* pixels */
"                                ",
"                                ",
"                .               ",
"                ..              ",
"               ....             ",
"               .X .             ",
"              ..X ..            ",
"              ..XX .            ",
"             ..XXX ..           ",
"             ..XXX ..           ",
"           ....XXXX ...         ",
"        ...o..XXXXX ..o..       ",
"      ..oooo..XXXXX ..ooo..     ",
"     .ooo.....XXXXXX ....oo.    ",
"    .ooo.oo..XXXXXXX ..oo.oo.   ",
"   .oo..ooo..XXXXXXX ..ooo.oo.  ",
"   .o..oooo..XXXXXXXX ..ooo.o.  ",
"   .o.oooo..XXXXXXXXX ..ooo.o.  ",
"   .o..ooo..XXXXXXXXXX ..oo.o.  ",
"    .o..oo..XXXXX..XXX ..o.o.   ",
"     .oo...XXXXX....XX ...o.    ",
"      ..o..XXXX..oo..XX ...     ",
"        ...XXX........X ..      ",
"         .XXX..oooooo..X .      ",
"         .XX............ .      ",
"        ..XX..         ...      ",
"        .XX..           ..      ",
"        .X..             .      ",
"        ...                     ",
"        ..                      ",
"                                ",
"                                "};
