/* XPM */
static char * image_name[] = {
"48 48 115 2",
"  	c None",
". 	c #104020811040",
"X 	c #2081208130C2",
"o 	c #208130C22081",
"O 	c #208120812081",
"+ 	c #104020812081",
"@ 	c #104010402081",
"# 	c #000010401040",
"$ 	c #104010401040",
"% 	c #000010400000",
"& 	c #000000001040",
"* 	c #000000000000",
"= 	c #30C220812081",
"- 	c #EFBEEFBEDF7D",
"; 	c #EFBEDF7DEFBE",
": 	c #EFBEEFBEEFBE",
"> 	c #965892488617",
", 	c #104000001040",
"< 	c #71C671C671C6",
"1 	c #514441035144",
"2 	c #410351444103",
"3 	c #410341034103",
"4 	c #30C241034103",
"5 	c #410330C24103",
"6 	c #BEFBBEFBBEFB",
"7 	c #965892489658",
"8 	c #104000000000",
"9 	c #208100000000",
"0 	c #AEBAAEBAAEBA",
"q 	c #30C200000000",
"w 	c #410300000000",
"e 	c #514400000000",
"r 	c #AEBABEFBAEBA",
"t 	c #514441034103",
"y 	c #861700000000",
"u 	c #965800000000",
"i 	c #BEFBAEBAAEBA",
"p 	c #BEFB00000000",
"a 	c #DF7D00000000",
"s 	c #EFBE00000000",
"d 	c #104010400000",
"f 	c #861792488617",
"g 	c #71C600000000",
"h 	c #AEBA00000000",
"j 	c #9E79AEBAAEBA",
"k 	c #965882079658",
"l 	c #AEBAA289AEBA",
"z 	c #208110402081",
"x 	c #9E79AEBA9E79",
"c 	c #861782079658",
"v 	c #861782078617",
"b 	c #DF7DEFBEDF7D",
"n 	c #30C210401040",
"m 	c #410320810000",
"M 	c #618520811040",
"N 	c #514420810000",
"B 	c #410310401040",
"V 	c #30C210400000",
"C 	c #208110400000",
"Z 	c #410310400000",
"A 	c #71C620810000",
"S 	c #9E7930C21040",
"D 	c #9E7930C20000",
"F 	c #965820811040",
"G 	c #514410400000",
"H 	c #AEBAA2899E79",
"J 	c #DF7DDF7DEFBE",
"K 	c #618520810000",
"L 	c #AEBA30C21040",
"P 	c #CF3C51441040",
"I 	c #EFBE41031040",
"U 	c #71C630C20000",
"Y 	c #514410401040",
"T 	c #208110401040",
"R 	c #DF7DDF7DDF7D",
"E 	c #861720811040",
"W 	c #BEFB41030000",
"Q 	c #EFBE71C61040",
"! 	c #EFBE61851040",
"~ 	c #71C6820771C6",
"^ 	c #AEBA41031040",
"/ 	c #30C220810000",
"( 	c #208100001040",
") 	c #861771C68617",
"_ 	c #965830C20000",
"` 	c #71C620811040",
"' 	c #9E79A2899E79",
"] 	c #618510400000",
"[ 	c #9658A2899E79",
"{ 	c #71C671C68617",
"} 	c #DF7DDF7DCF3C",
"| 	c #9E7992489E79",
" .	c #71C671C66185",
"..	c #30C2410330C2",
"X.	c #000020810000",
"o.	c #CF3CDF7DCF3C",
"O.	c #000030C20000",
"+.	c #CF3CCF3CDF7D",
"@.	c #000041030000",
"#.	c #CF3CCF3CCF3C",
"$.	c #618571C66185",
"%.	c #9658A2899658",
"&.	c #71C6618571C6",
"*.	c #410330C230C2",
"=.	c #CF3CBEFBCF3C",
"-.	c #CF3CCF3CBEFB",
";.	c #618551446185",
":.	c #514461855144",
">.	c #514451446185",
",.	c #410351445144",
"<.	c #30C230C24103",
"1.	c #514451445144",
"2.	c #618561856185",
"3.	c #30C230C230C2",
"4.	c #514461856185",
"                                                                                                ",
"                                                                                                ",
"                                                                                                ",
"                            . X o X o O + O . @ # $ # $ % & % * * @ %                           ",
"                            = - ; : : - ; : : - ; : : - ; : : - ; > ,                           ",
"                            O : < 1 2 1 2 1 2 3 3 3 4 3 4 3 4 5 6 7 #                           ",
"                            = : 1 $ , $ , 8 9 9 9 8 9 * * * * * 0 > ,                           ",
"                            o : 2 $ $ $ 8 q w e w q 9 9 * * * * r 7 #                           ",
"                            O - t $ , 8 w y u u u y e q 9 8 * * i > ,                           ",
"                            O : 2 $ 8 9 e y p a s p y w 9 8 * * 0 7 #                           ",
"                            O : 1 d 9 q u p s s s s p e w 8 8 * 0 f ,                           ",
"                            o : 2 , 8 w g h a s s s s y q 9 * * j k #                           ",
"                            O - t d 9 q g p p s s s p y w 9 8 * l f ,                           ",
"                            + : 2 $ 8 q e u u h p p p e q 9 * * j k %                           ",
"                            z - 1 d 8 9 w e g u u g y w q 8 8 * l f ,                           ",
"                            O : 2 $ % 8 9 w w e e e q q 8 8 * * x c #                           ",
"                            O - t $ , 8 9 9 q q w q q 8 8 * * * l v ,                           ",
"                            . ; 2 $ # , % 8 8 9 8 9 8 8 * * * * x c %                           ",
"                            z b t d , * , 8 9 8 9 8 8 8 8 * * * l v ,                           ",
"                            . ; 2 $ # , d n m M N B V C % * * * x v %                           ",
"                            z b t d 8 d Z A S D F A G V 9 8 * * H v ,                           ",
"                            . J 2 , d n K L P I I S U Y C 9 * * x v %                           ",
"                            T R 3 % 9 Z E W I Q ! I F K Z C 8 * H ~ 8                           ",
"                            . R 3 , d Z U ^ ! ! ! I W M / ( % * x ) %                           ",
"                            $ R 5 % 9 V A _ I I I W F K Z C 8 * H ~ ,                           ",
"                            $ J 3 , d n m ` _ W W U U Y V 9 % * ' ) %                           ",
"                            , R 5 % 8 C Z N A U ` K ] Z 9 d 8 * ' < 8                           ",
"                            # R 4 & % 8 C n m Y m B / V d 8 * * [ { %                           ",
"                            , } 5 * 8 % 9 C q C V V 9 d 8 * * * | < 8                           ",
"                            % R 4 & % & % 8 d , d 8 d 8 % * * * ' < %                           ",
"                            , } 5 * 8 * * % * % % % * % * * * * |  .8                           ",
"                            % R ..& % * % % X.X.X.% X.% % * * * [ < %                           ",
"                            8 o.5 * * % % X.X.O.O.O.X.X.* % * * |  .*                           ",
"                            % +...* % * X.X.@.@.@.O.O.X.% % % * [ < *                           ",
"                            8 #.5 * * % % O.O.@.O.@.X.X.% % * * | $.*                           ",
"                            % +...* % % X.X.@.O.@.O.O.X.X.% % * %.&.*                           ",
"                            8 #.*.* * % % X.X.O.O.O.X.X.% % * * | $.*                           ",
"                            * +...* % * % % X.X.O.X.X.% % * % * [ &.*                           ",
"                            * #.*.* * * * % % X.% X.% % * % * * | $.*                           ",
"                            * #...* * * % * % % % % % % % * % * %.&.*                           ",
"                            * #.*.* * * * * * % * % * * * * * * | $.*                           ",
"                            * #...* * * * * * * % * * * * * * * [ &.*                           ",
"                            * #.#.#.=.#.#.-.=.#.#.-.=.#.#.-.=.#.#.$.*                           ",
"                            % ;.:.>.:.>.,.1 2 3 3 3 4 3 ..<...<...z *                           ",
"                                          1.1 o z * *                                           ",
"                                          k 7 < 2 X %                                           ",
"                                          ' 0 v 2.3.,                                           ",
"                                          ' j k 4.<.#                                           "};
