/* XPM */
static char * image_name[] = {
"48 48 219 2",
"  	c None",
". 	c #18610C300820",
"X 	c #38E3249228A2",
"o 	c #28A220812081",
"O 	c #10400C300820",
"+ 	c #000000000000",
"@ 	c #208118611861",
"# 	c #28A214511861",
"$ 	c #410330C228A2",
"% 	c #38E324922081",
"& 	c #514438E330C2",
"* 	c #8E386DB669A6",
"= 	c #69A64D344924",
"- 	c #79E75D755965",
"; 	c #69A655554924",
": 	c #4103249228A2",
"> 	c #492438E330C2",
", 	c #71C661855144",
"< 	c #28A214511040",
"1 	c #082004100000",
"2 	c #51443CF338E3",
"3 	c #514434D328A2",
"4 	c #596534D330C2",
"5 	c #59653CF330C2",
"6 	c #514434D330C2",
"7 	c #38E324921861",
"8 	c #61854D344103",
"9 	c #618545144103",
"0 	c #59653CF338E3",
"q 	c #38E31C711861",
"w 	c #69A649244103",
"e 	c #965871C669A6",
"r 	c #41032CB228A2",
"t 	c #86176DB669A6",
"y 	c #6185451438E3",
"u 	c #28A218610820",
"i 	c #30C21C711040",
"p 	c #9E797DF771C6",
"a 	c #492430C230C2",
"s 	c #49242CB22081",
"d 	c #492434D328A2",
"f 	c #410328A22081",
"g 	c #71C655554924",
"h 	c #71C655555144",
"j 	c #514430C22081",
"k 	c #69A645144103",
"l 	c #208110401040",
"z 	c #596545144103",
"x 	c #28A210400820",
"c 	c #5965451438E3",
"v 	c #69A6451438E3",
"b 	c #5965410338E3",
"n 	c #9E79820779E7",
"m 	c #8E3871C669A6",
"M 	c #71C64D344924",
"N 	c #B6DA8E388E38",
"B 	c #208110400000",
"V 	c #28A214510820",
"C 	c #61853CF338E3",
"Z 	c #A699820779E7",
"A 	c #69A64D344103",
"S 	c #492424922081",
"D 	c #30C214510820",
"F 	c #28A20C300820",
"G 	c #9E7975D669A6",
"H 	c #71C659655965",
"J 	c #69A649244924",
"K 	c #861765956185",
"L 	c #71C659655144",
"P 	c #410328A21861",
"I 	c #596534D338E3",
"U 	c #861769A66185",
"Y 	c #410324921861",
"T 	c #861761855965",
"R 	c #B6DA96588E38",
"E 	c #96586DB671C6",
"W 	c #861765955144",
"Q 	c #71C64D344103",
"! 	c #410320811861",
"~ 	c #28A20C300000",
"^ 	c #965875D671C6",
"/ 	c #30C214511040",
"( 	c #8E385D756185",
") 	c #38E32CB228A2",
"_ 	c #38E330C230C2",
"` 	c #69A655555144",
"' 	c #492438E328A2",
"] 	c #28A218611040",
"[ 	c #79E75D755144",
"{ 	c #618549244103",
"} 	c #AEBA92488617",
"| 	c #AEBA8E388E38",
" .	c #30C218611040",
"..	c #71C659654924",
"X.	c #8E3871C671C6",
"o.	c #79E761855144",
"O.	c #104008200820",
"+.	c #38E31C712081",
"@.	c #596534D328A2",
"#.	c #618538E330C2",
"$.	c #59652CB228A2",
"%.	c #9E797DF779E7",
"&.	c #96587DF779E7",
"*.	c #AEBA86178617",
"=.	c #5144410330C2",
"-.	c #69A651444103",
";.	c #69A659655144",
":.	c #965875D679E7",
">.	c #79E761855965",
",.	c #51442CB228A2",
"<.	c #41032CB21861",
"1.	c #8E3871C66185",
"2.	c #AEBA8A288617",
"3.	c #B6DA92489658",
"4.	c #96587DF769A6",
"5.	c #AEBA92488E38",
"6.	c #208108200820",
"7.	c #41032CB22081",
"8.	c #49242CB228A2",
"9.	c #38E318611040",
"0.	c #492428A22081",
"q.	c #8E386DB66185",
"w.	c #9E7975D679E7",
"e.	c #8E3865955965",
"r.	c #B6DA8E388617",
"t.	c #A69986178617",
"y.	c #965869A66185",
"u.	c #8E38659569A6",
"i.	c #A6997DF771C6",
"p.	c #208108200000",
"a.	c #30C220811861",
"s.	c #492434D32081",
"d.	c #28A220811040",
"f.	c #38E31C711040",
"g.	c #965879E771C6",
"h.	c #8E3861856185",
"j.	c #A6998A288E38",
"k.	c #79E765955965",
"l.	c #8E3879E769A6",
"z.	c #596538E330C2",
"x.	c #79E761856185",
"c.	c #30C220811040",
"v.	c #96586DB669A6",
"b.	c #71C651444924",
"n.	c #71C64D345144",
"m.	c #861755555144",
"M.	c #186104100000",
"N.	c #79E769A66185",
"B.	c #69A6492438E3",
"V.	c #28A204100000",
"C.	c #20811C711861",
"Z.	c #79E759654924",
"A.	c #B6DA92488E38",
"S.	c #A6998A2879E7",
"D.	c #38E314510820",
"F.	c #30C20C300000",
"G.	c #9E79820771C6",
"H.	c #410324922081",
"J.	c #9E7975D671C6",
"K.	c #41031C711861",
"L.	c #B6DA9E799658",
"P.	c #79E74D344103",
"I.	c #8E3869A65965",
"U.	c #AEBA8A2879E7",
"Y.	c #20810C300000",
"T.	c #861771C66185",
"R.	c #AEBA924879E7",
"E.	c #86175D755965",
"W.	c #AEBA861779E7",
"Q.	c #9E796DB669A6",
"!.	c #9E798A2871C6",
"~.	c #79E755555144",
"^.	c #A6997DF779E7",
"/.	c #61854D3438E3",
"(.	c #618551444103",
").	c #618534D338E3",
"_.	c #514428A228A2",
"`.	c #9E7979E769A6",
"'.	c #492430C22081",
"].	c #79E751444924",
"[.	c #38E324921040",
"{.	c #596538E328A2",
"}.	c #A699820771C6",
"|.	c #C71BA2899E79",
" X	c #6185492438E3",
".X	c #38E320810820",
"XX	c #79E769A65965",
"oX	c #C71BA2899658",
"OX	c #5965410330C2",
"+X	c #618538E34103",
"@X	c #9658820771C6",
"#X	c #B6DA96589658",
"$X	c #082008200820",
"%X	c #BEFBAAAA9658",
"&X	c #AEBA96589658",
"*X	c #A69979E779E7",
"=X	c #BEFB9A698E38",
"-X	c #C71BAAAA9E79",
";X	c #B6DAA6999658",
":X	c #208114511040",
">X	c #30C20C300820",
",X	c #BEFB9A699658",
"<X	c #410330C230C2",
"1X	c #A6998A288617",
"2X	c #59653CF34103",
"3X	c #9E7982078617",
"4X	c #BEFB9E799658",
"5X	c #69A641034103",
"6X	c #BEFBA6999658",
"7X	c #8E386DB671C6",
"8X	c #69A661855144",
"9X	c #C71BAAAAA699",
"0X	c #AEBA9A698617",
"qX	c #104010401040",
"wX	c #30C210401040",
"eX	c #B6DA9A698E38",
"rX	c #410338E330C2",
"tX	c #492434D338E3",
"yX	c #20810C301040",
"                                                            . X X o o O                         ",
"                                                  + @ # $ % & * = = - ; : +                     ",
"                                + @ > , < 1 1 2 3 2 4 5 3 6 7 8 9 0 q w ; .                     ",
"                              . 2 e r t y u i p * - a s d y 3 f g h j q y k @                   ",
"                + 1 1 l z 6 x z c v b n m < M N p g s B V 0 C f Z A S D F G H 1 +               ",
"              O J K = 9 L & P L k I 6 U U Y T R E W Q ! ~ I 5 s ^ d q Y / e ^ ( )               ",
"          _ ` U g z ' ] U [ 8 L b b * p ` { } } | m k s  .k y y 3 ..X.Q = p K o.y O.            ",
"        +.5 [ C @.@.S A #.@.$.9 k ; [ %.0 2 K &.*.} =.T e -.' g ;.&.%.:.m o.T [ >.X             ",
"    X > ,.<.0 & Y q q s ,.$.5 T T * y h H h p 1.2.3.%.y 4.[ 3 9 p U 5.U K o.^ ^ ^ v 6.          ",
"    o 7.8.7.&  .q 9.Y & 0.5 5 q.w.e.e.8 L q.r.[ h %.t.>.y.g s s t n t.h >.u.^ i.Z t D L @       ",
"  1 p.a.s.s.d.B f.+.Y a. .C 0 >.C q.g.h.- e p 9 q m %.^ o.y C s 5 j.T - L U e p p k.~ n l.@     ",
"  6.q B s.' u V z.7 7 { x.- 7.g A ^ U X.* * T : c.3 - v.b.{ 0 z.d [ n.; m.b.h v.q.2 x p ^ ;.+   ",
"  M.< B c.u B ~ 7 r k.2.u.& 7 9.! N.K ^ m U 0 9 u x 6 t y >.o.$ 2 ; x.S * L B.k 6 V.0 g.:.:.C.  ",
"  M.D 7 V V V V c.Z.A.S.c 0 @.D.F.0.e e T E M j F D C A G.G.U w H.P ! : 6 y 4 y  .x l.J.e g.h   ",
"1 / K.K.B B B /  .L L.P.6 0 I.3 ! D q.U.K 9 ( Y Y.B 8.2.j.u.g 8.3 H.x Y.q M k >.y T.R.H - G.U o ",
"1 q f.q K.B f 3 ~ c | L y z.E.3 D ! W.Q.h.4 T 4 ~ Y.S !.} [ ,.8.C ~.y 0.9.[ [ g.t.5.^.* ,.j h o ",
"1 q D 7 < B S s.~ d 9 1.p A z.D.s 1.A.^./.-.K 5 Y.Y.V e U.[ ,.3 5 0 (.s.Y.0 %.&.2.!.J.g.H 7 F . ",
"O.)._.H.F D 6 $.!  .i Y { 8 j B.* ^.%.`.9 g c 7.~ Y.V -.J.g.8 I 8.y y /.~ = k.^ ^.r.w p g.k V.1 ",
"1 c K 7.D ' 3 4 <.c.u q i 8 z.o.- 1.- ; 9 & f V V i i A = K ^ - ~.d y 7.7 ^ K ( T g.o.!.i.,.M.1 ",
"  a.o.m.S y ! 3 K.Y c.s '.5 ,.I.3 T 8 S 4 D V V u i S G.y 4 u.Z E.z k =.g T %.L [ K ^ m h D.6.  ",
"  z o.h.$ @.j Q 3 a.s.d C 3 6 4 C e.5 7 q V  .x 7.! y p w ).= 2 = J.*.J.M 1.*.p ^ - C C S S 9   ",
"  b 4.M s.; ; ].@.[.j v = 9 & {.o.& & c.] 7 7 K.-.b A ; B.- [ b.T U G.}.}.|.2.@.h.1.C  XK.; >.  ",
"  % ^.&.0 q P 5 v 7 P.c w e { & k Q _..X .h.r g Z s Y W q.r.X.S.| p XXp 2.oX- H.m g.A OX].p L O ",
"+ p.v 4.m.q ~ s 6 +XT.h 8 g 9 s.s [ W OX..y H.U 1.u b.S.} 5.*.p U.@X, h.= oXW.U.#X| g.h.G.m >.o ",
"$XK.i 5 K.Y F 7 q A w U ' +Xf.3 m.^ 2.L.q.P : y U 9.m %X&XA.!.*Xg.^ o.].w t ^ U =X#Xn w.^ >.h.C.",
"1 f.S f.i x V / V H.& ..OXA u m *.t.W.p K  .8.H.& <.-X5.r.3.g.t q.].^...v.3 y.3 e ;X#Xi.1.9 >.:X",
"1 3 4 Y V Y.q q S q 7 T c.f h | 5.^.].y & D.i q b 0.oXR y.^ L g g m.Z E.W.T & 0.0.@XA.p Q g >   ",
"O.-.k q H.>Xq Y s i q 3 d 5 e S.8 m b c '.s i D / 7.,XA.- ; y Z.Q 9 l.>.*X^ y j D ..^.W.g 8 <X  ",
"1 6 +Xq S 0 H.Y ! ! ~ v w k G.1Xk W & 3 '.,. .V >X0 ^.=Xq.b.0 Q 5 3 A.%.%.i.y D.D [ R W v 9 @   ",
"  a H a  XC f.4 3 / V d 0 '.%.t.OXA 2X=.z @.0.~ V 9.w.U.Z K L L y q.q.3X!.w.-.D >X3 %X0 h U     ",
"  1 = @.K.0.#.K.,.x ~ d 3 $.[ 2.L 9 h j w $.S u F.>Xh ;X5.p * g v q.E.R t.e.Y f./  XoXL ).O     ",
"  + <X8.D F 3 s s d p.y ).@.6 Z e 8.g s 9 a 8.u ~ F.= G ,Xg.n K K W U.i.[ = 5 { 7 K %XE.g O     ",
"    C.,.q D ! g 7.3 V b g S s M 1.= s.,.3 S K.u ~ 7 ; q.Z.^ p T J.E y.Y e 4XE.7 5X2.oXJ.X +     ",
"      5  .f.3 [ S 7.0 /.3 5 @.5 j A ..c Y x V  .7.T [ h 8 OX9 g q.m.b k 6X^ 0 V Y L.R h.)       ",
"      5 3 & W ! 7 3 z.5 S 3 0 0 P T e f.d i F H.g.7Xh C Q C f y Q v - T A.g.A i Z.A.U.=Xx.      ",
"      6 0 4 h 5 V 7 S 9 S s.; H.; 8X7.H.V q 3 x.S.w 9 A o.$.9.@.-.I.9X/.3 e }.W R 2.T -X;.      ",
"      ] g 0 ^ / F K.6 y d -.c 3 s.,.0 y S q _.q.2.h k - b.&  .5 W I.#Xg 9.I.0X*.^ v.e 9XO       ",
"      qX8 Y Z.~ wX,.& 3 [.' K - B.).{ 4 y 5X6 * 1X1XT.m ;.j & I r.5.e ^.v.^.w.N J.I.[ =XO.      ",
"        o ~ h / f.S & s.c.S.n 7 = C 6 k 3 7.3 v * e j.} ,.o.G. Xi.} ^ eXN %.Z i.u.1X}.`         ",
"          qXi q 5Xq o.= 0 8 ( f M w v 4 ,.7 d - b T J.=Xi.~.* q.Z J.3.5.#X*X}.I.W.Z >.1         ",
"            1 ] v h q.k 5 { 8.3 A 5 5 $.c 3 J C s.b.J.S.~.' Z |.} g.^.%.*.| #XZ 2.U 1           ",
"              1 :XU Z ; 5 d i 3 H..XY 7 f T q.0./.T T 0 g 8 |.eXN | E.T E.v.*XA.1X)             ",
"                  O rXT.7.a./.'.i 9.u D = :.g & 7 M ` - >.h N G.^ t.6X6XJ k.T p tX              ",
"                      > 3 i 7.f  .9. ./ 6 T E.0 K.].h.g &.5 i.e * n N w.p u.g > O.              ",
"                        ) 7.7.c.i Y d Y 8.8 OXv y #X%.H.~...e ^.y.n 1Xv.w.k.c.                  ",
"                          yX< 0.5 #.' 5 3 ).Q q.A e c c C y.N R m.K M M U o                     ",
"                              @ ] l c.H.! ,.n g.T r tXq ..U %.=X,X- f x 1                       ",
"                                    + 1 1 1 $X$X1       $X$X$XO.O.$X+                           "};
