/* XPM */
static char *mm_ico[] = {
/* width height num_colors chars_per_pixel */
"    56    56        6            1",
/* colors */
". c #000000",
"# c #848484",
"a c #c6c6c6",
"b c none",
"c c #8d8d8d",
"d c #ffffff",
/* pixels */
"bbbbbbbbbbbbbbbbbbbbbbbb..........bbbbbbbbbbbbbbbbbbbbbb",
"bbbbbbbbbbbbbbbbbbbbb....########....bbbbbbbbbbbbbbbbbbb",
"bbbbbbbbbbbbbbbbbb....dddddddddd####....bbbbbbbbbbbbbbbb",
"bbbbbbbbbbbbbbbb...ddddbbbbbbbbdddd####...bbbbbbbbbbbbbb",
"bbbbbbbbbbbbbbb.#dddbbbb..........dddd###..bbbbbbbbbbbbb",
"bbbbbbbbbbbbb.bbdbbbb....########....ddd##...bbbbbbbbbbb",
"bbbbbbbbbbbb.#dbbb....dddddddddd####...#d###..bbbbbbbbbb",
"bbbbbbbbbbbbbbbbbbbbdddbbbbbbbbdddd####.#dd##..bbbbbbbbb",
"bbbbbbbddddddddddddddddabbbbbbbbbbdddd##..#d##..bbbbbbbb",
"bbbbbbbdcacacacacacacac.bbbbbbbbbbbbbdd###.#d##..bbbbbbb",
"bbbbbbbdac..cc.cacacacc.bbbbbbbbbbbbbbddd##.#d##..bbbbbb",
"bbbbbbbdc.aa.a.acacacac.bbbbbbbbbbbbbbbbdd##.#d##..bbbbb",
"bbbbbbbda.aa.c...cac..c.bbbbbbbbbbbbbbbbbdd##.#d##.bbbbb",
"bbbbbdbdc....a.aa.c.cac.bbbbbbbbbbbbbbbbbbdd##.#d#..bbbb",
"bbbbbbbda.aa.c.aa.a.acc.bbbbbbbbbbbbbbbbbbbdd##.d##..bbb",
"bbbbdbbdc.ca.a...ccc..c.bbbbbbbbbbbbbbbbbbbbdd#.#d##.bbb",
"bbbd#.bda#ac#accccacccc.bbbbbbbbbbbbbbbbbbbbbd##.#d#..bb",
"bbbd.bbdcccccccddddddddddddddddabbbbbbbbbbbbbdd##.d##.bb",
"bbdd.bba.......daaaaaa#aaaaaaaa.bbbbbbbbbbbbbbdd#.dd#.bb",
"bbd..bbcac#####daaaaaa.aaaaaaac.abbbbbbbbbbbbbbd#..d#..b",
"bbd.bbbbbbbbbbbdaaaa#a.aaa#aaac.cbbbbbbbbbbbbbbd##.d##.b",
"bdd.bddbbbbbbbbdaaaa.a.a#a.aaac.cbbbbbbbbbbbbbbdd#.dd#.b",
"bd..bd..bbbbbbbda#...a.a.a.a.#c.cbbbbbbbbbbbbbbbd#..d#..",
"bd.bbd.bbbbbbbbdaaa.a.a.a.a.aac.cbbbbbbbbbbbbbbbd##.d##.",
"dd.bdd.bbbbbbbbdaaa#a.a.aca#aac.cbbbbbbbbbbbbbbbdd#.dd#.",
"d#.bd#.bbbbbbbbdaaaaa.acaaaaaac.cbbbbbbbbbbbbbbbbd#.bd#.",
"d#.bd#.bbbbbbbbdccccccccdddddddddddddddddbbbbbbbbd#.bd#.",
"d#.bd#.bbbbbbbba........dacacacacacacacac.bbbbbbbd#.bd#.",
"d#.bd#.bbbbbbbbbbb######dcacac...cacacacc.bbbbbbbd#.bd#.",
"d#.bd#.bbbbbbbbbbbbbbbbbdacac.da..cacaaac.#bbbbbbd#.bd#.",
"d#.bd#.bbbbbbbbbbbbbbbbbdcaca.c#..acacacc.#bbbbbbd#.bd#.",
"d#.bd#.bbbbbbbbbbbbbbbbbdacac.....cacacac.#bbbbbbd#.bd#.",
"d#..d#..bbbbbbbbbbbbbbbbdcacac...cacacacc.#bbbbbbd..bd..",
"d##.d##.bbbbbbbbbbbbbbbbdaaacacacccc#acac.#bbbbbbb.bbd.b",
"dd#.dd#.bbbbbbbbbbbbbbbbdcacacacc#c#c#acc.#bbbbbbbbbdd.b",
"bd#..d#..bbbbbbbbbbbbbbbdccccccccddddddddddddddddabbd..b",
"bd##.d##.bbbbbbbbbbbbbbba........daaaaaaaaaaaaaac.bbd.bb",
"bdd#.dd#.bbbbbbbbbbbbbbbaca######daaaaa......aaac.bbd.bb",
"bbd#..d#..bbbbbbbbbbbbbbbbbbbbbbbdaaaaa.aaaa.aaac.#b..bb",
"bbd##.d##..bbbbbbbbbbbbbbbbbbbbbbdaaaaa......aaac.#b.bbb",
"bbdd#.#d##.bbbbbbbbbbbbbbbbbbbbbbdaaaaa.aaaa.aaac.#b.bbb",
"bbbd##.#d#..bbbbbbbbbbbbbbbbbbbbbdaaaaa.aac..aaac.#bbbbb",
"bbbdd##.d##..bbbbbbbbbbbbbbbbbbbbdaaa#..aa..#aaac.#bbbbb",
"bbbbdd#.#d##..bbbbbbbbbbbbbbbbbbbdaaa..#aaaaaaaac.#bbbbb",
"bbbbbd##.#d##..bbbbbbbbbbbbbbbbbbdccccccccccccccc.#bbbbb",
"bbbbbdd##.#d##...bbbbbbbbbbbbbbbba................#bbbbb",
"bbbbbbdd##.#d###..bbbbbbbbbbbbbbbbbb###############bbbbb",
"bbbbbbbdd##.#dd##....bbbbbbbbbbbbbbbbbbbbbbbbbbbbbbbbbbb",
"bbbbbbbbdd##..#d####....bbbbbbbbbb.bbbbbbbbbbbbbbbbbbbbb",
"bbbbbbbbbdd###.#ddd####............ddddbbb.#dbbbbbbbbbbb",
"bbbbbbbbbbddd##...dddd##########ddddbbbb.bbdbbbbbbbbbbbb",
"bbbbbbbbbbbbdd###....ddddddddddddbbbb...#dbbbbbbbbbbbbbb",
"bbbbbbbbbbbbbddd####....bbbbbbbbbb....dddbbbbbbbbbbbbbbb",
"bbbbbbbbbbbbbbbdddd####............ddddbbbbbbbbbbbbbbbbb",
"bbbbbbbbbbbbbbbbbbdddd##########ddddbbbbbbbbbbbbbbbbbbbb",
"bbbbbbbbbbbbbbbbbbbbbddddddddddddbbbbbbbbbbbbbbbbbbbbbbb"
};
