/* XPM */
static char * image_name[] = {
"48 48 4 1",
" 	c #000000000000",
".	c #514455555144",
"X	c #AEBAAAAAAEBA",
"o	c #FFFFFFFFFFFF",
"             .. ..  . . .   .   . . .           ",
"            .. ...               .   . .        ",
"              . . .   . . ..    . .   . .       ",
"           . .         ..        .     .        ",
"            . . . . ..... . .   .   . . .       ",
"        X      ..... .                          ",
"          . . . . . . . . . . . . .   . .       ",
"       X             ....      .          .     ",
"      X .   . . . ....  ..... . . . . . . .     ",
"     X       ..  .   ... . . .....              ",
"     .  . .   ..... X.. .XXXXXX.X..   .         ",
"    XX     ........X....XXXXXXXX.X.  ..         ",
"    X.  . . . ..X.X.X.XXoXXXoXX.X.X . . .       ",
"    X           ...XXXXXXXXXXXXXXX.. .          ",
"    X .   .   ..X.XXoXoXoXXXXXX.X.X . .   .     ",
"    X.       .XXXXXXXXXXXXXXXXXXXX..      .     ",
"    X.  .   ..X.XXXXoXoXoXoXoXX.X....   . .     ",
"    XX     X.X...XXXXoXXXoXXXXXXXX .     ..     ",
"     .  . ..X . . X.X.oXoXoXX.X.... .   .       ",
"     X    .X...X.... .XXXXXX . . . .    .       ",
"     .X . X.X.X.X.X.X...X.X.X.X.X....   .       ",
"      .X  ...X.... ..X.XXXX..X  ...... .        ",
"       X..X.X.X X..XX.XXXXX.X.X.X ..X ..        ",
"        X..X.X.XXXX.XX.XXX..XXXX...X.. .        ",
"        o.X.X.X.XXXXo.X.oXX.XXX.X.X.X  .        ",
"       XXX.XXX.XXXXXXX.XXX...XXXXXXX.. .        ",
"       XX...X.XXoXoXX.X.XXX.XXoXoXXXX. .        ",
"       XX..XXXXXXXXXXXXXXXXX.XXXXXXX.. .        ",
"       .o...XXoXoXoXXXX.XXX.XXoXoXXXX.          ",
"       XXX.XXXXXoXXXXXXXXoXXXXXXXXXXXX .        ",
"       .X.X.XXoXoXXXX.X.XXX.X.X.XXX.X...        ",
"          .XXXXXXXXX...XXX.. ..X.XXX.X..        ",
"       .  X.X.X.X . . . X.. . . ..X.X..         ",
"         X.XXXXX ..... ..X...... XX.X..         ",
"         .X.X.XXXXXXX.X.X.X.X.X.XXX.X .         ",
"          .X.XXXXXX.Xoooooooo..XXXXX..          ",
"          X X.X.XXX.X.XXoXX.X.X.XXX.X.          ",
"          ...X.XXXXXXX.XXXX..X.XXX...           ",
"          X.X.X.X.XXX.X.X.X.X.X.X.X.            ",
"           X...XXXXXXXXX.XXXXXXX.X.             ",
"            X.X.X.X.XXXXXXX.X.X.X..             ",
"            X...XX.XXXXXXXXXXX.....             ",
"            X.X.X.X.X.XXXXX.X.X....             ",
"            .....X.X.XXXXXXX.X.X...             ",
"            X.X.X.X.X.X.X.X.X.X.X.. .           ",
"            X....X.XXX.X.X.XXX...X.X.           ",
"         .XXX.X.X.X.X.X.X.X.X.X.X.X.X..         ",
"        XXo..X.X.XXX.XXX.XXX.XXXXX..oXX..       "};
