/* XPM */
static char * image_name[] = {
"64 64 188 2",
"  	c None",
". 	c #AEBA514430C2",
"X 	c #410310400000",
"o 	c #104000000000",
"O 	c #208100000000",
"+ 	c #30C200000000",
"@ 	c #514400000000",
"# 	c #965841032081",
"$ 	c #861741031040",
"% 	c #000000000000",
"& 	c #410300000000",
"* 	c #CF3C71C65144",
"= 	c #71C620810000",
"- 	c #965820810000",
"; 	c #965830C20000",
": 	c #514410400000",
"> 	c #9E7951442081",
", 	c #861720810000",
"< 	c #9E7941031040",
"1 	c #BEFB51442081",
"2 	c #AEBA51441040",
"3 	c #AEBA30C21040",
"4 	c #71C610400000",
"5 	c #514420810000",
"6 	c #9E79410330C2",
"7 	c #861741030000",
"8 	c #AEBA41031040",
"9 	c #AEBA41030000",
"0 	c #BEFB41032081",
"q 	c #CF3C51442081",
"w 	c #BEFB51441040",
"e 	c #CF3C41032081",
"r 	c #9E7941030000",
"t 	c #9E7930C21040",
"y 	c #618520810000",
"u 	c #965830C21040",
"i 	c #9E7951441040",
"p 	c #BEFB61852081",
"a 	c #BEFB618530C2",
"s 	c #DF7D618530C2",
"d 	c #CF3C61852081",
"f 	c #CF3C514430C2",
"g 	c #861730C20000",
"h 	c #861710400000",
"j 	c #71C6514430C2",
"k 	c #CF3C92486185",
"l 	c #861730C21040",
"z 	c #965820811040",
"x 	c #DF7D61852081",
"c 	c #DF7D71C630C2",
"v 	c #EFBE61854103",
"b 	c #DF7D71C62081",
"n 	c #71C630C20000",
"m 	c #618500000000",
"M 	c #DF7DA28971C6",
"N 	c #71C630C21040",
"B 	c #965841031040",
"V 	c #AEBA51442081",
"C 	c #CF3C71C62081",
"Z 	c #DF7D71C64103",
"A 	c #CF3C71C630C2",
"S 	c #DF7D820730C2",
"D 	c #EFBE82074103",
"F 	c #BEFB514430C2",
"G 	c #AEBA41032081",
"H 	c #618510400000",
"J 	c #CF3C41031040",
"K 	c #EFBE618530C2",
"L 	c #EFBE71C630C2",
"P 	c #EFBE82075144",
"I 	c #EFBE71C64103",
"U 	c #EFBE820730C2",
"Y 	c #BEFB41031040",
"T 	c #9E7930C20000",
"R 	c #DF7D82074103",
"E 	c #EFBE92485144",
"W 	c #EFBE92486185",
"Q 	c #EFBEA2895144",
"! 	c #EFBE71C65144",
"~ 	c #CF3C71C64103",
"^ 	c #CF3C618530C2",
"/ 	c #EFBEA2896185",
"( 	c #9658410330C2",
") 	c #AEBA61852081",
"_ 	c #EFBEA28971C6",
"` 	c #EFBE924871C6",
"' 	c #CF3C61851040",
"] 	c #CF3C51441040",
"[ 	c #71C630C22081",
"{ 	c #71C641032081",
"} 	c #BEFB71C630C2",
"| 	c #EFBE82076185",
" .	c #DF7D92484103",
"..	c #EFBE92484103",
"X.	c #DF7D61854103",
"o.	c #9E79618530C2",
"O.	c #DF7D92485144",
"+.	c #9E7930C22081",
"@.	c #965841030000",
"#.	c #EFBEAEBA6185",
"$.	c #CF3C61854103",
"%.	c #965830C22081",
"&.	c #EFBEAEBA71C6",
"*.	c #EFBEAEBA8617",
"=.	c #71C610401040",
"-.	c #618520811040",
";.	c #71C620811040",
":.	c #AEBA410330C2",
">.	c #514420811040",
",.	c #BEFB71C64103",
"<.	c #861720811040",
"1.	c #861710401040",
"2.	c #AEBA30C22081",
"3.	c #9E7920811040",
"4.	c #514430C21040",
"5.	c #30C210400000",
"6.	c #9E7941032081",
"7.	c #514430C20000",
"8.	c #CF3C51444103",
"9.	c #9E7920810000",
"0.	c #BEFB61851040",
"q.	c #BEFB30C22081",
"w.	c #AEBA20810000",
"e.	c #9E7961854103",
"r.	c #71C641031040",
"t.	c #618510401040",
"y.	c #AEBA61851040",
"u.	c #DF7D514430C2",
"i.	c #CF3C82076185",
"p.	c #CF3C820730C2",
"a.	c #AEBA71C64103",
"s.	c #9658514430C2",
"d.	c #71C600000000",
"f.	c #BEFB82075144",
"g.	c #DF7D71C65144",
"h.	c #AEBA618530C2",
"j.	c #AEBA92485144",
"k.	c #DF7D92486185",
"l.	c #CF3C82074103",
"z.	c #9E79514430C2",
"x.	c #DF7D82075144",
"c.	c #BEFB71C62081",
"v.	c #410320810000",
"b.	c #BEFB410330C2",
"n.	c #AEBA20811040",
"m.	c #CF3C92484103",
"M.	c #9E7971C64103",
"N.	c #DF7DA2896185",
"B.	c #AEBA71C630C2",
"V.	c #BEFB51444103",
"C.	c #BEFB61854103",
"Z.	c #861741032081",
"A.	c #9E7961852081",
"S.	c #BEFB92485144",
"D.	c #965851442081",
"F.	c #BEFB71C65144",
"G.	c #861730C22081",
"H.	c #CF3C92485144",
"J.	c #9E7951444103",
"K.	c #965861852081",
"L.	c #965851441040",
"P.	c #EFBEBEFB9658",
"I.	c #EFBECF3C9E79",
"U.	c #EFBEDF7D9E79",
"Y.	c #EFBEDF7DAEBA",
"T.	c #EFBEEFBECF3C",
"R.	c #EFBECF3C9658",
"E.	c #EFBEEFBE9E79",
"W.	c #EFBEEFBEAEBA",
"Q.	c #EFBEEFBEBEFB",
"!.	c #CF3C82075144",
"~.	c #EFBEA2898617",
"^.	c #EFBEDF7D9658",
"/.	c #EFBEBEFB9E79",
"(.	c #EFBEBEFB8617",
").	c #DF7DAEBA71C6",
"_.	c #EFBECF3C8617",
"`.	c #EFBEEFBE9658",
"'.	c #EFBEEFBEDF7D",
"].	c #AEBA71C65144",
"[.	c #71C620812081",
"{.	c #8617410330C2",
"}.	c #410320811040",
"|.	c #208110400000",
" X	c #DF7DBEFB8617",
".X	c #DF7D924871C6",
"XX	c #861700000000",
"oX	c #618541032081",
"                                                                                                                                ",
"                                                                                                                                ",
"                                                                                                                                ",
"                                                                                                                                ",
"                                                        . X o o o o O + @ #                                                     ",
"                                                    $ O o % % % + + o % % o o & $                                               ",
"                                                * O o O O O @ = - ; @ + O % o % O :                                             ",
"                                              > O & : = = , < 1 2 3 ; 4 @ + % % % o 5                                           ",
"                                            6 X , 7 8 9 0 1 q w e 1 8 r t 4 @ O O o o 5                                         ",
"                                          # y u i 1 p q a s d f s 1 1 f i t g h y & o O j                                       ",
"                                      k l : z r 3 8 e 1 q x s c v b s f q w 3 < z n m o O                                       ",
"                                    M N + l B 1 V q d s C Z A Z S D A F d f F G i u g @ % X                                     ",
"                                    H O H ; 1 w J q K S D L P D I D I U f d 0 p Y r T n + % y                                   ",
"                                  y % + B 8 2 G V s R E E P E W Q W E ! c ~ C 1 1 u < z 5 o % +                                 ",
"                                l o o : t i 0 1 ^ A ! D P Q W / W / E P P D s 1 0 < t T 4 O % % &                               ",
"                              ( % % o = B 8 ) a a s D E P P / _ Q ` W P S I c 1 V < < u n + % % % +                             ",
"                              o % % O n 8 2 q ' q d I R P D W / _ Q W D D c s ] e 2 8 7 - & % % % % [                           ",
"                            { % % % O z < 2 p d } s R P D E E | Q W E P R Z d q 2 0 < t $ @ % % % % o                           ",
"                            + % % % + , G 2 q p L R P  .P ..W Q D D ! D ! Z X.q 1 2 8 ; z : o % % % o o.                        ",
"                            O % % % o = < V p a A ~ O.W / W / W / W W W O.! } s p Y i t n H o % % % % X                         ",
"                            O % % % O = G V +.@.z B G a ! W _ #.` / W R $.p F u 8 < < @., X o % % % % o                         ",
"                            o % % % o z g : O + O + o + %.! W _ &.*.~ =.+ & & & & & , B g & % % % % % %                         ",
"                            o % % % & $ @ o @ 5 -.+ & : ;.} E E W E :.y + o o o O O O 4 u y % % % % % % >.                      ",
"                            o % o % y = X l i ,.A $.A ^ V F ^ W R ! 2 G V G o.a > g + + H <.o % % % % % O                       ",
"                            & % % % u g 1.t 2.< 0 u 3.2 q u q U v 8 - 8 3 ; t 2 3.T , : @ g + % % % % % +                       ",
"                            4.% % O r u B , : O o + [ , ; <.p X.w z 4 - H @ 5.O & 4 , , : ; & % % % % % O                       ",
"                            @ % % X t 2 3.& @ l + : f T - , q s s ; T - 3.6.+ O N + 4 ; z ; h o % % % % +                       ",
"                            7.% % ;.V 1 ; = g 8 ) 8.1 8 ; t 1 ^ q 9.; 0 G f V t 4 m @ t i < g o % % % % 7.                      ",
"                            # + O B 1 0.q.8 q d s d s 8 w., 1 ] J T - 2 I R ^ d Y T - r 1 2 t O % % % o e.                      ",
"                            r.t.O < ) f y.f A Z R ^ d 1 T 8 a s 1 3.; Y 1 I d f w G G V V 8 B + % & o O                         ",
"                            l = + > $.d f d K s X.d u.1 3.w K s q 9 3.0.u.d x d f w ^ 1 1 2 t O o 4 = 5.                        ",
"                            r.6.O . a A R A ^ s c I c 0 p s D W A 0 u ^ R D s f d F d F p 8 < + o t V o.                        ",
"                            i.p H V ^ p.s ^ u.b D D Z ^ ^ x W &.D q q 8 P D v q K d f p 0 i < : & 1 ^ a.                        ",
"                              Z B . A ^ Z I s ! R P ^ f < G D | f +.G G D W P f A f d F > < $ y ; F d s.                        ",
"                              / ~ ) c S Z D I ..P D f 4 3.< G 0 z h d., u...v R K c X.p 1 i %.l F R a f.                        ",
"                              W A ) } Z R g.E I d 3 = + + & = 4 & O % + , f ^ g.R $.A ^ p < # g ~ g.B f.                        ",
"                              R ^ h.^ R I E I < m + + o + + O O + o O o O @ t A I O.^ A p < ; 7 0 Y = j.                        ",
"                              k.l.z.a Z  .x.c.@ + + & @ y & O O O & & @ + + + u R Z ~ $.p 6.l 6.a 0 v.                          ",
"                                * ) $.R P Z b.: @ H z t n.T q.1 q.T 3.< H + + H c R ^ ) V r u > F t -.                          ",
"                                m.h.} ~ l.Z l.p > =.= z T G 2 0 8 3 <.4 = H y l p ,.l.a h.6.l G < @ M.                          ",
"                                N.> h.R Z E R R q a F d ^ Z X.~ X.A ^ V 0 V h.B.A ^ ^ p < g u 1 4 5                             ",
"                                  s.B.$.R x.R a p F p ,.~ V.a . h.$.C.$.a F ) . } V.} . > <.y O O s.                            ",
"                                    V A Z ~ $.p 1 1 F a F ) b.. F ^ F V 1 ) G < 1 p a 6.6.n o o Z.                              ",
"                                    a.C.} . l.a a . p $.. F ) . h.. ) V ) G > < ) V A.V Z.= o Z.                                ",
"                                    k h.a ) a p ^ V F ) 1 V G . V i 1 i G 1 6.@.< B 6.B l H X                                   ",
"                                      z.s.. } . > > > :.A.. } C.~ C.A.V > . B %.i > B u g l S.                                  ",
"                                      B.. > . > %.D.. V C.,.$.A * } 1 B 6.$ %.l # @.8 g B D.                                    ",
"                                      i.Z.D.A.z.Z.# D.h.B.F.,.~ ~ F.> l B G.N # $ u n g B e.                                    ",
"                                      H.6.D.6.i u $ 6.> a z.~ > V ) 6.g %.g u @.u @.u g < A.                                    ",
"                                        o.# $ > D.l s.# > J.K.. z.z.g B B # $ # B l $ < B ,.                                    ",
"                                        a > > # 6.D.> # # D.%.i %.> G 6.# > %.B u l < 7 V H.                                    ",
"                                        h.h.K.A.A.z.o.> > z.A.F V . A.. B # L.# L.# i V B.P.                                    ",
"                                      I.~ h.F } a D.> A.. > . > V > V i V i G B < B G y.P.U.I.I.Y.                              ",
"                                  T.I.I.R.,.B.h.h.F ) a B.h.A.z.> 1 A.. ) . > 6.> 2 ) M E.U.U.W.I.Q.                            ",
"                                  I.I.U.Y.R.!.A ~ } X.B.* } Z C $.} F p ~ ) ^ V Y V ~.W.U.^.Y.E.W.I.                            ",
"                              I.I.I.W.Q.W.T.Q.M l.C.l.g.O.l.l.Z l.R A p V 1 ) a B./.W.Q.W.W.^.I.E.W.I.                          ",
"                          I.I.I.I.Q.Q.W.W.Q.Q.W.U.O.R A l...Z O.D R ^ C V p 1 l.U.W.W.W.Y.E.P.U.W.W.W.I.                        ",
"                      I.I.I.W.T.T.W.W.Q.Q.T.Q.Q.Q.W.(.x.R Z A Z R Z p a p ~ ).W.W.Y.W.Q.W.U.U.Y.W.W.W.T.I.I.I.Q.                ",
"            I.I.I.I.I.I.T.Q.Q.W.Q.Q.U.T.W.W.Q.W.Q.W.Q.W.I.).g.p.Z A Z R Z R.Q.W.W.W.W.W.W.R.P.E.Y.E.W.T.Q.W.U.I.I.I.I.Q.Q.    W.",
"        I.I.I.Q.Q.Q.Q.T.Q.Q.T.Q.W.Q.W.Q.W.Q.T.Q.T.Q.*.W.W.T.W.U.#.*._.U.W.Q.W.W.W.Q.W.Q.E.I.`.W.W.W.E.W.W.I.^.R.W.W.E.I.I.I.I.R.",
"    I.I.Q.Q.Q.W.W.Q.T.T.'.Q.T.W.T.W.Q.E.Q.W.Q.Q.Q.].[.{._ U.Q.W.W.Q.Q.E.Q.U.Q.W.Y.W.Q.W.Y.U.Y.E.Q.W.Y.E.U.E.U.R.Y.W.Q.W.E.`.W.R.",
"W.I.I.Q.Q.Q.W.T.T.Q.T.T.T.Q.W.Q.Q.Q.Q.T.Q.Q.Q.Q.W.}.|.O h ~ Q.W.W.Q.U.Y.R.P. X*.W.W.Q.W.E.W.W.W.Q.W.W.W.W.U.U.Y.U.W.Q.Q.W.W.W.I.",
"T.I.W.W.W.W.Q.T.Q.Q.T.T.T.Q.T.Q.Q.Q.W.T.Q.W.Q.Q./.|.+ O + @ 3.,..X].t @ & XX+ + I.W.W.W.Q.W.W.W.W.W.Y.W.E.E.U.R.Y.E.U.E.W.W.Q.W.",
"Q.T.W.Q.W.Q.Q.'.Q.'.Q.Q.Q.Q.W.Q.Q.T.Q.T.Q.Q.T.Q. X& O + O & |.& 5.+ O d.O O m + oXU.W.W.W.Q.W.W.Q.Q.Q.Q.W.U.U.U.U.W.W.W.U.Q.E.Q."};
