/* XPM */
static char * image_name[] = {
"48 48 225 2",
"  	c None",
". 	c #79E7596538E3",
"X 	c #AEBA7DF74924",
"o 	c #AEBA7DF738E3",
"O 	c #79E7659530C2",
"+ 	c #79E759654924",
"@ 	c #71C655554103",
"# 	c #8617514430C2",
"$ 	c #AEBA86176185",
"% 	c #AEBA79E730C2",
"& 	c #79E779E75965",
"* 	c #8E3869A669A6",
"= 	c #BEFB9A6971C6",
"- 	c #AEBAAAAA79E7",
"; 	c #AEBAAAAA71C6",
": 	c #AEBA79E738E3",
"> 	c #AEBA69A64924",
", 	c #69A6596538E3",
"< 	c #BEFB79E74103",
"1 	c #BEFB75D64103",
"2 	c #B6DAA69971C6",
"3 	c #A699A69971C6",
"4 	c #71C6514430C2",
"5 	c #71C6514428A2",
"6 	c #A6995D7528A2",
"7 	c #96585D7528A2",
"8 	c #A6995D7538E3",
"9 	c #96586DB628A2",
"0 	c #AEBA79E74924",
"q 	c #71C64D3438E3",
"w 	c #618555555144",
"e 	c #596559655965",
"r 	c #AEBA75D630C2",
"t 	c #A6996DB638E3",
"y 	c #B6DA71C64103",
"u 	c #A69975D630C2",
"i 	c #B6DA924869A6",
"p 	c #A699A28969A6",
"a 	c #8E386DB628A2",
"s 	c #79E755554924",
"d 	c #514461855144",
"f 	c #A69975D64103",
"g 	c #B6DA75D64103",
"h 	c #514455555144",
"j 	c #A69971C630C2",
"k 	c #B6DA6DB638E3",
"l 	c #A6996DB628A2",
"z 	c #AEBA8E3879E7",
"x 	c #9E799A6969A6",
"c 	c #AEBA79E74103",
"v 	c #9E7979E730C2",
"b 	c #79E7555530C2",
"n 	c #6185555530C2",
"m 	c #FFFFFFFF38E3",
"M 	c #A69971C628A2",
"N 	c #9E7969A628A2",
"B 	c #AEBA69A638E3",
"V 	c #9E7969A62081",
"C 	c #AEBA659530C2",
"Z 	c #861761852081",
"A 	c #AEBA65954103",
"S 	c #49244D344924",
"D 	c #492459654924",
"F 	c #9E7965952081",
"G 	c #A699618530C2",
"H 	c #965861852081",
"J 	c #861751442081",
"K 	c #9658514430C2",
"L 	c #69A6492438E3",
"P 	c #BEFB965838E3",
"I 	c #C71B96584103",
"U 	c #596549244924",
"Y 	c #492449244924",
"T 	c #9E796DB628A2",
"R 	c #410345144103",
"E 	c #DF7DDB6C4103",
"W 	c #71C6555530C2",
"Q 	c #618551446185",
"! 	c #A69971C64103",
"~ 	c #492449245965",
"^ 	c #410355554103",
"/ 	c #410341034103",
"( 	c #410341035144",
") 	c #9658618530C2",
"_ 	c #965871C628A2",
"` 	c #596545145965",
"' 	c #965865952081",
"] 	c #514445144103",
"[ 	c #A69961854103",
"{ 	c #6185514430C2",
"} 	c #96584D3428A2",
"| 	c #71C651444103",
" .	c #69A634D328A2",
"..	c #6185514428A2",
"X.	c #8E3865952081",
"o.	c #8617514428A2",
"O.	c #9E79659530C2",
"+.	c #AEBA555530C2",
"@.	c #38E33CF34924",
"#.	c #86174D341861",
"$.	c #71C65D7528A2",
"%.	c #59654D3428A2",
"&.	c #69A64D3428A2",
"*.	c #86175D751861",
"=.	c #69A64D3438E3",
"-.	c #F7DEFFFF4924",
";.	c #B6DA8E3828A2",
":.	c #38E33CF338E3",
">.	c #9E7969A638E3",
",.	c #49244D3438E3",
"<.	c #965861851861",
"1.	c #69A6596528A2",
"2.	c #5965492428A2",
"3.	c #69A6492428A2",
"4.	c #30C234D34103",
"5.	c #96585D751861",
"6.	c #38E3492438E3",
"7.	c #79E7492428A2",
"8.	c #79E759651861",
"9.	c #9E79596538E3",
"0.	c #BEFB8A2830C2",
"q.	c #9E79555530C2",
"w.	c #30C2555530C2",
"e.	c #8E385D751861",
"r.	c #79E74D341861",
"t.	c #CF3CFBEEFFFF",
"y.	c #8E3855552081",
"u.	c #618545142081",
"i.	c #6185451430C2",
"p.	c #514445142081",
"a.	c #28A228A228A2",
"s.	c #38E34D3438E3",
"d.	c #8E385D7528A2",
"f.	c #8E38492428A2",
"g.	c #8E3849241861",
"h.	c #71C63CF30820",
"j.	c #965851442081",
"k.	c #49243CF338E3",
"l.	c #492438E338E3",
"z.	c #8E3859651861",
"x.	c #9E79596528A2",
"c.	c #38E338E338E3",
"v.	c #79E755551040",
"b.	c #618541032081",
"n.	c #49243CF31861",
"m.	c #38E334D338E3",
"M.	c #38E338E34924",
"N.	c #8E38596528A2",
"B.	c #79E745141861",
"V.	c #6185410330C2",
"C.	c #514441032081",
"Z.	c #8E3859651040",
"A.	c #8E3855551040",
"S.	c #8E3845142081",
"D.	c #61853CF31861",
"F.	c #61852CB21861",
"G.	c #9E7955552081",
"H.	c #59653CF31861",
"J.	c #59653CF328A2",
"K.	c #FFFFEFBE1040",
"L.	c #AEBA86172081",
"P.	c #B6DA820728A2",
"I.	c #71C645141040",
"U.	c #861745142081",
"Y.	c #AEBA861728A2",
"T.	c #410334D330C2",
"R.	c #965855552081",
"E.	c #71C651441040",
"W.	c #08208A280820",
"Q.	c #30C2451430C2",
"!.	c #30C230C230C2",
"~.	c #861751441040",
"^.	c #596538E31861",
"/.	c #596528A21861",
"(.	c #861755551040",
").	c #596538E328A2",
"_.	c #492438E31861",
"`.	c #BEFBB6DA38E3",
"'.	c #86173CF31861",
"].	c #79E73CF31861",
"[.	c #596534D328A2",
"{.	c #A69982072081",
"}.	c #861751440820",
"|.	c #08207DF70820",
" X	c #410334D31040",
".X	c #38E32CB228A2",
"XX	c #28A22CB228A2",
"oX	c #69A64D340820",
"OX	c #514434D32081",
"+X	c #28A23CF328A2",
"@X	c #28A22CB24103",
"#X	c #514438E31861",
"$X	c #AEBA7DF728A2",
"%X	c #A6997DF71861",
"&X	c #86174D340820",
"*X	c #96584D341861",
"=X	c #69A638E31861",
"-X	c #410330C21040",
";X	c #30C2410330C2",
":X	c #965851441861",
">X	c #79E74D340820",
",X	c #69A638E30820",
"<X	c #514420811040",
"1X	c #410330C230C2",
"2X	c #8E384D341861",
"3X	c #28A238E328A2",
"4X	c #514430C22081",
"5X	c #861782076185",
"6X	c #965882076185",
"7X	c #861792486185",
"8X	c #79E749240820",
"9X	c #41032CB20820",
"0X	c #51442CB20820",
"qX	c #79E792485965",
"wX	c #A699A6995965",
"eX	c #861741032081",
"rX	c #49242CB21861",
"tX	c #38E31C710000",
"yX	c #B6DAA28928A2",
"uX	c #9E79AEBA5965",
"iX	c #9E7979E71861",
"pX	c #5144A28938E3",
"aX	c #79E779E74103",
"sX	c #96588A284924",
"dX	c #86178A284103",
"                                                                                                ",
"                                                                                                ",
"        . . . X o X o                                                                           ",
"    O + @ # O $ % X o & * & = - = ; =                                                           ",
"    . . O + . : > o > + , + : < : 1 ; 2 ; 2 ; 2 3 4 5 5 6 7 8 9                                 ",
"    . + . + . 0 o 0 : , q , < : w e 1 r 1 t y u y 3 i 3 i p i p a                               ",
"    . . . . . o > : > s , s % 1 d e r e f g h y f y j k t k l k p z x z x z x                   ",
"    O s , + O c v c % , b n 1 r e h g e y j w j m m y M k l k l k N k N B V C x $ x $ x $ # Z   ",
"    b b b b b : A % A s n s r g u g u 1 u y d y m m l k S k D k N k N B N B F B F C F G H J K   ",
"    b @ b @ b c r c r n L n g r w e y d y j y P I l y l U l Y T U N B R U F E F C F C H G # Z   ",
"    W W W W W r A r A @ n @ r g d h j Q ! y m y e Q T k t k l B D B N ~ ^ B E C ^ C / ( ) J K   ",
"    O @ n @ O f _ f r n 4 n y j y j y j y M y T Q D k l ` l ` N B N B V B F C F / ' ] R G # Z   ",
"    4 4 4 4 4 j A j [ @ { @ j y m m j S M k D y T k l k l k D B E B V e ^ C ^ C F C H G H J }   ",
"    4 | 4 | 4 f j ! j n  ...y j m m y S k M S l U h k N U N B N B V C ^ ` F ` F ` X./ / G o.Z   ",
"    5 5 5 5 5 j [ j [ q n q M y P k l k t k l k D Y N k D B R B ^ B F C O.C F C ^ +./ @.) #.}   ",
"    $.q %.q $.! _ ! M %.&.%.k l S S k l k l k T k T B N B N U V R F C Y / F ] X.C X.G H G o.*.  ",
"    &.&.5 &.&.l 8 l 8 =.%.=.l k S ~ l Y l k D B N B N B N B F B F C F / R C ^ G / G -.-.H #.}   ",
"    &.=.&.=.&.t l t l .. .%.k l k l k Y B N Y N U S B V U F R F C F C ' G H G H ] ;.:.:.G o.*.  ",
"    &.&.&.&.&.l 8 l 8 =.%.=.T k >.B N k >.B N B D R F C ^ C R C ^ C ' D ,.G -.G ) G <.G 7 #.}   ",
"    1.L 2.L 1.>.a >.N 2.3.2.B N Y Y B S B N C G C F C V C F C F / H 8 4.' ' -.5.6.o.7./ G 7.8.  ",
"    3.3.3.3.3.N 9.N 9.L 2.L N B R ~ N R V C ^ C R ~ F C R C ;.0.F G H 9.b q.<.G q.# w.4.e.r.}   ",
"    3.L 3.L 3.>.N >.N 2. .2.B V B V C F C V R F ] U C F ] ' t.' t.H 8 ,.,.<.G y.# e.9.e.6 7.8.  ",
"    u.u.3.3.3.V q.V q.i.p.i.F C O.C F B O.C F O.O.C F G ) G t.G t.G H t.a.G 6.6 s.G :.@.d.r.f.  ",
"    1.L p.i.1.>.X.>.F 2.u.2.C F R R C Y C F ] F / / C H G H 0.H 0.5.g.h.j.5.k.5.:.e.k.:.6 7.8.  ",
"    u.u.u.u.u.F q.F q.i.p.i.F C / ( F / ' C ^ G / ( H G m G s.G :.G <.l.:.6 5.6 e.6 z.x.z.r.f.  ",
"    u.i.u.i.u.O.F O.F p. .p.C ' C H G H G H G H G H G H m <./ H k.5.G :.k.5.c.e.k.z.c.c.x.7.v.  ",
"    b.b.b.b.b.H K H K i.n.i.H G E E H ( ) G / G ) G <.G ) G 5.G 7 6 5.6 d.6 c.6 6.x.m.M.N.B.f.  ",
"    b.V.C.V.b.) Z ) H C.b.C.G H E E G / G H k.<.:.:.G 5.:.5.k.5.c.5.6 e.6 e.x.z.x.z.x.Z.x.7.v.  ",
"    b.b.b.b.b.H K H K V.n.V.H G ;.0.<.G <.G <.G :.@.5.6 :.6 s.6 c.6 e.c.c.x.6.x.c.x.m m A.B.S.  ",
"    b.V.D.2.b.) <.) <.C.F.n.G <.G <.G <.6 5.6 5.6 5.6 5.6 e.6 e.6 e.x.m.k.z.c.Z.l.Z.m m G.7.v.  ",
"    H.D.D.D.D.<.K <.} J.n.V.5.6 s.:.5.@.7 6 :.6 K.7.o.x.6.6 t.x.t.x.z.x.N.x.Z.x.y.G.L.P.y.I.U.  ",
"    C.J.n.V.C.7 *.7 <.n.H.n.6 5.:.:.6 :.6 e.k.Y.K.w.x.e.c.z.t.z.t.z.x.c.m.Z.l.A.m.A.T.m.R.7.E.  ",
"    W.W.W.b.b.<.} 5.} J.n.J.e.6 e.6 e.6 e.6 z.0.Y.7 z.x.z.P.L.x.L.x.Z.m.m.G.Q.G.!.G.Q.!.~.I.U.  ",
"    W.W.W.2.^.d.e.d.z.n./.n.x.z.k.:.x.c.x.z.c.Z.l.:.x.z.x.Z.x.Z.x.A.G.A.G.A.G.A.G.(.R.(.j.7.E.  ",
"  W.W.W.W.b.^.e.f.z.f.)._.).z.x.6.c.z.M.N.x.m.x.6.m.Z.x.Q.x.m.G.Q.G.m.4.Q.G.!.4.Q.R.`.`.J I.'.  ",
"  W.W.W.W.W.W.N.v.N.z._.^._.x.z.x.z.x.z.x.Z.x.Z.x.Z.G.A.m.A.l.A.!.A.T.m.!.~.T.!.!.~.`.`.R.].E.  ",
"W.W.W.W.W.W.W.<.f.Z.S.[._.[.Z.x.m.M.Z.K.Z.G.Q.x.m.M.A.G.A.G.A.G.(.G.(.R.~.G.~.j.~.j.{.j.}.h.'.  ",
"W.W.W.|.W.W.W.X.Z.N.Z. X/. XG.A.l.m.G.K.G.A.m.A.T.m.G.(.T.(.!.~.T.~.R.K.K.~.!.~..X~.XXXXf.B.oX  ",
"  W.W.|.|.|.W.<.S.A.S.OX XOXA.G.y.G.L.P.y.G.(.G.y.G.(.G.Q.R.!.R.Q.j.~.K.K.j.XXj.+Xj.XX@XJ h.'.  ",
"|.|.|.|.|.W.W.W.v.y.A. X#X XG.(.G.(.G.(.G.(.G.~.R.~.R.~.j.~.j.~.j.~.j.{.$X%Xj.&Xj.&X*X&X*X=XoX  ",
"|.|.|.|.|.|.W.W.U.(.U.OX-XOX(.R.-.-.~.!.~.R.Q.j.!.4.~.j.!.j.;Xj.XXj.+XXXXXj.+X:XXX*X+Xa.>X,X'.  ",
"|.|.|.|.|.|.|.|.~.y.~.-X<X-XR.~.-.-.j.!.j.~.!.~.1X!.j.~..X}.XX&X.X}.XXXX.X&Xa.&X.X>Xa.a.2X=XoX  ",
"|.3X|.|.|.W.|.~.|.t.,X/. X4X~.P.Y.$X{.j.J j.}.j.J j.}.:X,.,.U 5X6X7X6X*X#.*X>X*Xr.2X8X2Xr.,X].  ",
"3X|.|.|.|.W.|.'.t.&X&X9X0X9Xj.}.XXXXj.XXj.~..X&X`.`.:X&XK.qXK.6XK.K.wXXXa.8X.X8Xa.8X.Xa.g.=XoX  ",
"|.|.|.3X|.eX0X&X* * 7.4X9XrX&X:XXX4.&XXX&X:X+X:X`.`.&X*XK.,.K.qXK.K.6Xa.a.2X3X*Xa.g.3Xa.8X,X].  ",
"  |.|.tX|.|.0X8.* t. .tX%X9X:X&X:X&X*X&X*X&X*X%X$XyX*X8X,.,.K.6XwXwXuXiXg.8Xg.8Xg.pXpXpXpXpXpX  ",
"pXpXpXtXpXpXpXpXpX      tXtX#.*X#.*X&X*Xr.*X>X*Xr.2XiXaXaXaX_ sXsXdXsXsXpXpXpXpXpXpXpXpXpXpXpXpX",
"pXpXpXpXpXpXpXpXpXpX                                                    2.                      "};
