/* XPM */
static char * image_name[] = {
"48 48 22 1",
" 	c None",
".	c #EFBEEFBEEFBE",
"X	c #000010404103",
"o	c #00006185BEFB",
"O	c #000000004103",
"+	c #00005144BEFB",
"@	c #000000000000",
"#	c #208120812081",
"$	c #104010401040",
"%	c #8617820771C6",
"&	c #208130C22081",
"*	c #BEFBCF3CBEFB",
"=	c #71C6618571C6",
"-	c #861771C68617",
";	c #618571C671C6",
":	c #71C671C66185",
">	c #208110401040",
",	c #71C671C671C6",
"<	c #0000104030C2",
"1	c #9E7961850000",
"2	c #CF3CBEFB2081",
"3	c #2081208130C2",
"                                                ",
"                                                ",
"                                                ",
"                                                ",
"                                                ",
"                                                ",
"                                                ",
"                                                ",
"                                                ",
"                                                ",
"        ..............................          ",
"        .........................XoXo.          ",
"        ........................O+OoO.          ",
"        .......................XoXoX@.          ",
"        ......................O+O+O@#.          ",
"        .....................XoXoX@#..          ",
"        ...................+O+O+O@#...          ",
"        ..................oXo#$X@#....          ",
"        .................+O+#.%@#.....          ",
"        ................oX&$.%@#......          ",
"        ...............*=$..-@#.......          ",
"        ..............*;...-@#........          ",
"        .............*:.>.-@#.........          ",
"        .............,.$.-@#..........          ",
"        ............=...-@#...........          ",
"        ...........:.$.%@#............          ",
"        ..........=.>.-@#.............          ",
"        .........,.$.-@#..............          ",
"        ........=...%@#...............          ",
"        .......,...-@$................          ",
"        ......:...-@>.................          ",
"        .....+;..-@$..................          ",
"        ....=<+.-@>...................          ",
"        ...,X+X-@#....................          ",
"        ..:121+@#.....................          ",
"        ..:21#@#......................          ",
"        ..:1@##.......................          ",
"        ..#3#.........................          ",
"        ..#...........................          ",
"        ..............................          ",
"                                                ",
"                                                ",
"                                                ",
"                                                ",
"                                                ",
"                                                ",
"                                                ",
"                                                "};
