/* XPM */
static char *ft_xpm[] = {
/* columns rows colors chars-per-pixel */
"32 32 29 1",
"  c #000000000000",
". c #858586868686",
"X c #8b8b8b8b8b8b",
"o c #949494949494",
"O c #9d9d9c9c9c9c",
"+ c #a1a1a0a09e9e",
"@ c #a3a3a3a3a3a3",
"# c #a8a8a7a7a6a6",
"$ c #a9a9a8a8a7a7",
"% c #adadadadacac",
"& c #b2b2b1b1afaf",
"* c #b4b4b4b4b4b4",
"= c #bcbcbcbcbcbc",
"- c #c3c3c3c3c3c3",
"; c #cbcbcbcbcbcb",
": c #d5d5d5d5d5d5",
"> c #dadad9d9d7d7",
", c #dcdcdcdcdbdb",
"< c #e1e1e1e1dfdf",
"1 c #e3e3e3e3e3e3",
"2 c #e9e9e7e7e6e6",
"3 c #e9e9e8e8e7e7",
"4 c #ececebebebeb",
"5 c #f1f1efefefef",
"6 c #f2f2f1f1efef",
"7 c #f4f4f4f4f4f4",
"8 c #f8f8f7f7f5f5",
"9 c #ffffffffffff",
"0 c None",
/* pixels */
"00000000000000000000000000000000",
"00000000000000000000000000000000",
"0 0000000000000000000000000000 0",
" 7 00000000000000000000000000 & ",
" 4 00000000000000000000000000 % ",
" 45 00   00000000000000   00 %% ",
" 34 0 899 000000000000 -== 0 %# ",
"0 34  7999 0000000000 -===  %# 0",
"0 23  7899 0000000000 ===*  %@ 0",
"00 23 67899 00000000 -==** %# 00",
"00 12  7889 000  000 -=**  #@ 00",
"000 1345788 00  - 00 ==**%%# 000",
"000 113377 0  9 --  0 **%%#@ 000",
"0000 112377 899 ---= =**%#@ 0000",
"0000 ,123477899 ---=***%#@O 0000",
"00000 112347789  ===**%$#O 00000",
"00000 ,112447  00  *&&$#@O 00000",
"0000 >,,<223 000000 &%#@+OO 0000",
"00  ::>>,12 00000000 $#+OOoo  00",
"0 ;;;;:>,,< 00000000 @@OOoooXX 0",
" --;;;   ,< 00000000 @+   oXXX. ",
" ---; 000 >< 000000 #@ 000 X... ",
"0  - 0000 ,< 000000 OO 0000 .  0",
"000 000000 ,, 0000 @O 000000 000",
"0000000000 >> 0000 +O 0000000000",
"00000000000 >, 00 +O 00000000000",
"000000000000 >,  @O 000000000000",
"000000000000 :> @+O 000000000000",
"0000000000000 : +O 0000000000000",
"00000000000000  O 00000000000000",
"000000000000000  000000000000000",
"00000000000000000000000000000000",
};
