/* XPM */
static char *ft_xpm[] = {
/* columns rows colors chars-per-pixel */
"32 32 142 2",
"   c #000000000000",
".  c #454500000000",
"X  c #5d5d00000000",
"o  c #616100000000",
"O  c #7d7d00000000",
"+  c #7f7fececf2f2",
"@  c #7a7af2f2ecec",
"#  c #7878f2f2f1f1",
"$  c #a2a266666666",
"%  c #b3b366666666",
"&  c #bdbda9a95151",
"*  c #a3a3a3a37373",
"=  c #a8a8a5a57b7b",
"-  c #b0b0a7a76666",
";  c #d0d0aaaa3d3d",
":  c #e3e3a8a83737",
">  c #c3c3acac4545",
",  c #eaeaa4a44a4a",
"<  c #ebeba5a56868",
"1  c #ebeba1a17b7b",
"2  c #8e8e8f8f8c8c",
"3  c #8f8f90908c8c",
"4  c #939394948c8c",
"5  c #9c9c9c9c8b8b",
"6  c #939394949292",
"7  c #979799999696",
"8  c #9a9a9a9a9191",
"9  c #9d9d9d9d9d9d",
"0  c #9f9fa1a19c9c",
"q  c #a0a09f9fa0a0",
"w  c #a2a2a1a18484",
"e  c #a2a2a6a69f9f",
"r  c #a4a4baba9f9f",
"t  c #a3a3a2a2a3a3",
"y  c #a6a6a5a5a9a9",
"u  c #a5a5adada1a1",
"i  c #a9a9a6a6acac",
"p  c #acacacacacac",
"a  c #ababa5a5b5b5",
"s  c #aeaea5a5baba",
"d  c #adada9a9b4b4",
"f  c #a8a8b7b7a3a3",
"g  c #b0b0a6a6bfbf",
"h  c #b0b0adadb6b6",
"j  c #b2b2acacbbbb",
"k  c #b3b3b3b3b3b3",
"l  c #b6b6b2b2bcbc",
"z  c #b9b9b6b6bfbf",
"x  c #b9b9b9b9baba",
"c  c #b2b2a7a7c3c3",
"v  c #b4b4aaaac4c4",
"b  c #b7b7aaaacbcb",
"n  c #b9b9ababcdcd",
"m  c #bbbbababd2d2",
"M  c #babab4b4c4c4",
"N  c #bcbcb3b3caca",
"B  c #bebebbbbc5c5",
"V  c #bebeb1b1d2d2",
"C  c #9c9ccdcd9696",
"Z  c #9c9ce1e19a9a",
"A  c #a3a3cdcd9e9e",
"S  c #a9a9c9c9a4a4",
"D  c #a8a8e5e5a9a9",
"F  c #a4a4f4f4bebe",
"G  c #ababf1f1b3b3",
"H  c #acacf3f3baba",
"J  c #b2b2ededb5b5",
"K  c #b4b4f0f0baba",
"L  c #9c9cdcdcf0f0",
"P  c #8e8ef3f3d2d2",
"I  c #9b9bf4f4c6c6",
"U  c #9191f3f3d3d3",
"Y  c #8d8de3e3f2f2",
"T  c #8484f3f3e3e3",
"R  c #afafd7d7f1f1",
"E  c #b8b8d6d6ecec",
"W  c #a2a2f4f4c1c1",
"Q  c #e9e98f8f8f8f",
"!  c #e9e98f8f9595",
"~  c #eaea96968c8c",
"^  c #ebeb9d9d8080",
"/  c #e8e88888a7a7",
"(  c #e8e88484bbbb",
")  c #c0c0bcbcc6c6",
"_  c #c3c3bdbdcccc",
"`  c #c5c5bdbdd4d4",
"'  c #c7c7babad9d9",
"]  c #cbcbbfbfdede",
"[  c #eaea8a8ac4c4",
"{  c #ecec9494d5d5",
"}  c #eeee9e9ee6e6",
"|  c #eeeeafafe6e6",
" . c #eeeeadadefef",
".. c #eaeabebef0f0",
"X. c #c5c5c4c4c5c5",
"o. c #c6c6c3c3cccc",
"O. c #c8c8c6c6cbcb",
"+. c #ccccc7c7d5d5",
"@. c #cdcdcacad2d2",
"#. c #d0d0c7c7dada",
"$. c #d0d0ccccd5d5",
"%. c #d3d3cdcddbdb",
"&. c #d3d3d3d3d3d3",
"*. c #d5d5d2d2dbdb",
"=. c #d7d7d9d9dede",
"-. c #d9d9d6d6dbdb",
";. c #dadadbdbdede",
":. c #c4c4d5d5ebeb",
">. c #ccccd6d6e5e5",
",. c #d2d2c5c5e7e7",
"<. c #d5d5cccce3e3",
"1. c #d6d6cacae9e9",
"2. c #dadacccceded",
"3. c #d4d4d4d4e2e2",
"4. c #dadad6d6e2e2",
"5. c #dcdcd5d5e8e8",
"6. c #dfdfdddde2e2",
"7. c #e7e7cbcbecec",
"8. c #e3e3d6d6e8e8",
"9. c #e1e1dbdbe5e5",
"0. c #e1e1dbdbeaea",
"q. c #e1e1d5d5f3f3",
"w. c #e6e6d7d7fdfd",
"e. c #e6e6dfdff1f1",
"r. c #e6e6dadaf9f9",
"t. c #eaeaddddfefe",
"y. c #e3e3e3e3e5e5",
"u. c #e7e7e3e3eaea",
"i. c #e9e9e7e7ebeb",
"p. c #ececebebecec",
"a. c #e7e7e1e1f4f4",
"s. c #e8e8e2e2f4f4",
"d. c #edede1e1ffff",
"f. c #eeeee9e9f5f5",
"g. c #f1f1e4e4ffff",
"h. c #f0f0efeff6f6",
"j. c #f3f3e9e9fdfd",
"k. c #f1f1f1f1f2f2",
"l. c #f7f7f5f5f9f9",
"z. c #fdfdf3f3ffff",
"x. c #ffffffffffff",
"c. c None",
/* pixels */
"c.c.c.c.c.c.c.c.c.c.c.c.                c.c.c.c.c.c.c.c.c.c.c.c.",
"c.c.c.c.c.c.c.c.c.      9 9 q q q t t t       c.c.c.c.c.c.c.c.c.",
"c.c.c.c.c.c.c.c.  9 9 t q t q t t y y i i i a   c.c.c.c.c.c.c.c.",
"c.c.c.c.c.c.    9 0 t t         d p l *.d j h h     c.c.c.c.c.c.",
"c.c.c.c.c.  9 q t t t   c.c.c.c.  z *.u.B B _ _ _ _   c.c.c.c.c.",
"c.c.c.c.  9 9 t t i p   c.        @.x.s.%.%.%.<.<.<.<.  c.c.c.c.",
"c.c.c.  9 t -.k p k x     % % %   0.x.s.e.e.        t.r.  c.c.c.",
"c.c.c.  9 t k k.X.X.@.  % O O O   j.x.f.j.    c.c.c.  j.  c.c.c.",
"c.c.  9 t y p O.x.y.;.y.        0.x.x.e.s.  $   c.c.  j.g.  c.c.",
"c.  t t y k x X.y.x.l.u.u.9.4.*.*.x.j.3.3.  o o   c.  r.r.q.  c.",
"c.  t i         ;.l.x.h.-.$.O._ _ x.#.` `   o X   c.  1.1.,.  c.",
"c.  p   c.c.  %   y.f.x.*._ M M M z.v M M N         ` ' ' '   c.",
"  p k   c.c.  %   4.$.%.x.$.4.j.j.0.) g c v v v b ' 2.w.w.V V   ",
"  x X.  c.  % O   $._ z +.a._ g g ` q.M v ` 1.t.z.t.2.] V n n   ",
"  O.&.  c.  % O   ) z h %._ a a a s ` r.t.2.#.N c c c b n n n   ",
"  -.6.y.        ) z h d a.j a     a v d.s s c c c c c b b n n   ",
"  y.i.y.4.$.O.B l d d a e.j a     s v d.g c c c         b n m   ",
"  p.u.6.*.o.M l l _ <.a.5._ a s s s ` 1.c c c   . .   c.  m m   ",
"  i.9.*.@.%.6.f.s.+.                        v   . .   c.  m m   ",
"  y.*.x.x.6.        L Y + @ T U I W H G D Z         c.c.  m m   ",
"c.  O._     =.>.:.E R L Y # T P I F H D Z C C r u e       m   c.",
"c.      ;.;.;.=.3.>.:.E L + @ P I H J D A r u t 0 9 7 7       c.",
"c.  y.;.6.6.6.;.=.=.=.>.E L @ P F K D S f u 9 7 7 6 6 4 3 2   c.",
"c.  y.y.y.6.y.6.6.;.=.=.3.            e 0 7 6 6 2 2 2 2 2 2   c.",
"  y.y.y.i.y.y.y.y.y.y.y.  j.c c   . .   2 2 2 2 2 2 3 3 3 2 2   ",
"  i.i.i.p.i.p.p.i.i.i.i.  r.c v   . .   4 6 4 4 4 4 4 4 4 3 4   ",
"c.  p.p.p.p.p.p.p.p.p.h.k.            * 5 8 5 4 4 4 4 4 4 4   c.",
"c.  p.k.p.p.k.k.k.k.p.i.u.7.| / ~ < : > - = w 5 5 5 5 5 5 5   c.",
"c.c.    k.k.k.p.i.u.y.8.7. .{ / Q 1 < : ; & - = w w 5 5     c.c.",
"c.c.c.c.    p.y.y.0.7... .} [ / ! ~ ^ < , : ; & - =     c.c.c.c.",
"c.c.c.c.c.c.        .. .} { ( / ! ~ ~ 1 < ,         c.c.c.c.c.c.",
"c.c.c.c.c.c.c.c.c.c.                        c.c.c.c.c.c.c.c.c.c.",
};
