/* XPM */
static char *ft_xpm[] = {
/* columns rows colors chars-per-pixel */
"32 32 112 2",
"   c #000000000000",
".  c #272727272b2b",
"X  c #5f5f61613232",
"o  c #4d4d4f4f5050",
"O  c #5b5b5a5a5757",
"+  c #696969695e5e",
"@  c #757572724d4d",
"#  c #797979794c4c",
"$  c #747472725656",
"%  c #6f6f6d6d7474",
"&  c #767674747878",
"*  c #7d7d7d7d7b7b",
"=  c #afaf20200000",
"-  c #b9b93b3b0000",
";  c #bdbd4d4d0000",
":  c #c4c460600000",
">  c #cece75750000",
",  c #d0d07c7c0000",
"<  c #818181815e5e",
"1  c #8d8d8d8d6464",
"2  c #9c9c9c9c7777",
"3  c #cece82820000",
"4  c #dbdb97970000",
"5  c #dbdb9c9c0000",
"6  c #d5d5a3a30000",
"7  c #d2d2aeae0000",
"8  c #dbdba2a20000",
"9  c #d2d2b4b40000",
"0  c #d4d4baba0000",
"q  c #dfdfa6a62626",
"w  c #dfdfacac2828",
"e  c #e3e3b1b12929",
"r  c #e1e1bcbc2d2d",
"t  c #eeeeb1b12929",
"y  c #d5d5c9c90000",
"u  c #e3e3cccc0d0d",
"i  c #e0e0d4d40000",
"p  c #e2e2dbdb0000",
"a  c #e9e9dfdf1111",
"s  c #e4e4c4c42f2f",
"d  c #e9e9c3c32f2f",
"f  c #e8e8cdcd3434",
"g  c #e8e8dada2828",
"h  c #e8e8d7d73939",
"j  c #f0f0c3c33030",
"k  c #f0f0c9c93030",
"l  c #ffffd4d43333",
"z  c #ebebecec0000",
"x  c #f1f1f0f00000",
"c  c #eaeae3e33f3f",
"v  c #fdfdebeb3c3c",
"b  c #f7f7f9f93333",
"n  c #fffff0f03838",
"m  c #efefeaea4444",
"M  c #f3f3eded4646",
"N  c #fdfdefef4242",
"B  c #f4f4f2f24c4c",
"V  c #ffffffff4242",
"C  c #fefefefe4c4c",
"Z  c #f6f6f7f75151",
"A  c #ffffffff5151",
"S  c #ffffffff5c5c",
"D  c #ffffffff7676",
"F  c #ffffffff7a7a",
"G  c #868686868c8c",
"H  c #868688888c8c",
"J  c #888886868c8c",
"K  c #8c8c8c8c8e8e",
"L  c #8f8f8f8f9595",
"P  c #979795958989",
"I  c #949493939292",
"U  c #9e9e9d9d9797",
"Y  c #9e9e9e9e9c9c",
"T  c #a7a7a7a78585",
"R  c #ababa7a78585",
"E  c #a6a6a6a69393",
"W  c #a6a6a5a59c9c",
"Q  c #a7a7a9a99d9d",
"!  c #a9a9a7a79c9c",
"~  c #aaaaaaaa9d9d",
"^  c #b2b2b2b29393",
"/  c #a6a6a6a6adad",
"(  c #acacacacb4b4",
")  c #b4b4b4b4a4a4",
"_  c #b3b3b3b3a8a8",
"`  c #bfbfbfbfadad",
"'  c #bfbfc0c0adad",
"]  c #c0c0bfbfaeae",
"[  c #c0c0c0c0aeae",
"{  c #c5c5c5c5b1b1",
"}  c #c3c3c3c3baba",
"|  c #cacacacab6b6",
" . c #cacacacab8b8",
".. c #d0d0d0d0bbbb",
"X. c #ffffffff8585",
"o. c #ffffffffa0a0",
"O. c #ffffffffadad",
"+. c #ffffffffb4b4",
"@. c #d2d2d2d2c2c2",
"#. c #dcdcdcdccdcd",
"$. c #e2e2e2e2cece",
"%. c #e2e2e2e2d4d4",
"&. c #e7e7e6e6dbdb",
"*. c #ebebececd6d6",
"=. c #e6e6e6e6eded",
"-. c #edededede6e6",
";. c #ebebebebe9e9",
":. c #f1f1f2f2eaea",
">. c #ffffffffeeee",
",. c #f9f9f9f9f6f6",
"<. c #ffffffffffff",
"1. c None",
/* pixels */
"1.1.1.1.1.1.1.1.1.1.1.1.1.1.1.1.1.1.1.1.1.1.1.    1.1.1.1.1.1.1.",
"1.1.1.1.1.1.1.1.1.1.1.1.1.1.1.1.1.1.1.1.1.1.  +.D   1.    1.1.1.",
"1.1.1.1.1.1.1.1.1.1.1.1.1.1.1.1.1.1.1.        X.C M   D d   1.1.",
"1.1.1.1.1.1.1.1.1.1.1.1.1.1.1.1.1.1.  +.o.o.o.F m N C V ;   1.1.",
"1.1.1.1.1.1.1.1.1.1.1.1.1.1.1.1.1.1.  C b Z B i i u s e -   1.1.",
"1.1.1.1.1.1.1.1.1.1.1.1.1.1.1.1.1.1.1.  S B i 9   6 8 q 5     1.",
"1.1.1.1.1.1.1.1.1.1.1.1.1.1.1.1.1.1.  O.F i 9   1.  > 4 k V c   ",
"1.1.1.1.1.1.1.1.1.1.1.      1.1.1.  X.F m a   1.1.1.  l f 0 0   ",
"1.1.1.1.1.1.1.1.1.1.  <.<.<.  1.1.  x p a v f   1.  S A 0 0   1.",
"1.1.1.1.1.  1.1.1.1.  <.,.-.  1.1.1.    g f j e   S C h a   1.1.",
"1.1.1.1.  <.        <.<.:.:.%.          V r w t n C h c C z   1.",
"1.1.1.  <.<.<.<.<.<.<.:.&.#.$.>.<.<.<.  v : , 8 s 7 9 y p z   1.",
"1.1.  <.<.<.<.<.<.,.:.&.#.@.| ] ) ! U   3 =   6 u 9         1.1.",
"1.1.1.  <.<.<.<.,.:.&.#.@. .` _ ! U I K     1.  7 y   1.1.1.1.1.",
"1.1.1.  <.<.<.,.:.&.#.@. .` _ ! U I K J     1.1.    1.1.1.1.1.1.",
"1.1.1.  <.<.,.:.&.#.R # X $ P U I K G G     1.1.1.1.1.1.1.1.1.1.",
"1.1.1.  <.,.:.&.#.T #       + * K G G G &   1.1.1.1.1.1.1.1.1.1.",
"1.    <.<.:.&.#.R #   1.1.1.  o % G G K Y Y     1.1.1.1.1.1.1.1.",
"  <.<.<.:.&.#.@.#   1.1.1.1.1.  & G K P U ) %.{   1.1.1.1.1.1.1.",
"  <.,.:.&.#.@.| @   1.1.1.1.1.  / H I U W ) ` 1   1.1.1.1.1.1.1.",
"  ,.%.%.#.@.| [ E   1.1.1.1.1.  =.I U W ) < # 1   1.1.1.1.1.1.1.",
"1.    | | | [ ) _ W   1.1.1.  <.;.U W ) < #     1.1.1.1.1.1.1.1.",
"1.1.1.  [ [ ) ! U Y L       <.;.U Q ) ` #   1.1.1.1.1.1.1.1.1.1.",
"1.1.1.  *.) ! U I K L ( ,.<.;.U W ) `  .2   1.1.1.1.1.1.1.1.1.1.",
"1.1.1.  #.! U I K G G G J P Y Q ) ' | ..^   1.1.1.1.1.1.1.1.1.1.",
"1.1.1.  <.U I K G G G K I U ! ) ` | @.#.%.  1.1.1.1.1.1.1.1.1.1.",
"1.1.  @.} I K G G G K I U W ) ' | @.#.&.&.:.  1.1.1.1.1.1.1.1.1.",
"1.1.1.  O         . * U W ) $ # 1 T  .#.:.  1.1.1.1.1.1.1.1.1.1.",
"1.1.1.1.            + P ) < #         :.  1.1.1.1.1.1.1.1.1.1.1.",
"1.1.1.1.1.  1.1.1.1.  ~ ` #   1.1.1.1.  1.1.1.1.1.1.1.1.1.1.1.1.",
"1.1.1.1.1.1.1.1.1.1.  2 # 1   1.1.1.1.1.1.1.1.1.1.1.1.1.1.1.1.1.",
"1.1.1.1.1.1.1.1.1.1.1.      1.1.1.1.1.1.1.1.1.1.1.1.1.1.1.1.1.1.",
};
