/* XPM */
static char * image_name[] = {
"56 46 38 1",
" 	c #FFFFFFFFFFFF",
".	c #BEBEBABABEBE",
"X	c #000000001111",
"o	c #AEAEAAAAAEAE",
"O	c #030303030404",
"+	c #AEAE55552828",
"@	c #BEBE20202020",
"#	c #797986869E9E",
"$	c #202024249696",
"%	c #51515555FFFF",
"&	c #AEAEB2B2CFCF",
"*	c #C7C7BABAC7C7",
"=	c #B6B6AEAEB6B6",
"-	c #DFDFBABA8E8E",
";	c #28284D4D9696",
":	c #5959A2A2D7D7",
">	c #BEBEC3C3CFCF",
",	c #AEAEAEAEB6B6",
"<	c #FFFF14144141",
"1	c #D7D7DFDFE7E7",
"2	c #FFFF6161FFFF",
"3	c #79799292B6B6",
"4	c #181886865151",
"5	c #28285D5D4949",
"6	c #303071715959",
"7	c #CFCFC7C7CFCF",
"8	c #D7D7D3D3D7D7",
"9	c #5151A2A24949",
"0	c #BEBEC3C3BEBE",
"q	c #AEAE59590808",
"w	c #9E9E9A9A9E9E",
"e	c #EFEFF3F3F7F7",
"r	c #E7E7D7D79E9E",
"t	c #000030300808",
"y	c #717179798686",
"u	c #494949495151",
"i	c #96969696AEAE",
"p	c #A6A679798E8E",
"                                                       .",
" ......................................................X",
" ......................................................X",
" ......................................................X",
" o...o...o...o...o...o...o...o...o...o...o...o...o...o.X",
" ......................................................X",
" o.o.o.o.o.o.o.o.o.o.o.o.o.o.o.o.o.o.o.o.o.o.o.o.o.o.o.X",
" .....o.......o.......o.......o.......o.......o.......oX",
" o.o.o.o.o.o.o.o.o.o.o.o.o.o.o.o.o.o.o.o.o.o.o.o.o.o.o.X",
" ...o...o...o...o...o...o...o...o...o...o...o...o...o..X",
" o.o.o.o.o.o.o.o.o.o.o.o.o.o.o.o.o.o.o.o.o.o.o.o.o.o.o.X",
" .o...o.o.o...o.oO+OO@+OO@O+O@O+O+O@O+O.o.o...o.o.o...oX",
" o.o.o.o.o.o.o.oOOOOOOOOOOOOOOOOOOOOOOOO.o.o.o.o.o.o.o.X",
" .o.o.o.o.o.o.o.oOO##################OO.o.o.o.o.o.o.o.oX",
" o.o.o.o.o.o.o.o.O+$%o%$&%$&@+*@+=+@-+Oo.o.o.o.o.o.o.o.X",
" oo.ooo.ooo.ooo.oOO$$&%;&%%&@@-+@-@@oOO.ooo.ooo.ooo.oooX",
" o.o.o.o.o.o.o.o.OO%%&$%:;%:++>@+,@+*<Oo.o.o.o.o.o.o.o.X",
" ooooooooooooooooOO$%&%;>%;1+@-@+-@@2OOooooooooooooooooX",
" o.o.o.o.o.o.o.o.OOOOOOOXOOXOOOOOOOOO+Oo.o.o.o.o.o.o.o.X",
" ooooooooooooooooOO#####3############OOooooooooooooooooX",
" ooo.ooo.ooo.ooo.OO45-45&46&64=457457OOo.ooo.ooo.ooo.ooX",
" ooooooooooooooooO+45764864844754754o@OooooooooooooooooX",
" ooooooooooooooooOO54&45o45:45744-457OXooooooooooooooooX",
" ooooooooooooooooOO99884099899o99884>qOooooooooooooooooX",
" wooowooowooowoooOO54844&44,45ee4r44>OXoowooowooowooowoX",
" ooooooooooooooooOOOOOOOOOOOOOOOOtOOO+OooooooooooooooooX",
" oowowowooowowowoO+w##w##w#w##w##oyw#XOoooowowowooowowoX",
" ooooooooooooooooOO5$,$5,$$&yu*5$,#$ OOooooooooooooooooX",
" wowowowowowowowoOO55*$58$5*u$&$X*u$,@OwowowowowowowowoX",
" ooooooooooooooooO+y$&$5&5$&55oX$&$$,OOooooooooooooooooX",
" wowowowowowowowoOO$3i3$&$yp$5&$Xi5$&XOwowowowowowowowoX",
" owooowooowooowooO@#$2$52y$&$6i5$,$$8+OooowooowooowooowX",
" wowowowowowowowoOOOOOOOOXXOOOOXOOXXXOOwowowowowowowowoX",
" owowowowowowowowOO+O@+OO@OO+OO+O@O@+@OowowowowowowowowX",
" wowowowowowowowoOowowowowowowowowowowOwowowowowowowowoX",
" wwowwwowwwowwwoOwwowwwowwwowwwowwwowww@wwwowwwowwwowwwX",
" wowowowowowowowowowowowowowowowowowowowowowowowowowowoX",
" wwwwwwwwwwwwwwwwwwwwwwwwwwwwwwwwwwwwwwwwwwwwwwwwwwwwwwX",
" wowowowowowowowowowowowowowowowowowowowowowowowowowowoX",
" wwwwwwwwwwwwwwwwwwwwwwwwwwwwwwwwwwwwwwwwwwwwwwwwwwwwwwX",
" wwwowwwowwwowwwowwwowwwowwwowwwowwwowwwowwwowwwowwwowwX",
" wwwwwwwwwwwwwwwwwwwwwwwwwwwwwwwwwwwwwwwwwwwwwwwwwwwwwwX",
" wowwwwwwwowwwwwwwowwwwwwwowwwwwwwowwwwwwwowwwwwwwowwwwX",
" wwwwwwwwwwwwwwwwwwwwwwwwwwwwwwwwwwwwwwwwwwwwwwwwwwwwwwX",
" wwwwwwwwwwwwwwwwwwwwwwwwwwwwwwwwwwwwwwwwwwwwwwwwwwwwwwX",
".XXXXXXXXXXXXXXXXXXXXXXXXXXXXXXXXXXXXXXXXXXXXXXXXXXXXXXX"};
