/* XPM */
static char * image_name[] = {
"56 46 31 1",
" 	c #FFFFFAFAFFFF",
".	c #BEBEB6B6BEBE",
"X	c #000000001111",
"o	c #C7C7BABAC7C7",
"O	c #AEAEA6A6AEAE",
"+	c #CFCF55552828",
"@	c #CFCFC7C7CFCF",
"#	c #B6B6AEAEB6B6",
"$	c #B6B645455959",
"%	c #FFFFE7E7BEBE",
"&	c #D7D7D3D3D7D7",
"*	c #FFFF0000FFFF",
"=	c #51515555FFFF",
"-	c #A6A69E9EA6A6",
";	c #EFEF28285151",
":	c #79799292B6B6",
">	c #FFFF0C0C4949",
",	c #202024249696",
"<	c #8E8E8A8A8E8E",
"1	c #9E9E9A9A9E9E",
"2	c #AEAEAEAEB6B6",
"3	c #AEAE61616161",
"4	c #797986869E9E",
"5	c #010101010101",
"6	c #FFFFFFFFD7D7",
"7	c #5151A2A24949",
"8	c #69698686BEBE",
"9	c #FFFFFFFF0000",
"0	c #FFFFAEAE0000",
"q	c #A6A679798E8E",
"w	c #96969696AEAE",
"                                                       .",
" ......................................................X",
" .o.o.o.o.o.o.o.o.o.o.o.o.o.o.o.o.o.o.o.o.o.o.o.o.o.o.oX",
" ......................................................X",
" O.o.Oo.oO.o.Oo.oO.o.Oo.oO.o.Oo.oO.o.Oo.oO.o.Oo.oO.o.O.X",
" o...................................................o.X",
" O.OoO.O.OoO.O.OoO.OoO.O.OoO.O.OoO.OoO.O.OoO.O.O.OoO.O.X",
" .o...O.o....oO...o....+o....oO...o...O.o....oO.o.....OX",
" O.O.OoO.OoO.O.OoO.OoO.+@OoO.O.OoO.O.OoO.OoO.O.O.O.OoO.X",
" ..oO...O...O.o.O...Oo@+#...O.o.O..oO...O...O..oO.o.O..X",
" O.O.OoO.OoO.O.O.OoO.++$++@OoO.O.O.O.OoO.OoO.OoO.O.O.OoX",
" .O.o.O.O.O..oO.O.O..@%+o&O...O.O.O.o.O.O.O.o.O.O.O.o.OX",
" O.O.O.OoO.O.O.OoO*=.-.+@OoO*=.OoO.O.O.OoO.O.O.O.OoO.O.X",
" oO.OoO.O.OoO.O.=*=*=*.+O*=*=*=*O.O.OoO.O.O.O.OoO.O.O.OX",
" O.O.O.O.O.O.Oo*=*=*=*=;o=*=*=*=#O.O.O.OoO.OoO.O.O.O.O.X",
" OO.OOOoOOO.O:*=*=*=*=*>=*=*=*=*=*OoOOO.OOO.OOO.OOOoOOOX",
" O.O.O.O.OoO.O=*=*=*=*=O*=*=*=*=*=#O.OoO.O.O.OoO.O.O.OoX",
" OOOOOOOOOOOO=*=*=*,*=*<*=*=*,*=*=*OOOOOOOOOOOOOOOOOOOOX",
" O.OoO.O.O.O.*=*,*=*=*=1=*,*=*=*=*=O.O.O.OoO.O.OoO.O.O.X",
" OOOOOOOOOOOO=*=*=O23=*=*=*-O4*=*=*OOOOOOOOOOOOOOOOOOOOX",
" OOO.OOOoOOO.*=*-OO-.O*=*=12.O1=55555OOO.OOO.OOO.OOO.OOX",
" OOOOOOOOOO-O=*=O-#OO1=*=*OOOOO5666655OOOOOOOOOOOOOOOOOX",
" OOOOOOOOOOOOO=*1OOOOO*=*72OOO56666665OOOOOOOOOOOOOOOOOX",
" OOOOOOOOOOOo$=*=OOO-O=*=O#O8*566666665OOOOOOOOOOOOOOOOX",
" 1OOO1OOO1OOOOO*=*=*=*=*=*=*==X66666665OO1OOO1OOO1OOO1OX",
" OOOOOOOOOOOOOO55555555555555X56666665OOOOOOOOOOOOOOOOOX",
" OO1O1O1OOO1O1O59090909090909095666655O1OOO1O1O1OOO1O1OX",
" OOOOOOOOOOOOOO559595959595959595555OOOOOOOOOOOOOOOOOOOX",
" 1O1O1O1O1O1O1O590909090909090905665O1O1O1O1O1O1O1O1O1OX",
" OOOOOOOOOOOOOO5555555555555555566665OOOOOOOOOOOOOOOOOOX",
" 1O1O1O1O1O1O1O1O1O1O1O1O1O1O1O5666651O1O1O1O1O1O1O1O1OX",
" O1OO-1OO-1OOO1OOO1OOO1OOO1OOO556666551OO-1OO-1OO-1OOO1X",
" 1O1O1O1O1O1-1O1O1O1O1O1O1O1O156666665O1O1O1O-----O1-1OX",
" O1-1O1-1O1O1O1O1O1O1O1O1O1O1O566666651--O1O1O1O1-1O1O1X",
" 1O---O1O1-1O1-1-1O1-1O1-1O1O55666666551O1------O1O--1OX",
" 11O11--11-O11---11O111O11555666666666655-1-111-111--11X",
" 1-------1-1O1-1O1---1O1O5666666666666666551O1-1O1-1O1OX",
" 1111111111-q1-1111111111555555555555555555111-1111-111X",
" 1---1-1OqO1O1-1-1-1---1O1O1O1O1O1O1O1O1O1O1---1OqO1---X",
" 11111111-111111-q-1-q1111111111111111111111-q111-11111X",
" 11qO1q--111--qwO111--w1-111-111O111O111-111--w1-11qO11X",
" 1111-111-wq11-111111111111111111111111111111111111w111X",
" 1O1w11qw1--11111qOw1q11qw--111qw---11q-11-11q-q-1--111X",
" 111q11111111wq11w111111w-111q1-111q1111wq-1111w1111111X",
" 11111w11111111w111qw11111q11ww1111w11w11w1qw1111qw1qw1X",
".XXXXXXXXXXXXXXXXXXXXXXXXXXXXXXXXXXXXXXXXXXXXXXXXXXXXXXX"};
