/* XPM */
static char * image_name[] = {
"56 46 15 1",
" 	c #FFFFFFFFFFFF",
".	c #B6B6AEAEB6B6",
"X	c #BEBEB6B6BEBE",
"o	c #A7A7A4A4A7A7",
"O	c #000000001111",
"+	c #AEAEAEAEB6B6",
"@	c #BEBEC3C3BEBE",
"#	c #010101010101",
"$	c #969696969696",
"%	c #797986869E9E",
"&	c #51515555FFFF",
"*	c #FFFF0000FFFF",
"=	c #8E8E8A8A8E8E",
"-	c #A6A69E9EA6A6",
";	c #A6A679798E8E",
"                                                       .",
" X.o.o.o.o.o.o.o.o.o.o.o.o.o.o.o.o.o.o.o.o.o.o.o.o.o.o.O",
" oXXXXXXXXXXXXXXXXXXXXXXXXXXXXXXXXXXXXXXXXXXXXXXXXXXXXXO",
" X+++X+++++X+++++X+++++X+++++X+++++X+++++X+++++X++++++.O",
" oXXXoXX@oX+@oXXXoXX@oX+@oXXXoXX@oX+@oXXXoXX@oX+@oXXXo+#",
" X+X++X+.X+X+X+X++X+.X+X+X+X++X+.X+X+X+X++X+.X+X.X+X+XXO",
" $XoXo+oXoXo.oXoXo+oXoXo.oXoXo+oXoXo.oXoXo+oXo+++oXoXoXO",
" X+X+X++X++X+Xo+X+X@++oX+X+X+X++X++X+Xo++X@+X+++XX++X+oO",
" oXo++.o+oXo+++++++oX++oXo++++.o+oXo++.+Xo.oXoXo+oXo++.O",
" +X+++X++X+X++XXoXXXo+XX++X.++X++XX+++X+o+X+oX+XoX+Xo.XO",
" $XoXoXoXoXo.oX$X$#############oX$XoXoXoXo+oXo++.o++.o+O",
" .o+X+oXo+o+X+++o#            #####X+Xo+oXo+X+++oXoX+XoO",
" oXoXo+o+oXoXo.oX# .X.X.X.    #   #oXo++Xo+oXoXoXo+oXoXO",
" Xo+oXo.++++o+oXo#            #   #+oXo+oXo+oXo+o.++o+oO",
" $.oX$++.oX$XoXo+# .X+X+X     #  #.oXo+oX$XoXo+$Xo++XoXO",
" ooXooo.ooo+oo$Xo#            #  #######ooo+oooXooo.oooO",
" o+o++X$+oXoXo+oX# .X.X.X+ .  #  #    #oXo++Xo+oXo+o.o.O",
" oooo$ooooooooooo#            # #    #oooooooooooooooooO",
" $.oXoXo+oXo+oXo.#  %#   %#   # #   #o.oXo+o.oXo+oXo+oXO",
" oooooooooooooo### .#   .#    #### ######ooooooooooooooO",
" oooXoooXoooXo##&####%####%####&#&#  ##o.oooXoooXoooXooO",
" ooo$ooooooooo#&# .%# ..%# ..#&#&*###ooooooooooooooooooO",
" $oooooooooooo#&#####%#O##%#O#&#*&##oooooooooooooooooooO",
" ooooooooooooo##&# .#   .#    #&#*# #ooooooooooooooooooO",
" $ooo$ooo=ooo$o##   %#   %#  #####   #ooo$ooo$ooo$ooo$oO",
" ooooooooooooooo# .          # # # ####ooooooooooooooooO",
" $o$o$o$ooo$o$o$# . . . . .  # #  #$o$o$ooo$o=o$ooo$o$oO",
" oooooooooooooo#            #  #  ######ooooooooooo$oooO",
" $o$o$$$o$o$o=o# . . . . .  #  #   #o$#&#$o$o$o$o$o$o$oO",
" oooooooooooooo#            #  #####o#&#ooooooooo$oooooO",
" $o=o$o$o=o$o$o#############   #&#o$#&#$o=o$o=o$o$o$o=oO",
" o$ooo=ooo$oo-$o#&#            #&#$#&#$ooo$ooo$ooo=ooo$O",
" $-$o$o$-$-$o$o=#&##############&##&#$-$-$-$o$o=o$o$-$-O",
" -$-$-$-$o=o$-$o#.&#$o$o$o$o$o$#.&&#=o$-$o=o$-$o$-$-$o$O",
" $o$-$o$-$o$-$-$o##$-$o=o$-$-$o$###$o$-$o$o$-$-$o$-$o$-O",
" $$o=$$-$$$-$$$-$$$o=$$o$$$o$=$o=$$-$$$-$$$-$=$-$$$-$$$O",
" $$$-$-$-$-$-$-$-$-$o$-$-$-$-$o$o$-$-$-$-$-$o$o$-$-$-=oO",
" =$=$$$$$=$$$$$$=$$$$$$$$=$$$$$$$$$$$$$$$=$$$$$$$=$$$$$O",
" $-$-$-=o$-=-=o$-$-=-$-=-$-$-=-$-=-$-=-$-$-$-=-$-$-$-$-O",
" $$$$=$$$$$$$$$$$$$$$=$$$$$=$$$$$$$=$$$=$$$=$$$=$$$=$$$O",
" $=$-$$$-$$$-$=$-=$$-$$$-$$$-$$=-$$$-$$$-$$$-$$$-$$$-$=O",
" $$$$$=$$=$=$$$$$$$$$$=$$$=$$$=$$$=$$$=$$$=$$$=$$=$$=$$O",
" $-$=$$$$$-$$=$$=$-=$$$$=$-$=$$$$$-$=$$$=$-$$$$$$$-$$$$O",
" $$$$$$$=$$$$$=$$$$$$$=$$$$$$$$$=$$$$$=$$$$$=$=$=$$$=$$O",
" $=$=$$$$$=$$$$$=$$=$$$$$;$$=$$;$=$=$$$$$=$$$$$$$$=$$$=O",
".OOOOOOOOOOOOOOOOOOOOOOOOOOOOOOOOOOOOOOOOOOOOOOOOOOOOOOO"};
