/* XPM */
static char * image_name[] = {
"56 46 22 1",
" 	c #FFFFFAFAFFFF",
".	c #BEBEB6B6BEBE",
"X	c #000000001111",
"o	c #C7C7BABAC7C7",
"O	c #AEAEA6A6AEAE",
"+	c #010101010101",
"@	c #FFFFFFFFD7D7",
"#	c #DFDFBABA8E8E",
"$	c #F7F7B2B2AEAE",
"%	c #8E8E86867979",
"&	c #AEAE61616161",
"*	c #FFFF0C0C4949",
"=	c #AEAEAEAEB6B6",
"-	c #FFFF14144141",
";	c #9E9E9A9A9E9E",
":	c #797986869E9E",
">	c #FFFFE7E7BEBE",
",	c #FFFFFFFFC7C7",
"<	c #A6A69E9EA6A6",
"1	c #5151A2A24949",
"2	c #A6A679798E8E",
"3	c #96969696AEAE",
"                                                       .",
" ......................................................X",
" .o.o.o.o.o.o.o.o.o.o.o.o.o.o.o.o.o.o.o.o.o.o.o.o.o.o.oX",
" ......................................................X",
" O.o.Oo.oO.o.Oo.oO.o.Oo.oO.o.Oo.oO.o.Oo.oO.o.Oo.oO.o.O.X",
" o...................................................o.X",
" O.OoO.O.OoO.O.O.OoO.O.O.OoO.O.O.OoO.O.O.OoO.OoO.O.O.O.X",
" .o...O.o...++++++++++++++++++++o....oO.o...o.O..o.o..OX",
" O.O.OoO.O.O+@@@@@@@@@@@@@@@@@@++O.OoO.O.O.O.O.O.O.O.O.X",
" ..oO...Oo..+@@@@@@@@@@@@@@@@@@+#+o.O.o.O.o.O.o.Oo..O.oX",
" O.O.OoO.O.O+@@@@@@@@@@@@@@@@@@+##+O.O.O.O.O.O.O.O.OoO.X",
" .O...O.O.O.+@@@@@@@@@@@@@@@@@@+###+o.O.OoO..oO.O.O...OX",
" OoOoO.O.OoO+@@@@@@@@@@@@@@@@@@+####+OoO.O.OoO.OoO.OoO.X",
" .O.O.OoO.O.+@@@@@@@@@@@@@@@@@@+#$###+O.O.O.O.O.O.O.O.OX",
" O.O.O.O.O.O+@@@@@@@@@@@@@@@@@@+++X+++%O.OoO.O.O.OoO.O.X",
" OO.OOO.OOO.+@@@@@@@@@@@@@@@@@@@#####+&.OOO.OOOoOOO.OOOX",
" O.O.OoO.OoO+@@@@@@@@@@@@@@@@@@@*@@##X%=.O.OoO.O.O.OoO.X",
" OOOOOOOOOOO+@@@@@@@@@@@@@@@@@@#*#@@@+%OOOOOOOOOOOOOOOOX",
" O.OoO.O.O.O+@@@@@@@@@@@@@@@@@@---@@@+%O.O.O.O.O.O.O.O.X",
" OOOOOOOOOOO+@@@@@@@@@@@@@@@@@#--*#@@+&OOOOOOOOOOOOOOOOX",
" OOO.OOO.OOO+@@@@@@@@@@@@@@@@@-----@@+%=.OOO.OOOoOOO.OOX",
" OOOOOOOOOOO+@@@@@@@@@@@@@@@@#----*#@+%OOOOOOOOOOOOOOOOX",
" OOOOOOOOOOO+@@@@@@@@@@@@@@@@-------@+%OOOOOOOOOOOOOOOOX",
" OOOOOOOOOOO+@@@@@@@@@@@@@@@@-------@+&OOOOOOOOOOOOOOOOX",
" ;OOO;OOO;OO+@@@@@@@@@@@@@@@@::---::@+%=O;OOO;OOO;OOO;OX",
" OOOOOOOOOOO+@@@@@@@@@@@@@@@@@@---:@@+%OOOOOOOOOOOOOOOOX",
" OO;O;O;OOO;+@@@@@@@@@@@@@@@@@@---:@@+%;OOO;O;O;OOO;O;OX",
" OOOOOOOOOOO+@@@@@@@@@@@+++++++---+++++++OOOOOOOOOOOOOOX",
" ;O;O;O;O;O;+@@@@@@@@@@+#######---#######+O;O;O;O;O;O;OX",
" OOOOOOOOOOO+@@@@@@@@@+++X#####--*#####++++OOOOOOOOOOOOX",
" ;O;O;O;O;O;+@@@@@@@@@+>>,+#$######$##X,>,+&=;O;O;O;O;OX",
" O;OOO;OOO;O+@@@@@@@@@+>>>,+++XX+X++X+>>>>+%OO;OOO;OOO;X",
" ;O;O;<;O;O;+@@@@@@@@@+>>>>>,>>>>>,>>>>>>>+%O;O;<;<;O;OX",
" O;<;O;<;O;O+@@@@@@@@@+>>>>>>>>>>>>>>>>>>>+&;O;O;O;O;O;X",
" ;O;O;O;O;<;+@@@@@@@@@+>>>>>>>>>>>>>>>>>>>+%=;<<<<<;O;OX",
" ;;O;;;O;;;O+@@@@@@@@@@++++++++++++++++++X1&;;;O;;;O;;;X",
" ;<;O;<<<;O;+@@@@@@@@@@@@::::::::::::+%&%%23=;O;O;O;<;OX",
" ;<32;;;;;;;++++++++++++++++++++++++++%3;;;;;;;;32;;;;;X",
" ;<;O<<<<;O;O&12%&12%&12%&12%&12%&12%&1<O;O;O;<;O<<<<;OX",
" ;;;;;32;;;;;3<;;3<;;3<;;3<;;3<;33<;;3<<;;;;;;<;;;;;;;;X",
" ;;;O;;<O;23O;;;O;;;O;;;O;;;O;;;O;;;O;;3<;;;<;23O;;2O<;X",
" ;;;;;;;;;<;;;;;;;;;;;;;;;;;;;;;;;;;;;;;;32;;3;;;;;3;;;X",
" ;<;2<;23;<;;;;;;;<;;;;;;;<3;;;;;;<3;;;;;;O<;;;;2<<;;;;X",
" ;;;3;3<;;;;32;32;;32;;32;;;;2;32;;;32;32;;;;<2;3;;;;;;X",
" ;;;;;;;;;;;;<;;3;;;3;;;3;;;;3;;<;;;;;;;;<23;;3;;;23;2;X",
".XXXXXXXXXXXXXXXXXXXXXXXXXXXXXXXXXXXXXXXXXXXXXXXXXXXXXXX"};
