/* XPM */
static char * image_name[] = {
"56 46 21 1",
" 	c #FFFFFFFFFFFF",
".	c #BEBEBABABEBE",
"X	c #000000001111",
"o	c #AEAEAAAAAEAE",
"O	c #C7C7BABAC7C7",
"+	c #010101010101",
"@	c #AEAEAEAEB6B6",
"#	c #5959A2A2D7D7",
"$	c #D7D7DFDFE7E7",
"%	c #AEAEB2B2CFCF",
"&	c #CFCFC7C7CFCF",
"*	c #0000FFFFFFFF",
"=	c #B6B645455959",
"-	c #EFEF28285151",
";	c #202020202020",
":	c #BEBEC3C3CFCF",
">	c #FFFF14144141",
",	c #FFFF0C0C4949",
"<	c #000030300808",
"1	c #9E9E9A9A9E9E",
"2	c #96969696AEAE",
"                                                       .",
" ......................................................X",
" ......................................................X",
" ......................................................X",
" o...o...o...o...o...o...o...o...o...o...o...o...o...o.X",
" .....O....O...O..O....O...O..O....O...O..O...O..O..O..X",
" o.o.o.o.o.o.o.o.o.o.o.o.o.o.o.o.o.o.o.o.o.o.o.o.o.o.o.X",
" .....o.......o.......o.......o.......o.......o.......oX",
" o.o.o.o.o.o.o.o.o.o.o.o.o.o.o.o.o.o.o.o.o.o.o.o.o.o.o.X",
" ...o...o...o...o...o...o...o...o...o...o...o...o...o..X",
" o.o.o.o.o.o.o.o.o.o.o.o.o.o.o.o.o.o.o.o.o.o.o.o.o.o.o.X",
" .o...o.o.o...o.o.o...o.o.o...o.o.o...o.o.o...o.o.o...oX",
" o.o.o.o.o.o.o.o.o.o.o.o.o.o.o.o.o.o.o.o.o.o.o.o.o.o.o.X",
" .o.o.o.o.o.o.o.o.o.o.o.o.o.o.o.o.o+o.o.o.o.o.o.o.o.o.oX",
" o.o.o.o.o.o.o.o.o.o.o.o.o.o.o.o.o+o.o.o.o.o.o.o.o.o.o.X",
" oo.ooo.ooo.ooo.ooo.ooo.ooo.ooo.o+o.ooo.ooo.ooo.ooo.oooX",
" o.o.o.o.o.o.o.o.++++++++++++++++++++++o.o.o.o.o.o.o.o.X",
" ooooooooooooooooo+ooooooooooooo+oooo+oooooooooooooooooX",
" o.o.o.o.o.o.o.o.o.+.o.o.o.o.o.+.o.o+o.o.o.o.o.o.o.o.o.X",
" oooooooooooooooooo@+#$#$#$#%%+$#%%+oooooooooooooooooooX",
" ooo.ooo.ooo.ooo.ooo&+#$*$#$=--#$*;@.ooo.ooo.ooo.ooo.ooX",
" oooooooooooooooooooo@@#$#:->,--:+oooooooooooooooooooooX",
" oooooooooooooooooooooo+:*$->>>>X@oooooooooooooooooooooX",
" oooooooooooooooooooooo%<$#>>>>+oooooooooooooooooooooooX",
" 1ooo1ooo1ooo1ooo1ooo1oooX$#->+oo1ooo1ooo1ooo1ooo1ooo1oX",
" ooooooooooooooooooooooo@@<::+oooooooooooooooooooooooooX",
" oo1o1o1ooo1o1o1ooo1o1o1o@@X<2o1ooo1o1o1ooo1o1o1ooo1o1oX",
" ooooooooooooooooooooooooo@++ooooooooooooooooooooooooooX",
" 1o1o1o1o1o1o1o1o1o1o1o1o1o++1o1o1o1o1o1o1o1o1o1o1o1o1oX",
" oooooooooooooooooooooooooo++ooooooooooooooooooooooooooX",
" 1o1o1o1o1o1o1o1o1o1o1o1o1o++1o1o1o1o1o1o1o1o1o1o1o1o1oX",
" o1ooo1ooo1ooo1ooo1ooo1ooo1++o1ooo1ooo1ooo1ooo1ooo1ooo1X",
" 1o1o1o1o1o1o1o1o1o1o1o1o1o++1o1o1o1o1o1o1o1o1o1o1o1o1oX",
" o1o1o1o1o1o1o1o1o1o1o1o1o1++o1o1o1o1o1o1o1o1o1o1o1o1o1X",
" 1o1o1o1o1o1o1o1o1o1o1o1o1o++1o1o1o1o1o1o1o1o1o1o1o1o1oX",
" 11o111o111o111o111o111o111++11o111o111o111o111o111o111X",
" 1o1o1o1o1o1o1o1o1o1o1o1o++1o++1o1o1o1o1o1o1o1o1o1o1o1oX",
" 1111111111111111111111++111111++1111111111111111111111X",
" 1o1o1o1o1o1o1o1o1o1o++++++++++++++1o1o1o1o1o1o1o1o1o1oX",
" 111111111111111111111111111111111111111111111111111111X",
" 111o111o111o111o111o111o111o111o111o111o111o111o111o11X",
" 111111111111111111111111111111111111111111111111111111X",
" 1o1111111o1111111o1111111o1111111o1111111o1111111o1111X",
" 111111111111111111111111111111111111111111111111111111X",
" 111111111111111111111111111111111111111111111111111111X",
".XXXXXXXXXXXXXXXXXXXXXXXXXXXXXXXXXXXXXXXXXXXXXXXXXXXXXXX"};
