/* XPM */
static char * image_name[] = {
"14 14 28 1",
" 	c #CFCFC7C7CFCF",
".	c #A6A69E9EA6A6",
"X	c #A7A7A4A4A7A7",
"o	c #717175757171",
"O	c #969696969696",
"+	c #717179798686",
"@	c #696969697171",
"#	c #8E8E8A8A8E8E",
"$	c #616161616161",
"%	c #414138384141",
"&	c #202028285151",
"*	c #303034343030",
"=	c #010101010101",
"-	c #A6A679798E8E",
";	c #AEAE61616161",
":	c #797986869E9E",
">	c #868679798686",
",	c #D7D7D3D3D7D7",
"<	c #AEAEB2B2CFCF",
"1	c #EFEFF3F3F7F7",
"2	c #E7E7E7E7EFEF",
"3	c #C7C7BABAC7C7",
"4	c #FFFFFAFAFFFF",
"5	c #494949495151",
"6	c #96969696AEAE",
"7	c #D7D7DFDFE7E7",
"8	c #BEBEC3C3CFCF",
"9	c #B6B645455959",
"             .",
"X.XXXXXXXXXXXo",
"XOXXooooo+XOX@",
"X#.$%&*%*%.O.o",
"XO.*%%%&%=OO.$",
"OOX%&**%*=.O#$",
"OOOo+-;:O+O#O+",
"O>:.,<X1 ..O#$",
"OoO2213,,24OO5",
"6; 711@,212O>$",
"O$84 3,,.3.@>$",
">o@<<<633>&++$",
"+o+o>&%&@+>o>5",
"@95$$$$$$5$55%"};
