/* XPM */
static char * image_name[] = {
"14 14 23 1",
" 	c #FFFFFAFAFFFF",
".	c #C7C7BABAC7C7",
"X	c #D7D7D3D3D7D7",
"o	c #717175757171",
"O	c #BEBEB6B6BEBE",
"+	c #868679798686",
"@	c #1010A2A21010",
"#	c #AEAEA6A6AEAE",
"$	c #B6B6AEAEB6B6",
"%	c #020207070808",
"&	c #616161616161",
"*	c #A6A69E9EA6A6",
"=	c #717179798686",
"-	c #A6A679798E8E",
";	c #AEAEAEAEB6B6",
":	c #96969696AEAE",
">	c #8E8E8A8A8E8E",
",	c #000030300808",
"<	c #969696969696",
"1	c #AEAEB2B2CFCF",
"2	c #000000001111",
"3	c #494949495151",
"4	c #28282C2C3030",
"             .",
"X...........Xo",
".O.........O.+",
"......@....O.o",
"..#$$$@+$$$$.+",
"$$$.$#@+$...$o",
"$$$$$o%&*$$$$=",
"$$-$-@@@;-$-$&",
"$*:**@@@#:*>$&",
"$-***@,%-*<>1&",
"$><-<&%<<><-<&",
"<>:>o@%2&<<>:&",
"<=><=3&&&-==*&",
"=&&&&&&=&=&&&4"};
