/* XPM */
static char * image_name[] = {
"14 14 29 1",
" 	c #D7D7D3D3D7D7",
".	c #A6A69E9EA6A6",
"X	c #616161616161",
"o	c #969696969696",
"O	c #8E8E8A8A8E8E",
"+	c #96969696AEAE",
"@	c #868679798686",
"#	c #595951512828",
"$	c #515155554949",
"%	c #020207070808",
"&	c #CFCF55552828",
"*	c #BEBE20202020",
"=	c #414138384141",
"-	c #696969697171",
";	c #494949495151",
":	c #AEAEB2B22828",
">	c #FFFFEBEBAEAE",
",	c #E7E7D7D79E9E",
"<	c #FFFFB6B61010",
"1	c #181820202020",
"2	c #303034343030",
"3	c #202028285151",
"4	c #202020202020",
"5	c #AEAE61616161",
"6	c #717179798686",
"7	c #28285D5D4949",
"8	c #717175757171",
"9	c #DFDFAEAE6969",
"0	c #000000001818",
"             .",
".............X",
".ooO+ooO+ooO.X",
".oO+.+O.O+O+oX",
".O.@##++Oooo+$",
"Ooo%&*%=#=-Oo;",
"oO=:>,<>,>#Oo;",
"O+1>>>>>>>2Oo=",
"o@3>>>>>>>45+=",
"O@%>>>>>>>1667",
"o-4>>>>>>>%8@=",
"@8%9<:<<9<4--=",
"--X44401%1=--=",
"========7====1"};
