/* XPM */
static char * image_name[] = {
"14 14 32 1",
" 	c #EFEFF3F3F7F7",
".	c #FFFFFAFAFFFF",
"X	c #D7D7D3D3D7D7",
"o	c #CFCFC7C7CFCF",
"O	c #AEAEAAAAAEAE",
"+	c #9A9A98989A9A",
"@	c #A6A69E9EA6A6",
"#	c #8E8E8A8A8E8E",
"$	c #C7C7BABAC7C7",
"%	c #AEAEA6A67171",
"&	c #E7E7D7D79E9E",
"*	c #AEAE61616161",
"=	c #717175757171",
"-	c #DFDFBABA8E8E",
";	c #616161616161",
":	c #96969696AEAE",
">	c #FFFFFFFFC7C7",
",	c #020207070808",
"<	c #494949495151",
"1	c #181820202020",
"2	c #414138384141",
"3	c #BEBEC3C3BEBE",
"4	c #AEAEAEAEB6B6",
"5	c #B6B6AEAEB6B6",
"6	c #202020202020",
"7	c #515155554949",
"8	c #595951512828",
"9	c #8E8E86867979",
"0	c #5151A2A24949",
"q	c #696969697171",
"w	c #797986869E9E",
"e	c #A6A679798E8E",
" . . . . . . X",
"XXXoXXoXXXoXXO",
"XXXO+O@O#XXXX+",
"X$XO%&&+*OX$XO",
"X$X+=-+%+;XX$+",
"$X$:>&-&-%$$$@",
"$$$#&,,<1Oo$$+",
"$o$+>;,2%-O3o@",
"oOX=&,;,+34OX#",
"XO5+&,6,7-OOO:",
"$OO=>=8903OOO#",
"OOOq-O-3-=OOO:",
"OOOO#+#+#OOOO+",
"O9:#:w:#:e#@#="};
