/* XPM */
static char * image_name[] = {
"14 14 30 1",
" 	c #FFFFFAFAFFFF",
".	c #D7D7D3D3D7D7",
"X	c #9E9E9A9A9E9E",
"o	c #CFCFC7C7CFCF",
"O	c #DFDFBABA8E8E",
"+	c #A6A679798E8E",
"@	c #C7C7BABAC7C7",
"#	c #AEAEAEAEB6B6",
"$	c #B6B645455959",
"%	c #F7F700000808",
"&	c #28285D5D4949",
"*	c #010101010101",
"=	c #BEBEC3C3BEBE",
"-	c #BEBE20202020",
";	c #FFFFE7E7BEBE",
":	c #616161616161",
">	c #B6B6AEAEB6B6",
",	c #595951512828",
"<	c #8E8E8A8A8E8E",
"1	c #BEBEB6B6BEBE",
"2	c #AEAEB2B2CFCF",
"3	c #EFEF28285151",
"4	c #969614140808",
"5	c #BEBEC3C3CFCF",
"6	c #AEAEA6A6AEAE",
"7	c #FFFF14144141",
"8	c #797986869E9E",
"9	c #A6A69E9EA6A6",
"0	c #868679798686",
"q	c #717179798686",
"             .",
".............X",
".o.o...O+o.o.X",
".@.@oo#$%ooo.X",
".o@o.&X*%ooooX",
"=@.@@-;::o@o@X",
"oo>oO-%,-%.=o<",
"@1@23444%32>5<",
"o#o6%$%4%3=o><",
"@661762O%626><",
"o66267-7+16668",
"1X696696X6666<",
"6X666666666668",
"<<<0<00<00<q<:"};
