/* XPM */
static char * image_name[] = {
"14 14 16 1",
" 	c #FFFFFFFFFFFF",
".	c #D7D7D3D3D7D7",
"X	c #E7E7E7E7EFEF",
"o	c #D7D7DFDFE7E7",
"O	c #C7C7BABAC7C7",
"+	c #202020202020",
"@	c #595951512828",
"#	c #414138384141",
"$	c #FFFFFFFFD7D7",
"%	c #AEAEA6A6AEAE",
"&	c #8E8E8A8A8E8E",
"*	c #CFCFC7C7CFCF",
"=	c #070705050808",
"-	c #969696969696",
";	c #616161616161",
":	c #28282C2C3030",
"             .",
"X.oXXXoXXXoXXO",
"XX.......X..XO",
"X..X...XO.XXXO",
".+@#X.$X#%O&XO",
"*=O.--&.;O#=%O",
"O=#-%=: =-#= %",
"O=-.X=; =-;: %",
"O=;;-+=.=-;=%%",
"X---%.-.-.O-o%",
".....*..*.O..%",
"OO%*%O*O*OO*O%",
"OO*OOOOOOOOOO%",
"%%%%%%%%%%%%%-"};
