/* XPM */
static char * image_name[] = {
"14 14 25 1",
" 	c #CFCFC7C7CFCF",
".	c #D7D7D3D3D7D7",
"X	c #B6B6AEAEB6B6",
"o	c #BEBEB6B6BEBE",
"O	c #AEAEAAAAAEAE",
"+	c #8E8E8A8A8E8E",
"@	c #8E8E86867979",
"#	c #717175757171",
"$	c #9A9A98989A9A",
"%	c #FFFFFFFFD7D7",
"&	c #797986869E9E",
"*	c #FFFFEBEBAEAE",
"=	c #E7E7D7D79E9E",
"-	c #616161616161",
";	c #696969697171",
":	c #181820202020",
">	c #000008080808",
",	c #AEAE9E9E5959",
"<	c #202024249696",
"1	c #38386D6DA6A6",
"2	c #00001C1C8E8E",
"3	c #202028285151",
"4	c #AEAEB2B2CFCF",
"5	c #51515555FFFF",
"6	c #D7D7DFDFE7E7",
" . . . . . . X",
"XoOoOXXOoOoOo+",
"oOo+@@@@#XXOo$",
"XOX+%%%%@+XXo+",
"XOX&*= *--OOO$",
"OOO+;:>>>,$Oo+",
"X$O++<1<<=&OO+",
"OOO++23<2=+OO+",
"O$O@+<2<<=&OO+",
"O$O&45555=+$$+",
"O$$#6 . 6 @$$&",
"$O$;@O,OO@+$$+",
"$+$O+&+@&@$$O+",
"+++&@&@&+&+&+;"};
