/* XPM */
static char * image_name[] = {
"14 14 29 1",
" 	c #CFCFC7C7CFCF",
".	c #C7C7BABAC7C7",
"X	c #A6A69E9EA6A6",
"o	c #A7A7A3A3A7A7",
"O	c #9E9E9A9A9E9E",
"+	c #717175757171",
"@	c #8E8E8A8A8E8E",
"#	c #616161616161",
"$	c #696969697171",
"%	c #E7E7D7D79E9E",
"&	c #8E8E86867979",
"*	c #AEAE9E9E5959",
"=	c #515155554949",
"-	c #DFDFAEAE6969",
";	c #595951512828",
":	c #FFFFFFFFC7C7",
">	c #494949495151",
",	c #FFFFFFFFD7D7",
"<	c #96969696AEAE",
"1	c #030303030404",
"2	c #A6A679798E8E",
"3	c #868679798686",
"4	c #FFFFEBEBAEAE",
"5	c #AEAE61616161",
"6	c #FFFFE7E7BEBE",
"7	c #797986869E9E",
"8	c #28282C2C3030",
"9	c #5151A2A24949",
"0	c #717179798686",
"    .     .  X",
"oOXOoOXOXOoOo+",
"oXo@#++$$ooXo+",
"XOO$%&*%=@XOo+",
"XOX$-$;%=;OOX+",
"XOO$:%=%%$OOO+",
"OOO>,:&=%$OOO+",
"OO<>:%;1;$2OO$",
"O3O>4%1%&=O5<$",
"O3O>%&1:6#77O$",
"O33>,%8=8=@57$",
"33@>59#;>#977$",
"@+793$57+$23&>",
"+$$00$0>$$$$0>"};
