/* XPM */
static char * image_name[] = {
"14 14 34 1",
" 	c #CFCFC7C7CFCF",
".	c #C7C7BABAC7C7",
"X	c #A6A69E9EA6A6",
"o	c #A7A7A3A3A7A7",
"O	c #9E9E9A9A9E9E",
"+	c #717175757171",
"@	c #696969697171",
"#	c #5151A2A24949",
"$	c #FFFFEBEBAEAE",
"%	c #202020202020",
"&	c #515155554949",
"*	c #8E8E8A8A8E8E",
"=	c #717179798686",
"-	c #E7E7D7D79E9E",
";	c #000008080808",
":	c #616161616161",
">	c #595951512828",
",	c #FFFFFFFFD7D7",
"<	c #000030300808",
"1	c #38386D6DA6A6",
"2	c #AEAE61616161",
"3	c #A6A679798E8E",
"4	c #FFFFFFFFC7C7",
"5	c #797986869E9E",
"6	c #96969696AEAE",
"7	c #28285D5D4949",
"8	c #28284D4D9696",
"9	c #868679798686",
"0	c #494949495151",
"q	c #202028285151",
"w	c #79799292B6B6",
"e	c #28282C2C3030",
"r	c #8E8E86867979",
"t	c #AEAEA6A67171",
"    .     .  X",
"oOXOoOXOXOoOo+",
"oXo+@@@@@oXXo+",
"XOo#$%&$&*XOo+",
"XOX=-;;$:>OOX+",
"XOO@,><12:OOO+",
"OO3245111#3OO=",
"3O674@@58@3OO@",
"O9O0,:8qw:59O@",
"O9O0-;;-4#59O@",
"O+9:-ee44+999@",
"9*90r&:tr>2**@",
"*=*=@@#=@+55+2",
"+@@@@@=@@@@@@0"};
