/* XPM */
static char * image_name[] = {
"14 14 23 1",
" 	c #B6B6AEAEB6B6",
".	c #8E8E8A8A8E8E",
"X	c #616161616161",
"o	c #868679798686",
"O	c #AEAE61616161",
"+	c #797986869E9E",
"@	c #494949495151",
"#	c #717175757171",
"$	c #515155554949",
"%	c #414138384141",
"&	c #020207070808",
"*	c #969696969696",
"=	c #8E8E86867979",
"-	c #717179798686",
";	c #28285D5D4949",
":	c #D7D7DFDFE7E7",
">	c #FFFFFAFAFFFF",
",	c #202020202020",
"<	c #E7E7E7E7EFEF",
"1	c #BEBEB6B6BEBE",
"2	c #181820202020",
"3	c #696969697171",
"4	c #AEAEB2B2CFCF",
"             .",
".............X",
".oO+..@#.oO+.$",
".++OX%&&@+*#.X",
".=-XX&&&%;O+o@",
"o-.Xoo:>o,-.o@",
"oooX%<>>.,ooo@",
"oXoX@1>. ,oo-@",
"oXo%o.o.12oXo%",
"o3X%o1.11&oXX@",
"oXX@o1414,X3X%",
"XXXX@-+Oo,XXX@",
"XXXX@,%,%3XXX%",
"@@%@%%@%@%@%@,"};
