/* XPM */
static char * image_name[] = {
"14 14 27 1",
" 	c #FFFFFAFAFFFF",
".	c #D7D7D3D3D7D7",
"X	c #969696969696",
"o	c #C7C7BABAC7C7",
"O	c #CFCFC7C7CFCF",
"+	c #8E8E8A8A8E8E",
"@	c #28284D4D9696",
"#	c #AEAE61616161",
"$	c #868679798686",
"%	c #A6A69E9EA6A6",
"&	c #202024249696",
"*	c #202028285151",
"=	c #000008080808",
"-	c #28282C2C3030",
";	c #AEAEB2B2CFCF",
":	c #616161616161",
">	c #A6A679798E8E",
",	c #B6B6AEAEB6B6",
"<	c #717179798686",
"1	c #96969696AEAE",
"2	c #BEBE20202020",
"3	c #AEAEA6A6AEAE",
"4	c #B6B645455959",
"5	c #969614140808",
"6	c #AEAE55552828",
"7	c #8E8E86867979",
"8	c #494949495151",
"             .",
".............X",
".o.o.oOO.o.o.+",
".ooooo@#ooo.oX",
".o.o.@@@@.oo.$",
"oooo%&*=-.ooo+",
"ooooo;:>,ooo.<",
"o;oo1o2o;oooo$",
"o31;;;2%o%131<",
"o%111o4%11;1o<",
"o%3%%%561;1%;<",
"11%%%71#%%%%1<",
"%%%%%%%31%%%%<",
"$<<<<<<<<<<<<8"};
