/* XPM */
static char * image_name[] = {
"14 14 24 1",
" 	c #FFFFFFFFFFFF",
".	c #E7E7E7E7EFEF",
"X	c #D7D7D3D3D7D7",
"o	c #BEBEB6B6BEBE",
"O	c #D7D7DFDFE7E7",
"+	c #8E8E8A8A8E8E",
"@	c #28282C2C3030",
"#	c #070705050808",
"$	c #FFFFE7E7BEBE",
"%	c #616161616161",
"&	c #C7C7BABAC7C7",
"*	c #969696969696",
"=	c #515155554949",
"-	c #303034343030",
";	c #202020202020",
":	c #B6B6AEAEB6B6",
">	c #AEAE55552828",
",	c #28285D5D4949",
"<	c #414138384141",
"1	c #595951512828",
"2	c #A7A7A4A4A7A7",
"3	c #CFCFC7C7CFCF",
"4	c #BEBEC3C3BEBE",
"5	c #717175757171",
"             .",
".X...........o",
".OXXXXX+.XXXOo",
".XXX..@#+..X.o",
"X.X.$%###&.XXo",
"XXX.*##=-;X.X:",
"XXX*##%>,#<.Xo",
"XXX;#1%=##1XX2",
"X33<#;%##@%XX:",
"X4X*<###@%:X32",
"X4345@##<*3432",
"33433%@<*43432",
"3o343o:o3&3432",
"o222:2:222222*"};
