/* XPM */
static char * image_name[] = {
"56 46 27 1",
" 	c #FFFFFAFAFFFF",
".	c #BEBEB6B6BEBE",
"X	c #000000001111",
"o	c #C7C7BABAC7C7",
"O	c #AEAEA6A6AEAE",
"+	c #010101010101",
"@	c #FFFFFFFFD7D7",
"#	c #DFDFBABA8E8E",
"$	c #F7F7B2B2AEAE",
"%	c #8E8E86867979",
"&	c #AEAE61616161",
"*	c #AEAEAEAEB6B6",
"=	c #FFFFE7E7BEBE",
"-	c #51515555FFFF",
";	c #5151A2A24949",
":	c #A6A679798E8E",
">	c #9E9E9A9A9E9E",
",	c #FFFF14144141",
"<	c #797986869E9E",
"1	c #FFFFFFFFC7C7",
"2	c #2828FFFF2020",
"3	c #717179798686",
"4	c #FFFF0C0C4949",
"5	c #69698686BEBE",
"6	c #96969696AEAE",
"7	c #A6A69E9EA6A6",
"8	c #E7E7E7E7EFEF",
"                                                       .",
" ......................................................X",
" .o.o.o.o.o.o.o.o.o.o.o.o.o.o.o.o.o.o.o.o.o.o.o.o.o.o.oX",
" ......................................................X",
" O.o.Oo.oO.o.Oo.oO.o.Oo.oO.o.Oo.oO.o.Oo.oO.o.Oo.oO.o.O.X",
" o...................................................o.X",
" O.OoO.O.OoO.O.O.OoO.O.O.OoO.O.O.OoO.O.O.OoO.OoO.O.O.O.X",
" .o...O.o....oO+++++++++++++++++++...oO.o...o.O..o.o..OX",
" O.O.OoO.O.OoO.+@@@@@@@@@@@@@@@@@++O.O.O.O.O.O.O.O.O.O.X",
" ..oO...O.o.O..+@@@@@@@@@@@@@@@@@+#+O.o.O.o.O.o.Oo..O.oX",
" O.O.OoO.O.O.O.+@@@@@@@@@@@@@@@@@+##+O.O.O.O.O.O.O.OoO.X",
" .O.o.O.O.Oo..O+@@@@@@@@@@@@@@@@@+###+O.OoO..oO.O.O...OX",
" O.O.O.OoO.O.O.+@@@@@@@@@@@@@@@@@+####+O.O.OoO.OoO.OoO.X",
" .O.O.O.O.O.O.O+@@@@@@@@@@@@@@@@@+#$###+O.O.O.O.O.O.O.OX",
" O.OoO.O.OoO.Oo+@@@@@@@@@@@@@@@@@++++X++%O.O.OoO.OoO.O.X",
" OO.OOOoOOO.OOO+@@@@@@@@@@@@@@@@@@#####+&OOoOOO.OOO.OOOX",
" O.O.O.O.O.OoO.+@@@@@@@@@@@@@+++++@@###X%*.O.O.OoO.O.O.X",
" OOOOOOOOOOOOOO+@++++++++++++++++++X@@@+%OOOOOOOOOOOOOOX",
" O.OoO.O.OoO.O.+@+===========+===+=+@@@+&*.O.O.O.O.O.O.X",
" OOOOOOOOOOOOOO+@+=---=---=--+===+=+@@@X;*OOOOOOOOOOOOOX",
" OOO.OOO.OOO.OO+@+===========+===+=+@@@+:OOO.OOOoOOOoOOX",
" OOOOOOOOOOOOOO+@+=--===---=-+===+=+@@@+&OOOOOOOOOOOOOOX",
" OOOOOOOOOOOOOO+@+===========+===+=+@@@+%*OOOOOOOOOOOOOX",
" OOOOOOOOOOOOOO+@+=+++++++++++++++++++@+%OOOOOOOOOOOOOOX",
" >OOO>OOO>OOO>O+@+=+=================+@+%>OOO>OOO>OOO>OX",
" OOOOOOOOOOOOOO+@+=+======,==<===12==+@+&OOOOOOOOOOOOOOX",
" OO>O>O>OOO>O>O+@+=+====,=,==<1=22=1=+@+%*O>O>O>OOO>O>OX",
" OOOOOOOOOOOOOO+@+=+==,=,=,=1322=====+@+%OOOOOOOOOOOOOOX",
" >O>O>O>O>O>O>O+@+=+==,=,=,==3@======+@+%>O>O>O>O>O>O>OX",
" OOOOOOOOOOOOOO+@+++==,=,=4=@3=======+@+&OOOOOOOOOOOOOOX",
" >O>O>O>O>O>O>O+@@@+==,=,=,==3333531=+@+%6O>O>O>O>O>O>OX",
" O>OO7>OO7>OOO>+@@@+==========@8=1===+@+%O>OOO>OOO>OOO>X",
" >O>O>O>O>O>O>O+@@@+=======1=========+@+%>O>O>7>O>7>O>OX",
" O>7>O>O>O>7>O>+@@@+=---==---==-=---=+@+&O>O>O>O>O>O>O>X",
" >O>O>O>O>O>O>O+@@@+=================+@+%6O>O>O>7>O>7>OX",
" >>O>>>O:>>O>>>+@@@+++++++++++++++++++@+%>>O>>>O>>>O>>>X",
" >O>7777O6O>7>O+@@@@@@@@@@@@@@@@@@@@@@@+&6O>7>O>O>777>OX",
" >>>>>>>>>>>>>>+++++++++++++++++++++++++%>>>76:>7:>>>>>X",
" >777>777>777>O>&;:%&;:%&;:%&;:%&;:%&;:%&6O>7>O677O>O>OX",
" >>>>>>6:7>>>>>>67>>67>>67>>67>>67>>67>>6>>>7>>>>>>>>>>X",
" >>:O7>>O>:777>>O>>>O>>>O>>>O>>>O>>>O>>>O>>>7>>>O>:6O>>X",
" >>6>6:>>>6>6:>>>>>>>>>>>>>>>>>>>>>>>>>>>>>>>>6:>>7>>>>X",
" >7>>>>>>>O>>>6>>:O6>>>>>>7>>>>>>>7>>>>>>>7>>>>7>>7>:6>X",
" >>>>>>>6:>>>>>>>6>>6:>6:>>>6:>6:>>>>>6:>>>>7:>6:>>7>>>X",
" >>>:7>>>>>>:6>:6>>>>>>>6>>>>6>>6>>:6>>>6>:6>>>>6>>>>>>X",
".XXXXXXXXXXXXXXXXXXXXXXXXXXXXXXXXXXXXXXXXXXXXXXXXXXXXXXX"};
