/* XPM */
static char * image_name[] = {
"56 46 11 1",
" 	c #FFFFFFFFFFFF",
".	c #BEBEBABABEBE",
"X	c #BEBEC3C3BEBE",
"o	c #000000001111",
"O	c #AEAEAAAAAEAE",
"+	c #9E9E9A9A9E9E",
"@	c #FFFFFFFF0000",
"#	c #FFFFAEAE0000",
"$	c #A6A69E9EA6A6",
"%	c #96969696AEAE",
"&	c #A6A679798E8E",
"                                                       .",
" .X.X.X.X.X.X.X.X.X.X.X.X.X.X.X.X.X.X.X.X.X.X.X.X.X.X.Xo",
" X.X.X.X.X.X.X.X.X.X.X.X.X.X.X.X.X.X.X.X.X.X.X.X.X.X.X.o",
" X..X...X...X...X...X...X...X...X...X...X...X...X...X..o",
" O.X.+.X.OX..+.X.OX..+.X.OX..+.X.OX..+.X.OX..+.X.OX..OXo",
" X.X..X.X.X.X.X.X.X.X.X.X.X.X.X.X.X.X.X.X.X.X.X..X.X.X.o",
" O.OXO.O.+.O.O.O.+.O.O.O.+.O.O.O.+.O.O.O.+.O.O.OX+.O.+.o",
" X.X..O.X..X.XO.X..X.XO.X.@.@X@X@.@.@X@X@@@X.XOX..X.X.Oo",
" O.+.OXO.OXO.OXO.@XO.@.@.@.@.@.@.@@@.@@@@@@@.O.O.O.O.OXo",
" .X.OX.XO..XO..XO...O.X.@.X.@.@.@.@.@.@@@.@@O.X.OX.XOX.o",
" O.OXO.O.OXO.+.@.@X@X@.@.@.@.@.@@@@@@@@@@@@@.OXO.O.O.O.o",
" XOX..OXO.O.X.OXO.O...OXO.@.@.@.@.@.@.@.@@@.X.O.+XOX.XOo",
" O.O.OX+.OXO.O.O.@X@X@.@.@.@.@@@.@@@@@@@@@@@.OXO.O.O.O.o",
" .OXO.O.O.O.OXOXO.O.@OO.@XO.@.@.@.@.@.@.@.@@O.O.O.OXOXOo",
" OXO.OXO.OXO.O.@.@.@.@X@.@.@.@.@@@@@@@@@@@@@XOXOXO.O.O.o",
" OO.OOOXOOOXOOOXOOOXOOOXOO@XOO@.@O@.@O@.@@@.OOO.OOOXOOOo",
" OXO.O.O.O.O.O.O.@.O.@.@.@.@.@.@.@@@.@@@@@@@.O.O.O.+.OXo",
" OOOOOOOOOOOOOOOOOOOOOOO@OOO@O@O@O@O@O@O@O@@OOOOOOOOOOOo",
" O.OXOXO.OXOXOX@.@.@.@.@.@.@.@.@@@@@@@@@@@@@.OXOXO.O.O.o",
" OOOOOOOOOOOOOOXOOOXOOOXOO@.@O@.@O@.@O@.@O@XOOOOOOOOOOOo",
" OOO.OOOX+OO.OOO.@OO.@O@.@O@.@O@.@@@.@@@@@@@.OOO.OOOXOOo",
" OOOOOOOOOOOOOOOOOOO@OOO@OOO@O@O@O@O@O@O@O@@OOOOOOOOOOOo",
" OOOOOOOOOOOOOO@O@O@O@O@O@O@O@O@@@O@@@@@@@@@OOOOOOOOOOOo",
" OOOOOOOOOOOOOO.OOO.OOO.OO@.OO@.@O@.@O@.@@@.OOOOOOOOOOOo",
" +OOO+OOO+OOO+OOO@OOO@O@O@O@O@O@O@@@O@@@@@@@O+OOO+OOO+Oo",
" OOOOOOOOOOOO.OOO.OOO.OO@.OO@.@O@.@O@.@O@.@OOOOOOOOOOOOo",
" OO+O+O+OOO+O+O@O@O@O@O@O@O@O@O@@@O@@@@@@@@@O+O+OOO+O+Oo",
" OOOOOOOOOOOOOO#OOO.OOO#OOO.OO@#@O@.@O@#@O@.OOOOOOOOOOOo",
" +O+O+O+O+O+O+O+O@O+O@O@O@O@O@O@O@@@O@@@@@@@O+O+O+O+O+Oo",
" OOOOOOOOOOOO.OOO.OOO.OO@.OO@.@O@.@O@.@O@.@@OOOOOOOOOOOo",
" +O+O+O+O+O+O+O@OOO@O@O@O@O@O@O@O@O@@@@@@@@@O+O+O+O+O+Oo",
" O+OOO+OOO+OO.+.OO+#O.O.OO+#X.@.@O@#@.@.@O@#OO+OOO+OOO+o",
" +O+O+O+O+O+OOO+O@O+O@O@O@O@O@O@O@@@O@@@@@@@O+O+O+O+O+Oo",
" O+O+O+O+O+O+.+O+.+O+.+O@.+O@.@O@.@O@.@O@.@O+O+O+O+O+O+o",
" +O+O+O+O+O+O+O@O@O@O@O@O@O@O@O@O@O@@@O@@@@@O+O+O+O+O+Oo",
" ++O+++O+++O+++#+.O.+++#O.+.++@#@.@.@+@#@.@.+++O+++O+++o",
" +O+O+O+O+O+O+O+O@O+O@O@O@O@O@O@O@.@O@@@@@@@O+O+O+O+O+Oo",
" ++++++++++++.+++.+++.++@.++@.@+@.@+@.@+@.@++++++++++++o",
" +O+O+O+O+O+O+O@O+O@O@O@O@O@O@.@O@O@@@@@@@@@O+O+O+O+O+Oo",
" ++++++++++++++++++++++++++++++++++++++++++++++++++++++o",
" +++O+++O+++$+++O+++O+++O+++O+++O+++O+++O+++$+++O+++$++o",
" ++++%&++++++++++++++++++++++++++++++++++++++++++++++++o",
" +O+++$%+&O+++&%++O+++++++O+++++++O+++++++O++&%+&%O++++o",
" +%$&++++$%&+%++$&+++%&+%&+++%&+%&+++%&+%&++%$++$++%&++o",
" ++++$+&++++$+++%+++&$+%++%+&$++++%+&$+$+$%+++++++++$++o",
".ooooooooooooooooooooooooooooooooooooooooooooooooooooooo"};
