/* XPM */
static char * image_name[] = {
"56 46 14 1",
" 	c #FFFFFFFFFFFF",
".	c #BEBEBABABEBE",
"X	c #000000001111",
"o	c #AEAEAAAAAEAE",
"O	c #C7C7BABAC7C7",
"+	c #9E9E9A9A9E9E",
"@	c #797986869E9E",
"#	c #8E8E8A8A8E8E",
"$	c #B6B6AEAEB6B6",
"%	c #AEAEAEAEB6B6",
"&	c #010101010101",
"*	c #AEAE55552828",
"=	c #FFFF14144141",
"-	c #FFFFFFFF0000",
"                                                       .",
" ......................................................X",
" ......................................................X",
" ......................................................X",
" o...o...o...o...o...o...o...o...o...o...o...o...o...o.X",
" .....O....O...O..O....O...O..O....O...O..O...O..O..O..X",
" o.o.o.o.o.o.o.o.o.o.o.o.o.o.o.o.o.o.o.o.o.o.o.o.o.o.o.X",
" .....o.......o.......o.......o.......o.......o.......oX",
" o.o.o.o.+.o.o.o.+.o.o.o.+.o.o.o.+.o.o.o.+.o.o.o.o.o.o.X",
" ...o...o...o...o...o...o...o...o...o...o...o...+...o..X",
" o.o.o.o.o.o.o.o.o.o.o.o.o.o.o.o.o.o.o.o.o.o.o.o.o.o.o.X",
" .o...o.o.o...o.o.o...o.o.o...o.o.o...o.o.o...o.o.o...oX",
" o.o.+.o.o.o.o.o.o.o.o.o.o.o.o.o.o.o.o.o.o.o.o.o.o.o.o.X",
" .o.o.o.o.o.o.o.o.o.o.o.o.o.o.o.o.o.o.o.o.o.o.o.o.o.o.oX",
" o.o.o.o.o.o.o.o.o.o.o.o.o.o.o.o.o.o.o.o.o.o.o.o.o.o.o.X",
" oo.ooo.ooo.ooo.ooo.ooo.ooo.ooo.ooo.ooo.ooo.ooo.ooo.oooX",
" o.o.o.o.o.o.o.o.o.o.o.o.o.o.o.o.o.o.o.o.o.o.o.o.o.o.o.X",
" ooooooooooooooooooo+ooooooo+ooooooo+ooooooooooooooooooX",
" o.o.o.o.o.o.o.o.o.o.o.o.o.o.o.o.o.o.o.o.o.o.o.o.o.o.o.X",
" ooooooooooooooooooo.................ooooooooooooooooooX",
" ooo.ooo.ooo.ooo.ooo..o..+@@@@@@#@@@@O.o.ooo.ooo.ooo.ooX",
" oooooooooooooooooooooooOoooo.$.%O.O@+.ooooooooooooooooX",
" oooooooooooooooooooooooooooooooooo.o...oooooooooooooooX",
" ooooooooooooooooooooooooooooooooooooX&ooooooooooooooooX",
" +ooo+ooo+ooo+o&&&&&&&&&&+ooo+ooo+ooo&&oo+ooo+ooo+ooo+oX",
" ooooooooooooooo&&&&&&&&&ooooooo**ooo==ooooooooooooooooX",
" oo+o+o+ooo+o+o+o&.&.&.X&oo+o+o+-*o+o&&+ooo+o+o+ooo+o+oX",
" oooooooooooooooo&.X.X.&&&&&&&&&&&&&&&&ooooooooooooooooX",
" +o+o+o+o+o+o+o+o&&&&&&&&&&&&&&&&&&&&&&+o+o+o+o+o+o+o+oX",
" oooooooooooooooo&&&&&&&&&&&&&&&&&&&&&&@oooooooooooooooX",
" +o+o+o+o+o+o+o+&&&@@@&&&@@@&&&&&&&&&&&@@+o+o+o+o+o+o+oX",
" o+ooo+ooo+ooo+o&&@&&&@&@&&&@&&&&&&@@&&@&@+ooo+ooo+ooo+X",
" +o+o+o+o+o+o+o+&&@&.......&@&&&&&@&&@&@&&@+o+o+o+o+o+oX",
" o+o+o+o+o+o+o+o+o&&&&&.X&&&&o+o+o&&&&+o+o+o+o+o+o+o+o+X",
" +o+o+o+o+o+o+o+o+o&&&.+o&&&o+o+o+o&&+o+o+o+o+o+o+o+o+oX",
" ++o+++o+++o+******************************o+++o+++o+++X",
" +o+o+o+o+o+o******************************+o+o+o+o+o+oX",
" ++++++++++++++++++++++++++++++++++++++++++++++++++++++X",
" +o+o+o+o+o+o+o+o+o+o+o+o+o+o+o+o+o+o+o+o+o+o+o+o+o+o+oX",
" ++++++++++++++++++++++++++++++++++++++++++++++++++++++X",
" +++o+++o+++o+++o+++o+++o+++o+++o+++o+++o+++o+++o+++o++X",
" ++++++++++++++++++++++++++++++++++++++++++++++++++++++X",
" +o+++++++o+++++++o+++++++o+++++++o+++++++o+++++++o++++X",
" ++++++++++++++++++++++++++++++++++++++++++++++++++++++X",
" ++++++++++++++++++++++++++++++++++++++++++++++++++++++X",
".XXXXXXXXXXXXXXXXXXXXXXXXXXXXXXXXXXXXXXXXXXXXXXXXXXXXXXX"};
