/* XPM */
static char * image_name[] = {
"56 46 25 1",
" 	c #FFFFFFFFFFFF",
".	c #BEBEBABABEBE",
"X	c #000000001111",
"o	c #AEAEAAAAAEAE",
"O	c #C7C7BABAC7C7",
"+	c #2828FFFF2020",
"@	c #181886865151",
"#	c #5151A2A24949",
"$	c #B6B6AEAEB6B6",
"%	c #BEBE20202020",
"&	c #FFFFFFFF0000",
"*	c #303071715959",
"=	c #BEBEC3C3CFCF",
"-	c #AEAEAEAEB6B6",
";	c #EFEF28285151",
":	c #38386D6DA6A6",
">	c #AEAEB2B2CFCF",
",	c #9E9E9A9A9E9E",
"<	c #FFFF14144141",
"1	c #717179798686",
"2	c #797986869E9E",
"3	c #96969696AEAE",
"4	c #A6A69E9EA6A6",
"5	c #AEAE55552828",
"6	c #A6A679798E8E",
"                                                       .",
" ......................................................X",
" ......................................................X",
" ......................................................X",
" o...o...o...o...o...o...o...o...o...o...o...o...o...o.X",
" .....O....O...O..O....O...O..O....O...O..O...O..O..O..X",
" o.o.o.o.o.o.o.o.o.o.o.o.o.o.o.o.o.o.o.o.o.o.o.o.o.o.o.X",
" .....o.......o.......o.......o.......o.......o.......oX",
" o.o.o.o.o.o.o.o.o.o.o.o.o.o.+Oo.o.o.o.o.o.o.o.o.o.o.o.X",
" ...o...o...o...o...o...o..O@@..o...o...o...o...o...o..X",
" o.o.o.o.o.o.o.o.o.o.o.o.o.o@#@@@$.o.o.o.o.o.o.o.o.o.o.X",
" .o...o.o.o...o.o.o...o.o.o#@@#+$.o...o.o.o...o.o.o...oX",
" o.o.o.o.o.o.o.o.o.o.o.o.o+@@#@@+$.o.o.o.o.o.o.o.o.o.o.X",
" .o.o.o.o.o.o.o.o.o.o.oO@+%#@O$@#++.o.o.o.o.o.o.o.o.o.oX",
" o.o.o.o.o.o.o.o.o.o.o&@#+%+@@@#@@#++$.o.o.o.o.o.o.o.o.X",
" oo.ooo.ooo.ooo.ooo.@&#@@@@%#+@*#@@@@++.ooo.ooo.ooo.oooX",
" o.o.o.o.o.o.o.o.o.o.o.$O.O@%@#+=$O.O.Oo.o.o.o.o.o.o.o.X",
" ooooooooooooooooooooo-oo$@@#@@@+oo$$ooooooooooooooooooX",
" o.o.o.o.o.o.o.o.o.o.o.o@@#$+@#@@++$.o.o.o.o.o.o.o.o.o.X",
" oooooooooooooooooooo$@@#@@@#+@@;@#++ooooooooooooooooooX",
" ooo.ooo.ooo.ooo.ooo@@#-@@+#*@+;@@@@#++$.ooo.ooo.ooo.ooX",
" ooooooooooooooooo&@&#@@@#@++#%++@#@*#@++ooooooooooooooX",
" oooooooooooooooooo$oo-$$+@#:%@#@#+>--$$$ooooooooooooooX",
" oooooooooooooooooooooo$+#@+@%@@@@@+o-oooooooooooooooooX",
" ,ooo,ooo,ooo,ooo,ooo,@++@@+#%@#@+#@++$oo,ooo,ooo,ooo,oX",
" oooooooooooooooooo$@@#@#@#@+++@+@%<@#++oooooooooooooooX",
" oo,o,o,ooo,o,o,oo@@%+++++1@#@#+2%@@@@@#+$o,o,o,ooo,o,oX",
" ooooooooooooooo&@&@#@#@:#++++@@@@#@#@#@@ooooooooooooooX",
" ,o,o,o,o,o,o,o,o,$,$3$@@@@#1@+++@@@+o>4$,o,o,o,o,o,o,oX",
" oooooooooooooooooooo5@#@#@@%@#1#++#@+oooooooooooooooooX",
" ,o,o,o,o,o,o,o,o,o,@@@+@#@#%%@@@#1@@#+3o,o,o,o,o,o,o,oX",
" o,ooo,ooo,ooo,oo$++%<@#+@@@%%@#@++#@@@@+o,ooo,ooo,ooo,X",
" ,o,o,o,o,o,o,o,++#@@@%@#++++@+@@@@+@#@#@4o,o,o,o,o,o,oX",
" o,o,o,o,o,o,o4+#@@@#@#@@@1#@2+#@#@2+++@@o,o,o,o,o,o,o,X",
" ,o,o,o,o,o,o,o3$4$4-4>4.4-%%%%%>3-,$oO4$4o,o,o,o,o,o,oX",
" ,,o,,,o,,,o,,,o3,,o,,,o,,3-%%%-4,,o,3,o,,,o,,,o,,,o,,,X",
" ,o,o,o,o,o,o,o,o,o,o,o,o,o,%%%3o,o,o,o,o,o,o,o,o,o,o,oX",
" ,,,,,,,,,,,,,,,,,,,,,,,,,,3%%%,,,,,,,,,,,,,,,,,,,,,,,,X",
" ,o,o,o,o,o,o,o,4,o,o,o,o,o,%%%,o,o,o,4,o,o,o,o,o,o,o,oX",
" ,,,,,,,,,,,,,,,,,,,,,,,,,,,,3,,,,,,,,,,,,,,,,,,,,,,,,,X",
" ,,,4,,,4,,6o,,6o,,6o3,,4,,,o,,,4,,6o,,6o,63o,,6o,,,4,,X",
" ,,,,36,,,,3,,,3,,,3,36,,,,,,,,,,,,,3,,3,,,,,,,3,,,,,,,X",
" ,o,,,,3,6o,,,,,,,o,,,,,,6o,,6,3,6o3,,,,,,o,,63,,,4,,,,X",
" ,,6,,,,,3,,,,6,36,,,,,,,3,,3,,,,3,,,6,36,,,,,,,6,,36,,X",
" ,,3,,6,,,,,634,,,,,6,3,,,,63,,6,,,,,,,,,3,63,,,3,,,,,,X",
".XXXXXXXXXXXXXXXXXXXXXXXXXXXXXXXXXXXXXXXXXXXXXXXXXXXXXXX"};
