/* XPM */
static char * image_name[] = {
"56 46 12 1",
" 	c #FFFFFFFFFFFF",
".	c #BEBEBABABEBE",
"X	c #000000001111",
"o	c #AEAEAAAAAEAE",
"O	c #C7C7BABAC7C7",
"+	c #010101010101",
"@	c #D7D7D3D3D7D7",
"#	c #8E8E8A8A8E8E",
"$	c #28285D5D4949",
"%	c #0000FFFFFFFF",
"&	c #9E9E9A9A9E9E",
"*	c #AEAEAEAEB6B6",
"                                                       .",
" ......................................................X",
" ......................................................X",
" ......................................................X",
" o...o...o...o...o...o...o...o...o...o...o...o...o...o.X",
" .....O....O...O..O....O...O..O....O...O..O...O..O..O..X",
" o.o.o.o.o.o.o.o.o.o.o.o.o.o.o.o.o.o.o.o.o.o.o.o.o.o.o.X",
" .....o.....++++++++++++++++++++++++++++++++..o.......oX",
" o.o.o.o.o.o.o.o.o.o.o.o.o.o.o.o.o.o.o.o.o.o.o.o.o.o.o.X",
" ...o...o...o...o...o...o...o...o...o...o...o...o...o..X",
" o.o.o.o.o.o.o.o.o.o.++++++o.o.o.o.o.o.o.o.o.o.o.o.o.o.X",
" .o...o.o.o...o.o.o++@@@@@@++.o.o.o...o.o.o...o.o.o...oX",
" o.o.o.o.o.o.o+o.o+@@@++++@@@+.o.o.o.o.o.o.o.o.o.o.o.o.X",
" .o.o.o.o.o.o.o+o+@@++o.o.++@@+.o.o.o.o.o.o.o.o.o.o.o.oX",
" o.o.o.o.o.o.o.o+#@+.o.++o+@+@@+.o.o.o.o.o.o.o.o.o.o.o.X",
" oo.ooo.ooo.ooo.+#+.ooo.++++++@+ooo.ooo.ooo.ooo.ooo.oooX",
" o.o.o.o.o.o.o.+##++.o.+++$$%+@@+o+o.o.o.o.o.o.o.o.o.o.X",
" oooooooooooooo+#+o++++$$$%%$$+@++oooooooooooooooooooooX",
" o.o.o.o.o.o.o.+#X.o+++%%%%%$%+@++++.o.o.o.o.o.o.o.o.o.X",
" ooooooooooooooX#+o++++%%$%%%%+@+$%%+ooooooooooooooooooX",
" ooo.ooo.ooo.oo+#+oo+++%%$$$$%+@+%++.ooo.ooo.ooo.ooo.ooX",
" oooooooooooooo+#+o+++++$$%$$$+@++oooooooooooooooooooooX",
" oooooooooooooo+##++ooo++%%%%+@@+o+ooooooooooooooooooooX",
" oooooooooooooooX#+ooooo++++++@+oooooooooooooooooooooooX",
" &ooo&ooo&ooo&oo+##+o&o++&+@+##+o&ooo&ooo&ooo&ooo&ooo&oX",
" oooooooooooooo+oX##++oooo++##++oooooooooooooooooooooooX",
" oo&o&o&ooo&o&+&oo+###++++###X#@+oo&o&o&ooo&o&o&ooo&o&oX",
" ooooooooooooooooo*+X######X++##@+oooooooooooooooooooooX",
" &o&o&o&o&o&o&o&o&o&o+X++X+&o&+##@+&o&o&o&o&o&o&o&o&o&oX",
" ooooooooooooooooooooooooooooooX&#@+oooooooooooooooooooX",
" &o&o&o&o&o&o&o&o&o&o&o&o&o&o&o&+##@+&o&o&o&o&o&o&o&o&oX",
" o&ooo&ooo&ooo&ooo&ooo&ooo&ooo&ooX##@+&ooo&ooo&ooo&ooo&X",
" &o&o&o&o&o&o&o&o&o&o&o&o&o&o&o&o&+##@+&o&o&o&o&o&o&o&oX",
" o&o&o&o&o&o&o&o&o&o&o&o&o&o&o&o&o&X##@+&o&o&o&o&o&o&o&X",
" &o&o&o&o&o&o&o&o&o&o&o&o&o&o&o&o&o&+##@+&o&o&o&o&o&o&oX",
" &&o&&&o&&&o&&&o&&&o&&&o&&&o&&&o&&&o&X##+&&o&&&o&&&o&&&X",
" &o&o&o&o&o&o&o&o&o&o&o&o&o&o&o&o&o&o&++o&o&o&o&o&o&o&oX",
" &&&&&&&&&&&&&&&&&&&&&&&&&&&&&&&&&&&&&&&&&&&&&&&&&&&&&&X",
" &o&o&o&o&o&o&o&o&o&o&o&o&o&o&o&o&o&o&o&o&o&o&o&o&o&o&oX",
" &&&&&&&&&&&&&&&&&&&&&&&&&&&&&&&&&&&&&&&&&&&&&&&&&&&&&&X",
" &&&o&&&o&&&o&&&o&&&o&&&o&&&o&&&o&&&o&&&o&&&o&&&o&&&o&&X",
" &&&&&&&&&&&&&&&&&&&&&&&&&&&&&&&&&&&&&&&&&&&&&&&&&&&&&&X",
" &o&&&&&&&o&&&&&&&o&&&&&&&o&&&&&&&o&&&&&&&o&&&&&&&o&&&&X",
" &&&&&&&&&&&&&&&&&&&&&&&&&&&&&&&&&&&&&&&&&&&&&&&&&&&&&&X",
" &&&&&&&&&&&&&&&&&&&&&&&&&&&&&&&&&&&&&&&&&&&&&&&&&&&&&&X",
".XXXXXXXXXXXXXXXXXXXXXXXXXXXXXXXXXXXXXXXXXXXXXXXXXXXXXXX"};
