/* XPM */
static char * image_name[] = {
"48 48 236 2",
"  	c None",
". 	c #EFBEEFBEF7DE",
"X 	c #F7DEF7DEF7DE",
"o 	c #E79DEBADF7DE",
"O 	c #D75CEBADF7DE",
"+ 	c #FFFFFFFFFFFF",
"@ 	c #DF7DDB6CDF7D",
"# 	c #A699A289A699",
"$ 	c #9E799E799E79",
"% 	c #BEFBBEFBBEFB",
"& 	c #DF7DDF7DDF7D",
"* 	c #E79DE79DE79D",
"= 	c #DF7DE38DE79D",
"- 	c #E79DE38DE79D",
"; 	c #F7DEFBEEFFFF",
": 	c #C71BD34CDF7D",
"> 	c #AEBAC71BCF3C",
", 	c #B6DACB2BD75C",
"< 	c #B6DADB6CE79D",
"1 	c #A699CF3CDF7D",
"2 	c #9658CB2BD75C",
"3 	c #9E79D34CDF7D",
"4 	c #F7DEF3CEF7DE",
"5 	c #AEBAAAAAAEBA",
"6 	c #965892489658",
"7 	c #71C675D671C6",
"8 	c #C71BC30BC71B",
"9 	c #D75CD34CD75C",
"0 	c #F7DEF3CEEFBE",
"q 	c #A699BEFBD75C",
"w 	c #38E369A69658",
"e 	c #082024924924",
"r 	c #38E3514469A6",
"t 	c #71C69658A699",
"y 	c #9E79C71BDF7D",
"u 	c #8617BAEADF7D",
"i 	c #6185AAAAD75C",
"p 	c #8E38C71BD75C",
"a 	c #CF3CE38DEFBE",
"s 	c #CF3CCF3CCF3C",
"d 	c #861786178617",
"f 	c #082004100820",
"g 	c #000000000000",
"h 	c #596559655965",
"j 	c #D75CE38DE79D",
"k 	c #E79DEBADEFBE",
"l 	c #8E38AEBAC71B",
"z 	c #104065959658",
"x 	c #28A279E7A699",
"c 	c #79E79E79B6DA",
"v 	c #C71BDF7DEFBE",
"b 	c #B6DACF3CE79D",
"n 	c #5965A699CF3C",
"m 	c #AEBAD34CE79D",
"M 	c #EFBEF3CEF7DE",
"N 	c #30C230C230C2",
"B 	c #28A228A228A2",
"V 	c #E79DF3CEF7DE",
"C 	c #EFBEF3CEFFFF",
"Z 	c #CF3CE38DF7DE",
"A 	c #C71BE79DE79D",
"S 	c #DF7DF3CEFFFF",
"D 	c #EFBEFBEEF7DE",
"F 	c #69A69658B6DA",
"G 	c #10406DB6A699",
"H 	c #082069A69658",
"J 	c #49248E38B6DA",
"K 	c #61859E79D75C",
"L 	c #38E37DF7CF3C",
"P 	c #51449A69D75C",
"I 	c #38E38207CF3C",
"U 	c #DF7DE38DEFBE",
"Y 	c #514455555144",
"T 	c #30C238E34103",
"R 	c #4103410338E3",
"E 	c #5965A699BEFB",
"W 	c #79E7AAAABEFB",
"Q 	c #AEBAD75CDF7D",
"! 	c #C71BE38DDF7D",
"~ 	c #B6DABEFBC71B",
"^ 	c #51448A28A699",
"/ 	c #28A28617AEBA",
"( 	c #51449658C71B",
") 	c #8617AAAADF7D",
"_ 	c #28A279E7CF3C",
"` 	c #08205965BEFB",
"' 	c #186175D6C71B",
"] 	c #71C6BAEAD75C",
"[ 	c #BEFBDF7DE79D",
"{ 	c #51444D345144",
"} 	c #208120812081",
"| 	c #410345144103",
" .	c #79E779E779E7",
"..	c #D75CE79DEFBE",
"X.	c #AEBABAEAC71B",
"o.	c #69A68A28A699",
"O.	c #30C275D6AEBA",
"+.	c #186175D6A699",
"@.	c #41039658B6DA",
"#.	c #A699C71BD75C",
"$.	c #18616595C71B",
"%.	c #38E338E338E3",
"&.	c #08200C300820",
"*.	c #8E388A288E38",
"=.	c #6185AAAAC71B",
"-.	c #9658C30BCF3C",
";.	c #DF7DFFFFEFBE",
":.	c #79E7B2CACF3C",
">.	c #30C28617B6DA",
",.	c #69A69E79BEFB",
"<.	c #618565956185",
"1.	c #186118611861",
"2.	c #4924A289B6DA",
"3.	c #79E7C71BD75C",
"4.	c #C71BC71BC71B",
"5.	c #59659A69B6DA",
"6.	c #38E39658B6DA",
"7.	c #49249658C71B",
"8.	c #69A671C669A6",
"9.	c #B6DAB2CAB6DA",
"0.	c #965896589658",
"q.	c #69A6A699BEFB",
"w.	c #EFBEEFBEEFBE",
"e.	c #104018611861",
"r.	c #186128A238E3",
"t.	c #492479E79658",
"y.	c #C71BDB6CE79D",
"u.	c #79E7AAAAB6DA",
"i.	c #514455555965",
"p.	c #492449244924",
"a.	c #79E7AAAAC71B",
"s.	c #9658B6DAD75C",
"d.	c #69A67DF78E38",
"f.	c #D75CDF7DE79D",
"g.	c #A699A699A699",
"h.	c #8E38B2CAC71B",
"j.	c #596561856185",
"k.	c #208149248E38",
"l.	c #104030C25144",
"z.	c #69A66DB669A6",
"x.	c #B6DAB6DAB6DA",
"c.	c #96588E389658",
"v.	c #69A671C671C6",
"b.	c #492451445144",
"n.	c #AEBAAEBAB6DA",
"m.	c #410341034103",
"M.	c #DF7DE38DDF7D",
"N.	c #D75CD75CDF7D",
"B.	c #BEFBC30BBEFB",
"V.	c #69A66DB671C6",
"C.	c #9658B6DAC71B",
"Z.	c #C71BD75CD75C",
"A.	c #9658AAAAB6DA",
"S.	c #514475D68617",
"D.	c #D75CDB6CD75C",
"F.	c #F7DEFBEEF7DE",
"G.	c #38E369A68617",
"H.	c #618579E78E38",
"J.	c #8E389E79A699",
"K.	c #CF3CD34CCF3C",
"L.	c #186145145144",
"P.	c #104038E34103",
"I.	c #4924659571C6",
"U.	c #F7DEEFBEE79D",
"Y.	c #69A68A289658",
"T.	c #8E38AAAAB6DA",
"R.	c #618586178E38",
"E.	c #8E3892488E38",
"W.	c #A6999E799E79",
"Q.	c #BEFBD34CDF7D",
"!.	c #28A251446185",
"~.	c #208134D35144",
"^.	c #8617A699AEBA",
"/.	c #9E79B2CABEFB",
"(.	c #61855D756185",
").	c #71C66DB669A6",
"_.	c #8617C71BCF3C",
"`.	c #492469A68617",
"'.	c #30C2659579E7",
"].	c #28A24D345965",
"[.	c #69A69A699E79",
"{.	c #41038E38AEBA",
"}.	c #BEFBC71BCF3C",
"|.	c #59658E389E79",
" X	c #596582078E38",
".X	c #B6DAAEBAB6DA",
"XX	c #BEFBBAEABEFB",
"oX	c #AEBAB2CABEFB",
"OX	c #79E78A289658",
"+X	c #8E388E389658",
"@X	c #F7DEEBADE79D",
"#X	c #38E3555571C6",
"$X	c #C71BBEFBBEFB",
"%X	c #514471C679E7",
"&X	c #0820186128A2",
"*X	c #208159658E38",
"=X	c #28A279E79E79",
"-X	c #18618E38A699",
";X	c #596561855965",
":X	c #69A69658A699",
">X	c #104071C69658",
",X	c #38E38A28A699",
"<X	c #4924AAAAC71B",
"1X	c #38E375D6A699",
"2X	c #208182079E79",
"3X	c #5144AAAAC71B",
"4X	c #28A26DB69E79",
"5X	c #28A29658AEBA",
"6X	c #38E39A69AEBA",
"7X	c #18614D3479E7",
"8X	c #AEBAAEBAAEBA",
"9X	c #E79DE38DD75C",
"0X	c #DF7DC71BB6DA",
"qX	c #C71B8E3871C6",
"wX	c #965865954924",
"eX	c #D75CBAEAAEBA",
"rX	c #86177DF779E7",
"tX	c #CF3C9E798E38",
"yX	c #E79DD34CC71B",
"uX	c #CF3CAAAA9E79",
"iX	c #A6995D7530C2",
"pX	c #AEBA7DF76185",
"aX	c #BEFB7DF769A6",
"sX	c #CF3CAAAA8E38",
"dX	c #BEFB82076185",
"fX	c #492451444924",
"gX	c #514451445144",
"hX	c #79E761854924",
"jX	c #9E795D7528A2",
"kX	c #38E32CB21861",
"lX	c #79E7555538E3",
"zX	c #CF3CC30BB6DA",
"xX	c #B6DA9E799658",
"cX	c #59654D3438E3",
"vX	c #9E798E3879E7",
"bX	c #69A661855144",
"  . X X X X o O X +             @ # $ % &             + * = - X             ; = : > ,           ",
"  X . . < 1 2 3 o ;           4 5 6 7 $ 8 9         ;   ; ; ; ; 0 +       + , q w e r t         ",
"  . X O y u i p a X   +       s d f g f h - ;       j ; ; ; ; ; ; X       k , l z z x z c       ",
"  u v b u n n m O M         ; % N g g g B s X     X V C Z A S D ; X       M s F G H G x J       ",
"  K L P u I y y < U         k 9 Y T B R h 9 X     X D p E W Q ! j X ;     U ~ ^ G G x / (       ",
"  ) _ ` ` ' 3 ] n [         ; $ Y { } |  .5 4     ; D p Q ! Q ..V X       * X.o.O.+.x @.#.      ",
"    _ ` $.' u y n A ;         6 %.&.%.%.B *.+     V Q =.-.[ 2 ;.& j       M :.c >.,.m i :.      ",
"    i $._ _ u ..u A   +       - <.1. .Y Y 8       D =.2.2.3.3.! ! =     s 4.5.J >.x / >.6.      ",
"    v _ I 7.] [ y ..+         ; *.8.9.0.d k         A q.E -.Q & ! w.    e.1.r.,.( >.7.:.#.      ",
"    ) t.I L i 1 ..o X y.        8 6 <.*.# k           A q.u.2 !   +     i.p.T F a.:.s.p #.d.1.p.",
"v p < y P P u < A .., , f.  4 s 0.s s 8 0.g.$ 5       ; a.h.> ! &       j.h T 7.F u u ] Q g.h 1.",
"#.( 1 3.) P i i y b k.l.@ $ % z.d 9.@ x.c.# v.g       X E :.: ! *       i.b.p.^ a.1 y.#.X.n.m.| ",
"        + X X +                 + 4 . 4 +             + * M.@ k               s ;.;.Z A X       ",
"      4 . . * N.f.            + X U C U f.;         9 B.*.V.7 <.&           k w.D w.D ;.w.      ",
"    @ C.Z.A.t A.S.N.          ; C o C C :         D.% 9.g.d <.<.*.;         w.D ;.0 w.0 ;.w.    ",
"  F.X.S.t.t.G.H.t t +       + X ..X.t J., f.;     $ s 9 h p.p.z.*.K.      ; w.D j D w.w.w.w.    ",
"  k f.: : C.l : y.s 4       + k X.S.L.P.I.f.X   4 $ 4 D.z.N |  .*.6 4       M h.:.[ j U.;.w.+   ",
"  X * U : Y.T.> , f.X         o > R.r L.I.U ;   & E.X D.*.h z. .W.h s       V > Z.Q.;.= = 4 ;   ",
"    k A.r !.~.~.T.k +       ; U f.T.^./.R.      w.*.f.% h  .p.(.0.).*.        q._.W ! Q.s D.    ",
"    ; : G.`.!.'.> +         M : /.R.!.].I.[.      B.9 9.p.E.| p.V. .$       Q @.{.-.! }.K.M.    ",
"      4 u.|.t.^ U             y.Q.A. X'. X        6 % M.d # *.| 0.# @           q.#., D.K.+     ",
"      + Q.t.G.C.;             k Z.C.R.R.          .XXX8 g.%.N 7 9 # +         ; a.-.! D.M.      ",
"        k y.Z., = ;       X f.Z.Q.[.R.J.$ 4       F.4.k * 8 7 Y 8 @ +             C.}.& M.      ",
"      . f.Z.> q.Y.H.=   K.oXn.oX~ }.A.I.e.| OXk       ; 4 +Xh <.h # %         X s.h.> }.s 4     ",
"    ; M N.}.o j 9 : *   k k * k * @ & B.8 4.8 9         ; k * 9 - 9 D.+       4 U ..f.. @X@X    ",
"    ;   s.T.C.  M             + k @ & 0 4             + M C ; ; ; +           + . f.* = X       ",
"  +   q l s.l A.1             * 5 s 4 0 @ ;         ; }.T./.: M + +         + = o.#X#X`.q k     ",
"  X #.< b y.O h.< X         X 4.# $Xd $ 9 *       + : %XI.S.T.Z C ; +       4 F e &X&Xe w U 4   ",
"  ..b Z b 2 ] 2.y ..      + - 4.s 7 Y h # M.      ; X.%X%X|.C.Z C ; +     ; f.w #Xr.&Xl.*XQ.*   ",
"+ b y.< =XH -X6.:.O       X - D.4.<.;Xz.$ @ +     M Q.#.:XQ < Z S D +     4 Q.a.C.=.`.C.#.< M   ",
"; b v 1 >X,X<X] 2 V       4 * k & s *.x.@ k +     ; oX> [.v , a Z ; ; +   + q 1Xt.7.^ a.s.y..   ",
"; y.y.E 2Xq.2.E 3XV       ; k @ *. .z.0.W.*       X T.%X[.< Y.c Z ; ; +     s.*Xk.4X1X4XJ #.    ",
"  V a.6.-X-X5X6X3.S         F.0 # d 0.# 5 ;       ; , [.C.a q.-.C ; ; +       *X7X5.h.*X{.y.    ",
"* k C <X<X3.3X3.3 M           ; ~ $ $ % -           ..:XC.m h.b S ; ;       ..w w 6.5.>.c 4     ",
"* k o 3X] 3X6XE [ = X         . s 5 $ s +           + Q.-.#.#.v S ; +       ..,.4X*X4X5.Q.      ",
"- 4 O >.3.m p m 4 @ B.9   + X - 5 9 D.- 4 + +         ; #.1 v Z S ;         f.a.#.a.h.#.U       ",
"      -.: = k D ; X M.0 + ; ; 4.5 x.s 8X% F.; +         j = : : V ;         4 y...V V O X       ",
"    4.8 8 s D.- X           g.(.h <.*..Xz.5           X XX9 & - = +                   ; X +     ",
"    % 9 * 0 k 4 4 +         7 1.B p.d 9.x.9.          9 s s 9 @ @ 9                 9X9XU.  F.+ ",
"    s x.s 4.B.* 4 ;         8.1.B b.6 x.s 8         ; s x.*.*.).R 6 k             0 0X0XU.; U.X ",
"    @ - 9. .6 s 4 ;         z.| %.h # ~ s s         4 @ 7 B 1.e.1.*.*             X qXwXeXU.U.; ",
"    - rXz.7 5 x.* X       4 p.*. .x.B.D.4.s ;       . 9 *.W.<.h 6 5 X           + tXU.yXuXyX0 ; ",
"    - z.5 $ 9.# 4.;       + %.R %.9.# x.~ s X       4 x.| | B | Y $     + F.    X iXpXaX0 X F.  ",
"      v.<. .# # 9 +         z.%.Y 4.$ 5 8 K.          g.h B | | B #     F.        sXqX0XeXyXX   ",
"      @ +XW.8 # 9           5 h 6 9 % 9.4.+           4 d z.z. .+Xk     X pX  8   dXaX0X0XU.    ",
"        x.7 $ # $X0.s       . fXp.$ g.4.@ ;           * 9.Y %.gX%       hXiXjXkXkXlX0X0XzXeXzXX ",
"          <.7 5  .m.| |       s <.*.s - 4 4 ;     ; 9 @ s B.# .Xk       wXdXpXkXkXkXxXzXs xXcXcX",
"      B.B 1.fX| B 1.&.g   + 4 @ c.9 - 4 X X X X 4 @ - * * - D.9 - - X     @XvXhXhXrX@X    vXbXbX"};
