/* XPM */
static char * image_name[] = {
"49 50 4 1",
" 	c #FFFFFFFFFFFF",
".	c #000000000000",
"X	c #514455555144",
"o	c #AEBAAAAAAEBA",
"                                                 ",
"                                                 ",
"                                                 ",
"                                                 ",
"       .X                                        ",
"       X..                                       ",
"       .                                         ",
"      .......                    .......         ",
"      .......                    .......         ",
"      .......                     ......         ",
"       .X.X........................XXo.          ",
"       .o.o........................X.X.          ",
"       .X.X........................o.o.          ",
"       .o.o. ooo ooo ooo ooo ooo o.X.X.          ",
"       .X.X.oooooooooooooooooooooo.o.o.          ",
"       .o.o........................X.X.          ",
"       .X.X........................o.o.          ",
"       .o.o........................X.X.          ",
"       .X.X.oooooooooooooooooooooo.X.o.          ",
"       .o.o. o ooo o o ooo o o ooo.X.X.          ",
"       .X.X.oooooooooooooooooooooo.o.o.          ",
"       .o.o. ooo ooo ooo ooo ooo o.X.X.          ",
"       .X.X.oooooooooooooooooooooo.o.o.          ",
"       .o.o.oo ooo ooo ooo ooo ooo.X.X.          ",
"       .X.X.oooooooooooooooooooooo.o.o.          ",
"       .o.o. oo...............oo o.X.X.          ",
"       .X.X.ooo...............oooo.X.o.          ",
"       .o.o. o ...X.X.X.X.X.X. ooo.X.X.          ",
"       .X.X.ooo..XXXXXXXXXXXX.oooo.o.o.          ",
"       .o.o. oo...X.XXX.XXX.X.oo o.X.X.          ",
"       .X.X.ooo..XXXXXXXXXXXX.oooo.o.o.          ",
"       .o.o.oo ...XXXXXXXXXXX. ooo.X.X.          ",
"       .X.X.ooo...XXXXXXXXXX..oooo.o.o.          ",
"       .o.o. oo...X.oXXXoXX...oo o.X.X.          ",
"       .X.X.ooo...XXXXXXXXXX..oooo.X.o.          ",
"       .o.o. o ...XXXXXXXXX... ooo.X.X.          ",
"       .X.X.ooo...XXXXXXXXX...oooo.o.o.          ",
"       .o.o. oo...X.XXX.XXX...oo o.X.X..         ",
"       .X.X.ooo....XXXXXXXX...oooo.o.o...X       ",
"      ..o.o.oo .....X.X.X.X... ooo.X.X..X.       ",
"      ..X.X.ooo....XXXXXXXX...oooo.o.o..X.X      ",
"     .X.................................XX.      ",
"     .X............oooooooo.............XX.      ",
"     ..XXXXXXXXX...ooo oooo..XXXXXXXXXXXX.       ",
"      ...XXXXXXX....oooooo...XXXXXXXX....X       ",
"         ........... ooo o............           ",
"                .ooooooooooo.                    ",
"      ...........o ooo ooo o............         ",
"                .ooooooooooo.                    ",
"                .............                    "};
