/* XPM */
static char * image_name[] = {
"49 48 4 1",
" 	c #AEBAAAAAAEBA",
".	c #514455555144",
"X	c #FFFFFFFFFFFF",
"o	c #000000000000",
"           ....   ..                   ....   .. ",
"           .XXX...XX.    X             .XXX...XX.",
"           .XXXXXXXXX.                 .XXXXXXXXX",
"           .XXXXXX... X  X  X  X       .XXXXXX...",
"           ...XXX.  X         X        ...XXX.   ",
"           .  ...    X X X X X  X      .  ...    ",
"           .          X     X          .         ",
"        ooo.ooo     X  X X X  X     ooo.ooo      ",
"   oooo oXo.oXo oooo    XXX    oooo oXo.oXo oooo ",
"   oXXo.oXo.o o o XoX. XXXXX X oXXo.oXo.o o o Xo ",
" ooooXoX  ..X X.o oooo  XXX  ooooXoX  ..X X.o ooo",
" oXXo X.........X o Xo X   X oXXo X.........X o o",
" o oooo X.....  oooo oX  X  Xo oooo X.....  ooo o",
" o oX o ooo.ooo o Xo o       o oX o ooo.ooo o o o",
" . o. oXoXo oXo o  o.. X X X . o. oXoXo oXo o oX.",
"  . . . oXo o o..X ..         . . . oXo o o..X ..",
"  X...X . .X. .X  . . X  X  X X...X . .X. .X  .. ",
"   X.. .   .X.X .X..           X.. .   .X.X .X.. ",
"    X .... . ......      X      X .... . ......  ",
"    X    .. . .X Xo             X    .. . .X Xo  ",
"    X      X XX XXo             X      X XX XXo  ",
"    X....X . .    o             X....X . .    o  ",
"    X     . X  XXXo             X     . X  XXXo  ",
"    X.     XX X XXo             X.     XX X XXo  ",
"    X.... . ..    o.. ... ... ..X.... . ..    o  ",
"    X    ..o XXX XoX. .X. .X. .XX    ..o XXX Xo  ",
"    X     XXoX XX o . . . . . . X     XXoX XX o  ",
"    X..  .XX. .   o ... ... ... X..  .XX. .   o  ",
"    X   .XXXXo XXXoX   X .X X X.X   .XXXXo XXXo  ",
"    X  X.XXXX.X XXoX o...X...o  X  X.XXXX.X XXo  ",
"    X... XXXXo    oXoo.XXXXX.oo.X... XXXXo    o  ",
"    X.  .XXXX.X XXoX.XXXXXXXXX. X.  .XXXX.X XXo  ",
"    X    XXXXo X XoX.XXXXXXXXX..X    XXXXo X Xo  ",
"    X....XXXX..   oX.XXXXXXXXX..X....XXXX..   o  ",
"    X   .XXXX. X XoX.XXXXXXXXX. X   .XXXX. X Xo  ",
"    X ...oooooX X oX.XXXXXXXXX..X ...oooooX X o  ",
"    X    X  X XX XoX.XXXXXXXXX..X    X  X XX Xo  ",
"    X.... .X..   .oX.XXXXXXXXX..X.... .X..   .o  ",
"    X       X  X XoX.XXXXXXXXX..X       X  X Xo  ",
"    X  .  .  XXXXXoX.XXXXXXXXX. X  .  .  XXXXXo  ",
"    X..  . . .    oX.XXXXXXXXX..X..  . . .    o  ",
"    X     XXXX X XoX.XXXXXXXXX..X     XXXX X Xo  ",
"    X  . .  X X XXoX.XXXXXXXXX. X  . .  X X XXo  ",
"    X... . . ..   oX.XXXXXXXXX..X... . . ..   o  ",
"    X   . X X XX XoX.XXXXXXXXX..X   . X X XX Xo  ",
"    X   X.X  XX XXoX.XXXXXXXXX. X   X.X  XX XXo  ",
"    X.  .  .      oX.ooooooooo..X.  .  .      o  ",
"    oooooooooooooooooXoXoXoXoX.oooooooooooooooo  "};
