#define face_width 64
#define face_height 64
static unsigned char face_bits[] = {
   0x8e, 0xa5, 0x4e, 0x96, 0x82, 0x31, 0xf1, 0x88, 0x47, 0xa9, 0xf1, 0x5a,
   0x3b, 0x23, 0x59, 0x67, 0xaa, 0x1f, 0x64, 0x82, 0xd0, 0x62, 0x28, 0xe1,
   0xa2, 0x6a, 0x00, 0x6d, 0xa0, 0x4d, 0x3b, 0x2b, 0xfe, 0x1e, 0x40, 0xea,
   0x0d, 0xbd, 0x6c, 0x18, 0x96, 0x30, 0x80, 0x40, 0xdd, 0xea, 0xfc, 0x59,
   0xbb, 0x15, 0x00, 0xc0, 0x4d, 0x12, 0x09, 0x53, 0x30, 0x00, 0x00, 0x80,
   0xf2, 0x9a, 0x5a, 0xae, 0x27, 0x10, 0x00, 0x40, 0x85, 0xaf, 0xb7, 0x51,
   0x09, 0x00, 0x00, 0x00, 0xd0, 0x58, 0x4d, 0xaf, 0x16, 0x00, 0x00, 0x00,
   0x56, 0xa4, 0xa3, 0x02, 0x06, 0x00, 0x00, 0x00, 0xe4, 0x12, 0x8e, 0x69,
   0x04, 0x00, 0x00, 0x00, 0x30, 0xe9, 0xaa, 0xb4, 0x06, 0x00, 0x00, 0x00,
   0x38, 0x08, 0x02, 0x9d, 0x01, 0x00, 0x00, 0x00, 0x0c, 0xa0, 0x01, 0x28,
   0x03, 0x00, 0x00, 0x30, 0x05, 0x40, 0x00, 0x60, 0x05, 0x00, 0x00, 0x98,
   0x05, 0x00, 0x00, 0xa8, 0x86, 0x00, 0x00, 0xc0, 0x07, 0x00, 0x00, 0xa0,
   0xa0, 0x00, 0x01, 0xa8, 0x00, 0x00, 0x00, 0x40, 0xec, 0x00, 0x41, 0x49,
   0x01, 0x00, 0x00, 0x00, 0x49, 0x01, 0x15, 0x0b, 0x00, 0x00, 0x00, 0x20,
   0x5c, 0xc0, 0x40, 0x01, 0x00, 0x00, 0x00, 0x20, 0x02, 0xd4, 0x57, 0x03,
   0x00, 0x00, 0x00, 0xc0, 0x34, 0x6b, 0x91, 0x00, 0x00, 0x00, 0x00, 0xa0,
   0x7c, 0x40, 0x4b, 0x02, 0x00, 0x00, 0x00, 0x40, 0x93, 0xe1, 0x01, 0x00,
   0x00, 0x00, 0x00, 0x40, 0x2d, 0x33, 0x00, 0x00, 0x00, 0x00, 0x00, 0x68,
   0xe6, 0x4a, 0x00, 0x00, 0x00, 0x00, 0x00, 0x20, 0xf2, 0x2a, 0x00, 0x00,
   0x00, 0x00, 0x01, 0x40, 0x89, 0x24, 0x00, 0x00, 0x00, 0xc0, 0x00, 0x00,
   0x3e, 0x35, 0x00, 0x00, 0x00, 0x80, 0x00, 0xc0, 0x28, 0x50, 0x00, 0x00,
   0x80, 0xd0, 0x00, 0x00, 0x05, 0x00, 0x02, 0x00, 0x00, 0xc2, 0x00, 0x40,
   0x03, 0x00, 0x00, 0x00, 0x40, 0x80, 0x01, 0x40, 0x06, 0x00, 0x00, 0x20,
   0x08, 0x80, 0x01, 0x80, 0x00, 0x08, 0x00, 0x80, 0x06, 0x80, 0x01, 0x81,
   0x01, 0x2a, 0x00, 0x00, 0x0c, 0x00, 0x83, 0x80, 0x00, 0x11, 0x00, 0x00,
   0x18, 0x00, 0x13, 0x00, 0x01, 0x41, 0x00, 0x00, 0x30, 0x00, 0x03, 0x80,
   0x00, 0x20, 0x00, 0x00, 0x60, 0x00, 0x06, 0x80, 0x01, 0x40, 0x00, 0x10,
   0xc8, 0x00, 0x06, 0x80, 0x00, 0x18, 0x00, 0x40, 0x81, 0x01, 0x06, 0x00,
   0x01, 0x10, 0x00, 0x00, 0x00, 0x03, 0x0c, 0x40, 0x01, 0x04, 0x00, 0x00,
   0x00, 0x06, 0x0c, 0x60, 0x02, 0x08, 0x00, 0x00, 0x00, 0x0c, 0x0c, 0x80,
   0x0b, 0x00, 0x00, 0x00, 0x00, 0x18, 0x18, 0x28, 0x1d, 0x00, 0x00, 0x00,
   0xe0, 0x3f, 0x18, 0xd0, 0x00, 0x04, 0x00, 0x00, 0xc0, 0x00, 0x18, 0x25,
   0x14, 0x08, 0x00, 0x00, 0x80, 0x01, 0x30, 0x5a, 0x02, 0x00, 0x00, 0x00,
   0x00, 0x03, 0x30, 0x5b, 0x2a, 0x00, 0x02, 0x00, 0x00, 0x86, 0x3f, 0x34,
   0x12, 0x00, 0x00, 0x00, 0x00, 0x0c, 0x63, 0xaf, 0x5c, 0x01, 0x01, 0x00,
   0x81, 0x18, 0xa7, 0x72, 0x16, 0x42, 0x01, 0xa0, 0x40, 0x30, 0x86, 0x99,
   0x96, 0x09, 0x09, 0x00, 0x4b, 0x7f, 0x26, 0x24, 0x0b, 0x9e, 0x5b, 0x55,
   0xed, 0x06, 0xac, 0xb8, 0xc8, 0x46, 0xcc, 0x2b, 0x23, 0x0d, 0x5c, 0x93,
   0x1b, 0xff, 0x54, 0x9e, 0xdc, 0x9b, 0x2f, 0x54, 0x84, 0x04, 0x88, 0xd6,
   0x62, 0x39, 0x3f, 0x9c, 0xea, 0xb9, 0x62, 0x4a, 0x7e, 0x77, 0xf1, 0x6f,
   0x97, 0xac, 0xd0, 0x65, 0x8a, 0xc9, 0xa9, 0xba, 0x83, 0x00, 0x16, 0x65,
   0x9a, 0xaa, 0x65, 0x1b, 0x88, 0xed, 0x79, 0x82, 0xda, 0x6b, 0xc9, 0x51,
   0x69, 0x83, 0x6f, 0xf1, 0xeb, 0x6c, 0x91, 0x49 };
