/* XPM */
static char * image_name[] = {
"48 48 65 1",
" 	c None",
".	c #208120814103",
"X	c #2081208130C2",
"o	c #2081104030C2",
"O	c #208120812081",
"+	c #30C230C25144",
"@	c #0000EFBE0000",
"#	c #000000000000",
"$	c #30C220814103",
"%	c #30C230C24103",
"&	c #71C671C69658",
"*	c #104010401040",
"=	c #104020811040",
"-	c #104010402081",
";	c #104000002081",
":	c #861782079658",
">	c #000000001040",
",	c #5144618571C6",
"<	c #618571C671C6",
"1	c #000010400000",
"2	c #208110402081",
"3	c #000020811040",
"4	c #410351445144",
"5	c #2081410330C2",
"6	c #410330C24103",
"7	c #30C220812081",
"8	c #104030C22081",
"9	c #30C230C230C2",
"0	c #514461856185",
"q	c #208120811040",
"w	c #71C671C671C6",
"e	c #104020812081",
"r	c #000010401040",
"t	c #861792488617",
"y	c #410351444103",
"u	c #104000001040",
"i	c #30C251444103",
"p	c #6185514471C6",
"a	c #208130C230C2",
"s	c #30C2208130C2",
"d	c #00000000EFBE",
"f	c #208130C24103",
"g	c #1040104030C2",
"h	c #514471C671C6",
"j	c #6185924871C6",
"k	c #30C241034103",
"l	c #410341034103",
"z	c #30C2410330C2",
"x	c #410341035144",
"c	c #000020812081",
"v	c #514461855144",
"b	c #71C661858617",
"n	c #104030C21040",
"m	c #1040410330C2",
"M	c #208130C22081",
"N	c #514451446185",
"B	c #30C241035144",
"V	c #618561856185",
"C	c #71C671C68617",
"Z	c #618551448617",
"A	c #104000000000",
"S	c #965892489E79",
"D	c #861771C69658",
"F	c #6185618571C6",
"G	c #30C2514430C2",
"                                                ",
"                              .XoO              ",
"                             +@@@@#             ",
"               $%%          &@@*=@@X            ",
"             X-@@@;;:>.,X><O@@1=23@#            ",
"             >@455@@@@@@@@@@@@>2=6@7            ",
"             X@=2O1@@@@@@@@@@@@89@@0            ",
"             #@=2-@@@@@@@@@@@@@@@@>             ",
"             #@#=q@@@@@@@@@1#@@@@w              ",
"              >@e@@@#1@@@@@@@@@@#               ",
"              #2@@@@@@@rO>@@@@@ty               ",
"               eOO@@@@@@@@@@@@@3                ",
"                 -@@@@@@@@eu@@i                 ",
"               paOsO@@#O=2u@@#                  ",
"             -  -2ddr@@=Oe1@3d#                 ",
"         >6XX>OX*dddp@@@e#@@#dd>                ",
"         >a@@@@=2;dddf@@@@@rddg                 ",
"        >@@@@@@@@>dddd$ihj5dddd-                ",
"      OO9@@@@@@@#dddddddddddddu                 ",
"       #@@@@@@@#k>ddddddddddddd9                ",
"      e#@@@@@@@@@@#dddddddddddd##alu9ue4>       ",
"      #*@@@@@@eeze2Oooddddddd###@@@@@@@@@#      ",
"      >f@@@@@r   >@@5dddddd;d;@@@@888OOO@@#     ",
"      O #@@@#    #@@>%e>d;d>x9#@@@592q2=@@#     ",
"        #@@@#   >@@@1@@rdad>@@#@@@@@@@@@@5      ",
"       4#@@@1   c@@@@@@@#@##@@@<zuea9#la#       ",
"    xXy@@@@5v  b@@@@@@@@n@@#@@@k                ",
"    #@@@@@@#   >@@@@@@@@@@@@@@@1                ",
"   bX@@@@@@*   >@@@@@@@@@@@@@@@#                ",
"    >@@@@@1   .1@@@@@@@@@@@@@@@m#               ",
"     u=M*#    >#@@@@@@@@@@1@@@#@z               ",
"              >N@@@@@@@@@@@1@@k@@#              ",
"               >k@@@@@@@@@@#@#@@@@O             ",
"               >r@@@@@@@@@@#9@@@@@3             ",
"               B #@@@@@@@@@e1@@@@@@#            ",
"                  a@@@@@@@@# #@@@@@@rV  C-4-    ",
"                  #@@@@@@@9# ##@@@@@@3sa4@@@#   ",
"                 Z5@@@@@@@=#   #@@@@@@@@@@@@#   ",
"                --@@@@@@@-9*   >#@@@@@@@@@@#    ",
"                 #@@@@@@e1v    >x1@@@@@@@1<     ",
"                #1@@@@@#* A      #@@@@@#S       ",
"               De@@@@@1 #         a@@@@v        ",
"               >>@@@@1            #@@@1         ",
"                #@@@@#9Fe          #@#          ",
"                >@@@@@@@@#          %           ",
"                >@@@@@@@@G=                     ",
"                >a@@%uzu%A                      ",
"                 >rO                            "};
