#define p005_width 64
#define p005_height 64
static char p005_bits[] = {
   0x00, 0x00, 0x00, 0xc0, 0x01, 0x00, 0x00, 0x00, 0x00, 0x06, 0x5f, 0x20,
   0x02, 0xe6, 0x3f, 0x00, 0x00, 0xc9, 0x61, 0x10, 0x04, 0xc9, 0x30, 0x00,
   0x00, 0xc9, 0x40, 0x10, 0x04, 0xc9, 0x20, 0x00, 0x00, 0x66, 0x40, 0x10,
   0x04, 0xc6, 0x24, 0x00, 0x00, 0x60, 0x00, 0x10, 0x04, 0xc0, 0x04, 0x00,
   0x00, 0x60, 0x00, 0x10, 0x04, 0xc0, 0x07, 0x00, 0x00, 0x60, 0x00, 0x10,
   0x04, 0xc0, 0x04, 0x00, 0x00, 0x60, 0x00, 0x10, 0x04, 0xc0, 0x04, 0x00,
   0x00, 0xc0, 0x40, 0x10, 0x04, 0xc0, 0x00, 0x00, 0x00, 0xc0, 0x61, 0x10,
   0x04, 0xc0, 0x00, 0x00, 0x00, 0x00, 0x1f, 0x10, 0x04, 0xe0, 0x01, 0x00,
   0x00, 0x00, 0x00, 0x10, 0x04, 0x00, 0x00, 0x00, 0x00, 0x00, 0x00, 0x10,
   0x04, 0x00, 0x00, 0x00, 0x00, 0x00, 0x00, 0x10, 0x04, 0x00, 0x00, 0x00,
   0x00, 0x00, 0x00, 0x10, 0x04, 0x00, 0x00, 0x00, 0x00, 0x00, 0x00, 0x10,
   0x04, 0x00, 0x00, 0x00, 0x00, 0x00, 0x00, 0x10, 0x04, 0x00, 0x00, 0x00,
   0x00, 0x00, 0x00, 0x10, 0x04, 0x00, 0x00, 0x00, 0x00, 0x00, 0x00, 0x10,
   0x04, 0x00, 0x00, 0x00, 0x00, 0x00, 0x00, 0x10, 0x04, 0x00, 0x00, 0x00,
   0x00, 0x00, 0x00, 0x10, 0x04, 0x00, 0x00, 0x00, 0x00, 0x00, 0x00, 0x10,
   0x04, 0x00, 0x00, 0x00, 0x00, 0x00, 0x00, 0x10, 0x04, 0x00, 0x00, 0x00,
   0x00, 0x00, 0x00, 0x10, 0x04, 0x00, 0x00, 0x00, 0x00, 0x00, 0x00, 0x10,
   0x04, 0x00, 0x00, 0x00, 0x00, 0x00, 0x00, 0x10, 0x04, 0x00, 0x00, 0x00,
   0x00, 0x00, 0x00, 0x10, 0x04, 0x00, 0x00, 0x00, 0x00, 0x00, 0x00, 0x10,
   0x04, 0x00, 0x00, 0x00, 0x00, 0x00, 0x00, 0x10, 0x04, 0x00, 0x00, 0x00,
   0x00, 0x60, 0x1e, 0x10, 0x04, 0x8c, 0x03, 0x00, 0x00, 0x78, 0x73, 0x10,
   0x04, 0xcf, 0x06, 0x00, 0x00, 0x60, 0x63, 0x10, 0x04, 0x6c, 0x0c, 0x00,
   0x00, 0x60, 0x60, 0x10, 0x04, 0x6c, 0x0c, 0x00, 0x00, 0x60, 0x60, 0x10,
   0x04, 0x6c, 0x0c, 0x00, 0xf8, 0x63, 0x30, 0x10, 0x04, 0x6c, 0x0c, 0x00,
   0xf8, 0x63, 0x18, 0x10, 0x04, 0x6c, 0x0c, 0x00, 0x00, 0x60, 0x0c, 0x10,
   0x04, 0x6c, 0x0c, 0x00, 0x00, 0x60, 0x46, 0x10, 0x04, 0x6c, 0x0c, 0x00,
   0x00, 0x60, 0x7f, 0x10, 0x04, 0xcc, 0x06, 0x00, 0x00, 0x60, 0x7f, 0x10,
   0x04, 0x8c, 0x03, 0x00, 0x00, 0x00, 0x00, 0x10, 0x04, 0x00, 0x00, 0x00,
   0x00, 0x00, 0xff, 0xb7, 0xf6, 0x7f, 0x00, 0x00, 0x00, 0x00, 0xff, 0x57,
   0xf5, 0x7f, 0x00, 0x00, 0x00, 0x00, 0x00, 0xf0, 0x07, 0x00, 0x00, 0x00,
   0x00, 0x60, 0x7e, 0xf0, 0x07, 0x7e, 0x00, 0x00, 0x00, 0x78, 0x3e, 0xf0,
   0x07, 0x3e, 0x00, 0x00, 0x00, 0x60, 0x02, 0xf0, 0x07, 0x02, 0x00, 0x00,
   0x00, 0x60, 0x02, 0xf0, 0x07, 0x02, 0x00, 0x00, 0x00, 0x60, 0x3a, 0xf0,
   0x07, 0x3a, 0x00, 0x00, 0xf8, 0x63, 0x76, 0xf0, 0x07, 0x76, 0x00, 0x00,
   0xf8, 0x63, 0x60, 0xf0, 0x07, 0x60, 0x00, 0x00, 0x00, 0x60, 0x60, 0xf8,
   0x0f, 0x60, 0x00, 0x00, 0x00, 0x60, 0x63, 0xfc, 0x1f, 0x63, 0x00, 0x00,
   0x00, 0x60, 0x73, 0xfc, 0x1f, 0x73, 0x00, 0x00, 0x00, 0x60, 0x1e, 0xfe,
   0x3f, 0x1e, 0x00, 0x00, 0x00, 0x00, 0x00, 0xfe, 0x3f, 0x00, 0x00, 0x00,
   0x00, 0x00, 0x00, 0xfe, 0x3f, 0x00, 0x00, 0x00, 0x00, 0x00, 0x00, 0xfe,
   0x3f, 0x00, 0x00, 0x00, 0x00, 0x00, 0x00, 0xfe, 0x3f, 0x00, 0x00, 0x00,
   0x00, 0x00, 0x00, 0xfc, 0x1f, 0x00, 0x00, 0x00, 0x00, 0x00, 0x00, 0xfc,
   0x1f, 0x00, 0x00, 0x00, 0x00, 0x00, 0x00, 0xf8, 0x0f, 0x00, 0x00, 0x00,
   0x00, 0x00, 0x00, 0xe0, 0x03, 0x00, 0x00, 0x00};
