/* XPM */
static char * image_name[] = {
"48 50 3 1",
" 	c #FFFFFFFFFFFF",
".	c #000000000000",
"X	c #AEBAAAAAAEBA",
"                                                ",
"                                                ",
"                                                ",
"                   ..                           ",
"                   ......       ..              ",
"                  ................              ",
"               ....................             ",
"              .....................             ",
"              ......................            ",
"              .......................           ",
"             ........................           ",
"             .........................          ",
"            ..........................          ",
"            ...........X X.............         ",
"           ...... . X X X X X . .......         ",
"          ........ X X X X X X ........         ",
"          ....X.X X XXX X X XXX X.X....         ",
"          .....X X X X X X X X X X......        ",
"         .....X X ... X X X...X X X......       ",
"        .... . X ..... X X.....X X . .....      ",
"       ...... X ....... X.......XXX .......     ",
"      .......X.X.......X ....... X X........    ",
"      ........X ..................X X.......    ",
"      ...... X X ..... X X.....X X..........    ",
"      ......XXX X ...XX X X...X X X X.......    ",
"      ...... X X X X X X X X X X X X .......    ",
"      ......X X X X X X X X X X X X X......     ",
"      ...... X X X X X X X X X X X X ......     ",
"      ......X X X.X X X XXX X X..XX X......     ",
"      ...... X X ..X X X X X X ..X X ......     ",
"     ........ X X.. X X X X X ..X X .......     ",
"     ........X X X...X X X X ..X X X.......     ",
"    ........X.X X X............ X X.X......     ",
"    .......... X X X ......... X X ........     ",
"    ........... X X X X X X X X X .........     ",
"     ......... . X X X X X X X X . ........     ",
"      ........  ..X X X XXX X X.. .........     ",
"       .......   X.X X X X X X.X   ........     ",
"       .......     .... X ....     ........     ",
"       .......         ...         ........     ",
"       .......                     ........     ",
"       .......                     .......      ",
"       ......                       ......      ",
"       ......                       ......      ",
"       ......                       ......      ",
"       ......                       ......      ",
"       ......                        .....      ",
"       ......                        .....      ",
"       ......                        .....      ",
"       .....                         .....      "};
