/* XPM */
static char * hidden16_xpm[] = {
"16 16 2 1",
" 	c white",
".	c black",
"  . . . .       ",
"         ..     ",
"  .        .    ",
"         .  .   ",
"  .       . .   ",
"             .  ",
"  .             ",
"             .  ",
"  .             ",
"             .  ",
"  .             ",
"             .  ",
"  .             ",
"             .  ",
"  . . . . . .   ",
"   . . . . . .  "};
