/* XPM */
static char * tex16_xpm[] = {
"16 16 3 1",
" 	c white",
".	c black",
"X	c DarkSeaGreen1",
"  ........      ",
"  .XXXXXX..     ",
"  .XXXXXX.X.    ",
"  .X....X.XX.   ",
"  .XXXXXX.....  ",
"  .X....XXXXX.  ",
"  .XXXXXXXXXX.  ",
"  .X........X.  ",
"  .XXXXXXXXXX.  ",
"  .X........X.  ",
"  .XXXXXXXXXX.  ",
"  .X........X.  ",
"  .XXXXXXXXXX.  ",
"  .XXXXXXXXXX.  ",
"  ............  ",
"   ...........  "};
