/* XPM */
static char * image_name[] = {
"64 62 250 2",
"  	c None",
". 	c #000000000000",
"X 	c #186114511861",
"o 	c #000061855965",
"O 	c #000059655144",
"+ 	c #000055554924",
"@ 	c #000051444924",
"# 	c #00004D344103",
"$ 	c #00004D344924",
"% 	c #28A24D344924",
"& 	c #30C2249228A2",
"* 	c #410330C228A2",
"= 	c #30C21C712081",
"- 	c #082008200820",
"; 	c #08202CB20820",
": 	c #0000BAEA79E7",
"> 	c #965808200820",
", 	c #618500000000",
"< 	c #69A600000000",
"1 	c #71C600000000",
"2 	c #79E700000000",
"3 	c #596500000000",
"4 	c #410300000000",
"5 	c #30C200000000",
"6 	c #186100000000",
"7 	c #38E300000000",
"8 	c #0000F7DEA699",
"9 	c #861704100820",
"0 	c #492400000000",
"q 	c #514400000000",
"w 	c #28A200000000",
"e 	c #208100000000",
"r 	c #104000000000",
"t 	c #082000000000",
"y 	c #28A20C300820",
"u 	c #96584D3430C2",
"i 	c #AEBA71C66185",
"p 	c #514434D328A2",
"a 	c #18610C300000",
"s 	c #861769A65144",
"d 	c #0000F3CE9E79",
"f 	c #861718611861",
"g 	c #AEBA2CB230C2",
"h 	c #AEBA659530C2",
"j 	c #A69949244103",
"k 	c #C71B75D669A6",
"l 	c #38E328A21861",
"z 	c #8E386DB64924",
"x 	c #30C210401861",
"c 	c #9E7975D65965",
"v 	c #69A618610000",
"b 	c #965845140000",
"n 	c #71C628A21861",
"m 	c #A69938E31040",
"M 	c #596528A20820",
"N 	c #618524920820",
"B 	c #B6DA659538E3",
"V 	c #71C628A22081",
"C 	c #C71B2CB228A2",
"Z 	c #9E7910400820",
"A 	c #A6991C711861",
"S 	c #BEFB20812081",
"D 	c #8E3830C24924",
"F 	c #AEBAAEBAB6DA",
"G 	c #A699A699A699",
"H 	c #AEBAB2CA9658",
"J 	c #FFFF9E7969A6",
"K 	c #8E3834D31040",
"L 	c #71C628A20000",
"P 	c #A699596538E3",
"I 	c #C71B5D754924",
"U 	c #79E7514469A6",
"Y 	c #9E7914511040",
"T 	c #B6DA28A228A2",
"R 	c #CF3C9A69CF3C",
"E 	c #A6999A69AEBA",
"W 	c #AEBAB2CAA699",
"Q 	c #A699AAAA9658",
"! 	c #CF3CB6DA71C6",
"~ 	c #FFFFD34C8617",
"^ 	c #49240C300000",
"/ 	c #AEBA69A61040",
"( 	c #000004100000",
") 	c #96580C301040",
"_ 	c #AEBA28A22081",
"` 	c #71C62CB238E3",
"' 	c #96589248AEBA",
"] 	c #A6999658AEBA",
"[ 	c #69A6514428A2",
"{ 	c #A69965951040",
"} 	c #514414511861",
"| 	c #8E3851446185",
" .	c #A69914511040",
"..	c #8E3828A230C2",
"X.	c #9E79AAAA9E79",
"o.	c #9E79A6999658",
"O.	c #A699A28979E7",
"+.	c #F7DECF3C71C6",
"@.	c #FFFF96585965",
"#.	c #A69955551040",
"$.	c #492420810820",
"%.	c #69A634D31040",
"&.	c #71C655554924",
"*.	c #861718610820",
"=.	c #861704101040",
"-.	c #B6DA20812081",
";.	c #AEBA24921861",
":.	c #71C6186128A2",
">.	c #9E79A6998E38",
",.	c #965871C638E3",
"<.	c #492414510820",
"1.	c #000008200000",
"2.	c #69A610401861",
"3.	c #965896588E38",
"4.	c #A699AEBA69A6",
"5.	c #96588A284924",
"6.	c #71C665951040",
"7.	c #38E308200820",
"8.	c #965851441861",
"9.	c #71C64D341040",
"0.	c #514430C21040",
"q.	c #51444D344924",
"w.	c #28A218610000",
"e.	c #79E70C300820",
"r.	c #71C618610000",
"t.	c #71C614511861",
"y.	c #96587DF76185",
"u.	c #5144514430C2",
"i.	c #79E78E384924",
"p.	c #71C671C65144",
"a.	c #9658A69979E7",
"s.	c #9658AAAA69A6",
"d.	c #38E318610000",
"f.	c #514451440820",
"g.	c #861720812081",
"h.	c #28A228A20000",
"j.	c #69A60C300820",
"k.	c #59651C710000",
"l.	c #8E3824920820",
"z.	c #38E328A20000",
"x.	c #28A23CF30000",
"c.	c #596545141861",
"v.	c #8E389A694924",
"b.	c #38E371C61040",
"n.	c #186114510820",
"m.	c #D75C96582081",
"M.	c #492445144924",
"N.	c #38E338E30820",
"B.	c #B6DA555528A2",
"V.	c #AEBA555528A2",
"C.	c #28A245140000",
"Z.	c #514465951861",
"A.	c #9E79A69930C2",
"S.	c #AEBAAAAA4103",
"D.	c #104049240000",
"F.	c #28A25D750000",
"G.	c #186124920000",
"H.	c #082014510000",
"J.	c #2081659569A6",
"K.	c #79E708201040",
"L.	c #71C66DB630C2",
"P.	c #AEBAA69928A2",
"I.	c #A6999A6928A2",
"U.	c #AEBA9E7930C2",
"Y.	c #AEBAB2CA5144",
"T.	c #9E79AEBA5144",
"R.	c #596508200000",
"E.	c #A69945148617",
"W.	c #AEBAA289C71B",
"Q.	c #A6998A2871C6",
"!.	c #F7DED34C8E38",
"~.	c #B6DAAAAA9658",
"^.	c #B6DAB6DA9E79",
"/.	c #CF3CF7DE79E7",
"(.	c #492469A630C2",
").	c #AEBAA28938E3",
"_.	c #AEBACB2B5144",
"`.	c #F7DEEFBE8E38",
"'.	c #71C630C24924",
"].	c #A69992488E38",
"[.	c #B6DABAEAAEBA",
"{.	c #C71B3CF31040",
"}.	c #D75CD75C9658",
"|.	c #A6999A698E38",
" X	c #AEBADB6C71C6",
".X	c #AEBAB2CAB6DA",
"XX	c #B6DACF3C9658",
"oX	c #C71B75D64924",
"OX	c #DF7DAAAA9658",
"+X	c #A699A2898617",
"@X	c #CF3CE79D9658",
"#X	c #C71BB2CA5965",
"$X	c #FFFFD75CA699",
"%X	c #C71B618528A2",
"&X	c #AEBA75D64924",
"*X	c #CF3C8E385965",
"=X	c #8E3859654924",
"-X	c #B6DA9E794924",
";X	c #B6DAA69930C2",
":X	c #9E7982075965",
">X	c #71C66DB68E38",
",X	c #9E79514428A2",
"<X	c #AEBA71C638E3",
"1X	c #A69971C65144",
"2X	c #A699965871C6",
"3X	c #CF3C924828A2",
"4X	c #596530C24103",
"5X	c #B6DA79E74924",
"6X	c #96588A2830C2",
"7X	c #B6DA9A6928A2",
"8X	c #CF3C96588617",
"9X	c #A6998A2869A6",
"0X	c #A6998E382081",
"qX	c #B6DA8E3828A2",
"wX	c #AEBA9A6969A6",
"eX	c #CF3CCF3C4924",
"rX	c #D75C6DB61861",
"tX	c #CF3CCB2BC71B",
"yX	c #514461854924",
"uX	c #BEFBCB2BB6DA",
"iX	c #79E75D7538E3",
"pX	c #965896585144",
"aX	c #5965555528A2",
"sX	c #9E798A281861",
"dX	c #DF7D82071861",
"fX	c #000028A228A2",
"gX	c #79E78E3871C6",
"hX	c #BEFBCB2BC71B",
"jX	c #38E3596528A2",
"kX	c #861786175144",
"lX	c #8617C71B38E3",
"zX	c #9658C30B4924",
"xX	c #410371C62081",
"cX	c #8E388E3869A6",
"vX	c #9658924871C6",
"bX	c #8E387DF71040",
"nX	c #0000AAAA0000",
"mX	c #E79D7DF730C2",
"MX	c #C71BCF3CB6DA",
"NX	c #8E3886174103",
"BX	c #000069A60000",
"VX	c #514482074103",
"CX	c #D75CCF3C38E3",
"ZX	c #79E779E769A6",
"AX	c #5965820738E3",
"SX	c #0000CB2BCF3C",
"DX	c #596571C669A6",
"FX	c #C71BDF7DBEFB",
"GX	c #000010401861",
"HX	c #082014512081",
"                                                                                                                                ",
"                                                                                                                                ",
"                                                                                                                                ",
"                                                                                                                                ",
"                                                                                                                                ",
"                                                                                                                                ",
"                                                                                                                                ",
"                                                                                                                                ",
"                                                                                                                                ",
"                                                                                                                                ",
"                                                                                                                                ",
"    . X o O O O O O O + + + + + @ # @ # # @ @ @ @ @ $ $ $ @ @ @ $ @ $ $ @ # @ # # # # # # # # # # # # # # $ $ % & * = - ;       ",
"  : > , < < < < < 1 1 1 1 1 1 1 1 1 1 1 2 1 1 1 1 1 1 1 1 1 1 1 1 1 1 1 1 1 < < < , , , , , , , , , 3 3 , 1 < , 4 5 6 7 =       ",
"  8 9 0 3 3 3 , , , < < < < 1 < < 1 < 1 1 1 1 1 < < < , , < < < < 1 < 1 < < , , 3 3 3 3 3 3 q q 0 4 7 w e 6 r t 6 t 6 y =       ",
"  8 > 0 q q 3 3 , , , < < < < , < , < < < < < < , , , , , , < , < < , < , , , 3 3 q q q q q 0 4 5 5 w e 6 u i = p a r e s       ",
"  d > 7 4 4 0 q q 3 3 3 , , , 3 , 3 , , , , , 3 , 3 3 3 3 3 3 3 q f f q w 0 0 q 0 0 0 0 0 0 g g 7 w e 6 h j u k l z x t c       ",
"  % > 7 4 4 0 0 q 3 3 3 3 3 3 3 3 3 3 3 3 , 3 3 3 q q q q q q w j j u j u < e 7 4 4 7 4 4 v b n m m M N N B n V k a z 6 *       ",
"  d > 5 7 4 q 3 < C Z A < q q q 3 3 3 , > S C 2 q q q q 0 4 e D D F G H J J J 5 6 5 5 7 7 7 b b b K K L K B P u I V I e U       ",
"  * > 4 4 0 q < g A g C C Y q q 3 3 , A T C T C T A 0 4 4 5 D R F E F G W Q ! ~ u 6 w 5 ^ w v / / K K L L B N P j J V 6 s       ",
"  ( Z 7 0 q 3 ) g g g T C C > ) , 1 ) A T T T T T T T _ 0 ` ' E ] G G G G W Q H ~ z [ 6 w 5 5 / b { b N N B . } - a t t |       ",
"  ; Z 4 0 q , 1 Y _ T T C C C Z  .> ) )  .A _ _ T T g g ..` ] ] E E G G G X.G Q o.O.+.@.w 5 5 N #./ b b $.%.&.. ( . t t g       ",
"  ; *.4 q 3 , 1 =.) T T T T C -. .> ) )  .A A ;.;.T T T ....:.] E G E G G G G X.Q H >.! ,.5 w ^ { / N %.M <.[ l t t t 1...&     ",
"  ; *.7 4 0 3 1 2 9 > A T -.-.-.-. .> > > Y A A Y ;.;._ g _ 2.2.s E G Q 3.Q X.X.o.>.>.>.4.5.6.7.$./ { 8.9.<.0.&.t t . . V q.    ",
"  w.=.5 7 4 4 3 2 9 9 >  .-.A Y A  .*.Z 1 e.9 *.r.Y Y ;._ t.N N t } y.3.u.3.X.o.i.p.i.a.>.s.4.6.d.f.{ 8.8.8.x a x t t t g.q.    ",
"  h.e.5 7 5 4 5 0 1 9 9 9 ;.-.;.Y v v *.e., e.j.k.v l.f L <.M k.v t &.z.x.c.a.v.v.v.i.i.a.s.b.b.f.n.m.8.0.%.%.a n.w.t t f M.    ",
"  N.e.4 5 5 V w e 5 < 2 2 ;.T B.V.a $.k.v ^ <.d.z.$.k.N w.w.n.d.$.a h.x.x.C.f.Z.A.A.A.S.s.i.D.F.G.H.H.m.8.%.%.y a a t t f J.    ",
"  N j.5 K.` z ~ 0 r t 0 A j.B.l.P M n.w.d.d.h.h.z.h.z.w.N.[ L.L.M t h.x.x.x.G.P.I.U.S.U.S.Y.T.; 1.H.t n.m.{ %.9.r r t t ..J.    ",
"  L R.2.E.| W.Q.!.!.u r 0 < m -.l.K h ,.c.n.; h.h.h.1.0.~.^.H Q /./.(.( x.G.C.U.).).U.S.S.S._.+.`.1.- r t 9.8.%.$.r t t t.=     ",
"  ..e E.'.].F F [.W !.~ 6 t 6 e {.K l.I P L.[ G.1.1.( }.].].|.Q >.>. X(.H.1.P.P.U.U.S.S.S.S.Y.+.i.( t l a t . . p 0.l r V %     ",
"  ;.e '.U W.F F .XW [.XX`.z r t l.K m K B oXh !.[ 1.. OX].].].|.|.+Xa.@X1.x.P.I.U.U.U.U.S.S.#X$Xt 1.H.`.+.c z . ( . t . 2.%     ",
"; _ e w y R ' F .X.XW .XW `.!.r r V.K %X%XV.B oX&X*X=XOXy.].].].|.|.O. Xi.P.P.P.I.U.I.U.U.-X!.z 1.G.S.;X;X;X+.:XOXt t t } %     ",
"1._ 5 y 6 U >X' F .X.X.X.XW XX+.%.%.#.,XB.P h *X<X<X&X1Xi i Q.Q.2X2X2XO.a._.S.).I.I.I.I.I.-X! ( ( ( L.;X;X;X;X3X+.+.[ t } M.    ",
"8.;.7 7.6 4Xr R ' F F F .X.XW ^.+.%.8.8.B B V.,Xh 5X&X&X1Xc c Q.Q.Q.|.2X|.O.s.A.).A.I.I.I.*Xl . ( 6XI.).).;X;X).7X3Xh 9.} &..   ",
",X;.7 7 w 6 6 R U >XF F F .XW W H +.8.N V.n V.P P *XP &Xu 8Xc c y.9XQ.Q.2X2X2XT.A.6X6X0XqXwX( 1.. eXI.I.I.).).7X7X7XrXj.4 | -   ",
"V.A 5 0 e e r x t U W.W.tXyXuXo.Q XX+.<XN 8.K <X,X8.h *Xu wXi iX9Xc 9X9XQ.2X2X2XpX5.t r <XaXt ( 0.sXI.I.I.I.7XU.7X7XdX^ 7 | .   ",
"fXV r C.0.6.9.u t - &.gXyXG.' uXhXjXC.N.M M N V.8.V.oX8.r.1X=X6 9X&.9X9X[ Q.9X2X2XkXt y a t t ( sXsXsX0XqXI.I.7X7X3XrXe 4 |     ",
"z %.t x.(.lXzX_._.4.p.( H.u.(.gXjXD.xXxXZ.( ( t t 8.l.r.r.n a t $.$.,.u.aXaXaXcXvXp.w.0.f.a a Z.H.f.sXsXsXsXbXI.bXqX5 r w | nX  ",
"fX:.- ; @X4.s.T._.eXL.aXX 1.G.yX(.H.xXT.zXY.Y.( 1.9.mXR.v 6 h.1.iX+XQ +XcXH ^.cXpX( s.Y.MX}.yX}.i.NXc.p.Q Q Q W +X+X! u y D BX  ",
"I t.( - VX@Xs.T.CXM l.l.l.0.y - (.1.xXzXT.6XY.Y.#X#X4.XX@X( G.t @X~.|.&.y X W Q uXZXuX~.q.&.p.gX.XQ Q ZX+XQ y = x [.+X! p u.-   ",
"B.t.t t - AXv.CXI.r.l.l.l.*.l.a 1.1.1./.A.v.T.pXpXpXpXpXpXh.( ( }.1Xd.^ x &.u.H ^.cX~.~.( p y >XgX[.ZXvX+XwXa } 6 s s ! %.5 %   ",
"%XK.r r t t AX6XN r.l.r.*.l.*.r.y t . aX/.6XpXpXpXpXpXpXpXi.u.. $X&Xi i r p.4Xo.H * ^.c s t p uXcX>.ZXp.+Xc t x y &.s s iX7 q.  ",
"B.K.6 r t t . sXl.r.r.r.r.r.r.r.} . . . (.Z.S.pXpXpXNXNX5.v.z ( $X9X9X9X9X^.a.Q Q * |.y.2X&X5X|.>.|.>.y.wXy.c u 7.O.O.wX} ^ SX  ",
",X3 6 r - ( . t . R.r.j.j.r.j.j.k.. . . . Z.L.-XpXNX6XkXNX! 5.. &.p.uXMXuXMXo.3.DX( Q p.FXuXFXo.cX3.% - FXMXO.p.|.vX2X!.l } 3.  ",
"V.y r t t t . . . . t 4 j.j.0 6 t . . . t ( . t [ f.c.6XNXiX- . - . fXfXfXfXGX( ( . . . GXfXHXGXGX. . - - &.s % DXDX3.l p p 4X  ",
"B.=.=.=.g.:.:.t.:.t.t.*.=.Y e.t.2.2.2.t.t.t.t.K.e.9 9 2 9 2 K.K.t.K.K.=.K.=.K.K.2.2.2.K.K.=.=.=.K.K.:.K.K.=.=.> 9 1 1 < 2.7 q.  ",
"n.t r t t t t t t t t t t t t t t t ( . . . . t ( . . ( . ( t . t . t t t t t t t t t . t t ( ( - ( t ( t t t t t t t t t . &   ",
"  . t ( t t t t t t . . . . . t . t t ( ( ( . . t . ( ( ( . t . . t . t . t . . . . . t . . t . . ( . t . . t t t t t t t t X   ",
"  t ( ( t t t t t . t . . t . . t . . ( . . . . . ( . . . . . . . . . . . t . t . t . . t . . . . . t . t . t . t t ( t ( t     ",
"  . . t . ( . . . . . . . . . . . . . . t . . . . . . . . . . . . . . . . . . . . . . . . . . . . . . . . . . . . . . ( t (     ",
"  . . . t . . . . . . . . t . t t . t . . . . . . . ( . ( . . . . . . . . . . . . . . . . . . . . . . . . . . . . . t . t . .   ",
"    . . . n.. a X ( t X & n.t X .   . X     X X - - .   ( X . - X tX  *   &                 - - n.                    .         ",
"                                            -                         .   -                       .                             ",
"                                                                                                                                ",
"                                                                                                                                ",
"                                                                                                                                ",
"                                                                                                                                ",
"                                                                                                                                ",
"                                                                                                                                ",
"                                                                                                                                ",
"                                                                                                                                ",
"                                                                                                                                ",
"                                                                                                                                "};
