/* XPM */
static char * kde_display_xpm[] = {
"32 32 26 1",
" 	c None",
".	c #79E779E779E7",
"X	c #BEFBBEFBBEFB",
"o	c #0000FFFF0000",
"O	c #FFFFFFFFFFFF",
"+	c #000000000000",
"@	c #FFFFFFFF0000",
"#	c #79E779E70000",
"$	c #BEFBBEFBDF7D",
"%	c #AEBAB6DAD75C",
"&	c #9E79AEBACF3C",
"*	c #9658A699CF3C",
"=	c #8E389E79C71B",
"-	c #86179E79C71B",
";	c #79E79658BEFB",
":	c #71C68E38BEFB",
">	c #0000000079E7",
",	c #79E700000000",
"<	c #79E7000079E7",
"1	c #69A68E38B6DA",
"2	c #61858617B6DA",
"3	c #FFFF00000000",
"4	c #596579E7AEBA",
"5	c #514479E7AEBA",
"6	c #492471C6A699",
"7	c #410369A6A699",
"     ........................   ",
"    .XXXXXXXXXXXXXXXXoXXXXXO.+  ",
"   .XXXXXXXXXXXXXXXXXoXXXXO..+  ",
"  .OOOOOOOOOOOOOOOOOoo+OOO...+  ",
" .OXXXXXXXXXXXXXXXXoo@+XXX...+  ",
" .OX...............oo.#+OX...+  ",
" .OX+++++++++++++++o@#.+OX...+  ",
" .OX+$$%%&&&&*==---##.#+OX...+  ",
" .OX+$%%&&&**==--;;:+++>OX...+  ",
" .OX+%%%&&**=--;;::,O<<+OX...+  ",
" .OX+%%&&**=--;::11,,,,+O#...+  ",
" .OX+%&&&*=-;;::122,X33+#@+..+  ",
" .OX+&&&*=--;:11224,O33#@@#+.+  ",
" .OX+&&*==-;:112445,O3#@#@@#++  ",
" .OX+&&*=-;::124456,O#@@@+#+.+  ",
" .OX+&*=--;:1244566,#@@@@#+..+  ",
" .OX+&*=-;:12245677#@@@+#+...+  ",
" .OX+*==-;:1245667#@#@@#+X...+  ",
" .OX+*=-;:1224567#@@@+#+OX...+  ",
" .OX+*=-;:124567#@@@@#++OX...+  ",
" .OX>>>>>>>>>>>#@@@+#+3+OX...+  ",
" .OXOOOOOOOOOO#@#@@#+33+OX...+  ",
" .OXXXXXXXXXX#@@@+#+X33+XX..+   ",
" ...........#@@@@#+,X33+...+    ",
"  +++++++++#@@@+#++,X33++++     ",
"          #@#@@#+.+,X33+        ",
"       ..#@@@+#+XX.,X33+        ",
"     ..XXX.@@#+XXXX,X33+        ",
"    .OOOOOX.#+XXXXX,333++       ",
"    .OOOXXXX.XXXXXXX+++.+       ",
"     ++XOOOOOOOOOOXX..++        ",
"       +++++++++++++++          "};
