/* XPM */
static char * kde_html2_xpm[] = {
"32 32 16 1",
" 	c None",
".	c #79E779E779E7",
"X	c #000000000000",
"o	c #F7DEF7DEEFBE",
"O	c #0000000079E7",
"+	c #F7DEF7DEE79D",
"@	c #F7DEF7DEDF7D",
"#	c #FFFFFFFFAEBA",
"$	c #FFFFFFFFA699",
"%	c #FFFFFFFF9E79",
"&	c #000079E779E7",
"*	c #FFFFFFFFFFFF",
"=	c #F7DEF7DEBEFB",
"-	c #F7DEF7DEC71B",
";	c #F7DEF7DECF3C",
":	c #BEFBBEFBBEFB",
"  ......................XX      ",
" ..ooooooooooooooooooo.XOOX     ",
".oooo+++++++++++++++ooXOO.OX    ",
".o++++++++++++++++++++XXX..X    ",
".++++@@@@@@@@@@@@@@@++X..X.X    ",
".......................XXX.X    ",
" .OOOOOOOOOOOOOOOOOOOOOOOX.X    ",
"  .........................X    ",
"  .#$$$%%%%%%%%%%%$$$####..X    ",
"  .##&&&&&&&&&&&%$$$######.X    ",
"  .##&&&&&&&&&&&$$$######.X     ",
"  .##&&***&***&&$#######=.X     ",
"  .##&&&**&&*&&&#######==.X     ",
"  .##&&&*&*&*&&&######===.X     ",
"  .==&&&*&&**&&&####=====..     ",
"  .==&&&*&&&*&&&##======.X      ",
"  .==&X***XXXO&&=======-.X      ",
"  .-=&XXXXXXXXXO=====---.X      ",
"  .--&XXXXXXXXXX===-----.X      ",
" .----------------------.X      ",
" .----------------------.X      ",
" .;--................-;;X.      ",
" .;;;;-------------;;;;;X.      ",
".;;;.............;;;;;;;XXXXXO  ",
".@@;;;;;;;;;;;;;;;;;;;@@XO.X.OX ",
".@@@.............;;;@@@@X.X.:.OX",
".+@@@@@@@@@@@@@@@@@@@@@+X.XXX..X",
".++++................+++X.XO.X.X",
".o+++++++++++++++++++++oX.XXX:.X",
" .ooo+++++++++++++++oooooX..:..X",
"  ........................X..:X ",
"   .XXXXXXXXXXXXXXXXXXXXXXXXXX  "};
