/* XPM */
static char * kde_filemanager_xpm[] = {
"32 32 63 1",
" 	c None",
".	c #DF7DDB6CDF7D",
"X	c #DF7DDF7DDF7D",
"o	c #D75CD34CD75C",
"O	c #EFBEEBADE79D",
"+	c #BEFBBAEABEFB",
"@	c #C71BC30BC71B",
"#	c #CF3CCB2BC71B",
"$	c #30C230C230C2",
"%	c #D75CE38DEFBE",
"&	c #CF3CE38DFFFF",
"*	c #C71BD34CDF7D",
"=	c #D75CE38DFFFF",
"-	c #9E79A289AEBA",
";	c #79E779E779E7",
":	c #FFFFFBEEFFFF",
">	c #BEFB9A699658",
",	c #208120812081",
"<	c #000004100820",
"1	c #71C671C671C6",
"2	c #8E388A288E38",
"3	c #410341034103",
"4	c #E79DE38DE79D",
"5	c #96589A699658",
"6	c #A699AAAAAEBA",
"7	c #28A228A228A2",
"8	c #D75CC71BBEFB",
"9	c #CF3CB2CAAEBA",
"0	c #AEBAAAAAB6DA",
"q	c #514451445144",
"w	c #69A66DB669A6",
"e	c #F7DEE79DE79D",
"r	c #AEBAAEBAAEBA",
"t	c #28A230C230C2",
"y	c #BEFBB6DAB6DA",
"u	c #BEFBBEFBBEFB",
"i	c #AEBAB6DABEFB",
"p	c #38E338E338E3",
"a	c #CF3CBAEAB6DA",
"s	c #596561856185",
"d	c #69A669A671C6",
"f	c #965892489E79",
"g	c #38E3514479E7",
"h	c #8E389E79BEFB",
"j	c #20812CB24103",
"k	c #41034D345965",
"l	c #596569A679E7",
"z	c #79E769A669A6",
"x	c #618561856185",
"c	c #71C67DF79658",
"v	c #79E786178617",
"b	c #86178A289E79",
"n	c #861782078617",
"m	c #96589A69A699",
"M	c #9E799E79A699",
"N	c #8E388E389658",
"B	c #618571C69658",
"V	c #104010401040",
"C	c #30C230C228A2",
"Z	c #186118611861",
"A	c #AEBA79E769A6",
"S	c #A699B2CAAEBA",
"D	c #0000082028A2",
"                                ",
"                                ",
"                                ",
".X.............................o",
"O+@@@@@@@@@@@@#@@@@@@@@@@@@@@#.$",
".O%&*&&*&&*&&=-;:*&*&&*&&*&&*%>,",
"%#<<<<<<<<<<<<<12<<<<<<<<<<<<<3$",
"4X::::::::::::.5::::::::::::::67",
"4X+8o89000006+qwe>o89-000000r6t$",
"4X+@yu@0000r+@q1:r@uy@00000+irp$",
"4X+oaao0000+r@sd:9488o00000@#+p$",
"4X@eOe#0000+u8s1:f<g,h00000jkl3p",
"44>$zlq0000>lxk1:>lc-u00000wvb3j",
"44rn-ff0000rm5q1:6fMM+00000NMMpp",
"44>l3xh0000-lqk1:h$Bkh00000klc3$",
"44><cku0000>k3gw:hVljh00000pgB3p",
"44rM2Mf0000655q1:6f56v00000NMM3p",
"44ibzf-0000ub2g1:i;b-v00000zf-pp",
"%@tC$$$t777tC$VN>Z$$$$7t77t$$,w$",
"4en;;;;;;;;;;z@Ne;;;;;;;;;;;d.2t",
"4e<5222222222f51upN222222222n%tj",
"4os2v2nvn2nvnNtw@12vn2vnn2vn21$j",
"4.#8@5u@#Nu@#N@:eNuu#66u@i>u@uit",
"4%<<<kAkq<Mqs<8qq<*jg<6sw$dAAz,$",
"4o8o#ruiy5#-i2.-i2X>95oMrM+ihSrt",
"4e<<<svggZ8A><XAz<XggDuAAzc>AAj$",
":#1z;>2ddN5xx;0sdwuxwwuslxrdlxr$",
"N<ZZZZZZZZZZZZZVZZZZZZZZZZZVZZZ<",
"                                ",
"                                ",
"                                ",
"                                "};
