/* XPM */
static char * kde_chart_xpm[] = {
"32 32 11 1",
" 	c None",
".	c #79E779E779E7",
"X	c #000000000000",
"o	c #FFFFFFFF0000",
"O	c #FFFFFFFFFFFF",
"+	c #79E779E70000",
"@	c #BEFBBEFBBEFB",
"#	c #0000FFFFFFFF",
"$	c #000079E779E7",
"%	c #79E7000079E7",
"&	c #FFFF0000FFFF",
"                 .XXX           ",
"               XX.oOo.X         ",
"               XOoOoOoOX        ",
"               XX.oOo.XX        ",
"              XX++XXXooX        ",
"            XX@X+++XoooX        ",
"          XX@@@X+++XoooXX       ",
"        XXOO@@@X+++XoooX@XX     ",
"      XXOOOO@@XXX++XoooX@@@XX   ",
"    XXOOOO@@X.#O#.XXoo+X@@@@@XX ",
"  XXOOOO@@@XO#O#O#OXoo+X@@@@@@X ",
" XOOOOOO@@@XX.#O#.XXo++X@@@@@@X ",
" XOOOOOO@@@X$$XXX##Xo++X@@@@@@X ",
" XOOOOOO@@@X$$$X###X+++X@@@@@@X ",
" XOOOOOO@@@X$$$X###X+++X@@@@@@X ",
" XOOOO@@@@XXX$$X##$X+++X@@@@@@X ",
" XOO@@@@X%&&&%XX##$X+++X@@@@@@X ",
" XOO@@@X&&&&&&&X#$$X+++X@@@@@@X ",
" XOO@@@XX%&&&%XX#$$X+++X@@@@@@X ",
" XOO@@@X%%XXX&&X$$$X+++X@@@@@@X ",
" XOO@@XX%%%X&&&X$$$X+++X@@@@@@X ",
" XOOXX.X%%%X&&&X$$$X+++XXX@@@@X ",
" XXX...X%%%X&&%X$$$X+XX@O@XX@@X ",
" XOO...X%%%X&&%X$$$XXO@O@O@OXXX ",
" XX@O@.X%%%X&%%X$XX@O@O@O@O@O@X ",
"   XXO@XX%%X&%%XXO@O@O@O@O@OXX  ",
"     XX@OXXX%XX@O@O@O@O@O@XX    ",
"       XXO@XXO@O@O@O@O@OXX      ",
"         XX@O@O@O@O@O@XX        ",
"           XXO@O@O@OXX          ",
"             XX@O@XX            ",
"               XXX              "};
