/* XPM */
static char * kde_display_xpm[] = {
"32 32 64 1",
" 	c None",
".	c #DF7DDB6CDF7D",
"X	c #E79DE38DE79D",
"o	c #D75CD34CD75C",
"O	c #CF3CCB2BCF3C",
"+	c #A699A289AEBA",
"@	c #BEFBBAEABEFB",
"#	c #69A64D3469A6",
"$	c #618520816185",
"%	c #000010401861",
"&	c #000030C24103",
"*	c #861786179658",
"=	c #208141036185",
"-	c #C71BCF3CE79D",
";	c #BEFBCB2BE79D",
":	c #AEBABAEADF7D",
">	c #B6DAC30BDF7D",
",	c #A699BAEADF7D",
"<	c #9E79B2CAD75C",
"1	c #9658AAAACF3C",
"2	c #492430C24924",
"3	c #8E38A289CF3C",
"4	c #8617A289C71B",
"5	c #596518615965",
"6	c #AEBABAEAAEBA",
"7	c #79E79A69C71B",
"8	c #AEBAAAAAAEBA",
"9	c #71C69248BEFB",
"0	c #A699A289A699",
"q	c #965892489E79",
"w	c #38E30C305144",
"e	c #69A68A28BEFB",
"r	c #410341034103",
"t	c #61858A28B6DA",
"y	c #59658207B6DA",
"u	c #59658207AEBA",
"i	c #514479E7AEBA",
"p	c #492479E7AEBA",
"a	c #8E388A288E38",
"s	c #410371C6A699",
"d	c #965892489658",
"f	c #861782078617",
"g	c #30C230C230C2",
"h	c #71C671C671C6",
"j	c #28A228A228A2",
"k	c #596559655965",
"l	c #28A279E728A2",
"z	c #71C68A2871C6",
"x	c #8617D34C8617",
"c	c #86178A288E38",
"v	c #596538E35965",
"b	c #38E338E338E3",
"n	c #208120812081",
"m	c #A699AAAABEFB",
"M	c #492465956185",
"N	c #492449244924",
"B	c #082008200820",
"V	c #186118611861",
"C	c #EFBEEBADEFBE",
"Z	c #514451445144",
"A	c #861782078E38",
"S	c #A699A289B6DA",
"D	c #CF3CCB2BDF7D",
"F	c #514451445965",
"                                ",
" .XXXXXXXXXXXXXXXXXXXXXX..oOoo+ ",
" X.....................ooo@@@@# ",
" X.....................oo@@@@@$ ",
" X..%&&&&&&&&&&&&&&&&&&&&&&*@@= ",
" X..&---;;;:>::,:<<<<1<1111X@@2 ",
" X..&--;:;:::<,<<1<11133434X@@5 ",
" X..&-;:;:,,:<<111113344344X@65 ",
" X..&;>;:,::1<<111343444477X8+2 ",
" X..&;>::,:1<<1113434477799X802 ",
" X..&;::,:1<<11144447799999X0qw ",
" X..&>::<<<<11343477999999eX00r ",
" X..&>:<<<1113444779999e9ttX0qr ",
" X..&:<:<<113444799999ettttX00r ",
" X..&::<11134447979e9tttttyX0qr ",
" X..&:<1<114447999e9tttyuyuX00r ",
" X..&<<<114347999etettuyuuiX0qr ",
" X..&<<1334479999tetuyuuiipX0ar ",
" X..&<<114477999tetutiiippsXdfr ",
" X..&<11434799e9ttuuuiipsspXffg ",
" X..&<13447999etttuuippspssXfhg ",
" X..*XXXXXXXXXXXXXXXXXXXXXXXffj ",
" X.ooO@@@@@@@@80q00q0q00dklzhfj ",
" X.O@@@@@@@@@60q00q000q0hhx6ffj ",
" cvv$$w255rrrrrrrrrrrgbgjjjjjjn ",
" m00+++0bjgnfhMNbjnBBVnjk++++0+ ",
"      C6###Mk#MkZrgjrZ##ZA      ",
"      .0dddddcfhfhfhdddddkq     ",
"     ..oooo.ooo.....ooo.o.ZS    ",
"     @00000q0000q0q00000q0#+    ",
"    D#FFZkFZkkZkkkkFZkFZkk*     ",
"                                "};
