/* XPM */
static char * image_name[] = {
"48 48 4 1",
" 	c #000000000000",
".	c #514455555144",
"X	c #AEBAAAAAAEBA",
"o	c #FFFFFFFFFFFF",
"                                                ",
"                                                ",
"     .                                    .     ",
"                                                ",
"   .  ....................................  .   ",
"     .                                    .     ",
"     . XXXXXXXXXXXXXXXXXXXXXXXXXXXXXXXXXX .     ",
"     . XXXXXXXXXoXXXXXXXXX.XXXXXXXXXXXXXX .     ",
"     . XXXXXXXXXXXXXXX.XX..XXXXXXXXXXXXXX .     ",
"     . XXXXXXXXXXX.o..XX X.....XoXXXXXXXX .     ",
"     . XXXXXXXXXo...  .    ...XXXXXXXXXXX .     ",
"     . XXXXXXXXXo...         ...XXXXXXXXX .     ",
"     . XXXXXXXXXo..           . ..XXXXXXX .     ",
"     . XXXXXXXXXo .           ..XXXXXXXXX .     ",
"     . XXXXXXXXX               .XXXXXXXXX .     ",
"     . XXXXXXXXo               oXXXXXXXXX .     ",
"     . XXXXXXXX.               .XXXXXXXXX .     ",
"     . XXXXXXXXX              o. XXXXXXXX .     ",
"     . XXXXXXXX.               ..XXXXXXXX .     ",
"     . XXXXXXXXX              X..XXXXXXXX .     ",
"     . XXXXXXXXX                XXXXXXXXX .     ",
"     . XXXXXXXXXX              ..XXXXXXXX .     ",
"     . XXXXXXXX.o.            o..XXXXXXXX .     ",
"     . XXXXXXXXX..           oX..XXXXXXXX .     ",
"     . XXXXXXXXo....       oXXX .XXXXXXXX .     ",
"     . XXXXXXXXXX XXX.oX.. XXX. .XXXXXXXX .     ",
"     . XXXXXXXXXX...X... .XX... XXXXXXXXX .     ",
"     . XXXXXXXXX.XXX... ..XXXX.XXXXXXXXXX .     ",
"     . XXXXXXXXXXXXXXXXXXXXXXXXXXXXXXXXXX .     ",
"     . XXXXXXXXXXXXXXXXXXXXXXXXXXXXXXXXXX .     ",
"     .                                    .     ",
"      ....................................      ",
"                                                ",
"                                                ",
"                                                ",
"                . . . . . . . .                 ",
"                 . . . . . . .                  ",
"                                                ",
"                                                ",
"                . . . . . . . . .               ",
"              ....................              ",
"     ..... .                        . .....     ",
"           .                        .           ",
"     ..... .                        . .....     ",
"           .                        .           ",
"                                                ",
"                                                ",
"                                                "};
